<?xml version="1.0" encoding="UTF-8" standalone="no"?><svg xmlns="http://www.w3.org/2000/svg" xmlns:xlink="http://www.w3.org/1999/xlink" contentScriptType="application/ecmascript" contentStyleType="text/css" height="382px" preserveAspectRatio="none" style="width:486px;height:382px;background:#FFFFFF;" version="1.1" viewBox="0 0 486 382" width="486px" zoomAndPan="magnify"><defs><filter height="300%" id="f1gobvdwodd155" width="300%" x="-1" y="-1"><feGaussianBlur result="blurOut" stdDeviation="2.0"/><feColorMatrix in="blurOut" result="blurOut2" type="matrix" values="0 0 0 0 0 0 0 0 0 0 0 0 0 0 0 0 0 0 .4 0"/><feOffset dx="4.0" dy="4.0" in="blurOut2" result="blurOut3"/><feBlend in="SourceGraphic" in2="blurOut3" mode="normal"/></filter></defs><g><!--MD5=[b4f8820839508f96af268734c5365709]
class AddContainersWithoutChangingComUI--><rect codeLine="2" fill="#FEFECE" filter="url(#f1gobvdwodd155)" height="48" id="AddContainersWithoutChangingComUI" style="stroke:#A80036;stroke-width:1.5;" width="248" x="115.5" y="7"/><ellipse cx="130.5" cy="23" fill="#ADD1B2" rx="11" ry="11" style="stroke:#A80036;stroke-width:1.0;"/><path d="M132.5,19.5 Q132.7031,19 132.9375,18.75 Q133.1719,18.5 133.4375,18.5 Q133.9063,18.5 134.2031,18.7813 Q134.5,19.0625 134.5,19.7188 L134.5,21.2813 Q134.5,21.9375 134.2188,22.2188 Q133.9375,22.5 133.5,22.5 Q133.1094,22.5 132.8594,22.3281 Q132.6094,22.1563 132.5,21.7031 Q132.4531,21.3906 132.2813,21.2188 Q131.9688,20.8906 131.4063,20.7031 Q130.8438,20.5 130.2813,20.5 Q129.5781,20.5 128.9844,20.7813 Q128.4063,21.0625 127.9531,21.6875 Q127.5,22.3125 127.5,23.1719 L127.5,24.0938 Q127.5,25.125 128.3438,25.8125 Q129.1875,26.5 130.6875,26.5 Q131.5781,26.5 132.2031,26.2969 Q132.5625,26.1875 132.9688,25.8281 Q133.2344,25.625 133.375,25.5625 Q133.5156,25.5 133.6875,25.5 Q134.0156,25.5 134.25,25.7656 Q134.5,26.0156 134.5,26.375 Q134.5,26.7188 134.1563,27.125 Q133.6563,27.7188 132.8594,28.0469 Q131.8125,28.5 130.5313,28.5 Q129.0313,28.5 127.8281,27.9063 Q126.8594,27.4375 126.1719,26.4219 Q125.5,25.4063 125.5,24.2031 L125.5,23.1094 Q125.5,21.8594 126.0938,20.7656 Q126.7031,19.6719 127.75,19.0938 Q128.8125,18.5 130,18.5 Q130.7188,18.5 131.3438,18.75 Q131.9688,19 132.5,19.5 Z " fill="#000000"/><text fill="#000000" font-family="sans-serif" font-size="12" lengthAdjust="spacing" textLength="216" x="144.5" y="27.9102">AddContainersWithoutChangingComUI</text><line style="stroke:#A80036;stroke-width:1.5;" x1="116.5" x2="362.5" y1="39" y2="39"/><line style="stroke:#A80036;stroke-width:1.5;" x1="116.5" x2="362.5" y1="47" y2="47"/><!--MD5=[04a9f9a47ba8f824d7af9530da2aa7ca]
class AddContainersWithoutChangingComController--><rect codeLine="4" fill="#FEFECE" filter="url(#f1gobvdwodd155)" height="75.6719" id="AddContainersWithoutChangingComController" style="stroke:#A80036;stroke-width:1.5;" width="402" x="38.5" y="115"/><ellipse cx="106.25" cy="131" fill="#ADD1B2" rx="11" ry="11" style="stroke:#A80036;stroke-width:1.0;"/><path d="M108.25,127.5 Q108.4531,127 108.6875,126.75 Q108.9219,126.5 109.1875,126.5 Q109.6563,126.5 109.9531,126.7813 Q110.25,127.0625 110.25,127.7188 L110.25,129.2813 Q110.25,129.9375 109.9688,130.2188 Q109.6875,130.5 109.25,130.5 Q108.8594,130.5 108.6094,130.3281 Q108.3594,130.1563 108.25,129.7031 Q108.2031,129.3906 108.0313,129.2188 Q107.7188,128.8906 107.1563,128.7031 Q106.5938,128.5 106.0313,128.5 Q105.3281,128.5 104.7344,128.7813 Q104.1563,129.0625 103.7031,129.6875 Q103.25,130.3125 103.25,131.1719 L103.25,132.0938 Q103.25,133.125 104.0938,133.8125 Q104.9375,134.5 106.4375,134.5 Q107.3281,134.5 107.9531,134.2969 Q108.3125,134.1875 108.7188,133.8281 Q108.9844,133.625 109.125,133.5625 Q109.2656,133.5 109.4375,133.5 Q109.7656,133.5 110,133.7656 Q110.25,134.0156 110.25,134.375 Q110.25,134.7188 109.9063,135.125 Q109.4063,135.7188 108.6094,136.0469 Q107.5625,136.5 106.2813,136.5 Q104.7813,136.5 103.5781,135.9063 Q102.6094,135.4375 101.9219,134.4219 Q101.25,133.4063 101.25,132.2031 L101.25,131.1094 Q101.25,129.8594 101.8438,128.7656 Q102.4531,127.6719 103.5,127.0938 Q104.5625,126.5 105.75,126.5 Q106.4688,126.5 107.0938,126.75 Q107.7188,127 108.25,127.5 Z " fill="#000000"/><text fill="#000000" font-family="sans-serif" font-size="12" lengthAdjust="spacing" textLength="258" x="126.75" y="135.9102">AddContainersWithoutChangingComController</text><line style="stroke:#A80036;stroke-width:1.5;" x1="39.5" x2="439.5" y1="147" y2="147"/><line style="stroke:#A80036;stroke-width:1.5;" x1="39.5" x2="439.5" y1="155" y2="155"/><ellipse cx="49.5" cy="166" fill="#84BE84" rx="3" ry="3" style="stroke:#038048;stroke-width:1.0;"/><text fill="#000000" font-family="sans-serif" font-size="11" lengthAdjust="spacing" textLength="373" x="58.5" y="170.4189">addContainerWithoutChangingCom(numeroPartes, massaTotal, xInicial, xFinal,</text><text fill="#000000" font-family="sans-serif" font-size="11" lengthAdjust="spacing" textLength="270" x="58.5" y="184.2549">yInicial, yFinal, formasGeometricas, massaAcrescentar)</text><!--MD5=[59b69178a3371929e4ed347205b12574]
class CenterOfMass--><rect codeLine="8" fill="#FEFECE" filter="url(#f1gobvdwodd155)" height="117.1797" id="CenterOfMass" style="stroke:#A80036;stroke-width:1.5;" width="465" x="7" y="251"/><ellipse cx="195.75" cy="267" fill="#ADD1B2" rx="11" ry="11" style="stroke:#A80036;stroke-width:1.0;"/><path d="M197.75,263.5 Q197.9531,263 198.1875,262.75 Q198.4219,262.5 198.6875,262.5 Q199.1563,262.5 199.4531,262.7813 Q199.75,263.0625 199.75,263.7188 L199.75,265.2813 Q199.75,265.9375 199.4688,266.2188 Q199.1875,266.5 198.75,266.5 Q198.3594,266.5 198.1094,266.3281 Q197.8594,266.1563 197.75,265.7031 Q197.7031,265.3906 197.5313,265.2188 Q197.2188,264.8906 196.6563,264.7031 Q196.0938,264.5 195.5313,264.5 Q194.8281,264.5 194.2344,264.7813 Q193.6563,265.0625 193.2031,265.6875 Q192.75,266.3125 192.75,267.1719 L192.75,268.0938 Q192.75,269.125 193.5938,269.8125 Q194.4375,270.5 195.9375,270.5 Q196.8281,270.5 197.4531,270.2969 Q197.8125,270.1875 198.2188,269.8281 Q198.4844,269.625 198.625,269.5625 Q198.7656,269.5 198.9375,269.5 Q199.2656,269.5 199.5,269.7656 Q199.75,270.0156 199.75,270.375 Q199.75,270.7188 199.4063,271.125 Q198.9063,271.7188 198.1094,272.0469 Q197.0625,272.5 195.7813,272.5 Q194.2813,272.5 193.0781,271.9063 Q192.1094,271.4375 191.4219,270.4219 Q190.75,269.4063 190.75,268.2031 L190.75,267.1094 Q190.75,265.8594 191.3438,264.7656 Q191.9531,263.6719 193,263.0938 Q194.0625,262.5 195.25,262.5 Q195.9688,262.5 196.5938,262.75 Q197.2188,263 197.75,263.5 Z " fill="#000000"/><text fill="#000000" font-family="sans-serif" font-size="12" lengthAdjust="spacing" textLength="79" x="216.25" y="271.9102">CenterOfMass</text><line style="stroke:#A80036;stroke-width:1.5;" x1="8" x2="471" y1="283" y2="283"/><line style="stroke:#A80036;stroke-width:1.5;" x1="8" x2="471" y1="291" y2="291"/><ellipse cx="18" cy="302" fill="#84BE84" rx="3" ry="3" style="stroke:#038048;stroke-width:1.0;"/><text fill="#000000" font-family="sans-serif" font-size="11" lengthAdjust="spacing" textLength="435" x="27" y="306.4189">adicionarContentoresSemAlterarCentroMassaX(numeroPartes, massaTotal, xInicial, xFinal,</text><text fill="#000000" font-family="sans-serif" font-size="11" lengthAdjust="spacing" textLength="346" x="27" y="320.2549">yInicial, yFinal, formasGeometricas, massaAcrescentar, centroMassaX)</text><text fill="#000000" font-family="sans-serif" font-size="11" lengthAdjust="spacing" textLength="0" x="30" y="334.0908"/><ellipse cx="18" cy="343.5078" fill="#84BE84" rx="3" ry="3" style="stroke:#038048;stroke-width:1.0;"/><text fill="#000000" font-family="sans-serif" font-size="11" lengthAdjust="spacing" textLength="436" x="27" y="347.9268">adicionarContentoresSemAlterarCentroMassaY(numeroPartes, massaTotal, xInicial, xFinal,</text><text fill="#000000" font-family="sans-serif" font-size="11" lengthAdjust="spacing" textLength="347" x="27" y="361.7627">yInicial, yFinal, formasGeometricas, massaAcrescentar, centroMassaY)</text><!--MD5=[f7d91a2bc0cac04a080cd7b62ea97324]
link AddContainersWithoutChangingComUI to AddContainersWithoutChangingComController--><path codeLine="14" d="M239.5,55.14 C239.5,70.58 239.5,91.33 239.5,109.67 " fill="none" id="AddContainersWithoutChangingComUI-to-AddContainersWithoutChangingComController" style="stroke:#A80036;stroke-width:1.0;stroke-dasharray:7.0,7.0;"/><polygon fill="#A80036" points="239.5,114.77,243.5,105.77,239.5,109.77,235.5,105.77,239.5,114.77" style="stroke:#A80036;stroke-width:1.0;"/><!--MD5=[04b7eb8b075ef16899bdf01f06eaa49f]
link AddContainersWithoutChangingComController to CenterOfMass--><path codeLine="15" d="M239.5,191.01 C239.5,207.41 239.5,227.17 239.5,245.76 " fill="none" id="AddContainersWithoutChangingComController-to-CenterOfMass" style="stroke:#A80036;stroke-width:1.0;"/><polygon fill="#A80036" points="239.5,250.97,243.5,241.97,239.5,245.97,235.5,241.97,239.5,250.97" style="stroke:#A80036;stroke-width:1.0;"/><!--MD5=[2f7e76c0c9939f66fdecefd57a3cdcbb]
@startuml

class AddContainersWithoutChangingComUI {}

class AddContainersWithoutChangingComController {
+addContainerWithoutChangingCom(numeroPartes, massaTotal, xInicial, xFinal, \nyInicial, yFinal, formasGeometricas, massaAcrescentar)
}

class CenterOfMass {
+adicionarContentoresSemAlterarCentroMassaX(numeroPartes, massaTotal, xInicial, xFinal, \nyInicial, yFinal, formasGeometricas, massaAcrescentar, centroMassaX)

+adicionarContentoresSemAlterarCentroMassaY(numeroPartes, massaTotal, xInicial, xFinal, \nyInicial, yFinal, formasGeometricas, massaAcrescentar, centroMassaY)
}

AddContainersWithoutChangingComUI ..> AddContainersWithoutChangingComController
AddContainersWithoutChangingComController - -> CenterOfMass
@enduml

PlantUML version 1.2021.11(Sat Oct 02 14:26:11 BST 2021)
(GPL source distribution)
Java Runtime: OpenJDK Runtime Environment
JVM: OpenJDK 64-Bit Server VM
Default Encoding: Cp1252
Language: pt
Country: PT
--></g></svg>