<?xml version="1.0" encoding="UTF-8" standalone="no"?><svg xmlns="http://www.w3.org/2000/svg" xmlns:xlink="http://www.w3.org/1999/xlink" contentScriptType="application/ecmascript" contentStyleType="text/css" height="503px" preserveAspectRatio="none" style="width:982px;height:503px;background:#FFFFFF;" version="1.1" viewBox="0 0 982 503" width="982px" zoomAndPan="magnify"><defs><filter height="300%" id="f1jbi5z2foozyl" width="300%" x="-1" y="-1"><feGaussianBlur result="blurOut" stdDeviation="2.0"/><feColorMatrix in="blurOut" result="blurOut2" type="matrix" values="0 0 0 0 0 0 0 0 0 0 0 0 0 0 0 0 0 0 .4 0"/><feOffset dx="4.0" dy="4.0" in="blurOut2" result="blurOut3"/><feBlend in="SourceGraphic" in2="blurOut3" mode="normal"/></filter></defs><g><!--MD5=[a3093aa9f96b7df9aab31d8715601ff6]
class Containers--><rect codeLine="8" fill="#FEFECE" filter="url(#f1jbi5z2foozyl)" height="178.3594" id="Containers" style="stroke:#A80036;stroke-width:1.5;" width="98" x="409" y="54.5"/><ellipse cx="426.25" cy="70.5" fill="#ADD1B2" rx="11" ry="11" style="stroke:#A80036;stroke-width:1.0;"/><path d="M428.25,67 Q428.4531,66.5 428.6875,66.25 Q428.9219,66 429.1875,66 Q429.6563,66 429.9531,66.2813 Q430.25,66.5625 430.25,67.2188 L430.25,68.7813 Q430.25,69.4375 429.9688,69.7188 Q429.6875,70 429.25,70 Q428.8594,70 428.6094,69.8281 Q428.3594,69.6563 428.25,69.2031 Q428.2031,68.8906 428.0313,68.7188 Q427.7188,68.3906 427.1563,68.2031 Q426.5938,68 426.0313,68 Q425.3281,68 424.7344,68.2813 Q424.1563,68.5625 423.7031,69.1875 Q423.25,69.8125 423.25,70.6719 L423.25,71.5938 Q423.25,72.625 424.0938,73.3125 Q424.9375,74 426.4375,74 Q427.3281,74 427.9531,73.7969 Q428.3125,73.6875 428.7188,73.3281 Q428.9844,73.125 429.125,73.0625 Q429.2656,73 429.4375,73 Q429.7656,73 430,73.2656 Q430.25,73.5156 430.25,73.875 Q430.25,74.2188 429.9063,74.625 Q429.4063,75.2188 428.6094,75.5469 Q427.5625,76 426.2813,76 Q424.7813,76 423.5781,75.4063 Q422.6094,74.9375 421.9219,73.9219 Q421.25,72.9063 421.25,71.7031 L421.25,70.6094 Q421.25,69.3594 421.8438,68.2656 Q422.4531,67.1719 423.5,66.5938 Q424.5625,66 425.75,66 Q426.4688,66 427.0938,66.25 Q427.7188,66.5 428.25,67 Z " fill="#000000"/><text fill="#000000" font-family="sans-serif" font-size="12" lengthAdjust="spacing" textLength="61" x="440.75" y="75.4102">Containers</text><line style="stroke:#A80036;stroke-width:1.5;" x1="410" x2="506" y1="86.5" y2="86.5"/><text fill="#000000" font-family="sans-serif" font-size="11" lengthAdjust="spacing" textLength="10" x="415" y="101.9189">-x</text><text fill="#000000" font-family="sans-serif" font-size="11" lengthAdjust="spacing" textLength="10" x="415" y="115.7549">-y</text><text fill="#000000" font-family="sans-serif" font-size="11" lengthAdjust="spacing" textLength="10" x="415" y="129.5908">-z</text><text fill="#000000" font-family="sans-serif" font-size="11" lengthAdjust="spacing" textLength="86" x="415" y="143.4268">-containerNumber</text><text fill="#000000" font-family="sans-serif" font-size="11" lengthAdjust="spacing" textLength="53" x="415" y="157.2627">-checkDigit</text><text fill="#000000" font-family="sans-serif" font-size="11" lengthAdjust="spacing" textLength="43" x="415" y="171.0986">-isoCode</text><text fill="#000000" font-family="sans-serif" font-size="11" lengthAdjust="spacing" textLength="46" x="415" y="184.9346">-payLoad</text><text fill="#000000" font-family="sans-serif" font-size="11" lengthAdjust="spacing" textLength="23" x="415" y="198.7705">-tare</text><text fill="#000000" font-family="sans-serif" font-size="11" lengthAdjust="spacing" textLength="32" x="415" y="212.6064">-gross</text><text fill="#000000" font-family="sans-serif" font-size="11" lengthAdjust="spacing" textLength="37" x="415" y="226.4424">-weight</text><!--MD5=[76562047389981627aea27c31a97aff5]
class CargoManifest--><rect codeLine="21" fill="#FEFECE" filter="url(#f1jbi5z2foozyl)" height="136.8516" id="CargoManifest" style="stroke:#A80036;stroke-width:1.5;" width="116" x="636" y="7"/><ellipse cx="652.8" cy="23" fill="#ADD1B2" rx="11" ry="11" style="stroke:#A80036;stroke-width:1.0;"/><path d="M654.8,19.5 Q655.0031,19 655.2375,18.75 Q655.4719,18.5 655.7375,18.5 Q656.2063,18.5 656.5031,18.7813 Q656.8,19.0625 656.8,19.7188 L656.8,21.2813 Q656.8,21.9375 656.5188,22.2188 Q656.2375,22.5 655.8,22.5 Q655.4094,22.5 655.1594,22.3281 Q654.9094,22.1563 654.8,21.7031 Q654.7531,21.3906 654.5813,21.2188 Q654.2688,20.8906 653.7063,20.7031 Q653.1438,20.5 652.5813,20.5 Q651.8781,20.5 651.2844,20.7813 Q650.7063,21.0625 650.2531,21.6875 Q649.8,22.3125 649.8,23.1719 L649.8,24.0938 Q649.8,25.125 650.6438,25.8125 Q651.4875,26.5 652.9875,26.5 Q653.8781,26.5 654.5031,26.2969 Q654.8625,26.1875 655.2688,25.8281 Q655.5344,25.625 655.675,25.5625 Q655.8156,25.5 655.9875,25.5 Q656.3156,25.5 656.55,25.7656 Q656.8,26.0156 656.8,26.375 Q656.8,26.7188 656.4563,27.125 Q655.9563,27.7188 655.1594,28.0469 Q654.1125,28.5 652.8313,28.5 Q651.3313,28.5 650.1281,27.9063 Q649.1594,27.4375 648.4719,26.4219 Q647.8,25.4063 647.8,24.2031 L647.8,23.1094 Q647.8,21.8594 648.3938,20.7656 Q649.0031,19.6719 650.05,19.0938 Q651.1125,18.5 652.3,18.5 Q653.0188,18.5 653.6438,18.75 Q654.2688,19 654.8,19.5 Z " fill="#000000"/><text fill="#000000" font-family="sans-serif" font-size="12" lengthAdjust="spacing" textLength="80" x="667.2" y="27.9102">CargoManifest</text><line style="stroke:#A80036;stroke-width:1.5;" x1="637" x2="751" y1="39" y2="39"/><text fill="#000000" font-family="sans-serif" font-size="11" lengthAdjust="spacing" textLength="81" x="642" y="54.4189">-listOfContainers</text><text fill="#000000" font-family="sans-serif" font-size="11" lengthAdjust="spacing" textLength="25" x="642" y="68.2549">-ratio</text><text fill="#000000" font-family="sans-serif" font-size="11" lengthAdjust="spacing" textLength="25" x="642" y="82.0908">-date</text><text fill="#000000" font-family="sans-serif" font-size="11" lengthAdjust="spacing" textLength="53" x="642" y="95.9268">-mmsiCode</text><text fill="#000000" font-family="sans-serif" font-size="11" lengthAdjust="spacing" textLength="12" x="642" y="109.7627">-id</text><text fill="#000000" font-family="sans-serif" font-size="11" lengthAdjust="spacing" textLength="104" x="642" y="123.5986">-numberOfContainers</text><text fill="#000000" font-family="sans-serif" font-size="11" lengthAdjust="spacing" textLength="56" x="642" y="137.4346">-destination</text><!--MD5=[0dc7f2ddb409b58bcf52b12238c25399]
class Ship--><rect codeLine="31" fill="#FEFECE" filter="url(#f1jbi5z2foozyl)" height="192.1953" id="Ship" style="stroke:#A80036;stroke-width:1.5;" width="141" x="7" y="189.5"/><ellipse cx="60.75" cy="205.5" fill="#ADD1B2" rx="11" ry="11" style="stroke:#A80036;stroke-width:1.0;"/><path d="M62.75,202 Q62.9531,201.5 63.1875,201.25 Q63.4219,201 63.6875,201 Q64.1563,201 64.4531,201.2813 Q64.75,201.5625 64.75,202.2188 L64.75,203.7813 Q64.75,204.4375 64.4688,204.7188 Q64.1875,205 63.75,205 Q63.3594,205 63.1094,204.8281 Q62.8594,204.6563 62.75,204.2031 Q62.7031,203.8906 62.5313,203.7188 Q62.2188,203.3906 61.6563,203.2031 Q61.0938,203 60.5313,203 Q59.8281,203 59.2344,203.2813 Q58.6563,203.5625 58.2031,204.1875 Q57.75,204.8125 57.75,205.6719 L57.75,206.5938 Q57.75,207.625 58.5938,208.3125 Q59.4375,209 60.9375,209 Q61.8281,209 62.4531,208.7969 Q62.8125,208.6875 63.2188,208.3281 Q63.4844,208.125 63.625,208.0625 Q63.7656,208 63.9375,208 Q64.2656,208 64.5,208.2656 Q64.75,208.5156 64.75,208.875 Q64.75,209.2188 64.4063,209.625 Q63.9063,210.2188 63.1094,210.5469 Q62.0625,211 60.7813,211 Q59.2813,211 58.0781,210.4063 Q57.1094,209.9375 56.4219,208.9219 Q55.75,207.9063 55.75,206.7031 L55.75,205.6094 Q55.75,204.3594 56.3438,203.2656 Q56.9531,202.1719 58,201.5938 Q59.0625,201 60.25,201 Q60.9688,201 61.5938,201.25 Q62.2188,201.5 62.75,202 Z " fill="#000000"/><text fill="#000000" font-family="sans-serif" font-size="12" lengthAdjust="spacing" textLength="25" x="81.25" y="210.4102">Ship</text><line style="stroke:#A80036;stroke-width:1.5;" x1="8" x2="147" y1="221.5" y2="221.5"/><text fill="#000000" font-family="sans-serif" font-size="11" lengthAdjust="spacing" textLength="53" x="13" y="236.9189">-mmsiCode</text><text fill="#000000" font-family="sans-serif" font-size="11" lengthAdjust="spacing" textLength="45" x="13" y="250.7549">-imoCode</text><text fill="#000000" font-family="sans-serif" font-size="11" lengthAdjust="spacing" textLength="129" x="13" y="264.5908">-numberEnergyGenerators</text><text fill="#000000" font-family="sans-serif" font-size="11" lengthAdjust="spacing" textLength="83" x="13" y="278.4268">-generatorPower</text><text fill="#000000" font-family="sans-serif" font-size="11" lengthAdjust="spacing" textLength="41" x="13" y="292.2627">-callSign</text><text fill="#000000" font-family="sans-serif" font-size="11" lengthAdjust="spacing" textLength="27" x="13" y="306.0986">-draft</text><text fill="#000000" font-family="sans-serif" font-size="11" lengthAdjust="spacing" textLength="30" x="13" y="319.9346">-name</text><text fill="#000000" font-family="sans-serif" font-size="11" lengthAdjust="spacing" textLength="68" x="13" y="333.7705">-vesselTypeId</text><text fill="#000000" font-family="sans-serif" font-size="11" lengthAdjust="spacing" textLength="33" x="13" y="347.6064">-length</text><text fill="#000000" font-family="sans-serif" font-size="11" lengthAdjust="spacing" textLength="31" x="13" y="361.4424">-width</text><text fill="#000000" font-family="sans-serif" font-size="11" lengthAdjust="spacing" textLength="45" x="13" y="375.2783">-capacity</text><!--MD5=[ea13aecf8df941b18fb8e3885c78c184]
class Ports--><rect codeLine="47" fill="#FEFECE" filter="url(#f1jbi5z2foozyl)" height="67.6719" id="Ports" style="stroke:#A80036;stroke-width:1.5;" width="76" x="892" y="163.5"/><ellipse cx="913.75" cy="179.5" fill="#ADD1B2" rx="11" ry="11" style="stroke:#A80036;stroke-width:1.0;"/><path d="M915.75,176 Q915.9531,175.5 916.1875,175.25 Q916.4219,175 916.6875,175 Q917.1563,175 917.4531,175.2813 Q917.75,175.5625 917.75,176.2188 L917.75,177.7813 Q917.75,178.4375 917.4688,178.7188 Q917.1875,179 916.75,179 Q916.3594,179 916.1094,178.8281 Q915.8594,178.6563 915.75,178.2031 Q915.7031,177.8906 915.5313,177.7188 Q915.2188,177.3906 914.6563,177.2031 Q914.0938,177 913.5313,177 Q912.8281,177 912.2344,177.2813 Q911.6563,177.5625 911.2031,178.1875 Q910.75,178.8125 910.75,179.6719 L910.75,180.5938 Q910.75,181.625 911.5938,182.3125 Q912.4375,183 913.9375,183 Q914.8281,183 915.4531,182.7969 Q915.8125,182.6875 916.2188,182.3281 Q916.4844,182.125 916.625,182.0625 Q916.7656,182 916.9375,182 Q917.2656,182 917.5,182.2656 Q917.75,182.5156 917.75,182.875 Q917.75,183.2188 917.4063,183.625 Q916.9063,184.2188 916.1094,184.5469 Q915.0625,185 913.7813,185 Q912.2813,185 911.0781,184.4063 Q910.1094,183.9375 909.4219,182.9219 Q908.75,181.9063 908.75,180.7031 L908.75,179.6094 Q908.75,178.3594 909.3438,177.2656 Q909.9531,176.1719 911,175.5938 Q912.0625,175 913.25,175 Q913.9688,175 914.5938,175.25 Q915.2188,175.5 915.75,176 Z " fill="#000000"/><text fill="#000000" font-family="sans-serif" font-size="12" lengthAdjust="spacing" textLength="29" x="929.25" y="184.4102">Ports</text><line style="stroke:#A80036;stroke-width:1.5;" x1="893" x2="967" y1="195.5" y2="195.5"/><text fill="#000000" font-family="sans-serif" font-size="11" lengthAdjust="spacing" textLength="64" x="898" y="210.9189">-identification</text><text fill="#000000" font-family="sans-serif" font-size="11" lengthAdjust="spacing" textLength="30" x="898" y="224.7549">-name</text><!--MD5=[efa7c3600894dd6faaa8b816738c33b1]
class ShipLocation--><rect codeLine="52" fill="#FEFECE" filter="url(#f1jbi5z2foozyl)" height="150.6875" id="ShipLocation" style="stroke:#A80036;stroke-width:1.5;" width="104" x="244" y="339"/><ellipse cx="259" cy="355" fill="#ADD1B2" rx="11" ry="11" style="stroke:#A80036;stroke-width:1.0;"/><path d="M261,351.5 Q261.2031,351 261.4375,350.75 Q261.6719,350.5 261.9375,350.5 Q262.4063,350.5 262.7031,350.7813 Q263,351.0625 263,351.7188 L263,353.2813 Q263,353.9375 262.7188,354.2188 Q262.4375,354.5 262,354.5 Q261.6094,354.5 261.3594,354.3281 Q261.1094,354.1563 261,353.7031 Q260.9531,353.3906 260.7813,353.2188 Q260.4688,352.8906 259.9063,352.7031 Q259.3438,352.5 258.7813,352.5 Q258.0781,352.5 257.4844,352.7813 Q256.9063,353.0625 256.4531,353.6875 Q256,354.3125 256,355.1719 L256,356.0938 Q256,357.125 256.8438,357.8125 Q257.6875,358.5 259.1875,358.5 Q260.0781,358.5 260.7031,358.2969 Q261.0625,358.1875 261.4688,357.8281 Q261.7344,357.625 261.875,357.5625 Q262.0156,357.5 262.1875,357.5 Q262.5156,357.5 262.75,357.7656 Q263,358.0156 263,358.375 Q263,358.7188 262.6563,359.125 Q262.1563,359.7188 261.3594,360.0469 Q260.3125,360.5 259.0313,360.5 Q257.5313,360.5 256.3281,359.9063 Q255.3594,359.4375 254.6719,358.4219 Q254,357.4063 254,356.2031 L254,355.1094 Q254,353.8594 254.5938,352.7656 Q255.2031,351.6719 256.25,351.0938 Q257.3125,350.5 258.5,350.5 Q259.2188,350.5 259.8438,350.75 Q260.4688,351 261,351.5 Z " fill="#000000"/><text fill="#000000" font-family="sans-serif" font-size="12" lengthAdjust="spacing" textLength="72" x="273" y="359.9102">ShipLocation</text><line style="stroke:#A80036;stroke-width:1.5;" x1="245" x2="347" y1="371" y2="371"/><text fill="#000000" font-family="sans-serif" font-size="11" lengthAdjust="spacing" textLength="72" x="250" y="386.4189">-baseDateTime</text><text fill="#000000" font-family="sans-serif" font-size="11" lengthAdjust="spacing" textLength="38" x="250" y="400.2549">-latitude</text><text fill="#000000" font-family="sans-serif" font-size="11" lengthAdjust="spacing" textLength="47" x="250" y="414.0908">-longitude</text><text fill="#000000" font-family="sans-serif" font-size="11" lengthAdjust="spacing" textLength="22" x="250" y="427.9268">-sog</text><text fill="#000000" font-family="sans-serif" font-size="11" lengthAdjust="spacing" textLength="22" x="250" y="441.7627">-cog</text><text fill="#000000" font-family="sans-serif" font-size="11" lengthAdjust="spacing" textLength="42" x="250" y="455.5986">-heading</text><text fill="#000000" font-family="sans-serif" font-size="11" lengthAdjust="spacing" textLength="41" x="250" y="469.4346">-position</text><text fill="#000000" font-family="sans-serif" font-size="11" lengthAdjust="spacing" textLength="59" x="250" y="483.2705">-transceiver</text><!--MD5=[d729e47c8b99010fceb84b610067730f]
link CargoManifest to Ports--><path codeLine="63" d="M752.24,105.34 C795.68,127.99 854.13,158.46 891.69,178.05 " fill="none" id="CargoManifest-Ports" style="stroke:#A80036;stroke-width:1.0;"/><polygon fill="#000000" points="791.4335,115.9874,784.772,109.1996,782.0544,114.4116,791.4335,115.9874" style="stroke:#000000;stroke-width:1.0;"/><text fill="#000000" font-family="sans-serif" font-size="13" lengthAdjust="spacing" textLength="65" x="796" y="118.9951">delivered at</text><text fill="#000000" font-family="sans-serif" font-size="13" lengthAdjust="spacing" textLength="5" x="760.0223" y="123.7154">*</text><text fill="#000000" font-family="sans-serif" font-size="13" lengthAdjust="spacing" textLength="7" x="876.9813" y="189.4967">1</text><!--MD5=[a27713cdd7694cea32c8be89a3131559]
link Containers to CargoManifest--><path codeLine="65" d="M507.2,129.49 C544.53,118.65 596.35,103.59 635.78,92.13 " fill="none" id="Containers-CargoManifest" style="stroke:#A80036;stroke-width:1.0;"/><polygon fill="#000000" points="546.8014,91.2807,537.2955,90.9822,538.9356,96.6266,546.8014,91.2807" style="stroke:#000000;stroke-width:1.0;"/><text fill="#000000" font-family="sans-serif" font-size="13" lengthAdjust="spacing" textLength="54" x="551" y="97.9951">related to</text><text fill="#000000" font-family="sans-serif" font-size="13" lengthAdjust="spacing" textLength="20" x="515.155" y="142.177">1..*</text><text fill="#000000" font-family="sans-serif" font-size="13" lengthAdjust="spacing" textLength="20" x="607.8921" y="108.5019">1..*</text><!--MD5=[c7fc6f07f2489647d2a3f83969f89660]
link Containers to Ports--><path codeLine="66" d="M507.15,155.18 C542.57,163.32 592.01,173.7 636,179.5 C727.45,191.55 836.06,195.56 891.84,196.87 " fill="none" id="Containers-Ports" style="stroke:#A80036;stroke-width:1.0;"/><polygon fill="#000000" points="681.9709,171.2145,673.2951,167.3181,672.6618,173.1618,681.9709,171.2145" style="stroke:#000000;stroke-width:1.0;"/><text fill="#000000" font-family="sans-serif" font-size="13" lengthAdjust="spacing" textLength="29" x="686" y="175.9951">store</text><text fill="#000000" font-family="sans-serif" font-size="13" lengthAdjust="spacing" textLength="20" x="515.0983" y="171.3191">0..*</text><text fill="#000000" font-family="sans-serif" font-size="13" lengthAdjust="spacing" textLength="7" x="876.8986" y="211.8348">1</text><!--MD5=[cff4e3c6ede03364cf99bd3378be6b6a]
link Ship to Containers--><path codeLine="68" d="M148.36,259.29 C224.09,230.88 342.91,186.3 408.85,161.57 " fill="none" id="Ship-Containers" style="stroke:#A80036;stroke-width:1.0;"/><polygon fill="#000000" points="272.6814,174.9196,263.1804,175.3449,265.2449,180.8482,272.6814,174.9196" style="stroke:#000000;stroke-width:1.0;"/><text fill="#000000" font-family="sans-serif" font-size="13" lengthAdjust="spacing" textLength="51" x="277" y="181.9951">transport</text><text fill="#000000" font-family="sans-serif" font-size="13" lengthAdjust="spacing" textLength="7" x="156.0284" y="270.9153">1</text><text fill="#000000" font-family="sans-serif" font-size="13" lengthAdjust="spacing" textLength="20" x="380.9017" y="178.5677">1..*</text><!--MD5=[b5e7d3b323f2cd13b2215620f50e65f3]
link Ship to Ports--><path codeLine="69" d="M148.21,285.5 C190.65,285.5 245.95,285.5 295,285.5 C295,285.5 295,285.5 695,285.5 C768.35,285.5 846.83,247.15 891.71,221.08 " fill="none" id="Ship-Ports" style="stroke:#A80036;stroke-width:1.0;"/><polygon fill="#000000" points="446.4813,276.2442,437.2163,274.097,437.7237,279.9529,446.4813,276.2442" style="stroke:#000000;stroke-width:1.0;"/><text fill="#000000" font-family="sans-serif" font-size="13" lengthAdjust="spacing" textLength="28" x="450.5" y="281.9951">dock</text><text fill="#000000" font-family="sans-serif" font-size="13" lengthAdjust="spacing" textLength="20" x="155.9027" y="299.7651">0..*</text><text fill="#000000" font-family="sans-serif" font-size="13" lengthAdjust="spacing" textLength="7" x="877.005" y="240.4603">1</text><!--MD5=[5541ef512584d1243c10a7f3b3317e1c]
link Ship to ShipLocation--><path codeLine="70" d="M148.19,327.03 C179.34,345.59 215.39,367.07 243.98,384.1 " fill="none" id="Ship-ShipLocation" style="stroke:#A80036;stroke-width:1.0;"/><polygon fill="#000000" points="187.2954,339.2349,181.0291,332.0806,178.0207,337.1302,187.2954,339.2349" style="stroke:#000000;stroke-width:1.0;"/><text fill="#000000" font-family="sans-serif" font-size="13" lengthAdjust="spacing" textLength="21" x="192" y="341.9951">has</text><text fill="#000000" font-family="sans-serif" font-size="13" lengthAdjust="spacing" textLength="7" x="155.8408" y="345.641">1</text><text fill="#000000" font-family="sans-serif" font-size="13" lengthAdjust="spacing" textLength="20" x="216.0337" y="394.7677">1..*</text><!--MD5=[5c02e5642227e1a0fa40b0fba58ab4ab]
@startuml
'https://plantuml.com/class-diagram

hide methods
left to right direction
skinparam classAttributeIconSize 0


class Containers {
-x
-y
-z
-containerNumber
-checkDigit
-isoCode
-payLoad
-tare
-gross
-weight
}

class CargoManifest {
-listOfContainers
-ratio
-date
-mmsiCode
-id
-numberOfContainers
-destination
}

class Ship {
-mmsiCode
-imoCode
-numberEnergyGenerators
-generatorPower
-callSign
-draft
-name
-vesselTypeId
-length
-width
-capacity
}



class Ports {
-identification
-name
}

class ShipLocation {
-baseDateTime
-latitude
-longitude
-sog
-cog
-heading
-position
-transceiver
}

CargoManifest "*" - - "1" Ports : delivered at >

Containers "1..*"- -"1..*" CargoManifest: related to >
Containers "0..*"- -"1" Ports: store >

Ship "1"- - -"1..*" Containers : transport >
Ship "0..*"- -"1" Ports: dock >
Ship "1" - - "1..*" ShipLocation : has >





@enduml

@startuml

hide methods
left to right direction
skinparam classAttributeIconSize 0


class Containers {
-x
-y
-z
-containerNumber
-checkDigit
-isoCode
-payLoad
-tare
-gross
-weight
}

class CargoManifest {
-listOfContainers
-ratio
-date
-mmsiCode
-id
-numberOfContainers
-destination
}

class Ship {
-mmsiCode
-imoCode
-numberEnergyGenerators
-generatorPower
-callSign
-draft
-name
-vesselTypeId
-length
-width
-capacity
}



class Ports {
-identification
-name
}

class ShipLocation {
-baseDateTime
-latitude
-longitude
-sog
-cog
-heading
-position
-transceiver
}

CargoManifest "*" - - "1" Ports : delivered at >

Containers "1..*"- -"1..*" CargoManifest: related to >
Containers "0..*"- -"1" Ports: store >

Ship "1"- - -"1..*" Containers : transport >
Ship "0..*"- -"1" Ports: dock >
Ship "1" - - "1..*" ShipLocation : has >





@enduml

PlantUML version 1.2021.11(Sat Oct 02 14:26:11 BST 2021)
(GPL source distribution)
Java Runtime: OpenJDK Runtime Environment
JVM: OpenJDK 64-Bit Server VM
Default Encoding: Cp1252
Language: pt
Country: PT
--></g></svg>