<?xml version="1.0" encoding="UTF-8" standalone="no"?><svg xmlns="http://www.w3.org/2000/svg" xmlns:xlink="http://www.w3.org/1999/xlink" contentScriptType="application/ecmascript" contentStyleType="text/css" height="345px" preserveAspectRatio="none" style="width:368px;height:345px;background:#FFFFFF;" version="1.1" viewBox="0 0 368 345" width="368px" zoomAndPan="magnify"><defs><filter height="300%" id="f1b6363fx2kxel" width="300%" x="-1" y="-1"><feGaussianBlur result="blurOut" stdDeviation="2.0"/><feColorMatrix in="blurOut" result="blurOut2" type="matrix" values="0 0 0 0 0 0 0 0 0 0 0 0 0 0 0 0 0 0 .4 0"/><feOffset dx="4.0" dy="4.0" in="blurOut2" result="blurOut3"/><feBlend in="SourceGraphic" in2="blurOut3" mode="normal"/></filter></defs><g><!--MD5=[786e21197693c5b73233528c598c9d7a]
class WarehouseActionUI--><rect codeLine="3" fill="#FEFECE" filter="url(#f1b6363fx2kxel)" height="48" id="WarehouseActionUI" style="stroke:#A80036;stroke-width:1.5;" width="141" x="28" y="7"/><ellipse cx="43" cy="23" fill="#ADD1B2" rx="11" ry="11" style="stroke:#A80036;stroke-width:1.0;"/><path d="M45,19.5 Q45.2031,19 45.4375,18.75 Q45.6719,18.5 45.9375,18.5 Q46.4063,18.5 46.7031,18.7813 Q47,19.0625 47,19.7188 L47,21.2813 Q47,21.9375 46.7188,22.2188 Q46.4375,22.5 46,22.5 Q45.6094,22.5 45.3594,22.3281 Q45.1094,22.1563 45,21.7031 Q44.9531,21.3906 44.7813,21.2188 Q44.4688,20.8906 43.9063,20.7031 Q43.3438,20.5 42.7813,20.5 Q42.0781,20.5 41.4844,20.7813 Q40.9063,21.0625 40.4531,21.6875 Q40,22.3125 40,23.1719 L40,24.0938 Q40,25.125 40.8438,25.8125 Q41.6875,26.5 43.1875,26.5 Q44.0781,26.5 44.7031,26.2969 Q45.0625,26.1875 45.4688,25.8281 Q45.7344,25.625 45.875,25.5625 Q46.0156,25.5 46.1875,25.5 Q46.5156,25.5 46.75,25.7656 Q47,26.0156 47,26.375 Q47,26.7188 46.6563,27.125 Q46.1563,27.7188 45.3594,28.0469 Q44.3125,28.5 43.0313,28.5 Q41.5313,28.5 40.3281,27.9063 Q39.3594,27.4375 38.6719,26.4219 Q38,25.4063 38,24.2031 L38,23.1094 Q38,21.8594 38.5938,20.7656 Q39.2031,19.6719 40.25,19.0938 Q41.3125,18.5 42.5,18.5 Q43.2188,18.5 43.8438,18.75 Q44.4688,19 45,19.5 Z " fill="#000000"/><text fill="#000000" font-family="sans-serif" font-size="12" lengthAdjust="spacing" textLength="109" x="57" y="27.9102">WarehouseActionUI</text><line style="stroke:#A80036;stroke-width:1.5;" x1="29" x2="168" y1="39" y2="39"/><line style="stroke:#A80036;stroke-width:1.5;" x1="29" x2="168" y1="47" y2="47"/><!--MD5=[e635b286527d701dcbd51db5429c1d28]
class WarehouseActionController--><rect codeLine="6" fill="#FEFECE" filter="url(#f1b6363fx2kxel)" height="61.8359" id="WarehouseActionController" style="stroke:#A80036;stroke-width:1.5;" width="183" x="7" y="123"/><ellipse cx="22" cy="139" fill="#ADD1B2" rx="11" ry="11" style="stroke:#A80036;stroke-width:1.0;"/><path d="M24,135.5 Q24.2031,135 24.4375,134.75 Q24.6719,134.5 24.9375,134.5 Q25.4063,134.5 25.7031,134.7813 Q26,135.0625 26,135.7188 L26,137.2813 Q26,137.9375 25.7188,138.2188 Q25.4375,138.5 25,138.5 Q24.6094,138.5 24.3594,138.3281 Q24.1094,138.1563 24,137.7031 Q23.9531,137.3906 23.7813,137.2188 Q23.4688,136.8906 22.9063,136.7031 Q22.3438,136.5 21.7813,136.5 Q21.0781,136.5 20.4844,136.7813 Q19.9063,137.0625 19.4531,137.6875 Q19,138.3125 19,139.1719 L19,140.0938 Q19,141.125 19.8438,141.8125 Q20.6875,142.5 22.1875,142.5 Q23.0781,142.5 23.7031,142.2969 Q24.0625,142.1875 24.4688,141.8281 Q24.7344,141.625 24.875,141.5625 Q25.0156,141.5 25.1875,141.5 Q25.5156,141.5 25.75,141.7656 Q26,142.0156 26,142.375 Q26,142.7188 25.6563,143.125 Q25.1563,143.7188 24.3594,144.0469 Q23.3125,144.5 22.0313,144.5 Q20.5313,144.5 19.3281,143.9063 Q18.3594,143.4375 17.6719,142.4219 Q17,141.4063 17,140.2031 L17,139.1094 Q17,137.8594 17.5938,136.7656 Q18.2031,135.6719 19.25,135.0938 Q20.3125,134.5 21.5,134.5 Q22.2188,134.5 22.8438,134.75 Q23.4688,135 24,135.5 Z " fill="#000000"/><text fill="#000000" font-family="sans-serif" font-size="12" lengthAdjust="spacing" textLength="151" x="36" y="143.9102">WarehouseActionController</text><line style="stroke:#A80036;stroke-width:1.5;" x1="8" x2="189" y1="155" y2="155"/><line style="stroke:#A80036;stroke-width:1.5;" x1="8" x2="189" y1="163" y2="163"/><ellipse cx="18" cy="174" fill="#84BE84" rx="3" ry="3" style="stroke:#038048;stroke-width:1.0;"/><text fill="#000000" font-family="sans-serif" font-size="11" lengthAdjust="spacing" textLength="71" x="27" y="178.4189">createUS306()</text><!--MD5=[d598c51d579dcd940d1b49ae8112d151]
class US306--><rect codeLine="11" fill="#FEFECE" filter="url(#f1b6363fx2kxel)" height="75.6719" id="US306" style="stroke:#A80036;stroke-width:1.5;" width="71" x="225" y="116"/><ellipse cx="240.45" cy="132" fill="#ADD1B2" rx="11" ry="11" style="stroke:#A80036;stroke-width:1.0;"/><path d="M242.45,128.5 Q242.6531,128 242.8875,127.75 Q243.1219,127.5 243.3875,127.5 Q243.8563,127.5 244.1531,127.7813 Q244.45,128.0625 244.45,128.7188 L244.45,130.2813 Q244.45,130.9375 244.1688,131.2188 Q243.8875,131.5 243.45,131.5 Q243.0594,131.5 242.8094,131.3281 Q242.5594,131.1563 242.45,130.7031 Q242.4031,130.3906 242.2313,130.2188 Q241.9188,129.8906 241.3563,129.7031 Q240.7938,129.5 240.2313,129.5 Q239.5281,129.5 238.9344,129.7813 Q238.3563,130.0625 237.9031,130.6875 Q237.45,131.3125 237.45,132.1719 L237.45,133.0938 Q237.45,134.125 238.2938,134.8125 Q239.1375,135.5 240.6375,135.5 Q241.5281,135.5 242.1531,135.2969 Q242.5125,135.1875 242.9188,134.8281 Q243.1844,134.625 243.325,134.5625 Q243.4656,134.5 243.6375,134.5 Q243.9656,134.5 244.2,134.7656 Q244.45,135.0156 244.45,135.375 Q244.45,135.7188 244.1063,136.125 Q243.6063,136.7188 242.8094,137.0469 Q241.7625,137.5 240.4813,137.5 Q238.9813,137.5 237.7781,136.9063 Q236.8094,136.4375 236.1219,135.4219 Q235.45,134.4063 235.45,133.2031 L235.45,132.1094 Q235.45,130.8594 236.0438,129.7656 Q236.6531,128.6719 237.7,128.0938 Q238.7625,127.5 239.95,127.5 Q240.6688,127.5 241.2938,127.75 Q241.9188,128 242.45,128.5 Z " fill="#000000"/><text fill="#000000" font-family="sans-serif" font-size="12" lengthAdjust="spacing" textLength="38" x="254.55" y="136.9102">US306</text><line style="stroke:#A80036;stroke-width:1.5;" x1="226" x2="295" y1="148" y2="148"/><line style="stroke:#A80036;stroke-width:1.5;" x1="226" x2="295" y1="156" y2="156"/><rect fill="#F24D5C" height="6" style="stroke:#C82930;stroke-width:1.0;" width="6" x="233" y="164"/><text fill="#000000" font-family="sans-serif" font-size="11" lengthAdjust="spacing" textLength="45" x="245" y="171.4189">initialize()</text><ellipse cx="236" cy="180.8359" fill="#84BE84" rx="3" ry="3" style="stroke:#038048;stroke-width:1.0;"/><text fill="#000000" font-family="sans-serif" font-size="11" lengthAdjust="spacing" textLength="45" x="245" y="185.2549">toString()</text><!--MD5=[c4c1f95cf25890b8d906953e22c853cc]
class WriteForAFile--><rect codeLine="16" fill="#FEFECE" filter="url(#f1b6363fx2kxel)" height="61.8359" id="WriteForAFile" style="stroke:#A80036;stroke-width:1.5;" width="188" x="166.5" y="270"/><ellipse cx="219.75" cy="286" fill="#ADD1B2" rx="11" ry="11" style="stroke:#A80036;stroke-width:1.0;"/><path d="M221.75,282.5 Q221.9531,282 222.1875,281.75 Q222.4219,281.5 222.6875,281.5 Q223.1563,281.5 223.4531,281.7813 Q223.75,282.0625 223.75,282.7188 L223.75,284.2813 Q223.75,284.9375 223.4688,285.2188 Q223.1875,285.5 222.75,285.5 Q222.3594,285.5 222.1094,285.3281 Q221.8594,285.1563 221.75,284.7031 Q221.7031,284.3906 221.5313,284.2188 Q221.2188,283.8906 220.6563,283.7031 Q220.0938,283.5 219.5313,283.5 Q218.8281,283.5 218.2344,283.7813 Q217.6563,284.0625 217.2031,284.6875 Q216.75,285.3125 216.75,286.1719 L216.75,287.0938 Q216.75,288.125 217.5938,288.8125 Q218.4375,289.5 219.9375,289.5 Q220.8281,289.5 221.4531,289.2969 Q221.8125,289.1875 222.2188,288.8281 Q222.4844,288.625 222.625,288.5625 Q222.7656,288.5 222.9375,288.5 Q223.2656,288.5 223.5,288.7656 Q223.75,289.0156 223.75,289.375 Q223.75,289.7188 223.4063,290.125 Q222.9063,290.7188 222.1094,291.0469 Q221.0625,291.5 219.7813,291.5 Q218.2813,291.5 217.0781,290.9063 Q216.1094,290.4375 215.4219,289.4219 Q214.75,288.4063 214.75,287.2031 L214.75,286.1094 Q214.75,284.8594 215.3438,283.7656 Q215.9531,282.6719 217,282.0938 Q218.0625,281.5 219.25,281.5 Q219.9688,281.5 220.5938,281.75 Q221.2188,282 221.75,282.5 Z " fill="#000000"/><text fill="#000000" font-family="sans-serif" font-size="12" lengthAdjust="spacing" textLength="73" x="240.25" y="290.9102">WriteForAFile</text><line style="stroke:#A80036;stroke-width:1.5;" x1="167.5" x2="353.5" y1="302" y2="302"/><line style="stroke:#A80036;stroke-width:1.5;" x1="167.5" x2="353.5" y1="310" y2="310"/><ellipse cx="177.5" cy="321" fill="#84BE84" rx="3" ry="3" style="stroke:#038048;stroke-width:1.0;"/><text fill="#000000" font-family="sans-serif" font-size="11" lengthAdjust="spacing" textLength="162" x="186.5" y="325.4189">writeForAFiLe(textualInformation)</text><!--MD5=[f768381abce93c7e24b99a2f31b2eb1f]
link WarehouseActionUI to WarehouseActionController--><path codeLine="21" d="M98.5,55.04 C98.5,72.74 98.5,97.49 98.5,117.69 " fill="none" id="WarehouseActionUI-to-WarehouseActionController" style="stroke:#A80036;stroke-width:1.0;stroke-dasharray:7.0,7.0;"/><polygon fill="#A80036" points="98.5,122.72,102.5,113.72,98.5,117.72,94.5,113.72,98.5,122.72" style="stroke:#A80036;stroke-width:1.0;"/><!--MD5=[63df590ccef47d9d8482369e59da8cba]
link WarehouseActionController to US306--><path codeLine="22" d="M190.26,154 C200.07,154 209.88,154 219.7,154 " fill="none" id="WarehouseActionController-to-US306" style="stroke:#A80036;stroke-width:1.0;"/><polygon fill="#A80036" points="224.83,154,215.83,150,219.83,154,215.83,158,224.83,154" style="stroke:#A80036;stroke-width:1.0;"/><!--MD5=[73259a36bcd2202b2b4c94031b1d8ead]
link US306 to WriteForAFile--><path codeLine="23" d="M260.5,192.34 C260.5,214.56 260.5,242.59 260.5,264.48 " fill="none" id="US306-to-WriteForAFile" style="stroke:#A80036;stroke-width:1.0;"/><polygon fill="#A80036" points="260.5,269.62,264.5,260.62,260.5,264.62,256.5,260.62,260.5,269.62" style="stroke:#A80036;stroke-width:1.0;"/><text fill="#000000" font-family="sans-serif" font-size="13" lengthAdjust="spacing" textLength="28" x="261.5" y="236.4951">uses</text><!--MD5=[e92af8fb95ffbc5d87e00be9a56d0dda]
@startuml
'https://plantuml.com/class-diagram

class WarehouseActionUI{
}

class WarehouseActionController{
+ createUS306()
}


class US306 {
- initialize()
+ toString()
}

class WriteForAFile{
+ writeForAFiLe(textualInformation)
}


WarehouseActionUI ..> WarehouseActionController
WarehouseActionController -> US306
US306 - -> WriteForAFile : uses

@enduml

@startuml

class WarehouseActionUI{
}

class WarehouseActionController{
+ createUS306()
}


class US306 {
- initialize()
+ toString()
}

class WriteForAFile{
+ writeForAFiLe(textualInformation)
}


WarehouseActionUI ..> WarehouseActionController
WarehouseActionController -> US306
US306 - -> WriteForAFile : uses

@enduml

PlantUML version 1.2021.11(Sat Oct 02 14:26:11 BST 2021)
(GPL source distribution)
Java Runtime: OpenJDK Runtime Environment
JVM: OpenJDK 64-Bit Server VM
Default Encoding: Cp1252
Language: pt
Country: PT
--></g></svg>