<?xml version="1.0" encoding="UTF-8" standalone="no"?><svg xmlns="http://www.w3.org/2000/svg" xmlns:xlink="http://www.w3.org/1999/xlink" contentScriptType="application/ecmascript" contentStyleType="text/css" height="345px" preserveAspectRatio="none" style="width:530px;height:345px;background:#FFFFFF;" version="1.1" viewBox="0 0 530 345" width="530px" zoomAndPan="magnify"><defs><filter height="300%" id="fd1hk1fjbpfe6" width="300%" x="-1" y="-1"><feGaussianBlur result="blurOut" stdDeviation="2.0"/><feColorMatrix in="blurOut" result="blurOut2" type="matrix" values="0 0 0 0 0 0 0 0 0 0 0 0 0 0 0 0 0 0 .4 0"/><feOffset dx="4.0" dy="4.0" in="blurOut2" result="blurOut3"/><feBlend in="SourceGraphic" in2="blurOut3" mode="normal"/></filter></defs><g><!--MD5=[e9b8683c8068e15b19802e03fb491a0a]
class InformationForTheNextWeekUI--><rect codeLine="3" fill="#FEFECE" filter="url(#fd1hk1fjbpfe6)" height="48" id="InformationForTheNextWeekUI" style="stroke:#A80036;stroke-width:1.5;" width="200" x="28" y="7"/><ellipse cx="43" cy="23" fill="#ADD1B2" rx="11" ry="11" style="stroke:#A80036;stroke-width:1.0;"/><path d="M45,19.5 Q45.2031,19 45.4375,18.75 Q45.6719,18.5 45.9375,18.5 Q46.4063,18.5 46.7031,18.7813 Q47,19.0625 47,19.7188 L47,21.2813 Q47,21.9375 46.7188,22.2188 Q46.4375,22.5 46,22.5 Q45.6094,22.5 45.3594,22.3281 Q45.1094,22.1563 45,21.7031 Q44.9531,21.3906 44.7813,21.2188 Q44.4688,20.8906 43.9063,20.7031 Q43.3438,20.5 42.7813,20.5 Q42.0781,20.5 41.4844,20.7813 Q40.9063,21.0625 40.4531,21.6875 Q40,22.3125 40,23.1719 L40,24.0938 Q40,25.125 40.8438,25.8125 Q41.6875,26.5 43.1875,26.5 Q44.0781,26.5 44.7031,26.2969 Q45.0625,26.1875 45.4688,25.8281 Q45.7344,25.625 45.875,25.5625 Q46.0156,25.5 46.1875,25.5 Q46.5156,25.5 46.75,25.7656 Q47,26.0156 47,26.375 Q47,26.7188 46.6563,27.125 Q46.1563,27.7188 45.3594,28.0469 Q44.3125,28.5 43.0313,28.5 Q41.5313,28.5 40.3281,27.9063 Q39.3594,27.4375 38.6719,26.4219 Q38,25.4063 38,24.2031 L38,23.1094 Q38,21.8594 38.5938,20.7656 Q39.2031,19.6719 40.25,19.0938 Q41.3125,18.5 42.5,18.5 Q43.2188,18.5 43.8438,18.75 Q44.4688,19 45,19.5 Z " fill="#000000"/><text fill="#000000" font-family="sans-serif" font-size="12" lengthAdjust="spacing" textLength="168" x="57" y="27.9102">InformationForTheNextWeekUI</text><line style="stroke:#A80036;stroke-width:1.5;" x1="29" x2="227" y1="39" y2="39"/><line style="stroke:#A80036;stroke-width:1.5;" x1="29" x2="227" y1="47" y2="47"/><!--MD5=[86c18ce2d52975058b43b9649da512c5]
class InformationForTheNextWeekController--><rect codeLine="6" fill="#FEFECE" filter="url(#fd1hk1fjbpfe6)" height="61.8359" id="InformationForTheNextWeekController" style="stroke:#A80036;stroke-width:1.5;" width="242" x="7" y="123"/><ellipse cx="22" cy="139" fill="#ADD1B2" rx="11" ry="11" style="stroke:#A80036;stroke-width:1.0;"/><path d="M24,135.5 Q24.2031,135 24.4375,134.75 Q24.6719,134.5 24.9375,134.5 Q25.4063,134.5 25.7031,134.7813 Q26,135.0625 26,135.7188 L26,137.2813 Q26,137.9375 25.7188,138.2188 Q25.4375,138.5 25,138.5 Q24.6094,138.5 24.3594,138.3281 Q24.1094,138.1563 24,137.7031 Q23.9531,137.3906 23.7813,137.2188 Q23.4688,136.8906 22.9063,136.7031 Q22.3438,136.5 21.7813,136.5 Q21.0781,136.5 20.4844,136.7813 Q19.9063,137.0625 19.4531,137.6875 Q19,138.3125 19,139.1719 L19,140.0938 Q19,141.125 19.8438,141.8125 Q20.6875,142.5 22.1875,142.5 Q23.0781,142.5 23.7031,142.2969 Q24.0625,142.1875 24.4688,141.8281 Q24.7344,141.625 24.875,141.5625 Q25.0156,141.5 25.1875,141.5 Q25.5156,141.5 25.75,141.7656 Q26,142.0156 26,142.375 Q26,142.7188 25.6563,143.125 Q25.1563,143.7188 24.3594,144.0469 Q23.3125,144.5 22.0313,144.5 Q20.5313,144.5 19.3281,143.9063 Q18.3594,143.4375 17.6719,142.4219 Q17,141.4063 17,140.2031 L17,139.1094 Q17,137.8594 17.5938,136.7656 Q18.2031,135.6719 19.25,135.0938 Q20.3125,134.5 21.5,134.5 Q22.2188,134.5 22.8438,134.75 Q23.4688,135 24,135.5 Z " fill="#000000"/><text fill="#000000" font-family="sans-serif" font-size="12" lengthAdjust="spacing" textLength="210" x="36" y="143.9102">InformationForTheNextWeekController</text><line style="stroke:#A80036;stroke-width:1.5;" x1="8" x2="248" y1="155" y2="155"/><line style="stroke:#A80036;stroke-width:1.5;" x1="8" x2="248" y1="163" y2="163"/><ellipse cx="18" cy="174" fill="#84BE84" rx="3" ry="3" style="stroke:#038048;stroke-width:1.0;"/><text fill="#000000" font-family="sans-serif" font-size="11" lengthAdjust="spacing" textLength="82" x="27" y="178.4189">createShipsIdle()</text><!--MD5=[5d0adade1d18cac7d0ef661d255922bc]
class InformationForTheNextWeekHandler--><rect codeLine="11" fill="#FEFECE" filter="url(#fd1hk1fjbpfe6)" height="75.6719" id="InformationForTheNextWeekHandler" style="stroke:#A80036;stroke-width:1.5;" width="232" x="284" y="116"/><ellipse cx="299" cy="132" fill="#ADD1B2" rx="11" ry="11" style="stroke:#A80036;stroke-width:1.0;"/><path d="M301,128.5 Q301.2031,128 301.4375,127.75 Q301.6719,127.5 301.9375,127.5 Q302.4063,127.5 302.7031,127.7813 Q303,128.0625 303,128.7188 L303,130.2813 Q303,130.9375 302.7188,131.2188 Q302.4375,131.5 302,131.5 Q301.6094,131.5 301.3594,131.3281 Q301.1094,131.1563 301,130.7031 Q300.9531,130.3906 300.7813,130.2188 Q300.4688,129.8906 299.9063,129.7031 Q299.3438,129.5 298.7813,129.5 Q298.0781,129.5 297.4844,129.7813 Q296.9063,130.0625 296.4531,130.6875 Q296,131.3125 296,132.1719 L296,133.0938 Q296,134.125 296.8438,134.8125 Q297.6875,135.5 299.1875,135.5 Q300.0781,135.5 300.7031,135.2969 Q301.0625,135.1875 301.4688,134.8281 Q301.7344,134.625 301.875,134.5625 Q302.0156,134.5 302.1875,134.5 Q302.5156,134.5 302.75,134.7656 Q303,135.0156 303,135.375 Q303,135.7188 302.6563,136.125 Q302.1563,136.7188 301.3594,137.0469 Q300.3125,137.5 299.0313,137.5 Q297.5313,137.5 296.3281,136.9063 Q295.3594,136.4375 294.6719,135.4219 Q294,134.4063 294,133.2031 L294,132.1094 Q294,130.8594 294.5938,129.7656 Q295.2031,128.6719 296.25,128.0938 Q297.3125,127.5 298.5,127.5 Q299.2188,127.5 299.8438,127.75 Q300.4688,128 301,128.5 Z " fill="#000000"/><text fill="#000000" font-family="sans-serif" font-size="12" lengthAdjust="spacing" textLength="200" x="313" y="136.9102">InformationForTheNextWeekHandler</text><line style="stroke:#A80036;stroke-width:1.5;" x1="285" x2="515" y1="148" y2="148"/><line style="stroke:#A80036;stroke-width:1.5;" x1="285" x2="515" y1="156" y2="156"/><rect fill="#F24D5C" height="6" style="stroke:#C82930;stroke-width:1.0;" width="6" x="292" y="164"/><text fill="#000000" font-family="sans-serif" font-size="11" lengthAdjust="spacing" textLength="45" x="304" y="171.4189">initialize()</text><ellipse cx="295" cy="180.8359" fill="#84BE84" rx="3" ry="3" style="stroke:#038048;stroke-width:1.0;"/><text fill="#000000" font-family="sans-serif" font-size="11" lengthAdjust="spacing" textLength="45" x="304" y="185.2549">toString()</text><!--MD5=[c4c1f95cf25890b8d906953e22c853cc]
class WriteForAFile--><rect codeLine="16" fill="#FEFECE" filter="url(#fd1hk1fjbpfe6)" height="61.8359" id="WriteForAFile" style="stroke:#A80036;stroke-width:1.5;" width="225" x="287.5" y="270"/><ellipse cx="359.25" cy="286" fill="#ADD1B2" rx="11" ry="11" style="stroke:#A80036;stroke-width:1.0;"/><path d="M361.25,282.5 Q361.4531,282 361.6875,281.75 Q361.9219,281.5 362.1875,281.5 Q362.6563,281.5 362.9531,281.7813 Q363.25,282.0625 363.25,282.7188 L363.25,284.2813 Q363.25,284.9375 362.9688,285.2188 Q362.6875,285.5 362.25,285.5 Q361.8594,285.5 361.6094,285.3281 Q361.3594,285.1563 361.25,284.7031 Q361.2031,284.3906 361.0313,284.2188 Q360.7188,283.8906 360.1563,283.7031 Q359.5938,283.5 359.0313,283.5 Q358.3281,283.5 357.7344,283.7813 Q357.1563,284.0625 356.7031,284.6875 Q356.25,285.3125 356.25,286.1719 L356.25,287.0938 Q356.25,288.125 357.0938,288.8125 Q357.9375,289.5 359.4375,289.5 Q360.3281,289.5 360.9531,289.2969 Q361.3125,289.1875 361.7188,288.8281 Q361.9844,288.625 362.125,288.5625 Q362.2656,288.5 362.4375,288.5 Q362.7656,288.5 363,288.7656 Q363.25,289.0156 363.25,289.375 Q363.25,289.7188 362.9063,290.125 Q362.4063,290.7188 361.6094,291.0469 Q360.5625,291.5 359.2813,291.5 Q357.7813,291.5 356.5781,290.9063 Q355.6094,290.4375 354.9219,289.4219 Q354.25,288.4063 354.25,287.2031 L354.25,286.1094 Q354.25,284.8594 354.8438,283.7656 Q355.4531,282.6719 356.5,282.0938 Q357.5625,281.5 358.75,281.5 Q359.4688,281.5 360.0938,281.75 Q360.7188,282 361.25,282.5 Z " fill="#000000"/><text fill="#000000" font-family="sans-serif" font-size="12" lengthAdjust="spacing" textLength="73" x="379.75" y="290.9102">WriteForAFile</text><line style="stroke:#A80036;stroke-width:1.5;" x1="288.5" x2="511.5" y1="302" y2="302"/><line style="stroke:#A80036;stroke-width:1.5;" x1="288.5" x2="511.5" y1="310" y2="310"/><ellipse cx="298.5" cy="321" fill="#84BE84" rx="3" ry="3" style="stroke:#038048;stroke-width:1.0;"/><text fill="#000000" font-family="sans-serif" font-size="11" lengthAdjust="spacing" textLength="199" x="307.5" y="325.4189">writeForAFiLe(textualInformation : String)</text><!--MD5=[b2e1f1c986d3b2228b356d8bcdf9b5da]
link InformationForTheNextWeekUI to InformationForTheNextWeekController--><path codeLine="20" d="M128,55.04 C128,72.74 128,97.49 128,117.69 " fill="none" id="InformationForTheNextWeekUI-to-InformationForTheNextWeekController" style="stroke:#A80036;stroke-width:1.0;stroke-dasharray:7.0,7.0;"/><polygon fill="#A80036" points="128,122.72,132,113.72,128,117.72,124,113.72,128,122.72" style="stroke:#A80036;stroke-width:1.0;"/><!--MD5=[b0ad328c2e35fb5907202985b2e98be3]
link InformationForTheNextWeekController to InformationForTheNextWeekHandler--><path codeLine="21" d="M249.12,154 C259,154 268.87,154 278.74,154 " fill="none" id="InformationForTheNextWeekController-to-InformationForTheNextWeekHandler" style="stroke:#A80036;stroke-width:1.0;"/><polygon fill="#A80036" points="283.9,154,274.9,150,278.9,154,274.9,158,283.9,154" style="stroke:#A80036;stroke-width:1.0;"/><!--MD5=[c455933cbf60d033af230016ae108e54]
link InformationForTheNextWeekHandler to WriteForAFile--><path codeLine="22" d="M400,192.34 C400,214.56 400,242.59 400,264.48 " fill="none" id="InformationForTheNextWeekHandler-to-WriteForAFile" style="stroke:#A80036;stroke-width:1.0;"/><polygon fill="#A80036" points="400,269.62,404,260.62,400,264.62,396,260.62,400,269.62" style="stroke:#A80036;stroke-width:1.0;"/><text fill="#000000" font-family="sans-serif" font-size="13" lengthAdjust="spacing" textLength="28" x="401" y="236.4951">uses</text><!--MD5=[3eb35ef81fc696f3458cdc39c77f499b]
@startuml
'https://plantuml.com/sequence-diagram

class InformationForTheNextWeekUI{
}

class InformationForTheNextWeekController{
+ createShipsIdle()
}


class InformationForTheNextWeekHandler{
- initialize()
+ toString()
}

class WriteForAFile{
+ writeForAFiLe(textualInformation : String)
}

InformationForTheNextWeekUI ..> InformationForTheNextWeekController
InformationForTheNextWeekController-> InformationForTheNextWeekHandler
InformationForTheNextWeekHandler - -> WriteForAFile : uses
@enduml

@startuml

class InformationForTheNextWeekUI{
}

class InformationForTheNextWeekController{
+ createShipsIdle()
}


class InformationForTheNextWeekHandler{
- initialize()
+ toString()
}

class WriteForAFile{
+ writeForAFiLe(textualInformation : String)
}

InformationForTheNextWeekUI ..> InformationForTheNextWeekController
InformationForTheNextWeekController-> InformationForTheNextWeekHandler
InformationForTheNextWeekHandler - -> WriteForAFile : uses
@enduml

PlantUML version 1.2021.16(Wed Dec 08 17:25:22 GMT 2021)
(GPL source distribution)
Java Runtime: OpenJDK Runtime Environment
JVM: OpenJDK 64-Bit Server VM
Default Encoding: Cp1252
Language: pt
Country: BR
--></g></svg>