<?xml version="1.0" encoding="UTF-8" standalone="no"?><svg xmlns="http://www.w3.org/2000/svg" xmlns:xlink="http://www.w3.org/1999/xlink" contentScriptType="application/ecmascript" contentStyleType="text/css" height="345px" preserveAspectRatio="none" style="width:328px;height:345px;background:#FFFFFF;" version="1.1" viewBox="0 0 328 345" width="328px" zoomAndPan="magnify"><defs><filter height="300%" id="fp79b9jv97p0p" width="300%" x="-1" y="-1"><feGaussianBlur result="blurOut" stdDeviation="2.0"/><feColorMatrix in="blurOut" result="blurOut2" type="matrix" values="0 0 0 0 0 0 0 0 0 0 0 0 0 0 0 0 0 0 .4 0"/><feOffset dx="4.0" dy="4.0" in="blurOut2" result="blurOut3"/><feBlend in="SourceGraphic" in2="blurOut3" mode="normal"/></filter></defs><g><!--MD5=[ce489d2f4d724d237b2f1b80797bcc3e]
class US308UI--><rect codeLine="3" fill="#FEFECE" filter="url(#fp79b9jv97p0p)" height="48" id="US308UI" style="stroke:#A80036;stroke-width:1.5;" width="82" x="28" y="7"/><ellipse cx="43" cy="23" fill="#ADD1B2" rx="11" ry="11" style="stroke:#A80036;stroke-width:1.0;"/><path d="M45,19.5 Q45.2031,19 45.4375,18.75 Q45.6719,18.5 45.9375,18.5 Q46.4063,18.5 46.7031,18.7813 Q47,19.0625 47,19.7188 L47,21.2813 Q47,21.9375 46.7188,22.2188 Q46.4375,22.5 46,22.5 Q45.6094,22.5 45.3594,22.3281 Q45.1094,22.1563 45,21.7031 Q44.9531,21.3906 44.7813,21.2188 Q44.4688,20.8906 43.9063,20.7031 Q43.3438,20.5 42.7813,20.5 Q42.0781,20.5 41.4844,20.7813 Q40.9063,21.0625 40.4531,21.6875 Q40,22.3125 40,23.1719 L40,24.0938 Q40,25.125 40.8438,25.8125 Q41.6875,26.5 43.1875,26.5 Q44.0781,26.5 44.7031,26.2969 Q45.0625,26.1875 45.4688,25.8281 Q45.7344,25.625 45.875,25.5625 Q46.0156,25.5 46.1875,25.5 Q46.5156,25.5 46.75,25.7656 Q47,26.0156 47,26.375 Q47,26.7188 46.6563,27.125 Q46.1563,27.7188 45.3594,28.0469 Q44.3125,28.5 43.0313,28.5 Q41.5313,28.5 40.3281,27.9063 Q39.3594,27.4375 38.6719,26.4219 Q38,25.4063 38,24.2031 L38,23.1094 Q38,21.8594 38.5938,20.7656 Q39.2031,19.6719 40.25,19.0938 Q41.3125,18.5 42.5,18.5 Q43.2188,18.5 43.8438,18.75 Q44.4688,19 45,19.5 Z " fill="#000000"/><text fill="#000000" font-family="sans-serif" font-size="12" lengthAdjust="spacing" textLength="50" x="57" y="27.9102">US308UI</text><line style="stroke:#A80036;stroke-width:1.5;" x1="29" x2="109" y1="39" y2="39"/><line style="stroke:#A80036;stroke-width:1.5;" x1="29" x2="109" y1="47" y2="47"/><!--MD5=[6af72131229335a1f14270c1cc046f7d]
class US308Controller--><rect codeLine="6" fill="#FEFECE" filter="url(#fp79b9jv97p0p)" height="61.8359" id="US308Controller" style="stroke:#A80036;stroke-width:1.5;" width="124" x="7" y="123"/><ellipse cx="22" cy="139" fill="#ADD1B2" rx="11" ry="11" style="stroke:#A80036;stroke-width:1.0;"/><path d="M24,135.5 Q24.2031,135 24.4375,134.75 Q24.6719,134.5 24.9375,134.5 Q25.4063,134.5 25.7031,134.7813 Q26,135.0625 26,135.7188 L26,137.2813 Q26,137.9375 25.7188,138.2188 Q25.4375,138.5 25,138.5 Q24.6094,138.5 24.3594,138.3281 Q24.1094,138.1563 24,137.7031 Q23.9531,137.3906 23.7813,137.2188 Q23.4688,136.8906 22.9063,136.7031 Q22.3438,136.5 21.7813,136.5 Q21.0781,136.5 20.4844,136.7813 Q19.9063,137.0625 19.4531,137.6875 Q19,138.3125 19,139.1719 L19,140.0938 Q19,141.125 19.8438,141.8125 Q20.6875,142.5 22.1875,142.5 Q23.0781,142.5 23.7031,142.2969 Q24.0625,142.1875 24.4688,141.8281 Q24.7344,141.625 24.875,141.5625 Q25.0156,141.5 25.1875,141.5 Q25.5156,141.5 25.75,141.7656 Q26,142.0156 26,142.375 Q26,142.7188 25.6563,143.125 Q25.1563,143.7188 24.3594,144.0469 Q23.3125,144.5 22.0313,144.5 Q20.5313,144.5 19.3281,143.9063 Q18.3594,143.4375 17.6719,142.4219 Q17,141.4063 17,140.2031 L17,139.1094 Q17,137.8594 17.5938,136.7656 Q18.2031,135.6719 19.25,135.0938 Q20.3125,134.5 21.5,134.5 Q22.2188,134.5 22.8438,134.75 Q23.4688,135 24,135.5 Z " fill="#000000"/><text fill="#000000" font-family="sans-serif" font-size="12" lengthAdjust="spacing" textLength="92" x="36" y="143.9102">US308Controller</text><line style="stroke:#A80036;stroke-width:1.5;" x1="8" x2="130" y1="155" y2="155"/><line style="stroke:#A80036;stroke-width:1.5;" x1="8" x2="130" y1="163" y2="163"/><ellipse cx="18" cy="174" fill="#84BE84" rx="3" ry="3" style="stroke:#038048;stroke-width:1.0;"/><text fill="#000000" font-family="sans-serif" font-size="11" lengthAdjust="spacing" textLength="71" x="27" y="178.4189">createUS308()</text><!--MD5=[86d70607f22e66159cd58a7aa898d343]
class US308--><rect codeLine="11" fill="#FEFECE" filter="url(#fp79b9jv97p0p)" height="75.6719" id="US308" style="stroke:#A80036;stroke-width:1.5;" width="71" x="166.5" y="116"/><ellipse cx="181.95" cy="132" fill="#ADD1B2" rx="11" ry="11" style="stroke:#A80036;stroke-width:1.0;"/><path d="M183.95,128.5 Q184.1531,128 184.3875,127.75 Q184.6219,127.5 184.8875,127.5 Q185.3563,127.5 185.6531,127.7813 Q185.95,128.0625 185.95,128.7188 L185.95,130.2813 Q185.95,130.9375 185.6688,131.2188 Q185.3875,131.5 184.95,131.5 Q184.5594,131.5 184.3094,131.3281 Q184.0594,131.1563 183.95,130.7031 Q183.9031,130.3906 183.7313,130.2188 Q183.4188,129.8906 182.8563,129.7031 Q182.2938,129.5 181.7313,129.5 Q181.0281,129.5 180.4344,129.7813 Q179.8563,130.0625 179.4031,130.6875 Q178.95,131.3125 178.95,132.1719 L178.95,133.0938 Q178.95,134.125 179.7938,134.8125 Q180.6375,135.5 182.1375,135.5 Q183.0281,135.5 183.6531,135.2969 Q184.0125,135.1875 184.4188,134.8281 Q184.6844,134.625 184.825,134.5625 Q184.9656,134.5 185.1375,134.5 Q185.4656,134.5 185.7,134.7656 Q185.95,135.0156 185.95,135.375 Q185.95,135.7188 185.6063,136.125 Q185.1063,136.7188 184.3094,137.0469 Q183.2625,137.5 181.9813,137.5 Q180.4813,137.5 179.2781,136.9063 Q178.3094,136.4375 177.6219,135.4219 Q176.95,134.4063 176.95,133.2031 L176.95,132.1094 Q176.95,130.8594 177.5438,129.7656 Q178.1531,128.6719 179.2,128.0938 Q180.2625,127.5 181.45,127.5 Q182.1688,127.5 182.7938,127.75 Q183.4188,128 183.95,128.5 Z " fill="#000000"/><text fill="#000000" font-family="sans-serif" font-size="12" lengthAdjust="spacing" textLength="38" x="196.05" y="136.9102">US308</text><line style="stroke:#A80036;stroke-width:1.5;" x1="167.5" x2="236.5" y1="148" y2="148"/><line style="stroke:#A80036;stroke-width:1.5;" x1="167.5" x2="236.5" y1="156" y2="156"/><rect fill="#F24D5C" height="6" style="stroke:#C82930;stroke-width:1.0;" width="6" x="174.5" y="164"/><text fill="#000000" font-family="sans-serif" font-size="11" lengthAdjust="spacing" textLength="45" x="186.5" y="171.4189">initialize()</text><ellipse cx="177.5" cy="180.8359" fill="#84BE84" rx="3" ry="3" style="stroke:#038048;stroke-width:1.0;"/><text fill="#000000" font-family="sans-serif" font-size="11" lengthAdjust="spacing" textLength="45" x="186.5" y="185.2549">toString()</text><!--MD5=[c4c1f95cf25890b8d906953e22c853cc]
class WriteForAFile--><rect codeLine="16" fill="#FEFECE" filter="url(#fp79b9jv97p0p)" height="61.8359" id="WriteForAFile" style="stroke:#A80036;stroke-width:1.5;" width="225" x="89.5" y="270"/><ellipse cx="161.25" cy="286" fill="#ADD1B2" rx="11" ry="11" style="stroke:#A80036;stroke-width:1.0;"/><path d="M163.25,282.5 Q163.4531,282 163.6875,281.75 Q163.9219,281.5 164.1875,281.5 Q164.6563,281.5 164.9531,281.7813 Q165.25,282.0625 165.25,282.7188 L165.25,284.2813 Q165.25,284.9375 164.9688,285.2188 Q164.6875,285.5 164.25,285.5 Q163.8594,285.5 163.6094,285.3281 Q163.3594,285.1563 163.25,284.7031 Q163.2031,284.3906 163.0313,284.2188 Q162.7188,283.8906 162.1563,283.7031 Q161.5938,283.5 161.0313,283.5 Q160.3281,283.5 159.7344,283.7813 Q159.1563,284.0625 158.7031,284.6875 Q158.25,285.3125 158.25,286.1719 L158.25,287.0938 Q158.25,288.125 159.0938,288.8125 Q159.9375,289.5 161.4375,289.5 Q162.3281,289.5 162.9531,289.2969 Q163.3125,289.1875 163.7188,288.8281 Q163.9844,288.625 164.125,288.5625 Q164.2656,288.5 164.4375,288.5 Q164.7656,288.5 165,288.7656 Q165.25,289.0156 165.25,289.375 Q165.25,289.7188 164.9063,290.125 Q164.4063,290.7188 163.6094,291.0469 Q162.5625,291.5 161.2813,291.5 Q159.7813,291.5 158.5781,290.9063 Q157.6094,290.4375 156.9219,289.4219 Q156.25,288.4063 156.25,287.2031 L156.25,286.1094 Q156.25,284.8594 156.8438,283.7656 Q157.4531,282.6719 158.5,282.0938 Q159.5625,281.5 160.75,281.5 Q161.4688,281.5 162.0938,281.75 Q162.7188,282 163.25,282.5 Z " fill="#000000"/><text fill="#000000" font-family="sans-serif" font-size="12" lengthAdjust="spacing" textLength="73" x="181.75" y="290.9102">WriteForAFile</text><line style="stroke:#A80036;stroke-width:1.5;" x1="90.5" x2="313.5" y1="302" y2="302"/><line style="stroke:#A80036;stroke-width:1.5;" x1="90.5" x2="313.5" y1="310" y2="310"/><ellipse cx="100.5" cy="321" fill="#84BE84" rx="3" ry="3" style="stroke:#038048;stroke-width:1.0;"/><text fill="#000000" font-family="sans-serif" font-size="11" lengthAdjust="spacing" textLength="199" x="109.5" y="325.4189">writeForAFiLe(textualInformation : String)</text><!--MD5=[4cdabb27a6e1c2c59858411c2c303c7d]
link US308UI to US308Controller--><path codeLine="21" d="M69,55.04 C69,72.74 69,97.49 69,117.69 " fill="none" id="US308UI-to-US308Controller" style="stroke:#A80036;stroke-width:1.0;stroke-dasharray:7.0,7.0;"/><polygon fill="#A80036" points="69,122.72,73,113.72,69,117.72,65,113.72,69,122.72" style="stroke:#A80036;stroke-width:1.0;"/><!--MD5=[71a2aaaa7fd6a8bb4f70c669276e1e6b]
link US308Controller to US308--><path codeLine="22" d="M131.08,154 C141.07,154 151.06,154 161.04,154 " fill="none" id="US308Controller-to-US308" style="stroke:#A80036;stroke-width:1.0;"/><polygon fill="#A80036" points="166.26,154,157.2715,149.9743,161.26,153.9857,157.2486,157.9743,166.26,154" style="stroke:#A80036;stroke-width:1.0;"/><!--MD5=[3a2eddada18c4d03933d543feea82933]
link US308 to WriteForAFile--><path codeLine="23" d="M202,192.34 C202,214.56 202,242.59 202,264.48 " fill="none" id="US308-to-WriteForAFile" style="stroke:#A80036;stroke-width:1.0;"/><polygon fill="#A80036" points="202,269.62,206,260.62,202,264.62,198,260.62,202,269.62" style="stroke:#A80036;stroke-width:1.0;"/><text fill="#000000" font-family="sans-serif" font-size="13" lengthAdjust="spacing" textLength="28" x="203" y="236.4951">uses</text><!--MD5=[45cace8c36b7724d8264ac683732a724]
@startuml
'https://plantuml.com/sequence-diagram

class US308UI{
}

class US308Controller{
+ createUS308()
}


class US308 {
- initialize()
+ toString()
}

class WriteForAFile{
+ writeForAFiLe(textualInformation : String)
}


US308UI ..> US308Controller
US308Controller -> US308
US308 - -> WriteForAFile : uses
@enduml

@startuml

class US308UI{
}

class US308Controller{
+ createUS308()
}


class US308 {
- initialize()
+ toString()
}

class WriteForAFile{
+ writeForAFiLe(textualInformation : String)
}


US308UI ..> US308Controller
US308Controller -> US308
US308 - -> WriteForAFile : uses
@enduml

PlantUML version 1.2021.11(Sat Oct 02 14:26:11 BST 2021)
(GPL source distribution)
Java Runtime: OpenJDK Runtime Environment
JVM: OpenJDK 64-Bit Server VM
Default Encoding: Cp1252
Language: pt
Country: PT
--></g></svg>