<?xml version="1.0" encoding="UTF-8" standalone="no"?><svg xmlns="http://www.w3.org/2000/svg" xmlns:xlink="http://www.w3.org/1999/xlink" contentScriptType="application/ecmascript" contentStyleType="text/css" height="1161px" preserveAspectRatio="none" style="width:1160px;height:1161px;" version="1.1" viewBox="0 0 1160 1161" width="1160.1px" zoomAndPan="magnify"><defs><filter height="300%" id="f1u30mpth0bo94" width="300%" x="-1" y="-1"><feGaussianBlur result="blurOut" stdDeviation="1.8"/><feColorMatrix in="blurOut" result="blurOut2" type="matrix" values="0 0 0 0 0 0 0 0 0 0 0 0 0 0 0 0 0 0 .4 0"/><feOffset dx="3.6" dy="3.6" in="blurOut2" result="blurOut3"/><feBlend in="SourceGraphic" in2="blurOut3" mode="normal"/></filter></defs><g><!--MD5=[da4973dec178cce7bebfbe29460be526]
class CreateFreightNetworkUI--><rect codeLine="7" fill="#FEFECE" filter="url(#f1u30mpth0bo94)" height="43.2" id="CreateFreightNetworkUI" style="stroke:#A80036;stroke-width:1.35;" width="147.6" x="427.05" y="6.3"/><ellipse cx="440.55" cy="20.7" fill="#ADD1B2" rx="9.9" ry="9.9" style="stroke:#A80036;stroke-width:0.9;"/><path d="M442.35,17.55 Q442.5328,17.1 442.7438,16.875 Q442.9547,16.65 443.1938,16.65 Q443.6156,16.65 443.8828,16.9031 Q444.15,17.1563 444.15,17.7469 L444.15,19.1531 Q444.15,19.7438 443.8969,19.9969 Q443.6438,20.25 443.25,20.25 Q442.8984,20.25 442.6734,20.0953 Q442.4484,19.9406 442.35,19.5328 Q442.3078,19.2516 442.1531,19.0969 Q441.8719,18.8016 441.3656,18.6328 Q440.8594,18.45 440.3531,18.45 Q439.7203,18.45 439.1859,18.7031 Q438.6656,18.9563 438.2578,19.5188 Q437.85,20.0813 437.85,20.8547 L437.85,21.6844 Q437.85,22.6125 438.6094,23.2313 Q439.3688,23.85 440.7188,23.85 Q441.5203,23.85 442.0828,23.6672 Q442.4063,23.5688 442.7719,23.2453 Q443.0109,23.0625 443.1375,23.0063 Q443.2641,22.95 443.4188,22.95 Q443.7141,22.95 443.925,23.1891 Q444.15,23.4141 444.15,23.7375 Q444.15,24.0469 443.8406,24.4125 Q443.3906,24.9469 442.6734,25.2422 Q441.7313,25.65 440.5781,25.65 Q439.2281,25.65 438.1453,25.1156 Q437.2734,24.6938 436.6547,23.7797 Q436.05,22.8656 436.05,21.7828 L436.05,20.7984 Q436.05,19.6734 436.5844,18.6891 Q437.1328,17.7047 438.075,17.1844 Q439.0313,16.65 440.1,16.65 Q440.7469,16.65 441.3094,16.875 Q441.8719,17.1 442.35,17.55 Z " fill="#000000"/><text fill="#000000" font-family="sans-serif" font-size="10.8" lengthAdjust="spacing" textLength="118.8" x="453.15" y="25.1191">CreateFreightNetworkUI</text><line style="stroke:#A80036;stroke-width:1.35;" x1="427.95" x2="573.75" y1="35.1" y2="35.1"/><line style="stroke:#A80036;stroke-width:1.35;" x1="427.95" x2="573.75" y1="42.3" y2="42.3"/><!--MD5=[974473823045a8c177f55f5ab2912b22]
class CreateFreightNetworkController--><rect codeLine="9" fill="#FEFECE" filter="url(#f1u30mpth0bo94)" height="55.6523" id="CreateFreightNetworkController" style="stroke:#A80036;stroke-width:1.35;" width="185.4" x="408.15" y="104.4"/><ellipse cx="421.65" cy="118.8" fill="#ADD1B2" rx="9.9" ry="9.9" style="stroke:#A80036;stroke-width:0.9;"/><path d="M423.45,115.65 Q423.6328,115.2 423.8438,114.975 Q424.0547,114.75 424.2938,114.75 Q424.7156,114.75 424.9828,115.0031 Q425.25,115.2563 425.25,115.8469 L425.25,117.2531 Q425.25,117.8438 424.9969,118.0969 Q424.7438,118.35 424.35,118.35 Q423.9984,118.35 423.7734,118.1953 Q423.5484,118.0406 423.45,117.6328 Q423.4078,117.3516 423.2531,117.1969 Q422.9719,116.9016 422.4656,116.7328 Q421.9594,116.55 421.4531,116.55 Q420.8203,116.55 420.2859,116.8031 Q419.7656,117.0563 419.3578,117.6188 Q418.95,118.1813 418.95,118.9547 L418.95,119.7844 Q418.95,120.7125 419.7094,121.3313 Q420.4688,121.95 421.8188,121.95 Q422.6203,121.95 423.1828,121.7672 Q423.5063,121.6688 423.8719,121.3453 Q424.1109,121.1625 424.2375,121.1063 Q424.3641,121.05 424.5188,121.05 Q424.8141,121.05 425.025,121.2891 Q425.25,121.5141 425.25,121.8375 Q425.25,122.1469 424.9406,122.5125 Q424.4906,123.0469 423.7734,123.3422 Q422.8313,123.75 421.6781,123.75 Q420.3281,123.75 419.2453,123.2156 Q418.3734,122.7938 417.7547,121.8797 Q417.15,120.9656 417.15,119.8828 L417.15,118.8984 Q417.15,117.7734 417.6844,116.7891 Q418.2328,115.8047 419.175,115.2844 Q420.1313,114.75 421.2,114.75 Q421.8469,114.75 422.4094,114.975 Q422.9719,115.2 423.45,115.65 Z " fill="#000000"/><text fill="#000000" font-family="sans-serif" font-size="10.8" lengthAdjust="spacing" textLength="156.6" x="434.25" y="123.2191">CreateFreightNetworkController</text><line style="stroke:#A80036;stroke-width:1.35;" x1="409.05" x2="592.65" y1="133.2" y2="133.2"/><line style="stroke:#A80036;stroke-width:1.35;" x1="409.05" x2="592.65" y1="140.4" y2="140.4"/><text fill="#000000" font-family="sans-serif" font-size="9.9" lengthAdjust="spacing" textLength="110.7" x="413.55" y="154.2771">-createFreightNetwork(n)</text><!--MD5=[02e4b9b7573f1156f41e60aa5b4e25a4]
class Company--><rect codeLine="13" fill="#FEFECE" filter="url(#f1u30mpth0bo94)" height="130.3664" id="Company" style="stroke:#A80036;stroke-width:1.35;" width="135.9" x="322.2" y="215.1"/><ellipse cx="362.475" cy="229.5" fill="#ADD1B2" rx="9.9" ry="9.9" style="stroke:#A80036;stroke-width:0.9;"/><path d="M364.275,226.35 Q364.4578,225.9 364.6688,225.675 Q364.8797,225.45 365.1188,225.45 Q365.5406,225.45 365.8078,225.7031 Q366.075,225.9563 366.075,226.5469 L366.075,227.9531 Q366.075,228.5438 365.8219,228.7969 Q365.5688,229.05 365.175,229.05 Q364.8234,229.05 364.5984,228.8953 Q364.3734,228.7406 364.275,228.3328 Q364.2328,228.0516 364.0781,227.8969 Q363.7969,227.6016 363.2906,227.4328 Q362.7844,227.25 362.2781,227.25 Q361.6453,227.25 361.1109,227.5031 Q360.5906,227.7563 360.1828,228.3188 Q359.775,228.8813 359.775,229.6547 L359.775,230.4844 Q359.775,231.4125 360.5344,232.0313 Q361.2938,232.65 362.6438,232.65 Q363.4453,232.65 364.0078,232.4672 Q364.3313,232.3688 364.6969,232.0453 Q364.9359,231.8625 365.0625,231.8063 Q365.1891,231.75 365.3438,231.75 Q365.6391,231.75 365.85,231.9891 Q366.075,232.2141 366.075,232.5375 Q366.075,232.8469 365.7656,233.2125 Q365.3156,233.7469 364.5984,234.0422 Q363.6563,234.45 362.5031,234.45 Q361.1531,234.45 360.0703,233.9156 Q359.1984,233.4938 358.5797,232.5797 Q357.975,231.6656 357.975,230.5828 L357.975,229.5984 Q357.975,228.4734 358.5094,227.4891 Q359.0578,226.5047 360,225.9844 Q360.9563,225.45 362.025,225.45 Q362.6719,225.45 363.2344,225.675 Q363.7969,225.9 364.275,226.35 Z " fill="#000000"/><text fill="#000000" font-family="sans-serif" font-size="10.8" lengthAdjust="spacing" textLength="47.7" x="380.925" y="233.9191">Company</text><line style="stroke:#A80036;stroke-width:1.35;" x1="323.1" x2="457.2" y1="243.9" y2="243.9"/><text fill="#000000" font-family="sans-serif" font-size="9.9" lengthAdjust="spacing" textLength="53.1" x="327.6" y="257.7771">-designation</text><line style="stroke:#A80036;stroke-width:1.35;" x1="323.1" x2="457.2" y1="263.5523" y2="263.5523"/><text fill="#000000" font-family="sans-serif" font-size="9.9" lengthAdjust="spacing" textLength="125.1" x="327.6" y="277.4294">-getTransferFromDatabase()</text><text fill="#000000" font-family="sans-serif" font-size="9.9" lengthAdjust="spacing" textLength="54" x="327.6" y="289.8817">-getPortStr()</text><text fill="#000000" font-family="sans-serif" font-size="9.9" lengthAdjust="spacing" textLength="69.3" x="327.6" y="302.3341">-getSeadistStr()</text><text fill="#000000" font-family="sans-serif" font-size="9.9" lengthAdjust="spacing" textLength="65.7" x="327.6" y="314.7864">-getCapitalStr()</text><text fill="#000000" font-family="sans-serif" font-size="9.9" lengthAdjust="spacing" textLength="66.6" x="327.6" y="327.2388">-getBorderStr()</text><text fill="#000000" font-family="sans-serif" font-size="9.9" lengthAdjust="spacing" textLength="90.9" x="327.6" y="339.6911">-getFreightNetwork()</text><!--MD5=[ec10caadca290dc6847215ad9bfe1041]
class TransferFromDataBase--><rect codeLine="23" fill="#FEFECE" filter="url(#f1u30mpth0bo94)" height="93.0094" id="TransferFromDataBase" style="stroke:#A80036;stroke-width:1.35;" width="145.8" x="301.05" y="422.1"/><ellipse cx="314.55" cy="436.5" fill="#ADD1B2" rx="9.9" ry="9.9" style="stroke:#A80036;stroke-width:0.9;"/><path d="M316.35,433.35 Q316.5328,432.9 316.7438,432.675 Q316.9547,432.45 317.1938,432.45 Q317.6156,432.45 317.8828,432.7031 Q318.15,432.9563 318.15,433.5469 L318.15,434.9531 Q318.15,435.5438 317.8969,435.7969 Q317.6438,436.05 317.25,436.05 Q316.8984,436.05 316.6734,435.8953 Q316.4484,435.7406 316.35,435.3328 Q316.3078,435.0516 316.1531,434.8969 Q315.8719,434.6016 315.3656,434.4328 Q314.8594,434.25 314.3531,434.25 Q313.7203,434.25 313.1859,434.5031 Q312.6656,434.7563 312.2578,435.3188 Q311.85,435.8813 311.85,436.6547 L311.85,437.4844 Q311.85,438.4125 312.6094,439.0313 Q313.3688,439.65 314.7188,439.65 Q315.5203,439.65 316.0828,439.4672 Q316.4063,439.3688 316.7719,439.0453 Q317.0109,438.8625 317.1375,438.8063 Q317.2641,438.75 317.4188,438.75 Q317.7141,438.75 317.925,438.9891 Q318.15,439.2141 318.15,439.5375 Q318.15,439.8469 317.8406,440.2125 Q317.3906,440.7469 316.6734,441.0422 Q315.7313,441.45 314.5781,441.45 Q313.2281,441.45 312.1453,440.9156 Q311.2734,440.4938 310.6547,439.5797 Q310.05,438.6656 310.05,437.5828 L310.05,436.5984 Q310.05,435.4734 310.5844,434.4891 Q311.1328,433.5047 312.075,432.9844 Q313.0313,432.45 314.1,432.45 Q314.7469,432.45 315.3094,432.675 Q315.8719,432.9 316.35,433.35 Z " fill="#000000"/><text fill="#000000" font-family="sans-serif" font-size="10.8" lengthAdjust="spacing" textLength="117" x="327.15" y="440.9191">TransferFromDataBase</text><line style="stroke:#A80036;stroke-width:1.35;" x1="301.95" x2="445.95" y1="450.9" y2="450.9"/><line style="stroke:#A80036;stroke-width:1.35;" x1="301.95" x2="445.95" y1="458.1" y2="458.1"/><text fill="#000000" font-family="sans-serif" font-size="9.9" lengthAdjust="spacing" textLength="59.4" x="306.45" y="471.9771">-importPorts()</text><text fill="#000000" font-family="sans-serif" font-size="9.9" lengthAdjust="spacing" textLength="74.7" x="306.45" y="484.4294">-importSeadists()</text><text fill="#000000" font-family="sans-serif" font-size="9.9" lengthAdjust="spacing" textLength="78.3" x="306.45" y="496.8817">-importCountries()</text><text fill="#000000" font-family="sans-serif" font-size="9.9" lengthAdjust="spacing" textLength="72" x="306.45" y="509.3341">-importBorders()</text><!--MD5=[074ba6ad47b234bd73d65012320c1634]
class FreightNetwork--><rect codeLine="30" fill="#FEFECE" filter="url(#f1u30mpth0bo94)" height="105.4617" id="FreightNetwork" style="stroke:#A80036;stroke-width:1.35;" width="428.4" x="599.85" y="415.8"/><ellipse cx="772.875" cy="430.2" fill="#ADD1B2" rx="9.9" ry="9.9" style="stroke:#A80036;stroke-width:0.9;"/><path d="M774.675,427.05 Q774.8578,426.6 775.0688,426.375 Q775.2797,426.15 775.5188,426.15 Q775.9406,426.15 776.2078,426.4031 Q776.475,426.6563 776.475,427.2469 L776.475,428.6531 Q776.475,429.2438 776.2219,429.4969 Q775.9688,429.75 775.575,429.75 Q775.2234,429.75 774.9984,429.5953 Q774.7734,429.4406 774.675,429.0328 Q774.6328,428.7516 774.4781,428.5969 Q774.1969,428.3016 773.6906,428.1328 Q773.1844,427.95 772.6781,427.95 Q772.0453,427.95 771.5109,428.2031 Q770.9906,428.4563 770.5828,429.0188 Q770.175,429.5813 770.175,430.3547 L770.175,431.1844 Q770.175,432.1125 770.9344,432.7313 Q771.6938,433.35 773.0438,433.35 Q773.8453,433.35 774.4078,433.1672 Q774.7313,433.0688 775.0969,432.7453 Q775.3359,432.5625 775.4625,432.5063 Q775.5891,432.45 775.7438,432.45 Q776.0391,432.45 776.25,432.6891 Q776.475,432.9141 776.475,433.2375 Q776.475,433.5469 776.1656,433.9125 Q775.7156,434.4469 774.9984,434.7422 Q774.0563,435.15 772.9031,435.15 Q771.5531,435.15 770.4703,434.6156 Q769.5984,434.1938 768.9797,433.2797 Q768.375,432.3656 768.375,431.2828 L768.375,430.2984 Q768.375,429.1734 768.9094,428.1891 Q769.4578,427.2047 770.4,426.6844 Q771.3563,426.15 772.425,426.15 Q773.0719,426.15 773.6344,426.375 Q774.1969,426.6 774.675,427.05 Z " fill="#000000"/><text fill="#000000" font-family="sans-serif" font-size="10.8" lengthAdjust="spacing" textLength="74.7" x="791.325" y="434.6191">FreightNetwork</text><line style="stroke:#A80036;stroke-width:1.35;" x1="600.75" x2="1027.35" y1="444.6" y2="444.6"/><line style="stroke:#A80036;stroke-width:1.35;" x1="600.75" x2="1027.35" y1="451.8" y2="451.8"/><text fill="#000000" font-family="sans-serif" font-size="9.9" lengthAdjust="spacing" textLength="310.5" x="605.25" y="465.6771">-addNewInformation(capitalStore,portStore,seadistStore,borderStore,n)</text><text fill="#000000" font-family="sans-serif" font-size="9.9" lengthAdjust="spacing" textLength="310.5" x="605.25" y="478.1294">-linkBetweenCapitalsOfNeighboringCountries(capitalStore,borderStore);</text><text fill="#000000" font-family="sans-serif" font-size="9.9" lengthAdjust="spacing" textLength="306.9" x="605.25" y="490.5817">-connectionBetweenPortsOfTheSameCountry(portStore,seadistStore);</text><text fill="#000000" font-family="sans-serif" font-size="9.9" lengthAdjust="spacing" textLength="325.8" x="605.25" y="503.0341">-connectionBetweenTheCapitalAndTheNearestPort(capitalStore,portStore);</text><text fill="#000000" font-family="sans-serif" font-size="9.9" lengthAdjust="spacing" textLength="417.6" x="605.25" y="515.4864">-connectionBetweenThePortAndTheNearestNPortsOfAnotherCountry(seadistStore,n,portStore);</text><!--MD5=[f70d2b281f9eefc1b49373c49159755a]
class PortStore--><rect codeLine="38" fill="#FEFECE" filter="url(#f1u30mpth0bo94)" height="43.2" id="PortStore" style="stroke:#A80036;stroke-width:1.35;" width="74.7" x="130.5" y="446.85"/><ellipse cx="144" cy="461.25" fill="#ADD1B2" rx="9.9" ry="9.9" style="stroke:#A80036;stroke-width:0.9;"/><path d="M145.8,458.1 Q145.9828,457.65 146.1938,457.425 Q146.4047,457.2 146.6438,457.2 Q147.0656,457.2 147.3328,457.4531 Q147.6,457.7063 147.6,458.2969 L147.6,459.7031 Q147.6,460.2938 147.3469,460.5469 Q147.0938,460.8 146.7,460.8 Q146.3484,460.8 146.1234,460.6453 Q145.8984,460.4906 145.8,460.0828 Q145.7578,459.8016 145.6031,459.6469 Q145.3219,459.3516 144.8156,459.1828 Q144.3094,459 143.8031,459 Q143.1703,459 142.6359,459.2531 Q142.1156,459.5063 141.7078,460.0688 Q141.3,460.6313 141.3,461.4047 L141.3,462.2344 Q141.3,463.1625 142.0594,463.7813 Q142.8188,464.4 144.1688,464.4 Q144.9703,464.4 145.5328,464.2172 Q145.8563,464.1188 146.2219,463.7953 Q146.4609,463.6125 146.5875,463.5563 Q146.7141,463.5 146.8688,463.5 Q147.1641,463.5 147.375,463.7391 Q147.6,463.9641 147.6,464.2875 Q147.6,464.5969 147.2906,464.9625 Q146.8406,465.4969 146.1234,465.7922 Q145.1813,466.2 144.0281,466.2 Q142.6781,466.2 141.5953,465.6656 Q140.7234,465.2438 140.1047,464.3297 Q139.5,463.4156 139.5,462.3328 L139.5,461.3484 Q139.5,460.2234 140.0344,459.2391 Q140.5828,458.2547 141.525,457.7344 Q142.4813,457.2 143.55,457.2 Q144.1969,457.2 144.7594,457.425 Q145.3219,457.65 145.8,458.1 Z " fill="#000000"/><text fill="#000000" font-family="sans-serif" font-size="10.8" lengthAdjust="spacing" textLength="45.9" x="156.6" y="465.6691">PortStore</text><line style="stroke:#A80036;stroke-width:1.35;" x1="131.4" x2="204.3" y1="475.65" y2="475.65"/><line style="stroke:#A80036;stroke-width:1.35;" x1="131.4" x2="204.3" y1="482.85" y2="482.85"/><!--MD5=[1422bb85f79f029a0f123e8b9236e461]
class SeadistStore--><rect codeLine="42" fill="#FEFECE" filter="url(#f1u30mpth0bo94)" height="43.2" id="SeadistStore" style="stroke:#A80036;stroke-width:1.35;" width="92.7" x="6.3" y="446.85"/><ellipse cx="19.8" cy="461.25" fill="#ADD1B2" rx="9.9" ry="9.9" style="stroke:#A80036;stroke-width:0.9;"/><path d="M21.6,458.1 Q21.7828,457.65 21.9938,457.425 Q22.2047,457.2 22.4438,457.2 Q22.8656,457.2 23.1328,457.4531 Q23.4,457.7063 23.4,458.2969 L23.4,459.7031 Q23.4,460.2938 23.1469,460.5469 Q22.8938,460.8 22.5,460.8 Q22.1484,460.8 21.9234,460.6453 Q21.6984,460.4906 21.6,460.0828 Q21.5578,459.8016 21.4031,459.6469 Q21.1219,459.3516 20.6156,459.1828 Q20.1094,459 19.6031,459 Q18.9703,459 18.4359,459.2531 Q17.9156,459.5063 17.5078,460.0688 Q17.1,460.6313 17.1,461.4047 L17.1,462.2344 Q17.1,463.1625 17.8594,463.7813 Q18.6188,464.4 19.9688,464.4 Q20.7703,464.4 21.3328,464.2172 Q21.6563,464.1188 22.0219,463.7953 Q22.2609,463.6125 22.3875,463.5563 Q22.5141,463.5 22.6688,463.5 Q22.9641,463.5 23.175,463.7391 Q23.4,463.9641 23.4,464.2875 Q23.4,464.5969 23.0906,464.9625 Q22.6406,465.4969 21.9234,465.7922 Q20.9813,466.2 19.8281,466.2 Q18.4781,466.2 17.3953,465.6656 Q16.5234,465.2438 15.9047,464.3297 Q15.3,463.4156 15.3,462.3328 L15.3,461.3484 Q15.3,460.2234 15.8344,459.2391 Q16.3828,458.2547 17.325,457.7344 Q18.2813,457.2 19.35,457.2 Q19.9969,457.2 20.5594,457.425 Q21.1219,457.65 21.6,458.1 Z " fill="#000000"/><text fill="#000000" font-family="sans-serif" font-size="10.8" lengthAdjust="spacing" textLength="63.9" x="32.4" y="465.6691">SeadistStore</text><line style="stroke:#A80036;stroke-width:1.35;" x1="7.2" x2="98.1" y1="475.65" y2="475.65"/><line style="stroke:#A80036;stroke-width:1.35;" x1="7.2" x2="98.1" y1="482.85" y2="482.85"/><!--MD5=[01d3084fc1194834bba60ab651fe9055]
class CapitalStore--><rect codeLine="46" fill="#FEFECE" filter="url(#f1u30mpth0bo94)" height="43.2" id="CapitalStore" style="stroke:#A80036;stroke-width:1.35;" width="90" x="478.35" y="446.85"/><ellipse cx="491.85" cy="461.25" fill="#ADD1B2" rx="9.9" ry="9.9" style="stroke:#A80036;stroke-width:0.9;"/><path d="M493.65,458.1 Q493.8328,457.65 494.0438,457.425 Q494.2547,457.2 494.4938,457.2 Q494.9156,457.2 495.1828,457.4531 Q495.45,457.7063 495.45,458.2969 L495.45,459.7031 Q495.45,460.2938 495.1969,460.5469 Q494.9438,460.8 494.55,460.8 Q494.1984,460.8 493.9734,460.6453 Q493.7484,460.4906 493.65,460.0828 Q493.6078,459.8016 493.4531,459.6469 Q493.1719,459.3516 492.6656,459.1828 Q492.1594,459 491.6531,459 Q491.0203,459 490.4859,459.2531 Q489.9656,459.5063 489.5578,460.0688 Q489.15,460.6313 489.15,461.4047 L489.15,462.2344 Q489.15,463.1625 489.9094,463.7813 Q490.6688,464.4 492.0188,464.4 Q492.8203,464.4 493.3828,464.2172 Q493.7063,464.1188 494.0719,463.7953 Q494.3109,463.6125 494.4375,463.5563 Q494.5641,463.5 494.7188,463.5 Q495.0141,463.5 495.225,463.7391 Q495.45,463.9641 495.45,464.2875 Q495.45,464.5969 495.1406,464.9625 Q494.6906,465.4969 493.9734,465.7922 Q493.0313,466.2 491.8781,466.2 Q490.5281,466.2 489.4453,465.6656 Q488.5734,465.2438 487.9547,464.3297 Q487.35,463.4156 487.35,462.3328 L487.35,461.3484 Q487.35,460.2234 487.8844,459.2391 Q488.4328,458.2547 489.375,457.7344 Q490.3313,457.2 491.4,457.2 Q492.0469,457.2 492.6094,457.425 Q493.1719,457.65 493.65,458.1 Z " fill="#000000"/><text fill="#000000" font-family="sans-serif" font-size="10.8" lengthAdjust="spacing" textLength="61.2" x="504.45" y="465.6691">CapitalStore</text><line style="stroke:#A80036;stroke-width:1.35;" x1="479.25" x2="567.45" y1="475.65" y2="475.65"/><line style="stroke:#A80036;stroke-width:1.35;" x1="479.25" x2="567.45" y1="482.85" y2="482.85"/><!--MD5=[1a5e2587019baa51be2acd1776bfe516]
class BorderStore--><rect codeLine="50" fill="#FEFECE" filter="url(#f1u30mpth0bo94)" height="43.2" id="BorderStore" style="stroke:#A80036;stroke-width:1.35;" width="88.2" x="1059.75" y="446.85"/><ellipse cx="1073.25" cy="461.25" fill="#ADD1B2" rx="9.9" ry="9.9" style="stroke:#A80036;stroke-width:0.9;"/><path d="M1075.05,458.1 Q1075.2328,457.65 1075.4438,457.425 Q1075.6547,457.2 1075.8938,457.2 Q1076.3156,457.2 1076.5828,457.4531 Q1076.85,457.7063 1076.85,458.2969 L1076.85,459.7031 Q1076.85,460.2938 1076.5969,460.5469 Q1076.3438,460.8 1075.95,460.8 Q1075.5984,460.8 1075.3734,460.6453 Q1075.1484,460.4906 1075.05,460.0828 Q1075.0078,459.8016 1074.8531,459.6469 Q1074.5719,459.3516 1074.0656,459.1828 Q1073.5594,459 1073.0531,459 Q1072.4203,459 1071.8859,459.2531 Q1071.3656,459.5063 1070.9578,460.0688 Q1070.55,460.6313 1070.55,461.4047 L1070.55,462.2344 Q1070.55,463.1625 1071.3094,463.7813 Q1072.0688,464.4 1073.4188,464.4 Q1074.2203,464.4 1074.7828,464.2172 Q1075.1063,464.1188 1075.4719,463.7953 Q1075.7109,463.6125 1075.8375,463.5563 Q1075.9641,463.5 1076.1188,463.5 Q1076.4141,463.5 1076.625,463.7391 Q1076.85,463.9641 1076.85,464.2875 Q1076.85,464.5969 1076.5406,464.9625 Q1076.0906,465.4969 1075.3734,465.7922 Q1074.4313,466.2 1073.2781,466.2 Q1071.9281,466.2 1070.8453,465.6656 Q1069.9734,465.2438 1069.3547,464.3297 Q1068.75,463.4156 1068.75,462.3328 L1068.75,461.3484 Q1068.75,460.2234 1069.2844,459.2391 Q1069.8328,458.2547 1070.775,457.7344 Q1071.7313,457.2 1072.8,457.2 Q1073.4469,457.2 1074.0094,457.425 Q1074.5719,457.65 1075.05,458.1 Z " fill="#000000"/><text fill="#000000" font-family="sans-serif" font-size="10.8" lengthAdjust="spacing" textLength="59.4" x="1085.85" y="465.6691">BorderStore</text><line style="stroke:#A80036;stroke-width:1.35;" x1="1060.65" x2="1147.05" y1="475.65" y2="475.65"/><line style="stroke:#A80036;stroke-width:1.35;" x1="1060.65" x2="1147.05" y1="482.85" y2="482.85"/><!--MD5=[ea13aecf8df941b18fb8e3885c78c184]
class Ports--><rect codeLine="54" fill="#FEFECE" filter="url(#f1u30mpth0bo94)" height="68.1047" id="Ports" style="stroke:#A80036;stroke-width:1.35;" width="68.4" x="183.15" y="729.45"/><ellipse cx="202.725" cy="743.85" fill="#ADD1B2" rx="9.9" ry="9.9" style="stroke:#A80036;stroke-width:0.9;"/><path d="M204.525,740.7 Q204.7078,740.25 204.9188,740.025 Q205.1297,739.8 205.3688,739.8 Q205.7906,739.8 206.0578,740.0531 Q206.325,740.3063 206.325,740.8969 L206.325,742.3031 Q206.325,742.8938 206.0719,743.1469 Q205.8188,743.4 205.425,743.4 Q205.0734,743.4 204.8484,743.2453 Q204.6234,743.0906 204.525,742.6828 Q204.4828,742.4016 204.3281,742.2469 Q204.0469,741.9516 203.5406,741.7828 Q203.0344,741.6 202.5281,741.6 Q201.8953,741.6 201.3609,741.8531 Q200.8406,742.1063 200.4328,742.6688 Q200.025,743.2313 200.025,744.0047 L200.025,744.8344 Q200.025,745.7625 200.7844,746.3813 Q201.5438,747 202.8938,747 Q203.6953,747 204.2578,746.8172 Q204.5813,746.7188 204.9469,746.3953 Q205.1859,746.2125 205.3125,746.1563 Q205.4391,746.1 205.5938,746.1 Q205.8891,746.1 206.1,746.3391 Q206.325,746.5641 206.325,746.8875 Q206.325,747.1969 206.0156,747.5625 Q205.5656,748.0969 204.8484,748.3922 Q203.9063,748.8 202.7531,748.8 Q201.4031,748.8 200.3203,748.2656 Q199.4484,747.8438 198.8297,746.9297 Q198.225,746.0156 198.225,744.9328 L198.225,743.9484 Q198.225,742.8234 198.7594,741.8391 Q199.3078,740.8547 200.25,740.3344 Q201.2063,739.8 202.275,739.8 Q202.9219,739.8 203.4844,740.025 Q204.0469,740.25 204.525,740.7 Z " fill="#000000"/><text fill="#000000" font-family="sans-serif" font-size="10.8" lengthAdjust="spacing" textLength="26.1" x="216.675" y="748.2691">Ports</text><line style="stroke:#A80036;stroke-width:1.35;" x1="184.05" x2="250.65" y1="758.25" y2="758.25"/><text fill="#000000" font-family="sans-serif" font-size="9.9" lengthAdjust="spacing" textLength="57.6" x="188.55" y="772.1271">-identification</text><text fill="#000000" font-family="sans-serif" font-size="9.9" lengthAdjust="spacing" textLength="27" x="188.55" y="784.5794">-name</text><line style="stroke:#A80036;stroke-width:1.35;" x1="184.05" x2="250.65" y1="790.3547" y2="790.3547"/><!--MD5=[deb4e1f6eb1e3c1256fdb830f96abfbb]
class Country--><rect codeLine="60" fill="#FEFECE" filter="url(#f1u30mpth0bo94)" height="68.1047" id="Country" style="stroke:#A80036;stroke-width:1.35;" width="66.6" x="791.55" y="911.25"/><ellipse cx="805.05" cy="925.65" fill="#ADD1B2" rx="9.9" ry="9.9" style="stroke:#A80036;stroke-width:0.9;"/><path d="M806.85,922.5 Q807.0328,922.05 807.2438,921.825 Q807.4547,921.6 807.6938,921.6 Q808.1156,921.6 808.3828,921.8531 Q808.65,922.1063 808.65,922.6969 L808.65,924.1031 Q808.65,924.6938 808.3969,924.9469 Q808.1438,925.2 807.75,925.2 Q807.3984,925.2 807.1734,925.0453 Q806.9484,924.8906 806.85,924.4828 Q806.8078,924.2016 806.6531,924.0469 Q806.3719,923.7516 805.8656,923.5828 Q805.3594,923.4 804.8531,923.4 Q804.2203,923.4 803.6859,923.6531 Q803.1656,923.9063 802.7578,924.4688 Q802.35,925.0313 802.35,925.8047 L802.35,926.6344 Q802.35,927.5625 803.1094,928.1813 Q803.8688,928.8 805.2188,928.8 Q806.0203,928.8 806.5828,928.6172 Q806.9063,928.5188 807.2719,928.1953 Q807.5109,928.0125 807.6375,927.9563 Q807.7641,927.9 807.9188,927.9 Q808.2141,927.9 808.425,928.1391 Q808.65,928.3641 808.65,928.6875 Q808.65,928.9969 808.3406,929.3625 Q807.8906,929.8969 807.1734,930.1922 Q806.2313,930.6 805.0781,930.6 Q803.7281,930.6 802.6453,930.0656 Q801.7734,929.6438 801.1547,928.7297 Q800.55,927.8156 800.55,926.7328 L800.55,925.7484 Q800.55,924.6234 801.0844,923.6391 Q801.6328,922.6547 802.575,922.1344 Q803.5313,921.6 804.6,921.6 Q805.2469,921.6 805.8094,921.825 Q806.3719,922.05 806.85,922.5 Z " fill="#000000"/><text fill="#000000" font-family="sans-serif" font-size="10.8" lengthAdjust="spacing" textLength="37.8" x="817.65" y="930.0691">Country</text><line style="stroke:#A80036;stroke-width:1.35;" x1="792.45" x2="857.25" y1="940.05" y2="940.05"/><text fill="#000000" font-family="sans-serif" font-size="9.9" lengthAdjust="spacing" textLength="27" x="796.95" y="953.9271">-name</text><text fill="#000000" font-family="sans-serif" font-size="9.9" lengthAdjust="spacing" textLength="43.2" x="796.95" y="966.3794">-continent</text><line style="stroke:#A80036;stroke-width:1.35;" x1="792.45" x2="857.25" y1="972.1547" y2="972.1547"/><!--MD5=[9febfb2ff9adfe183e01ff702b9c1c02]
class PlaceLocation--><rect codeLine="65" fill="#FEFECE" filter="url(#f1u30mpth0bo94)" height="68.1047" id="PlaceLocation" style="stroke:#A80036;stroke-width:1.35;" width="99" x="644.85" y="729.45"/><ellipse cx="658.35" cy="743.85" fill="#ADD1B2" rx="9.9" ry="9.9" style="stroke:#A80036;stroke-width:0.9;"/><path d="M660.15,740.7 Q660.3328,740.25 660.5438,740.025 Q660.7547,739.8 660.9938,739.8 Q661.4156,739.8 661.6828,740.0531 Q661.95,740.3063 661.95,740.8969 L661.95,742.3031 Q661.95,742.8938 661.6969,743.1469 Q661.4438,743.4 661.05,743.4 Q660.6984,743.4 660.4734,743.2453 Q660.2484,743.0906 660.15,742.6828 Q660.1078,742.4016 659.9531,742.2469 Q659.6719,741.9516 659.1656,741.7828 Q658.6594,741.6 658.1531,741.6 Q657.5203,741.6 656.9859,741.8531 Q656.4656,742.1063 656.0578,742.6688 Q655.65,743.2313 655.65,744.0047 L655.65,744.8344 Q655.65,745.7625 656.4094,746.3813 Q657.1688,747 658.5188,747 Q659.3203,747 659.8828,746.8172 Q660.2063,746.7188 660.5719,746.3953 Q660.8109,746.2125 660.9375,746.1563 Q661.0641,746.1 661.2188,746.1 Q661.5141,746.1 661.725,746.3391 Q661.95,746.5641 661.95,746.8875 Q661.95,747.1969 661.6406,747.5625 Q661.1906,748.0969 660.4734,748.3922 Q659.5313,748.8 658.3781,748.8 Q657.0281,748.8 655.9453,748.2656 Q655.0734,747.8438 654.4547,746.9297 Q653.85,746.0156 653.85,744.9328 L653.85,743.9484 Q653.85,742.8234 654.3844,741.8391 Q654.9328,740.8547 655.875,740.3344 Q656.8313,739.8 657.9,739.8 Q658.5469,739.8 659.1094,740.025 Q659.6719,740.25 660.15,740.7 Z " fill="#000000"/><text fill="#000000" font-family="sans-serif" font-size="10.8" lengthAdjust="spacing" textLength="70.2" x="670.95" y="748.2691">PlaceLocation</text><line style="stroke:#A80036;stroke-width:1.35;" x1="645.75" x2="742.95" y1="758.25" y2="758.25"/><text fill="#000000" font-family="sans-serif" font-size="9.9" lengthAdjust="spacing" textLength="34.2" x="650.25" y="772.1271">-latitude</text><text fill="#000000" font-family="sans-serif" font-size="9.9" lengthAdjust="spacing" textLength="42.3" x="650.25" y="784.5794">-longitude</text><line style="stroke:#A80036;stroke-width:1.35;" x1="645.75" x2="742.95" y1="790.3547" y2="790.3547"/><!--MD5=[ea8f20dfdca176213da526d9b557babf]
class Capital--><rect codeLine="70" fill="#FEFECE" filter="url(#f1u30mpth0bo94)" height="93.0094" id="Capital" style="stroke:#A80036;stroke-width:1.35;" width="63.9" x="522.9" y="717.3"/><ellipse cx="536.4" cy="731.7" fill="#ADD1B2" rx="9.9" ry="9.9" style="stroke:#A80036;stroke-width:0.9;"/><path d="M538.2,728.55 Q538.3828,728.1 538.5938,727.875 Q538.8047,727.65 539.0438,727.65 Q539.4656,727.65 539.7328,727.9031 Q540,728.1563 540,728.7469 L540,730.1531 Q540,730.7438 539.7469,730.9969 Q539.4938,731.25 539.1,731.25 Q538.7484,731.25 538.5234,731.0953 Q538.2984,730.9406 538.2,730.5328 Q538.1578,730.2516 538.0031,730.0969 Q537.7219,729.8016 537.2156,729.6328 Q536.7094,729.45 536.2031,729.45 Q535.5703,729.45 535.0359,729.7031 Q534.5156,729.9563 534.1078,730.5188 Q533.7,731.0813 533.7,731.8547 L533.7,732.6844 Q533.7,733.6125 534.4594,734.2313 Q535.2188,734.85 536.5688,734.85 Q537.3703,734.85 537.9328,734.6672 Q538.2563,734.5688 538.6219,734.2453 Q538.8609,734.0625 538.9875,734.0063 Q539.1141,733.95 539.2688,733.95 Q539.5641,733.95 539.775,734.1891 Q540,734.4141 540,734.7375 Q540,735.0469 539.6906,735.4125 Q539.2406,735.9469 538.5234,736.2422 Q537.5813,736.65 536.4281,736.65 Q535.0781,736.65 533.9953,736.1156 Q533.1234,735.6938 532.5047,734.7797 Q531.9,733.8656 531.9,732.7828 L531.9,731.7984 Q531.9,730.6734 532.4344,729.6891 Q532.9828,728.7047 533.925,728.1844 Q534.8813,727.65 535.95,727.65 Q536.5969,727.65 537.1594,727.875 Q537.7219,728.1 538.2,728.55 Z " fill="#000000"/><text fill="#000000" font-family="sans-serif" font-size="10.8" lengthAdjust="spacing" textLength="35.1" x="549" y="736.1191">Capital</text><line style="stroke:#A80036;stroke-width:1.35;" x1="523.8" x2="585.9" y1="746.1" y2="746.1"/><text fill="#000000" font-family="sans-serif" font-size="9.9" lengthAdjust="spacing" textLength="27" x="528.3" y="759.9771">-name</text><text fill="#000000" font-family="sans-serif" font-size="9.9" lengthAdjust="spacing" textLength="36.9" x="528.3" y="772.4294">-country</text><text fill="#000000" font-family="sans-serif" font-size="9.9" lengthAdjust="spacing" textLength="34.2" x="528.3" y="784.8817">-latitude</text><text fill="#000000" font-family="sans-serif" font-size="9.9" lengthAdjust="spacing" textLength="42.3" x="528.3" y="797.3341">-longitude</text><line style="stroke:#A80036;stroke-width:1.35;" x1="523.8" x2="585.9" y1="803.1094" y2="803.1094"/><!--MD5=[8515a37c80da559ff7ce07f8a9e75d30]
class Place--><rect codeLine="77" fill="#FEFECE" filter="url(#f1u30mpth0bo94)" height="43.2" id="Place" style="stroke:#A80036;stroke-width:1.35;" width="56.7" x="651.6" y="597.6"/><ellipse cx="665.1" cy="612" fill="#ADD1B2" rx="9.9" ry="9.9" style="stroke:#A80036;stroke-width:0.9;"/><path d="M666.9,608.85 Q667.0828,608.4 667.2938,608.175 Q667.5047,607.95 667.7438,607.95 Q668.1656,607.95 668.4328,608.2031 Q668.7,608.4563 668.7,609.0469 L668.7,610.4531 Q668.7,611.0438 668.4469,611.2969 Q668.1938,611.55 667.8,611.55 Q667.4484,611.55 667.2234,611.3953 Q666.9984,611.2406 666.9,610.8328 Q666.8578,610.5516 666.7031,610.3969 Q666.4219,610.1016 665.9156,609.9328 Q665.4094,609.75 664.9031,609.75 Q664.2703,609.75 663.7359,610.0031 Q663.2156,610.2563 662.8078,610.8188 Q662.4,611.3813 662.4,612.1547 L662.4,612.9844 Q662.4,613.9125 663.1594,614.5313 Q663.9188,615.15 665.2688,615.15 Q666.0703,615.15 666.6328,614.9672 Q666.9563,614.8688 667.3219,614.5453 Q667.5609,614.3625 667.6875,614.3063 Q667.8141,614.25 667.9688,614.25 Q668.2641,614.25 668.475,614.4891 Q668.7,614.7141 668.7,615.0375 Q668.7,615.3469 668.3906,615.7125 Q667.9406,616.2469 667.2234,616.5422 Q666.2813,616.95 665.1281,616.95 Q663.7781,616.95 662.6953,616.4156 Q661.8234,615.9938 661.2047,615.0797 Q660.6,614.1656 660.6,613.0828 L660.6,612.0984 Q660.6,610.9734 661.1344,609.9891 Q661.6828,609.0047 662.625,608.4844 Q663.5813,607.95 664.65,607.95 Q665.2969,607.95 665.8594,608.175 Q666.4219,608.4 666.9,608.85 Z " fill="#000000"/><text fill="#000000" font-family="sans-serif" font-size="10.8" lengthAdjust="spacing" textLength="27.9" x="677.7" y="616.4191">Place</text><line style="stroke:#A80036;stroke-width:1.35;" x1="652.5" x2="707.4" y1="626.4" y2="626.4"/><line style="stroke:#A80036;stroke-width:1.35;" x1="652.5" x2="707.4" y1="633.6" y2="633.6"/><!--MD5=[a0336aaa8110b78d9cacadb9d45e00a3]
class Border--><rect codeLine="81" fill="#FEFECE" filter="url(#f1u30mpth0bo94)" height="68.1047" id="Border" style="stroke:#A80036;stroke-width:1.35;" width="77.4" x="855.45" y="1080.9"/><ellipse cx="875.835" cy="1095.3" fill="#ADD1B2" rx="9.9" ry="9.9" style="stroke:#A80036;stroke-width:0.9;"/><path d="M877.635,1092.15 Q877.8178,1091.7 878.0288,1091.475 Q878.2397,1091.25 878.4788,1091.25 Q878.9006,1091.25 879.1678,1091.5031 Q879.435,1091.7563 879.435,1092.3469 L879.435,1093.7531 Q879.435,1094.3438 879.1819,1094.5969 Q878.9288,1094.85 878.535,1094.85 Q878.1834,1094.85 877.9584,1094.6953 Q877.7334,1094.5406 877.635,1094.1328 Q877.5928,1093.8516 877.4381,1093.6969 Q877.1569,1093.4016 876.6506,1093.2328 Q876.1444,1093.05 875.6381,1093.05 Q875.0053,1093.05 874.4709,1093.3031 Q873.9506,1093.5563 873.5428,1094.1188 Q873.135,1094.6813 873.135,1095.4547 L873.135,1096.2844 Q873.135,1097.2125 873.8944,1097.8313 Q874.6538,1098.45 876.0038,1098.45 Q876.8053,1098.45 877.3678,1098.2672 Q877.6913,1098.1688 878.0569,1097.8453 Q878.2959,1097.6625 878.4225,1097.6063 Q878.5491,1097.55 878.7038,1097.55 Q878.9991,1097.55 879.21,1097.7891 Q879.435,1098.0141 879.435,1098.3375 Q879.435,1098.6469 879.1256,1099.0125 Q878.6756,1099.5469 877.9584,1099.8422 Q877.0163,1100.25 875.8631,1100.25 Q874.5131,1100.25 873.4303,1099.7156 Q872.5584,1099.2938 871.9397,1098.3797 Q871.335,1097.4656 871.335,1096.3828 L871.335,1095.3984 Q871.335,1094.2734 871.8694,1093.2891 Q872.4178,1092.3047 873.36,1091.7844 Q874.3163,1091.25 875.385,1091.25 Q876.0319,1091.25 876.5944,1091.475 Q877.1569,1091.7 877.635,1092.15 Z " fill="#000000"/><text fill="#000000" font-family="sans-serif" font-size="10.8" lengthAdjust="spacing" textLength="33.3" x="889.965" y="1099.7191">Border</text><line style="stroke:#A80036;stroke-width:1.35;" x1="856.35" x2="931.95" y1="1109.7" y2="1109.7"/><text fill="#000000" font-family="sans-serif" font-size="9.9" lengthAdjust="spacing" textLength="66.6" x="860.85" y="1123.5771">-countryName1</text><text fill="#000000" font-family="sans-serif" font-size="9.9" lengthAdjust="spacing" textLength="66.6" x="860.85" y="1136.0294">-countryName2</text><line style="stroke:#A80036;stroke-width:1.35;" x1="856.35" x2="931.95" y1="1141.8047" y2="1141.8047"/><!--MD5=[e24af10a0367b93d82d6bdd24a6ec764]
class Seadist--><rect codeLine="86" fill="#FEFECE" filter="url(#f1u30mpth0bo94)" height="130.3664" id="Seadist" style="stroke:#A80036;stroke-width:1.35;" width="77.4" x="68.85" y="880.2"/><ellipse cx="87.21" cy="894.6" fill="#ADD1B2" rx="9.9" ry="9.9" style="stroke:#A80036;stroke-width:0.9;"/><path d="M89.01,891.45 Q89.1928,891 89.4038,890.775 Q89.6147,890.55 89.8538,890.55 Q90.2756,890.55 90.5428,890.8031 Q90.81,891.0563 90.81,891.6469 L90.81,893.0531 Q90.81,893.6438 90.5569,893.8969 Q90.3038,894.15 89.91,894.15 Q89.5584,894.15 89.3334,893.9953 Q89.1084,893.8406 89.01,893.4328 Q88.9678,893.1516 88.8131,892.9969 Q88.5319,892.7016 88.0256,892.5328 Q87.5194,892.35 87.0131,892.35 Q86.3803,892.35 85.8459,892.6031 Q85.3256,892.8563 84.9178,893.4188 Q84.51,893.9813 84.51,894.7547 L84.51,895.5844 Q84.51,896.5125 85.2694,897.1313 Q86.0288,897.75 87.3788,897.75 Q88.1803,897.75 88.7428,897.5672 Q89.0663,897.4688 89.4319,897.1453 Q89.6709,896.9625 89.7975,896.9063 Q89.9241,896.85 90.0788,896.85 Q90.3741,896.85 90.585,897.0891 Q90.81,897.3141 90.81,897.6375 Q90.81,897.9469 90.5006,898.3125 Q90.0506,898.8469 89.3334,899.1422 Q88.3913,899.55 87.2381,899.55 Q85.8881,899.55 84.8053,899.0156 Q83.9334,898.5938 83.3147,897.6797 Q82.71,896.7656 82.71,895.6828 L82.71,894.6984 Q82.71,893.5734 83.2444,892.5891 Q83.7928,891.6047 84.735,891.0844 Q85.6913,890.55 86.76,890.55 Q87.4069,890.55 87.9694,890.775 Q88.5319,891 89.01,891.45 Z " fill="#000000"/><text fill="#000000" font-family="sans-serif" font-size="10.8" lengthAdjust="spacing" textLength="37.8" x="100.89" y="899.0191">Seadist</text><line style="stroke:#A80036;stroke-width:1.35;" x1="69.75" x2="145.35" y1="909" y2="909"/><text fill="#000000" font-family="sans-serif" font-size="9.9" lengthAdjust="spacing" textLength="33.3" x="74.25" y="922.8771">-portId1</text><text fill="#000000" font-family="sans-serif" font-size="9.9" lengthAdjust="spacing" textLength="33.3" x="74.25" y="935.3294">-portId2</text><text fill="#000000" font-family="sans-serif" font-size="9.9" lengthAdjust="spacing" textLength="57.6" x="74.25" y="947.7817">-seaDistance</text><text fill="#000000" font-family="sans-serif" font-size="9.9" lengthAdjust="spacing" textLength="50.4" x="74.25" y="960.2341">-portName1</text><text fill="#000000" font-family="sans-serif" font-size="9.9" lengthAdjust="spacing" textLength="50.4" x="74.25" y="972.6864">-portName2</text><text fill="#000000" font-family="sans-serif" font-size="9.9" lengthAdjust="spacing" textLength="66.6" x="74.25" y="985.1388">-countryName1</text><text fill="#000000" font-family="sans-serif" font-size="9.9" lengthAdjust="spacing" textLength="66.6" x="74.25" y="997.5911">-countryName2</text><line style="stroke:#A80036;stroke-width:1.35;" x1="69.75" x2="145.35" y1="1003.3664" y2="1003.3664"/><!--MD5=[305bcb7b78fcb9f22634b78a6e830e55]
class AdjacencyMatrixGraph--><rect codeLine="96" fill="#FEFECE" filter="url(#f1u30mpth0bo94)" height="55.6523" id="AdjacencyMatrixGraph" style="stroke:#A80036;stroke-width:1.35;" width="136.8" x="745.65" y="591.3"/><ellipse cx="759.15" cy="605.7" fill="#ADD1B2" rx="9.9" ry="9.9" style="stroke:#A80036;stroke-width:0.9;"/><path d="M760.95,602.55 Q761.1328,602.1 761.3438,601.875 Q761.5547,601.65 761.7938,601.65 Q762.2156,601.65 762.4828,601.9031 Q762.75,602.1563 762.75,602.7469 L762.75,604.1531 Q762.75,604.7438 762.4969,604.9969 Q762.2438,605.25 761.85,605.25 Q761.4984,605.25 761.2734,605.0953 Q761.0484,604.9406 760.95,604.5328 Q760.9078,604.2516 760.7531,604.0969 Q760.4719,603.8016 759.9656,603.6328 Q759.4594,603.45 758.9531,603.45 Q758.3203,603.45 757.7859,603.7031 Q757.2656,603.9563 756.8578,604.5188 Q756.45,605.0813 756.45,605.8547 L756.45,606.6844 Q756.45,607.6125 757.2094,608.2313 Q757.9688,608.85 759.3188,608.85 Q760.1203,608.85 760.6828,608.6672 Q761.0063,608.5688 761.3719,608.2453 Q761.6109,608.0625 761.7375,608.0063 Q761.8641,607.95 762.0188,607.95 Q762.3141,607.95 762.525,608.1891 Q762.75,608.4141 762.75,608.7375 Q762.75,609.0469 762.4406,609.4125 Q761.9906,609.9469 761.2734,610.2422 Q760.3313,610.65 759.1781,610.65 Q757.8281,610.65 756.7453,610.1156 Q755.8734,609.6938 755.2547,608.7797 Q754.65,607.8656 754.65,606.7828 L754.65,605.7984 Q754.65,604.6734 755.1844,603.6891 Q755.7328,602.7047 756.675,602.1844 Q757.6313,601.65 758.7,601.65 Q759.3469,601.65 759.9094,601.875 Q760.4719,602.1 760.95,602.55 Z " fill="#000000"/><text fill="#000000" font-family="sans-serif" font-size="10.8" lengthAdjust="spacing" textLength="108" x="771.75" y="610.1191">AdjacencyMatrixGraph</text><line style="stroke:#A80036;stroke-width:1.35;" x1="746.55" x2="881.55" y1="620.1" y2="620.1"/><line style="stroke:#A80036;stroke-width:1.35;" x1="746.55" x2="881.55" y1="627.3" y2="627.3"/><text fill="#000000" font-family="sans-serif" font-size="9.9" lengthAdjust="spacing" textLength="48.6" x="751.05" y="641.1771">-addEdge()</text><!--MD5=[2e2f8c8f62c4eb3bc59a59727cfd81a5]
class Edge--><rect codeLine="101" fill="#FEFECE" filter="url(#f1u30mpth0bo94)" height="43.2" id="Edge" style="stroke:#A80036;stroke-width:1.35;" width="54.9" x="786.6" y="742.05"/><ellipse cx="800.1" cy="756.45" fill="#ADD1B2" rx="9.9" ry="9.9" style="stroke:#A80036;stroke-width:0.9;"/><path d="M801.9,753.3 Q802.0828,752.85 802.2938,752.625 Q802.5047,752.4 802.7438,752.4 Q803.1656,752.4 803.4328,752.6531 Q803.7,752.9063 803.7,753.4969 L803.7,754.9031 Q803.7,755.4938 803.4469,755.7469 Q803.1938,756 802.8,756 Q802.4484,756 802.2234,755.8453 Q801.9984,755.6906 801.9,755.2828 Q801.8578,755.0016 801.7031,754.8469 Q801.4219,754.5516 800.9156,754.3828 Q800.4094,754.2 799.9031,754.2 Q799.2703,754.2 798.7359,754.4531 Q798.2156,754.7063 797.8078,755.2688 Q797.4,755.8313 797.4,756.6047 L797.4,757.4344 Q797.4,758.3625 798.1594,758.9813 Q798.9188,759.6 800.2688,759.6 Q801.0703,759.6 801.6328,759.4172 Q801.9563,759.3188 802.3219,758.9953 Q802.5609,758.8125 802.6875,758.7563 Q802.8141,758.7 802.9688,758.7 Q803.2641,758.7 803.475,758.9391 Q803.7,759.1641 803.7,759.4875 Q803.7,759.7969 803.3906,760.1625 Q802.9406,760.6969 802.2234,760.9922 Q801.2813,761.4 800.1281,761.4 Q798.7781,761.4 797.6953,760.8656 Q796.8234,760.4438 796.2047,759.5297 Q795.6,758.6156 795.6,757.5328 L795.6,756.5484 Q795.6,755.4234 796.1344,754.4391 Q796.6828,753.4547 797.625,752.9344 Q798.5813,752.4 799.65,752.4 Q800.2969,752.4 800.8594,752.625 Q801.4219,752.85 801.9,753.3 Z " fill="#000000"/><text fill="#000000" font-family="sans-serif" font-size="10.8" lengthAdjust="spacing" textLength="26.1" x="812.7" y="760.8691">Edge</text><line style="stroke:#A80036;stroke-width:1.35;" x1="787.5" x2="840.6" y1="770.85" y2="770.85"/><line style="stroke:#A80036;stroke-width:1.35;" x1="787.5" x2="840.6" y1="778.05" y2="778.05"/><!--MD5=[391129f97cbf29e496416e41529bff0f]
link CreateFreightNetworkUI to CreateFreightNetworkController--><path codeLine="105" d="M500.85,49.563 C500.85,63.909 500.85,83.259 500.85,99.54 " fill="none" id="CreateFreightNetworkUI-to-CreateFreightNetworkController" style="stroke:#A80036;stroke-width:0.9;stroke-dasharray:7.0,7.0;"/><polygon fill="#A80036" points="500.85,104.049,504.45,95.949,500.85,99.549,497.25,95.949,500.85,104.049" style="stroke:#A80036;stroke-width:0.9;"/><!--MD5=[f04de9d4c066040755c4788048ff1168]
link CreateFreightNetworkController to Company--><path codeLine="107" d="M480.285,160.362 C469.323,174.852 455.301,193.374 441.603,211.473 " fill="none" id="CreateFreightNetworkController-to-Company" style="stroke:#A80036;stroke-width:0.9;stroke-dasharray:7.0,7.0;"/><polygon fill="#A80036" points="438.867,215.091,446.6242,210.802,441.5814,211.5018,440.8816,206.459,438.867,215.091" style="stroke:#A80036;stroke-width:0.9;"/><!--MD5=[aa44d5b3339bd2b4759b8158b432e83b]
link CreateFreightNetworkController to FreightNetwork--><path codeLine="108" d="M526.212,160.281 C577.467,214.992 694.242,339.651 762.264,412.263 " fill="none" id="CreateFreightNetworkController-to-FreightNetwork" style="stroke:#A80036;stroke-width:0.9;stroke-dasharray:7.0,7.0;"/><polygon fill="#A80036" points="765.459,415.683,762.5465,407.3112,762.3817,412.3997,757.2932,412.2349,765.459,415.683" style="stroke:#A80036;stroke-width:0.9;"/><!--MD5=[e359b474b5bea3d5e0a05d5f38acf6c5]
link Company to FreightNetwork--><path codeLine="110" d="M458.253,311.184 C522.27,339.318 619.416,382.014 696.033,415.683 " fill="none" id="Company-FreightNetwork" style="stroke:#A80036;stroke-width:0.9;"/><polygon fill="#000000" points="636.3697,382.6687,629.9813,376.972,627.8529,381.815,636.3697,382.6687" style="stroke:#000000;stroke-width:0.9;"/><text fill="#000000" font-family="sans-serif" font-size="11.7" lengthAdjust="spacing" textLength="23.4" x="640.35" y="385.6456">have</text><text fill="#000000" font-family="sans-serif" font-size="11.7" lengthAdjust="spacing" textLength="6.3" x="465.267" y="311.2782">1</text><text fill="#000000" font-family="sans-serif" font-size="11.7" lengthAdjust="spacing" textLength="6.3" x="674.9658" y="406.1296">1</text><!--MD5=[c834a245beec73db3c4af2461c29a9dc]
link Company to TransferFromDataBase--><path codeLine="111" d="M384.552,345.627 C382.509,369.09 380.232,395.262 378.315,417.321 " fill="none" id="Company-to-TransferFromDataBase" style="stroke:#A80036;stroke-width:0.9;stroke-dasharray:7.0,7.0;"/><polygon fill="#A80036" points="377.91,421.965,382.1905,414.2031,378.2954,417.4815,375.0169,413.5864,377.91,421.965" style="stroke:#A80036;stroke-width:0.9;"/><!--MD5=[c8e8e510b3d61337403bff1e4f9e7277]
link FreightNetwork to AdjacencyMatrixGraph--><path codeLine="112" d="M814.05,521.442 C814.05,543.096 814.05,567.54 814.05,586.449 " fill="none" id="FreightNetwork-to-AdjacencyMatrixGraph" style="stroke:#A80036;stroke-width:0.9;stroke-dasharray:7.0,7.0;"/><polygon fill="#A80036" points="814.05,591.129,817.65,583.029,814.05,586.629,810.45,583.029,814.05,591.129" style="stroke:#A80036;stroke-width:0.9;"/><!--MD5=[5957790c5297b9f6d5589f6d219daa42]
link AdjacencyMatrixGraph to Edge--><path codeLine="113" d="M814.05,647.271 C814.05,673.137 814.05,711.801 814.05,737.145 " fill="none" id="AdjacencyMatrixGraph-to-Edge" style="stroke:#A80036;stroke-width:0.9;stroke-dasharray:7.0,7.0;"/><polygon fill="#A80036" points="814.05,741.717,817.65,733.617,814.05,737.217,810.45,733.617,814.05,741.717" style="stroke:#A80036;stroke-width:0.9;"/><!--MD5=[1c7ef3eed46208412625467f91f87f69]
link CreateFreightNetworkController to PortStore--><path codeLine="114" d="M407.943,158.643 C373.293,171.45 335.394,189.783 306.45,215.1 C233.028,279.333 191.016,392.301 175.185,442.404 " fill="none" id="CreateFreightNetworkController-to-PortStore" style="stroke:#A80036;stroke-width:0.9;stroke-dasharray:7.0,7.0;"/><polygon fill="#A80036" points="173.817,446.76,179.6623,440.0965,175.1548,442.4635,172.7879,437.956,173.817,446.76" style="stroke:#A80036;stroke-width:0.9;"/><!--MD5=[9b3785718498db7ce85977e49a9dd4c2]
link CreateFreightNetworkController to SeadistStore--><path codeLine="115" d="M408.096,141.39 C346.122,150.849 265.599,171.216 207.45,215.1 C127.179,275.679 79.2,391.059 61.029,442.134 " fill="none" id="CreateFreightNetworkController-to-SeadistStore" style="stroke:#A80036;stroke-width:0.9;stroke-dasharray:7.0,7.0;"/><polygon fill="#A80036" points="59.463,446.58,65.5628,440.1486,60.9667,442.3387,58.7767,437.7426,59.463,446.58" style="stroke:#A80036;stroke-width:0.9;"/><!--MD5=[9d17a4b78cd5cf71b8e658a89e9f66c4]
link CreateFreightNetworkController to BorderStore--><path codeLine="116" d="M563.58,160.335 C657.414,201.798 838.854,285.345 984.15,372.6 C1018.683,393.336 1054.377,422.892 1077.696,443.493 " fill="none" id="CreateFreightNetworkController-to-BorderStore" style="stroke:#A80036;stroke-width:0.9;stroke-dasharray:7.0,7.0;"/><polygon fill="#A80036" points="1081.323,446.724,1077.6626,438.6511,1077.9604,443.7336,1072.8779,444.0313,1081.323,446.724" style="stroke:#A80036;stroke-width:0.9;"/><!--MD5=[3d97e7a8068d9b0a6bb8fcf7dc76451d]
link Company to Ports--><path codeLine="117" d="M329.544,345.933 C312.786,366.876 296.118,391.104 284.85,415.8 C259.245,471.906 232.236,653.796 221.814,729.36 " fill="none" id="Company-Ports" style="stroke:#A80036;stroke-width:0.9;"/><polygon fill="#000000" points="253.9328,560.6905,258.6812,553.5688,253.5883,552.1379,253.9328,560.6905" style="stroke:#000000;stroke-width:0.9;"/><text fill="#000000" font-family="sans-serif" font-size="11.7" lengthAdjust="spacing" textLength="23.4" x="263.25" y="561.1456">have</text><text fill="#000000" font-family="sans-serif" font-size="11.7" lengthAdjust="spacing" textLength="6.3" x="317.3665" y="364.809">1</text><text fill="#000000" font-family="sans-serif" font-size="11.7" lengthAdjust="spacing" textLength="18" x="224.2123" y="719.7697">1..*</text><!--MD5=[af03eac9374996fab52622a2288382b0]
link PortStore to Ports--><path codeLine="118" d="M170.352,490.221 C174.447,523.503 183.123,590.616 193.05,647.1 C197.631,673.146 203.76,702.288 208.71,724.797 " fill="none" id="PortStore-to-Ports" style="stroke:#A80036;stroke-width:0.9;"/><polygon fill="#A80036" points="209.691,729.207,211.4481,720.5189,208.7148,724.8142,204.4196,722.0808,209.691,729.207" style="stroke:#A80036;stroke-width:0.9;"/><text fill="#000000" font-family="sans-serif" font-size="11.7" lengthAdjust="spacing" textLength="35.1" x="193.95" y="624.1456">adopts</text><text fill="#000000" font-family="sans-serif" font-size="11.7" lengthAdjust="spacing" textLength="6.3" x="163.8941" y="509.4668">1</text><text fill="#000000" font-family="sans-serif" font-size="11.7" lengthAdjust="spacing" textLength="4.5" x="203.426" y="719.5894">*</text><!--MD5=[ee6496886c16455100a23a654f1e78a4]
link SeadistStore to Seadist--><path codeLine="119" d="M55.044,490.077 C62.712,556.416 86.877,765.603 99.576,875.52 " fill="none" id="SeadistStore-to-Seadist" style="stroke:#A80036;stroke-width:0.9;"/><polygon fill="#A80036" points="100.098,880.038,102.7467,871.579,99.5827,875.5676,95.5941,872.4035,100.098,880.038" style="stroke:#A80036;stroke-width:0.9;"/><text fill="#000000" font-family="sans-serif" font-size="11.7" lengthAdjust="spacing" textLength="35.1" x="78.75" y="687.1456">adopts</text><text fill="#000000" font-family="sans-serif" font-size="11.7" lengthAdjust="spacing" textLength="6.3" x="48.5597" y="509.2877">1</text><text fill="#000000" font-family="sans-serif" font-size="11.7" lengthAdjust="spacing" textLength="4.5" x="94.5975" y="870.3187">*</text><!--MD5=[79560296f397660a41a436e13f02127c]
link BorderStore to Border--><path codeLine="120" d="M1081.818,490.284 C1055.961,517.23 1016.55,566.748 1016.55,618.3 C1016.55,618.3 1016.55,618.3 1016.55,946.35 C1016.55,1002.024 972.036,1051.587 936.702,1082.169 " fill="none" id="BorderStore-to-Border" style="stroke:#A80036;stroke-width:0.9;"/><polygon fill="#A80036" points="932.877,1085.436,941.3753,1082.9164,936.3,1082.5149,936.7015,1077.4396,932.877,1085.436" style="stroke:#A80036;stroke-width:0.9;"/><text fill="#000000" font-family="sans-serif" font-size="11.7" lengthAdjust="spacing" textLength="35.1" x="1017.45" y="768.5956">adopts</text><text fill="#000000" font-family="sans-serif" font-size="11.7" lengthAdjust="spacing" textLength="6.3" x="1069.3799" y="509.5452">1</text><text fill="#000000" font-family="sans-serif" font-size="11.7" lengthAdjust="spacing" textLength="4.5" x="940.176" y="1076.6697">*</text><!--MD5=[6d3d45a2319404bb3e06b58881af6b0d]
link Ports to Seadist--><path codeLine="122" d="M196.956,797.985 C182.754,821.268 163.368,853.038 146.277,881.055 " fill="none" id="Ports-Seadist" style="stroke:#A80036;stroke-width:0.9;"/><text fill="#000000" font-family="sans-serif" font-size="11.7" lengthAdjust="spacing" textLength="28.8" x="173.25" y="850.0456">has a</text><text fill="#000000" font-family="sans-serif" font-size="11.7" lengthAdjust="spacing" textLength="6.3" x="186.9037" y="816.799">2</text><text fill="#000000" font-family="sans-serif" font-size="11.7" lengthAdjust="spacing" textLength="4.5" x="151.015" y="870.5484">*</text><!--MD5=[fa4d65f953ae0f8f2ca1213e61726aa9]
link FreightNetwork to Place--><path codeLine="123" d="M767.151,521.442 C743.58,547.623 716.355,577.863 698.688,597.492 " fill="none" id="FreightNetwork-Place" style="stroke:#A80036;stroke-width:0.9;"/><text fill="#000000" font-family="sans-serif" font-size="11.7" lengthAdjust="spacing" textLength="59.4" x="744.75" y="561.1456">related with</text><text fill="#000000" font-family="sans-serif" font-size="11.7" lengthAdjust="spacing" textLength="6.3" x="755.0641" y="540.5562">1</text><text fill="#000000" font-family="sans-serif" font-size="11.7" lengthAdjust="spacing" textLength="18" x="683.1834" y="587.8705">1..*</text><!--MD5=[8019f7a40ce5be359cb5778b910e4989]
reverse link Place to Capital--><path codeLine="124" d="M649.89,654.381 C630.855,676.08 606.276,704.106 586.881,726.228 " fill="none" id="Place-backto-Capital" style="stroke:#A80036;stroke-width:0.9;"/><polygon fill="none" points="645.156,650.223,661.761,640.845,654.624,658.53,645.156,650.223" style="stroke:#A80036;stroke-width:0.9;"/><!--MD5=[c549efd5903bd57ae8426884da365cce]
reverse link Place to Ports--><path codeLine="125" d="M633.897,634.302 C541.107,662.913 333.54,726.921 251.586,752.193 " fill="none" id="Place-backto-Ports" style="stroke:#A80036;stroke-width:0.9;"/><polygon fill="none" points="632.304,628.2,651.357,628.92,636.021,640.242,632.304,628.2" style="stroke:#A80036;stroke-width:0.9;"/><!--MD5=[553c71e238892de64676e9482c62727a]
link Country to Border--><path codeLine="126" d="M838.71,979.911 C850.797,1009.188 868.239,1051.434 880.317,1080.693 " fill="none" id="Country-Border" style="stroke:#A80036;stroke-width:0.9;"/><text fill="#000000" font-family="sans-serif" font-size="11.7" lengthAdjust="spacing" textLength="28.8" x="868.95" y="1050.7456">has a</text><text fill="#000000" font-family="sans-serif" font-size="11.7" lengthAdjust="spacing" textLength="6.3" x="834.1169" y="998.7451">2</text><text fill="#000000" font-family="sans-serif" font-size="11.7" lengthAdjust="spacing" textLength="4.5" x="872.9522" y="1071.0818">*</text><!--MD5=[3d04185e7085eaaeba7ebd93b9963be0]
link PlaceLocation to Country--><path codeLine="127" d="M718.587,797.985 C741.96,830.214 777.123,878.715 800.523,910.989 " fill="none" id="PlaceLocation-Country" style="stroke:#A80036;stroke-width:0.9;"/><polygon fill="#000000" points="763.5915,848.9013,760.9543,840.7582,756.6716,843.8635,763.5915,848.9013" style="stroke:#000000;stroke-width:0.9;"/><text fill="#000000" font-family="sans-serif" font-size="11.7" lengthAdjust="spacing" textLength="46.8" x="769.05" y="850.0456">placed in</text><text fill="#000000" font-family="sans-serif" font-size="11.7" lengthAdjust="spacing" textLength="4.5" x="717.5912" y="816.799">*</text><text fill="#000000" font-family="sans-serif" font-size="11.7" lengthAdjust="spacing" textLength="6.3" x="789.3287" y="901.3682">1</text><!--MD5=[3f90a4e0e12e19ee6f3a457d358ba219]
link Place to PlaceLocation--><path codeLine="128" d="M682.047,640.845 C684.387,664.02 688.203,701.892 690.975,729.279 " fill="none" id="Place-PlaceLocation" style="stroke:#A80036;stroke-width:0.9;"/><polygon fill="#000000" points="692.102,686.8354,693.916,678.4704,688.6527,679.0017,692.102,686.8354" style="stroke:#000000;stroke-width:0.9;"/><text fill="#000000" font-family="sans-serif" font-size="11.7" lengthAdjust="spacing" textLength="51.3" x="699.75" y="687.1456">located at</text><text fill="#000000" font-family="sans-serif" font-size="11.7" lengthAdjust="spacing" textLength="6.3" x="675.4903" y="660.0601">1</text><text fill="#000000" font-family="sans-serif" font-size="11.7" lengthAdjust="spacing" textLength="6.3" x="683.5127" y="719.6743">1</text><!--MD5=[c64d6da58f6299e5b5c121a2193db5e3]
link CreateFreightNetworkController to CapitalStore--><path codeLine="129" d="M502.668,160.281 C506.925,223.461 517.455,379.944 521.613,441.801 " fill="none" id="CreateFreightNetworkController-to-CapitalStore" style="stroke:#A80036;stroke-width:0.9;stroke-dasharray:7.0,7.0;"/><polygon fill="#A80036" points="521.928,446.436,524.9638,438.1081,521.6193,441.9466,517.7808,438.6021,521.928,446.436" style="stroke:#A80036;stroke-width:0.9;"/><!--MD5=[06f151f668f74ec93f0d48e2fb4c1fb4]
link CapitalStore to Capital--><path codeLine="130" d="M525.591,490.212 C530.523,536.175 542.448,647.244 549.459,712.521 " fill="none" id="CapitalStore-to-Capital" style="stroke:#A80036;stroke-width:0.9;"/><polygon fill="#A80036" points="549.954,717.147,552.6774,708.7118,549.4782,712.6722,545.5178,709.473,549.954,717.147" style="stroke:#A80036;stroke-width:0.9;"/><text fill="#000000" font-family="sans-serif" font-size="11.7" lengthAdjust="spacing" textLength="35.1" x="543.15" y="624.1456">adopts</text><text fill="#000000" font-family="sans-serif" font-size="11.7" lengthAdjust="spacing" textLength="6.3" x="519.0694" y="509.4557">1</text><text fill="#000000" font-family="sans-serif" font-size="11.7" lengthAdjust="spacing" textLength="4.5" x="544.4938" y="707.6767">*</text><!--MD5=[5a03d6507d51d9583d52cfaf8d4720dd]
link Company to PortStore--><path codeLine="131" d="M322.065,313.767 C293.715,329.229 261.576,349.425 236.25,372.6 C213.768,393.174 194.148,422.235 181.755,442.773 " fill="none" id="Company-to-PortStore" style="stroke:#A80036;stroke-width:0.9;stroke-dasharray:7.0,7.0;"/><polygon fill="#A80036" points="179.379,446.769,186.6209,441.6577,181.6848,442.9046,180.4378,437.9685,179.379,446.769" style="stroke:#A80036;stroke-width:0.9;"/><!--MD5=[e15f965c59633fd409e7f58e3276accc]
link Company to CapitalStore--><path codeLine="132" d="M409.086,345.879 C415.008,360.702 422.433,375.885 431.55,388.8 C432.765,390.528 468.666,421.146 495.198,443.682 " fill="none" id="Company-to-CapitalStore" style="stroke:#A80036;stroke-width:0.9;stroke-dasharray:7.0,7.0;"/><polygon fill="#A80036" points="498.717,446.67,494.8777,438.6806,495.2886,443.7552,490.214,444.1661,498.717,446.67" style="stroke:#A80036;stroke-width:0.9;"/><!--MD5=[1a1e73f5a7c19fafb6bcbfc7e076e2ac]
link Company to BorderStore--><path codeLine="133" d="M458.334,283.941 C581.517,291.204 846.729,317.898 1044.45,415.8 C1058.211,422.613 1071.333,433.413 1081.728,443.385 " fill="none" id="Company-to-BorderStore" style="stroke:#A80036;stroke-width:0.9;stroke-dasharray:7.0,7.0;"/><polygon fill="#A80036" points="1085.139,446.724,1081.8568,438.4901,1081.9186,443.5809,1076.8278,443.6427,1085.139,446.724" style="stroke:#A80036;stroke-width:0.9;"/><!--MD5=[31fb6ef21b66e9cc4d1a3c34a89f0b54]
link Company to SeadistStore--><path codeLine="134" d="M322.065,309.042 C264.789,333.684 181.755,372.42 114.75,415.8 C102.159,423.954 89.253,434.322 78.489,443.637 " fill="none" id="Company-to-SeadistStore" style="stroke:#A80036;stroke-width:0.9;stroke-dasharray:7.0,7.0;"/><polygon fill="#A80036" points="74.925,446.751,83.3915,444.1264,78.3116,443.7877,78.6503,438.7078,74.925,446.751" style="stroke:#A80036;stroke-width:0.9;"/><!--MD5=[085d711e33b68197983774ae0942a0af]
@startuml
'https://plantuml.com/class-diagram

skinparam classAttributeIconSize 0



class CreateFreightNetworkUI {}

class CreateFreightNetworkController {
-createFreightNetwork(n)
}

class Company {
-designation
-getTransferFromDatabase()
-getPortStr()
-getSeadistStr()
-getCapitalStr()
-getBorderStr()
-getFreightNetwork()
}

class TransferFromDataBase {
-importPorts()
-importSeadists()
-importCountries()
-importBorders()
}

class FreightNetwork {
-addNewInformation(capitalStore,portStore,seadistStore,borderStore,n)
-linkBetweenCapitalsOfNeighboringCountries(capitalStore,borderStore);
-connectionBetweenPortsOfTheSameCountry(portStore,seadistStore);
-connectionBetweenTheCapitalAndTheNearestPort(capitalStore,portStore);
-connectionBetweenThePortAndTheNearestNPortsOfAnotherCountry(seadistStore,n,portStore);
}

class PortStore {

}

class SeadistStore {

}

class CapitalStore {

}

class BorderStore {

}

class Ports {
-identification
-name
}


class Country {
-name
-continent
}

class PlaceLocation {
-latitude
-longitude
}

class Capital{
-name
-country
-latitude
-longitude
}

class Place {

}

class Border {
-countryName1
-countryName2
}

class Seadist {
-portId1
-portId2
-seaDistance
-portName1
-portName2
-countryName1
-countryName2
}

class AdjacencyMatrixGraph {
-addEdge()

}

class Edge {

}

CreateFreightNetworkUI ..> CreateFreightNetworkController

CreateFreightNetworkController ..> Company
CreateFreightNetworkController ..> FreightNetwork

Company "1"- -"1" FreightNetwork: have >
Company ..> TransferFromDataBase
FreightNetwork ..> AdjacencyMatrixGraph
AdjacencyMatrixGraph ..> Edge
CreateFreightNetworkController ..> PortStore
CreateFreightNetworkController ..> SeadistStore
CreateFreightNetworkController ..> BorderStore
Company "1"- -"1..*" Ports: have >
PortStore "1"- -> "*" Ports : adopts
SeadistStore "1"- -> "*" Seadist : adopts
BorderStore "1"- -> "*" Border : adopts

Ports "2"- -"*" Seadist: has a
FreightNetwork "1" - - "1..*" Place : related with
Place <|- - Capital
Place <|- - Ports
Country "2" - - "*" Border : has a
PlaceLocation "*" - - "1" Country : placed in >
Place "1" - - "1" PlaceLocation : located at >
CreateFreightNetworkController ..> CapitalStore
CapitalStore "1"- -> "*" Capital : adopts
Company..> PortStore 
Company..>CapitalStore 
Company..>BorderStore 
Company..> SeadistStore 
@enduml

@startuml

skinparam classAttributeIconSize 0



class CreateFreightNetworkUI {}

class CreateFreightNetworkController {
-createFreightNetwork(n)
}

class Company {
-designation
-getTransferFromDatabase()
-getPortStr()
-getSeadistStr()
-getCapitalStr()
-getBorderStr()
-getFreightNetwork()
}

class TransferFromDataBase {
-importPorts()
-importSeadists()
-importCountries()
-importBorders()
}

class FreightNetwork {
-addNewInformation(capitalStore,portStore,seadistStore,borderStore,n)
-linkBetweenCapitalsOfNeighboringCountries(capitalStore,borderStore);
-connectionBetweenPortsOfTheSameCountry(portStore,seadistStore);
-connectionBetweenTheCapitalAndTheNearestPort(capitalStore,portStore);
-connectionBetweenThePortAndTheNearestNPortsOfAnotherCountry(seadistStore,n,portStore);
}

class PortStore {

}

class SeadistStore {

}

class CapitalStore {

}

class BorderStore {

}

class Ports {
-identification
-name
}


class Country {
-name
-continent
}

class PlaceLocation {
-latitude
-longitude
}

class Capital{
-name
-country
-latitude
-longitude
}

class Place {

}

class Border {
-countryName1
-countryName2
}

class Seadist {
-portId1
-portId2
-seaDistance
-portName1
-portName2
-countryName1
-countryName2
}

class AdjacencyMatrixGraph {
-addEdge()

}

class Edge {

}

CreateFreightNetworkUI ..> CreateFreightNetworkController

CreateFreightNetworkController ..> Company
CreateFreightNetworkController ..> FreightNetwork

Company "1"- -"1" FreightNetwork: have >
Company ..> TransferFromDataBase
FreightNetwork ..> AdjacencyMatrixGraph
AdjacencyMatrixGraph ..> Edge
CreateFreightNetworkController ..> PortStore
CreateFreightNetworkController ..> SeadistStore
CreateFreightNetworkController ..> BorderStore
Company "1"- -"1..*" Ports: have >
PortStore "1"- -> "*" Ports : adopts
SeadistStore "1"- -> "*" Seadist : adopts
BorderStore "1"- -> "*" Border : adopts

Ports "2"- -"*" Seadist: has a
FreightNetwork "1" - - "1..*" Place : related with
Place <|- - Capital
Place <|- - Ports
Country "2" - - "*" Border : has a
PlaceLocation "*" - - "1" Country : placed in >
Place "1" - - "1" PlaceLocation : located at >
CreateFreightNetworkController ..> CapitalStore
CapitalStore "1"- -> "*" Capital : adopts
Company..> PortStore 
Company..>CapitalStore 
Company..>BorderStore 
Company..> SeadistStore 
@enduml

PlantUML version 1.2021.5(Sun Apr 25 12:20:28 BST 2021)
(GPL source distribution)
Java Runtime: OpenJDK Runtime Environment
JVM: Dynamic Code Evolution 64-Bit Server VM
Default Encoding: Cp1252
Language: pt
Country: PT
--></g></svg>