<?xml version="1.0" encoding="UTF-8" standalone="no"?><svg xmlns="http://www.w3.org/2000/svg" xmlns:xlink="http://www.w3.org/1999/xlink" contentScriptType="application/ecmascript" contentStyleType="text/css" height="332px" preserveAspectRatio="none" style="width:488px;height:332px;background:#FFFFFF;" version="1.1" viewBox="0 0 488 332" width="488px" zoomAndPan="magnify"><defs><filter height="300%" id="f10al2xwdwmybt" width="300%" x="-1" y="-1"><feGaussianBlur result="blurOut" stdDeviation="2.0"/><feColorMatrix in="blurOut" result="blurOut2" type="matrix" values="0 0 0 0 0 0 0 0 0 0 0 0 0 0 0 0 0 0 .4 0"/><feOffset dx="4.0" dy="4.0" in="blurOut2" result="blurOut3"/><feBlend in="SourceGraphic" in2="blurOut3" mode="normal"/></filter></defs><g><rect fill="#FFFFFF" filter="url(#f10al2xwdwmybt)" height="138.7578" style="stroke:#A80036;stroke-width:1.0;" width="10" x="53" y="99.6094"/><rect fill="#FFFFFF" filter="url(#f10al2xwdwmybt)" height="46.7031" style="stroke:#A80036;stroke-width:1.0;" width="10" x="441" y="121.9609"/><rect fill="#FFFFFF" filter="url(#f10al2xwdwmybt)" height="30.3516" style="stroke:#A80036;stroke-width:1.0;" width="10" x="441" y="199.0156"/><line style="stroke:#A80036;stroke-width:1.0;stroke-dasharray:5.0,5.0;" x1="58" x2="58" y1="89.6094" y2="247.3672"/><line style="stroke:#A80036;stroke-width:1.0;stroke-dasharray:5.0,5.0;" x1="446" x2="446" y1="89.6094" y2="247.3672"/><text fill="#000000" font-family="sans-serif" font-size="14" lengthAdjust="spacing" textLength="100" x="5" y="86.5332">Traffic manager</text><ellipse cx="58" cy="15" fill="#FEFECE" filter="url(#f10al2xwdwmybt)" rx="8" ry="8" style="stroke:#A80036;stroke-width:2.0;"/><path d="M58,23 L58,50 M45,31 L71,31 M58,50 L45,65 M58,50 L71,65 " fill="none" filter="url(#f10al2xwdwmybt)" style="stroke:#A80036;stroke-width:2.0;"/><text fill="#000000" font-family="sans-serif" font-size="14" lengthAdjust="spacing" textLength="100" x="5" y="260.9004">Traffic manager</text><ellipse cx="58" cy="273.9766" fill="#FEFECE" filter="url(#f10al2xwdwmybt)" rx="8" ry="8" style="stroke:#A80036;stroke-width:2.0;"/><path d="M58,281.9766 L58,308.9766 M45,289.9766 L71,289.9766 M58,308.9766 L45,323.9766 M58,308.9766 L71,323.9766 " fill="none" filter="url(#f10al2xwdwmybt)" style="stroke:#A80036;stroke-width:2.0;"/><rect fill="#FEFECE" filter="url(#f10al2xwdwmybt)" height="31.6094" style="stroke:#A80036;stroke-width:1.5;" width="60" x="414" y="53"/><text fill="#000000" font-family="sans-serif" font-size="14" lengthAdjust="spacing" textLength="46" x="421" y="74.5332">System</text><rect fill="#FEFECE" filter="url(#f10al2xwdwmybt)" height="31.6094" style="stroke:#A80036;stroke-width:1.5;" width="60" x="414" y="246.3672"/><text fill="#000000" font-family="sans-serif" font-size="14" lengthAdjust="spacing" textLength="46" x="421" y="267.9004">System</text><rect fill="#FFFFFF" filter="url(#f10al2xwdwmybt)" height="138.7578" style="stroke:#A80036;stroke-width:1.0;" width="10" x="53" y="99.6094"/><rect fill="#FFFFFF" filter="url(#f10al2xwdwmybt)" height="46.7031" style="stroke:#A80036;stroke-width:1.0;" width="10" x="441" y="121.9609"/><rect fill="#FFFFFF" filter="url(#f10al2xwdwmybt)" height="30.3516" style="stroke:#A80036;stroke-width:1.0;" width="10" x="441" y="199.0156"/><polygon fill="#A80036" points="429,117.9609,439,121.9609,429,125.9609,433,121.9609" style="stroke:#A80036;stroke-width:1.0;"/><line style="stroke:#A80036;stroke-width:1.0;" x1="63" x2="435" y1="121.9609" y2="121.9609"/><text fill="#000000" font-family="sans-serif" font-size="13" font-weight="bold" lengthAdjust="spacing" textLength="7" x="70" y="117.1045">1</text><text fill="#000000" font-family="sans-serif" font-size="13" lengthAdjust="spacing" textLength="222" x="81" y="117.1045">Import ships from a text file into a BST</text><polygon fill="#A80036" points="74,164.6641,64,168.6641,74,172.6641,70,168.6641" style="stroke:#A80036;stroke-width:1.0;"/><line style="stroke:#A80036;stroke-width:1.0;stroke-dasharray:2.0,2.0;" x1="68" x2="445" y1="168.6641" y2="168.6641"/><text fill="#000000" font-family="sans-serif" font-size="13" font-weight="bold" lengthAdjust="spacing" textLength="7" x="80" y="155.6318">2</text><text fill="#000000" font-family="sans-serif" font-size="13" lengthAdjust="spacing" textLength="196" x="91" y="147.4561">Requests the name of the .csv file</text><text fill="#000000" font-family="sans-serif" font-size="13" lengthAdjust="spacing" textLength="110" x="95" y="163.8076">containing the data</text><polygon fill="#A80036" points="429,195.0156,439,199.0156,429,203.0156,433,199.0156" style="stroke:#A80036;stroke-width:1.0;"/><line style="stroke:#A80036;stroke-width:1.0;" x1="63" x2="435" y1="199.0156" y2="199.0156"/><text fill="#000000" font-family="sans-serif" font-size="13" font-weight="bold" lengthAdjust="spacing" textLength="7" x="70" y="194.1592">3</text><text fill="#000000" font-family="sans-serif" font-size="13" lengthAdjust="spacing" textLength="95" x="81" y="194.1592">Inserts file name</text><polygon fill="#A80036" points="74,225.3672,64,229.3672,74,233.3672,70,229.3672" style="stroke:#A80036;stroke-width:1.0;"/><line style="stroke:#A80036;stroke-width:1.0;stroke-dasharray:2.0,2.0;" x1="68" x2="445" y1="229.3672" y2="229.3672"/><text fill="#000000" font-family="sans-serif" font-size="13" font-weight="bold" lengthAdjust="spacing" textLength="7" x="80" y="224.5107">4</text><text fill="#000000" font-family="sans-serif" font-size="13" lengthAdjust="spacing" textLength="343" x="91" y="224.5107">Displays the number of ships which have not been imported</text><!--MD5=[7a988f5cee48838acfef22ba554ac73f]
@startuml
autonumber

actor "Traffic manager" as manager
participant "System" as system
activate manager

manager -> system ++: Import ships from a text file into a BST

system - -> manager - -: Requests the name of the .csv file\n containing the data

manager -> system ++: Inserts file name

system - -> manager - -: Displays the number of ships which have not been imported


@enduml

PlantUML version 1.2021.11(Sat Oct 02 14:26:11 BST 2021)
(GPL source distribution)
Java Runtime: OpenJDK Runtime Environment
JVM: OpenJDK 64-Bit Server VM
Default Encoding: Cp1252
Language: pt
Country: PT
--></g></svg>