<?xml version="1.0" encoding="UTF-8" standalone="no"?><svg xmlns="http://www.w3.org/2000/svg" xmlns:xlink="http://www.w3.org/1999/xlink" contentScriptType="application/ecmascript" contentStyleType="text/css" height="1114px" preserveAspectRatio="none" style="width:1951px;height:1114px;background:#FFFFFF;" version="1.1" viewBox="0 0 1951 1114" width="1951px" zoomAndPan="magnify"><defs><filter height="300%" id="f19c3mbxx3cxp" width="300%" x="-1" y="-1"><feGaussianBlur result="blurOut" stdDeviation="2.0"/><feColorMatrix in="blurOut" result="blurOut2" type="matrix" values="0 0 0 0 0 0 0 0 0 0 0 0 0 0 0 0 0 0 .4 0"/><feOffset dx="4.0" dy="4.0" in="blurOut2" result="blurOut3"/><feBlend in="SourceGraphic" in2="blurOut3" mode="normal"/></filter></defs><g><rect fill="#FFFFFF" filter="url(#f19c3mbxx3cxp)" height="919.9219" style="stroke:#A80036;stroke-width:1.0;" width="10" x="68" y="99.6094"/><rect fill="#FFFFFF" filter="url(#f19c3mbxx3cxp)" height="30.3516" style="stroke:#A80036;stroke-width:1.0;" width="10" x="463" y="121.9609"/><rect fill="#FFFFFF" filter="url(#f19c3mbxx3cxp)" height="836.8672" style="stroke:#A80036;stroke-width:1.0;" width="10" x="463" y="182.6641"/><rect fill="#FFFFFF" filter="url(#f19c3mbxx3cxp)" height="60.3516" style="stroke:#A80036;stroke-width:1.0;" width="10" x="623" y="213.0156"/><rect fill="#FFFFFF" filter="url(#f19c3mbxx3cxp)" height="676.4609" style="stroke:#A80036;stroke-width:1.0;" width="10" x="623" y="303.7188"/><rect fill="#FFFFFF" filter="url(#f19c3mbxx3cxp)" height="30" style="stroke:#A80036;stroke-width:1.0;" width="10" x="869" y="243.3672"/><rect fill="#FFFFFF" filter="url(#f19c3mbxx3cxp)" height="615.7578" style="stroke:#A80036;stroke-width:1.0;" width="10" x="869" y="334.0703"/><rect fill="#FFFFFF" filter="url(#f19c3mbxx3cxp)" height="28" style="stroke:#A80036;stroke-width:1.0;" width="10" x="874" y="397.7734"/><rect fill="#FFFFFF" filter="url(#f19c3mbxx3cxp)" height="441.3516" style="stroke:#A80036;stroke-width:1.0;" width="10" x="874" y="471.125"/><rect fill="#FFFFFF" filter="url(#f19c3mbxx3cxp)" height="30" style="stroke:#A80036;stroke-width:1.0;" width="10" x="1462" y="822.125"/><rect fill="#FFFFFF" filter="url(#f19c3mbxx3cxp)" height="30" style="stroke:#A80036;stroke-width:1.0;" width="10" x="1547.5" y="553.1797"/><rect fill="#FFFFFF" filter="url(#f19c3mbxx3cxp)" height="30" style="stroke:#A80036;stroke-width:1.0;" width="10" x="1630.5" y="613.5313"/><rect fill="#FFFFFF" filter="url(#f19c3mbxx3cxp)" height="30" style="stroke:#A80036;stroke-width:1.0;" width="10" x="1630.5" y="745.9375"/><rect fill="#FFFFFF" filter="url(#f19c3mbxx3cxp)" height="30" style="stroke:#A80036;stroke-width:1.0;" width="10" x="1799" y="882.4766"/><rect fill="#FFFFFF" filter="url(#f19c3mbxx3cxp)" height="261.9453" style="stroke:#000000;stroke-width:2.0;" width="1117.5" x="819.5" y="658.5313"/><rect fill="#FFFFFF" height="136.5391" style="stroke:none;stroke-width:1.0;" width="1117.5" x="819.5" y="783.9375"/><line style="stroke:#A80036;stroke-width:1.0;stroke-dasharray:5.0,5.0;" x1="73" x2="73" y1="89.6094" y2="1028.5313"/><line style="stroke:#A80036;stroke-width:1.0;stroke-dasharray:5.0,5.0;" x1="467.5" x2="467.5" y1="89.6094" y2="1028.5313"/><line style="stroke:#A80036;stroke-width:1.0;stroke-dasharray:5.0,5.0;" x1="627.5" x2="627.5" y1="89.6094" y2="1028.5313"/><line style="stroke:#A80036;stroke-width:1.0;stroke-dasharray:5.0,5.0;" x1="873.5" x2="873.5" y1="89.6094" y2="1028.5313"/><line style="stroke:#A80036;stroke-width:1.0;stroke-dasharray:5.0,5.0;" x1="1327" x2="1327" y1="517.4766" y2="1028.5313"/><line style="stroke:#A80036;stroke-width:1.0;stroke-dasharray:5.0,5.0;" x1="1467" x2="1467" y1="710.2344" y2="1028.5313"/><line style="stroke:#A80036;stroke-width:1.0;stroke-dasharray:5.0,5.0;" x1="1552" x2="1552" y1="89.6094" y2="1028.5313"/><line style="stroke:#A80036;stroke-width:1.0;stroke-dasharray:5.0,5.0;" x1="1635" x2="1635" y1="89.6094" y2="1028.5313"/><line style="stroke:#A80036;stroke-width:1.0;stroke-dasharray:5.0,5.0;" x1="1804" x2="1804" y1="89.6094" y2="1028.5313"/><text fill="#000000" font-family="sans-serif" font-size="14" lengthAdjust="spacing" textLength="100" x="20" y="86.5332">Traffic Manager</text><ellipse cx="73" cy="15" fill="#FEFECE" filter="url(#f19c3mbxx3cxp)" rx="8" ry="8" style="stroke:#A80036;stroke-width:2.0;"/><path d="M73,23 L73,50 M60,31 L86,31 M73,50 L60,65 M73,50 L86,65 " fill="none" filter="url(#f19c3mbxx3cxp)" style="stroke:#A80036;stroke-width:2.0;"/><text fill="#000000" font-family="sans-serif" font-size="14" lengthAdjust="spacing" textLength="100" x="20" y="1042.0645">Traffic Manager</text><ellipse cx="73" cy="1055.1406" fill="#FEFECE" filter="url(#f19c3mbxx3cxp)" rx="8" ry="8" style="stroke:#A80036;stroke-width:2.0;"/><path d="M73,1063.1406 L73,1090.1406 M60,1071.1406 L86,1071.1406 M73,1090.1406 L60,1105.1406 M73,1090.1406 L86,1105.1406 " fill="none" filter="url(#f19c3mbxx3cxp)" style="stroke:#A80036;stroke-width:2.0;"/><rect fill="#FEFECE" filter="url(#f19c3mbxx3cxp)" height="31.6094" style="stroke:#A80036;stroke-width:1.5;" width="97" x="417.5" y="53"/><text fill="#000000" font-family="sans-serif" font-size="14" lengthAdjust="spacing" textLength="83" x="424.5" y="74.5332">:ImportShipUI</text><rect fill="#FEFECE" filter="url(#f19c3mbxx3cxp)" height="31.6094" style="stroke:#A80036;stroke-width:1.5;" width="97" x="417.5" y="1027.5313"/><text fill="#000000" font-family="sans-serif" font-size="14" lengthAdjust="spacing" textLength="83" x="424.5" y="1049.0645">:ImportShipUI</text><rect fill="#FEFECE" filter="url(#f19c3mbxx3cxp)" height="31.6094" style="stroke:#A80036;stroke-width:1.5;" width="147" x="552.5" y="53"/><text fill="#000000" font-family="sans-serif" font-size="14" lengthAdjust="spacing" textLength="133" x="559.5" y="74.5332">:ImportShipController</text><rect fill="#FEFECE" filter="url(#f19c3mbxx3cxp)" height="31.6094" style="stroke:#A80036;stroke-width:1.5;" width="147" x="552.5" y="1027.5313"/><text fill="#000000" font-family="sans-serif" font-size="14" lengthAdjust="spacing" textLength="133" x="559.5" y="1049.0645">:ImportShipController</text><rect fill="#FEFECE" filter="url(#f19c3mbxx3cxp)" height="31.6094" style="stroke:#A80036;stroke-width:1.5;" width="85" x="829.5" y="53"/><text fill="#000000" font-family="sans-serif" font-size="14" lengthAdjust="spacing" textLength="71" x="836.5" y="74.5332">:ImportShip</text><rect fill="#FEFECE" filter="url(#f19c3mbxx3cxp)" height="31.6094" style="stroke:#A80036;stroke-width:1.5;" width="85" x="829.5" y="1027.5313"/><text fill="#000000" font-family="sans-serif" font-size="14" lengthAdjust="spacing" textLength="71" x="836.5" y="1049.0645">:ImportShip</text><rect fill="#FEFECE" filter="url(#f19c3mbxx3cxp)" height="31.6094" style="stroke:#A80036;stroke-width:1.5;" width="180" x="1235" y="1027.5313"/><text fill="#000000" font-family="sans-serif" font-size="14" lengthAdjust="spacing" textLength="166" x="1242" y="1049.0645">shipLocation:ShipLocation</text><rect fill="#FEFECE" filter="url(#f19c3mbxx3cxp)" height="31.6094" style="stroke:#A80036;stroke-width:1.5;" width="72" x="1429" y="1027.5313"/><text fill="#000000" font-family="sans-serif" font-size="14" lengthAdjust="spacing" textLength="58" x="1436" y="1049.0645">ship:Ship</text><rect fill="#FEFECE" filter="url(#f19c3mbxx3cxp)" height="31.6094" style="stroke:#A80036;stroke-width:1.5;" width="71" x="1515" y="53"/><text fill="#000000" font-family="sans-serif" font-size="14" lengthAdjust="spacing" textLength="57" x="1522" y="74.5332">company</text><rect fill="#FEFECE" filter="url(#f19c3mbxx3cxp)" height="31.6094" style="stroke:#A80036;stroke-width:1.5;" width="71" x="1515" y="1027.5313"/><text fill="#000000" font-family="sans-serif" font-size="14" lengthAdjust="spacing" textLength="57" x="1522" y="1049.0645">company</text><rect fill="#FEFECE" filter="url(#f19c3mbxx3cxp)" height="31.6094" style="stroke:#A80036;stroke-width:1.5;" width="67" x="1600" y="53"/><text fill="#000000" font-family="sans-serif" font-size="14" lengthAdjust="spacing" textLength="53" x="1607" y="74.5332">shipBST</text><rect fill="#FEFECE" filter="url(#f19c3mbxx3cxp)" height="31.6094" style="stroke:#A80036;stroke-width:1.5;" width="67" x="1600" y="1027.5313"/><text fill="#000000" font-family="sans-serif" font-size="14" lengthAdjust="spacing" textLength="53" x="1607" y="1049.0645">shipBST</text><rect fill="#FEFECE" filter="url(#f19c3mbxx3cxp)" height="31.6094" style="stroke:#A80036;stroke-width:1.5;" width="242" x="1681" y="53"/><text fill="#000000" font-family="sans-serif" font-size="14" lengthAdjust="spacing" textLength="228" x="1688" y="74.5332">shipLocationBST : ShipLocationBST</text><rect fill="#FEFECE" filter="url(#f19c3mbxx3cxp)" height="31.6094" style="stroke:#A80036;stroke-width:1.5;" width="242" x="1681" y="1027.5313"/><text fill="#000000" font-family="sans-serif" font-size="14" lengthAdjust="spacing" textLength="228" x="1688" y="1049.0645">shipLocationBST : ShipLocationBST</text><rect fill="#FFFFFF" filter="url(#f19c3mbxx3cxp)" height="919.9219" style="stroke:#A80036;stroke-width:1.0;" width="10" x="68" y="99.6094"/><rect fill="#FFFFFF" filter="url(#f19c3mbxx3cxp)" height="30.3516" style="stroke:#A80036;stroke-width:1.0;" width="10" x="463" y="121.9609"/><rect fill="#FFFFFF" filter="url(#f19c3mbxx3cxp)" height="836.8672" style="stroke:#A80036;stroke-width:1.0;" width="10" x="463" y="182.6641"/><rect fill="#FFFFFF" filter="url(#f19c3mbxx3cxp)" height="60.3516" style="stroke:#A80036;stroke-width:1.0;" width="10" x="623" y="213.0156"/><rect fill="#FFFFFF" filter="url(#f19c3mbxx3cxp)" height="676.4609" style="stroke:#A80036;stroke-width:1.0;" width="10" x="623" y="303.7188"/><rect fill="#FFFFFF" filter="url(#f19c3mbxx3cxp)" height="30" style="stroke:#A80036;stroke-width:1.0;" width="10" x="869" y="243.3672"/><rect fill="#FFFFFF" filter="url(#f19c3mbxx3cxp)" height="615.7578" style="stroke:#A80036;stroke-width:1.0;" width="10" x="869" y="334.0703"/><rect fill="#FFFFFF" filter="url(#f19c3mbxx3cxp)" height="28" style="stroke:#A80036;stroke-width:1.0;" width="10" x="874" y="397.7734"/><rect fill="#FFFFFF" filter="url(#f19c3mbxx3cxp)" height="441.3516" style="stroke:#A80036;stroke-width:1.0;" width="10" x="874" y="471.125"/><rect fill="#FFFFFF" filter="url(#f19c3mbxx3cxp)" height="30" style="stroke:#A80036;stroke-width:1.0;" width="10" x="1462" y="822.125"/><rect fill="#FFFFFF" filter="url(#f19c3mbxx3cxp)" height="30" style="stroke:#A80036;stroke-width:1.0;" width="10" x="1547.5" y="553.1797"/><rect fill="#FFFFFF" filter="url(#f19c3mbxx3cxp)" height="30" style="stroke:#A80036;stroke-width:1.0;" width="10" x="1630.5" y="613.5313"/><rect fill="#FFFFFF" filter="url(#f19c3mbxx3cxp)" height="30" style="stroke:#A80036;stroke-width:1.0;" width="10" x="1630.5" y="745.9375"/><rect fill="#FFFFFF" filter="url(#f19c3mbxx3cxp)" height="30" style="stroke:#A80036;stroke-width:1.0;" width="10" x="1799" y="882.4766"/><polygon fill="#A80036" points="451,117.9609,461,121.9609,451,125.9609,455,121.9609" style="stroke:#A80036;stroke-width:1.0;"/><line style="stroke:#A80036;stroke-width:1.0;" x1="78" x2="457" y1="121.9609" y2="121.9609"/><text fill="#000000" font-family="sans-serif" font-size="13" font-weight="bold" lengthAdjust="spacing" textLength="7" x="85" y="117.1045">1</text><text fill="#000000" font-family="sans-serif" font-size="13" lengthAdjust="spacing" textLength="222" x="96" y="117.1045">import ships from a text file into a BST</text><polygon fill="#A80036" points="89,148.3125,79,152.3125,89,156.3125,85,152.3125" style="stroke:#A80036;stroke-width:1.0;"/><line style="stroke:#A80036;stroke-width:1.0;stroke-dasharray:2.0,2.0;" x1="83" x2="467" y1="152.3125" y2="152.3125"/><text fill="#000000" font-family="sans-serif" font-size="13" font-weight="bold" lengthAdjust="spacing" textLength="7" x="95" y="147.4561">2</text><text fill="#000000" font-family="sans-serif" font-size="13" lengthAdjust="spacing" textLength="305" x="106" y="147.4561">requests the name of the .csv file containing the data</text><polygon fill="#A80036" points="451,178.6641,461,182.6641,451,186.6641,455,182.6641" style="stroke:#A80036;stroke-width:1.0;"/><line style="stroke:#A80036;stroke-width:1.0;" x1="78" x2="457" y1="182.6641" y2="182.6641"/><text fill="#000000" font-family="sans-serif" font-size="13" font-weight="bold" lengthAdjust="spacing" textLength="7" x="85" y="177.8076">3</text><text fill="#000000" font-family="sans-serif" font-size="13" lengthAdjust="spacing" textLength="95" x="96" y="177.8076">inserts file name</text><polygon fill="#A80036" points="611,209.0156,621,213.0156,611,217.0156,615,213.0156" style="stroke:#A80036;stroke-width:1.0;"/><line style="stroke:#A80036;stroke-width:1.0;" x1="473" x2="617" y1="213.0156" y2="213.0156"/><text fill="#000000" font-family="sans-serif" font-size="13" font-weight="bold" lengthAdjust="spacing" textLength="7" x="480" y="208.1592">4</text><text fill="#000000" font-family="sans-serif" font-size="13" lengthAdjust="spacing" textLength="115" x="491" y="208.1592">importFile(fileName)</text><polygon fill="#A80036" points="857,239.3672,867,243.3672,857,247.3672,861,243.3672" style="stroke:#A80036;stroke-width:1.0;"/><line style="stroke:#A80036;stroke-width:1.0;" x1="633" x2="863" y1="243.3672" y2="243.3672"/><text fill="#000000" font-family="sans-serif" font-size="13" font-weight="bold" lengthAdjust="spacing" textLength="7" x="640" y="238.5107">5</text><text fill="#000000" font-family="sans-serif" font-size="13" lengthAdjust="spacing" textLength="97" x="651" y="238.5107">getFile(fileName)</text><polygon fill="#A80036" points="611,299.7188,621,303.7188,611,307.7188,615,303.7188" style="stroke:#A80036;stroke-width:1.0;"/><line style="stroke:#A80036;stroke-width:1.0;" x1="473" x2="617" y1="303.7188" y2="303.7188"/><text fill="#000000" font-family="sans-serif" font-size="13" font-weight="bold" lengthAdjust="spacing" textLength="7" x="480" y="298.8623">6</text><text fill="#000000" font-family="sans-serif" font-size="13" lengthAdjust="spacing" textLength="77" x="491" y="298.8623">importShips()</text><polygon fill="#A80036" points="857,330.0703,867,334.0703,857,338.0703,861,334.0703" style="stroke:#A80036;stroke-width:1.0;"/><line style="stroke:#A80036;stroke-width:1.0;" x1="633" x2="863" y1="334.0703" y2="334.0703"/><text fill="#000000" font-family="sans-serif" font-size="13" font-weight="bold" lengthAdjust="spacing" textLength="7" x="640" y="329.2139">7</text><text fill="#000000" font-family="sans-serif" font-size="13" lengthAdjust="spacing" textLength="206" x="651" y="329.2139">shipsNotConverted = convertShips()</text><line style="stroke:#A80036;stroke-width:1.0;" x1="884" x2="926" y1="389.7734" y2="389.7734"/><line style="stroke:#A80036;stroke-width:1.0;" x1="926" x2="926" y1="389.7734" y2="402.7734"/><line style="stroke:#A80036;stroke-width:1.0;" x1="885" x2="926" y1="402.7734" y2="402.7734"/><polygon fill="#A80036" points="895,398.7734,885,402.7734,895,406.7734,891,402.7734" style="stroke:#A80036;stroke-width:1.0;"/><text fill="#000000" font-family="sans-serif" font-size="13" font-weight="bold" lengthAdjust="spacing" textLength="7" x="891" y="384.917">8</text><text fill="#000000" font-family="sans-serif" font-size="13" lengthAdjust="spacing" textLength="200" x="902" y="384.917">shipArray = getLineArray(shipLine)</text><line style="stroke:#A80036;stroke-width:1.0;" x1="879" x2="926" y1="458.125" y2="458.125"/><line style="stroke:#A80036;stroke-width:1.0;" x1="926" x2="926" y1="458.125" y2="471.125"/><line style="stroke:#A80036;stroke-width:1.0;" x1="885" x2="926" y1="471.125" y2="471.125"/><polygon fill="#A80036" points="895,467.125,885,471.125,895,475.125,891,471.125" style="stroke:#A80036;stroke-width:1.0;"/><text fill="#000000" font-family="sans-serif" font-size="13" font-weight="bold" lengthAdjust="spacing" textLength="7" x="891" y="453.2686">9</text><text fill="#000000" font-family="sans-serif" font-size="13" lengthAdjust="spacing" textLength="249" x="902" y="453.2686">shipsNotConverted = createShip(shipArray)</text><polygon fill="#A80036" points="1223,518.8281,1233,522.8281,1223,526.8281,1227,522.8281" style="stroke:#A80036;stroke-width:1.0;"/><line style="stroke:#A80036;stroke-width:1.0;stroke-dasharray:2.0,2.0;" x1="884" x2="1229" y1="522.8281" y2="522.8281"/><text fill="#000000" font-family="sans-serif" font-size="13" font-weight="bold" lengthAdjust="spacing" textLength="14" x="891" y="509.7959">10</text><text fill="#000000" font-family="sans-serif" font-size="13" lengthAdjust="spacing" textLength="309" x="909" y="501.6201">create(messageTime, latitude, longitude, SOG, COG,</text><text fill="#000000" font-family="sans-serif" font-size="13" lengthAdjust="spacing" textLength="205" x="913" y="517.9717">heading, position, transceiverClass)</text><rect fill="#FEFECE" filter="url(#f19c3mbxx3cxp)" height="31.6094" style="stroke:#A80036;stroke-width:1.5;" width="180" x="1235" y="484.2188"/><text fill="#000000" font-family="sans-serif" font-size="14" lengthAdjust="spacing" textLength="166" x="1242" y="505.752">shipLocation:ShipLocation</text><polygon fill="#A80036" points="1535.5,549.1797,1545.5,553.1797,1535.5,557.1797,1539.5,553.1797" style="stroke:#A80036;stroke-width:1.0;"/><line style="stroke:#A80036;stroke-width:1.0;" x1="884" x2="1541.5" y1="553.1797" y2="553.1797"/><text fill="#000000" font-family="sans-serif" font-size="13" font-weight="bold" lengthAdjust="spacing" textLength="14" x="891" y="548.3232">11</text><text fill="#000000" font-family="sans-serif" font-size="13" lengthAdjust="spacing" textLength="137" x="909" y="548.3232">shipBST = getBstShip()</text><polygon fill="#A80036" points="1618.5,609.5313,1628.5,613.5313,1618.5,617.5313,1622.5,613.5313" style="stroke:#A80036;stroke-width:1.0;"/><line style="stroke:#A80036;stroke-width:1.0;" x1="884" x2="1624.5" y1="613.5313" y2="613.5313"/><text fill="#000000" font-family="sans-serif" font-size="13" font-weight="bold" lengthAdjust="spacing" textLength="14" x="891" y="608.6748">12</text><text fill="#000000" font-family="sans-serif" font-size="13" lengthAdjust="spacing" textLength="229" x="909" y="608.6748">newShip = getShipByMmsiCode(MMSI)</text><path d="M819.5,658.5313 L880.5,658.5313 L880.5,666.5313 L870.5,676.5313 L819.5,676.5313 L819.5,658.5313 " fill="#EEEEEE" style="stroke:#000000;stroke-width:1.0;"/><rect fill="none" height="261.9453" style="stroke:#000000;stroke-width:2.0;" width="1117.5" x="819.5" y="658.5313"/><text fill="#000000" font-family="sans-serif" font-size="13" font-weight="bold" lengthAdjust="spacing" textLength="16" x="834.5" y="673.0264">alt</text><text fill="#000000" font-family="sans-serif" font-size="11" font-weight="bold" lengthAdjust="spacing" textLength="339" x="895.5" y="671.9502">[newShip does not exist in the Company Ship Tree (shipBST)]</text><polygon fill="#A80036" points="1417,711.5859,1427,715.5859,1417,719.5859,1421,715.5859" style="stroke:#A80036;stroke-width:1.0;"/><line style="stroke:#A80036;stroke-width:1.0;stroke-dasharray:2.0,2.0;" x1="884" x2="1423" y1="715.5859" y2="715.5859"/><text fill="#000000" font-family="sans-serif" font-size="13" font-weight="bold" lengthAdjust="spacing" textLength="14" x="891" y="702.5537">13</text><text fill="#000000" font-family="sans-serif" font-size="13" lengthAdjust="spacing" textLength="374" x="909" y="694.3779">create(MMSI, name, shipID, energyGenerators, generatorOutput,</text><text fill="#000000" font-family="sans-serif" font-size="13" lengthAdjust="spacing" textLength="374" x="913" y="710.7295">callSign, vesselType, length, width, capacity, draft, shipLocation)</text><rect fill="#FEFECE" filter="url(#f19c3mbxx3cxp)" height="31.6094" style="stroke:#A80036;stroke-width:1.5;" width="72" x="1429" y="676.9766"/><text fill="#000000" font-family="sans-serif" font-size="14" lengthAdjust="spacing" textLength="58" x="1436" y="698.5098">ship:Ship</text><polygon fill="#A80036" points="1618.5,741.9375,1628.5,745.9375,1618.5,749.9375,1622.5,745.9375" style="stroke:#A80036;stroke-width:1.0;"/><line style="stroke:#A80036;stroke-width:1.0;" x1="884" x2="1624.5" y1="745.9375" y2="745.9375"/><text fill="#000000" font-family="sans-serif" font-size="13" font-weight="bold" lengthAdjust="spacing" textLength="14" x="891" y="741.0811">14</text><text fill="#000000" font-family="sans-serif" font-size="13" lengthAdjust="spacing" textLength="64" x="909" y="741.0811">insert(ship)</text><line style="stroke:#000000;stroke-width:1.0;stroke-dasharray:2.0,2.0;" x1="819.5" x2="1937" y1="784.9375" y2="784.9375"/><text fill="#000000" font-family="sans-serif" font-size="11" font-weight="bold" lengthAdjust="spacing" textLength="214" x="824.5" y="796.3564">[Ship exists in the Company Ship Tree]</text><polygon fill="#A80036" points="1450,818.125,1460,822.125,1450,826.125,1454,822.125" style="stroke:#A80036;stroke-width:1.0;"/><line style="stroke:#A80036;stroke-width:1.0;" x1="884" x2="1456" y1="822.125" y2="822.125"/><text fill="#000000" font-family="sans-serif" font-size="13" font-weight="bold" lengthAdjust="spacing" textLength="14" x="891" y="817.2686">15</text><text fill="#000000" font-family="sans-serif" font-size="13" lengthAdjust="spacing" textLength="213" x="909" y="817.2686">shipLocationBST = getShipPosition()</text><polygon fill="#A80036" points="1787,878.4766,1797,882.4766,1787,886.4766,1791,882.4766" style="stroke:#A80036;stroke-width:1.0;"/><line style="stroke:#A80036;stroke-width:1.0;" x1="884" x2="1793" y1="882.4766" y2="882.4766"/><text fill="#000000" font-family="sans-serif" font-size="13" font-weight="bold" lengthAdjust="spacing" textLength="14" x="891" y="877.6201">16</text><text fill="#000000" font-family="sans-serif" font-size="13" lengthAdjust="spacing" textLength="113" x="909" y="877.6201">insert(shipLocation)</text><polygon fill="#A80036" points="644,945.8281,634,949.8281,644,953.8281,640,949.8281" style="stroke:#A80036;stroke-width:1.0;"/><line style="stroke:#A80036;stroke-width:1.0;stroke-dasharray:2.0,2.0;" x1="638" x2="873" y1="949.8281" y2="949.8281"/><text fill="#000000" font-family="sans-serif" font-size="13" font-weight="bold" lengthAdjust="spacing" textLength="14" x="650" y="944.9717">17</text><text fill="#000000" font-family="sans-serif" font-size="13" lengthAdjust="spacing" textLength="108" x="668" y="944.9717">shipsNotConverted</text><polygon fill="#A80036" points="484,976.1797,474,980.1797,484,984.1797,480,980.1797" style="stroke:#A80036;stroke-width:1.0;"/><line style="stroke:#A80036;stroke-width:1.0;stroke-dasharray:2.0,2.0;" x1="478" x2="627" y1="980.1797" y2="980.1797"/><text fill="#000000" font-family="sans-serif" font-size="13" font-weight="bold" lengthAdjust="spacing" textLength="14" x="490" y="975.3232">18</text><text fill="#000000" font-family="sans-serif" font-size="13" lengthAdjust="spacing" textLength="108" x="508" y="975.3232">shipsNotConverted</text><polygon fill="#A80036" points="89,1006.5313,79,1010.5313,89,1014.5313,85,1010.5313" style="stroke:#A80036;stroke-width:1.0;"/><line style="stroke:#A80036;stroke-width:1.0;" x1="83" x2="462" y1="1010.5313" y2="1010.5313"/><text fill="#000000" font-family="sans-serif" font-size="13" font-weight="bold" lengthAdjust="spacing" textLength="14" x="95" y="1005.6748">19</text><text fill="#000000" font-family="sans-serif" font-size="13" lengthAdjust="spacing" textLength="343" x="113" y="1005.6748">Displays the number of ships which have not been imported</text><!--MD5=[67551eda66fac8b0f6e6f605f4b49791]
@startuml

autonumber
actor "Traffic Manager" as manager

participant ":ImportShipUI" as ui
participant ":ImportShipController" as controller
participant ":ImportShip" as importShip
participant "shipLocation:ShipLocation" as shipLocation
participant "ship:Ship" as ship


activate manager
manager -> ui : import ships from a text file into a BST


activate ui
ui - -> manager : requests the name of the .csv file containing the data


deactivate ui


manager -> ui : inserts file name


activate ui


ui -> controller : importFile(fileName)
activate controller


controller -> importShip : getFile(fileName)
activate importShip


deactivate importShip
deactivate controller


ui -> controller : importShips()
activate controller


controller -> importShip : shipsNotConverted = convertShips()
activate importShip


loop for each line on the file


importShip -> importShip ++: shipArray = getLineArray(shipLine)
deactivate importShip


importShip -> importShip ++: shipsNotConverted = createShip(shipArray)


create shipLocation
importShip - -> shipLocation: create(messageTime, latitude, longitude, SOG, COG,\n heading, position, transceiverClass)

importShip -> company : shipBST = getBstShip()
activate company
deactivate company

importShip -> shipBST : newShip = getShipByMmsiCode(MMSI)
activate shipBST
deactivate shipBST

alt newShip does not exist in the Company Ship Tree (shipBST)

create ship
importShip - -> ship: create(MMSI, name, shipID, energyGenerators, generatorOutput,\n callSign, vesselType, length, width, capacity, draft, shipLocation)


participant ":Company" as company
participant "shipBST:ShipBST" as shipBST


importShip -> shipBST : insert(ship)
activate shipBST
deactivate shipBST

else Ship exists in the Company Ship Tree

participant "shipLocationBST : ShipLocationBST" as shipLocationBST

importShip -> ship : shipLocationBST = getShipPosition()
activate ship
deactivate ship

importShip -> shipLocationBST : insert(shipLocation)
activate shipLocationBST
deactivate shipLocationBST

deactivate importShip
end


importShip - -> controller : shipsNotConverted
deactivate importShip

controller - -> ui : shipsNotConverted
deactivate controller

ui -> manager : Displays the number of ships which have not been imported


@enduml

PlantUML version 1.2021.11(Sat Oct 02 14:26:11 BST 2021)
(GPL source distribution)
Java Runtime: OpenJDK Runtime Environment
JVM: OpenJDK 64-Bit Server VM
Default Encoding: Cp1252
Language: pt
Country: PT
--></g></svg>