<?xml version="1.0" encoding="UTF-8" standalone="no"?><svg xmlns="http://www.w3.org/2000/svg" xmlns:xlink="http://www.w3.org/1999/xlink" contentScriptType="application/ecmascript" contentStyleType="text/css" height="302px" preserveAspectRatio="none" style="width:573px;height:302px;background:#FFFFFF;" version="1.1" viewBox="0 0 573 302" width="573px" zoomAndPan="magnify"><defs><filter height="300%" id="fxyds99sheg9" width="300%" x="-1" y="-1"><feGaussianBlur result="blurOut" stdDeviation="2.0"/><feColorMatrix in="blurOut" result="blurOut2" type="matrix" values="0 0 0 0 0 0 0 0 0 0 0 0 0 0 0 0 0 0 .4 0"/><feOffset dx="4.0" dy="4.0" in="blurOut2" result="blurOut3"/><feBlend in="SourceGraphic" in2="blurOut3" mode="normal"/></filter></defs><g><!--MD5=[02e4b9b7573f1156f41e60aa5b4e25a4]
class Company--><rect codeLine="6" fill="#FEFECE" filter="url(#fxyds99sheg9)" height="53.8359" id="Company" style="stroke:#A80036;stroke-width:1.5;" width="85" x="7" y="86"/><ellipse cx="22" cy="102" fill="#ADD1B2" rx="11" ry="11" style="stroke:#A80036;stroke-width:1.0;"/><path d="M24,98.5 Q24.2031,98 24.4375,97.75 Q24.6719,97.5 24.9375,97.5 Q25.4063,97.5 25.7031,97.7813 Q26,98.0625 26,98.7188 L26,100.2813 Q26,100.9375 25.7188,101.2188 Q25.4375,101.5 25,101.5 Q24.6094,101.5 24.3594,101.3281 Q24.1094,101.1563 24,100.7031 Q23.9531,100.3906 23.7813,100.2188 Q23.4688,99.8906 22.9063,99.7031 Q22.3438,99.5 21.7813,99.5 Q21.0781,99.5 20.4844,99.7813 Q19.9063,100.0625 19.4531,100.6875 Q19,101.3125 19,102.1719 L19,103.0938 Q19,104.125 19.8438,104.8125 Q20.6875,105.5 22.1875,105.5 Q23.0781,105.5 23.7031,105.2969 Q24.0625,105.1875 24.4688,104.8281 Q24.7344,104.625 24.875,104.5625 Q25.0156,104.5 25.1875,104.5 Q25.5156,104.5 25.75,104.7656 Q26,105.0156 26,105.375 Q26,105.7188 25.6563,106.125 Q25.1563,106.7188 24.3594,107.0469 Q23.3125,107.5 22.0313,107.5 Q20.5313,107.5 19.3281,106.9063 Q18.3594,106.4375 17.6719,105.4219 Q17,104.4063 17,103.2031 L17,102.1094 Q17,100.8594 17.5938,99.7656 Q18.2031,98.6719 19.25,98.0938 Q20.3125,97.5 21.5,97.5 Q22.2188,97.5 22.8438,97.75 Q23.4688,98 24,98.5 Z " fill="#000000"/><text fill="#000000" font-family="sans-serif" font-size="12" lengthAdjust="spacing" textLength="53" x="36" y="106.9102">Company</text><line style="stroke:#A80036;stroke-width:1.5;" x1="8" x2="91" y1="118" y2="118"/><text fill="#000000" font-family="sans-serif" font-size="11" lengthAdjust="spacing" textLength="59" x="13" y="133.4189">-designation</text><!--MD5=[ddaf6f62b0bc30921877ec9fb9463c9f]
class TrafficManager--><rect codeLine="10" fill="#FEFECE" filter="url(#fxyds99sheg9)" height="53.8359" id="TrafficManager" style="stroke:#A80036;stroke-width:1.5;" width="113" x="207" y="7"/><ellipse cx="222" cy="23" fill="#ADD1B2" rx="11" ry="11" style="stroke:#A80036;stroke-width:1.0;"/><path d="M224,19.5 Q224.2031,19 224.4375,18.75 Q224.6719,18.5 224.9375,18.5 Q225.4063,18.5 225.7031,18.7813 Q226,19.0625 226,19.7188 L226,21.2813 Q226,21.9375 225.7188,22.2188 Q225.4375,22.5 225,22.5 Q224.6094,22.5 224.3594,22.3281 Q224.1094,22.1563 224,21.7031 Q223.9531,21.3906 223.7813,21.2188 Q223.4688,20.8906 222.9063,20.7031 Q222.3438,20.5 221.7813,20.5 Q221.0781,20.5 220.4844,20.7813 Q219.9063,21.0625 219.4531,21.6875 Q219,22.3125 219,23.1719 L219,24.0938 Q219,25.125 219.8438,25.8125 Q220.6875,26.5 222.1875,26.5 Q223.0781,26.5 223.7031,26.2969 Q224.0625,26.1875 224.4688,25.8281 Q224.7344,25.625 224.875,25.5625 Q225.0156,25.5 225.1875,25.5 Q225.5156,25.5 225.75,25.7656 Q226,26.0156 226,26.375 Q226,26.7188 225.6563,27.125 Q225.1563,27.7188 224.3594,28.0469 Q223.3125,28.5 222.0313,28.5 Q220.5313,28.5 219.3281,27.9063 Q218.3594,27.4375 217.6719,26.4219 Q217,25.4063 217,24.2031 L217,23.1094 Q217,21.8594 217.5938,20.7656 Q218.2031,19.6719 219.25,19.0938 Q220.3125,18.5 221.5,18.5 Q222.2188,18.5 222.8438,18.75 Q223.4688,19 224,19.5 Z " fill="#000000"/><text fill="#000000" font-family="sans-serif" font-size="12" lengthAdjust="spacing" textLength="81" x="236" y="27.9102">TrafficManager</text><line style="stroke:#A80036;stroke-width:1.5;" x1="208" x2="319" y1="39" y2="39"/><text fill="#000000" font-family="sans-serif" font-size="11" lengthAdjust="spacing" textLength="30" x="213" y="54.4189">-name</text><!--MD5=[0dc7f2ddb409b58bcf52b12238c25399]
class Ship--><rect codeLine="14" fill="#FEFECE" filter="url(#fxyds99sheg9)" height="192.1953" id="Ship" style="stroke:#A80036;stroke-width:1.5;" width="141" x="193" y="96"/><ellipse cx="246.75" cy="112" fill="#ADD1B2" rx="11" ry="11" style="stroke:#A80036;stroke-width:1.0;"/><path d="M248.75,108.5 Q248.9531,108 249.1875,107.75 Q249.4219,107.5 249.6875,107.5 Q250.1563,107.5 250.4531,107.7813 Q250.75,108.0625 250.75,108.7188 L250.75,110.2813 Q250.75,110.9375 250.4688,111.2188 Q250.1875,111.5 249.75,111.5 Q249.3594,111.5 249.1094,111.3281 Q248.8594,111.1563 248.75,110.7031 Q248.7031,110.3906 248.5313,110.2188 Q248.2188,109.8906 247.6563,109.7031 Q247.0938,109.5 246.5313,109.5 Q245.8281,109.5 245.2344,109.7813 Q244.6563,110.0625 244.2031,110.6875 Q243.75,111.3125 243.75,112.1719 L243.75,113.0938 Q243.75,114.125 244.5938,114.8125 Q245.4375,115.5 246.9375,115.5 Q247.8281,115.5 248.4531,115.2969 Q248.8125,115.1875 249.2188,114.8281 Q249.4844,114.625 249.625,114.5625 Q249.7656,114.5 249.9375,114.5 Q250.2656,114.5 250.5,114.7656 Q250.75,115.0156 250.75,115.375 Q250.75,115.7188 250.4063,116.125 Q249.9063,116.7188 249.1094,117.0469 Q248.0625,117.5 246.7813,117.5 Q245.2813,117.5 244.0781,116.9063 Q243.1094,116.4375 242.4219,115.4219 Q241.75,114.4063 241.75,113.2031 L241.75,112.1094 Q241.75,110.8594 242.3438,109.7656 Q242.9531,108.6719 244,108.0938 Q245.0625,107.5 246.25,107.5 Q246.9688,107.5 247.5938,107.75 Q248.2188,108 248.75,108.5 Z " fill="#000000"/><text fill="#000000" font-family="sans-serif" font-size="12" lengthAdjust="spacing" textLength="25" x="267.25" y="116.9102">Ship</text><line style="stroke:#A80036;stroke-width:1.5;" x1="194" x2="333" y1="128" y2="128"/><text fill="#000000" font-family="sans-serif" font-size="11" lengthAdjust="spacing" textLength="53" x="199" y="143.4189">-mmsiCode</text><text fill="#000000" font-family="sans-serif" font-size="11" lengthAdjust="spacing" textLength="30" x="199" y="157.2549">-name</text><text fill="#000000" font-family="sans-serif" font-size="11" lengthAdjust="spacing" textLength="45" x="199" y="171.0908">-imoCode</text><text fill="#000000" font-family="sans-serif" font-size="11" lengthAdjust="spacing" textLength="129" x="199" y="184.9268">-numberEnergyGenerators</text><text fill="#000000" font-family="sans-serif" font-size="11" lengthAdjust="spacing" textLength="83" x="199" y="198.7627">-generatorPower</text><text fill="#000000" font-family="sans-serif" font-size="11" lengthAdjust="spacing" textLength="41" x="199" y="212.5986">-callSign</text><text fill="#000000" font-family="sans-serif" font-size="11" lengthAdjust="spacing" textLength="60" x="199" y="226.4346">-vesselType</text><text fill="#000000" font-family="sans-serif" font-size="11" lengthAdjust="spacing" textLength="33" x="199" y="240.2705">-length</text><text fill="#000000" font-family="sans-serif" font-size="11" lengthAdjust="spacing" textLength="31" x="199" y="254.1064">-width</text><text fill="#000000" font-family="sans-serif" font-size="11" lengthAdjust="spacing" textLength="45" x="199" y="267.9424">-capacity</text><text fill="#000000" font-family="sans-serif" font-size="11" lengthAdjust="spacing" textLength="27" x="199" y="281.7783">-draft</text><!--MD5=[efa7c3600894dd6faaa8b816738c33b1]
class ShipLocation--><rect codeLine="28" fill="#FEFECE" filter="url(#fxyds99sheg9)" height="150.6875" id="ShipLocation" style="stroke:#A80036;stroke-width:1.5;" width="104" x="455" y="37.5"/><ellipse cx="470" cy="53.5" fill="#ADD1B2" rx="11" ry="11" style="stroke:#A80036;stroke-width:1.0;"/><path d="M472,50 Q472.2031,49.5 472.4375,49.25 Q472.6719,49 472.9375,49 Q473.4063,49 473.7031,49.2813 Q474,49.5625 474,50.2188 L474,51.7813 Q474,52.4375 473.7188,52.7188 Q473.4375,53 473,53 Q472.6094,53 472.3594,52.8281 Q472.1094,52.6563 472,52.2031 Q471.9531,51.8906 471.7813,51.7188 Q471.4688,51.3906 470.9063,51.2031 Q470.3438,51 469.7813,51 Q469.0781,51 468.4844,51.2813 Q467.9063,51.5625 467.4531,52.1875 Q467,52.8125 467,53.6719 L467,54.5938 Q467,55.625 467.8438,56.3125 Q468.6875,57 470.1875,57 Q471.0781,57 471.7031,56.7969 Q472.0625,56.6875 472.4688,56.3281 Q472.7344,56.125 472.875,56.0625 Q473.0156,56 473.1875,56 Q473.5156,56 473.75,56.2656 Q474,56.5156 474,56.875 Q474,57.2188 473.6563,57.625 Q473.1563,58.2188 472.3594,58.5469 Q471.3125,59 470.0313,59 Q468.5313,59 467.3281,58.4063 Q466.3594,57.9375 465.6719,56.9219 Q465,55.9063 465,54.7031 L465,53.6094 Q465,52.3594 465.5938,51.2656 Q466.2031,50.1719 467.25,49.5938 Q468.3125,49 469.5,49 Q470.2188,49 470.8438,49.25 Q471.4688,49.5 472,50 Z " fill="#000000"/><text fill="#000000" font-family="sans-serif" font-size="12" lengthAdjust="spacing" textLength="72" x="484" y="58.4102">ShipLocation</text><line style="stroke:#A80036;stroke-width:1.5;" x1="456" x2="558" y1="69.5" y2="69.5"/><text fill="#000000" font-family="sans-serif" font-size="11" lengthAdjust="spacing" textLength="72" x="461" y="84.9189">-baseDateTime</text><text fill="#000000" font-family="sans-serif" font-size="11" lengthAdjust="spacing" textLength="38" x="461" y="98.7549">-latitude</text><text fill="#000000" font-family="sans-serif" font-size="11" lengthAdjust="spacing" textLength="47" x="461" y="112.5908">-longitude</text><text fill="#000000" font-family="sans-serif" font-size="11" lengthAdjust="spacing" textLength="22" x="461" y="126.4268">-sog</text><text fill="#000000" font-family="sans-serif" font-size="11" lengthAdjust="spacing" textLength="22" x="461" y="140.2627">-cog</text><text fill="#000000" font-family="sans-serif" font-size="11" lengthAdjust="spacing" textLength="42" x="461" y="154.0986">-heading</text><text fill="#000000" font-family="sans-serif" font-size="11" lengthAdjust="spacing" textLength="41" x="461" y="167.9346">-position</text><text fill="#000000" font-family="sans-serif" font-size="11" lengthAdjust="spacing" textLength="59" x="461" y="181.7705">-transceiver</text><!--MD5=[37a14a5de6d6fd738aee271300f4b5c8]
link Company to Ship--><path codeLine="39" d="M92.13,128.51 C120.71,139.16 159.34,153.56 192.58,165.95 " fill="none" id="Company-Ship" style="stroke:#A80036;stroke-width:1.0;"/><polygon fill="#000000" points="133.1851,133.922,125.7361,128.0092,123.6832,133.5169,133.1851,133.922" style="stroke:#000000;stroke-width:1.0;"/><text fill="#000000" font-family="sans-serif" font-size="13" lengthAdjust="spacing" textLength="23" x="137.5" y="137.4951">own</text><text fill="#000000" font-family="sans-serif" font-size="13" lengthAdjust="spacing" textLength="7" x="100.0586" y="146.0902">1</text><text fill="#000000" font-family="sans-serif" font-size="13" lengthAdjust="spacing" textLength="20" x="165.1202" y="177.7883">1..*</text><!--MD5=[683ea96df93176af8455607a7c1d2a32]
link Company to TrafficManager--><path codeLine="41" d="M92.13,97.49 C124.93,85.26 170.96,68.11 206.91,54.71 " fill="none" id="Company-TrafficManager" style="stroke:#A80036;stroke-width:1.0;"/><polygon fill="#000000" points="131.6852,61.4296,122.1832,61.8346,124.236,67.3424,131.6852,61.4296" style="stroke:#000000;stroke-width:1.0;"/><text fill="#000000" font-family="sans-serif" font-size="13" lengthAdjust="spacing" textLength="26" x="136" y="68.4951">have</text><text fill="#000000" font-family="sans-serif" font-size="13" lengthAdjust="spacing" textLength="7" x="100.0586" y="109.7386">1</text><text fill="#000000" font-family="sans-serif" font-size="13" lengthAdjust="spacing" textLength="20" x="178.7943" y="71.7356">1..*</text><!--MD5=[5541ef512584d1243c10a7f3b3317e1c]
link Ship to ShipLocation--><path codeLine="43" d="M334.03,169.26 C372.63,156.63 419.8,141.2 454.96,129.69 " fill="none" id="Ship-ShipLocation" style="stroke:#A80036;stroke-width:1.0;"/><polygon fill="#000000" points="386.2521,130.6208,376.7415,130.6406,378.5695,136.227,386.2521,130.6208" style="stroke:#000000;stroke-width:1.0;"/><text fill="#000000" font-family="sans-serif" font-size="13" lengthAdjust="spacing" textLength="21" x="390.5" y="137.4951">has</text><text fill="#000000" font-family="sans-serif" font-size="13" lengthAdjust="spacing" textLength="7" x="342.127" y="181.1515">1</text><text fill="#000000" font-family="sans-serif" font-size="13" lengthAdjust="spacing" textLength="20" x="427.0111" y="146.3911">1..*</text><!--MD5=[1acbea49718d4a103d0265f6d40a2097]
link TrafficManager to ShipLocation--><path codeLine="45" d="M320.21,52.22 C360.74,65.48 415.22,83.3 454.69,96.22 " fill="none" id="TrafficManager-ShipLocation" style="stroke:#A80036;stroke-width:1.0;"/><polygon fill="#000000" points="373.7521,61.7306,366.0694,56.1247,364.2416,61.7111,373.7521,61.7306" style="stroke:#000000;stroke-width:1.0;"/><text fill="#000000" font-family="sans-serif" font-size="13" lengthAdjust="spacing" textLength="46" x="378" y="65.4951">controls</text><text fill="#000000" font-family="sans-serif" font-size="13" lengthAdjust="spacing" textLength="7" x="327.9244" y="69.1076">1</text><text fill="#000000" font-family="sans-serif" font-size="13" lengthAdjust="spacing" textLength="20" x="427.096" y="108.6855">1..*</text><!--MD5=[6ef81b88109f127bbf9703f317deeb72]
@startuml

hide methods
left to right direction
skinparam classAttributeIconSize 0

class Company {
-designation
}

class TrafficManager {
-name
}

class Ship {
-mmsiCode
-name
-imoCode
-numberEnergyGenerators
-generatorPower
-callSign
-vesselType
-length
-width
-capacity
-draft
}

class ShipLocation {
-baseDateTime
-latitude
-longitude
-sog
-cog
-heading
-position
-transceiver
}

Company "1"- -"1..*" Ship: own >

Company "1"- -"1..*" TrafficManager: have >

Ship "1" - - "1..*" ShipLocation : has >

TrafficManager "1" - - "1..*" ShipLocation : controls >

@enduml

PlantUML version 1.2021.11(Sat Oct 02 14:26:11 BST 2021)
(GPL source distribution)
Java Runtime: OpenJDK Runtime Environment
JVM: OpenJDK 64-Bit Server VM
Default Encoding: Cp1252
Language: pt
Country: PT
--></g></svg>