<?xml version="1.0" encoding="UTF-8" standalone="no"?><svg xmlns="http://www.w3.org/2000/svg" xmlns:xlink="http://www.w3.org/1999/xlink" contentScriptType="application/ecmascript" contentStyleType="text/css" height="262px" preserveAspectRatio="none" style="width:1639px;height:262px;background:#FFFFFF;" version="1.1" viewBox="0 0 1639 262" width="1639px" zoomAndPan="magnify"><defs><filter height="300%" id="fm244tw70grt2" width="300%" x="-1" y="-1"><feGaussianBlur result="blurOut" stdDeviation="2.0"/><feColorMatrix in="blurOut" result="blurOut2" type="matrix" values="0 0 0 0 0 0 0 0 0 0 0 0 0 0 0 0 0 0 .4 0"/><feOffset dx="4.0" dy="4.0" in="blurOut2" result="blurOut3"/><feBlend in="SourceGraphic" in2="blurOut3" mode="normal"/></filter></defs><g><!--MD5=[02e4b9b7573f1156f41e60aa5b4e25a4]
class Company--><rect codeLine="4" fill="#FEFECE" filter="url(#fm244tw70grt2)" height="89.5078" id="Company" style="stroke:#A80036;stroke-width:1.5;" width="99" x="384" y="89.5"/><ellipse cx="405.3" cy="105.5" fill="#ADD1B2" rx="11" ry="11" style="stroke:#A80036;stroke-width:1.0;"/><path d="M407.3,102 Q407.5031,101.5 407.7375,101.25 Q407.9719,101 408.2375,101 Q408.7063,101 409.0031,101.2813 Q409.3,101.5625 409.3,102.2188 L409.3,103.7813 Q409.3,104.4375 409.0188,104.7188 Q408.7375,105 408.3,105 Q407.9094,105 407.6594,104.8281 Q407.4094,104.6563 407.3,104.2031 Q407.2531,103.8906 407.0813,103.7188 Q406.7688,103.3906 406.2063,103.2031 Q405.6438,103 405.0813,103 Q404.3781,103 403.7844,103.2813 Q403.2063,103.5625 402.7531,104.1875 Q402.3,104.8125 402.3,105.6719 L402.3,106.5938 Q402.3,107.625 403.1438,108.3125 Q403.9875,109 405.4875,109 Q406.3781,109 407.0031,108.7969 Q407.3625,108.6875 407.7688,108.3281 Q408.0344,108.125 408.175,108.0625 Q408.3156,108 408.4875,108 Q408.8156,108 409.05,108.2656 Q409.3,108.5156 409.3,108.875 Q409.3,109.2188 408.9563,109.625 Q408.4563,110.2188 407.6594,110.5469 Q406.6125,111 405.3313,111 Q403.8313,111 402.6281,110.4063 Q401.6594,109.9375 400.9719,108.9219 Q400.3,107.9063 400.3,106.7031 L400.3,105.6094 Q400.3,104.3594 400.8938,103.2656 Q401.5031,102.1719 402.55,101.5938 Q403.6125,101 404.8,101 Q405.5188,101 406.1438,101.25 Q406.7688,101.5 407.3,102 Z " fill="#000000"/><text fill="#000000" font-family="sans-serif" font-size="12" lengthAdjust="spacing" textLength="53" x="420.7" y="110.4102">Company</text><line style="stroke:#A80036;stroke-width:1.5;" x1="385" x2="482" y1="121.5" y2="121.5"/><rect fill="none" height="6" style="stroke:#C82930;stroke-width:1.0;" width="6" x="392" y="129.5"/><text fill="#000000" font-family="sans-serif" font-size="11" lengthAdjust="spacing" textLength="55" x="404" y="136.9189">designation</text><line style="stroke:#A80036;stroke-width:1.5;" x1="385" x2="482" y1="143.3359" y2="143.3359"/><rect fill="#F24D5C" height="6" style="stroke:#C82930;stroke-width:1.0;" width="6" x="392" y="151.3359"/><text fill="#000000" font-family="sans-serif" font-size="11" lengthAdjust="spacing" textLength="60" x="404" y="158.7549">getBstShip()</text><rect fill="#F24D5C" height="6" style="stroke:#C82930;stroke-width:1.0;" width="6" x="392" y="165.1719"/><text fill="#000000" font-family="sans-serif" font-size="11" lengthAdjust="spacing" textLength="73" x="404" y="172.5908">getImportShip()</text><!--MD5=[0dc7f2ddb409b58bcf52b12238c25399]
class Ship--><rect codeLine="10" fill="#FEFECE" filter="url(#fm244tw70grt2)" height="227.8672" id="Ship" style="stroke:#A80036;stroke-width:1.5;" width="151" x="1040" y="20.5"/><ellipse cx="1098.75" cy="36.5" fill="#ADD1B2" rx="11" ry="11" style="stroke:#A80036;stroke-width:1.0;"/><path d="M1100.75,33 Q1100.9531,32.5 1101.1875,32.25 Q1101.4219,32 1101.6875,32 Q1102.1563,32 1102.4531,32.2813 Q1102.75,32.5625 1102.75,33.2188 L1102.75,34.7813 Q1102.75,35.4375 1102.4688,35.7188 Q1102.1875,36 1101.75,36 Q1101.3594,36 1101.1094,35.8281 Q1100.8594,35.6563 1100.75,35.2031 Q1100.7031,34.8906 1100.5313,34.7188 Q1100.2188,34.3906 1099.6563,34.2031 Q1099.0938,34 1098.5313,34 Q1097.8281,34 1097.2344,34.2813 Q1096.6563,34.5625 1096.2031,35.1875 Q1095.75,35.8125 1095.75,36.6719 L1095.75,37.5938 Q1095.75,38.625 1096.5938,39.3125 Q1097.4375,40 1098.9375,40 Q1099.8281,40 1100.4531,39.7969 Q1100.8125,39.6875 1101.2188,39.3281 Q1101.4844,39.125 1101.625,39.0625 Q1101.7656,39 1101.9375,39 Q1102.2656,39 1102.5,39.2656 Q1102.75,39.5156 1102.75,39.875 Q1102.75,40.2188 1102.4063,40.625 Q1101.9063,41.2188 1101.1094,41.5469 Q1100.0625,42 1098.7813,42 Q1097.2813,42 1096.0781,41.4063 Q1095.1094,40.9375 1094.4219,39.9219 Q1093.75,38.9063 1093.75,37.7031 L1093.75,36.6094 Q1093.75,35.3594 1094.3438,34.2656 Q1094.9531,33.1719 1096,32.5938 Q1097.0625,32 1098.25,32 Q1098.9688,32 1099.5938,32.25 Q1100.2188,32.5 1100.75,33 Z " fill="#000000"/><text fill="#000000" font-family="sans-serif" font-size="12" lengthAdjust="spacing" textLength="25" x="1119.25" y="41.4102">Ship</text><line style="stroke:#A80036;stroke-width:1.5;" x1="1041" x2="1190" y1="52.5" y2="52.5"/><rect fill="none" height="6" style="stroke:#C82930;stroke-width:1.0;" width="6" x="1048" y="60.5"/><text fill="#000000" font-family="sans-serif" font-size="11" lengthAdjust="spacing" textLength="25" x="1060" y="67.9189">MMSI</text><rect fill="none" height="6" style="stroke:#C82930;stroke-width:1.0;" width="6" x="1048" y="74.3359"/><text fill="#000000" font-family="sans-serif" font-size="11" lengthAdjust="spacing" textLength="26" x="1060" y="81.7549">name</text><rect fill="none" height="6" style="stroke:#C82930;stroke-width:1.0;" width="6" x="1048" y="88.1719"/><text fill="#000000" font-family="sans-serif" font-size="11" lengthAdjust="spacing" textLength="29" x="1060" y="95.5908">shipID</text><rect fill="none" height="6" style="stroke:#C82930;stroke-width:1.0;" width="6" x="1048" y="102.0078"/><text fill="#000000" font-family="sans-serif" font-size="11" lengthAdjust="spacing" textLength="125" x="1060" y="109.4268">numberEnergyGenerators</text><rect fill="none" height="6" style="stroke:#C82930;stroke-width:1.0;" width="6" x="1048" y="115.8438"/><text fill="#000000" font-family="sans-serif" font-size="11" lengthAdjust="spacing" textLength="79" x="1060" y="123.2627">generatorPower</text><rect fill="none" height="6" style="stroke:#C82930;stroke-width:1.0;" width="6" x="1048" y="129.6797"/><text fill="#000000" font-family="sans-serif" font-size="11" lengthAdjust="spacing" textLength="37" x="1060" y="137.0986">callSign</text><rect fill="none" height="6" style="stroke:#C82930;stroke-width:1.0;" width="6" x="1048" y="143.5156"/><text fill="#000000" font-family="sans-serif" font-size="11" lengthAdjust="spacing" textLength="56" x="1060" y="150.9346">vesselType</text><rect fill="none" height="6" style="stroke:#C82930;stroke-width:1.0;" width="6" x="1048" y="157.3516"/><text fill="#000000" font-family="sans-serif" font-size="11" lengthAdjust="spacing" textLength="29" x="1060" y="164.7705">length</text><rect fill="none" height="6" style="stroke:#C82930;stroke-width:1.0;" width="6" x="1048" y="171.1875"/><text fill="#000000" font-family="sans-serif" font-size="11" lengthAdjust="spacing" textLength="27" x="1060" y="178.6064">width</text><rect fill="none" height="6" style="stroke:#C82930;stroke-width:1.0;" width="6" x="1048" y="185.0234"/><text fill="#000000" font-family="sans-serif" font-size="11" lengthAdjust="spacing" textLength="41" x="1060" y="192.4424">capacity</text><rect fill="none" height="6" style="stroke:#C82930;stroke-width:1.0;" width="6" x="1048" y="198.8594"/><text fill="#000000" font-family="sans-serif" font-size="11" lengthAdjust="spacing" textLength="23" x="1060" y="206.2783">draft</text><line style="stroke:#A80036;stroke-width:1.5;" x1="1041" x2="1190" y1="212.6953" y2="212.6953"/><rect fill="#F24D5C" height="6" style="stroke:#C82930;stroke-width:1.0;" width="6" x="1048" y="220.6953"/><text fill="#000000" font-family="sans-serif" font-size="11" lengthAdjust="spacing" textLength="48" x="1060" y="228.1143">setMMSI()</text><rect fill="#F24D5C" height="6" style="stroke:#C82930;stroke-width:1.0;" width="6" x="1048" y="234.5313"/><text fill="#000000" font-family="sans-serif" font-size="11" lengthAdjust="spacing" textLength="81" x="1060" y="241.9502">getShipPosition()</text><!--MD5=[9265310f4bc9be4cc0c3c11287946897]
class ImportShip--><rect codeLine="26" fill="#FEFECE" filter="url(#fm244tw70grt2)" height="103.3438" id="ImportShip" style="stroke:#A80036;stroke-width:1.5;" width="98" x="586" y="7"/><ellipse cx="603.7" cy="23" fill="#ADD1B2" rx="11" ry="11" style="stroke:#A80036;stroke-width:1.0;"/><path d="M605.7,19.5 Q605.9031,19 606.1375,18.75 Q606.3719,18.5 606.6375,18.5 Q607.1063,18.5 607.4031,18.7813 Q607.7,19.0625 607.7,19.7188 L607.7,21.2813 Q607.7,21.9375 607.4188,22.2188 Q607.1375,22.5 606.7,22.5 Q606.3094,22.5 606.0594,22.3281 Q605.8094,22.1563 605.7,21.7031 Q605.6531,21.3906 605.4813,21.2188 Q605.1688,20.8906 604.6063,20.7031 Q604.0438,20.5 603.4813,20.5 Q602.7781,20.5 602.1844,20.7813 Q601.6063,21.0625 601.1531,21.6875 Q600.7,22.3125 600.7,23.1719 L600.7,24.0938 Q600.7,25.125 601.5438,25.8125 Q602.3875,26.5 603.8875,26.5 Q604.7781,26.5 605.4031,26.2969 Q605.7625,26.1875 606.1688,25.8281 Q606.4344,25.625 606.575,25.5625 Q606.7156,25.5 606.8875,25.5 Q607.2156,25.5 607.45,25.7656 Q607.7,26.0156 607.7,26.375 Q607.7,26.7188 607.3563,27.125 Q606.8563,27.7188 606.0594,28.0469 Q605.0125,28.5 603.7313,28.5 Q602.2313,28.5 601.0281,27.9063 Q600.0594,27.4375 599.3719,26.4219 Q598.7,25.4063 598.7,24.2031 L598.7,23.1094 Q598.7,21.8594 599.2938,20.7656 Q599.9031,19.6719 600.95,19.0938 Q602.0125,18.5 603.2,18.5 Q603.9188,18.5 604.5438,18.75 Q605.1688,19 605.7,19.5 Z " fill="#000000"/><text fill="#000000" font-family="sans-serif" font-size="12" lengthAdjust="spacing" textLength="60" x="618.3" y="27.9102">ImportShip</text><line style="stroke:#A80036;stroke-width:1.5;" x1="587" x2="683" y1="39" y2="39"/><line style="stroke:#A80036;stroke-width:1.5;" x1="587" x2="683" y1="47" y2="47"/><rect fill="#F24D5C" height="6" style="stroke:#C82930;stroke-width:1.0;" width="6" x="594" y="55"/><text fill="#000000" font-family="sans-serif" font-size="11" lengthAdjust="spacing" textLength="39" x="606" y="62.4189">getFile()</text><rect fill="#F24D5C" height="6" style="stroke:#C82930;stroke-width:1.0;" width="6" x="594" y="68.8359"/><text fill="#000000" font-family="sans-serif" font-size="11" lengthAdjust="spacing" textLength="72" x="606" y="76.2549">convertShips()</text><rect fill="#F24D5C" height="6" style="stroke:#C82930;stroke-width:1.0;" width="6" x="594" y="82.6719"/><text fill="#000000" font-family="sans-serif" font-size="11" lengthAdjust="spacing" textLength="71" x="606" y="90.0908">getLineArray()</text><rect fill="#F24D5C" height="6" style="stroke:#C82930;stroke-width:1.0;" width="6" x="594" y="96.5078"/><text fill="#000000" font-family="sans-serif" font-size="11" lengthAdjust="spacing" textLength="60" x="606" y="103.9268">createShip()</text><!--MD5=[e4b1e7fd7cdb68395c6b7447b65253e8]
class ImportShipController--><rect codeLine="33" fill="#FEFECE" filter="url(#fm244tw70grt2)" height="75.6719" id="ImportShipController" style="stroke:#A80036;stroke-width:1.5;" width="151" x="172" y="96.5"/><ellipse cx="189.25" cy="112.5" fill="#ADD1B2" rx="11" ry="11" style="stroke:#A80036;stroke-width:1.0;"/><path d="M191.25,109 Q191.4531,108.5 191.6875,108.25 Q191.9219,108 192.1875,108 Q192.6563,108 192.9531,108.2813 Q193.25,108.5625 193.25,109.2188 L193.25,110.7813 Q193.25,111.4375 192.9688,111.7188 Q192.6875,112 192.25,112 Q191.8594,112 191.6094,111.8281 Q191.3594,111.6563 191.25,111.2031 Q191.2031,110.8906 191.0313,110.7188 Q190.7188,110.3906 190.1563,110.2031 Q189.5938,110 189.0313,110 Q188.3281,110 187.7344,110.2813 Q187.1563,110.5625 186.7031,111.1875 Q186.25,111.8125 186.25,112.6719 L186.25,113.5938 Q186.25,114.625 187.0938,115.3125 Q187.9375,116 189.4375,116 Q190.3281,116 190.9531,115.7969 Q191.3125,115.6875 191.7188,115.3281 Q191.9844,115.125 192.125,115.0625 Q192.2656,115 192.4375,115 Q192.7656,115 193,115.2656 Q193.25,115.5156 193.25,115.875 Q193.25,116.2188 192.9063,116.625 Q192.4063,117.2188 191.6094,117.5469 Q190.5625,118 189.2813,118 Q187.7813,118 186.5781,117.4063 Q185.6094,116.9375 184.9219,115.9219 Q184.25,114.9063 184.25,113.7031 L184.25,112.6094 Q184.25,111.3594 184.8438,110.2656 Q185.4531,109.1719 186.5,108.5938 Q187.5625,108 188.75,108 Q189.4688,108 190.0938,108.25 Q190.7188,108.5 191.25,109 Z " fill="#000000"/><text fill="#000000" font-family="sans-serif" font-size="12" lengthAdjust="spacing" textLength="114" x="203.75" y="117.4102">ImportShipController</text><line style="stroke:#A80036;stroke-width:1.5;" x1="173" x2="322" y1="128.5" y2="128.5"/><line style="stroke:#A80036;stroke-width:1.5;" x1="173" x2="322" y1="136.5" y2="136.5"/><rect fill="#F24D5C" height="6" style="stroke:#C82930;stroke-width:1.0;" width="6" x="180" y="144.5"/><text fill="#000000" font-family="sans-serif" font-size="11" lengthAdjust="spacing" textLength="125" x="192" y="151.9189">importFile(String fileName)</text><rect fill="#F24D5C" height="6" style="stroke:#C82930;stroke-width:1.0;" width="6" x="180" y="158.3359"/><text fill="#000000" font-family="sans-serif" font-size="11" lengthAdjust="spacing" textLength="64" x="192" y="165.7549">importShips()</text><!--MD5=[e9ec94dad9dff345b5dd5149ea3f379c]
class ImportShipUI--><rect codeLine="38" fill="#FEFECE" filter="url(#fm244tw70grt2)" height="48" id="ImportShipUI" style="stroke:#A80036;stroke-width:1.5;" width="104" x="7" y="110.5"/><ellipse cx="22" cy="126.5" fill="#ADD1B2" rx="11" ry="11" style="stroke:#A80036;stroke-width:1.0;"/><path d="M24,123 Q24.2031,122.5 24.4375,122.25 Q24.6719,122 24.9375,122 Q25.4063,122 25.7031,122.2813 Q26,122.5625 26,123.2188 L26,124.7813 Q26,125.4375 25.7188,125.7188 Q25.4375,126 25,126 Q24.6094,126 24.3594,125.8281 Q24.1094,125.6563 24,125.2031 Q23.9531,124.8906 23.7813,124.7188 Q23.4688,124.3906 22.9063,124.2031 Q22.3438,124 21.7813,124 Q21.0781,124 20.4844,124.2813 Q19.9063,124.5625 19.4531,125.1875 Q19,125.8125 19,126.6719 L19,127.5938 Q19,128.625 19.8438,129.3125 Q20.6875,130 22.1875,130 Q23.0781,130 23.7031,129.7969 Q24.0625,129.6875 24.4688,129.3281 Q24.7344,129.125 24.875,129.0625 Q25.0156,129 25.1875,129 Q25.5156,129 25.75,129.2656 Q26,129.5156 26,129.875 Q26,130.2188 25.6563,130.625 Q25.1563,131.2188 24.3594,131.5469 Q23.3125,132 22.0313,132 Q20.5313,132 19.3281,131.4063 Q18.3594,130.9375 17.6719,129.9219 Q17,128.9063 17,127.7031 L17,126.6094 Q17,125.3594 17.5938,124.2656 Q18.2031,123.1719 19.25,122.5938 Q20.3125,122 21.5,122 Q22.2188,122 22.8438,122.25 Q23.4688,122.5 24,123 Z " fill="#000000"/><text fill="#000000" font-family="sans-serif" font-size="12" lengthAdjust="spacing" textLength="72" x="36" y="131.4102">ImportShipUI</text><line style="stroke:#A80036;stroke-width:1.5;" x1="8" x2="110" y1="142.5" y2="142.5"/><line style="stroke:#A80036;stroke-width:1.5;" x1="8" x2="110" y1="150.5" y2="150.5"/><!--MD5=[efa7c3600894dd6faaa8b816738c33b1]
class ShipLocation--><rect codeLine="41" fill="#FEFECE" filter="url(#fm244tw70grt2)" height="158.6875" id="ShipLocation" style="stroke:#A80036;stroke-width:1.5;" width="108" x="1517" y="55"/><ellipse cx="1533.8" cy="71" fill="#ADD1B2" rx="11" ry="11" style="stroke:#A80036;stroke-width:1.0;"/><path d="M1535.8,67.5 Q1536.0031,67 1536.2375,66.75 Q1536.4719,66.5 1536.7375,66.5 Q1537.2063,66.5 1537.5031,66.7813 Q1537.8,67.0625 1537.8,67.7188 L1537.8,69.2813 Q1537.8,69.9375 1537.5188,70.2188 Q1537.2375,70.5 1536.8,70.5 Q1536.4094,70.5 1536.1594,70.3281 Q1535.9094,70.1563 1535.8,69.7031 Q1535.7531,69.3906 1535.5813,69.2188 Q1535.2688,68.8906 1534.7063,68.7031 Q1534.1438,68.5 1533.5813,68.5 Q1532.8781,68.5 1532.2844,68.7813 Q1531.7063,69.0625 1531.2531,69.6875 Q1530.8,70.3125 1530.8,71.1719 L1530.8,72.0938 Q1530.8,73.125 1531.6438,73.8125 Q1532.4875,74.5 1533.9875,74.5 Q1534.8781,74.5 1535.5031,74.2969 Q1535.8625,74.1875 1536.2688,73.8281 Q1536.5344,73.625 1536.675,73.5625 Q1536.8156,73.5 1536.9875,73.5 Q1537.3156,73.5 1537.55,73.7656 Q1537.8,74.0156 1537.8,74.375 Q1537.8,74.7188 1537.4563,75.125 Q1536.9563,75.7188 1536.1594,76.0469 Q1535.1125,76.5 1533.8313,76.5 Q1532.3313,76.5 1531.1281,75.9063 Q1530.1594,75.4375 1529.4719,74.4219 Q1528.8,73.4063 1528.8,72.2031 L1528.8,71.1094 Q1528.8,69.8594 1529.3938,68.7656 Q1530.0031,67.6719 1531.05,67.0938 Q1532.1125,66.5 1533.3,66.5 Q1534.0188,66.5 1534.6438,66.75 Q1535.2688,67 1535.8,67.5 Z " fill="#000000"/><text fill="#000000" font-family="sans-serif" font-size="12" lengthAdjust="spacing" textLength="72" x="1548.2" y="75.9102">ShipLocation</text><line style="stroke:#A80036;stroke-width:1.5;" x1="1518" x2="1624" y1="87" y2="87"/><rect fill="none" height="6" style="stroke:#C82930;stroke-width:1.0;" width="6" x="1525" y="95"/><text fill="#000000" font-family="sans-serif" font-size="11" lengthAdjust="spacing" textLength="68" x="1537" y="102.4189">baseDateTime</text><rect fill="none" height="6" style="stroke:#C82930;stroke-width:1.0;" width="6" x="1525" y="108.8359"/><text fill="#000000" font-family="sans-serif" font-size="11" lengthAdjust="spacing" textLength="34" x="1537" y="116.2549">latitude</text><rect fill="none" height="6" style="stroke:#C82930;stroke-width:1.0;" width="6" x="1525" y="122.6719"/><text fill="#000000" font-family="sans-serif" font-size="11" lengthAdjust="spacing" textLength="43" x="1537" y="130.0908">longitude</text><rect fill="none" height="6" style="stroke:#C82930;stroke-width:1.0;" width="6" x="1525" y="136.5078"/><text fill="#000000" font-family="sans-serif" font-size="11" lengthAdjust="spacing" textLength="23" x="1537" y="143.9268">SOG</text><rect fill="none" height="6" style="stroke:#C82930;stroke-width:1.0;" width="6" x="1525" y="150.3438"/><text fill="#000000" font-family="sans-serif" font-size="11" lengthAdjust="spacing" textLength="23" x="1537" y="157.7627">COG</text><rect fill="none" height="6" style="stroke:#C82930;stroke-width:1.0;" width="6" x="1525" y="164.1797"/><text fill="#000000" font-family="sans-serif" font-size="11" lengthAdjust="spacing" textLength="38" x="1537" y="171.5986">heading</text><rect fill="none" height="6" style="stroke:#C82930;stroke-width:1.0;" width="6" x="1525" y="178.0156"/><text fill="#000000" font-family="sans-serif" font-size="11" lengthAdjust="spacing" textLength="37" x="1537" y="185.4346">position</text><rect fill="none" height="6" style="stroke:#C82930;stroke-width:1.0;" width="6" x="1525" y="191.8516"/><text fill="#000000" font-family="sans-serif" font-size="11" lengthAdjust="spacing" textLength="82" x="1537" y="199.2705">transceiverClass</text><line style="stroke:#A80036;stroke-width:1.5;" x1="1518" x2="1624" y1="205.6875" y2="205.6875"/><!--MD5=[44870eba88b8d6183fea351333848730]
class ShipLocationBST--><rect codeLine="52" fill="#FEFECE" filter="url(#fm244tw70grt2)" height="61.8359" id="ShipLocationBST" style="stroke:#A80036;stroke-width:1.5;" width="127" x="1294" y="103.5"/><ellipse cx="1309" cy="119.5" fill="#ADD1B2" rx="11" ry="11" style="stroke:#A80036;stroke-width:1.0;"/><path d="M1311,116 Q1311.2031,115.5 1311.4375,115.25 Q1311.6719,115 1311.9375,115 Q1312.4063,115 1312.7031,115.2813 Q1313,115.5625 1313,116.2188 L1313,117.7813 Q1313,118.4375 1312.7188,118.7188 Q1312.4375,119 1312,119 Q1311.6094,119 1311.3594,118.8281 Q1311.1094,118.6563 1311,118.2031 Q1310.9531,117.8906 1310.7813,117.7188 Q1310.4688,117.3906 1309.9063,117.2031 Q1309.3438,117 1308.7813,117 Q1308.0781,117 1307.4844,117.2813 Q1306.9063,117.5625 1306.4531,118.1875 Q1306,118.8125 1306,119.6719 L1306,120.5938 Q1306,121.625 1306.8438,122.3125 Q1307.6875,123 1309.1875,123 Q1310.0781,123 1310.7031,122.7969 Q1311.0625,122.6875 1311.4688,122.3281 Q1311.7344,122.125 1311.875,122.0625 Q1312.0156,122 1312.1875,122 Q1312.5156,122 1312.75,122.2656 Q1313,122.5156 1313,122.875 Q1313,123.2188 1312.6563,123.625 Q1312.1563,124.2188 1311.3594,124.5469 Q1310.3125,125 1309.0313,125 Q1307.5313,125 1306.3281,124.4063 Q1305.3594,123.9375 1304.6719,122.9219 Q1304,121.9063 1304,120.7031 L1304,119.6094 Q1304,118.3594 1304.5938,117.2656 Q1305.2031,116.1719 1306.25,115.5938 Q1307.3125,115 1308.5,115 Q1309.2188,115 1309.8438,115.25 Q1310.4688,115.5 1311,116 Z " fill="#000000"/><text fill="#000000" font-family="sans-serif" font-size="12" lengthAdjust="spacing" textLength="95" x="1323" y="124.4102">ShipLocationBST</text><line style="stroke:#A80036;stroke-width:1.5;" x1="1295" x2="1420" y1="135.5" y2="135.5"/><line style="stroke:#A80036;stroke-width:1.5;" x1="1295" x2="1420" y1="143.5" y2="143.5"/><rect fill="#F24D5C" height="6" style="stroke:#C82930;stroke-width:1.0;" width="6" x="1302" y="151.5"/><text fill="#000000" font-family="sans-serif" font-size="11" lengthAdjust="spacing" textLength="96" x="1314" y="158.9189">insert(shipLocation)</text><!--MD5=[b5b6c86a063960d0027bc1719947b1c8]
class BstShip--><rect codeLine="56" fill="#FEFECE" filter="url(#fm244tw70grt2)" height="75.6719" id="BstShip" style="stroke:#A80036;stroke-width:1.5;" width="157" x="787" y="96.5"/><ellipse cx="839.75" cy="112.5" fill="#ADD1B2" rx="11" ry="11" style="stroke:#A80036;stroke-width:1.0;"/><path d="M841.75,109 Q841.9531,108.5 842.1875,108.25 Q842.4219,108 842.6875,108 Q843.1563,108 843.4531,108.2813 Q843.75,108.5625 843.75,109.2188 L843.75,110.7813 Q843.75,111.4375 843.4688,111.7188 Q843.1875,112 842.75,112 Q842.3594,112 842.1094,111.8281 Q841.8594,111.6563 841.75,111.2031 Q841.7031,110.8906 841.5313,110.7188 Q841.2188,110.3906 840.6563,110.2031 Q840.0938,110 839.5313,110 Q838.8281,110 838.2344,110.2813 Q837.6563,110.5625 837.2031,111.1875 Q836.75,111.8125 836.75,112.6719 L836.75,113.5938 Q836.75,114.625 837.5938,115.3125 Q838.4375,116 839.9375,116 Q840.8281,116 841.4531,115.7969 Q841.8125,115.6875 842.2188,115.3281 Q842.4844,115.125 842.625,115.0625 Q842.7656,115 842.9375,115 Q843.2656,115 843.5,115.2656 Q843.75,115.5156 843.75,115.875 Q843.75,116.2188 843.4063,116.625 Q842.9063,117.2188 842.1094,117.5469 Q841.0625,118 839.7813,118 Q838.2813,118 837.0781,117.4063 Q836.1094,116.9375 835.4219,115.9219 Q834.75,114.9063 834.75,113.7031 L834.75,112.6094 Q834.75,111.3594 835.3438,110.2656 Q835.9531,109.1719 837,108.5938 Q838.0625,108 839.25,108 Q839.9688,108 840.5938,108.25 Q841.2188,108.5 841.75,109 Z " fill="#000000"/><text fill="#000000" font-family="sans-serif" font-size="12" lengthAdjust="spacing" textLength="43" x="860.25" y="117.4102">BstShip</text><line style="stroke:#A80036;stroke-width:1.5;" x1="788" x2="943" y1="128.5" y2="128.5"/><line style="stroke:#A80036;stroke-width:1.5;" x1="788" x2="943" y1="136.5" y2="136.5"/><rect fill="#F24D5C" height="6" style="stroke:#C82930;stroke-width:1.0;" width="6" x="795" y="144.5"/><text fill="#000000" font-family="sans-serif" font-size="11" lengthAdjust="spacing" textLength="131" x="807" y="151.9189">getShipByMmsiCode(MMSI)</text><rect fill="#F24D5C" height="6" style="stroke:#C82930;stroke-width:1.0;" width="6" x="795" y="158.3359"/><text fill="#000000" font-family="sans-serif" font-size="11" lengthAdjust="spacing" textLength="55" x="807" y="165.7549">insert(ship)</text><!--MD5=[53ce2e8bf530494d610a04b4b10cd9d1]
link ImportShipUI to ImportShipController--><path codeLine="63" d="M111.46,134.5 C128.51,134.5 147.91,134.5 166.58,134.5 " fill="none" id="ImportShipUI-to-ImportShipController" style="stroke:#A80036;stroke-width:1.0;stroke-dasharray:7.0,7.0;"/><polygon fill="#A80036" points="171.82,134.5,162.82,130.5,166.82,134.5,162.82,138.5,171.82,134.5" style="stroke:#A80036;stroke-width:1.0;"/><!--MD5=[87c145bcf280b307bfe7711f70b00160]
link ImportShipController to Company--><path codeLine="65" d="M323.07,134.5 C341.67,134.5 361.26,134.5 378.63,134.5 " fill="none" id="ImportShipController-to-Company" style="stroke:#A80036;stroke-width:1.0;stroke-dasharray:7.0,7.0;"/><polygon fill="#A80036" points="383.95,134.5,374.95,130.5,378.95,134.5,374.95,138.5,383.95,134.5" style="stroke:#A80036;stroke-width:1.0;"/><!--MD5=[4b6f3fd2ee3d7707b5278205c405f62c]
link ImportShip to BstShip--><path codeLine="67" d="M684.18,74.52 C713.9,84.41 752.71,97.32 786.71,108.63 " fill="none" id="ImportShip-BstShip" style="stroke:#A80036;stroke-width:1.0;"/><polygon fill="#000000" points="723.7443,77.2541,716.0895,71.6102,714.234,77.1875,723.7443,77.2541" style="stroke:#000000;stroke-width:1.0;"/><text fill="#000000" font-family="sans-serif" font-size="13" lengthAdjust="spacing" textLength="28" x="728" y="80.9951">uses</text><text fill="#000000" font-family="sans-serif" font-size="13" lengthAdjust="spacing" textLength="7" x="691.9174" y="91.5436">1</text><text fill="#000000" font-family="sans-serif" font-size="13" lengthAdjust="spacing" textLength="7" x="772.1239" y="120.5091">1</text><!--MD5=[14fdb76946ac0c0eabf5d41702e30a18]
link Company to BstShip--><path codeLine="69" d="M483.23,138.94 C512.91,141.42 551.61,144.25 586,145.5 C653.82,147.96 730.92,144.42 786.77,140.72 " fill="none" id="Company-BstShip" style="stroke:#A80036;stroke-width:1.0;"/><polygon fill="#000000" points="622.4999,136.7051,613.4722,133.7132,613.4378,139.5909,622.4999,136.7051" style="stroke:#000000;stroke-width:1.0;"/><text fill="#000000" font-family="sans-serif" font-size="13" lengthAdjust="spacing" textLength="30" x="626.5" y="141.9951">owns</text><text fill="#000000" font-family="sans-serif" font-size="13" lengthAdjust="spacing" textLength="7" x="491.0482" y="154.3242">1</text><text fill="#000000" font-family="sans-serif" font-size="13" lengthAdjust="spacing" textLength="7" x="771.9325" y="155.6029">1</text><!--MD5=[4d4214124fc7542d980390b9fb881a9c]
link Company to ImportShip--><path codeLine="71" d="M483.05,116.01 C514.3,104.1 554.76,88.69 585.93,76.81 " fill="none" id="Company-ImportShip" style="stroke:#A80036;stroke-width:1.0;"/><polygon fill="#000000" points="522.6723,78.8955,513.1736,79.3697,515.2664,84.8624,522.6723,78.8955" style="stroke:#000000;stroke-width:1.0;"/><text fill="#000000" font-family="sans-serif" font-size="13" lengthAdjust="spacing" textLength="28" x="527" y="85.9951">uses</text><text fill="#000000" font-family="sans-serif" font-size="13" lengthAdjust="spacing" textLength="7" x="490.8417" y="128.0264">1</text><text fill="#000000" font-family="sans-serif" font-size="13" lengthAdjust="spacing" textLength="7" x="570.8802" y="94.3344">1</text><!--MD5=[42c269113f15bf3b39a3f95e82b93e8f]
link BstShip to Ship--><path codeLine="73" d="M944.29,134.5 C974.83,134.5 1009.73,134.5 1039.95,134.5 " fill="none" id="BstShip-Ship" style="stroke:#A80036;stroke-width:1.0;"/><polygon fill="#000000" points="984,125.6758,974.9549,122.7369,974.9549,128.6147,984,125.6758" style="stroke:#000000;stroke-width:1.0;"/><text fill="#000000" font-family="sans-serif" font-size="13" lengthAdjust="spacing" textLength="21" x="988" y="130.9951">has</text><text fill="#000000" font-family="sans-serif" font-size="13" lengthAdjust="spacing" textLength="7" x="951.8761" y="148.7639">1</text><text fill="#000000" font-family="sans-serif" font-size="13" lengthAdjust="spacing" textLength="20" x="1012.0634" y="148.7549">1..*</text><!--MD5=[da82a26002d83bc84a8d0ff7e6a1d871]
link Ship to ShipLocationBST--><path codeLine="75" d="M1191.12,134.5 C1224.01,134.5 1262.23,134.5 1293.64,134.5 " fill="none" id="Ship-ShipLocationBST" style="stroke:#A80036;stroke-width:1.0;"/><polygon fill="#000000" points="1231,125.6758,1221.9549,122.7369,1221.9549,128.6147,1231,125.6758" style="stroke:#000000;stroke-width:1.0;"/><text fill="#000000" font-family="sans-serif" font-size="13" lengthAdjust="spacing" textLength="28" x="1235" y="130.9951">uses</text><text fill="#000000" font-family="sans-serif" font-size="13" lengthAdjust="spacing" textLength="7" x="1198.9084" y="148.8065">1</text><text fill="#000000" font-family="sans-serif" font-size="13" lengthAdjust="spacing" textLength="7" x="1278.8515" y="148.9499">1</text><!--MD5=[7d0be1610fef1464a18ff24c07f1ca9d]
link ShipLocationBST to ShipLocation--><path codeLine="77" d="M1421.1,134.5 C1451.55,134.5 1487.77,134.5 1516.85,134.5 " fill="none" id="ShipLocationBST-ShipLocation" style="stroke:#A80036;stroke-width:1.0;"/><polygon fill="#000000" points="1461,125.6758,1451.9549,122.7369,1451.9549,128.6147,1461,125.6758" style="stroke:#000000;stroke-width:1.0;"/><text fill="#000000" font-family="sans-serif" font-size="13" lengthAdjust="spacing" textLength="21" x="1465" y="130.9951">has</text><text fill="#000000" font-family="sans-serif" font-size="13" lengthAdjust="spacing" textLength="7" x="1428.8584" y="148.9499">1</text><text fill="#000000" font-family="sans-serif" font-size="13" lengthAdjust="spacing" textLength="20" x="1489.0317" y="149.0106">1..*</text><!--MD5=[cf38f7b03f6c455ed08fdb0c9eaa4d26]
@startuml
left to right direction


class Company{
-designation
-getBstShip()
-getImportShip()
}

class Ship {
-MMSI
-name
-shipID
-numberEnergyGenerators
-generatorPower
-callSign
-vesselType
-length
-width
-capacity
-draft
-setMMSI()
-getShipPosition()
}

class ImportShip{
-getFile()
-convertShips()
-getLineArray()
-createShip()
}

class ImportShipController{
-importFile(String fileName)
-importShips()
}

class ImportShipUI{
}

class ShipLocation{
-baseDateTime
-latitude
-longitude
-SOG
-COG
-heading
-position
-transceiverClass
}

class ShipLocationBST{
-insert(shipLocation)
}

class BstShip{
-getShipByMmsiCode(MMSI)
-insert(ship)
}



ImportShipUI ..> ImportShipController

ImportShipController ..> Company

ImportShip "1" - - "1" BstShip : uses >

Company "1" - - "1" BstShip : owns >

Company "1" - - "1" ImportShip : uses >

BstShip "1" - - "1..*" Ship : has >

Ship "1" - - "1" ShipLocationBST : uses >

ShipLocationBST "1" - - "1..*" ShipLocation : has >



@enduml

PlantUML version 1.2021.11(Sat Oct 02 14:26:11 BST 2021)
(GPL source distribution)
Java Runtime: OpenJDK Runtime Environment
JVM: OpenJDK 64-Bit Server VM
Default Encoding: Cp1252
Language: pt
Country: PT
--></g></svg>