<?xml version="1.0" encoding="UTF-8" standalone="no"?><svg xmlns="http://www.w3.org/2000/svg" xmlns:xlink="http://www.w3.org/1999/xlink" contentScriptType="application/ecmascript" contentStyleType="text/css" height="1168.5px" preserveAspectRatio="none" style="width:1507px;height:1168px;" version="1.1" viewBox="0 0 1507 1168" width="1507.5px" zoomAndPan="magnify"><defs><filter height="300%" id="fnczh372dc1gt" width="300%" x="-1" y="-1"><feGaussianBlur result="blurOut" stdDeviation="3.0"/><feColorMatrix in="blurOut" result="blurOut2" type="matrix" values="0 0 0 0 0 0 0 0 0 0 0 0 0 0 0 0 0 0 .4 0"/><feOffset dx="6.0" dy="6.0" in="blurOut2" result="blurOut3"/><feBlend in="SourceGraphic" in2="blurOut3" mode="normal"/></filter></defs><g><!--MD5=[f398d87fabaa512fdbdd8750b9801b35]
class FindClosestPortUI--><rect codeLine="3" fill="#FEFECE" filter="url(#fnczh372dc1gt)" height="72" id="FindClosestPortUI" style="stroke:#A80036;stroke-width:2.25;" width="199.5" x="590.535" y="10.5"/><ellipse cx="613.035" cy="34.5" fill="#ADD1B2" rx="16.5" ry="16.5" style="stroke:#A80036;stroke-width:1.5;"/><path d="M616.035,29.25 Q616.3397,28.5 616.6912,28.125 Q617.0428,27.75 617.4412,27.75 Q618.1444,27.75 618.5897,28.1719 Q619.035,28.5938 619.035,29.5781 L619.035,31.9219 Q619.035,32.9063 618.6131,33.3281 Q618.1912,33.75 617.535,33.75 Q616.9491,33.75 616.5741,33.4922 Q616.1991,33.2344 616.035,32.5547 Q615.9647,32.0859 615.7069,31.8281 Q615.2381,31.3359 614.3944,31.0547 Q613.5506,30.75 612.7069,30.75 Q611.6522,30.75 610.7616,31.1719 Q609.8944,31.5938 609.2147,32.5313 Q608.535,33.4688 608.535,34.7578 L608.535,36.1406 Q608.535,37.6875 609.8006,38.7188 Q611.0662,39.75 613.3162,39.75 Q614.6522,39.75 615.5897,39.4453 Q616.1287,39.2813 616.7381,38.7422 Q617.1366,38.4375 617.3475,38.3438 Q617.5584,38.25 617.8162,38.25 Q618.3084,38.25 618.66,38.6484 Q619.035,39.0234 619.035,39.5625 Q619.035,40.0781 618.5194,40.6875 Q617.7694,41.5781 616.5741,42.0703 Q615.0037,42.75 613.0819,42.75 Q610.8319,42.75 609.0272,41.8594 Q607.5741,41.1563 606.5428,39.6328 Q605.535,38.1094 605.535,36.3047 L605.535,34.6641 Q605.535,32.7891 606.4256,31.1484 Q607.3397,29.5078 608.91,28.6406 Q610.5037,27.75 612.285,27.75 Q613.3631,27.75 614.3006,28.125 Q615.2381,28.5 616.035,29.25 Z " fill="#000000"/><text fill="#000000" font-family="sans-serif" font-size="18" lengthAdjust="spacing" textLength="151.5" x="634.035" y="41.8652">FindClosestPortUI</text><line style="stroke:#A80036;stroke-width:2.25;" x1="592.035" x2="788.535" y1="58.5" y2="58.5"/><line style="stroke:#A80036;stroke-width:2.25;" x1="592.035" x2="788.535" y1="70.5" y2="70.5"/><!--MD5=[ece3d410acf7c62c5f936bff9ee27dc6]
class FindClosestPortController--><rect codeLine="5" fill="#FEFECE" filter="url(#fnczh372dc1gt)" height="92.7539" id="FindClosestPortController" style="stroke:#A80036;stroke-width:2.25;" width="262.5" x="559.035" y="174"/><ellipse cx="581.535" cy="198" fill="#ADD1B2" rx="16.5" ry="16.5" style="stroke:#A80036;stroke-width:1.5;"/><path d="M584.535,192.75 Q584.8397,192 585.1912,191.625 Q585.5428,191.25 585.9412,191.25 Q586.6444,191.25 587.0897,191.6719 Q587.535,192.0938 587.535,193.0781 L587.535,195.4219 Q587.535,196.4063 587.1131,196.8281 Q586.6912,197.25 586.035,197.25 Q585.4491,197.25 585.0741,196.9922 Q584.6991,196.7344 584.535,196.0547 Q584.4647,195.5859 584.2069,195.3281 Q583.7381,194.8359 582.8944,194.5547 Q582.0506,194.25 581.2069,194.25 Q580.1522,194.25 579.2616,194.6719 Q578.3944,195.0938 577.7147,196.0313 Q577.035,196.9688 577.035,198.2578 L577.035,199.6406 Q577.035,201.1875 578.3006,202.2188 Q579.5662,203.25 581.8162,203.25 Q583.1522,203.25 584.0897,202.9453 Q584.6287,202.7813 585.2381,202.2422 Q585.6366,201.9375 585.8475,201.8438 Q586.0584,201.75 586.3162,201.75 Q586.8084,201.75 587.16,202.1484 Q587.535,202.5234 587.535,203.0625 Q587.535,203.5781 587.0194,204.1875 Q586.2694,205.0781 585.0741,205.5703 Q583.5037,206.25 581.5819,206.25 Q579.3319,206.25 577.5272,205.3594 Q576.0741,204.6563 575.0428,203.1328 Q574.035,201.6094 574.035,199.8047 L574.035,198.1641 Q574.035,196.2891 574.9256,194.6484 Q575.8397,193.0078 577.41,192.1406 Q579.0037,191.25 580.785,191.25 Q581.8631,191.25 582.8006,191.625 Q583.7381,192 584.535,192.75 Z " fill="#000000"/><text fill="#000000" font-family="sans-serif" font-size="18" lengthAdjust="spacing" textLength="214.5" x="602.535" y="205.3652">FindClosestPortController</text><line style="stroke:#A80036;stroke-width:2.25;" x1="560.535" x2="820.035" y1="222" y2="222"/><line style="stroke:#A80036;stroke-width:2.25;" x1="560.535" x2="820.035" y1="234" y2="234"/><rect fill="#F24D5C" height="9" style="stroke:#C82930;stroke-width:1.5;" width="9" x="571.035" y="246"/><text fill="#000000" font-family="sans-serif" font-size="16.5" lengthAdjust="spacing" textLength="217.5" x="589.035" y="257.1284">findClosestPort(callSign, date)</text><!--MD5=[02e4b9b7573f1156f41e60aa5b4e25a4]
class Company--><rect codeLine="10" fill="#FEFECE" filter="url(#fnczh372dc1gt)" height="134.2617" id="Company" style="stroke:#A80036;stroke-width:2.25;" width="129" x="409.785" y="358.5"/><ellipse cx="432.96" cy="382.5" fill="#ADD1B2" rx="16.5" ry="16.5" style="stroke:#A80036;stroke-width:1.5;"/><path d="M435.96,377.25 Q436.2647,376.5 436.6163,376.125 Q436.9678,375.75 437.3663,375.75 Q438.0694,375.75 438.5147,376.1719 Q438.96,376.5938 438.96,377.5781 L438.96,379.9219 Q438.96,380.9063 438.5381,381.3281 Q438.1163,381.75 437.46,381.75 Q436.8741,381.75 436.4991,381.4922 Q436.1241,381.2344 435.96,380.5547 Q435.8897,380.0859 435.6319,379.8281 Q435.1631,379.3359 434.3194,379.0547 Q433.4756,378.75 432.6319,378.75 Q431.5772,378.75 430.6866,379.1719 Q429.8194,379.5938 429.1397,380.5313 Q428.46,381.4688 428.46,382.7578 L428.46,384.1406 Q428.46,385.6875 429.7256,386.7188 Q430.9913,387.75 433.2413,387.75 Q434.5772,387.75 435.5147,387.4453 Q436.0538,387.2813 436.6631,386.7422 Q437.0616,386.4375 437.2725,386.3438 Q437.4834,386.25 437.7413,386.25 Q438.2334,386.25 438.585,386.6484 Q438.96,387.0234 438.96,387.5625 Q438.96,388.0781 438.4444,388.6875 Q437.6944,389.5781 436.4991,390.0703 Q434.9288,390.75 433.0069,390.75 Q430.7569,390.75 428.9522,389.8594 Q427.4991,389.1563 426.4678,387.6328 Q425.46,386.1094 425.46,384.3047 L425.46,382.6641 Q425.46,380.7891 426.3506,379.1484 Q427.2647,377.5078 428.835,376.6406 Q430.4288,375.75 432.21,375.75 Q433.2881,375.75 434.2256,376.125 Q435.1631,376.5 435.96,377.25 Z " fill="#000000"/><text fill="#000000" font-family="sans-serif" font-size="18" lengthAdjust="spacing" textLength="79.5" x="454.11" y="389.8652">Company</text><line style="stroke:#A80036;stroke-width:2.25;" x1="411.285" x2="537.285" y1="406.5" y2="406.5"/><rect fill="none" height="9" style="stroke:#C82930;stroke-width:1.5;" width="9" x="421.785" y="418.5"/><text fill="#000000" font-family="sans-serif" font-size="16.5" lengthAdjust="spacing" textLength="82.5" x="439.785" y="429.6284">designation</text><line style="stroke:#A80036;stroke-width:2.25;" x1="411.285" x2="537.285" y1="439.2539" y2="439.2539"/><rect fill="#F24D5C" height="9" style="stroke:#C82930;stroke-width:1.5;" width="9" x="421.785" y="451.2539"/><text fill="#000000" font-family="sans-serif" font-size="16.5" lengthAdjust="spacing" textLength="90" x="439.785" y="462.3823">getBstShip()</text><rect fill="#F24D5C" height="9" style="stroke:#C82930;stroke-width:1.5;" width="9" x="421.785" y="472.0078"/><text fill="#000000" font-family="sans-serif" font-size="16.5" lengthAdjust="spacing" textLength="84" x="439.785" y="483.1362">getPortStr()</text><!--MD5=[b5b6c86a063960d0027bc1719947b1c8]
class BstShip--><rect codeLine="16" fill="#FEFECE" filter="url(#fnczh372dc1gt)" height="92.7539" id="BstShip" style="stroke:#A80036;stroke-width:2.25;" width="237" x="120.285" y="379.5"/><ellipse cx="200.16" cy="403.5" fill="#ADD1B2" rx="16.5" ry="16.5" style="stroke:#A80036;stroke-width:1.5;"/><path d="M203.16,398.25 Q203.4647,397.5 203.8163,397.125 Q204.1678,396.75 204.5663,396.75 Q205.2694,396.75 205.7147,397.1719 Q206.16,397.5938 206.16,398.5781 L206.16,400.9219 Q206.16,401.9063 205.7381,402.3281 Q205.3163,402.75 204.66,402.75 Q204.0741,402.75 203.6991,402.4922 Q203.3241,402.2344 203.16,401.5547 Q203.0897,401.0859 202.8319,400.8281 Q202.3631,400.3359 201.5194,400.0547 Q200.6756,399.75 199.8319,399.75 Q198.7772,399.75 197.8866,400.1719 Q197.0194,400.5938 196.3397,401.5313 Q195.66,402.4688 195.66,403.7578 L195.66,405.1406 Q195.66,406.6875 196.9256,407.7188 Q198.1913,408.75 200.4413,408.75 Q201.7772,408.75 202.7147,408.4453 Q203.2538,408.2813 203.8631,407.7422 Q204.2616,407.4375 204.4725,407.3438 Q204.6834,407.25 204.9413,407.25 Q205.4334,407.25 205.785,407.6484 Q206.16,408.0234 206.16,408.5625 Q206.16,409.0781 205.6444,409.6875 Q204.8944,410.5781 203.6991,411.0703 Q202.1288,411.75 200.2069,411.75 Q197.9569,411.75 196.1522,410.8594 Q194.6991,410.1563 193.6678,408.6328 Q192.66,407.1094 192.66,405.3047 L192.66,403.6641 Q192.66,401.7891 193.5506,400.1484 Q194.4647,398.5078 196.035,397.6406 Q197.6288,396.75 199.41,396.75 Q200.4881,396.75 201.4256,397.125 Q202.3631,397.5 203.16,398.25 Z " fill="#000000"/><text fill="#000000" font-family="sans-serif" font-size="18" lengthAdjust="spacing" textLength="64.5" x="230.91" y="410.8652">BstShip</text><line style="stroke:#A80036;stroke-width:2.25;" x1="121.785" x2="355.785" y1="427.5" y2="427.5"/><line style="stroke:#A80036;stroke-width:2.25;" x1="121.785" x2="355.785" y1="439.5" y2="439.5"/><rect fill="#F24D5C" height="9" style="stroke:#C82930;stroke-width:1.5;" width="9" x="132.285" y="451.5"/><text fill="#000000" font-family="sans-serif" font-size="16.5" lengthAdjust="spacing" textLength="198" x="150.285" y="462.6284">getShipByCallSign(callSign)</text><!--MD5=[0dc7f2ddb409b58bcf52b12238c25399]
class Ship--><rect codeLine="20" fill="#FEFECE" filter="url(#fnczh372dc1gt)" height="92.7539" id="Ship" style="stroke:#A80036;stroke-width:2.25;" width="160.5" x="251.535" y="676.5"/><ellipse cx="307.785" cy="700.5" fill="#ADD1B2" rx="16.5" ry="16.5" style="stroke:#A80036;stroke-width:1.5;"/><path d="M310.785,695.25 Q311.0897,694.5 311.4412,694.125 Q311.7928,693.75 312.1912,693.75 Q312.8944,693.75 313.3397,694.1719 Q313.785,694.5938 313.785,695.5781 L313.785,697.9219 Q313.785,698.9063 313.3631,699.3281 Q312.9412,699.75 312.285,699.75 Q311.6991,699.75 311.3241,699.4922 Q310.9491,699.2344 310.785,698.5547 Q310.7147,698.0859 310.4569,697.8281 Q309.9881,697.3359 309.1444,697.0547 Q308.3006,696.75 307.4569,696.75 Q306.4022,696.75 305.5116,697.1719 Q304.6444,697.5938 303.9647,698.5313 Q303.285,699.4688 303.285,700.7578 L303.285,702.1406 Q303.285,703.6875 304.5506,704.7188 Q305.8162,705.75 308.0662,705.75 Q309.4022,705.75 310.3397,705.4453 Q310.8787,705.2813 311.4881,704.7422 Q311.8866,704.4375 312.0975,704.3438 Q312.3084,704.25 312.5662,704.25 Q313.0584,704.25 313.41,704.6484 Q313.785,705.0234 313.785,705.5625 Q313.785,706.0781 313.2694,706.6875 Q312.5194,707.5781 311.3241,708.0703 Q309.7537,708.75 307.8319,708.75 Q305.5819,708.75 303.7772,707.8594 Q302.3241,707.1563 301.2928,705.6328 Q300.285,704.1094 300.285,702.3047 L300.285,700.6641 Q300.285,698.7891 301.1756,697.1484 Q302.0897,695.5078 303.66,694.6406 Q305.2537,693.75 307.035,693.75 Q308.1131,693.75 309.0506,694.125 Q309.9881,694.5 310.785,695.25 Z " fill="#000000"/><text fill="#000000" font-family="sans-serif" font-size="18" lengthAdjust="spacing" textLength="37.5" x="336.285" y="707.8652">Ship</text><line style="stroke:#A80036;stroke-width:2.25;" x1="253.035" x2="410.535" y1="724.5" y2="724.5"/><line style="stroke:#A80036;stroke-width:2.25;" x1="253.035" x2="410.535" y1="736.5" y2="736.5"/><rect fill="#F24D5C" height="9" style="stroke:#C82930;stroke-width:1.5;" width="9" x="263.535" y="748.5"/><text fill="#000000" font-family="sans-serif" font-size="16.5" lengthAdjust="spacing" textLength="121.5" x="281.535" y="759.6284">getShipPosition()</text><!--MD5=[44870eba88b8d6183fea351333848730]
class ShipLocationBST--><rect codeLine="24" fill="#FEFECE" filter="url(#fnczh372dc1gt)" height="92.7539" id="ShipLocationBST" style="stroke:#A80036;stroke-width:2.25;" width="198" x="591.285" y="379.5"/><ellipse cx="617.16" cy="403.5" fill="#ADD1B2" rx="16.5" ry="16.5" style="stroke:#A80036;stroke-width:1.5;"/><path d="M620.16,398.25 Q620.4647,397.5 620.8162,397.125 Q621.1678,396.75 621.5662,396.75 Q622.2694,396.75 622.7147,397.1719 Q623.16,397.5938 623.16,398.5781 L623.16,400.9219 Q623.16,401.9063 622.7381,402.3281 Q622.3162,402.75 621.66,402.75 Q621.0741,402.75 620.6991,402.4922 Q620.3241,402.2344 620.16,401.5547 Q620.0897,401.0859 619.8319,400.8281 Q619.3631,400.3359 618.5194,400.0547 Q617.6756,399.75 616.8319,399.75 Q615.7772,399.75 614.8866,400.1719 Q614.0194,400.5938 613.3397,401.5313 Q612.66,402.4688 612.66,403.7578 L612.66,405.1406 Q612.66,406.6875 613.9256,407.7188 Q615.1912,408.75 617.4412,408.75 Q618.7772,408.75 619.7147,408.4453 Q620.2537,408.2813 620.8631,407.7422 Q621.2616,407.4375 621.4725,407.3438 Q621.6834,407.25 621.9412,407.25 Q622.4334,407.25 622.785,407.6484 Q623.16,408.0234 623.16,408.5625 Q623.16,409.0781 622.6444,409.6875 Q621.8944,410.5781 620.6991,411.0703 Q619.1287,411.75 617.2069,411.75 Q614.9569,411.75 613.1522,410.8594 Q611.6991,410.1563 610.6678,408.6328 Q609.66,407.1094 609.66,405.3047 L609.66,403.6641 Q609.66,401.7891 610.5506,400.1484 Q611.4647,398.5078 613.035,397.6406 Q614.6287,396.75 616.41,396.75 Q617.4881,396.75 618.4256,397.125 Q619.3631,397.5 620.16,398.25 Z " fill="#000000"/><text fill="#000000" font-family="sans-serif" font-size="18" lengthAdjust="spacing" textLength="142.5" x="638.91" y="410.8652">ShipLocationBST</text><line style="stroke:#A80036;stroke-width:2.25;" x1="592.785" x2="787.785" y1="427.5" y2="427.5"/><line style="stroke:#A80036;stroke-width:2.25;" x1="592.785" x2="787.785" y1="439.5" y2="439.5"/><rect fill="#F24D5C" height="9" style="stroke:#C82930;stroke-width:1.5;" width="9" x="603.285" y="451.5"/><text fill="#000000" font-family="sans-serif" font-size="16.5" lengthAdjust="spacing" textLength="159" x="621.285" y="462.6284">getShipLocation(date)</text><!--MD5=[efa7c3600894dd6faaa8b816738c33b1]
class ShipLocation--><rect codeLine="28" fill="#FEFECE" filter="url(#fnczh372dc1gt)" height="72" id="ShipLocation" style="stroke:#A80036;stroke-width:2.25;" width="156" x="240.285" y="886.5"/><ellipse cx="262.785" cy="910.5" fill="#ADD1B2" rx="16.5" ry="16.5" style="stroke:#A80036;stroke-width:1.5;"/><path d="M265.785,905.25 Q266.0897,904.5 266.4412,904.125 Q266.7928,903.75 267.1912,903.75 Q267.8944,903.75 268.3397,904.1719 Q268.785,904.5938 268.785,905.5781 L268.785,907.9219 Q268.785,908.9063 268.3631,909.3281 Q267.9412,909.75 267.285,909.75 Q266.6991,909.75 266.3241,909.4922 Q265.9491,909.2344 265.785,908.5547 Q265.7147,908.0859 265.4569,907.8281 Q264.9881,907.3359 264.1444,907.0547 Q263.3006,906.75 262.4569,906.75 Q261.4022,906.75 260.5116,907.1719 Q259.6444,907.5938 258.9647,908.5313 Q258.285,909.4688 258.285,910.7578 L258.285,912.1406 Q258.285,913.6875 259.5506,914.7188 Q260.8162,915.75 263.0662,915.75 Q264.4022,915.75 265.3397,915.4453 Q265.8787,915.2813 266.4881,914.7422 Q266.8866,914.4375 267.0975,914.3438 Q267.3084,914.25 267.5662,914.25 Q268.0584,914.25 268.41,914.6484 Q268.785,915.0234 268.785,915.5625 Q268.785,916.0781 268.2694,916.6875 Q267.5194,917.5781 266.3241,918.0703 Q264.7537,918.75 262.8319,918.75 Q260.5819,918.75 258.7772,917.8594 Q257.3241,917.1563 256.2928,915.6328 Q255.285,914.1094 255.285,912.3047 L255.285,910.6641 Q255.285,908.7891 256.1756,907.1484 Q257.0897,905.5078 258.66,904.6406 Q260.2537,903.75 262.035,903.75 Q263.1131,903.75 264.0506,904.125 Q264.9881,904.5 265.785,905.25 Z " fill="#000000"/><text fill="#000000" font-family="sans-serif" font-size="18" lengthAdjust="spacing" textLength="108" x="283.785" y="917.8652">ShipLocation</text><line style="stroke:#A80036;stroke-width:2.25;" x1="241.785" x2="394.785" y1="934.5" y2="934.5"/><line style="stroke:#A80036;stroke-width:2.25;" x1="241.785" x2="394.785" y1="946.5" y2="946.5"/><!--MD5=[ea13aecf8df941b18fb8e3885c78c184]
class Ports--><rect codeLine="32" fill="#FEFECE" filter="url(#fnczh372dc1gt)" height="72" id="Ports" style="stroke:#A80036;stroke-width:2.25;" width="91.5" x="485.535" y="886.5"/><ellipse cx="508.035" cy="910.5" fill="#ADD1B2" rx="16.5" ry="16.5" style="stroke:#A80036;stroke-width:1.5;"/><path d="M511.035,905.25 Q511.3397,904.5 511.6912,904.125 Q512.0428,903.75 512.4412,903.75 Q513.1444,903.75 513.5897,904.1719 Q514.035,904.5938 514.035,905.5781 L514.035,907.9219 Q514.035,908.9063 513.6131,909.3281 Q513.1912,909.75 512.535,909.75 Q511.9491,909.75 511.5741,909.4922 Q511.1991,909.2344 511.035,908.5547 Q510.9647,908.0859 510.7069,907.8281 Q510.2381,907.3359 509.3944,907.0547 Q508.5506,906.75 507.7069,906.75 Q506.6522,906.75 505.7616,907.1719 Q504.8944,907.5938 504.2147,908.5313 Q503.535,909.4688 503.535,910.7578 L503.535,912.1406 Q503.535,913.6875 504.8006,914.7188 Q506.0662,915.75 508.3162,915.75 Q509.6522,915.75 510.5897,915.4453 Q511.1287,915.2813 511.7381,914.7422 Q512.1366,914.4375 512.3475,914.3438 Q512.5584,914.25 512.8162,914.25 Q513.3084,914.25 513.66,914.6484 Q514.035,915.0234 514.035,915.5625 Q514.035,916.0781 513.5194,916.6875 Q512.7694,917.5781 511.5741,918.0703 Q510.0037,918.75 508.0819,918.75 Q505.8319,918.75 504.0272,917.8594 Q502.5741,917.1563 501.5428,915.6328 Q500.535,914.1094 500.535,912.3047 L500.535,910.6641 Q500.535,908.7891 501.4256,907.1484 Q502.3397,905.5078 503.91,904.6406 Q505.5037,903.75 507.285,903.75 Q508.3631,903.75 509.3006,904.125 Q510.2381,904.5 511.035,905.25 Z " fill="#000000"/><text fill="#000000" font-family="sans-serif" font-size="18" lengthAdjust="spacing" textLength="43.5" x="529.035" y="917.8652">Ports</text><line style="stroke:#A80036;stroke-width:2.25;" x1="487.035" x2="575.535" y1="934.5" y2="934.5"/><line style="stroke:#A80036;stroke-width:2.25;" x1="487.035" x2="575.535" y1="946.5" y2="946.5"/><!--MD5=[f70d2b281f9eefc1b49373c49159755a]
class PortStore--><rect codeLine="37" fill="#FEFECE" filter="url(#fnczh372dc1gt)" height="92.7539" id="PortStore" style="stroke:#A80036;stroke-width:2.25;" width="163.5" x="673.035" y="538.5"/><ellipse cx="713.085" cy="562.5" fill="#ADD1B2" rx="16.5" ry="16.5" style="stroke:#A80036;stroke-width:1.5;"/><path d="M716.085,557.25 Q716.3897,556.5 716.7412,556.125 Q717.0928,555.75 717.4912,555.75 Q718.1944,555.75 718.6397,556.1719 Q719.085,556.5938 719.085,557.5781 L719.085,559.9219 Q719.085,560.9063 718.6631,561.3281 Q718.2412,561.75 717.585,561.75 Q716.9991,561.75 716.6241,561.4922 Q716.2491,561.2344 716.085,560.5547 Q716.0147,560.0859 715.7569,559.8281 Q715.2881,559.3359 714.4444,559.0547 Q713.6006,558.75 712.7569,558.75 Q711.7022,558.75 710.8116,559.1719 Q709.9444,559.5938 709.2647,560.5313 Q708.585,561.4688 708.585,562.7578 L708.585,564.1406 Q708.585,565.6875 709.8506,566.7188 Q711.1162,567.75 713.3662,567.75 Q714.7022,567.75 715.6397,567.4453 Q716.1787,567.2813 716.7881,566.7422 Q717.1866,566.4375 717.3975,566.3438 Q717.6084,566.25 717.8662,566.25 Q718.3584,566.25 718.71,566.6484 Q719.085,567.0234 719.085,567.5625 Q719.085,568.0781 718.5694,568.6875 Q717.8194,569.5781 716.6241,570.0703 Q715.0537,570.75 713.1319,570.75 Q710.8819,570.75 709.0772,569.8594 Q707.6241,569.1563 706.5928,567.6328 Q705.585,566.1094 705.585,564.3047 L705.585,562.6641 Q705.585,560.7891 706.4756,559.1484 Q707.3897,557.5078 708.96,556.6406 Q710.5537,555.75 712.335,555.75 Q713.4131,555.75 714.3506,556.125 Q715.2881,556.5 716.085,557.25 Z " fill="#000000"/><text fill="#000000" font-family="sans-serif" font-size="18" lengthAdjust="spacing" textLength="76.5" x="737.985" y="569.8652">PortStore</text><line style="stroke:#A80036;stroke-width:2.25;" x1="674.535" x2="835.035" y1="586.5" y2="586.5"/><line style="stroke:#A80036;stroke-width:2.25;" x1="674.535" x2="835.035" y1="598.5" y2="598.5"/><rect fill="#F24D5C" height="9" style="stroke:#C82930;stroke-width:1.5;" width="9" x="685.035" y="610.5"/><text fill="#000000" font-family="sans-serif" font-size="16.5" lengthAdjust="spacing" textLength="124.5" x="703.035" y="621.6284">getPorts2DTree()</text><!--MD5=[591897fc66076d66d8e53c84834f2faa]
class Ports2DTree--><rect codeLine="41" fill="#FEFECE" filter="url(#fnczh372dc1gt)" height="92.7539" id="Ports2DTree" style="stroke:#A80036;stroke-width:2.25;" width="333" x="948.285" y="379.5"/><ellipse cx="1055.91" cy="403.5" fill="#ADD1B2" rx="16.5" ry="16.5" style="stroke:#A80036;stroke-width:1.5;"/><path d="M1058.91,398.25 Q1059.2147,397.5 1059.5662,397.125 Q1059.9178,396.75 1060.3162,396.75 Q1061.0194,396.75 1061.4647,397.1719 Q1061.91,397.5938 1061.91,398.5781 L1061.91,400.9219 Q1061.91,401.9063 1061.4881,402.3281 Q1061.0662,402.75 1060.41,402.75 Q1059.8241,402.75 1059.4491,402.4922 Q1059.0741,402.2344 1058.91,401.5547 Q1058.8397,401.0859 1058.5819,400.8281 Q1058.1131,400.3359 1057.2694,400.0547 Q1056.4256,399.75 1055.5819,399.75 Q1054.5272,399.75 1053.6366,400.1719 Q1052.7694,400.5938 1052.0897,401.5313 Q1051.41,402.4688 1051.41,403.7578 L1051.41,405.1406 Q1051.41,406.6875 1052.6756,407.7188 Q1053.9412,408.75 1056.1912,408.75 Q1057.5272,408.75 1058.4647,408.4453 Q1059.0037,408.2813 1059.6131,407.7422 Q1060.0116,407.4375 1060.2225,407.3438 Q1060.4334,407.25 1060.6912,407.25 Q1061.1834,407.25 1061.535,407.6484 Q1061.91,408.0234 1061.91,408.5625 Q1061.91,409.0781 1061.3944,409.6875 Q1060.6444,410.5781 1059.4491,411.0703 Q1057.8787,411.75 1055.9569,411.75 Q1053.7069,411.75 1051.9022,410.8594 Q1050.4491,410.1563 1049.4178,408.6328 Q1048.41,407.1094 1048.41,405.3047 L1048.41,403.6641 Q1048.41,401.7891 1049.3006,400.1484 Q1050.2147,398.5078 1051.785,397.6406 Q1053.3787,396.75 1055.16,396.75 Q1056.2381,396.75 1057.1756,397.125 Q1058.1131,397.5 1058.91,398.25 Z " fill="#000000"/><text fill="#000000" font-family="sans-serif" font-size="18" lengthAdjust="spacing" textLength="105" x="1086.66" y="410.8652">Ports2DTree</text><line style="stroke:#A80036;stroke-width:2.25;" x1="949.785" x2="1279.785" y1="427.5" y2="427.5"/><line style="stroke:#A80036;stroke-width:2.25;" x1="949.785" x2="1279.785" y1="439.5" y2="439.5"/><rect fill="#F24D5C" height="9" style="stroke:#C82930;stroke-width:1.5;" width="9" x="960.285" y="451.5"/><text fill="#000000" font-family="sans-serif" font-size="16.5" lengthAdjust="spacing" textLength="294" x="978.285" y="462.6284">findNearestNeighbour(latitude, longitude)</text><!--MD5=[9ac0f71af410e4e2ba801391d9df81b3]
class PortsMapper--><rect codeLine="45" fill="#FEFECE" filter="url(#fnczh372dc1gt)" height="92.7539" id="PortsMapper" style="stroke:#A80036;stroke-width:2.25;" width="153" x="1333.785" y="379.5"/><ellipse cx="1356.285" cy="403.5" fill="#ADD1B2" rx="16.5" ry="16.5" style="stroke:#A80036;stroke-width:1.5;"/><path d="M1359.285,398.25 Q1359.5897,397.5 1359.9412,397.125 Q1360.2928,396.75 1360.6912,396.75 Q1361.3944,396.75 1361.8397,397.1719 Q1362.285,397.5938 1362.285,398.5781 L1362.285,400.9219 Q1362.285,401.9063 1361.8631,402.3281 Q1361.4412,402.75 1360.785,402.75 Q1360.1991,402.75 1359.8241,402.4922 Q1359.4491,402.2344 1359.285,401.5547 Q1359.2147,401.0859 1358.9569,400.8281 Q1358.4881,400.3359 1357.6444,400.0547 Q1356.8006,399.75 1355.9569,399.75 Q1354.9022,399.75 1354.0116,400.1719 Q1353.1444,400.5938 1352.4647,401.5313 Q1351.785,402.4688 1351.785,403.7578 L1351.785,405.1406 Q1351.785,406.6875 1353.0506,407.7188 Q1354.3162,408.75 1356.5662,408.75 Q1357.9022,408.75 1358.8397,408.4453 Q1359.3787,408.2813 1359.9881,407.7422 Q1360.3866,407.4375 1360.5975,407.3438 Q1360.8084,407.25 1361.0662,407.25 Q1361.5584,407.25 1361.91,407.6484 Q1362.285,408.0234 1362.285,408.5625 Q1362.285,409.0781 1361.7694,409.6875 Q1361.0194,410.5781 1359.8241,411.0703 Q1358.2537,411.75 1356.3319,411.75 Q1354.0819,411.75 1352.2772,410.8594 Q1350.8241,410.1563 1349.7928,408.6328 Q1348.785,407.1094 1348.785,405.3047 L1348.785,403.6641 Q1348.785,401.7891 1349.6756,400.1484 Q1350.5897,398.5078 1352.16,397.6406 Q1353.7537,396.75 1355.535,396.75 Q1356.6131,396.75 1357.5506,397.125 Q1358.4881,397.5 1359.285,398.25 Z " fill="#000000"/><text fill="#000000" font-family="sans-serif" font-size="18" lengthAdjust="spacing" textLength="105" x="1377.285" y="410.8652">PortsMapper</text><line style="stroke:#A80036;stroke-width:2.25;" x1="1335.285" x2="1485.285" y1="427.5" y2="427.5"/><line style="stroke:#A80036;stroke-width:2.25;" x1="1335.285" x2="1485.285" y1="439.5" y2="439.5"/><rect fill="#F24D5C" height="9" style="stroke:#C82930;stroke-width:1.5;" width="9" x="1345.785" y="451.5"/><text fill="#000000" font-family="sans-serif" font-size="16.5" lengthAdjust="spacing" textLength="78" x="1363.785" y="462.6284">toDto(port)</text><!--MD5=[2bcc4683937db28f632bc72c67458500]
class PortsDto--><rect codeLine="49" fill="#FEFECE" filter="url(#fnczh372dc1gt)" height="72" id="PortsDto" style="stroke:#A80036;stroke-width:2.25;" width="120" x="1350.285" y="687"/><ellipse cx="1372.785" cy="711" fill="#ADD1B2" rx="16.5" ry="16.5" style="stroke:#A80036;stroke-width:1.5;"/><path d="M1375.785,705.75 Q1376.0897,705 1376.4412,704.625 Q1376.7928,704.25 1377.1912,704.25 Q1377.8944,704.25 1378.3397,704.6719 Q1378.785,705.0938 1378.785,706.0781 L1378.785,708.4219 Q1378.785,709.4063 1378.3631,709.8281 Q1377.9412,710.25 1377.285,710.25 Q1376.6991,710.25 1376.3241,709.9922 Q1375.9491,709.7344 1375.785,709.0547 Q1375.7147,708.5859 1375.4569,708.3281 Q1374.9881,707.8359 1374.1444,707.5547 Q1373.3006,707.25 1372.4569,707.25 Q1371.4022,707.25 1370.5116,707.6719 Q1369.6444,708.0938 1368.9647,709.0313 Q1368.285,709.9688 1368.285,711.2578 L1368.285,712.6406 Q1368.285,714.1875 1369.5506,715.2188 Q1370.8162,716.25 1373.0662,716.25 Q1374.4022,716.25 1375.3397,715.9453 Q1375.8787,715.7813 1376.4881,715.2422 Q1376.8866,714.9375 1377.0975,714.8438 Q1377.3084,714.75 1377.5662,714.75 Q1378.0584,714.75 1378.41,715.1484 Q1378.785,715.5234 1378.785,716.0625 Q1378.785,716.5781 1378.2694,717.1875 Q1377.5194,718.0781 1376.3241,718.5703 Q1374.7537,719.25 1372.8319,719.25 Q1370.5819,719.25 1368.7772,718.3594 Q1367.3241,717.6563 1366.2928,716.1328 Q1365.285,714.6094 1365.285,712.8047 L1365.285,711.1641 Q1365.285,709.2891 1366.1756,707.6484 Q1367.0897,706.0078 1368.66,705.1406 Q1370.2537,704.25 1372.035,704.25 Q1373.1131,704.25 1374.0506,704.625 Q1374.9881,705 1375.785,705.75 Z " fill="#000000"/><text fill="#000000" font-family="sans-serif" font-size="18" lengthAdjust="spacing" textLength="72" x="1393.785" y="718.3652">PortsDto</text><line style="stroke:#A80036;stroke-width:2.25;" x1="1351.785" x2="1468.785" y1="735" y2="735"/><line style="stroke:#A80036;stroke-width:2.25;" x1="1351.785" x2="1468.785" y1="747" y2="747"/><!--MD5=[9febfb2ff9adfe183e01ff702b9c1c02]
class PlaceLocation--><rect fill="#FEFECE" filter="url(#fnczh372dc1gt)" height="72" id="PlaceLocation" style="stroke:#A80036;stroke-width:2.25;" width="165" x="448.785" y="1075.5"/><ellipse cx="471.285" cy="1099.5" fill="#ADD1B2" rx="16.5" ry="16.5" style="stroke:#A80036;stroke-width:1.5;"/><path d="M474.285,1094.25 Q474.5897,1093.5 474.9412,1093.125 Q475.2928,1092.75 475.6912,1092.75 Q476.3944,1092.75 476.8397,1093.1719 Q477.285,1093.5938 477.285,1094.5781 L477.285,1096.9219 Q477.285,1097.9063 476.8631,1098.3281 Q476.4412,1098.75 475.785,1098.75 Q475.1991,1098.75 474.8241,1098.4922 Q474.4491,1098.2344 474.285,1097.5547 Q474.2147,1097.0859 473.9569,1096.8281 Q473.4881,1096.3359 472.6444,1096.0547 Q471.8006,1095.75 470.9569,1095.75 Q469.9022,1095.75 469.0116,1096.1719 Q468.1444,1096.5938 467.4647,1097.5313 Q466.785,1098.4688 466.785,1099.7578 L466.785,1101.1406 Q466.785,1102.6875 468.0506,1103.7188 Q469.3162,1104.75 471.5662,1104.75 Q472.9022,1104.75 473.8397,1104.4453 Q474.3787,1104.2813 474.9881,1103.7422 Q475.3866,1103.4375 475.5975,1103.3438 Q475.8084,1103.25 476.0662,1103.25 Q476.5584,1103.25 476.91,1103.6484 Q477.285,1104.0234 477.285,1104.5625 Q477.285,1105.0781 476.7694,1105.6875 Q476.0194,1106.5781 474.8241,1107.0703 Q473.2537,1107.75 471.3319,1107.75 Q469.0819,1107.75 467.2772,1106.8594 Q465.8241,1106.1563 464.7928,1104.6328 Q463.785,1103.1094 463.785,1101.3047 L463.785,1099.6641 Q463.785,1097.7891 464.6756,1096.1484 Q465.5897,1094.5078 467.16,1093.6406 Q468.7537,1092.75 470.535,1092.75 Q471.6131,1092.75 472.5506,1093.125 Q473.4881,1093.5 474.285,1094.25 Z " fill="#000000"/><text fill="#000000" font-family="sans-serif" font-size="18" lengthAdjust="spacing" textLength="117" x="492.285" y="1106.8652">PlaceLocation</text><line style="stroke:#A80036;stroke-width:2.25;" x1="450.285" x2="612.285" y1="1123.5" y2="1123.5"/><line style="stroke:#A80036;stroke-width:2.25;" x1="450.285" x2="612.285" y1="1135.5" y2="1135.5"/><!--MD5=[3d97e7a8068d9b0a6bb8fcf7dc76451d]
link Company to Ports--><path codeLine="52" d="M483.51,493.785 C485.49,508.5 487.515,524.025 489.285,538.5 C504.96,666.48 520.86,818.895 527.745,886.155 " fill="none" id="Company-Ports" style="stroke:#A80036;stroke-width:1.5;"/><polygon fill="#000000" points="524.6252,730.7165,527.4859,716.7404,518.7246,717.7281,524.6252,730.7165" style="stroke:#000000;stroke-width:1.5;"/><text fill="#000000" font-family="sans-serif" font-size="19.5" lengthAdjust="spacing" textLength="39" x="537.285" y="731.2427">have</text><text fill="#000000" font-family="sans-serif" font-size="19.5" lengthAdjust="spacing" textLength="10.5" x="473.5441" y="524.8338">1</text><text fill="#000000" font-family="sans-serif" font-size="19.5" lengthAdjust="spacing" textLength="30" x="492.9941" y="870.0768">1..*</text><!--MD5=[37a14a5de6d6fd738aee271300f4b5c8]
link Company to Ship--><path codeLine="53" d="M441.945,494.22 C415.005,549.78 377.37,627.435 353.805,676.065 " fill="none" id="Company-Ship" style="stroke:#A80036;stroke-width:1.5;"/><polygon fill="#000000" points="424.5138,592.0127,434.3984,581.7264,426.4645,577.8808,424.5138,592.0127" style="stroke:#000000;stroke-width:1.5;"/><text fill="#000000" font-family="sans-serif" font-size="19.5" lengthAdjust="spacing" textLength="34.5" x="441.285" y="593.2427">own</text><text fill="#000000" font-family="sans-serif" font-size="19.5" lengthAdjust="spacing" textLength="10.5" x="426.6288" y="524.8219">1</text><text fill="#000000" font-family="sans-serif" font-size="19.5" lengthAdjust="spacing" textLength="30" x="325.2529" y="660.2321">1..*</text><!--MD5=[b5e7d3b323f2cd13b2215620f50e65f3]
link Ship to Ports--><path codeLine="55" d="M365.1,769.905 C382.62,792.48 405.135,819.57 427.785,841.5 C445.365,858.525 466.53,875.325 485.13,889.08 " fill="none" id="Ship-Ports" style="stroke:#A80036;stroke-width:1.5;"/><polygon fill="#000000" points="440.6072,833.548,434.0853,820.8603,427.8732,827.1169,440.6072,833.548" style="stroke:#000000;stroke-width:1.5;"/><text fill="#000000" font-family="sans-serif" font-size="19.5" lengthAdjust="spacing" textLength="42" x="448.785" y="836.2427">dock</text><text fill="#000000" font-family="sans-serif" font-size="19.5" lengthAdjust="spacing" textLength="30" x="338.5913" y="801.4502">0..*</text><text fill="#000000" font-family="sans-serif" font-size="19.5" lengthAdjust="spacing" textLength="10.5" x="462.7426" y="874.8803">1</text><!--MD5=[5541ef512584d1243c10a7f3b3317e1c]
link Ship to ShipLocation--><path codeLine="56" d="M320.955,769.56 C318.015,783.84 315.24,799.755 313.785,814.5 C312.6,826.44 313.44,829.5 313.785,841.5 C314.19,856.155 315.045,872.295 315.885,886.185 " fill="none" id="Ship-ShipLocation" style="stroke:#A80036;stroke-width:1.5;"/><polygon fill="#000000" points="320.9593,835.7566,325.9528,822.3932,317.1443,822.0103,320.9593,835.7566" style="stroke:#000000;stroke-width:1.5;"/><text fill="#000000" font-family="sans-serif" font-size="19.5" lengthAdjust="spacing" textLength="31.5" x="334.785" y="836.2427">has</text><text fill="#000000" font-family="sans-serif" font-size="19.5" lengthAdjust="spacing" textLength="10.5" x="307.2893" y="801.4078">1</text><text fill="#000000" font-family="sans-serif" font-size="19.5" lengthAdjust="spacing" textLength="30" x="281.4263" y="870.1145">1..*</text><!--MD5=[aaa368e4b832683362a5bdda330bd90d]
link Ports to PlaceLocation--><path codeLine="58" d="M531.285,958.545 C531.285,991.755 531.285,1041.66 531.285,1075.005 " fill="none" id="Ports-PlaceLocation" style="stroke:#A80036;stroke-width:1.5;"/><polygon fill="#000000" points="538.785,1024.7637,543.1934,1011.196,534.3766,1011.196,538.785,1024.7637" style="stroke:#000000;stroke-width:1.5;"/><text fill="#000000" font-family="sans-serif" font-size="19.5" lengthAdjust="spacing" textLength="85.5" x="552.285" y="1025.2427">located at</text><text fill="#000000" font-family="sans-serif" font-size="19.5" lengthAdjust="spacing" textLength="10.5" x="519.5053" y="990.5629">1</text><text fill="#000000" font-family="sans-serif" font-size="19.5" lengthAdjust="spacing" textLength="10.5" x="519.5053" y="1059.4913">1</text><!--MD5=[7d9e25b05351abad966dfb34d685e1c0]
link FindClosestPortUI to FindClosestPortController--><path codeLine="60" d="M690.285,82.605 C690.285,106.515 690.285,138.765 690.285,165.9 " fill="none" id="FindClosestPortUI-to-FindClosestPortController" style="stroke:#A80036;stroke-width:1.5;stroke-dasharray:7.0,7.0;"/><polygon fill="#A80036" points="690.285,173.415,696.285,159.915,690.285,165.915,684.285,159.915,690.285,173.415" style="stroke:#A80036;stroke-width:1.5;"/><!--MD5=[00255207dc8ee15ac763dae01d413c77]
link FindClosestPortController to Company--><path codeLine="61" d="M641.805,267.45 C613.23,294.225 576.585,328.59 544.845,358.35 " fill="none" id="FindClosestPortController-to-Company" style="stroke:#A80036;stroke-width:1.5;stroke-dasharray:7.0,7.0;"/><polygon fill="#A80036" points="538.98,363.84,552.9324,358.984,544.4515,358.7104,544.7251,350.2296,538.98,363.84" style="stroke:#A80036;stroke-width:1.5;"/><!--MD5=[075947312fe9433e59dcafefcd3d0a6b]
link FindClosestPortController to BstShip--><path codeLine="62" d="M587.64,267.195 C527.805,293.64 450.93,327.765 382.785,358.5 C370.2,364.17 357.015,370.17 343.935,376.125 " fill="none" id="FindClosestPortController-to-BstShip" style="stroke:#A80036;stroke-width:1.5;stroke-dasharray:7.0,7.0;"/><polygon fill="#A80036" points="336.69,379.425,351.4626,379.2834,343.5141,376.3134,346.484,368.3649,336.69,379.425" style="stroke:#A80036;stroke-width:1.5;"/><!--MD5=[043780038e30aee0d5a3ccc1f9eddfaa]
link FindClosestPortController to Ship--><path codeLine="63" d="M558.735,233.28 C400.905,249.855 150.36,286.905 93.285,358.5 C9,464.235 159.795,599.94 257.715,671.76 " fill="none" id="FindClosestPortController-to-Ship" style="stroke:#A80036;stroke-width:1.5;stroke-dasharray:7.0,7.0;"/><polygon fill="#A80036" points="264.075,676.395,256.6915,663.5992,258.0113,671.9812,249.6293,673.301,264.075,676.395" style="stroke:#A80036;stroke-width:1.5;"/><!--MD5=[dfa15327ad2e5a3234d53230401e7ac0]
link FindClosestPortController to ShipLocationBST--><path codeLine="64" d="M690.285,267.45 C690.285,298.32 690.285,339.27 690.285,371.61 " fill="none" id="FindClosestPortController-to-ShipLocationBST" style="stroke:#A80036;stroke-width:1.5;stroke-dasharray:7.0,7.0;"/><polygon fill="#A80036" points="690.285,379.2,696.285,365.7,690.285,371.7,684.285,365.7,690.285,379.2" style="stroke:#A80036;stroke-width:1.5;"/><!--MD5=[176f9272f2872437077881362ce1cda7]
link FindClosestPortController to PortStore--><path codeLine="65" d="M747.885,267.465 C773.58,291.45 801.105,323.205 814.785,358.5 C836.46,414.45 832.17,436.08 814.785,493.5 C810.78,506.7 804.15,519.72 796.71,531.585 " fill="none" id="FindClosestPortController-to-PortStore" style="stroke:#A80036;stroke-width:1.5;stroke-dasharray:7.0,7.0;"/><polygon fill="#A80036" points="792.51,538.065,804.9086,530.0323,796.6057,531.7821,794.8559,523.4792,792.51,538.065" style="stroke:#A80036;stroke-width:1.5;"/><!--MD5=[2f38b66cd95aa2b5cdd97b781f4c4071]
link FindClosestPortController to Ports2DTree--><path codeLine="66" d="M805.845,267.165 C839.07,280.875 875.145,296.43 907.785,312 C948.45,331.395 992.43,354.93 1029.36,375.45 " fill="none" id="FindClosestPortController-to-Ports2DTree" style="stroke:#A80036;stroke-width:1.5;stroke-dasharray:7.0,7.0;"/><polygon fill="#A80036" points="1036.17,379.245,1027.3122,367.4218,1029.6229,375.5863,1021.4583,377.8971,1036.17,379.245" style="stroke:#A80036;stroke-width:1.5;"/><!--MD5=[d7984ba771d209e602eb97b106b759ac]
link FindClosestPortController to PortsMapper--><path codeLine="67" d="M821.805,237.555 C949.44,255.75 1146.765,292.2 1306.785,358.5 C1318.035,363.165 1329.42,369.03 1340.31,375.33 " fill="none" id="FindClosestPortController-to-PortsMapper" style="stroke:#A80036;stroke-width:1.5;stroke-dasharray:7.0,7.0;"/><polygon fill="#A80036" points="1347.03,379.305,1338.4639,367.2687,1340.5743,375.4874,1332.3557,377.5978,1347.03,379.305" style="stroke:#A80036;stroke-width:1.5;"/><!--MD5=[43500506fff1da1e031be076e7dba2a8]
link PortsMapper to PortsDto--><path codeLine="68" d="M1410.285,472.8 C1410.285,528.975 1410.285,624.06 1410.285,678.945 " fill="none" id="PortsMapper-to-PortsDto" style="stroke:#A80036;stroke-width:1.5;stroke-dasharray:7.0,7.0;"/><polygon fill="#A80036" points="1410.285,686.745,1416.285,673.245,1410.285,679.245,1404.285,673.245,1410.285,686.745" style="stroke:#A80036;stroke-width:1.5;"/><!--MD5=[af03eac9374996fab52622a2288382b0]
link PortStore to Ports--><path codeLine="69" d="M724.635,631.605 C680.985,696.96 600.78,816.99 558.705,879.96 " fill="none" id="PortStore-to-Ports" style="stroke:#A80036;stroke-width:1.5;"/><polygon fill="#A80036" points="554.505,886.245,566.9858,878.3405,558.6653,880.0046,557.0012,871.6841,554.505,886.245" style="stroke:#A80036;stroke-width:1.5;"/><text fill="#000000" font-family="sans-serif" font-size="19.5" lengthAdjust="spacing" textLength="58.5" x="696.285" y="731.2427">adopts</text><text fill="#000000" font-family="sans-serif" font-size="19.5" lengthAdjust="spacing" textLength="10.5" x="707.1656" y="663.4617">1</text><text fill="#000000" font-family="sans-serif" font-size="19.5" lengthAdjust="spacing" textLength="7.5" x="551.9942" y="870.1899">*</text><!--MD5=[a72eee510170752f935abdaa19f5d022]
@startuml
'https://plantuml.com/class-diagram

class FindClosestPortUI {}

class FindClosestPortController {
-findClosestPort(callSign, date)

}

class Company {
-designation
-getBstShip()
-getPortStr()
}

class BstShip {
-getShipByCallSign(callSign)
}

class Ship {
-getShipPosition()
}

class ShipLocationBST {
-getShipLocation(date)
}

class ShipLocation {

}

class Ports {

}


class PortStore {
-getPorts2DTree()
}

class Ports2DTree {
-findNearestNeighbour(latitude, longitude)
}

class PortsMapper {
-toDto(port)
}

class PortsDto {
}

Company "1"- -"1..*" Ports: have >
Company "1"- -"1..*" Ship: own >

Ship "0..*"- -"1" Ports: dock >
Ship "1" - - "1..*" ShipLocation : has >

Ports "1" - - "1" PlaceLocation : located at >

FindClosestPortUI ..> FindClosestPortController
FindClosestPortController ..> Company
FindClosestPortController ..> BstShip
FindClosestPortController ..> Ship
FindClosestPortController ..> ShipLocationBST
FindClosestPortController ..> PortStore
FindClosestPortController ..> Ports2DTree
FindClosestPortController ..> PortsMapper
PortsMapper ..> PortsDto
PortStore "1"- -> "*" Ports : adopts


@enduml

@startuml

class FindClosestPortUI {}

class FindClosestPortController {
-findClosestPort(callSign, date)

}

class Company {
-designation
-getBstShip()
-getPortStr()
}

class BstShip {
-getShipByCallSign(callSign)
}

class Ship {
-getShipPosition()
}

class ShipLocationBST {
-getShipLocation(date)
}

class ShipLocation {

}

class Ports {

}


class PortStore {
-getPorts2DTree()
}

class Ports2DTree {
-findNearestNeighbour(latitude, longitude)
}

class PortsMapper {
-toDto(port)
}

class PortsDto {
}

Company "1"- -"1..*" Ports: have >
Company "1"- -"1..*" Ship: own >

Ship "0..*"- -"1" Ports: dock >
Ship "1" - - "1..*" ShipLocation : has >

Ports "1" - - "1" PlaceLocation : located at >

FindClosestPortUI ..> FindClosestPortController
FindClosestPortController ..> Company
FindClosestPortController ..> BstShip
FindClosestPortController ..> Ship
FindClosestPortController ..> ShipLocationBST
FindClosestPortController ..> PortStore
FindClosestPortController ..> Ports2DTree
FindClosestPortController ..> PortsMapper
PortsMapper ..> PortsDto
PortStore "1"- -> "*" Ports : adopts


@enduml

PlantUML version 1.2021.5(Sun Apr 25 12:20:28 BST 2021)
(GPL source distribution)
Java Runtime: OpenJDK Runtime Environment
JVM: Dynamic Code Evolution 64-Bit Server VM
Default Encoding: Cp1252
Language: pt
Country: PT
--></g></svg>