<?xml version="1.0" encoding="UTF-8" standalone="no"?><svg xmlns="http://www.w3.org/2000/svg" xmlns:xlink="http://www.w3.org/1999/xlink" contentScriptType="application/ecmascript" contentStyleType="text/css" height="1791px" preserveAspectRatio="none" style="width:1378px;height:1791px;" version="1.1" viewBox="0 0 1378 1791" width="1378.5px" zoomAndPan="magnify"><defs><filter height="300%" id="f1cyee7ep5eoi4" width="300%" x="-1" y="-1"><feGaussianBlur result="blurOut" stdDeviation="3.0"/><feColorMatrix in="blurOut" result="blurOut2" type="matrix" values="0 0 0 0 0 0 0 0 0 0 0 0 0 0 0 0 0 0 .4 0"/><feOffset dx="6.0" dy="6.0" in="blurOut2" result="blurOut3"/><feBlend in="SourceGraphic" in2="blurOut3" mode="normal"/></filter></defs><g><!--MD5=[3a996186d675ecc15fcd3cbf8916d17a]
class GetsPortsMoreCriticalUI--><rect codeLine="7" fill="#FEFECE" filter="url(#f1cyee7ep5eoi4)" height="72" id="GetsPortsMoreCriticalUI" style="stroke:#A80036;stroke-width:2.25;" width="246" x="189" y="10.5"/><ellipse cx="211.5" cy="34.5" fill="#ADD1B2" rx="16.5" ry="16.5" style="stroke:#A80036;stroke-width:1.5;"/><path d="M214.5,29.25 Q214.8047,28.5 215.1563,28.125 Q215.5078,27.75 215.9063,27.75 Q216.6094,27.75 217.0547,28.1719 Q217.5,28.5938 217.5,29.5781 L217.5,31.9219 Q217.5,32.9063 217.0781,33.3281 Q216.6563,33.75 216,33.75 Q215.4141,33.75 215.0391,33.4922 Q214.6641,33.2344 214.5,32.5547 Q214.4297,32.0859 214.1719,31.8281 Q213.7031,31.3359 212.8594,31.0547 Q212.0156,30.75 211.1719,30.75 Q210.1172,30.75 209.2266,31.1719 Q208.3594,31.5938 207.6797,32.5313 Q207,33.4688 207,34.7578 L207,36.1406 Q207,37.6875 208.2656,38.7188 Q209.5313,39.75 211.7813,39.75 Q213.1172,39.75 214.0547,39.4453 Q214.5938,39.2813 215.2031,38.7422 Q215.6016,38.4375 215.8125,38.3438 Q216.0234,38.25 216.2813,38.25 Q216.7734,38.25 217.125,38.6484 Q217.5,39.0234 217.5,39.5625 Q217.5,40.0781 216.9844,40.6875 Q216.2344,41.5781 215.0391,42.0703 Q213.4688,42.75 211.5469,42.75 Q209.2969,42.75 207.4922,41.8594 Q206.0391,41.1563 205.0078,39.6328 Q204,38.1094 204,36.3047 L204,34.6641 Q204,32.7891 204.8906,31.1484 Q205.8047,29.5078 207.375,28.6406 Q208.9688,27.75 210.75,27.75 Q211.8281,27.75 212.7656,28.125 Q213.7031,28.5 214.5,29.25 Z " fill="#000000"/><text fill="#000000" font-family="sans-serif" font-size="18" lengthAdjust="spacing" textLength="198" x="232.5" y="41.8652">GetsPortsMoreCriticalUI</text><line style="stroke:#A80036;stroke-width:2.25;" x1="190.5" x2="433.5" y1="58.5" y2="58.5"/><line style="stroke:#A80036;stroke-width:2.25;" x1="190.5" x2="433.5" y1="70.5" y2="70.5"/><!--MD5=[7e8bde828e745c5e3cfa861d729df954]
class GetsPortsMoreCriticalController--><rect codeLine="9" fill="#FEFECE" filter="url(#f1cyee7ep5eoi4)" height="92.7539" id="GetsPortsMoreCriticalController" style="stroke:#A80036;stroke-width:2.25;" width="309" x="157.5" y="174"/><ellipse cx="180" cy="198" fill="#ADD1B2" rx="16.5" ry="16.5" style="stroke:#A80036;stroke-width:1.5;"/><path d="M183,192.75 Q183.3047,192 183.6563,191.625 Q184.0078,191.25 184.4063,191.25 Q185.1094,191.25 185.5547,191.6719 Q186,192.0938 186,193.0781 L186,195.4219 Q186,196.4063 185.5781,196.8281 Q185.1563,197.25 184.5,197.25 Q183.9141,197.25 183.5391,196.9922 Q183.1641,196.7344 183,196.0547 Q182.9297,195.5859 182.6719,195.3281 Q182.2031,194.8359 181.3594,194.5547 Q180.5156,194.25 179.6719,194.25 Q178.6172,194.25 177.7266,194.6719 Q176.8594,195.0938 176.1797,196.0313 Q175.5,196.9688 175.5,198.2578 L175.5,199.6406 Q175.5,201.1875 176.7656,202.2188 Q178.0313,203.25 180.2813,203.25 Q181.6172,203.25 182.5547,202.9453 Q183.0938,202.7813 183.7031,202.2422 Q184.1016,201.9375 184.3125,201.8438 Q184.5234,201.75 184.7813,201.75 Q185.2734,201.75 185.625,202.1484 Q186,202.5234 186,203.0625 Q186,203.5781 185.4844,204.1875 Q184.7344,205.0781 183.5391,205.5703 Q181.9688,206.25 180.0469,206.25 Q177.7969,206.25 175.9922,205.3594 Q174.5391,204.6563 173.5078,203.1328 Q172.5,201.6094 172.5,199.8047 L172.5,198.1641 Q172.5,196.2891 173.3906,194.6484 Q174.3047,193.0078 175.875,192.1406 Q177.4688,191.25 179.25,191.25 Q180.3281,191.25 181.2656,191.625 Q182.2031,192 183,192.75 Z " fill="#000000"/><text fill="#000000" font-family="sans-serif" font-size="18" lengthAdjust="spacing" textLength="261" x="201" y="205.3652">GetsPortsMoreCriticalController</text><line style="stroke:#A80036;stroke-width:2.25;" x1="159" x2="465" y1="222" y2="222"/><line style="stroke:#A80036;stroke-width:2.25;" x1="159" x2="465" y1="234" y2="234"/><text fill="#000000" font-family="sans-serif" font-size="16.5" lengthAdjust="spacing" textLength="180" x="166.5" y="257.1284">-getsPortsMoreCritical(n)</text><!--MD5=[02e4b9b7573f1156f41e60aa5b4e25a4]
class Company--><rect codeLine="13" fill="#FEFECE" filter="url(#f1cyee7ep5eoi4)" height="113.5078" id="Company" style="stroke:#A80036;stroke-width:2.25;" width="169.5" x="144.75" y="358.5"/><ellipse cx="186.15" cy="382.5" fill="#ADD1B2" rx="16.5" ry="16.5" style="stroke:#A80036;stroke-width:1.5;"/><path d="M189.15,377.25 Q189.4547,376.5 189.8062,376.125 Q190.1578,375.75 190.5562,375.75 Q191.2594,375.75 191.7047,376.1719 Q192.15,376.5938 192.15,377.5781 L192.15,379.9219 Q192.15,380.9063 191.7281,381.3281 Q191.3062,381.75 190.65,381.75 Q190.0641,381.75 189.6891,381.4922 Q189.3141,381.2344 189.15,380.5547 Q189.0797,380.0859 188.8219,379.8281 Q188.3531,379.3359 187.5094,379.0547 Q186.6656,378.75 185.8219,378.75 Q184.7672,378.75 183.8766,379.1719 Q183.0094,379.5938 182.3297,380.5313 Q181.65,381.4688 181.65,382.7578 L181.65,384.1406 Q181.65,385.6875 182.9156,386.7188 Q184.1812,387.75 186.4312,387.75 Q187.7672,387.75 188.7047,387.4453 Q189.2437,387.2813 189.8531,386.7422 Q190.2516,386.4375 190.4625,386.3438 Q190.6734,386.25 190.9312,386.25 Q191.4234,386.25 191.775,386.6484 Q192.15,387.0234 192.15,387.5625 Q192.15,388.0781 191.6344,388.6875 Q190.8844,389.5781 189.6891,390.0703 Q188.1187,390.75 186.1969,390.75 Q183.9469,390.75 182.1422,389.8594 Q180.6891,389.1563 179.6578,387.6328 Q178.65,386.1094 178.65,384.3047 L178.65,382.6641 Q178.65,380.7891 179.5406,379.1484 Q180.4547,377.5078 182.025,376.6406 Q183.6187,375.75 185.4,375.75 Q186.4781,375.75 187.4156,376.125 Q188.3531,376.5 189.15,377.25 Z " fill="#000000"/><text fill="#000000" font-family="sans-serif" font-size="18" lengthAdjust="spacing" textLength="79.5" x="211.35" y="389.8652">Company</text><line style="stroke:#A80036;stroke-width:2.25;" x1="146.25" x2="312.75" y1="406.5" y2="406.5"/><text fill="#000000" font-family="sans-serif" font-size="16.5" lengthAdjust="spacing" textLength="88.5" x="153.75" y="429.6284">-designation</text><line style="stroke:#A80036;stroke-width:2.25;" x1="146.25" x2="312.75" y1="439.2539" y2="439.2539"/><text fill="#000000" font-family="sans-serif" font-size="16.5" lengthAdjust="spacing" textLength="151.5" x="153.75" y="462.3823">-getFreightNetwork()</text><!--MD5=[074ba6ad47b234bd73d65012320c1634]
class FreightNetwork--><rect codeLine="20" fill="#FEFECE" filter="url(#f1cyee7ep5eoi4)" height="92.7539" id="FreightNetwork" style="stroke:#A80036;stroke-width:2.25;" width="198" x="295.5" y="589.5"/><ellipse cx="329.475" cy="613.5" fill="#ADD1B2" rx="16.5" ry="16.5" style="stroke:#A80036;stroke-width:1.5;"/><path d="M332.475,608.25 Q332.7797,607.5 333.1313,607.125 Q333.4828,606.75 333.8813,606.75 Q334.5844,606.75 335.0297,607.1719 Q335.475,607.5938 335.475,608.5781 L335.475,610.9219 Q335.475,611.9063 335.0531,612.3281 Q334.6313,612.75 333.975,612.75 Q333.3891,612.75 333.0141,612.4922 Q332.6391,612.2344 332.475,611.5547 Q332.4047,611.0859 332.1469,610.8281 Q331.6781,610.3359 330.8344,610.0547 Q329.9906,609.75 329.1469,609.75 Q328.0922,609.75 327.2016,610.1719 Q326.3344,610.5938 325.6547,611.5313 Q324.975,612.4688 324.975,613.7578 L324.975,615.1406 Q324.975,616.6875 326.2406,617.7188 Q327.5063,618.75 329.7563,618.75 Q331.0922,618.75 332.0297,618.4453 Q332.5688,618.2813 333.1781,617.7422 Q333.5766,617.4375 333.7875,617.3438 Q333.9984,617.25 334.2563,617.25 Q334.7484,617.25 335.1,617.6484 Q335.475,618.0234 335.475,618.5625 Q335.475,619.0781 334.9594,619.6875 Q334.2094,620.5781 333.0141,621.0703 Q331.4438,621.75 329.5219,621.75 Q327.2719,621.75 325.4672,620.8594 Q324.0141,620.1563 322.9828,618.6328 Q321.975,617.1094 321.975,615.3047 L321.975,613.6641 Q321.975,611.7891 322.8656,610.1484 Q323.7797,608.5078 325.35,607.6406 Q326.9438,606.75 328.725,606.75 Q329.8031,606.75 330.7406,607.125 Q331.6781,607.5 332.475,608.25 Z " fill="#000000"/><text fill="#000000" font-family="sans-serif" font-size="18" lengthAdjust="spacing" textLength="124.5" x="353.025" y="620.8652">FreightNetwork</text><line style="stroke:#A80036;stroke-width:2.25;" x1="297" x2="492" y1="637.5" y2="637.5"/><line style="stroke:#A80036;stroke-width:2.25;" x1="297" x2="492" y1="649.5" y2="649.5"/><text fill="#000000" font-family="sans-serif" font-size="16.5" lengthAdjust="spacing" textLength="180" x="304.5" y="672.6284">-getsPortsMoreCritical(n)</text><!--MD5=[ea13aecf8df941b18fb8e3885c78c184]
class Ports--><rect codeLine="24" fill="#FEFECE" filter="url(#f1cyee7ep5eoi4)" height="113.5078" id="Ports" style="stroke:#A80036;stroke-width:2.25;" width="114" x="18" y="1071.75"/><ellipse cx="50.625" cy="1095.75" fill="#ADD1B2" rx="16.5" ry="16.5" style="stroke:#A80036;stroke-width:1.5;"/><path d="M53.625,1090.5 Q53.9297,1089.75 54.2813,1089.375 Q54.6328,1089 55.0313,1089 Q55.7344,1089 56.1797,1089.4219 Q56.625,1089.8438 56.625,1090.8281 L56.625,1093.1719 Q56.625,1094.1563 56.2031,1094.5781 Q55.7813,1095 55.125,1095 Q54.5391,1095 54.1641,1094.7422 Q53.7891,1094.4844 53.625,1093.8047 Q53.5547,1093.3359 53.2969,1093.0781 Q52.8281,1092.5859 51.9844,1092.3047 Q51.1406,1092 50.2969,1092 Q49.2422,1092 48.3516,1092.4219 Q47.4844,1092.8438 46.8047,1093.7813 Q46.125,1094.7188 46.125,1096.0078 L46.125,1097.3906 Q46.125,1098.9375 47.3906,1099.9688 Q48.6563,1101 50.9063,1101 Q52.2422,1101 53.1797,1100.6953 Q53.7188,1100.5313 54.3281,1099.9922 Q54.7266,1099.6875 54.9375,1099.5938 Q55.1484,1099.5 55.4063,1099.5 Q55.8984,1099.5 56.25,1099.8984 Q56.625,1100.2734 56.625,1100.8125 Q56.625,1101.3281 56.1094,1101.9375 Q55.3594,1102.8281 54.1641,1103.3203 Q52.5938,1104 50.6719,1104 Q48.4219,1104 46.6172,1103.1094 Q45.1641,1102.4063 44.1328,1100.8828 Q43.125,1099.3594 43.125,1097.5547 L43.125,1095.9141 Q43.125,1094.0391 44.0156,1092.3984 Q44.9297,1090.7578 46.5,1089.8906 Q48.0938,1089 49.875,1089 Q50.9531,1089 51.8906,1089.375 Q52.8281,1089.75 53.625,1090.5 Z " fill="#000000"/><text fill="#000000" font-family="sans-serif" font-size="18" lengthAdjust="spacing" textLength="43.5" x="73.875" y="1103.1152">Ports</text><line style="stroke:#A80036;stroke-width:2.25;" x1="19.5" x2="130.5" y1="1119.75" y2="1119.75"/><text fill="#000000" font-family="sans-serif" font-size="16.5" lengthAdjust="spacing" textLength="96" x="27" y="1142.8784">-identification</text><text fill="#000000" font-family="sans-serif" font-size="16.5" lengthAdjust="spacing" textLength="45" x="27" y="1163.6323">-name</text><line style="stroke:#A80036;stroke-width:2.25;" x1="19.5" x2="130.5" y1="1173.2578" y2="1173.2578"/><!--MD5=[deb4e1f6eb1e3c1256fdb830f96abfbb]
class Country--><rect codeLine="30" fill="#FEFECE" filter="url(#f1cyee7ep5eoi4)" height="113.5078" id="Country" style="stroke:#A80036;stroke-width:2.25;" width="111" x="211.5" y="1374.75"/><ellipse cx="234" cy="1398.75" fill="#ADD1B2" rx="16.5" ry="16.5" style="stroke:#A80036;stroke-width:1.5;"/><path d="M237,1393.5 Q237.3047,1392.75 237.6563,1392.375 Q238.0078,1392 238.4063,1392 Q239.1094,1392 239.5547,1392.4219 Q240,1392.8438 240,1393.8281 L240,1396.1719 Q240,1397.1563 239.5781,1397.5781 Q239.1563,1398 238.5,1398 Q237.9141,1398 237.5391,1397.7422 Q237.1641,1397.4844 237,1396.8047 Q236.9297,1396.3359 236.6719,1396.0781 Q236.2031,1395.5859 235.3594,1395.3047 Q234.5156,1395 233.6719,1395 Q232.6172,1395 231.7266,1395.4219 Q230.8594,1395.8438 230.1797,1396.7813 Q229.5,1397.7188 229.5,1399.0078 L229.5,1400.3906 Q229.5,1401.9375 230.7656,1402.9688 Q232.0313,1404 234.2813,1404 Q235.6172,1404 236.5547,1403.6953 Q237.0938,1403.5313 237.7031,1402.9922 Q238.1016,1402.6875 238.3125,1402.5938 Q238.5234,1402.5 238.7813,1402.5 Q239.2734,1402.5 239.625,1402.8984 Q240,1403.2734 240,1403.8125 Q240,1404.3281 239.4844,1404.9375 Q238.7344,1405.8281 237.5391,1406.3203 Q235.9688,1407 234.0469,1407 Q231.7969,1407 229.9922,1406.1094 Q228.5391,1405.4063 227.5078,1403.8828 Q226.5,1402.3594 226.5,1400.5547 L226.5,1398.9141 Q226.5,1397.0391 227.3906,1395.3984 Q228.3047,1393.7578 229.875,1392.8906 Q231.4688,1392 233.25,1392 Q234.3281,1392 235.2656,1392.375 Q236.2031,1392.75 237,1393.5 Z " fill="#000000"/><text fill="#000000" font-family="sans-serif" font-size="18" lengthAdjust="spacing" textLength="63" x="255" y="1406.1152">Country</text><line style="stroke:#A80036;stroke-width:2.25;" x1="213" x2="321" y1="1422.75" y2="1422.75"/><text fill="#000000" font-family="sans-serif" font-size="16.5" lengthAdjust="spacing" textLength="45" x="220.5" y="1445.8784">-name</text><text fill="#000000" font-family="sans-serif" font-size="16.5" lengthAdjust="spacing" textLength="72" x="220.5" y="1466.6323">-continent</text><line style="stroke:#A80036;stroke-width:2.25;" x1="213" x2="321" y1="1476.2578" y2="1476.2578"/><!--MD5=[9febfb2ff9adfe183e01ff702b9c1c02]
class PlaceLocation--><rect codeLine="35" fill="#FEFECE" filter="url(#f1cyee7ep5eoi4)" height="113.5078" id="PlaceLocation" style="stroke:#A80036;stroke-width:2.25;" width="165" x="184.5" y="1071.75"/><ellipse cx="207" cy="1095.75" fill="#ADD1B2" rx="16.5" ry="16.5" style="stroke:#A80036;stroke-width:1.5;"/><path d="M210,1090.5 Q210.3047,1089.75 210.6563,1089.375 Q211.0078,1089 211.4063,1089 Q212.1094,1089 212.5547,1089.4219 Q213,1089.8438 213,1090.8281 L213,1093.1719 Q213,1094.1563 212.5781,1094.5781 Q212.1563,1095 211.5,1095 Q210.9141,1095 210.5391,1094.7422 Q210.1641,1094.4844 210,1093.8047 Q209.9297,1093.3359 209.6719,1093.0781 Q209.2031,1092.5859 208.3594,1092.3047 Q207.5156,1092 206.6719,1092 Q205.6172,1092 204.7266,1092.4219 Q203.8594,1092.8438 203.1797,1093.7813 Q202.5,1094.7188 202.5,1096.0078 L202.5,1097.3906 Q202.5,1098.9375 203.7656,1099.9688 Q205.0313,1101 207.2813,1101 Q208.6172,1101 209.5547,1100.6953 Q210.0938,1100.5313 210.7031,1099.9922 Q211.1016,1099.6875 211.3125,1099.5938 Q211.5234,1099.5 211.7813,1099.5 Q212.2734,1099.5 212.625,1099.8984 Q213,1100.2734 213,1100.8125 Q213,1101.3281 212.4844,1101.9375 Q211.7344,1102.8281 210.5391,1103.3203 Q208.9688,1104 207.0469,1104 Q204.7969,1104 202.9922,1103.1094 Q201.5391,1102.4063 200.5078,1100.8828 Q199.5,1099.3594 199.5,1097.5547 L199.5,1095.9141 Q199.5,1094.0391 200.3906,1092.3984 Q201.3047,1090.7578 202.875,1089.8906 Q204.4688,1089 206.25,1089 Q207.3281,1089 208.2656,1089.375 Q209.2031,1089.75 210,1090.5 Z " fill="#000000"/><text fill="#000000" font-family="sans-serif" font-size="18" lengthAdjust="spacing" textLength="117" x="228" y="1103.1152">PlaceLocation</text><line style="stroke:#A80036;stroke-width:2.25;" x1="186" x2="348" y1="1119.75" y2="1119.75"/><text fill="#000000" font-family="sans-serif" font-size="16.5" lengthAdjust="spacing" textLength="57" x="193.5" y="1142.8784">-latitude</text><text fill="#000000" font-family="sans-serif" font-size="16.5" lengthAdjust="spacing" textLength="70.5" x="193.5" y="1163.6323">-longitude</text><line style="stroke:#A80036;stroke-width:2.25;" x1="186" x2="348" y1="1173.2578" y2="1173.2578"/><!--MD5=[ea8f20dfdca176213da526d9b557babf]
class Capital--><rect codeLine="40" fill="#FEFECE" filter="url(#f1cyee7ep5eoi4)" height="155.0156" id="Capital" style="stroke:#A80036;stroke-width:2.25;" width="106.5" x="402.75" y="1051.5"/><ellipse cx="425.25" cy="1075.5" fill="#ADD1B2" rx="16.5" ry="16.5" style="stroke:#A80036;stroke-width:1.5;"/><path d="M428.25,1070.25 Q428.5547,1069.5 428.9063,1069.125 Q429.2578,1068.75 429.6563,1068.75 Q430.3594,1068.75 430.8047,1069.1719 Q431.25,1069.5938 431.25,1070.5781 L431.25,1072.9219 Q431.25,1073.9063 430.8281,1074.3281 Q430.4063,1074.75 429.75,1074.75 Q429.1641,1074.75 428.7891,1074.4922 Q428.4141,1074.2344 428.25,1073.5547 Q428.1797,1073.0859 427.9219,1072.8281 Q427.4531,1072.3359 426.6094,1072.0547 Q425.7656,1071.75 424.9219,1071.75 Q423.8672,1071.75 422.9766,1072.1719 Q422.1094,1072.5938 421.4297,1073.5313 Q420.75,1074.4688 420.75,1075.7578 L420.75,1077.1406 Q420.75,1078.6875 422.0156,1079.7188 Q423.2813,1080.75 425.5313,1080.75 Q426.8672,1080.75 427.8047,1080.4453 Q428.3438,1080.2813 428.9531,1079.7422 Q429.3516,1079.4375 429.5625,1079.3438 Q429.7734,1079.25 430.0313,1079.25 Q430.5234,1079.25 430.875,1079.6484 Q431.25,1080.0234 431.25,1080.5625 Q431.25,1081.0781 430.7344,1081.6875 Q429.9844,1082.5781 428.7891,1083.0703 Q427.2188,1083.75 425.2969,1083.75 Q423.0469,1083.75 421.2422,1082.8594 Q419.7891,1082.1563 418.7578,1080.6328 Q417.75,1079.1094 417.75,1077.3047 L417.75,1075.6641 Q417.75,1073.7891 418.6406,1072.1484 Q419.5547,1070.5078 421.125,1069.6406 Q422.7188,1068.75 424.5,1068.75 Q425.5781,1068.75 426.5156,1069.125 Q427.4531,1069.5 428.25,1070.25 Z " fill="#000000"/><text fill="#000000" font-family="sans-serif" font-size="18" lengthAdjust="spacing" textLength="58.5" x="446.25" y="1082.8652">Capital</text><line style="stroke:#A80036;stroke-width:2.25;" x1="404.25" x2="507.75" y1="1099.5" y2="1099.5"/><text fill="#000000" font-family="sans-serif" font-size="16.5" lengthAdjust="spacing" textLength="45" x="411.75" y="1122.6284">-name</text><text fill="#000000" font-family="sans-serif" font-size="16.5" lengthAdjust="spacing" textLength="61.5" x="411.75" y="1143.3823">-country</text><text fill="#000000" font-family="sans-serif" font-size="16.5" lengthAdjust="spacing" textLength="57" x="411.75" y="1164.1362">-latitude</text><text fill="#000000" font-family="sans-serif" font-size="16.5" lengthAdjust="spacing" textLength="70.5" x="411.75" y="1184.8901">-longitude</text><line style="stroke:#A80036;stroke-width:2.25;" x1="404.25" x2="507.75" y1="1194.5156" y2="1194.5156"/><!--MD5=[8515a37c80da559ff7ce07f8a9e75d30]
class Place--><rect codeLine="47" fill="#FEFECE" filter="url(#f1cyee7ep5eoi4)" height="72" id="Place" style="stroke:#A80036;stroke-width:2.25;" width="94.5" x="219.75" y="831"/><ellipse cx="242.25" cy="855" fill="#ADD1B2" rx="16.5" ry="16.5" style="stroke:#A80036;stroke-width:1.5;"/><path d="M245.25,849.75 Q245.5547,849 245.9063,848.625 Q246.2578,848.25 246.6563,848.25 Q247.3594,848.25 247.8047,848.6719 Q248.25,849.0938 248.25,850.0781 L248.25,852.4219 Q248.25,853.4063 247.8281,853.8281 Q247.4063,854.25 246.75,854.25 Q246.1641,854.25 245.7891,853.9922 Q245.4141,853.7344 245.25,853.0547 Q245.1797,852.5859 244.9219,852.3281 Q244.4531,851.8359 243.6094,851.5547 Q242.7656,851.25 241.9219,851.25 Q240.8672,851.25 239.9766,851.6719 Q239.1094,852.0938 238.4297,853.0313 Q237.75,853.9688 237.75,855.2578 L237.75,856.6406 Q237.75,858.1875 239.0156,859.2188 Q240.2813,860.25 242.5313,860.25 Q243.8672,860.25 244.8047,859.9453 Q245.3438,859.7813 245.9531,859.2422 Q246.3516,858.9375 246.5625,858.8438 Q246.7734,858.75 247.0313,858.75 Q247.5234,858.75 247.875,859.1484 Q248.25,859.5234 248.25,860.0625 Q248.25,860.5781 247.7344,861.1875 Q246.9844,862.0781 245.7891,862.5703 Q244.2188,863.25 242.2969,863.25 Q240.0469,863.25 238.2422,862.3594 Q236.7891,861.6563 235.7578,860.1328 Q234.75,858.6094 234.75,856.8047 L234.75,855.1641 Q234.75,853.2891 235.6406,851.6484 Q236.5547,850.0078 238.125,849.1406 Q239.7188,848.25 241.5,848.25 Q242.5781,848.25 243.5156,848.625 Q244.4531,849 245.25,849.75 Z " fill="#000000"/><text fill="#000000" font-family="sans-serif" font-size="18" lengthAdjust="spacing" textLength="46.5" x="263.25" y="862.3652">Place</text><line style="stroke:#A80036;stroke-width:2.25;" x1="221.25" x2="312.75" y1="879" y2="879"/><line style="stroke:#A80036;stroke-width:2.25;" x1="221.25" x2="312.75" y1="891" y2="891"/><!--MD5=[a0336aaa8110b78d9cacadb9d45e00a3]
class Border--><rect codeLine="51" fill="#FEFECE" filter="url(#f1cyee7ep5eoi4)" height="113.5078" id="Border" style="stroke:#A80036;stroke-width:2.25;" width="129" x="202.5" y="1657.5"/><ellipse cx="236.475" cy="1681.5" fill="#ADD1B2" rx="16.5" ry="16.5" style="stroke:#A80036;stroke-width:1.5;"/><path d="M239.475,1676.25 Q239.7797,1675.5 240.1313,1675.125 Q240.4828,1674.75 240.8813,1674.75 Q241.5844,1674.75 242.0297,1675.1719 Q242.475,1675.5938 242.475,1676.5781 L242.475,1678.9219 Q242.475,1679.9063 242.0531,1680.3281 Q241.6313,1680.75 240.975,1680.75 Q240.3891,1680.75 240.0141,1680.4922 Q239.6391,1680.2344 239.475,1679.5547 Q239.4047,1679.0859 239.1469,1678.8281 Q238.6781,1678.3359 237.8344,1678.0547 Q236.9906,1677.75 236.1469,1677.75 Q235.0922,1677.75 234.2016,1678.1719 Q233.3344,1678.5938 232.6547,1679.5313 Q231.975,1680.4688 231.975,1681.7578 L231.975,1683.1406 Q231.975,1684.6875 233.2406,1685.7188 Q234.5063,1686.75 236.7563,1686.75 Q238.0922,1686.75 239.0297,1686.4453 Q239.5688,1686.2813 240.1781,1685.7422 Q240.5766,1685.4375 240.7875,1685.3438 Q240.9984,1685.25 241.2563,1685.25 Q241.7484,1685.25 242.1,1685.6484 Q242.475,1686.0234 242.475,1686.5625 Q242.475,1687.0781 241.9594,1687.6875 Q241.2094,1688.5781 240.0141,1689.0703 Q238.4438,1689.75 236.5219,1689.75 Q234.2719,1689.75 232.4672,1688.8594 Q231.0141,1688.1563 229.9828,1686.6328 Q228.975,1685.1094 228.975,1683.3047 L228.975,1681.6641 Q228.975,1679.7891 229.8656,1678.1484 Q230.7797,1676.5078 232.35,1675.6406 Q233.9438,1674.75 235.725,1674.75 Q236.8031,1674.75 237.7406,1675.125 Q238.6781,1675.5 239.475,1676.25 Z " fill="#000000"/><text fill="#000000" font-family="sans-serif" font-size="18" lengthAdjust="spacing" textLength="55.5" x="260.025" y="1688.8652">Border</text><line style="stroke:#A80036;stroke-width:2.25;" x1="204" x2="330" y1="1705.5" y2="1705.5"/><text fill="#000000" font-family="sans-serif" font-size="16.5" lengthAdjust="spacing" textLength="111" x="211.5" y="1728.6284">-countryName1</text><text fill="#000000" font-family="sans-serif" font-size="16.5" lengthAdjust="spacing" textLength="111" x="211.5" y="1749.3823">-countryName2</text><line style="stroke:#A80036;stroke-width:2.25;" x1="204" x2="330" y1="1759.0078" y2="1759.0078"/><!--MD5=[e24af10a0367b93d82d6bdd24a6ec764]
class Seadist--><rect codeLine="56" fill="#FEFECE" filter="url(#f1cyee7ep5eoi4)" height="217.2773" id="Seadist" style="stroke:#A80036;stroke-width:2.25;" width="129" x="10.5" y="1323"/><ellipse cx="41.1" cy="1347" fill="#ADD1B2" rx="16.5" ry="16.5" style="stroke:#A80036;stroke-width:1.5;"/><path d="M44.1,1341.75 Q44.4047,1341 44.7562,1340.625 Q45.1078,1340.25 45.5062,1340.25 Q46.2094,1340.25 46.6547,1340.6719 Q47.1,1341.0938 47.1,1342.0781 L47.1,1344.4219 Q47.1,1345.4063 46.6781,1345.8281 Q46.2562,1346.25 45.6,1346.25 Q45.0141,1346.25 44.6391,1345.9922 Q44.2641,1345.7344 44.1,1345.0547 Q44.0297,1344.5859 43.7719,1344.3281 Q43.3031,1343.8359 42.4594,1343.5547 Q41.6156,1343.25 40.7719,1343.25 Q39.7172,1343.25 38.8266,1343.6719 Q37.9594,1344.0938 37.2797,1345.0313 Q36.6,1345.9688 36.6,1347.2578 L36.6,1348.6406 Q36.6,1350.1875 37.8656,1351.2188 Q39.1312,1352.25 41.3812,1352.25 Q42.7172,1352.25 43.6547,1351.9453 Q44.1937,1351.7813 44.8031,1351.2422 Q45.2016,1350.9375 45.4125,1350.8438 Q45.6234,1350.75 45.8812,1350.75 Q46.3734,1350.75 46.725,1351.1484 Q47.1,1351.5234 47.1,1352.0625 Q47.1,1352.5781 46.5844,1353.1875 Q45.8344,1354.0781 44.6391,1354.5703 Q43.0687,1355.25 41.1469,1355.25 Q38.8969,1355.25 37.0922,1354.3594 Q35.6391,1353.6563 34.6078,1352.1328 Q33.6,1350.6094 33.6,1348.8047 L33.6,1347.1641 Q33.6,1345.2891 34.4906,1343.6484 Q35.4047,1342.0078 36.975,1341.1406 Q38.5687,1340.25 40.35,1340.25 Q41.4281,1340.25 42.3656,1340.625 Q43.3031,1341 44.1,1341.75 Z " fill="#000000"/><text fill="#000000" font-family="sans-serif" font-size="18" lengthAdjust="spacing" textLength="63" x="63.9" y="1354.3652">Seadist</text><line style="stroke:#A80036;stroke-width:2.25;" x1="12" x2="138" y1="1371" y2="1371"/><text fill="#000000" font-family="sans-serif" font-size="16.5" lengthAdjust="spacing" textLength="55.5" x="19.5" y="1394.1284">-portId1</text><text fill="#000000" font-family="sans-serif" font-size="16.5" lengthAdjust="spacing" textLength="55.5" x="19.5" y="1414.8823">-portId2</text><text fill="#000000" font-family="sans-serif" font-size="16.5" lengthAdjust="spacing" textLength="96" x="19.5" y="1435.6362">-seaDistance</text><text fill="#000000" font-family="sans-serif" font-size="16.5" lengthAdjust="spacing" textLength="84" x="19.5" y="1456.3901">-portName1</text><text fill="#000000" font-family="sans-serif" font-size="16.5" lengthAdjust="spacing" textLength="84" x="19.5" y="1477.144">-portName2</text><text fill="#000000" font-family="sans-serif" font-size="16.5" lengthAdjust="spacing" textLength="111" x="19.5" y="1497.8979">-countryName1</text><text fill="#000000" font-family="sans-serif" font-size="16.5" lengthAdjust="spacing" textLength="111" x="19.5" y="1518.6519">-countryName2</text><line style="stroke:#A80036;stroke-width:2.25;" x1="12" x2="138" y1="1528.2773" y2="1528.2773"/><!--MD5=[305bcb7b78fcb9f22634b78a6e830e55]
class AdjacencyMatrixGraph--><rect codeLine="66" fill="#FEFECE" filter="url(#f1cyee7ep5eoi4)" height="134.2617" id="AdjacencyMatrixGraph" style="stroke:#A80036;stroke-width:2.25;" width="228" x="367.5" y="799.5"/><ellipse cx="390" cy="823.5" fill="#ADD1B2" rx="16.5" ry="16.5" style="stroke:#A80036;stroke-width:1.5;"/><path d="M393,818.25 Q393.3047,817.5 393.6563,817.125 Q394.0078,816.75 394.4063,816.75 Q395.1094,816.75 395.5547,817.1719 Q396,817.5938 396,818.5781 L396,820.9219 Q396,821.9063 395.5781,822.3281 Q395.1563,822.75 394.5,822.75 Q393.9141,822.75 393.5391,822.4922 Q393.1641,822.2344 393,821.5547 Q392.9297,821.0859 392.6719,820.8281 Q392.2031,820.3359 391.3594,820.0547 Q390.5156,819.75 389.6719,819.75 Q388.6172,819.75 387.7266,820.1719 Q386.8594,820.5938 386.1797,821.5313 Q385.5,822.4688 385.5,823.7578 L385.5,825.1406 Q385.5,826.6875 386.7656,827.7188 Q388.0313,828.75 390.2813,828.75 Q391.6172,828.75 392.5547,828.4453 Q393.0938,828.2813 393.7031,827.7422 Q394.1016,827.4375 394.3125,827.3438 Q394.5234,827.25 394.7813,827.25 Q395.2734,827.25 395.625,827.6484 Q396,828.0234 396,828.5625 Q396,829.0781 395.4844,829.6875 Q394.7344,830.5781 393.5391,831.0703 Q391.9688,831.75 390.0469,831.75 Q387.7969,831.75 385.9922,830.8594 Q384.5391,830.1563 383.5078,828.6328 Q382.5,827.1094 382.5,825.3047 L382.5,823.6641 Q382.5,821.7891 383.3906,820.1484 Q384.3047,818.5078 385.875,817.6406 Q387.4688,816.75 389.25,816.75 Q390.3281,816.75 391.2656,817.125 Q392.2031,817.5 393,818.25 Z " fill="#000000"/><text fill="#000000" font-family="sans-serif" font-size="18" lengthAdjust="spacing" textLength="180" x="411" y="830.8652">AdjacencyMatrixGraph</text><line style="stroke:#A80036;stroke-width:2.25;" x1="369" x2="594" y1="847.5" y2="847.5"/><line style="stroke:#A80036;stroke-width:2.25;" x1="369" x2="594" y1="859.5" y2="859.5"/><text fill="#000000" font-family="sans-serif" font-size="16.5" lengthAdjust="spacing" textLength="114" x="376.5" y="882.6284">-numVertices();</text><text fill="#000000" font-family="sans-serif" font-size="16.5" lengthAdjust="spacing" textLength="72" x="376.5" y="903.3823">-vertex(i);</text><text fill="#000000" font-family="sans-serif" font-size="16.5" lengthAdjust="spacing" textLength="46.5" x="376.5" y="924.1362">-key(i)</text><!--MD5=[2e2f8c8f62c4eb3bc59a59727cfd81a5]
class Edge--><rect codeLine="72" fill="#FEFECE" filter="url(#f1cyee7ep5eoi4)" height="72" id="Edge" style="stroke:#A80036;stroke-width:2.25;" width="91.5" x="561.75" y="1092.75"/><ellipse cx="584.25" cy="1116.75" fill="#ADD1B2" rx="16.5" ry="16.5" style="stroke:#A80036;stroke-width:1.5;"/><path d="M587.25,1111.5 Q587.5547,1110.75 587.9063,1110.375 Q588.2578,1110 588.6563,1110 Q589.3594,1110 589.8047,1110.4219 Q590.25,1110.8438 590.25,1111.8281 L590.25,1114.1719 Q590.25,1115.1563 589.8281,1115.5781 Q589.4063,1116 588.75,1116 Q588.1641,1116 587.7891,1115.7422 Q587.4141,1115.4844 587.25,1114.8047 Q587.1797,1114.3359 586.9219,1114.0781 Q586.4531,1113.5859 585.6094,1113.3047 Q584.7656,1113 583.9219,1113 Q582.8672,1113 581.9766,1113.4219 Q581.1094,1113.8438 580.4297,1114.7813 Q579.75,1115.7188 579.75,1117.0078 L579.75,1118.3906 Q579.75,1119.9375 581.0156,1120.9688 Q582.2813,1122 584.5313,1122 Q585.8672,1122 586.8047,1121.6953 Q587.3438,1121.5313 587.9531,1120.9922 Q588.3516,1120.6875 588.5625,1120.5938 Q588.7734,1120.5 589.0313,1120.5 Q589.5234,1120.5 589.875,1120.8984 Q590.25,1121.2734 590.25,1121.8125 Q590.25,1122.3281 589.7344,1122.9375 Q588.9844,1123.8281 587.7891,1124.3203 Q586.2188,1125 584.2969,1125 Q582.0469,1125 580.2422,1124.1094 Q578.7891,1123.4063 577.7578,1121.8828 Q576.75,1120.3594 576.75,1118.5547 L576.75,1116.9141 Q576.75,1115.0391 577.6406,1113.3984 Q578.5547,1111.7578 580.125,1110.8906 Q581.7188,1110 583.5,1110 Q584.5781,1110 585.5156,1110.375 Q586.4531,1110.75 587.25,1111.5 Z " fill="#000000"/><text fill="#000000" font-family="sans-serif" font-size="18" lengthAdjust="spacing" textLength="43.5" x="605.25" y="1124.1152">Edge</text><line style="stroke:#A80036;stroke-width:2.25;" x1="563.25" x2="651.75" y1="1140.75" y2="1140.75"/><line style="stroke:#A80036;stroke-width:2.25;" x1="563.25" x2="651.75" y1="1152.75" y2="1152.75"/><!--MD5=[4725883143e17e75ce026c91e6b27729]
class GraphAlgorithms--><rect codeLine="76" fill="#FEFECE" filter="url(#f1cyee7ep5eoi4)" height="134.2617" id="GraphAlgorithms" style="stroke:#A80036;stroke-width:2.25;" width="709.5" x="648.75" y="799.5"/><ellipse cx="927.375" cy="823.5" fill="#ADD1B2" rx="16.5" ry="16.5" style="stroke:#A80036;stroke-width:1.5;"/><path d="M930.375,818.25 Q930.6797,817.5 931.0313,817.125 Q931.3828,816.75 931.7813,816.75 Q932.4844,816.75 932.9297,817.1719 Q933.375,817.5938 933.375,818.5781 L933.375,820.9219 Q933.375,821.9063 932.9531,822.3281 Q932.5313,822.75 931.875,822.75 Q931.2891,822.75 930.9141,822.4922 Q930.5391,822.2344 930.375,821.5547 Q930.3047,821.0859 930.0469,820.8281 Q929.5781,820.3359 928.7344,820.0547 Q927.8906,819.75 927.0469,819.75 Q925.9922,819.75 925.1016,820.1719 Q924.2344,820.5938 923.5547,821.5313 Q922.875,822.4688 922.875,823.7578 L922.875,825.1406 Q922.875,826.6875 924.1406,827.7188 Q925.4063,828.75 927.6563,828.75 Q928.9922,828.75 929.9297,828.4453 Q930.4688,828.2813 931.0781,827.7422 Q931.4766,827.4375 931.6875,827.3438 Q931.8984,827.25 932.1563,827.25 Q932.6484,827.25 933,827.6484 Q933.375,828.0234 933.375,828.5625 Q933.375,829.0781 932.8594,829.6875 Q932.1094,830.5781 930.9141,831.0703 Q929.3438,831.75 927.4219,831.75 Q925.1719,831.75 923.3672,830.8594 Q921.9141,830.1563 920.8828,828.6328 Q919.875,827.1094 919.875,825.3047 L919.875,823.6641 Q919.875,821.7891 920.7656,820.1484 Q921.6797,818.5078 923.25,817.6406 Q924.8438,816.75 926.625,816.75 Q927.7031,816.75 928.6406,817.125 Q929.5781,817.5 930.375,818.25 Z " fill="#000000"/><text fill="#000000" font-family="sans-serif" font-size="18" lengthAdjust="spacing" textLength="139.5" x="958.125" y="830.8652">GraphAlgorithms</text><line style="stroke:#A80036;stroke-width:2.25;" x1="650.25" x2="1356.75" y1="847.5" y2="847.5"/><line style="stroke:#A80036;stroke-width:2.25;" x1="650.25" x2="1356.75" y1="859.5" y2="859.5"/><text fill="#000000" font-family="sans-serif" font-size="16.5" lengthAdjust="spacing" textLength="691.5" x="657.75" y="882.6284">-shortestPaths(adjacencyMatrixGraph, origem, Double::compare, Double::sum, 0.0, paths, dists)</text><text fill="#000000" font-family="sans-serif" font-size="16.5" lengthAdjust="spacing" textLength="495" x="657.75" y="903.3823">-shortestPathDijkstra(g, vOrig, ce, sum, zero, visited, pathKeys, dist)</text><text fill="#000000" font-family="sans-serif" font-size="16.5" lengthAdjust="spacing" textLength="336" x="657.75" y="924.1362">-getPath(g, vOrig, vDest, pathKeys, shortPath)</text><!--MD5=[03b281342dd978a4a2fe52cea6932ed8]
link GetsPortsMoreCriticalUI to GetsPortsMoreCriticalController--><path codeLine="82" d="M312,82.605 C312,106.515 312,138.765 312,165.9 " fill="none" id="GetsPortsMoreCriticalUI-to-GetsPortsMoreCriticalController" style="stroke:#A80036;stroke-width:1.5;stroke-dasharray:7.0,7.0;"/><polygon fill="#A80036" points="312,173.415,318,159.915,312,165.915,306,159.915,312,173.415" style="stroke:#A80036;stroke-width:1.5;"/><!--MD5=[1544a082ef3b876fd8b9218ab2bb9420]
link GetsPortsMoreCriticalController to Company--><path codeLine="84" d="M292.65,267.015 C281.85,292.155 268.23,323.85 256.41,351.375 " fill="none" id="GetsPortsMoreCriticalController-to-Company" style="stroke:#A80036;stroke-width:1.5;stroke-dasharray:7.0,7.0;"/><polygon fill="#A80036" points="253.44,358.275,264.2841,348.2423,256.4022,351.3847,253.2597,343.5028,253.44,358.275" style="stroke:#A80036;stroke-width:1.5;"/><!--MD5=[0fc1302b32489c5d0bef0539643e69bf]
link GetsPortsMoreCriticalController to FreightNetwork--><path codeLine="85" d="M321.645,267.465 C327.24,294 334.365,328.125 340.5,358.5 C356.13,435.81 373.545,525.465 384.255,581.085 " fill="none" id="GetsPortsMoreCriticalController-to-FreightNetwork" style="stroke:#A80036;stroke-width:1.5;stroke-dasharray:7.0,7.0;"/><polygon fill="#A80036" points="385.785,589.05,389.1338,574.6613,384.3718,581.6843,377.3488,576.9224,385.785,589.05" style="stroke:#A80036;stroke-width:1.5;"/><!--MD5=[e359b474b5bea3d5e0a05d5f38acf6c5]
link Company to FreightNetwork--><path codeLine="87" d="M252.3,472.98 C263.145,496.26 277.395,522.855 294,544.5 C306.255,560.475 321.63,575.88 336.63,589.29 " fill="none" id="Company-FreightNetwork" style="stroke:#A80036;stroke-width:1.5;"/><polygon fill="#000000" points="305.9024,537.3356,301.5074,523.7637,294.3694,528.939,305.9024,537.3356" style="stroke:#000000;stroke-width:1.5;"/><text fill="#000000" font-family="sans-serif" font-size="19.5" lengthAdjust="spacing" textLength="39" x="315" y="539.2427">have</text><text fill="#000000" font-family="sans-serif" font-size="19.5" lengthAdjust="spacing" textLength="10.5" x="244.597" y="504.3773">1</text><text fill="#000000" font-family="sans-serif" font-size="19.5" lengthAdjust="spacing" textLength="10.5" x="313.1115" y="573.5035">1</text><!--MD5=[c8e8e510b3d61337403bff1e4f9e7277]
link FreightNetwork to AdjacencyMatrixGraph--><path codeLine="88" d="M411.69,682.545 C423.615,713.82 439.785,756.165 453.555,792.255 " fill="none" id="FreightNetwork-to-AdjacencyMatrixGraph" style="stroke:#A80036;stroke-width:1.5;stroke-dasharray:7.0,7.0;"/><polygon fill="#A80036" points="456.27,799.38,457.0541,784.6275,453.592,792.3744,445.8452,788.9123,456.27,799.38" style="stroke:#A80036;stroke-width:1.5;"/><!--MD5=[5957790c5297b9f6d5589f6d219daa42]
link AdjacencyMatrixGraph to Edge--><path codeLine="89" d="M513.945,935.13 C537.105,982.695 567.54,1045.185 587.295,1085.775 " fill="none" id="AdjacencyMatrixGraph-to-Edge" style="stroke:#A80036;stroke-width:1.5;stroke-dasharray:7.0,7.0;"/><polygon fill="#A80036" points="590.625,1092.585,590.1054,1077.8209,587.3398,1085.8428,579.3178,1083.0772,590.625,1092.585" style="stroke:#A80036;stroke-width:1.5;"/><!--MD5=[3d97e7a8068d9b0a6bb8fcf7dc76451d]
link Company to Ports--><path codeLine="90" d="M217.38,472.725 C188.535,605.34 116.07,938.445 87.18,1071.285 " fill="none" id="Company-Ports" style="stroke:#A80036;stroke-width:1.5;"/><polygon fill="#000000" points="167.9059,748.5923,175.0973,736.2717,166.482,734.3977,167.9059,748.5923" style="stroke:#000000;stroke-width:1.5;"/><text fill="#000000" font-family="sans-serif" font-size="19.5" lengthAdjust="spacing" textLength="39" x="183" y="749.2427">have</text><text fill="#000000" font-family="sans-serif" font-size="19.5" lengthAdjust="spacing" textLength="10.5" x="204.1117" y="504.0817">1</text><text fill="#000000" font-family="sans-serif" font-size="19.5" lengthAdjust="spacing" textLength="30" x="56.6953" y="1055.676">1..*</text><!--MD5=[6d3d45a2319404bb3e06b58881af6b0d]
link Ports to Seadist--><path codeLine="92" d="M75,1185.975 C75,1224.27 75,1276.35 75,1322.595 " fill="none" id="Ports-Seadist" style="stroke:#A80036;stroke-width:1.5;"/><text fill="#000000" font-family="sans-serif" font-size="19.5" lengthAdjust="spacing" textLength="48" x="76.5" y="1272.7427">has a</text><text fill="#000000" font-family="sans-serif" font-size="19.5" lengthAdjust="spacing" textLength="10.5" x="63.6633" y="1217.3317">2</text><text fill="#000000" font-family="sans-serif" font-size="19.5" lengthAdjust="spacing" textLength="7.5" x="67.1133" y="1306.3822">*</text><!--MD5=[fa4d65f953ae0f8f2ca1213e61726aa9]
link FreightNetwork to Place--><path codeLine="93" d="M349.68,682.62 C337.77,696.255 325.68,711.795 316.5,727.5 C297.345,760.23 283.725,801.615 275.685,830.49 " fill="none" id="FreightNetwork-Place" style="stroke:#A80036;stroke-width:1.5;"/><text fill="#000000" font-family="sans-serif" font-size="19.5" lengthAdjust="spacing" textLength="99" x="318" y="749.2427">related with</text><text fill="#000000" font-family="sans-serif" font-size="19.5" lengthAdjust="spacing" textLength="10.5" x="329.3225" y="714.4796">1</text><text fill="#000000" font-family="sans-serif" font-size="19.5" lengthAdjust="spacing" textLength="30" x="244.1457" y="814.9726">1..*</text><!--MD5=[8019f7a40ce5be359cb5778b910e4989]
reverse link Place to Capital--><path codeLine="94" d="M327.825,923.835 C356.22,949.845 384.405,975.945 387,979.5 C402.855,1001.22 416.445,1027.17 427.275,1051.215 " fill="none" id="Place-backto-Capital" style="stroke:#A80036;stroke-width:1.5;"/><polygon fill="none" points="320.565,931.425,305.49,903.45,334.725,915.915,320.565,931.425" style="stroke:#A80036;stroke-width:1.5;"/><!--MD5=[c549efd5903bd57ae8426884da365cce]
reverse link Place to Ports--><path codeLine="95" d="M223.215,927.51 C191.085,970.8 147.765,1029.195 116.25,1071.66 " fill="none" id="Place-backto-Ports" style="stroke:#A80036;stroke-width:1.5;"/><polygon fill="none" points="214.8,921.225,241.11,903.39,231.66,933.75,214.8,921.225" style="stroke:#A80036;stroke-width:1.5;"/><!--MD5=[553c71e238892de64676e9482c62727a]
link Country to Border--><path codeLine="96" d="M267,1489.185 C267,1537.98 267,1608.39 267,1657.155 " fill="none" id="Country-Border" style="stroke:#A80036;stroke-width:1.5;"/><text fill="#000000" font-family="sans-serif" font-size="19.5" lengthAdjust="spacing" textLength="48" x="268.5" y="1607.2427">has a</text><text fill="#000000" font-family="sans-serif" font-size="19.5" lengthAdjust="spacing" textLength="10.5" x="255.6633" y="1520.5751">2</text><text fill="#000000" font-family="sans-serif" font-size="19.5" lengthAdjust="spacing" textLength="7.5" x="258.832" y="1641.1364">*</text><!--MD5=[3d04185e7085eaaeba7ebd93b9963be0]
link PlaceLocation to Country--><path codeLine="97" d="M267,1185.975 C267,1239.69 267,1320.525 267,1374.315 " fill="none" id="PlaceLocation-Country" style="stroke:#A80036;stroke-width:1.5;"/><polygon fill="#000000" points="274.5,1272.2637,278.9084,1258.696,270.0916,1258.696,274.5,1272.2637" style="stroke:#000000;stroke-width:1.5;"/><text fill="#000000" font-family="sans-serif" font-size="19.5" lengthAdjust="spacing" textLength="78" x="288" y="1272.7427">placed in</text><text fill="#000000" font-family="sans-serif" font-size="19.5" lengthAdjust="spacing" textLength="7.5" x="258.9023" y="1217.3317">*</text><text fill="#000000" font-family="sans-serif" font-size="19.5" lengthAdjust="spacing" textLength="10.5" x="255.5648" y="1358.2804">1</text><!--MD5=[3f90a4e0e12e19ee6f3a457d358ba219]
link Place to PlaceLocation--><path codeLine="98" d="M267,903.39 C267,946.575 267,1020.615 267,1071.66 " fill="none" id="Place-PlaceLocation" style="stroke:#A80036;stroke-width:1.5;"/><polygon fill="#000000" points="274.5,1000.7637,278.9084,987.196,270.0916,987.196,274.5,1000.7637" style="stroke:#000000;stroke-width:1.5;"/><text fill="#000000" font-family="sans-serif" font-size="19.5" lengthAdjust="spacing" textLength="85.5" x="288" y="1001.2427">located at</text><text fill="#000000" font-family="sans-serif" font-size="19.5" lengthAdjust="spacing" textLength="10.5" x="255.2203" y="935.492">1</text><text fill="#000000" font-family="sans-serif" font-size="19.5" lengthAdjust="spacing" textLength="10.5" x="255.532" y="1055.2582">1</text><!--MD5=[d59c191018d8f0909d7dec2dfa54a3ac]
link FreightNetwork to GraphAlgorithms--><path codeLine="99" d="M493.695,674.64 C581.58,707.535 712.17,756.435 819.18,796.485 " fill="none" id="FreightNetwork-to-GraphAlgorithms" style="stroke:#A80036;stroke-width:1.5;stroke-dasharray:7.0,7.0;"/><polygon fill="#A80036" points="826.845,799.365,816.3113,789.0069,819.8225,796.7316,812.0978,800.2428,826.845,799.365" style="stroke:#A80036;stroke-width:1.5;"/><!--MD5=[2b7fcb74a7915c03998017f2d0fe32bc]
@startuml
'https://plantuml.com/class-diagram

skinparam classAttributeIconSize 0



class GetsPortsMoreCriticalUI {}

class GetsPortsMoreCriticalController {
-getsPortsMoreCritical(n)
}

class Company {
-designation
-getFreightNetwork()
}



class FreightNetwork {
-getsPortsMoreCritical(n)
}

class Ports {
-identification
-name
}


class Country {
-name
-continent
}

class PlaceLocation {
-latitude
-longitude
}

class Capital{
-name
-country
-latitude
-longitude
}

class Place {

}

class Border {
-countryName1
-countryName2
}

class Seadist {
-portId1
-portId2
-seaDistance
-portName1
-portName2
-countryName1
-countryName2
}

class AdjacencyMatrixGraph {
-numVertices();
-vertex(i);
-key(i)
}

class Edge {

}

class GraphAlgorithms {
-shortestPaths(adjacencyMatrixGraph, origem, Double::compare, Double::sum, 0.0, paths, dists)
-shortestPathDijkstra(g, vOrig, ce, sum, zero, visited, pathKeys, dist)
-getPath(g, vOrig, vDest, pathKeys, shortPath)
}

GetsPortsMoreCriticalUI ..> GetsPortsMoreCriticalController

GetsPortsMoreCriticalController ..> Company
GetsPortsMoreCriticalController ..> FreightNetwork

Company "1"- -"1" FreightNetwork: have >
FreightNetwork ..> AdjacencyMatrixGraph
AdjacencyMatrixGraph ..> Edge
Company "1"- -"1..*" Ports: have >

Ports "2"- -"*" Seadist: has a
FreightNetwork "1" - - "1..*" Place : related with
Place <|- - Capital
Place <|- - Ports
Country "2" - - "*" Border : has a
PlaceLocation "*" - - "1" Country : placed in >
Place "1" - - "1" PlaceLocation : located at >
FreightNetwork ..> GraphAlgorithms

@enduml

@startuml

skinparam classAttributeIconSize 0



class GetsPortsMoreCriticalUI {}

class GetsPortsMoreCriticalController {
-getsPortsMoreCritical(n)
}

class Company {
-designation
-getFreightNetwork()
}



class FreightNetwork {
-getsPortsMoreCritical(n)
}

class Ports {
-identification
-name
}


class Country {
-name
-continent
}

class PlaceLocation {
-latitude
-longitude
}

class Capital{
-name
-country
-latitude
-longitude
}

class Place {

}

class Border {
-countryName1
-countryName2
}

class Seadist {
-portId1
-portId2
-seaDistance
-portName1
-portName2
-countryName1
-countryName2
}

class AdjacencyMatrixGraph {
-numVertices();
-vertex(i);
-key(i)
}

class Edge {

}

class GraphAlgorithms {
-shortestPaths(adjacencyMatrixGraph, origem, Double::compare, Double::sum, 0.0, paths, dists)
-shortestPathDijkstra(g, vOrig, ce, sum, zero, visited, pathKeys, dist)
-getPath(g, vOrig, vDest, pathKeys, shortPath)
}

GetsPortsMoreCriticalUI ..> GetsPortsMoreCriticalController

GetsPortsMoreCriticalController ..> Company
GetsPortsMoreCriticalController ..> FreightNetwork

Company "1"- -"1" FreightNetwork: have >
FreightNetwork ..> AdjacencyMatrixGraph
AdjacencyMatrixGraph ..> Edge
Company "1"- -"1..*" Ports: have >

Ports "2"- -"*" Seadist: has a
FreightNetwork "1" - - "1..*" Place : related with
Place <|- - Capital
Place <|- - Ports
Country "2" - - "*" Border : has a
PlaceLocation "*" - - "1" Country : placed in >
Place "1" - - "1" PlaceLocation : located at >
FreightNetwork ..> GraphAlgorithms

@enduml

PlantUML version 1.2021.5(Sun Apr 25 12:20:28 BST 2021)
(GPL source distribution)
Java Runtime: OpenJDK Runtime Environment
JVM: Dynamic Code Evolution 64-Bit Server VM
Default Encoding: Cp1252
Language: pt
Country: PT
--></g></svg>