<?xml version="1.0" encoding="UTF-8" standalone="no"?><svg xmlns="http://www.w3.org/2000/svg" xmlns:xlink="http://www.w3.org/1999/xlink" contentScriptType="application/ecmascript" contentStyleType="text/css" height="509px" preserveAspectRatio="none" style="width:1085px;height:509px;background:#FFFFFF;" version="1.1" viewBox="0 0 1085 509" width="1085px" zoomAndPan="magnify"><defs><filter height="300%" id="f1nmivsyfu2ig1" width="300%" x="-1" y="-1"><feGaussianBlur result="blurOut" stdDeviation="2.0"/><feColorMatrix in="blurOut" result="blurOut2" type="matrix" values="0 0 0 0 0 0 0 0 0 0 0 0 0 0 0 0 0 0 .4 0"/><feOffset dx="4.0" dy="4.0" in="blurOut2" result="blurOut3"/><feBlend in="SourceGraphic" in2="blurOut3" mode="normal"/></filter></defs><g><rect fill="#FFFFFF" filter="url(#f1nmivsyfu2ig1)" height="306.7188" style="stroke:#A80036;stroke-width:1.0;" width="10" x="53" y="99.6094"/><rect fill="#FFFFFF" filter="url(#f1nmivsyfu2ig1)" height="284.3672" style="stroke:#A80036;stroke-width:1.0;" width="10" x="434" y="121.9609"/><rect fill="#FFFFFF" filter="url(#f1nmivsyfu2ig1)" height="223.6641" style="stroke:#A80036;stroke-width:1.0;" width="10" x="629" y="152.3125"/><rect fill="#FFFFFF" filter="url(#f1nmivsyfu2ig1)" height="138.7031" style="stroke:#A80036;stroke-width:1.0;" width="10" x="800.5" y="237.2734"/><rect fill="#FFFFFF" filter="url(#f1nmivsyfu2ig1)" height="28" style="stroke:#A80036;stroke-width:1.0;" width="10" x="805.5" y="280.625"/><rect fill="#FFFFFF" filter="url(#f1nmivsyfu2ig1)" height="30" style="stroke:#A80036;stroke-width:1.0;" width="10" x="1015.5" y="345.9766"/><line style="stroke:#A80036;stroke-width:1.0;stroke-dasharray:5.0,5.0;" x1="58" x2="58" y1="89.6094" y2="424.3281"/><line style="stroke:#A80036;stroke-width:1.0;stroke-dasharray:5.0,5.0;" x1="439" x2="439" y1="89.6094" y2="424.3281"/><line style="stroke:#A80036;stroke-width:1.0;stroke-dasharray:5.0,5.0;" x1="634" x2="634" y1="89.6094" y2="424.3281"/><line style="stroke:#A80036;stroke-width:1.0;stroke-dasharray:5.0,5.0;" x1="805" x2="805" y1="193.6172" y2="424.3281"/><line style="stroke:#A80036;stroke-width:1.0;stroke-dasharray:5.0,5.0;" x1="1020" x2="1020" y1="89.6094" y2="424.3281"/><text fill="#000000" font-family="sans-serif" font-size="14" lengthAdjust="spacing" textLength="100" x="5" y="86.5332">Traffic manager</text><ellipse cx="58" cy="15" fill="#FEFECE" filter="url(#f1nmivsyfu2ig1)" rx="8" ry="8" style="stroke:#A80036;stroke-width:2.0;"/><path d="M58,23 L58,50 M45,31 L71,31 M58,50 L45,65 M58,50 L71,65 " fill="none" filter="url(#f1nmivsyfu2ig1)" style="stroke:#A80036;stroke-width:2.0;"/><text fill="#000000" font-family="sans-serif" font-size="14" lengthAdjust="spacing" textLength="100" x="5" y="437.8613">Traffic manager</text><ellipse cx="58" cy="450.9375" fill="#FEFECE" filter="url(#f1nmivsyfu2ig1)" rx="8" ry="8" style="stroke:#A80036;stroke-width:2.0;"/><path d="M58,458.9375 L58,485.9375 M45,466.9375 L71,466.9375 M58,485.9375 L45,500.9375 M58,485.9375 L71,500.9375 " fill="none" filter="url(#f1nmivsyfu2ig1)" style="stroke:#A80036;stroke-width:2.0;"/><rect fill="#FEFECE" filter="url(#f1nmivsyfu2ig1)" height="31.6094" style="stroke:#A80036;stroke-width:1.5;" width="156" x="359" y="53"/><text fill="#000000" font-family="sans-serif" font-size="14" lengthAdjust="spacing" textLength="142" x="366" y="74.5332">:WarningWarehouseUi</text><rect fill="#FEFECE" filter="url(#f1nmivsyfu2ig1)" height="31.6094" style="stroke:#A80036;stroke-width:1.5;" width="156" x="359" y="423.3281"/><text fill="#000000" font-family="sans-serif" font-size="14" lengthAdjust="spacing" textLength="142" x="366" y="444.8613">:WarningWarehouseUi</text><rect fill="#FEFECE" filter="url(#f1nmivsyfu2ig1)" height="31.6094" style="stroke:#A80036;stroke-width:1.5;" width="206" x="529" y="53"/><text fill="#000000" font-family="sans-serif" font-size="14" lengthAdjust="spacing" textLength="192" x="536" y="74.5332">:WarningWarehouseController</text><rect fill="#FEFECE" filter="url(#f1nmivsyfu2ig1)" height="31.6094" style="stroke:#A80036;stroke-width:1.5;" width="206" x="529" y="423.3281"/><text fill="#000000" font-family="sans-serif" font-size="14" lengthAdjust="spacing" textLength="192" x="536" y="444.8613">:WarningWarehouseController</text><rect fill="#FEFECE" filter="url(#f1nmivsyfu2ig1)" height="31.6094" style="stroke:#A80036;stroke-width:1.5;" width="109" x="749" y="423.3281"/><text fill="#000000" font-family="sans-serif" font-size="14" lengthAdjust="spacing" textLength="95" x="756" y="444.8613">:US307Handler</text><rect fill="#FEFECE" filter="url(#f1nmivsyfu2ig1)" height="31.6094" style="stroke:#A80036;stroke-width:1.5;" width="105" x="966" y="53"/><text fill="#000000" font-family="sans-serif" font-size="14" lengthAdjust="spacing" textLength="91" x="973" y="74.5332">:WriteForAFile</text><rect fill="#FEFECE" filter="url(#f1nmivsyfu2ig1)" height="31.6094" style="stroke:#A80036;stroke-width:1.5;" width="105" x="966" y="423.3281"/><text fill="#000000" font-family="sans-serif" font-size="14" lengthAdjust="spacing" textLength="91" x="973" y="444.8613">:WriteForAFile</text><rect fill="#FFFFFF" filter="url(#f1nmivsyfu2ig1)" height="306.7188" style="stroke:#A80036;stroke-width:1.0;" width="10" x="53" y="99.6094"/><rect fill="#FFFFFF" filter="url(#f1nmivsyfu2ig1)" height="284.3672" style="stroke:#A80036;stroke-width:1.0;" width="10" x="434" y="121.9609"/><rect fill="#FFFFFF" filter="url(#f1nmivsyfu2ig1)" height="223.6641" style="stroke:#A80036;stroke-width:1.0;" width="10" x="629" y="152.3125"/><rect fill="#FFFFFF" filter="url(#f1nmivsyfu2ig1)" height="138.7031" style="stroke:#A80036;stroke-width:1.0;" width="10" x="800.5" y="237.2734"/><rect fill="#FFFFFF" filter="url(#f1nmivsyfu2ig1)" height="28" style="stroke:#A80036;stroke-width:1.0;" width="10" x="805.5" y="280.625"/><rect fill="#FFFFFF" filter="url(#f1nmivsyfu2ig1)" height="30" style="stroke:#A80036;stroke-width:1.0;" width="10" x="1015.5" y="345.9766"/><polygon fill="#A80036" points="422,117.9609,432,121.9609,422,125.9609,426,121.9609" style="stroke:#A80036;stroke-width:1.0;"/><line style="stroke:#A80036;stroke-width:1.0;" x1="63" x2="428" y1="121.9609" y2="121.9609"/><text fill="#000000" font-family="sans-serif" font-size="13" lengthAdjust="spacing" textLength="352" x="70" y="117.1045">tries to add a container to a warehouse that does not support</text><polygon fill="#A80036" points="617,148.3125,627,152.3125,617,156.3125,621,152.3125" style="stroke:#A80036;stroke-width:1.0;"/><line style="stroke:#A80036;stroke-width:1.0;" x1="444" x2="623" y1="152.3125" y2="152.3125"/><text fill="#000000" font-family="sans-serif" font-size="13" lengthAdjust="spacing" textLength="83" x="451" y="147.4561">createUS307()</text><polygon fill="#A80036" points="737,178.6641,747,182.6641,737,186.6641,741,182.6641" style="stroke:#A80036;stroke-width:1.0;"/><line style="stroke:#A80036;stroke-width:1.0;" x1="639" x2="743" y1="182.6641" y2="182.6641"/><text fill="#000000" font-family="sans-serif" font-size="13" lengthAdjust="spacing" textLength="44" x="646" y="177.8076">create()</text><rect fill="#FEFECE" filter="url(#f1nmivsyfu2ig1)" height="31.6094" style="stroke:#A80036;stroke-width:1.5;" width="109" x="749" y="160.3125"/><text fill="#000000" font-family="sans-serif" font-size="14" lengthAdjust="spacing" textLength="95" x="756" y="181.8457">:US307Handler</text><line style="stroke:#A80036;stroke-width:1.0;" x1="805.5" x2="852.5" y1="224.2734" y2="224.2734"/><line style="stroke:#A80036;stroke-width:1.0;" x1="852.5" x2="852.5" y1="224.2734" y2="237.2734"/><line style="stroke:#A80036;stroke-width:1.0;" x1="811.5" x2="852.5" y1="237.2734" y2="237.2734"/><polygon fill="#A80036" points="821.5,233.2734,811.5,237.2734,821.5,241.2734,817.5,237.2734" style="stroke:#A80036;stroke-width:1.0;"/><text fill="#000000" font-family="sans-serif" font-size="13" lengthAdjust="spacing" textLength="55" x="817.5" y="219.417">initialize()</text><line style="stroke:#A80036;stroke-width:1.0;" x1="815.5" x2="857.5" y1="272.625" y2="272.625"/><line style="stroke:#A80036;stroke-width:1.0;" x1="857.5" x2="857.5" y1="272.625" y2="285.625"/><line style="stroke:#A80036;stroke-width:1.0;" x1="816.5" x2="857.5" y1="285.625" y2="285.625"/><polygon fill="#A80036" points="826.5,281.625,816.5,285.625,826.5,289.625,822.5,285.625" style="stroke:#A80036;stroke-width:1.0;"/><text fill="#000000" font-family="sans-serif" font-size="13" lengthAdjust="spacing" textLength="171" x="822.5" y="267.7686">textualInformation = toString()</text><polygon fill="#A80036" points="1003.5,341.9766,1013.5,345.9766,1003.5,349.9766,1007.5,345.9766" style="stroke:#A80036;stroke-width:1.0;"/><line style="stroke:#A80036;stroke-width:1.0;" x1="810.5" x2="1009.5" y1="345.9766" y2="345.9766"/><text fill="#000000" font-family="sans-serif" font-size="13" lengthAdjust="spacing" textLength="186" x="817.5" y="341.1201">writeForAFile(textualInformation)</text><polygon fill="#A80036" points="69,402.3281,59,406.3281,69,410.3281,65,406.3281" style="stroke:#A80036;stroke-width:1.0;"/><line style="stroke:#A80036;stroke-width:1.0;stroke-dasharray:2.0,2.0;" x1="63" x2="438" y1="406.3281" y2="406.3281"/><text fill="#000000" font-family="sans-serif" font-size="13" lengthAdjust="spacing" textLength="136" x="75" y="401.4717">receive or not a warning</text><!--MD5=[8cbd4c25a246e053a4c25b5f6d55ac91]
@startuml
'https://plantuml.com/sequence-diagram

actor "Traffic manager" as TM
participant ":WarningWarehouseUi" as UI
participant ":WarningWarehouseController" as CT
participant ":US307Handler" as US
participant ":WriteForAFile" as WF

activate TM

TM -> UI : tries to add a container to a warehouse that does not support
activate UI
UI->CT : createUS307()

activate CT
CT -> US** : create()
US -> US : initialize()
activate US
US->US : textualInformation = toString()
activate US
deactivate US
US -> WF : writeForAFile(textualInformation)
activate WF
deactivate WF

deactivate US
deactivate CT

UI - -> TM : receive or not a warning
deactivate UI
deactivate TM
@enduml

@startuml

actor "Traffic manager" as TM
participant ":WarningWarehouseUi" as UI
participant ":WarningWarehouseController" as CT
participant ":US307Handler" as US
participant ":WriteForAFile" as WF

activate TM

TM -> UI : tries to add a container to a warehouse that does not support
activate UI
UI->CT : createUS307()

activate CT
CT -> US** : create()
US -> US : initialize()
activate US
US->US : textualInformation = toString()
activate US
deactivate US
US -> WF : writeForAFile(textualInformation)
activate WF
deactivate WF

deactivate US
deactivate CT

UI - -> TM : receive or not a warning
deactivate UI
deactivate TM
@enduml

PlantUML version 1.2021.11(Sat Oct 02 14:26:11 BST 2021)
(GPL source distribution)
Java Runtime: OpenJDK Runtime Environment
JVM: OpenJDK 64-Bit Server VM
Default Encoding: Cp1252
Language: pt
Country: PT
--></g></svg>