<?xml version="1.0" encoding="UTF-8" standalone="no"?><svg xmlns="http://www.w3.org/2000/svg" xmlns:xlink="http://www.w3.org/1999/xlink" contentScriptType="application/ecmascript" contentStyleType="text/css" height="429px" preserveAspectRatio="none" style="width:313px;height:429px;background:#FFFFFF;" version="1.1" viewBox="0 0 313 429" width="313px" zoomAndPan="magnify"><defs><filter height="300%" id="fnpu58hjry867" width="300%" x="-1" y="-1"><feGaussianBlur result="blurOut" stdDeviation="2.0"/><feColorMatrix in="blurOut" result="blurOut2" type="matrix" values="0 0 0 0 0 0 0 0 0 0 0 0 0 0 0 0 0 0 .4 0"/><feOffset dx="4.0" dy="4.0" in="blurOut2" result="blurOut3"/><feBlend in="SourceGraphic" in2="blurOut3" mode="normal"/></filter></defs><g><!--MD5=[a3093aa9f96b7df9aab31d8715601ff6]
class Containers--><rect codeLine="3" fill="#FEFECE" filter="url(#fnpu58hjry867)" height="186.3594" id="Containers" style="stroke:#A80036;stroke-width:1.5;" width="108" x="16" y="7"/><ellipse cx="37.75" cy="23" fill="#ADD1B2" rx="11" ry="11" style="stroke:#A80036;stroke-width:1.0;"/><path d="M39.75,19.5 Q39.9531,19 40.1875,18.75 Q40.4219,18.5 40.6875,18.5 Q41.1563,18.5 41.4531,18.7813 Q41.75,19.0625 41.75,19.7188 L41.75,21.2813 Q41.75,21.9375 41.4688,22.2188 Q41.1875,22.5 40.75,22.5 Q40.3594,22.5 40.1094,22.3281 Q39.8594,22.1563 39.75,21.7031 Q39.7031,21.3906 39.5313,21.2188 Q39.2188,20.8906 38.6563,20.7031 Q38.0938,20.5 37.5313,20.5 Q36.8281,20.5 36.2344,20.7813 Q35.6563,21.0625 35.2031,21.6875 Q34.75,22.3125 34.75,23.1719 L34.75,24.0938 Q34.75,25.125 35.5938,25.8125 Q36.4375,26.5 37.9375,26.5 Q38.8281,26.5 39.4531,26.2969 Q39.8125,26.1875 40.2188,25.8281 Q40.4844,25.625 40.625,25.5625 Q40.7656,25.5 40.9375,25.5 Q41.2656,25.5 41.5,25.7656 Q41.75,26.0156 41.75,26.375 Q41.75,26.7188 41.4063,27.125 Q40.9063,27.7188 40.1094,28.0469 Q39.0625,28.5 37.7813,28.5 Q36.2813,28.5 35.0781,27.9063 Q34.1094,27.4375 33.4219,26.4219 Q32.75,25.4063 32.75,24.2031 L32.75,23.1094 Q32.75,21.8594 33.3438,20.7656 Q33.9531,19.6719 35,19.0938 Q36.0625,18.5 37.25,18.5 Q37.9688,18.5 38.5938,18.75 Q39.2188,19 39.75,19.5 Z " fill="#000000"/><text fill="#000000" font-family="sans-serif" font-size="12" lengthAdjust="spacing" textLength="61" x="53.25" y="27.9102">Containers</text><line style="stroke:#A80036;stroke-width:1.5;" x1="17" x2="123" y1="39" y2="39"/><text fill="#000000" font-family="sans-serif" font-size="11" lengthAdjust="spacing" textLength="10" x="36" y="54.4189">-x</text><text fill="#000000" font-family="sans-serif" font-size="11" lengthAdjust="spacing" textLength="10" x="36" y="68.2549">-y</text><text fill="#000000" font-family="sans-serif" font-size="11" lengthAdjust="spacing" textLength="10" x="36" y="82.0908">-z</text><rect fill="none" height="6" style="stroke:#C82930;stroke-width:1.0;" width="6" x="24" y="88.5078"/><text fill="#000000" font-family="sans-serif" font-size="11" lengthAdjust="spacing" textLength="82" x="36" y="95.9268">containerNumber</text><rect fill="none" height="6" style="stroke:#C82930;stroke-width:1.0;" width="6" x="24" y="102.3438"/><text fill="#000000" font-family="sans-serif" font-size="11" lengthAdjust="spacing" textLength="49" x="36" y="109.7627">checkDigit</text><rect fill="none" height="6" style="stroke:#C82930;stroke-width:1.0;" width="6" x="24" y="116.1797"/><text fill="#000000" font-family="sans-serif" font-size="11" lengthAdjust="spacing" textLength="39" x="36" y="123.5986">isoCode</text><rect fill="none" height="6" style="stroke:#C82930;stroke-width:1.0;" width="6" x="24" y="130.0156"/><text fill="#000000" font-family="sans-serif" font-size="11" lengthAdjust="spacing" textLength="42" x="36" y="137.4346">payLoad</text><rect fill="none" height="6" style="stroke:#C82930;stroke-width:1.0;" width="6" x="24" y="143.8516"/><text fill="#000000" font-family="sans-serif" font-size="11" lengthAdjust="spacing" textLength="19" x="36" y="151.2705">tare</text><rect fill="none" height="6" style="stroke:#C82930;stroke-width:1.0;" width="6" x="24" y="157.6875"/><text fill="#000000" font-family="sans-serif" font-size="11" lengthAdjust="spacing" textLength="28" x="36" y="165.1064">gross</text><rect fill="none" height="6" style="stroke:#C82930;stroke-width:1.0;" width="6" x="24" y="171.5234"/><text fill="#000000" font-family="sans-serif" font-size="11" lengthAdjust="spacing" textLength="33" x="36" y="178.9424">weight</text><line style="stroke:#A80036;stroke-width:1.5;" x1="17" x2="123" y1="185.3594" y2="185.3594"/><!--MD5=[76562047389981627aea27c31a97aff5]
class CargoManifest--><rect codeLine="16" fill="#FEFECE" filter="url(#fnpu58hjry867)" height="144.8516" id="CargoManifest" style="stroke:#A80036;stroke-width:1.5;" width="126" x="7" y="271"/><ellipse cx="28.3" cy="287" fill="#ADD1B2" rx="11" ry="11" style="stroke:#A80036;stroke-width:1.0;"/><path d="M30.3,283.5 Q30.5031,283 30.7375,282.75 Q30.9719,282.5 31.2375,282.5 Q31.7063,282.5 32.0031,282.7813 Q32.3,283.0625 32.3,283.7188 L32.3,285.2813 Q32.3,285.9375 32.0188,286.2188 Q31.7375,286.5 31.3,286.5 Q30.9094,286.5 30.6594,286.3281 Q30.4094,286.1563 30.3,285.7031 Q30.2531,285.3906 30.0813,285.2188 Q29.7688,284.8906 29.2063,284.7031 Q28.6438,284.5 28.0813,284.5 Q27.3781,284.5 26.7844,284.7813 Q26.2063,285.0625 25.7531,285.6875 Q25.3,286.3125 25.3,287.1719 L25.3,288.0938 Q25.3,289.125 26.1438,289.8125 Q26.9875,290.5 28.4875,290.5 Q29.3781,290.5 30.0031,290.2969 Q30.3625,290.1875 30.7688,289.8281 Q31.0344,289.625 31.175,289.5625 Q31.3156,289.5 31.4875,289.5 Q31.8156,289.5 32.05,289.7656 Q32.3,290.0156 32.3,290.375 Q32.3,290.7188 31.9563,291.125 Q31.4563,291.7188 30.6594,292.0469 Q29.6125,292.5 28.3313,292.5 Q26.8313,292.5 25.6281,291.9063 Q24.6594,291.4375 23.9719,290.4219 Q23.3,289.4063 23.3,288.2031 L23.3,287.1094 Q23.3,285.8594 23.8938,284.7656 Q24.5031,283.6719 25.55,283.0938 Q26.6125,282.5 27.8,282.5 Q28.5188,282.5 29.1438,282.75 Q29.7688,283 30.3,283.5 Z " fill="#000000"/><text fill="#000000" font-family="sans-serif" font-size="12" lengthAdjust="spacing" textLength="80" x="43.7" y="291.9102">CargoManifest</text><line style="stroke:#A80036;stroke-width:1.5;" x1="8" x2="132" y1="303" y2="303"/><rect fill="none" height="6" style="stroke:#C82930;stroke-width:1.0;" width="6" x="15" y="311"/><text fill="#000000" font-family="sans-serif" font-size="11" lengthAdjust="spacing" textLength="77" x="27" y="318.4189">listOfContainers</text><rect fill="none" height="6" style="stroke:#C82930;stroke-width:1.0;" width="6" x="15" y="324.8359"/><text fill="#000000" font-family="sans-serif" font-size="11" lengthAdjust="spacing" textLength="21" x="27" y="332.2549">ratio</text><rect fill="none" height="6" style="stroke:#C82930;stroke-width:1.0;" width="6" x="15" y="338.6719"/><text fill="#000000" font-family="sans-serif" font-size="11" lengthAdjust="spacing" textLength="21" x="27" y="346.0908">date</text><rect fill="none" height="6" style="stroke:#C82930;stroke-width:1.0;" width="6" x="15" y="352.5078"/><text fill="#000000" font-family="sans-serif" font-size="11" lengthAdjust="spacing" textLength="49" x="27" y="359.9268">mmsiCode</text><rect fill="none" height="6" style="stroke:#C82930;stroke-width:1.0;" width="6" x="15" y="366.3438"/><text fill="#000000" font-family="sans-serif" font-size="11" lengthAdjust="spacing" textLength="8" x="27" y="373.7627">id</text><rect fill="none" height="6" style="stroke:#C82930;stroke-width:1.0;" width="6" x="15" y="380.1797"/><text fill="#000000" font-family="sans-serif" font-size="11" lengthAdjust="spacing" textLength="100" x="27" y="387.5986">numberOfContainers</text><rect fill="none" height="6" style="stroke:#C82930;stroke-width:1.0;" width="6" x="15" y="394.0156"/><text fill="#000000" font-family="sans-serif" font-size="11" lengthAdjust="spacing" textLength="52" x="27" y="401.4346">destination</text><line style="stroke:#A80036;stroke-width:1.5;" x1="8" x2="132" y1="407.8516" y2="407.8516"/><!--MD5=[c5149b4909ffd2688ff51a939867f774]
class Warehouse--><rect codeLine="26" fill="#FEFECE" filter="url(#fnpu58hjry867)" height="103.3438" id="Warehouse" style="stroke:#A80036;stroke-width:1.5;" width="96" x="203" y="48.5"/><ellipse cx="218" cy="64.5" fill="#ADD1B2" rx="11" ry="11" style="stroke:#A80036;stroke-width:1.0;"/><path d="M220,61 Q220.2031,60.5 220.4375,60.25 Q220.6719,60 220.9375,60 Q221.4063,60 221.7031,60.2813 Q222,60.5625 222,61.2188 L222,62.7813 Q222,63.4375 221.7188,63.7188 Q221.4375,64 221,64 Q220.6094,64 220.3594,63.8281 Q220.1094,63.6563 220,63.2031 Q219.9531,62.8906 219.7813,62.7188 Q219.4688,62.3906 218.9063,62.2031 Q218.3438,62 217.7813,62 Q217.0781,62 216.4844,62.2813 Q215.9063,62.5625 215.4531,63.1875 Q215,63.8125 215,64.6719 L215,65.5938 Q215,66.625 215.8438,67.3125 Q216.6875,68 218.1875,68 Q219.0781,68 219.7031,67.7969 Q220.0625,67.6875 220.4688,67.3281 Q220.7344,67.125 220.875,67.0625 Q221.0156,67 221.1875,67 Q221.5156,67 221.75,67.2656 Q222,67.5156 222,67.875 Q222,68.2188 221.6563,68.625 Q221.1563,69.2188 220.3594,69.5469 Q219.3125,70 218.0313,70 Q216.5313,70 215.3281,69.4063 Q214.3594,68.9375 213.6719,67.9219 Q213,66.9063 213,65.7031 L213,64.6094 Q213,63.3594 213.5938,62.2656 Q214.2031,61.1719 215.25,60.5938 Q216.3125,60 217.5,60 Q218.2188,60 218.8438,60.25 Q219.4688,60.5 220,61 Z " fill="#000000"/><text fill="#000000" font-family="sans-serif" font-size="12" lengthAdjust="spacing" textLength="64" x="232" y="69.4102">Warehouse</text><line style="stroke:#A80036;stroke-width:1.5;" x1="204" x2="298" y1="80.5" y2="80.5"/><rect fill="none" height="6" style="stroke:#C82930;stroke-width:1.0;" width="6" x="211" y="88.5"/><text fill="#000000" font-family="sans-serif" font-size="11" lengthAdjust="spacing" textLength="60" x="223" y="95.9189">identification</text><rect fill="none" height="6" style="stroke:#C82930;stroke-width:1.0;" width="6" x="211" y="102.3359"/><text fill="#000000" font-family="sans-serif" font-size="11" lengthAdjust="spacing" textLength="26" x="223" y="109.7549">name</text><rect fill="none" height="6" style="stroke:#C82930;stroke-width:1.0;" width="6" x="211" y="116.1719"/><text fill="#000000" font-family="sans-serif" font-size="11" lengthAdjust="spacing" textLength="41" x="223" y="123.5908">capacity</text><rect fill="none" height="6" style="stroke:#C82930;stroke-width:1.0;" width="6" x="211" y="130.0078"/><text fill="#000000" font-family="sans-serif" font-size="11" lengthAdjust="spacing" textLength="54" x="223" y="137.4268">occupancy</text><line style="stroke:#A80036;stroke-width:1.5;" x1="204" x2="298" y1="143.8438" y2="143.8438"/><!--MD5=[a27713cdd7694cea32c8be89a3131559]
link Containers to CargoManifest--><path codeLine="33" d="M70,193.33 C70,219.03 70,246.55 70,270.87 " fill="none" id="Containers-CargoManifest" style="stroke:#A80036;stroke-width:1.0;"/><polygon fill="#000000" points="75,237.1758,77.9389,228.1307,72.0611,228.1307,75,237.1758" style="stroke:#000000;stroke-width:1.0;"/><text fill="#000000" font-family="sans-serif" font-size="13" lengthAdjust="spacing" textLength="54" x="84" y="237.4951">related to</text><text fill="#000000" font-family="sans-serif" font-size="13" lengthAdjust="spacing" textLength="20" x="49.2031" y="214.8995">1..*</text><text fill="#000000" font-family="sans-serif" font-size="13" lengthAdjust="spacing" textLength="20" x="48.9688" y="260.0759">1..*</text><!--MD5=[40d84d2acc82335a7c6decf41782281a]
link Containers to Warehouse--><path codeLine="34" d="M124.31,100 C149.3,100 178.7,100 202.88,100 " fill="none" id="Containers-Warehouse" style="stroke:#A80036;stroke-width:1.0;"/><polygon fill="#000000" points="151.5,88.1758,142.4549,85.2369,142.4549,91.1147,151.5,88.1758" style="stroke:#000000;stroke-width:1.0;"/><text fill="#000000" font-family="sans-serif" font-size="13" lengthAdjust="spacing" textLength="29" x="155.5" y="93.4951">store</text><text fill="#000000" font-family="sans-serif" font-size="13" lengthAdjust="spacing" textLength="20" x="132.1478" y="114.4696">0..*</text><text fill="#000000" font-family="sans-serif" font-size="13" lengthAdjust="spacing" textLength="7" x="187.9757" y="96.2707">1</text><!--MD5=[5fed6cbc7c44b43b824782a0ff388149]
@startuml
'https://plantuml.com/sequence-diagram

class Containers {
-x
-y
-z
-containerNumber
-checkDigit
-isoCode
-payLoad
-tare
-gross
-weight
}

class CargoManifest {
-listOfContainers
-ratio
-date
-mmsiCode
-id
-numberOfContainers
-destination
}

class Warehouse {
-identification
-name
-capacity
-occupancy
}

Containers "1..*"- -"1..*" CargoManifest: related to >
Containers "0..*"-"1" Warehouse: store >
@enduml

@startuml

class Containers {
-x
-y
-z
-containerNumber
-checkDigit
-isoCode
-payLoad
-tare
-gross
-weight
}

class CargoManifest {
-listOfContainers
-ratio
-date
-mmsiCode
-id
-numberOfContainers
-destination
}

class Warehouse {
-identification
-name
-capacity
-occupancy
}

Containers "1..*"- -"1..*" CargoManifest: related to >
Containers "0..*"-"1" Warehouse: store >
@enduml

PlantUML version 1.2021.11(Sat Oct 02 14:26:11 BST 2021)
(GPL source distribution)
Java Runtime: OpenJDK Runtime Environment
JVM: OpenJDK 64-Bit Server VM
Default Encoding: Cp1252
Language: pt
Country: PT
--></g></svg>