<?xml version="1.0" encoding="UTF-8" standalone="no"?><svg xmlns="http://www.w3.org/2000/svg" xmlns:xlink="http://www.w3.org/1999/xlink" contentScriptType="application/ecmascript" contentStyleType="text/css" height="570px" preserveAspectRatio="none" style="width:1345px;height:570px;background:#FFFFFF;" version="1.1" viewBox="0 0 1345 570" width="1345px" zoomAndPan="magnify"><defs><filter height="300%" id="fnsbaux8ulx4p" width="300%" x="-1" y="-1"><feGaussianBlur result="blurOut" stdDeviation="2.0"/><feColorMatrix in="blurOut" result="blurOut2" type="matrix" values="0 0 0 0 0 0 0 0 0 0 0 0 0 0 0 0 0 0 .4 0"/><feOffset dx="4.0" dy="4.0" in="blurOut2" result="blurOut3"/><feBlend in="SourceGraphic" in2="blurOut3" mode="normal"/></filter></defs><g><rect fill="#FFFFFF" filter="url(#fnsbaux8ulx4p)" height="367.4219" style="stroke:#A80036;stroke-width:1.0;" width="10" x="49" y="99.6094"/><rect fill="#FFFFFF" filter="url(#fnsbaux8ulx4p)" height="30.3516" style="stroke:#A80036;stroke-width:1.0;" width="10" x="623" y="121.9609"/><rect fill="#FFFFFF" filter="url(#fnsbaux8ulx4p)" height="284.3672" style="stroke:#A80036;stroke-width:1.0;" width="10" x="623" y="182.6641"/><rect fill="#FFFFFF" filter="url(#fnsbaux8ulx4p)" height="263.0156" style="stroke:#A80036;stroke-width:1.0;" width="10" x="850" y="213.0156"/><rect fill="#FFFFFF" filter="url(#fnsbaux8ulx4p)" height="138.7031" style="stroke:#A80036;stroke-width:1.0;" width="10" x="1061" y="297.9766"/><rect fill="#FFFFFF" filter="url(#fnsbaux8ulx4p)" height="28" style="stroke:#A80036;stroke-width:1.0;" width="10" x="1066" y="341.3281"/><rect fill="#FFFFFF" filter="url(#fnsbaux8ulx4p)" height="30" style="stroke:#A80036;stroke-width:1.0;" width="10" x="1276" y="406.6797"/><line style="stroke:#A80036;stroke-width:1.0;stroke-dasharray:5.0,5.0;" x1="54" x2="54" y1="89.6094" y2="485.0313"/><line style="stroke:#A80036;stroke-width:1.0;stroke-dasharray:5.0,5.0;" x1="628" x2="628" y1="89.6094" y2="485.0313"/><line style="stroke:#A80036;stroke-width:1.0;stroke-dasharray:5.0,5.0;" x1="855" x2="855" y1="89.6094" y2="485.0313"/><line style="stroke:#A80036;stroke-width:1.0;stroke-dasharray:5.0,5.0;" x1="1066" x2="1066" y1="254.3203" y2="485.0313"/><line style="stroke:#A80036;stroke-width:1.0;stroke-dasharray:5.0,5.0;" x1="1280.5" x2="1280.5" y1="89.6094" y2="485.0313"/><text fill="#000000" font-family="sans-serif" font-size="14" lengthAdjust="spacing" textLength="92" x="5" y="86.5332">Fleet Manager</text><ellipse cx="54" cy="15" fill="#FEFECE" filter="url(#fnsbaux8ulx4p)" rx="8" ry="8" style="stroke:#A80036;stroke-width:2.0;"/><path d="M54,23 L54,50 M41,31 L67,31 M54,50 L41,65 M54,50 L67,65 " fill="none" filter="url(#fnsbaux8ulx4p)" style="stroke:#A80036;stroke-width:2.0;"/><text fill="#000000" font-family="sans-serif" font-size="14" lengthAdjust="spacing" textLength="92" x="5" y="498.5645">Fleet Manager</text><ellipse cx="54" cy="511.6406" fill="#FEFECE" filter="url(#fnsbaux8ulx4p)" rx="8" ry="8" style="stroke:#A80036;stroke-width:2.0;"/><path d="M54,519.6406 L54,546.6406 M41,527.6406 L67,527.6406 M54,546.6406 L41,561.6406 M54,546.6406 L67,561.6406 " fill="none" filter="url(#fnsbaux8ulx4p)" style="stroke:#A80036;stroke-width:2.0;"/><rect fill="#FEFECE" filter="url(#fnsbaux8ulx4p)" height="31.6094" style="stroke:#A80036;stroke-width:1.5;" width="54" x="599" y="53"/><text fill="#000000" font-family="sans-serif" font-size="14" lengthAdjust="spacing" textLength="40" x="606" y="74.5332">:405UI</text><rect fill="#FEFECE" filter="url(#fnsbaux8ulx4p)" height="31.6094" style="stroke:#A80036;stroke-width:1.5;" width="54" x="599" y="484.0313"/><text fill="#000000" font-family="sans-serif" font-size="14" lengthAdjust="spacing" textLength="40" x="606" y="505.5645">:405UI</text><rect fill="#FEFECE" filter="url(#fnsbaux8ulx4p)" height="31.6094" style="stroke:#A80036;stroke-width:1.5;" width="104" x="801" y="53"/><text fill="#000000" font-family="sans-serif" font-size="14" lengthAdjust="spacing" textLength="90" x="808" y="74.5332">:405Controller</text><rect fill="#FEFECE" filter="url(#fnsbaux8ulx4p)" height="31.6094" style="stroke:#A80036;stroke-width:1.5;" width="104" x="801" y="484.0313"/><text fill="#000000" font-family="sans-serif" font-size="14" lengthAdjust="spacing" textLength="90" x="808" y="505.5645">:405Controller</text><rect fill="#FEFECE" filter="url(#fnsbaux8ulx4p)" height="31.6094" style="stroke:#A80036;stroke-width:1.5;" width="42" x="1043" y="484.0313"/><text fill="#000000" font-family="sans-serif" font-size="14" lengthAdjust="spacing" textLength="28" x="1050" y="505.5645">:405</text><rect fill="#FEFECE" filter="url(#fnsbaux8ulx4p)" height="31.6094" style="stroke:#A80036;stroke-width:1.5;" width="105" x="1226.5" y="53"/><text fill="#000000" font-family="sans-serif" font-size="14" lengthAdjust="spacing" textLength="91" x="1233.5" y="74.5332">:WriteForAFile</text><rect fill="#FEFECE" filter="url(#fnsbaux8ulx4p)" height="31.6094" style="stroke:#A80036;stroke-width:1.5;" width="105" x="1226.5" y="484.0313"/><text fill="#000000" font-family="sans-serif" font-size="14" lengthAdjust="spacing" textLength="91" x="1233.5" y="505.5645">:WriteForAFile</text><rect fill="#FFFFFF" filter="url(#fnsbaux8ulx4p)" height="367.4219" style="stroke:#A80036;stroke-width:1.0;" width="10" x="49" y="99.6094"/><rect fill="#FFFFFF" filter="url(#fnsbaux8ulx4p)" height="30.3516" style="stroke:#A80036;stroke-width:1.0;" width="10" x="623" y="121.9609"/><rect fill="#FFFFFF" filter="url(#fnsbaux8ulx4p)" height="284.3672" style="stroke:#A80036;stroke-width:1.0;" width="10" x="623" y="182.6641"/><rect fill="#FFFFFF" filter="url(#fnsbaux8ulx4p)" height="263.0156" style="stroke:#A80036;stroke-width:1.0;" width="10" x="850" y="213.0156"/><rect fill="#FFFFFF" filter="url(#fnsbaux8ulx4p)" height="138.7031" style="stroke:#A80036;stroke-width:1.0;" width="10" x="1061" y="297.9766"/><rect fill="#FFFFFF" filter="url(#fnsbaux8ulx4p)" height="28" style="stroke:#A80036;stroke-width:1.0;" width="10" x="1066" y="341.3281"/><rect fill="#FFFFFF" filter="url(#fnsbaux8ulx4p)" height="30" style="stroke:#A80036;stroke-width:1.0;" width="10" x="1276" y="406.6797"/><polygon fill="#A80036" points="611,117.9609,621,121.9609,611,125.9609,615,121.9609" style="stroke:#A80036;stroke-width:1.0;"/><line style="stroke:#A80036;stroke-width:1.0;" x1="59" x2="617" y1="121.9609" y2="121.9609"/><text fill="#000000" font-family="sans-serif" font-size="13" lengthAdjust="spacing" textLength="545" x="66" y="117.1045">requests to know the average occupancy rate per manifest of a given ship during a given period</text><polygon fill="#A80036" points="70,148.3125,60,152.3125,70,156.3125,66,152.3125" style="stroke:#A80036;stroke-width:1.0;"/><line style="stroke:#A80036;stroke-width:1.0;stroke-dasharray:2.0,2.0;" x1="64" x2="627" y1="152.3125" y2="152.3125"/><text fill="#000000" font-family="sans-serif" font-size="13" lengthAdjust="spacing" textLength="306" x="76" y="147.4561">asks to enter period to analyze (initialTime, endTime)</text><polygon fill="#A80036" points="611,178.6641,621,182.6641,611,186.6641,615,182.6641" style="stroke:#A80036;stroke-width:1.0;"/><line style="stroke:#A80036;stroke-width:1.0;" x1="59" x2="617" y1="182.6641" y2="182.6641"/><text fill="#000000" font-family="sans-serif" font-size="13" lengthAdjust="spacing" textLength="278" x="66" y="177.8076">inserts the requested data (initialTime, endTime)</text><polygon fill="#A80036" points="838,209.0156,848,213.0156,838,217.0156,842,213.0156" style="stroke:#A80036;stroke-width:1.0;"/><line style="stroke:#A80036;stroke-width:1.0;" x1="633" x2="844" y1="213.0156" y2="213.0156"/><text fill="#000000" font-family="sans-serif" font-size="13" lengthAdjust="spacing" textLength="198" x="640" y="208.1592">createUS405(initialTime, endTime)</text><polygon fill="#A80036" points="1031,239.3672,1041,243.3672,1031,247.3672,1035,243.3672" style="stroke:#A80036;stroke-width:1.0;"/><line style="stroke:#A80036;stroke-width:1.0;" x1="860" x2="1037" y1="243.3672" y2="243.3672"/><text fill="#000000" font-family="sans-serif" font-size="13" lengthAdjust="spacing" textLength="159" x="867" y="238.5107">create(initialTime, endTime)</text><rect fill="#FEFECE" filter="url(#fnsbaux8ulx4p)" height="31.6094" style="stroke:#A80036;stroke-width:1.5;" width="42" x="1043" y="221.0156"/><text fill="#000000" font-family="sans-serif" font-size="14" lengthAdjust="spacing" textLength="28" x="1050" y="242.5488">:405</text><line style="stroke:#A80036;stroke-width:1.0;" x1="1066" x2="1113" y1="284.9766" y2="284.9766"/><line style="stroke:#A80036;stroke-width:1.0;" x1="1113" x2="1113" y1="284.9766" y2="297.9766"/><line style="stroke:#A80036;stroke-width:1.0;" x1="1072" x2="1113" y1="297.9766" y2="297.9766"/><polygon fill="#A80036" points="1082,293.9766,1072,297.9766,1082,301.9766,1078,297.9766" style="stroke:#A80036;stroke-width:1.0;"/><text fill="#000000" font-family="sans-serif" font-size="13" lengthAdjust="spacing" textLength="170" x="1078" y="280.1201">initialize(initialTime, endTime)</text><line style="stroke:#A80036;stroke-width:1.0;" x1="1076" x2="1118" y1="333.3281" y2="333.3281"/><line style="stroke:#A80036;stroke-width:1.0;" x1="1118" x2="1118" y1="333.3281" y2="346.3281"/><line style="stroke:#A80036;stroke-width:1.0;" x1="1077" x2="1118" y1="346.3281" y2="346.3281"/><polygon fill="#A80036" points="1087,342.3281,1077,346.3281,1087,350.3281,1083,346.3281" style="stroke:#A80036;stroke-width:1.0;"/><text fill="#000000" font-family="sans-serif" font-size="13" lengthAdjust="spacing" textLength="171" x="1083" y="328.4717">textualInformation = toString()</text><polygon fill="#A80036" points="1264,402.6797,1274,406.6797,1264,410.6797,1268,406.6797" style="stroke:#A80036;stroke-width:1.0;"/><line style="stroke:#A80036;stroke-width:1.0;" x1="1071" x2="1270" y1="406.6797" y2="406.6797"/><text fill="#000000" font-family="sans-serif" font-size="13" lengthAdjust="spacing" textLength="186" x="1078" y="401.8232">writeForAFile(textualInformation)</text><polygon fill="#A80036" points="65,463.0313,55,467.0313,65,471.0313,61,467.0313" style="stroke:#A80036;stroke-width:1.0;"/><line style="stroke:#A80036;stroke-width:1.0;stroke-dasharray:2.0,2.0;" x1="59" x2="627" y1="467.0313" y2="467.0313"/><text fill="#000000" font-family="sans-serif" font-size="13" lengthAdjust="spacing" textLength="98" x="71" y="462.1748">receive the result</text><!--MD5=[75fb63d47d9a780900dbf830a71dc9be]
@startuml
'https://plantuml.com/sequence-diagram

actor "Fleet Manager" as FM
participant ":405UI" as UI
participant ":405Controller" as CT
participant ":405" as US
participant ":WriteForAFile" as WF

activate FM
FM -> UI : requests to know the average occupancy rate per manifest of a given ship during a given period
activate UI
UI - -> FM : asks to enter period to analyze (initialTime, endTime)
deactivate UI
FM -> UI : inserts the requested data (initialTime, endTime)
activate UI
UI->CT : createUS405(initialTime, endTime)
activate CT
CT -> US** : create(initialTime, endTime)
US -> US : initialize(initialTime, endTime)
activate US
US->US : textualInformation = toString()
activate US
deactivate US
US -> WF : writeForAFile(textualInformation)
activate WF
deactivate WF
deactivate US

UI - -> FM : receive the result
deactivate UI
deactivate FM
@enduml

@startuml

actor "Fleet Manager" as FM
participant ":405UI" as UI
participant ":405Controller" as CT
participant ":405" as US
participant ":WriteForAFile" as WF

activate FM
FM -> UI : requests to know the average occupancy rate per manifest of a given ship during a given period
activate UI
UI - -> FM : asks to enter period to analyze (initialTime, endTime)
deactivate UI
FM -> UI : inserts the requested data (initialTime, endTime)
activate UI
UI->CT : createUS405(initialTime, endTime)
activate CT
CT -> US** : create(initialTime, endTime)
US -> US : initialize(initialTime, endTime)
activate US
US->US : textualInformation = toString()
activate US
deactivate US
US -> WF : writeForAFile(textualInformation)
activate WF
deactivate WF
deactivate US

UI - -> FM : receive the result
deactivate UI
deactivate FM
@enduml

PlantUML version 1.2021.11(Sat Oct 02 14:26:11 BST 2021)
(GPL source distribution)
Java Runtime: OpenJDK Runtime Environment
JVM: OpenJDK 64-Bit Server VM
Default Encoding: Cp1252
Language: pt
Country: PT
--></g></svg>