<?xml version="1.0" encoding="UTF-8" standalone="no"?><svg xmlns="http://www.w3.org/2000/svg" xmlns:xlink="http://www.w3.org/1999/xlink" contentScriptType="application/ecmascript" contentStyleType="text/css" height="586px" preserveAspectRatio="none" style="width:1226px;height:586px;background:#FFFFFF;" version="1.1" viewBox="0 0 1226 586" width="1226px" zoomAndPan="magnify"><defs><filter height="300%" id="fjawl8e0ko2j2" width="300%" x="-1" y="-1"><feGaussianBlur result="blurOut" stdDeviation="2.0"/><feColorMatrix in="blurOut" result="blurOut2" type="matrix" values="0 0 0 0 0 0 0 0 0 0 0 0 0 0 0 0 0 0 .4 0"/><feOffset dx="4.0" dy="4.0" in="blurOut2" result="blurOut3"/><feBlend in="SourceGraphic" in2="blurOut3" mode="normal"/></filter></defs><g><rect fill="#FFFFFF" filter="url(#fjawl8e0ko2j2)" height="383.7734" style="stroke:#A80036;stroke-width:1.0;" width="10" x="43.5" y="99.6094"/><rect fill="#FFFFFF" filter="url(#fjawl8e0ko2j2)" height="30.3516" style="stroke:#A80036;stroke-width:1.0;" width="10" x="348.5" y="138.3125"/><rect fill="#FFFFFF" filter="url(#fjawl8e0ko2j2)" height="284.3672" style="stroke:#A80036;stroke-width:1.0;" width="10" x="348.5" y="199.0156"/><rect fill="#FFFFFF" filter="url(#fjawl8e0ko2j2)" height="223.6641" style="stroke:#A80036;stroke-width:1.0;" width="10" x="626.5" y="229.3672"/><rect fill="#FFFFFF" filter="url(#fjawl8e0ko2j2)" height="138.7031" style="stroke:#A80036;stroke-width:1.0;" width="10" x="922" y="314.3281"/><rect fill="#FFFFFF" filter="url(#fjawl8e0ko2j2)" height="28" style="stroke:#A80036;stroke-width:1.0;" width="10" x="927" y="357.6797"/><rect fill="#FFFFFF" filter="url(#fjawl8e0ko2j2)" height="30" style="stroke:#A80036;stroke-width:1.0;" width="10" x="1157" y="423.0313"/><line style="stroke:#A80036;stroke-width:1.0;stroke-dasharray:5.0,5.0;" x1="48" x2="48" y1="89.6094" y2="501.3828"/><line style="stroke:#A80036;stroke-width:1.0;stroke-dasharray:5.0,5.0;" x1="353" x2="353" y1="89.6094" y2="501.3828"/><line style="stroke:#A80036;stroke-width:1.0;stroke-dasharray:5.0,5.0;" x1="631" x2="631" y1="89.6094" y2="501.3828"/><line style="stroke:#A80036;stroke-width:1.0;stroke-dasharray:5.0,5.0;" x1="926.5" x2="926.5" y1="270.6719" y2="501.3828"/><line style="stroke:#A80036;stroke-width:1.0;stroke-dasharray:5.0,5.0;" x1="1161.5" x2="1161.5" y1="89.6094" y2="501.3828"/><text fill="#000000" font-family="sans-serif" font-size="14" lengthAdjust="spacing" textLength="81" x="5" y="86.5332">Ship Captain</text><ellipse cx="48.5" cy="15" fill="#FEFECE" filter="url(#fjawl8e0ko2j2)" rx="8" ry="8" style="stroke:#A80036;stroke-width:2.0;"/><path d="M48.5,23 L48.5,50 M35.5,31 L61.5,31 M48.5,50 L35.5,65 M48.5,50 L61.5,65 " fill="none" filter="url(#fjawl8e0ko2j2)" style="stroke:#A80036;stroke-width:2.0;"/><text fill="#000000" font-family="sans-serif" font-size="14" lengthAdjust="spacing" textLength="81" x="5" y="514.916">Ship Captain</text><ellipse cx="48.5" cy="527.9922" fill="#FEFECE" filter="url(#fjawl8e0ko2j2)" rx="8" ry="8" style="stroke:#A80036;stroke-width:2.0;"/><path d="M48.5,535.9922 L48.5,562.9922 M35.5,543.9922 L61.5,543.9922 M48.5,562.9922 L35.5,577.9922 M48.5,562.9922 L61.5,577.9922 " fill="none" filter="url(#fjawl8e0ko2j2)" style="stroke:#A80036;stroke-width:2.0;"/><rect fill="#FEFECE" filter="url(#fjawl8e0ko2j2)" height="31.6094" style="stroke:#A80036;stroke-width:1.5;" width="97" x="303" y="53"/><text fill="#000000" font-family="sans-serif" font-size="14" lengthAdjust="spacing" textLength="83" x="310" y="74.5332">:AuditTrailsUi</text><rect fill="#FEFECE" filter="url(#fjawl8e0ko2j2)" height="31.6094" style="stroke:#A80036;stroke-width:1.5;" width="97" x="303" y="500.3828"/><text fill="#000000" font-family="sans-serif" font-size="14" lengthAdjust="spacing" textLength="83" x="310" y="521.916">:AuditTrailsUi</text><rect fill="#FEFECE" filter="url(#fjawl8e0ko2j2)" height="31.6094" style="stroke:#A80036;stroke-width:1.5;" width="147" x="556" y="53"/><text fill="#000000" font-family="sans-serif" font-size="14" lengthAdjust="spacing" textLength="133" x="563" y="74.5332">:AuditTrailsController</text><rect fill="#FEFECE" filter="url(#fjawl8e0ko2j2)" height="31.6094" style="stroke:#A80036;stroke-width:1.5;" width="147" x="556" y="500.3828"/><text fill="#000000" font-family="sans-serif" font-size="14" lengthAdjust="spacing" textLength="133" x="563" y="521.916">:AuditTrailsController</text><rect fill="#FEFECE" filter="url(#fjawl8e0ko2j2)" height="31.6094" style="stroke:#A80036;stroke-width:1.5;" width="109" x="870.5" y="500.3828"/><text fill="#000000" font-family="sans-serif" font-size="14" lengthAdjust="spacing" textLength="95" x="877.5" y="521.916">:US304Handler</text><rect fill="#FEFECE" filter="url(#fjawl8e0ko2j2)" height="31.6094" style="stroke:#A80036;stroke-width:1.5;" width="105" x="1107.5" y="53"/><text fill="#000000" font-family="sans-serif" font-size="14" lengthAdjust="spacing" textLength="91" x="1114.5" y="74.5332">:WriteForAFile</text><rect fill="#FEFECE" filter="url(#fjawl8e0ko2j2)" height="31.6094" style="stroke:#A80036;stroke-width:1.5;" width="105" x="1107.5" y="500.3828"/><text fill="#000000" font-family="sans-serif" font-size="14" lengthAdjust="spacing" textLength="91" x="1114.5" y="521.916">:WriteForAFile</text><rect fill="#FFFFFF" filter="url(#fjawl8e0ko2j2)" height="383.7734" style="stroke:#A80036;stroke-width:1.0;" width="10" x="43.5" y="99.6094"/><rect fill="#FFFFFF" filter="url(#fjawl8e0ko2j2)" height="30.3516" style="stroke:#A80036;stroke-width:1.0;" width="10" x="348.5" y="138.3125"/><rect fill="#FFFFFF" filter="url(#fjawl8e0ko2j2)" height="284.3672" style="stroke:#A80036;stroke-width:1.0;" width="10" x="348.5" y="199.0156"/><rect fill="#FFFFFF" filter="url(#fjawl8e0ko2j2)" height="223.6641" style="stroke:#A80036;stroke-width:1.0;" width="10" x="626.5" y="229.3672"/><rect fill="#FFFFFF" filter="url(#fjawl8e0ko2j2)" height="138.7031" style="stroke:#A80036;stroke-width:1.0;" width="10" x="922" y="314.3281"/><rect fill="#FFFFFF" filter="url(#fjawl8e0ko2j2)" height="28" style="stroke:#A80036;stroke-width:1.0;" width="10" x="927" y="357.6797"/><rect fill="#FFFFFF" filter="url(#fjawl8e0ko2j2)" height="30" style="stroke:#A80036;stroke-width:1.0;" width="10" x="1157" y="423.0313"/><polygon fill="#A80036" points="336.5,134.3125,346.5,138.3125,336.5,142.3125,340.5,138.3125" style="stroke:#A80036;stroke-width:1.0;"/><line style="stroke:#A80036;stroke-width:1.0;" x1="53.5" x2="342.5" y1="138.3125" y2="138.3125"/><text fill="#000000" font-family="sans-serif" font-size="13" lengthAdjust="spacing" textLength="242" x="60.5" y="117.1045">starts the access to audit trails for a given</text><text fill="#000000" font-family="sans-serif" font-size="13" lengthAdjust="spacing" textLength="200" x="64.5" y="133.4561">container of a given cargo manifest</text><polygon fill="#A80036" points="64.5,164.6641,54.5,168.6641,64.5,172.6641,60.5,168.6641" style="stroke:#A80036;stroke-width:1.0;"/><line style="stroke:#A80036;stroke-width:1.0;stroke-dasharray:2.0,2.0;" x1="58.5" x2="352.5" y1="168.6641" y2="168.6641"/><text fill="#000000" font-family="sans-serif" font-size="13" lengthAdjust="spacing" textLength="271" x="70.5" y="163.8076">asks the cargo manifest id and the container id</text><polygon fill="#A80036" points="336.5,195.0156,346.5,199.0156,336.5,203.0156,340.5,199.0156" style="stroke:#A80036;stroke-width:1.0;"/><line style="stroke:#A80036;stroke-width:1.0;" x1="53.5" x2="342.5" y1="199.0156" y2="199.0156"/><text fill="#000000" font-family="sans-serif" font-size="13" lengthAdjust="spacing" textLength="268" x="60.5" y="194.1592">type the cargo manifest id and the container id</text><polygon fill="#A80036" points="614.5,225.3672,624.5,229.3672,614.5,233.3672,618.5,229.3672" style="stroke:#A80036;stroke-width:1.0;"/><line style="stroke:#A80036;stroke-width:1.0;" x1="358.5" x2="620.5" y1="229.3672" y2="229.3672"/><text fill="#000000" font-family="sans-serif" font-size="13" lengthAdjust="spacing" textLength="249" x="365.5" y="224.5107">createUS304(idCargoManifest, idContainer)</text><polygon fill="#A80036" points="858.5,255.7188,868.5,259.7188,858.5,263.7188,862.5,259.7188" style="stroke:#A80036;stroke-width:1.0;"/><line style="stroke:#A80036;stroke-width:1.0;" x1="636.5" x2="864.5" y1="259.7188" y2="259.7188"/><text fill="#000000" font-family="sans-serif" font-size="13" lengthAdjust="spacing" textLength="210" x="643.5" y="254.8623">create(idCargoManifest, idContainer)</text><rect fill="#FEFECE" filter="url(#fjawl8e0ko2j2)" height="31.6094" style="stroke:#A80036;stroke-width:1.5;" width="109" x="870.5" y="237.3672"/><text fill="#000000" font-family="sans-serif" font-size="14" lengthAdjust="spacing" textLength="95" x="877.5" y="258.9004">:US304Handler</text><line style="stroke:#A80036;stroke-width:1.0;" x1="927" x2="974" y1="301.3281" y2="301.3281"/><line style="stroke:#A80036;stroke-width:1.0;" x1="974" x2="974" y1="301.3281" y2="314.3281"/><line style="stroke:#A80036;stroke-width:1.0;" x1="933" x2="974" y1="314.3281" y2="314.3281"/><polygon fill="#A80036" points="943,310.3281,933,314.3281,943,318.3281,939,314.3281" style="stroke:#A80036;stroke-width:1.0;"/><text fill="#000000" font-family="sans-serif" font-size="13" lengthAdjust="spacing" textLength="221" x="939" y="296.4717">initialize(idCargoManifest, idContainer)</text><line style="stroke:#A80036;stroke-width:1.0;" x1="937" x2="979" y1="349.6797" y2="349.6797"/><line style="stroke:#A80036;stroke-width:1.0;" x1="979" x2="979" y1="349.6797" y2="362.6797"/><line style="stroke:#A80036;stroke-width:1.0;" x1="938" x2="979" y1="362.6797" y2="362.6797"/><polygon fill="#A80036" points="948,358.6797,938,362.6797,948,366.6797,944,362.6797" style="stroke:#A80036;stroke-width:1.0;"/><text fill="#000000" font-family="sans-serif" font-size="13" lengthAdjust="spacing" textLength="171" x="944" y="344.8232">textualInformation = toString()</text><polygon fill="#A80036" points="1145,419.0313,1155,423.0313,1145,427.0313,1149,423.0313" style="stroke:#A80036;stroke-width:1.0;"/><line style="stroke:#A80036;stroke-width:1.0;" x1="932" x2="1151" y1="423.0313" y2="423.0313"/><text fill="#000000" font-family="sans-serif" font-size="13" lengthAdjust="spacing" textLength="186" x="939" y="418.1748">writeForAFile(textualInformation)</text><polygon fill="#A80036" points="59.5,479.3828,49.5,483.3828,59.5,487.3828,55.5,483.3828" style="stroke:#A80036;stroke-width:1.0;"/><line style="stroke:#A80036;stroke-width:1.0;stroke-dasharray:2.0,2.0;" x1="53.5" x2="352.5" y1="483.3828" y2="483.3828"/><text fill="#000000" font-family="sans-serif" font-size="13" lengthAdjust="spacing" textLength="88" x="65.5" y="478.5264">show the result</text><!--MD5=[6f67e99756c7d7e0afb8c0346249788d]
@startuml
'https://plantuml.com/sequence-diagram

actor "Ship Captain" as SC
participant ":AuditTrailsUi" as UI
participant ":AuditTrailsController" as CT
participant ":US304Handler" as US
participant ":WriteForAFile" as WF

activate SC
SC -> UI : starts the access to audit trails for a given\n container of a given cargo manifest
activate UI
UI - -> SC : asks the cargo manifest id and the container id
deactivate UI
SC -> UI : type the cargo manifest id and the container id
activate UI
UI->CT : createUS304(idCargoManifest, idContainer)
activate CT
CT -> US** : create(idCargoManifest, idContainer)
US -> US : initialize(idCargoManifest, idContainer)
activate US
US->US : textualInformation = toString()
activate US
deactivate US
US -> WF : writeForAFile(textualInformation)
activate WF
deactivate WF

deactivate US
deactivate CT

UI - -> SC : show the result
deactivate UI
deactivate SC
@enduml

@startuml

actor "Ship Captain" as SC
participant ":AuditTrailsUi" as UI
participant ":AuditTrailsController" as CT
participant ":US304Handler" as US
participant ":WriteForAFile" as WF

activate SC
SC -> UI : starts the access to audit trails for a given\n container of a given cargo manifest
activate UI
UI - -> SC : asks the cargo manifest id and the container id
deactivate UI
SC -> UI : type the cargo manifest id and the container id
activate UI
UI->CT : createUS304(idCargoManifest, idContainer)
activate CT
CT -> US** : create(idCargoManifest, idContainer)
US -> US : initialize(idCargoManifest, idContainer)
activate US
US->US : textualInformation = toString()
activate US
deactivate US
US -> WF : writeForAFile(textualInformation)
activate WF
deactivate WF

deactivate US
deactivate CT

UI - -> SC : show the result
deactivate UI
deactivate SC
@enduml

PlantUML version 1.2021.11(Sat Oct 02 14:26:11 BST 2021)
(GPL source distribution)
Java Runtime: OpenJDK Runtime Environment
JVM: OpenJDK 64-Bit Server VM
Default Encoding: Cp1252
Language: pt
Country: PT
--></g></svg>