<?xml version="1.0" encoding="UTF-8" standalone="no"?><svg xmlns="http://www.w3.org/2000/svg" xmlns:xlink="http://www.w3.org/1999/xlink" contentScriptType="application/ecmascript" contentStyleType="text/css" height="453px" preserveAspectRatio="none" style="width:859px;height:453px;" version="1.1" viewBox="0 0 859 453" width="859.5px" zoomAndPan="magnify"><defs><filter height="300%" id="f13jgm6j4vfsoh" width="300%" x="-1" y="-1"><feGaussianBlur result="blurOut" stdDeviation="3.0"/><feColorMatrix in="blurOut" result="blurOut2" type="matrix" values="0 0 0 0 0 0 0 0 0 0 0 0 0 0 0 0 0 0 .4 0"/><feOffset dx="6.0" dy="6.0" in="blurOut2" result="blurOut3"/><feBlend in="SourceGraphic" in2="blurOut3" mode="normal"/></filter></defs><g><!--MD5=[7421f545a0d8420c5bec41e74b387d9c]
class Employee--><rect codeLine="8" fill="#FEFECE" filter="url(#f13jgm6j4vfsoh)" height="80.7539" id="Employee" style="stroke:#A80036;stroke-width:2.25;" width="130.5" x="330" y="83.25"/><ellipse cx="352.5" cy="107.25" fill="#ADD1B2" rx="16.5" ry="16.5" style="stroke:#A80036;stroke-width:1.5;"/><path d="M355.5,102 Q355.8047,101.25 356.1563,100.875 Q356.5078,100.5 356.9063,100.5 Q357.6094,100.5 358.0547,100.9219 Q358.5,101.3438 358.5,102.3281 L358.5,104.6719 Q358.5,105.6563 358.0781,106.0781 Q357.6563,106.5 357,106.5 Q356.4141,106.5 356.0391,106.2422 Q355.6641,105.9844 355.5,105.3047 Q355.4297,104.8359 355.1719,104.5781 Q354.7031,104.0859 353.8594,103.8047 Q353.0156,103.5 352.1719,103.5 Q351.1172,103.5 350.2266,103.9219 Q349.3594,104.3438 348.6797,105.2813 Q348,106.2188 348,107.5078 L348,108.8906 Q348,110.4375 349.2656,111.4688 Q350.5313,112.5 352.7813,112.5 Q354.1172,112.5 355.0547,112.1953 Q355.5938,112.0313 356.2031,111.4922 Q356.6016,111.1875 356.8125,111.0938 Q357.0234,111 357.2813,111 Q357.7734,111 358.125,111.3984 Q358.5,111.7734 358.5,112.3125 Q358.5,112.8281 357.9844,113.4375 Q357.2344,114.3281 356.0391,114.8203 Q354.4688,115.5 352.5469,115.5 Q350.2969,115.5 348.4922,114.6094 Q347.0391,113.9063 346.0078,112.3828 Q345,110.8594 345,109.0547 L345,107.4141 Q345,105.5391 345.8906,103.8984 Q346.8047,102.2578 348.375,101.3906 Q349.9688,100.5 351.75,100.5 Q352.8281,100.5 353.7656,100.875 Q354.7031,101.25 355.5,102 Z " fill="#000000"/><text fill="#000000" font-family="sans-serif" font-size="18" lengthAdjust="spacing" textLength="82.5" x="373.5" y="114.6152">Employee</text><line style="stroke:#A80036;stroke-width:2.25;" x1="331.5" x2="459" y1="131.25" y2="131.25"/><text fill="#000000" font-family="sans-serif" font-size="16.5" lengthAdjust="spacing" textLength="45" x="339" y="154.3784">-name</text><!--MD5=[efa7c3600894dd6faaa8b816738c33b1]
class ShipLocation--><rect codeLine="12" fill="#FEFECE" filter="url(#f13jgm6j4vfsoh)" height="226.0313" id="ShipLocation" style="stroke:#A80036;stroke-width:2.25;" width="156" x="682.5" y="10.5"/><ellipse cx="705" cy="34.5" fill="#ADD1B2" rx="16.5" ry="16.5" style="stroke:#A80036;stroke-width:1.5;"/><path d="M708,29.25 Q708.3047,28.5 708.6563,28.125 Q709.0078,27.75 709.4063,27.75 Q710.1094,27.75 710.5547,28.1719 Q711,28.5938 711,29.5781 L711,31.9219 Q711,32.9063 710.5781,33.3281 Q710.1563,33.75 709.5,33.75 Q708.9141,33.75 708.5391,33.4922 Q708.1641,33.2344 708,32.5547 Q707.9297,32.0859 707.6719,31.8281 Q707.2031,31.3359 706.3594,31.0547 Q705.5156,30.75 704.6719,30.75 Q703.6172,30.75 702.7266,31.1719 Q701.8594,31.5938 701.1797,32.5313 Q700.5,33.4688 700.5,34.7578 L700.5,36.1406 Q700.5,37.6875 701.7656,38.7188 Q703.0313,39.75 705.2813,39.75 Q706.6172,39.75 707.5547,39.4453 Q708.0938,39.2813 708.7031,38.7422 Q709.1016,38.4375 709.3125,38.3438 Q709.5234,38.25 709.7813,38.25 Q710.2734,38.25 710.625,38.6484 Q711,39.0234 711,39.5625 Q711,40.0781 710.4844,40.6875 Q709.7344,41.5781 708.5391,42.0703 Q706.9688,42.75 705.0469,42.75 Q702.7969,42.75 700.9922,41.8594 Q699.5391,41.1563 698.5078,39.6328 Q697.5,38.1094 697.5,36.3047 L697.5,34.6641 Q697.5,32.7891 698.3906,31.1484 Q699.3047,29.5078 700.875,28.6406 Q702.4688,27.75 704.25,27.75 Q705.3281,27.75 706.2656,28.125 Q707.2031,28.5 708,29.25 Z " fill="#000000"/><text fill="#000000" font-family="sans-serif" font-size="18" lengthAdjust="spacing" textLength="108" x="726" y="41.8652">ShipLocation</text><line style="stroke:#A80036;stroke-width:2.25;" x1="684" x2="837" y1="58.5" y2="58.5"/><text fill="#000000" font-family="sans-serif" font-size="16.5" lengthAdjust="spacing" textLength="108" x="691.5" y="81.6284">-baseDateTime</text><text fill="#000000" font-family="sans-serif" font-size="16.5" lengthAdjust="spacing" textLength="57" x="691.5" y="102.3823">-latitude</text><text fill="#000000" font-family="sans-serif" font-size="16.5" lengthAdjust="spacing" textLength="70.5" x="691.5" y="123.1362">-longitude</text><text fill="#000000" font-family="sans-serif" font-size="16.5" lengthAdjust="spacing" textLength="33" x="691.5" y="143.8901">-sog</text><text fill="#000000" font-family="sans-serif" font-size="16.5" lengthAdjust="spacing" textLength="33" x="691.5" y="164.644">-cog</text><text fill="#000000" font-family="sans-serif" font-size="16.5" lengthAdjust="spacing" textLength="63" x="691.5" y="185.3979">-heading</text><text fill="#000000" font-family="sans-serif" font-size="16.5" lengthAdjust="spacing" textLength="61.5" x="691.5" y="206.1519">-position</text><text fill="#000000" font-family="sans-serif" font-size="16.5" lengthAdjust="spacing" textLength="88.5" x="691.5" y="226.9058">-transceiver</text><!--MD5=[0dc7f2ddb409b58bcf52b12238c25399]
class Ship--><rect codeLine="23" fill="#FEFECE" filter="url(#f13jgm6j4vfsoh)" height="205.2773" id="Ship" style="stroke:#A80036;stroke-width:2.25;" width="211.5" x="289.5" y="217.5"/><ellipse cx="370.125" cy="241.5" fill="#ADD1B2" rx="16.5" ry="16.5" style="stroke:#A80036;stroke-width:1.5;"/><path d="M373.125,236.25 Q373.4297,235.5 373.7813,235.125 Q374.1328,234.75 374.5313,234.75 Q375.2344,234.75 375.6797,235.1719 Q376.125,235.5938 376.125,236.5781 L376.125,238.9219 Q376.125,239.9063 375.7031,240.3281 Q375.2813,240.75 374.625,240.75 Q374.0391,240.75 373.6641,240.4922 Q373.2891,240.2344 373.125,239.5547 Q373.0547,239.0859 372.7969,238.8281 Q372.3281,238.3359 371.4844,238.0547 Q370.6406,237.75 369.7969,237.75 Q368.7422,237.75 367.8516,238.1719 Q366.9844,238.5938 366.3047,239.5313 Q365.625,240.4688 365.625,241.7578 L365.625,243.1406 Q365.625,244.6875 366.8906,245.7188 Q368.1563,246.75 370.4063,246.75 Q371.7422,246.75 372.6797,246.4453 Q373.2188,246.2813 373.8281,245.7422 Q374.2266,245.4375 374.4375,245.3438 Q374.6484,245.25 374.9063,245.25 Q375.3984,245.25 375.75,245.6484 Q376.125,246.0234 376.125,246.5625 Q376.125,247.0781 375.6094,247.6875 Q374.8594,248.5781 373.6641,249.0703 Q372.0938,249.75 370.1719,249.75 Q367.9219,249.75 366.1172,248.8594 Q364.6641,248.1563 363.6328,246.6328 Q362.625,245.1094 362.625,243.3047 L362.625,241.6641 Q362.625,239.7891 363.5156,238.1484 Q364.4297,236.5078 366,235.6406 Q367.5938,234.75 369.375,234.75 Q370.4531,234.75 371.3906,235.125 Q372.3281,235.5 373.125,236.25 Z " fill="#000000"/><text fill="#000000" font-family="sans-serif" font-size="18" lengthAdjust="spacing" textLength="37.5" x="400.875" y="248.8652">Ship</text><line style="stroke:#A80036;stroke-width:2.25;" x1="291" x2="499.5" y1="265.5" y2="265.5"/><text fill="#000000" font-family="sans-serif" font-size="16.5" lengthAdjust="spacing" textLength="79.5" x="298.5" y="288.6284">-mmsiCode</text><text fill="#000000" font-family="sans-serif" font-size="16.5" lengthAdjust="spacing" textLength="45" x="298.5" y="309.3823">-name</text><text fill="#000000" font-family="sans-serif" font-size="16.5" lengthAdjust="spacing" textLength="67.5" x="298.5" y="330.1362">-imoCode</text><text fill="#000000" font-family="sans-serif" font-size="16.5" lengthAdjust="spacing" textLength="193.5" x="298.5" y="350.8901">-numberEnergyGenerators</text><text fill="#000000" font-family="sans-serif" font-size="16.5" lengthAdjust="spacing" textLength="124.5" x="298.5" y="371.644">-generatorPower</text><text fill="#000000" font-family="sans-serif" font-size="16.5" lengthAdjust="spacing" textLength="61.5" x="298.5" y="392.3979">-callSign</text><text fill="#000000" font-family="sans-serif" font-size="16.5" lengthAdjust="spacing" textLength="40.5" x="298.5" y="413.1519">-draft</text><!--MD5=[cf9c7d7c3da40397ddde4f51b7097da6]
class VesselType--><rect codeLine="33" fill="#FEFECE" filter="url(#f13jgm6j4vfsoh)" height="143.0156" id="VesselType" style="stroke:#A80036;stroke-width:2.25;" width="144" x="688.5" y="289.5"/><ellipse cx="711" cy="313.5" fill="#ADD1B2" rx="16.5" ry="16.5" style="stroke:#A80036;stroke-width:1.5;"/><path d="M714,308.25 Q714.3047,307.5 714.6563,307.125 Q715.0078,306.75 715.4063,306.75 Q716.1094,306.75 716.5547,307.1719 Q717,307.5938 717,308.5781 L717,310.9219 Q717,311.9063 716.5781,312.3281 Q716.1563,312.75 715.5,312.75 Q714.9141,312.75 714.5391,312.4922 Q714.1641,312.2344 714,311.5547 Q713.9297,311.0859 713.6719,310.8281 Q713.2031,310.3359 712.3594,310.0547 Q711.5156,309.75 710.6719,309.75 Q709.6172,309.75 708.7266,310.1719 Q707.8594,310.5938 707.1797,311.5313 Q706.5,312.4688 706.5,313.7578 L706.5,315.1406 Q706.5,316.6875 707.7656,317.7188 Q709.0313,318.75 711.2813,318.75 Q712.6172,318.75 713.5547,318.4453 Q714.0938,318.2813 714.7031,317.7422 Q715.1016,317.4375 715.3125,317.3438 Q715.5234,317.25 715.7813,317.25 Q716.2734,317.25 716.625,317.6484 Q717,318.0234 717,318.5625 Q717,319.0781 716.4844,319.6875 Q715.7344,320.5781 714.5391,321.0703 Q712.9688,321.75 711.0469,321.75 Q708.7969,321.75 706.9922,320.8594 Q705.5391,320.1563 704.5078,318.6328 Q703.5,317.1094 703.5,315.3047 L703.5,313.6641 Q703.5,311.7891 704.3906,310.1484 Q705.3047,308.5078 706.875,307.6406 Q708.4688,306.75 710.25,306.75 Q711.3281,306.75 712.2656,307.125 Q713.2031,307.5 714,308.25 Z " fill="#000000"/><text fill="#000000" font-family="sans-serif" font-size="18" lengthAdjust="spacing" textLength="96" x="732" y="320.8652">VesselType</text><line style="stroke:#A80036;stroke-width:2.25;" x1="690" x2="831" y1="337.5" y2="337.5"/><text fill="#000000" font-family="sans-serif" font-size="16.5" lengthAdjust="spacing" textLength="102" x="697.5" y="360.6284">-vesselTypeId</text><text fill="#000000" font-family="sans-serif" font-size="16.5" lengthAdjust="spacing" textLength="49.5" x="697.5" y="381.3823">-length</text><text fill="#000000" font-family="sans-serif" font-size="16.5" lengthAdjust="spacing" textLength="46.5" x="697.5" y="402.1362">-width</text><text fill="#000000" font-family="sans-serif" font-size="16.5" lengthAdjust="spacing" textLength="67.5" x="697.5" y="422.8901">-capacity</text><!--MD5=[02e4b9b7573f1156f41e60aa5b4e25a4]
class Company--><rect codeLine="40" fill="#FEFECE" filter="url(#f13jgm6j4vfsoh)" height="80.7539" id="Company" style="stroke:#A80036;stroke-width:2.25;" width="127.5" x="10.5" y="182.25"/><ellipse cx="33" cy="206.25" fill="#ADD1B2" rx="16.5" ry="16.5" style="stroke:#A80036;stroke-width:1.5;"/><path d="M36,201 Q36.3047,200.25 36.6563,199.875 Q37.0078,199.5 37.4063,199.5 Q38.1094,199.5 38.5547,199.9219 Q39,200.3438 39,201.3281 L39,203.6719 Q39,204.6563 38.5781,205.0781 Q38.1563,205.5 37.5,205.5 Q36.9141,205.5 36.5391,205.2422 Q36.1641,204.9844 36,204.3047 Q35.9297,203.8359 35.6719,203.5781 Q35.2031,203.0859 34.3594,202.8047 Q33.5156,202.5 32.6719,202.5 Q31.6172,202.5 30.7266,202.9219 Q29.8594,203.3438 29.1797,204.2813 Q28.5,205.2188 28.5,206.5078 L28.5,207.8906 Q28.5,209.4375 29.7656,210.4688 Q31.0313,211.5 33.2813,211.5 Q34.6172,211.5 35.5547,211.1953 Q36.0938,211.0313 36.7031,210.4922 Q37.1016,210.1875 37.3125,210.0938 Q37.5234,210 37.7813,210 Q38.2734,210 38.625,210.3984 Q39,210.7734 39,211.3125 Q39,211.8281 38.4844,212.4375 Q37.7344,213.3281 36.5391,213.8203 Q34.9688,214.5 33.0469,214.5 Q30.7969,214.5 28.9922,213.6094 Q27.5391,212.9063 26.5078,211.3828 Q25.5,209.8594 25.5,208.0547 L25.5,206.4141 Q25.5,204.5391 26.3906,202.8984 Q27.3047,201.2578 28.875,200.3906 Q30.4688,199.5 32.25,199.5 Q33.3281,199.5 34.2656,199.875 Q35.2031,200.25 36,201 Z " fill="#000000"/><text fill="#000000" font-family="sans-serif" font-size="18" lengthAdjust="spacing" textLength="79.5" x="54" y="213.6152">Company</text><line style="stroke:#A80036;stroke-width:2.25;" x1="12" x2="136.5" y1="230.25" y2="230.25"/><text fill="#000000" font-family="sans-serif" font-size="16.5" lengthAdjust="spacing" textLength="88.5" x="19.5" y="253.3784">-designation</text><!--MD5=[37a14a5de6d6fd738aee271300f4b5c8]
link Company to Ship--><path codeLine="44" d="M138.195,241.89 C181.065,255.045 239.01,272.805 288.87,288.09 " fill="none" id="Company-Ship" style="stroke:#A80036;stroke-width:1.5;"/><polygon fill="#000000" points="199.9205,244.7123,188.2413,236.5202,185.6566,244.9497,199.9205,244.7123" style="stroke:#000000;stroke-width:1.5;"/><text fill="#000000" font-family="sans-serif" font-size="19.5" lengthAdjust="spacing" textLength="34.5" x="206.25" y="250.4927">own</text><text fill="#000000" font-family="sans-serif" font-size="19.5" lengthAdjust="spacing" textLength="10.5" x="150.0879" y="267.5513">1</text><text fill="#000000" font-family="sans-serif" font-size="19.5" lengthAdjust="spacing" textLength="30" x="247.6803" y="306.5087">1..*</text><!--MD5=[09366576ee87d48d594df10cacc83f45]
link Company to Employee--><path codeLine="45" d="M138.195,203.31 C193.545,186.075 274.02,161.025 329.805,143.655 " fill="none" id="Company-Employee" style="stroke:#A80036;stroke-width:1.5;"/><polygon fill="#000000" points="197.661,156.2842,183.3962,156.1082,186.0171,164.5265,197.661,156.2842" style="stroke:#000000;stroke-width:1.5;"/><text fill="#000000" font-family="sans-serif" font-size="19.5" lengthAdjust="spacing" textLength="39" x="204" y="166.4927">have</text><text fill="#000000" font-family="sans-serif" font-size="19.5" lengthAdjust="spacing" textLength="10.5" x="150.0879" y="222.3404">1</text><text fill="#000000" font-family="sans-serif" font-size="19.5" lengthAdjust="spacing" textLength="30" x="287.9896" y="168.6405">1..*</text><!--MD5=[5541ef512584d1243c10a7f3b3317e1c]
link Ship to ShipLocation--><path codeLine="47" d="M501.045,263.685 C558.945,232.275 629.7,193.89 682.44,165.27 " fill="none" id="Ship-ShipLocation" style="stroke:#A80036;stroke-width:1.5;"/><polygon fill="#000000" points="578.8423,177.4371,564.8145,180.0324,569.019,187.782,578.8423,177.4371" style="stroke:#000000;stroke-width:1.5;"/><text fill="#000000" font-family="sans-serif" font-size="19.5" lengthAdjust="spacing" textLength="31.5" x="585.75" y="188.9927">has</text><text fill="#000000" font-family="sans-serif" font-size="19.5" lengthAdjust="spacing" textLength="10.5" x="513.1905" y="279.0944">1</text><text fill="#000000" font-family="sans-serif" font-size="19.5" lengthAdjust="spacing" textLength="30" x="640.5167" y="192.4337">1..*</text><!--MD5=[c324832c0212842eac80843bc02aaded]
link Ship to VesselType--><path codeLine="48" d="M501.045,331.905 C561.03,338.61 634.815,346.86 688.095,352.815 " fill="none" id="Ship-VesselType" style="stroke:#A80036;stroke-width:1.5;"/><polygon fill="#000000" points="577.4536,324.3469,564.4597,318.4585,563.4802,327.2207,577.4536,324.3469" style="stroke:#000000;stroke-width:1.5;"/><text fill="#000000" font-family="sans-serif" font-size="19.5" lengthAdjust="spacing" textLength="36" x="583.5" y="331.4927">is of</text><text fill="#000000" font-family="sans-serif" font-size="19.5" lengthAdjust="spacing" textLength="7.5" x="513.0265" y="354.776">*</text><text fill="#000000" font-family="sans-serif" font-size="19.5" lengthAdjust="spacing" textLength="10.5" x="666.1894" y="373.6556">1</text><!--MD5=[9c226fb16923f449f2aeb2d55d4b05b5]
link Employee to ShipLocation--><path codeLine="50" d="M460.68,123.75 C522.42,123.75 616.02,123.75 681.87,123.75 " fill="none" id="Employee-ShipLocation" style="stroke:#A80036;stroke-width:1.5;"/><polygon fill="#000000" points="561,110.5137,547.4324,106.1053,547.4324,114.9221,561,110.5137" style="stroke:#000000;stroke-width:1.5;"/><text fill="#000000" font-family="sans-serif" font-size="19.5" lengthAdjust="spacing" textLength="69" x="567" y="118.4927">controls</text><text fill="#000000" font-family="sans-serif" font-size="19.5" lengthAdjust="spacing" textLength="10.5" x="472.3864" y="146.0442">1</text><text fill="#000000" font-family="sans-serif" font-size="19.5" lengthAdjust="spacing" textLength="30" x="640.4588" y="145.5159">1..*</text><!--MD5=[99013794f46febe5653702e42cac63d7]
@startuml
'https://plantuml.com/class-diagram

hide methods
left to right direction
skinparam classAttributeIconSize 0


class Employee {
-name
}

class ShipLocation {
-baseDateTime
-latitude
-longitude
-sog
-cog
-heading
-position
-transceiver
}

class Ship {
-mmsiCode
-name
-imoCode
-numberEnergyGenerators
-generatorPower
-callSign
-draft
}

class VesselType {
-vesselTypeId
-length
-width
-capacity
}

class Company {
-designation
}

Company "1"- -"1..*" Ship: own >
Company "1"- -"1..*" Employee: have >

Ship "1" - - "1..*" ShipLocation : has >
Ship "*" - - "1" VesselType : is of >

Employee "1" - - "1..*" ShipLocation : controls >


@enduml

@startuml

hide methods
left to right direction
skinparam classAttributeIconSize 0


class Employee {
-name
}

class ShipLocation {
-baseDateTime
-latitude
-longitude
-sog
-cog
-heading
-position
-transceiver
}

class Ship {
-mmsiCode
-name
-imoCode
-numberEnergyGenerators
-generatorPower
-callSign
-draft
}

class VesselType {
-vesselTypeId
-length
-width
-capacity
}

class Company {
-designation
}

Company "1"- -"1..*" Ship: own >
Company "1"- -"1..*" Employee: have >

Ship "1" - - "1..*" ShipLocation : has >
Ship "*" - - "1" VesselType : is of >

Employee "1" - - "1..*" ShipLocation : controls >


@enduml

PlantUML version 1.2021.5(Sun Apr 25 12:20:28 BST 2021)
(GPL source distribution)
Java Runtime: OpenJDK Runtime Environment
JVM: Dynamic Code Evolution 64-Bit Server VM
Default Encoding: Cp1252
Language: pt
Country: PT
--></g></svg>