<?xml version="1.0" encoding="UTF-8" standalone="no"?><svg xmlns="http://www.w3.org/2000/svg" xmlns:xlink="http://www.w3.org/1999/xlink" contentScriptType="application/ecmascript" contentStyleType="text/css" height="221px" preserveAspectRatio="none" style="width:1312px;height:221px;background:#FFFFFF;" version="1.1" viewBox="0 0 1312 221" width="1312px" zoomAndPan="magnify"><defs><filter height="300%" id="flbg6t5srhysv" width="300%" x="-1" y="-1"><feGaussianBlur result="blurOut" stdDeviation="2.0"/><feColorMatrix in="blurOut" result="blurOut2" type="matrix" values="0 0 0 0 0 0 0 0 0 0 0 0 0 0 0 0 0 0 .4 0"/><feOffset dx="4.0" dy="4.0" in="blurOut2" result="blurOut3"/><feBlend in="SourceGraphic" in2="blurOut3" mode="normal"/></filter></defs><g><!--MD5=[073826b932c6d11acd92c3755d631ba7]
class ShowTopShipsUI--><rect codeLine="3" fill="#FEFECE" filter="url(#flbg6t5srhysv)" height="48" id="ShowTopShipsUI" style="stroke:#A80036;stroke-width:1.5;" width="128" x="7" y="83"/><ellipse cx="22" cy="99" fill="#ADD1B2" rx="11" ry="11" style="stroke:#A80036;stroke-width:1.0;"/><path d="M24,95.5 Q24.2031,95 24.4375,94.75 Q24.6719,94.5 24.9375,94.5 Q25.4063,94.5 25.7031,94.7813 Q26,95.0625 26,95.7188 L26,97.2813 Q26,97.9375 25.7188,98.2188 Q25.4375,98.5 25,98.5 Q24.6094,98.5 24.3594,98.3281 Q24.1094,98.1563 24,97.7031 Q23.9531,97.3906 23.7813,97.2188 Q23.4688,96.8906 22.9063,96.7031 Q22.3438,96.5 21.7813,96.5 Q21.0781,96.5 20.4844,96.7813 Q19.9063,97.0625 19.4531,97.6875 Q19,98.3125 19,99.1719 L19,100.0938 Q19,101.125 19.8438,101.8125 Q20.6875,102.5 22.1875,102.5 Q23.0781,102.5 23.7031,102.2969 Q24.0625,102.1875 24.4688,101.8281 Q24.7344,101.625 24.875,101.5625 Q25.0156,101.5 25.1875,101.5 Q25.5156,101.5 25.75,101.7656 Q26,102.0156 26,102.375 Q26,102.7188 25.6563,103.125 Q25.1563,103.7188 24.3594,104.0469 Q23.3125,104.5 22.0313,104.5 Q20.5313,104.5 19.3281,103.9063 Q18.3594,103.4375 17.6719,102.4219 Q17,101.4063 17,100.2031 L17,99.1094 Q17,97.8594 17.5938,96.7656 Q18.2031,95.6719 19.25,95.0938 Q20.3125,94.5 21.5,94.5 Q22.2188,94.5 22.8438,94.75 Q23.4688,95 24,95.5 Z " fill="#000000"/><text fill="#000000" font-family="sans-serif" font-size="12" lengthAdjust="spacing" textLength="96" x="36" y="103.9102">ShowTopShipsUI</text><line style="stroke:#A80036;stroke-width:1.5;" x1="8" x2="134" y1="115" y2="115"/><line style="stroke:#A80036;stroke-width:1.5;" x1="8" x2="134" y1="123" y2="123"/><!--MD5=[5470bfaa390769cda00b4fcc248256cc]
class ShowTopShipsController--><rect codeLine="7" fill="#FEFECE" filter="url(#flbg6t5srhysv)" height="61.8359" id="ShowTopShipsController" style="stroke:#A80036;stroke-width:1.5;" width="170" x="196" y="76"/><ellipse cx="211" cy="92" fill="#ADD1B2" rx="11" ry="11" style="stroke:#A80036;stroke-width:1.0;"/><path d="M213,88.5 Q213.2031,88 213.4375,87.75 Q213.6719,87.5 213.9375,87.5 Q214.4063,87.5 214.7031,87.7813 Q215,88.0625 215,88.7188 L215,90.2813 Q215,90.9375 214.7188,91.2188 Q214.4375,91.5 214,91.5 Q213.6094,91.5 213.3594,91.3281 Q213.1094,91.1563 213,90.7031 Q212.9531,90.3906 212.7813,90.2188 Q212.4688,89.8906 211.9063,89.7031 Q211.3438,89.5 210.7813,89.5 Q210.0781,89.5 209.4844,89.7813 Q208.9063,90.0625 208.4531,90.6875 Q208,91.3125 208,92.1719 L208,93.0938 Q208,94.125 208.8438,94.8125 Q209.6875,95.5 211.1875,95.5 Q212.0781,95.5 212.7031,95.2969 Q213.0625,95.1875 213.4688,94.8281 Q213.7344,94.625 213.875,94.5625 Q214.0156,94.5 214.1875,94.5 Q214.5156,94.5 214.75,94.7656 Q215,95.0156 215,95.375 Q215,95.7188 214.6563,96.125 Q214.1563,96.7188 213.3594,97.0469 Q212.3125,97.5 211.0313,97.5 Q209.5313,97.5 208.3281,96.9063 Q207.3594,96.4375 206.6719,95.4219 Q206,94.4063 206,93.2031 L206,92.1094 Q206,90.8594 206.5938,89.7656 Q207.2031,88.6719 208.25,88.0938 Q209.3125,87.5 210.5,87.5 Q211.2188,87.5 211.8438,87.75 Q212.4688,88 213,88.5 Z " fill="#000000"/><text fill="#000000" font-family="sans-serif" font-size="12" lengthAdjust="spacing" textLength="138" x="225" y="96.9102">ShowTopShipsController</text><line style="stroke:#A80036;stroke-width:1.5;" x1="197" x2="365" y1="108" y2="108"/><rect fill="none" height="6" style="stroke:#C82930;stroke-width:1.0;" width="6" x="204" y="116"/><text fill="#000000" font-family="sans-serif" font-size="11" lengthAdjust="spacing" textLength="67" x="216" y="123.4189">getTopNShips</text><line style="stroke:#A80036;stroke-width:1.5;" x1="197" x2="365" y1="129.8359" y2="129.8359"/><!--MD5=[b5b6c86a063960d0027bc1719947b1c8]
class BstShip--><rect codeLine="11" fill="#FEFECE" filter="url(#flbg6t5srhysv)" height="61.8359" id="BstShip" style="stroke:#A80036;stroke-width:1.5;" width="263" x="618" y="76"/><ellipse cx="723.75" cy="92" fill="#ADD1B2" rx="11" ry="11" style="stroke:#A80036;stroke-width:1.0;"/><path d="M725.75,88.5 Q725.9531,88 726.1875,87.75 Q726.4219,87.5 726.6875,87.5 Q727.1563,87.5 727.4531,87.7813 Q727.75,88.0625 727.75,88.7188 L727.75,90.2813 Q727.75,90.9375 727.4688,91.2188 Q727.1875,91.5 726.75,91.5 Q726.3594,91.5 726.1094,91.3281 Q725.8594,91.1563 725.75,90.7031 Q725.7031,90.3906 725.5313,90.2188 Q725.2188,89.8906 724.6563,89.7031 Q724.0938,89.5 723.5313,89.5 Q722.8281,89.5 722.2344,89.7813 Q721.6563,90.0625 721.2031,90.6875 Q720.75,91.3125 720.75,92.1719 L720.75,93.0938 Q720.75,94.125 721.5938,94.8125 Q722.4375,95.5 723.9375,95.5 Q724.8281,95.5 725.4531,95.2969 Q725.8125,95.1875 726.2188,94.8281 Q726.4844,94.625 726.625,94.5625 Q726.7656,94.5 726.9375,94.5 Q727.2656,94.5 727.5,94.7656 Q727.75,95.0156 727.75,95.375 Q727.75,95.7188 727.4063,96.125 Q726.9063,96.7188 726.1094,97.0469 Q725.0625,97.5 723.7813,97.5 Q722.2813,97.5 721.0781,96.9063 Q720.1094,96.4375 719.4219,95.4219 Q718.75,94.4063 718.75,93.2031 L718.75,92.1094 Q718.75,90.8594 719.3438,89.7656 Q719.9531,88.6719 721,88.0938 Q722.0625,87.5 723.25,87.5 Q723.9688,87.5 724.5938,87.75 Q725.2188,88 725.75,88.5 Z " fill="#000000"/><text fill="#000000" font-family="sans-serif" font-size="12" lengthAdjust="spacing" textLength="43" x="744.25" y="96.9102">BstShip</text><line style="stroke:#A80036;stroke-width:1.5;" x1="619" x2="880" y1="108" y2="108"/><line style="stroke:#A80036;stroke-width:1.5;" x1="619" x2="880" y1="116" y2="116"/><rect fill="#F24D5C" height="6" style="stroke:#C82930;stroke-width:1.0;" width="6" x="626" y="124"/><text fill="#000000" font-family="sans-serif" font-size="11" lengthAdjust="spacing" textLength="237" x="638" y="131.4189">getTopNShips(numberShips, initialDate, finalDate)</text><!--MD5=[02e4b9b7573f1156f41e60aa5b4e25a4]
class Company--><rect codeLine="15" fill="#FEFECE" filter="url(#flbg6t5srhysv)" height="75.6719" id="Company" style="stroke:#A80036;stroke-width:1.5;" width="86" x="427" y="114"/><ellipse cx="442.45" cy="130" fill="#ADD1B2" rx="11" ry="11" style="stroke:#A80036;stroke-width:1.0;"/><path d="M444.45,126.5 Q444.6531,126 444.8875,125.75 Q445.1219,125.5 445.3875,125.5 Q445.8563,125.5 446.1531,125.7813 Q446.45,126.0625 446.45,126.7188 L446.45,128.2813 Q446.45,128.9375 446.1688,129.2188 Q445.8875,129.5 445.45,129.5 Q445.0594,129.5 444.8094,129.3281 Q444.5594,129.1563 444.45,128.7031 Q444.4031,128.3906 444.2313,128.2188 Q443.9188,127.8906 443.3563,127.7031 Q442.7938,127.5 442.2313,127.5 Q441.5281,127.5 440.9344,127.7813 Q440.3563,128.0625 439.9031,128.6875 Q439.45,129.3125 439.45,130.1719 L439.45,131.0938 Q439.45,132.125 440.2938,132.8125 Q441.1375,133.5 442.6375,133.5 Q443.5281,133.5 444.1531,133.2969 Q444.5125,133.1875 444.9188,132.8281 Q445.1844,132.625 445.325,132.5625 Q445.4656,132.5 445.6375,132.5 Q445.9656,132.5 446.2,132.7656 Q446.45,133.0156 446.45,133.375 Q446.45,133.7188 446.1063,134.125 Q445.6063,134.7188 444.8094,135.0469 Q443.7625,135.5 442.4813,135.5 Q440.9813,135.5 439.7781,134.9063 Q438.8094,134.4375 438.1219,133.4219 Q437.45,132.4063 437.45,131.2031 L437.45,130.1094 Q437.45,128.8594 438.0438,127.7656 Q438.6531,126.6719 439.7,126.0938 Q440.7625,125.5 441.95,125.5 Q442.6688,125.5 443.2938,125.75 Q443.9188,126 444.45,126.5 Z " fill="#000000"/><text fill="#000000" font-family="sans-serif" font-size="12" lengthAdjust="spacing" textLength="53" x="456.55" y="134.9102">Company</text><line style="stroke:#A80036;stroke-width:1.5;" x1="428" x2="512" y1="146" y2="146"/><rect fill="none" height="6" style="stroke:#C82930;stroke-width:1.0;" width="6" x="435" y="154"/><text fill="#000000" font-family="sans-serif" font-size="11" lengthAdjust="spacing" textLength="55" x="447" y="161.4189">designation</text><line style="stroke:#A80036;stroke-width:1.5;" x1="428" x2="512" y1="167.8359" y2="167.8359"/><rect fill="#F24D5C" height="6" style="stroke:#C82930;stroke-width:1.0;" width="6" x="435" y="175.8359"/><text fill="#000000" font-family="sans-serif" font-size="11" lengthAdjust="spacing" textLength="60" x="447" y="183.2549">getBstShip()</text><!--MD5=[41f5b97920949c93f11fe0d940b2487b]
class Summary--><rect codeLine="20" fill="#FEFECE" filter="url(#flbg6t5srhysv)" height="117.1797" id="Summary" style="stroke:#A80036;stroke-width:1.5;" width="109" x="1189" y="48.5"/><ellipse cx="1214.8" cy="64.5" fill="#ADD1B2" rx="11" ry="11" style="stroke:#A80036;stroke-width:1.0;"/><path d="M1216.8,61 Q1217.0031,60.5 1217.2375,60.25 Q1217.4719,60 1217.7375,60 Q1218.2063,60 1218.5031,60.2813 Q1218.8,60.5625 1218.8,61.2188 L1218.8,62.7813 Q1218.8,63.4375 1218.5188,63.7188 Q1218.2375,64 1217.8,64 Q1217.4094,64 1217.1594,63.8281 Q1216.9094,63.6563 1216.8,63.2031 Q1216.7531,62.8906 1216.5813,62.7188 Q1216.2688,62.3906 1215.7063,62.2031 Q1215.1438,62 1214.5813,62 Q1213.8781,62 1213.2844,62.2813 Q1212.7063,62.5625 1212.2531,63.1875 Q1211.8,63.8125 1211.8,64.6719 L1211.8,65.5938 Q1211.8,66.625 1212.6438,67.3125 Q1213.4875,68 1214.9875,68 Q1215.8781,68 1216.5031,67.7969 Q1216.8625,67.6875 1217.2688,67.3281 Q1217.5344,67.125 1217.675,67.0625 Q1217.8156,67 1217.9875,67 Q1218.3156,67 1218.55,67.2656 Q1218.8,67.5156 1218.8,67.875 Q1218.8,68.2188 1218.4563,68.625 Q1217.9563,69.2188 1217.1594,69.5469 Q1216.1125,70 1214.8313,70 Q1213.3313,70 1212.1281,69.4063 Q1211.1594,68.9375 1210.4719,67.9219 Q1209.8,66.9063 1209.8,65.7031 L1209.8,64.6094 Q1209.8,63.3594 1210.3938,62.2656 Q1211.0031,61.1719 1212.05,60.5938 Q1213.1125,60 1214.3,60 Q1215.0188,60 1215.6438,60.25 Q1216.2688,60.5 1216.8,61 Z " fill="#000000"/><text fill="#000000" font-family="sans-serif" font-size="12" lengthAdjust="spacing" textLength="53" x="1231.2" y="69.4102">Summary</text><line style="stroke:#A80036;stroke-width:1.5;" x1="1190" x2="1297" y1="80.5" y2="80.5"/><rect fill="none" height="6" style="stroke:#C82930;stroke-width:1.0;" width="6" x="1197" y="88.5"/><text fill="#000000" font-family="sans-serif" font-size="11" lengthAdjust="spacing" textLength="49" x="1209" y="95.9189">mmsiCode</text><rect fill="none" height="6" style="stroke:#C82930;stroke-width:1.0;" width="6" x="1197" y="102.3359"/><text fill="#000000" font-family="sans-serif" font-size="11" lengthAdjust="spacing" textLength="69" x="1209" y="109.7549">startBaseDate</text><rect fill="none" height="6" style="stroke:#C82930;stroke-width:1.0;" width="6" x="1197" y="116.1719"/><text fill="#000000" font-family="sans-serif" font-size="11" lengthAdjust="spacing" textLength="65" x="1209" y="123.5908">endBaseDate</text><rect fill="none" height="6" style="stroke:#C82930;stroke-width:1.0;" width="6" x="1197" y="130.0078"/><text fill="#000000" font-family="sans-serif" font-size="11" lengthAdjust="spacing" textLength="45" x="1209" y="137.4268">meanSog</text><rect fill="none" height="6" style="stroke:#C82930;stroke-width:1.0;" width="6" x="1197" y="143.8438"/><text fill="#000000" font-family="sans-serif" font-size="11" lengthAdjust="spacing" textLength="83" x="1209" y="151.2627">travelledDistance</text><line style="stroke:#A80036;stroke-width:1.5;" x1="1190" x2="1297" y1="157.6797" y2="157.6797"/><!--MD5=[0dc7f2ddb409b58bcf52b12238c25399]
class Ship--><rect codeLine="28" fill="#FEFECE" filter="url(#flbg6t5srhysv)" height="200.1953" id="Ship" style="stroke:#A80036;stroke-width:1.5;" width="151" x="977" y="7"/><ellipse cx="1035.75" cy="23" fill="#ADD1B2" rx="11" ry="11" style="stroke:#A80036;stroke-width:1.0;"/><path d="M1037.75,19.5 Q1037.9531,19 1038.1875,18.75 Q1038.4219,18.5 1038.6875,18.5 Q1039.1563,18.5 1039.4531,18.7813 Q1039.75,19.0625 1039.75,19.7188 L1039.75,21.2813 Q1039.75,21.9375 1039.4688,22.2188 Q1039.1875,22.5 1038.75,22.5 Q1038.3594,22.5 1038.1094,22.3281 Q1037.8594,22.1563 1037.75,21.7031 Q1037.7031,21.3906 1037.5313,21.2188 Q1037.2188,20.8906 1036.6563,20.7031 Q1036.0938,20.5 1035.5313,20.5 Q1034.8281,20.5 1034.2344,20.7813 Q1033.6563,21.0625 1033.2031,21.6875 Q1032.75,22.3125 1032.75,23.1719 L1032.75,24.0938 Q1032.75,25.125 1033.5938,25.8125 Q1034.4375,26.5 1035.9375,26.5 Q1036.8281,26.5 1037.4531,26.2969 Q1037.8125,26.1875 1038.2188,25.8281 Q1038.4844,25.625 1038.625,25.5625 Q1038.7656,25.5 1038.9375,25.5 Q1039.2656,25.5 1039.5,25.7656 Q1039.75,26.0156 1039.75,26.375 Q1039.75,26.7188 1039.4063,27.125 Q1038.9063,27.7188 1038.1094,28.0469 Q1037.0625,28.5 1035.7813,28.5 Q1034.2813,28.5 1033.0781,27.9063 Q1032.1094,27.4375 1031.4219,26.4219 Q1030.75,25.4063 1030.75,24.2031 L1030.75,23.1094 Q1030.75,21.8594 1031.3438,20.7656 Q1031.9531,19.6719 1033,19.0938 Q1034.0625,18.5 1035.25,18.5 Q1035.9688,18.5 1036.5938,18.75 Q1037.2188,19 1037.75,19.5 Z " fill="#000000"/><text fill="#000000" font-family="sans-serif" font-size="12" lengthAdjust="spacing" textLength="25" x="1056.25" y="27.9102">Ship</text><line style="stroke:#A80036;stroke-width:1.5;" x1="978" x2="1127" y1="39" y2="39"/><rect fill="none" height="6" style="stroke:#C82930;stroke-width:1.0;" width="6" x="985" y="47"/><text fill="#000000" font-family="sans-serif" font-size="11" lengthAdjust="spacing" textLength="25" x="997" y="54.4189">MMSI</text><rect fill="none" height="6" style="stroke:#C82930;stroke-width:1.0;" width="6" x="985" y="60.8359"/><text fill="#000000" font-family="sans-serif" font-size="11" lengthAdjust="spacing" textLength="26" x="997" y="68.2549">name</text><rect fill="none" height="6" style="stroke:#C82930;stroke-width:1.0;" width="6" x="985" y="74.6719"/><text fill="#000000" font-family="sans-serif" font-size="11" lengthAdjust="spacing" textLength="29" x="997" y="82.0908">shipID</text><rect fill="none" height="6" style="stroke:#C82930;stroke-width:1.0;" width="6" x="985" y="88.5078"/><text fill="#000000" font-family="sans-serif" font-size="11" lengthAdjust="spacing" textLength="125" x="997" y="95.9268">numberEnergyGenerators</text><rect fill="none" height="6" style="stroke:#C82930;stroke-width:1.0;" width="6" x="985" y="102.3438"/><text fill="#000000" font-family="sans-serif" font-size="11" lengthAdjust="spacing" textLength="79" x="997" y="109.7627">generatorPower</text><rect fill="none" height="6" style="stroke:#C82930;stroke-width:1.0;" width="6" x="985" y="116.1797"/><text fill="#000000" font-family="sans-serif" font-size="11" lengthAdjust="spacing" textLength="37" x="997" y="123.5986">callSign</text><rect fill="none" height="6" style="stroke:#C82930;stroke-width:1.0;" width="6" x="985" y="130.0156"/><text fill="#000000" font-family="sans-serif" font-size="11" lengthAdjust="spacing" textLength="56" x="997" y="137.4346">vesselType</text><rect fill="none" height="6" style="stroke:#C82930;stroke-width:1.0;" width="6" x="985" y="143.8516"/><text fill="#000000" font-family="sans-serif" font-size="11" lengthAdjust="spacing" textLength="29" x="997" y="151.2705">length</text><rect fill="none" height="6" style="stroke:#C82930;stroke-width:1.0;" width="6" x="985" y="157.6875"/><text fill="#000000" font-family="sans-serif" font-size="11" lengthAdjust="spacing" textLength="27" x="997" y="165.1064">width</text><rect fill="none" height="6" style="stroke:#C82930;stroke-width:1.0;" width="6" x="985" y="171.5234"/><text fill="#000000" font-family="sans-serif" font-size="11" lengthAdjust="spacing" textLength="41" x="997" y="178.9424">capacity</text><rect fill="none" height="6" style="stroke:#C82930;stroke-width:1.0;" width="6" x="985" y="185.3594"/><text fill="#000000" font-family="sans-serif" font-size="11" lengthAdjust="spacing" textLength="23" x="997" y="192.7783">draft</text><line style="stroke:#A80036;stroke-width:1.5;" x1="978" x2="1127" y1="199.1953" y2="199.1953"/><!--MD5=[5a85064852291f31aeb06471a72943e7]
link ShowTopShipsUI to ShowTopShipsController--><path codeLine="42" d="M135.25,107 C152.73,107 172.04,107 190.7,107 " fill="none" id="ShowTopShipsUI-to-ShowTopShipsController" style="stroke:#A80036;stroke-width:1.0;stroke-dasharray:7.0,7.0;"/><polygon fill="#A80036" points="195.94,107,186.94,103,190.94,107,186.94,111,195.94,107" style="stroke:#A80036;stroke-width:1.0;"/><!--MD5=[80582656cc84b3b9e7ab0aee50504779]
link ShowTopShipsController to Company--><path codeLine="44" d="M366.2,127.26 C385.18,131.83 404.67,136.52 421.51,140.57 " fill="none" id="ShowTopShipsController-to-Company" style="stroke:#A80036;stroke-width:1.0;stroke-dasharray:7.0,7.0;"/><polygon fill="#A80036" points="426.65,141.81,418.8387,135.8114,421.7894,140.6377,416.963,143.5884,426.65,141.81" style="stroke:#A80036;stroke-width:1.0;"/><!--MD5=[14fdb76946ac0c0eabf5d41702e30a18]
link Company to BstShip--><path codeLine="46" d="M513.15,145.17 C541.27,140.6 579.91,134.34 617.75,128.2 " fill="none" id="Company-BstShip" style="stroke:#A80036;stroke-width:1.0;"/><polygon fill="#000000" points="552.9355,124.3751,543.5365,122.9226,544.4778,128.7246,552.9355,124.3751" style="stroke:#000000;stroke-width:1.0;"/><text fill="#000000" font-family="sans-serif" font-size="13" lengthAdjust="spacing" textLength="30" x="557" y="130.4951">owns</text><text fill="#000000" font-family="sans-serif" font-size="13" lengthAdjust="spacing" textLength="7" x="520.8764" y="158.9152">1</text><text fill="#000000" font-family="sans-serif" font-size="13" lengthAdjust="spacing" textLength="7" x="602.9309" y="143.3981">1</text><!--MD5=[156af0a04d52384e4be1e4246455d53f]
link ShowTopShipsController to BstShip--><path codeLine="48" d="M366.28,99.52 C386.17,98.06 407.32,96.75 427,96 C487.95,93.69 555.4,95.35 612.72,98.02 " fill="none" id="ShowTopShipsController-to-BstShip" style="stroke:#A80036;stroke-width:1.0;stroke-dasharray:7.0,7.0;"/><polygon fill="#A80036" points="617.88,98.26,609.0847,93.8281,612.8859,98.0174,608.6965,101.8187,617.88,98.26" style="stroke:#A80036;stroke-width:1.0;"/><!--MD5=[42c269113f15bf3b39a3f95e82b93e8f]
link BstShip to Ship--><path codeLine="50" d="M881.21,107 C913.89,107 947.84,107 976.75,107 " fill="none" id="BstShip-Ship" style="stroke:#A80036;stroke-width:1.0;"/><polygon fill="#000000" points="921,98.1758,911.9549,95.2369,911.9549,101.1147,921,98.1758" style="stroke:#000000;stroke-width:1.0;"/><text fill="#000000" font-family="sans-serif" font-size="13" lengthAdjust="spacing" textLength="21" x="925" y="103.4951">has</text><text fill="#000000" font-family="sans-serif" font-size="13" lengthAdjust="spacing" textLength="7" x="889.0268" y="120.9725">1</text><text fill="#000000" font-family="sans-serif" font-size="13" lengthAdjust="spacing" textLength="20" x="949.1129" y="121.2146">1..*</text><!--MD5=[69204de5a7ed68e343ce68dd37e381b5]
link Ship to Summary--><path codeLine="52" d="M1128.2,107 C1146.53,107 1165.89,107 1183.37,107 " fill="none" id="Ship-to-Summary" style="stroke:#A80036;stroke-width:1.0;stroke-dasharray:7.0,7.0;"/><polygon fill="#A80036" points="1188.74,107,1179.74,103,1183.74,107,1179.74,111,1188.74,107" style="stroke:#A80036;stroke-width:1.0;"/><!--MD5=[9e5839911bf5ab9ffc0500b768b97857]
@startuml
left to right direction

class ShowTopShipsUI{

}

class ShowTopShipsController{
-getTopNShips
}

class BstShip{
-getTopNShips(numberShips, initialDate, finalDate)
}

class Company{
-designation
-getBstShip()
}

class Summary{
-mmsiCode
-startBaseDate
-endBaseDate
-meanSog
-travelledDistance
}

class Ship {
-MMSI
-name
-shipID
-numberEnergyGenerators
-generatorPower
-callSign
-vesselType
-length
-width
-capacity
-draft
}

ShowTopShipsUI ..> ShowTopShipsController

ShowTopShipsController ..> Company

Company "1" - - "1" BstShip : owns >

ShowTopShipsController  ..>  BstShip 

BstShip "1" - - "1..*" Ship : has >

Ship ..> Summary

@enduml

PlantUML version 1.2021.11(Sat Oct 02 14:26:11 BST 2021)
(GPL source distribution)
Java Runtime: OpenJDK Runtime Environment
JVM: OpenJDK 64-Bit Server VM
Default Encoding: Cp1252
Language: pt
Country: PT
--></g></svg>