<?xml version="1.0" encoding="UTF-8" standalone="no"?><svg xmlns="http://www.w3.org/2000/svg" xmlns:xlink="http://www.w3.org/1999/xlink" contentScriptType="application/ecmascript" contentStyleType="text/css" height="651px" preserveAspectRatio="none" style="width:441px;height:651px;" version="1.1" viewBox="0 0 441 651" width="441px" zoomAndPan="magnify"><defs><filter height="300%" id="fw08hummo55hb" width="300%" x="-1" y="-1"><feGaussianBlur result="blurOut" stdDeviation="3.0"/><feColorMatrix in="blurOut" result="blurOut2" type="matrix" values="0 0 0 0 0 0 0 0 0 0 0 0 0 0 0 0 0 0 .4 0"/><feOffset dx="6.0" dy="6.0" in="blurOut2" result="blurOut3"/><feBlend in="SourceGraphic" in2="blurOut3" mode="normal"/></filter></defs><g><!--MD5=[271068e2de21ac582e700d827f65f6ed]
class FindContainerSituationUi--><rect codeLine="3" fill="#FEFECE" filter="url(#fw08hummo55hb)" height="72" id="FindContainerSituationUi" style="stroke:#A80036;stroke-width:2.25;" width="255" x="87.75" y="10.5"/><ellipse cx="110.25" cy="34.5" fill="#ADD1B2" rx="16.5" ry="16.5" style="stroke:#A80036;stroke-width:1.5;"/><path d="M113.25,29.25 Q113.5547,28.5 113.9063,28.125 Q114.2578,27.75 114.6563,27.75 Q115.3594,27.75 115.8047,28.1719 Q116.25,28.5938 116.25,29.5781 L116.25,31.9219 Q116.25,32.9063 115.8281,33.3281 Q115.4063,33.75 114.75,33.75 Q114.1641,33.75 113.7891,33.4922 Q113.4141,33.2344 113.25,32.5547 Q113.1797,32.0859 112.9219,31.8281 Q112.4531,31.3359 111.6094,31.0547 Q110.7656,30.75 109.9219,30.75 Q108.8672,30.75 107.9766,31.1719 Q107.1094,31.5938 106.4297,32.5313 Q105.75,33.4688 105.75,34.7578 L105.75,36.1406 Q105.75,37.6875 107.0156,38.7188 Q108.2813,39.75 110.5313,39.75 Q111.8672,39.75 112.8047,39.4453 Q113.3438,39.2813 113.9531,38.7422 Q114.3516,38.4375 114.5625,38.3438 Q114.7734,38.25 115.0313,38.25 Q115.5234,38.25 115.875,38.6484 Q116.25,39.0234 116.25,39.5625 Q116.25,40.0781 115.7344,40.6875 Q114.9844,41.5781 113.7891,42.0703 Q112.2188,42.75 110.2969,42.75 Q108.0469,42.75 106.2422,41.8594 Q104.7891,41.1563 103.7578,39.6328 Q102.75,38.1094 102.75,36.3047 L102.75,34.6641 Q102.75,32.7891 103.6406,31.1484 Q104.5547,29.5078 106.125,28.6406 Q107.7188,27.75 109.5,27.75 Q110.5781,27.75 111.5156,28.125 Q112.4531,28.5 113.25,29.25 Z " fill="#000000"/><text fill="#000000" font-family="sans-serif" font-size="18" lengthAdjust="spacing" textLength="207" x="131.25" y="41.8652">FindContainerSituationUi</text><line style="stroke:#A80036;stroke-width:2.25;" x1="89.25" x2="341.25" y1="58.5" y2="58.5"/><line style="stroke:#A80036;stroke-width:2.25;" x1="89.25" x2="341.25" y1="70.5" y2="70.5"/><!--MD5=[37c56c6f62ea7a6a283dcc72d33fd1dd]
class FindContainerSituationController--><rect codeLine="5" fill="#FEFECE" filter="url(#fw08hummo55hb)" height="92.7539" id="FindContainerSituationController" style="stroke:#A80036;stroke-width:2.25;" width="327" x="51.75" y="172.5"/><ellipse cx="78.3" cy="196.5" fill="#ADD1B2" rx="16.5" ry="16.5" style="stroke:#A80036;stroke-width:1.5;"/><path d="M81.3,191.25 Q81.6047,190.5 81.9563,190.125 Q82.3078,189.75 82.7063,189.75 Q83.4094,189.75 83.8547,190.1719 Q84.3,190.5938 84.3,191.5781 L84.3,193.9219 Q84.3,194.9063 83.8781,195.3281 Q83.4563,195.75 82.8,195.75 Q82.2141,195.75 81.8391,195.4922 Q81.4641,195.2344 81.3,194.5547 Q81.2297,194.0859 80.9719,193.8281 Q80.5031,193.3359 79.6594,193.0547 Q78.8156,192.75 77.9719,192.75 Q76.9172,192.75 76.0266,193.1719 Q75.1594,193.5938 74.4797,194.5313 Q73.8,195.4688 73.8,196.7578 L73.8,198.1406 Q73.8,199.6875 75.0656,200.7188 Q76.3313,201.75 78.5813,201.75 Q79.9172,201.75 80.8547,201.4453 Q81.3938,201.2813 82.0031,200.7422 Q82.4016,200.4375 82.6125,200.3438 Q82.8234,200.25 83.0813,200.25 Q83.5734,200.25 83.925,200.6484 Q84.3,201.0234 84.3,201.5625 Q84.3,202.0781 83.7844,202.6875 Q83.0344,203.5781 81.8391,204.0703 Q80.2688,204.75 78.3469,204.75 Q76.0969,204.75 74.2922,203.8594 Q72.8391,203.1563 71.8078,201.6328 Q70.8,200.1094 70.8,198.3047 L70.8,196.6641 Q70.8,194.7891 71.6906,193.1484 Q72.6047,191.5078 74.175,190.6406 Q75.7688,189.75 77.55,189.75 Q78.6281,189.75 79.5656,190.125 Q80.5031,190.5 81.3,191.25 Z " fill="#000000"/><text fill="#000000" font-family="sans-serif" font-size="18" lengthAdjust="spacing" textLength="270" x="100.2" y="203.8652">FindContainerSituationController</text><line style="stroke:#A80036;stroke-width:2.25;" x1="53.25" x2="377.25" y1="220.5" y2="220.5"/><line style="stroke:#A80036;stroke-width:2.25;" x1="53.25" x2="377.25" y1="232.5" y2="232.5"/><rect fill="#F24D5C" height="9" style="stroke:#C82930;stroke-width:1.5;" width="9" x="63.75" y="244.5"/><text fill="#000000" font-family="sans-serif" font-size="16.5" lengthAdjust="spacing" textLength="288" x="81.75" y="255.6284">getContainerLocation(containerNumber)</text><!--MD5=[964ee3c73ac68ce4dfad7ce901c2212b]
class US204Handler--><rect codeLine="10" fill="#FEFECE" filter="url(#fw08hummo55hb)" height="92.7539" id="US204Handler" style="stroke:#A80036;stroke-width:2.25;" width="327" x="51.75" y="355.5"/><ellipse cx="147.375" cy="379.5" fill="#ADD1B2" rx="16.5" ry="16.5" style="stroke:#A80036;stroke-width:1.5;"/><path d="M150.375,374.25 Q150.6797,373.5 151.0313,373.125 Q151.3828,372.75 151.7813,372.75 Q152.4844,372.75 152.9297,373.1719 Q153.375,373.5938 153.375,374.5781 L153.375,376.9219 Q153.375,377.9063 152.9531,378.3281 Q152.5313,378.75 151.875,378.75 Q151.2891,378.75 150.9141,378.4922 Q150.5391,378.2344 150.375,377.5547 Q150.3047,377.0859 150.0469,376.8281 Q149.5781,376.3359 148.7344,376.0547 Q147.8906,375.75 147.0469,375.75 Q145.9922,375.75 145.1016,376.1719 Q144.2344,376.5938 143.5547,377.5313 Q142.875,378.4688 142.875,379.7578 L142.875,381.1406 Q142.875,382.6875 144.1406,383.7188 Q145.4063,384.75 147.6563,384.75 Q148.9922,384.75 149.9297,384.4453 Q150.4688,384.2813 151.0781,383.7422 Q151.4766,383.4375 151.6875,383.3438 Q151.8984,383.25 152.1563,383.25 Q152.6484,383.25 153,383.6484 Q153.375,384.0234 153.375,384.5625 Q153.375,385.0781 152.8594,385.6875 Q152.1094,386.5781 150.9141,387.0703 Q149.3438,387.75 147.4219,387.75 Q145.1719,387.75 143.3672,386.8594 Q141.9141,386.1563 140.8828,384.6328 Q139.875,383.1094 139.875,381.3047 L139.875,379.6641 Q139.875,377.7891 140.7656,376.1484 Q141.6797,374.5078 143.25,373.6406 Q144.8438,372.75 146.625,372.75 Q147.7031,372.75 148.6406,373.125 Q149.5781,373.5 150.375,374.25 Z " fill="#000000"/><text fill="#000000" font-family="sans-serif" font-size="18" lengthAdjust="spacing" textLength="123" x="178.125" y="386.8652">US204Handler</text><line style="stroke:#A80036;stroke-width:2.25;" x1="53.25" x2="377.25" y1="403.5" y2="403.5"/><line style="stroke:#A80036;stroke-width:2.25;" x1="53.25" x2="377.25" y1="415.5" y2="415.5"/><rect fill="#F24D5C" height="9" style="stroke:#C82930;stroke-width:1.5;" width="9" x="63.75" y="427.5"/><text fill="#000000" font-family="sans-serif" font-size="16.5" lengthAdjust="spacing" textLength="288" x="81.75" y="438.6284">getContainerLocation(containerNumber)</text><!--MD5=[c4c1f95cf25890b8d906953e22c853cc]
class WriteForAFile--><rect codeLine="14" fill="#FEFECE" filter="url(#fw08hummo55hb)" height="92.7539" id="WriteForAFile" style="stroke:#A80036;stroke-width:2.25;" width="409.5" x="10.5" y="538.5"/><ellipse cx="154.125" cy="562.5" fill="#ADD1B2" rx="16.5" ry="16.5" style="stroke:#A80036;stroke-width:1.5;"/><path d="M157.125,557.25 Q157.4297,556.5 157.7813,556.125 Q158.1328,555.75 158.5313,555.75 Q159.2344,555.75 159.6797,556.1719 Q160.125,556.5938 160.125,557.5781 L160.125,559.9219 Q160.125,560.9063 159.7031,561.3281 Q159.2813,561.75 158.625,561.75 Q158.0391,561.75 157.6641,561.4922 Q157.2891,561.2344 157.125,560.5547 Q157.0547,560.0859 156.7969,559.8281 Q156.3281,559.3359 155.4844,559.0547 Q154.6406,558.75 153.7969,558.75 Q152.7422,558.75 151.8516,559.1719 Q150.9844,559.5938 150.3047,560.5313 Q149.625,561.4688 149.625,562.7578 L149.625,564.1406 Q149.625,565.6875 150.8906,566.7188 Q152.1563,567.75 154.4063,567.75 Q155.7422,567.75 156.6797,567.4453 Q157.2188,567.2813 157.8281,566.7422 Q158.2266,566.4375 158.4375,566.3438 Q158.6484,566.25 158.9063,566.25 Q159.3984,566.25 159.75,566.6484 Q160.125,567.0234 160.125,567.5625 Q160.125,568.0781 159.6094,568.6875 Q158.8594,569.5781 157.6641,570.0703 Q156.0938,570.75 154.1719,570.75 Q151.9219,570.75 150.1172,569.8594 Q148.6641,569.1563 147.6328,567.6328 Q146.625,566.1094 146.625,564.3047 L146.625,562.6641 Q146.625,560.7891 147.5156,559.1484 Q148.4297,557.5078 150,556.6406 Q151.5938,555.75 153.375,555.75 Q154.4531,555.75 155.3906,556.125 Q156.3281,556.5 157.125,557.25 Z " fill="#000000"/><text fill="#000000" font-family="sans-serif" font-size="18" lengthAdjust="spacing" textLength="109.5" x="184.875" y="569.8652">WriteForAFile</text><line style="stroke:#A80036;stroke-width:2.25;" x1="12" x2="418.5" y1="586.5" y2="586.5"/><line style="stroke:#A80036;stroke-width:2.25;" x1="12" x2="418.5" y1="598.5" y2="598.5"/><rect fill="#F24D5C" height="9" style="stroke:#C82930;stroke-width:1.5;" width="9" x="22.5" y="610.5"/><text fill="#000000" font-family="sans-serif" font-size="16.5" lengthAdjust="spacing" textLength="370.5" x="40.5" y="621.6284">writeForAFile(containerLocation, fileName, filePath)</text><!--MD5=[e7e7c799483b35965cbdfcf3641bb0ff]
link FindContainerSituationUi to FindContainerSituationController--><path codeLine="19" d="M215.25,82.71 C215.25,106.065 215.25,137.295 215.25,163.83 " fill="none" id="FindContainerSituationUi-to-FindContainerSituationController" style="stroke:#A80036;stroke-width:1.5;stroke-dasharray:7.0,7.0;"/><polygon fill="#A80036" points="215.25,171.9,221.25,158.4,215.25,164.4,209.25,158.4,215.25,171.9" style="stroke:#A80036;stroke-width:1.5;"/><!--MD5=[d65d7cd9dfb8c51a7b554bf6d80accae]
link FindContainerSituationController to US204Handler--><path codeLine="20" d="M215.25,265.92 C215.25,290.655 215.25,321.39 215.25,347.235 " fill="none" id="FindContainerSituationController-to-US204Handler" style="stroke:#A80036;stroke-width:1.5;stroke-dasharray:7.0,7.0;"/><polygon fill="#A80036" points="215.25,355.095,221.25,341.595,215.25,347.595,209.25,341.595,215.25,355.095" style="stroke:#A80036;stroke-width:1.5;"/><!--MD5=[0ff87bc1307b4d1509c79921d47fe930]
link US204Handler to WriteForAFile--><path codeLine="21" d="M215.25,448.92 C215.25,473.655 215.25,504.39 215.25,530.235 " fill="none" id="US204Handler-to-WriteForAFile" style="stroke:#A80036;stroke-width:1.5;stroke-dasharray:7.0,7.0;"/><polygon fill="#A80036" points="215.25,538.095,221.25,524.595,215.25,530.595,209.25,524.595,215.25,538.095" style="stroke:#A80036;stroke-width:1.5;"/><!--MD5=[0d3a4cbc7a8de3cee80179ddf8f0d2a4]
@startuml
'https://plantuml.com/class-diagram

class FindContainerSituationUi {}

class FindContainerSituationController {
-getContainerLocation(containerNumber)

}

class US204Handler {
-getContainerLocation(containerNumber)
}

class WriteForAFile{
-writeForAFile(containerLocation, fileName, filePath)
}


FindContainerSituationUi ..> FindContainerSituationController
FindContainerSituationController ..> US204Handler
US204Handler ..> WriteForAFile
@enduml

@startuml

class FindContainerSituationUi {}

class FindContainerSituationController {
-getContainerLocation(containerNumber)

}

class US204Handler {
-getContainerLocation(containerNumber)
}

class WriteForAFile{
-writeForAFile(containerLocation, fileName, filePath)
}


FindContainerSituationUi ..> FindContainerSituationController
FindContainerSituationController ..> US204Handler
US204Handler ..> WriteForAFile
@enduml

PlantUML version 1.2021.5(Sun Apr 25 12:20:28 BST 2021)
(GPL source distribution)
Java Runtime: OpenJDK Runtime Environment
JVM: Dynamic Code Evolution 64-Bit Server VM
Default Encoding: Cp1252
Language: pt
Country: PT
--></g></svg>