<?xml version="1.0" encoding="UTF-8" standalone="no"?><svg xmlns="http://www.w3.org/2000/svg" xmlns:xlink="http://www.w3.org/1999/xlink" contentScriptType="application/ecmascript" contentStyleType="text/css" height="1770px" preserveAspectRatio="none" style="width:694px;height:1770px;" version="1.1" viewBox="0 0 694 1770" width="694.5px" zoomAndPan="magnify"><defs><filter height="300%" id="fixnbaxrpvwuu" width="300%" x="-1" y="-1"><feGaussianBlur result="blurOut" stdDeviation="3.0"/><feColorMatrix in="blurOut" result="blurOut2" type="matrix" values="0 0 0 0 0 0 0 0 0 0 0 0 0 0 0 0 0 0 .4 0"/><feOffset dx="6.0" dy="6.0" in="blurOut2" result="blurOut3"/><feBlend in="SourceGraphic" in2="blurOut3" mode="normal"/></filter></defs><g><!--MD5=[00cb7c785cdaffa52d46662a197e5092]
class GetTheMostEfficientCircuitUI--><rect codeLine="7" fill="#FEFECE" filter="url(#fixnbaxrpvwuu)" height="72" id="GetTheMostEfficientCircuitUI" style="stroke:#A80036;stroke-width:2.25;" width="282" x="69" y="10.5"/><ellipse cx="91.5" cy="34.5" fill="#ADD1B2" rx="16.5" ry="16.5" style="stroke:#A80036;stroke-width:1.5;"/><path d="M94.5,29.25 Q94.8047,28.5 95.1563,28.125 Q95.5078,27.75 95.9063,27.75 Q96.6094,27.75 97.0547,28.1719 Q97.5,28.5938 97.5,29.5781 L97.5,31.9219 Q97.5,32.9063 97.0781,33.3281 Q96.6563,33.75 96,33.75 Q95.4141,33.75 95.0391,33.4922 Q94.6641,33.2344 94.5,32.5547 Q94.4297,32.0859 94.1719,31.8281 Q93.7031,31.3359 92.8594,31.0547 Q92.0156,30.75 91.1719,30.75 Q90.1172,30.75 89.2266,31.1719 Q88.3594,31.5938 87.6797,32.5313 Q87,33.4688 87,34.7578 L87,36.1406 Q87,37.6875 88.2656,38.7188 Q89.5313,39.75 91.7813,39.75 Q93.1172,39.75 94.0547,39.4453 Q94.5938,39.2813 95.2031,38.7422 Q95.6016,38.4375 95.8125,38.3438 Q96.0234,38.25 96.2813,38.25 Q96.7734,38.25 97.125,38.6484 Q97.5,39.0234 97.5,39.5625 Q97.5,40.0781 96.9844,40.6875 Q96.2344,41.5781 95.0391,42.0703 Q93.4688,42.75 91.5469,42.75 Q89.2969,42.75 87.4922,41.8594 Q86.0391,41.1563 85.0078,39.6328 Q84,38.1094 84,36.3047 L84,34.6641 Q84,32.7891 84.8906,31.1484 Q85.8047,29.5078 87.375,28.6406 Q88.9688,27.75 90.75,27.75 Q91.8281,27.75 92.7656,28.125 Q93.7031,28.5 94.5,29.25 Z " fill="#000000"/><text fill="#000000" font-family="sans-serif" font-size="18" lengthAdjust="spacing" textLength="234" x="112.5" y="41.8652">GetTheMostEfficientCircuitUI</text><line style="stroke:#A80036;stroke-width:2.25;" x1="70.5" x2="349.5" y1="58.5" y2="58.5"/><line style="stroke:#A80036;stroke-width:2.25;" x1="70.5" x2="349.5" y1="70.5" y2="70.5"/><!--MD5=[1f3855779cd48a70137eab1e4c7558cf]
class GetTheMostEfficientCircuitController--><rect codeLine="9" fill="#FEFECE" filter="url(#fixnbaxrpvwuu)" height="92.7539" id="GetTheMostEfficientCircuitController" style="stroke:#A80036;stroke-width:2.25;" width="345" x="37.5" y="174"/><ellipse cx="60" cy="198" fill="#ADD1B2" rx="16.5" ry="16.5" style="stroke:#A80036;stroke-width:1.5;"/><path d="M63,192.75 Q63.3047,192 63.6563,191.625 Q64.0078,191.25 64.4063,191.25 Q65.1094,191.25 65.5547,191.6719 Q66,192.0938 66,193.0781 L66,195.4219 Q66,196.4063 65.5781,196.8281 Q65.1563,197.25 64.5,197.25 Q63.9141,197.25 63.5391,196.9922 Q63.1641,196.7344 63,196.0547 Q62.9297,195.5859 62.6719,195.3281 Q62.2031,194.8359 61.3594,194.5547 Q60.5156,194.25 59.6719,194.25 Q58.6172,194.25 57.7266,194.6719 Q56.8594,195.0938 56.1797,196.0313 Q55.5,196.9688 55.5,198.2578 L55.5,199.6406 Q55.5,201.1875 56.7656,202.2188 Q58.0313,203.25 60.2813,203.25 Q61.6172,203.25 62.5547,202.9453 Q63.0938,202.7813 63.7031,202.2422 Q64.1016,201.9375 64.3125,201.8438 Q64.5234,201.75 64.7813,201.75 Q65.2734,201.75 65.625,202.1484 Q66,202.5234 66,203.0625 Q66,203.5781 65.4844,204.1875 Q64.7344,205.0781 63.5391,205.5703 Q61.9688,206.25 60.0469,206.25 Q57.7969,206.25 55.9922,205.3594 Q54.5391,204.6563 53.5078,203.1328 Q52.5,201.6094 52.5,199.8047 L52.5,198.1641 Q52.5,196.2891 53.3906,194.6484 Q54.3047,193.0078 55.875,192.1406 Q57.4688,191.25 59.25,191.25 Q60.3281,191.25 61.2656,191.625 Q62.2031,192 63,192.75 Z " fill="#000000"/><text fill="#000000" font-family="sans-serif" font-size="18" lengthAdjust="spacing" textLength="297" x="81" y="205.3652">GetTheMostEfficientCircuitController</text><line style="stroke:#A80036;stroke-width:2.25;" x1="39" x2="381" y1="222" y2="222"/><line style="stroke:#A80036;stroke-width:2.25;" x1="39" x2="381" y1="234" y2="234"/><text fill="#000000" font-family="sans-serif" font-size="16.5" lengthAdjust="spacing" textLength="258" x="46.5" y="257.1284">-getTheMostEfficientCircuit(origem);</text><!--MD5=[02e4b9b7573f1156f41e60aa5b4e25a4]
class Company--><rect codeLine="13" fill="#FEFECE" filter="url(#fixnbaxrpvwuu)" height="113.5078" id="Company" style="stroke:#A80036;stroke-width:2.25;" width="169.5" x="42.75" y="358.5"/><ellipse cx="84.15" cy="382.5" fill="#ADD1B2" rx="16.5" ry="16.5" style="stroke:#A80036;stroke-width:1.5;"/><path d="M87.15,377.25 Q87.4547,376.5 87.8063,376.125 Q88.1578,375.75 88.5563,375.75 Q89.2594,375.75 89.7047,376.1719 Q90.15,376.5938 90.15,377.5781 L90.15,379.9219 Q90.15,380.9063 89.7281,381.3281 Q89.3063,381.75 88.65,381.75 Q88.0641,381.75 87.6891,381.4922 Q87.3141,381.2344 87.15,380.5547 Q87.0797,380.0859 86.8219,379.8281 Q86.3531,379.3359 85.5094,379.0547 Q84.6656,378.75 83.8219,378.75 Q82.7672,378.75 81.8766,379.1719 Q81.0094,379.5938 80.3297,380.5313 Q79.65,381.4688 79.65,382.7578 L79.65,384.1406 Q79.65,385.6875 80.9156,386.7188 Q82.1813,387.75 84.4313,387.75 Q85.7672,387.75 86.7047,387.4453 Q87.2438,387.2813 87.8531,386.7422 Q88.2516,386.4375 88.4625,386.3438 Q88.6734,386.25 88.9313,386.25 Q89.4234,386.25 89.775,386.6484 Q90.15,387.0234 90.15,387.5625 Q90.15,388.0781 89.6344,388.6875 Q88.8844,389.5781 87.6891,390.0703 Q86.1188,390.75 84.1969,390.75 Q81.9469,390.75 80.1422,389.8594 Q78.6891,389.1563 77.6578,387.6328 Q76.65,386.1094 76.65,384.3047 L76.65,382.6641 Q76.65,380.7891 77.5406,379.1484 Q78.4547,377.5078 80.025,376.6406 Q81.6188,375.75 83.4,375.75 Q84.4781,375.75 85.4156,376.125 Q86.3531,376.5 87.15,377.25 Z " fill="#000000"/><text fill="#000000" font-family="sans-serif" font-size="18" lengthAdjust="spacing" textLength="79.5" x="109.35" y="389.8652">Company</text><line style="stroke:#A80036;stroke-width:2.25;" x1="44.25" x2="210.75" y1="406.5" y2="406.5"/><text fill="#000000" font-family="sans-serif" font-size="16.5" lengthAdjust="spacing" textLength="88.5" x="51.75" y="429.6284">-designation</text><line style="stroke:#A80036;stroke-width:2.25;" x1="44.25" x2="210.75" y1="439.2539" y2="439.2539"/><text fill="#000000" font-family="sans-serif" font-size="16.5" lengthAdjust="spacing" textLength="151.5" x="51.75" y="462.3823">-getFreightNetwork()</text><!--MD5=[074ba6ad47b234bd73d65012320c1634]
class FreightNetwork--><rect codeLine="20" fill="#FEFECE" filter="url(#fixnbaxrpvwuu)" height="92.7539" id="FreightNetwork" style="stroke:#A80036;stroke-width:2.25;" width="274.5" x="155.25" y="589.5"/><ellipse cx="223.875" cy="613.5" fill="#ADD1B2" rx="16.5" ry="16.5" style="stroke:#A80036;stroke-width:1.5;"/><path d="M226.875,608.25 Q227.1797,607.5 227.5313,607.125 Q227.8828,606.75 228.2813,606.75 Q228.9844,606.75 229.4297,607.1719 Q229.875,607.5938 229.875,608.5781 L229.875,610.9219 Q229.875,611.9063 229.4531,612.3281 Q229.0313,612.75 228.375,612.75 Q227.7891,612.75 227.4141,612.4922 Q227.0391,612.2344 226.875,611.5547 Q226.8047,611.0859 226.5469,610.8281 Q226.0781,610.3359 225.2344,610.0547 Q224.3906,609.75 223.5469,609.75 Q222.4922,609.75 221.6016,610.1719 Q220.7344,610.5938 220.0547,611.5313 Q219.375,612.4688 219.375,613.7578 L219.375,615.1406 Q219.375,616.6875 220.6406,617.7188 Q221.9063,618.75 224.1563,618.75 Q225.4922,618.75 226.4297,618.4453 Q226.9688,618.2813 227.5781,617.7422 Q227.9766,617.4375 228.1875,617.3438 Q228.3984,617.25 228.6563,617.25 Q229.1484,617.25 229.5,617.6484 Q229.875,618.0234 229.875,618.5625 Q229.875,619.0781 229.3594,619.6875 Q228.6094,620.5781 227.4141,621.0703 Q225.8438,621.75 223.9219,621.75 Q221.6719,621.75 219.8672,620.8594 Q218.4141,620.1563 217.3828,618.6328 Q216.375,617.1094 216.375,615.3047 L216.375,613.6641 Q216.375,611.7891 217.2656,610.1484 Q218.1797,608.5078 219.75,607.6406 Q221.3438,606.75 223.125,606.75 Q224.2031,606.75 225.1406,607.125 Q226.0781,607.5 226.875,608.25 Z " fill="#000000"/><text fill="#000000" font-family="sans-serif" font-size="18" lengthAdjust="spacing" textLength="124.5" x="254.625" y="620.8652">FreightNetwork</text><line style="stroke:#A80036;stroke-width:2.25;" x1="156.75" x2="428.25" y1="637.5" y2="637.5"/><line style="stroke:#A80036;stroke-width:2.25;" x1="156.75" x2="428.25" y1="649.5" y2="649.5"/><text fill="#000000" font-family="sans-serif" font-size="16.5" lengthAdjust="spacing" textLength="256.5" x="164.25" y="672.6284">-mostEfficientCircuit(locationName);</text><!--MD5=[ea13aecf8df941b18fb8e3885c78c184]
class Ports--><rect codeLine="24" fill="#FEFECE" filter="url(#fixnbaxrpvwuu)" height="113.5078" id="Ports" style="stroke:#A80036;stroke-width:2.25;" width="114" x="18" y="1050.75"/><ellipse cx="50.625" cy="1074.75" fill="#ADD1B2" rx="16.5" ry="16.5" style="stroke:#A80036;stroke-width:1.5;"/><path d="M53.625,1069.5 Q53.9297,1068.75 54.2813,1068.375 Q54.6328,1068 55.0313,1068 Q55.7344,1068 56.1797,1068.4219 Q56.625,1068.8438 56.625,1069.8281 L56.625,1072.1719 Q56.625,1073.1563 56.2031,1073.5781 Q55.7813,1074 55.125,1074 Q54.5391,1074 54.1641,1073.7422 Q53.7891,1073.4844 53.625,1072.8047 Q53.5547,1072.3359 53.2969,1072.0781 Q52.8281,1071.5859 51.9844,1071.3047 Q51.1406,1071 50.2969,1071 Q49.2422,1071 48.3516,1071.4219 Q47.4844,1071.8438 46.8047,1072.7813 Q46.125,1073.7188 46.125,1075.0078 L46.125,1076.3906 Q46.125,1077.9375 47.3906,1078.9688 Q48.6563,1080 50.9063,1080 Q52.2422,1080 53.1797,1079.6953 Q53.7188,1079.5313 54.3281,1078.9922 Q54.7266,1078.6875 54.9375,1078.5938 Q55.1484,1078.5 55.4063,1078.5 Q55.8984,1078.5 56.25,1078.8984 Q56.625,1079.2734 56.625,1079.8125 Q56.625,1080.3281 56.1094,1080.9375 Q55.3594,1081.8281 54.1641,1082.3203 Q52.5938,1083 50.6719,1083 Q48.4219,1083 46.6172,1082.1094 Q45.1641,1081.4063 44.1328,1079.8828 Q43.125,1078.3594 43.125,1076.5547 L43.125,1074.9141 Q43.125,1073.0391 44.0156,1071.3984 Q44.9297,1069.7578 46.5,1068.8906 Q48.0938,1068 49.875,1068 Q50.9531,1068 51.8906,1068.375 Q52.8281,1068.75 53.625,1069.5 Z " fill="#000000"/><text fill="#000000" font-family="sans-serif" font-size="18" lengthAdjust="spacing" textLength="43.5" x="73.875" y="1082.1152">Ports</text><line style="stroke:#A80036;stroke-width:2.25;" x1="19.5" x2="130.5" y1="1098.75" y2="1098.75"/><text fill="#000000" font-family="sans-serif" font-size="16.5" lengthAdjust="spacing" textLength="96" x="27" y="1121.8784">-identification</text><text fill="#000000" font-family="sans-serif" font-size="16.5" lengthAdjust="spacing" textLength="45" x="27" y="1142.6323">-name</text><line style="stroke:#A80036;stroke-width:2.25;" x1="19.5" x2="130.5" y1="1152.2578" y2="1152.2578"/><!--MD5=[deb4e1f6eb1e3c1256fdb830f96abfbb]
class Country--><rect codeLine="30" fill="#FEFECE" filter="url(#fixnbaxrpvwuu)" height="113.5078" id="Country" style="stroke:#A80036;stroke-width:2.25;" width="111" x="211.5" y="1353.75"/><ellipse cx="234" cy="1377.75" fill="#ADD1B2" rx="16.5" ry="16.5" style="stroke:#A80036;stroke-width:1.5;"/><path d="M237,1372.5 Q237.3047,1371.75 237.6563,1371.375 Q238.0078,1371 238.4063,1371 Q239.1094,1371 239.5547,1371.4219 Q240,1371.8438 240,1372.8281 L240,1375.1719 Q240,1376.1563 239.5781,1376.5781 Q239.1563,1377 238.5,1377 Q237.9141,1377 237.5391,1376.7422 Q237.1641,1376.4844 237,1375.8047 Q236.9297,1375.3359 236.6719,1375.0781 Q236.2031,1374.5859 235.3594,1374.3047 Q234.5156,1374 233.6719,1374 Q232.6172,1374 231.7266,1374.4219 Q230.8594,1374.8438 230.1797,1375.7813 Q229.5,1376.7188 229.5,1378.0078 L229.5,1379.3906 Q229.5,1380.9375 230.7656,1381.9688 Q232.0313,1383 234.2813,1383 Q235.6172,1383 236.5547,1382.6953 Q237.0938,1382.5313 237.7031,1381.9922 Q238.1016,1381.6875 238.3125,1381.5938 Q238.5234,1381.5 238.7813,1381.5 Q239.2734,1381.5 239.625,1381.8984 Q240,1382.2734 240,1382.8125 Q240,1383.3281 239.4844,1383.9375 Q238.7344,1384.8281 237.5391,1385.3203 Q235.9688,1386 234.0469,1386 Q231.7969,1386 229.9922,1385.1094 Q228.5391,1384.4063 227.5078,1382.8828 Q226.5,1381.3594 226.5,1379.5547 L226.5,1377.9141 Q226.5,1376.0391 227.3906,1374.3984 Q228.3047,1372.7578 229.875,1371.8906 Q231.4688,1371 233.25,1371 Q234.3281,1371 235.2656,1371.375 Q236.2031,1371.75 237,1372.5 Z " fill="#000000"/><text fill="#000000" font-family="sans-serif" font-size="18" lengthAdjust="spacing" textLength="63" x="255" y="1385.1152">Country</text><line style="stroke:#A80036;stroke-width:2.25;" x1="213" x2="321" y1="1401.75" y2="1401.75"/><text fill="#000000" font-family="sans-serif" font-size="16.5" lengthAdjust="spacing" textLength="45" x="220.5" y="1424.8784">-name</text><text fill="#000000" font-family="sans-serif" font-size="16.5" lengthAdjust="spacing" textLength="72" x="220.5" y="1445.6323">-continent</text><line style="stroke:#A80036;stroke-width:2.25;" x1="213" x2="321" y1="1455.2578" y2="1455.2578"/><!--MD5=[9febfb2ff9adfe183e01ff702b9c1c02]
class PlaceLocation--><rect codeLine="35" fill="#FEFECE" filter="url(#fixnbaxrpvwuu)" height="113.5078" id="PlaceLocation" style="stroke:#A80036;stroke-width:2.25;" width="165" x="184.5" y="1050.75"/><ellipse cx="207" cy="1074.75" fill="#ADD1B2" rx="16.5" ry="16.5" style="stroke:#A80036;stroke-width:1.5;"/><path d="M210,1069.5 Q210.3047,1068.75 210.6563,1068.375 Q211.0078,1068 211.4063,1068 Q212.1094,1068 212.5547,1068.4219 Q213,1068.8438 213,1069.8281 L213,1072.1719 Q213,1073.1563 212.5781,1073.5781 Q212.1563,1074 211.5,1074 Q210.9141,1074 210.5391,1073.7422 Q210.1641,1073.4844 210,1072.8047 Q209.9297,1072.3359 209.6719,1072.0781 Q209.2031,1071.5859 208.3594,1071.3047 Q207.5156,1071 206.6719,1071 Q205.6172,1071 204.7266,1071.4219 Q203.8594,1071.8438 203.1797,1072.7813 Q202.5,1073.7188 202.5,1075.0078 L202.5,1076.3906 Q202.5,1077.9375 203.7656,1078.9688 Q205.0313,1080 207.2813,1080 Q208.6172,1080 209.5547,1079.6953 Q210.0938,1079.5313 210.7031,1078.9922 Q211.1016,1078.6875 211.3125,1078.5938 Q211.5234,1078.5 211.7813,1078.5 Q212.2734,1078.5 212.625,1078.8984 Q213,1079.2734 213,1079.8125 Q213,1080.3281 212.4844,1080.9375 Q211.7344,1081.8281 210.5391,1082.3203 Q208.9688,1083 207.0469,1083 Q204.7969,1083 202.9922,1082.1094 Q201.5391,1081.4063 200.5078,1079.8828 Q199.5,1078.3594 199.5,1076.5547 L199.5,1074.9141 Q199.5,1073.0391 200.3906,1071.3984 Q201.3047,1069.7578 202.875,1068.8906 Q204.4688,1068 206.25,1068 Q207.3281,1068 208.2656,1068.375 Q209.2031,1068.75 210,1069.5 Z " fill="#000000"/><text fill="#000000" font-family="sans-serif" font-size="18" lengthAdjust="spacing" textLength="117" x="228" y="1082.1152">PlaceLocation</text><line style="stroke:#A80036;stroke-width:2.25;" x1="186" x2="348" y1="1098.75" y2="1098.75"/><text fill="#000000" font-family="sans-serif" font-size="16.5" lengthAdjust="spacing" textLength="57" x="193.5" y="1121.8784">-latitude</text><text fill="#000000" font-family="sans-serif" font-size="16.5" lengthAdjust="spacing" textLength="70.5" x="193.5" y="1142.6323">-longitude</text><line style="stroke:#A80036;stroke-width:2.25;" x1="186" x2="348" y1="1152.2578" y2="1152.2578"/><!--MD5=[ea8f20dfdca176213da526d9b557babf]
class Capital--><rect codeLine="40" fill="#FEFECE" filter="url(#fixnbaxrpvwuu)" height="155.0156" id="Capital" style="stroke:#A80036;stroke-width:2.25;" width="106.5" x="402.75" y="1030.5"/><ellipse cx="425.25" cy="1054.5" fill="#ADD1B2" rx="16.5" ry="16.5" style="stroke:#A80036;stroke-width:1.5;"/><path d="M428.25,1049.25 Q428.5547,1048.5 428.9063,1048.125 Q429.2578,1047.75 429.6563,1047.75 Q430.3594,1047.75 430.8047,1048.1719 Q431.25,1048.5938 431.25,1049.5781 L431.25,1051.9219 Q431.25,1052.9063 430.8281,1053.3281 Q430.4063,1053.75 429.75,1053.75 Q429.1641,1053.75 428.7891,1053.4922 Q428.4141,1053.2344 428.25,1052.5547 Q428.1797,1052.0859 427.9219,1051.8281 Q427.4531,1051.3359 426.6094,1051.0547 Q425.7656,1050.75 424.9219,1050.75 Q423.8672,1050.75 422.9766,1051.1719 Q422.1094,1051.5938 421.4297,1052.5313 Q420.75,1053.4688 420.75,1054.7578 L420.75,1056.1406 Q420.75,1057.6875 422.0156,1058.7188 Q423.2813,1059.75 425.5313,1059.75 Q426.8672,1059.75 427.8047,1059.4453 Q428.3438,1059.2813 428.9531,1058.7422 Q429.3516,1058.4375 429.5625,1058.3438 Q429.7734,1058.25 430.0313,1058.25 Q430.5234,1058.25 430.875,1058.6484 Q431.25,1059.0234 431.25,1059.5625 Q431.25,1060.0781 430.7344,1060.6875 Q429.9844,1061.5781 428.7891,1062.0703 Q427.2188,1062.75 425.2969,1062.75 Q423.0469,1062.75 421.2422,1061.8594 Q419.7891,1061.1563 418.7578,1059.6328 Q417.75,1058.1094 417.75,1056.3047 L417.75,1054.6641 Q417.75,1052.7891 418.6406,1051.1484 Q419.5547,1049.5078 421.125,1048.6406 Q422.7188,1047.75 424.5,1047.75 Q425.5781,1047.75 426.5156,1048.125 Q427.4531,1048.5 428.25,1049.25 Z " fill="#000000"/><text fill="#000000" font-family="sans-serif" font-size="18" lengthAdjust="spacing" textLength="58.5" x="446.25" y="1061.8652">Capital</text><line style="stroke:#A80036;stroke-width:2.25;" x1="404.25" x2="507.75" y1="1078.5" y2="1078.5"/><text fill="#000000" font-family="sans-serif" font-size="16.5" lengthAdjust="spacing" textLength="45" x="411.75" y="1101.6284">-name</text><text fill="#000000" font-family="sans-serif" font-size="16.5" lengthAdjust="spacing" textLength="61.5" x="411.75" y="1122.3823">-country</text><text fill="#000000" font-family="sans-serif" font-size="16.5" lengthAdjust="spacing" textLength="57" x="411.75" y="1143.1362">-latitude</text><text fill="#000000" font-family="sans-serif" font-size="16.5" lengthAdjust="spacing" textLength="70.5" x="411.75" y="1163.8901">-longitude</text><line style="stroke:#A80036;stroke-width:2.25;" x1="404.25" x2="507.75" y1="1173.5156" y2="1173.5156"/><!--MD5=[8515a37c80da559ff7ce07f8a9e75d30]
class Place--><rect codeLine="47" fill="#FEFECE" filter="url(#fixnbaxrpvwuu)" height="72" id="Place" style="stroke:#A80036;stroke-width:2.25;" width="94.5" x="228.75" y="820.5"/><ellipse cx="251.25" cy="844.5" fill="#ADD1B2" rx="16.5" ry="16.5" style="stroke:#A80036;stroke-width:1.5;"/><path d="M254.25,839.25 Q254.5547,838.5 254.9063,838.125 Q255.2578,837.75 255.6563,837.75 Q256.3594,837.75 256.8047,838.1719 Q257.25,838.5938 257.25,839.5781 L257.25,841.9219 Q257.25,842.9063 256.8281,843.3281 Q256.4063,843.75 255.75,843.75 Q255.1641,843.75 254.7891,843.4922 Q254.4141,843.2344 254.25,842.5547 Q254.1797,842.0859 253.9219,841.8281 Q253.4531,841.3359 252.6094,841.0547 Q251.7656,840.75 250.9219,840.75 Q249.8672,840.75 248.9766,841.1719 Q248.1094,841.5938 247.4297,842.5313 Q246.75,843.4688 246.75,844.7578 L246.75,846.1406 Q246.75,847.6875 248.0156,848.7188 Q249.2813,849.75 251.5313,849.75 Q252.8672,849.75 253.8047,849.4453 Q254.3438,849.2813 254.9531,848.7422 Q255.3516,848.4375 255.5625,848.3438 Q255.7734,848.25 256.0313,848.25 Q256.5234,848.25 256.875,848.6484 Q257.25,849.0234 257.25,849.5625 Q257.25,850.0781 256.7344,850.6875 Q255.9844,851.5781 254.7891,852.0703 Q253.2188,852.75 251.2969,852.75 Q249.0469,852.75 247.2422,851.8594 Q245.7891,851.1563 244.7578,849.6328 Q243.75,848.1094 243.75,846.3047 L243.75,844.6641 Q243.75,842.7891 244.6406,841.1484 Q245.5547,839.5078 247.125,838.6406 Q248.7188,837.75 250.5,837.75 Q251.5781,837.75 252.5156,838.125 Q253.4531,838.5 254.25,839.25 Z " fill="#000000"/><text fill="#000000" font-family="sans-serif" font-size="18" lengthAdjust="spacing" textLength="46.5" x="272.25" y="851.8652">Place</text><line style="stroke:#A80036;stroke-width:2.25;" x1="230.25" x2="321.75" y1="868.5" y2="868.5"/><line style="stroke:#A80036;stroke-width:2.25;" x1="230.25" x2="321.75" y1="880.5" y2="880.5"/><!--MD5=[a0336aaa8110b78d9cacadb9d45e00a3]
class Border--><rect codeLine="51" fill="#FEFECE" filter="url(#fixnbaxrpvwuu)" height="113.5078" id="Border" style="stroke:#A80036;stroke-width:2.25;" width="129" x="202.5" y="1636.5"/><ellipse cx="236.475" cy="1660.5" fill="#ADD1B2" rx="16.5" ry="16.5" style="stroke:#A80036;stroke-width:1.5;"/><path d="M239.475,1655.25 Q239.7797,1654.5 240.1313,1654.125 Q240.4828,1653.75 240.8813,1653.75 Q241.5844,1653.75 242.0297,1654.1719 Q242.475,1654.5938 242.475,1655.5781 L242.475,1657.9219 Q242.475,1658.9063 242.0531,1659.3281 Q241.6313,1659.75 240.975,1659.75 Q240.3891,1659.75 240.0141,1659.4922 Q239.6391,1659.2344 239.475,1658.5547 Q239.4047,1658.0859 239.1469,1657.8281 Q238.6781,1657.3359 237.8344,1657.0547 Q236.9906,1656.75 236.1469,1656.75 Q235.0922,1656.75 234.2016,1657.1719 Q233.3344,1657.5938 232.6547,1658.5313 Q231.975,1659.4688 231.975,1660.7578 L231.975,1662.1406 Q231.975,1663.6875 233.2406,1664.7188 Q234.5063,1665.75 236.7563,1665.75 Q238.0922,1665.75 239.0297,1665.4453 Q239.5688,1665.2813 240.1781,1664.7422 Q240.5766,1664.4375 240.7875,1664.3438 Q240.9984,1664.25 241.2563,1664.25 Q241.7484,1664.25 242.1,1664.6484 Q242.475,1665.0234 242.475,1665.5625 Q242.475,1666.0781 241.9594,1666.6875 Q241.2094,1667.5781 240.0141,1668.0703 Q238.4438,1668.75 236.5219,1668.75 Q234.2719,1668.75 232.4672,1667.8594 Q231.0141,1667.1563 229.9828,1665.6328 Q228.975,1664.1094 228.975,1662.3047 L228.975,1660.6641 Q228.975,1658.7891 229.8656,1657.1484 Q230.7797,1655.5078 232.35,1654.6406 Q233.9438,1653.75 235.725,1653.75 Q236.8031,1653.75 237.7406,1654.125 Q238.6781,1654.5 239.475,1655.25 Z " fill="#000000"/><text fill="#000000" font-family="sans-serif" font-size="18" lengthAdjust="spacing" textLength="55.5" x="260.025" y="1667.8652">Border</text><line style="stroke:#A80036;stroke-width:2.25;" x1="204" x2="330" y1="1684.5" y2="1684.5"/><text fill="#000000" font-family="sans-serif" font-size="16.5" lengthAdjust="spacing" textLength="111" x="211.5" y="1707.6284">-countryName1</text><text fill="#000000" font-family="sans-serif" font-size="16.5" lengthAdjust="spacing" textLength="111" x="211.5" y="1728.3823">-countryName2</text><line style="stroke:#A80036;stroke-width:2.25;" x1="204" x2="330" y1="1738.0078" y2="1738.0078"/><!--MD5=[e24af10a0367b93d82d6bdd24a6ec764]
class Seadist--><rect codeLine="56" fill="#FEFECE" filter="url(#fixnbaxrpvwuu)" height="217.2773" id="Seadist" style="stroke:#A80036;stroke-width:2.25;" width="129" x="10.5" y="1302"/><ellipse cx="41.1" cy="1326" fill="#ADD1B2" rx="16.5" ry="16.5" style="stroke:#A80036;stroke-width:1.5;"/><path d="M44.1,1320.75 Q44.4047,1320 44.7562,1319.625 Q45.1078,1319.25 45.5062,1319.25 Q46.2094,1319.25 46.6547,1319.6719 Q47.1,1320.0938 47.1,1321.0781 L47.1,1323.4219 Q47.1,1324.4063 46.6781,1324.8281 Q46.2562,1325.25 45.6,1325.25 Q45.0141,1325.25 44.6391,1324.9922 Q44.2641,1324.7344 44.1,1324.0547 Q44.0297,1323.5859 43.7719,1323.3281 Q43.3031,1322.8359 42.4594,1322.5547 Q41.6156,1322.25 40.7719,1322.25 Q39.7172,1322.25 38.8266,1322.6719 Q37.9594,1323.0938 37.2797,1324.0313 Q36.6,1324.9688 36.6,1326.2578 L36.6,1327.6406 Q36.6,1329.1875 37.8656,1330.2188 Q39.1312,1331.25 41.3812,1331.25 Q42.7172,1331.25 43.6547,1330.9453 Q44.1937,1330.7813 44.8031,1330.2422 Q45.2016,1329.9375 45.4125,1329.8438 Q45.6234,1329.75 45.8812,1329.75 Q46.3734,1329.75 46.725,1330.1484 Q47.1,1330.5234 47.1,1331.0625 Q47.1,1331.5781 46.5844,1332.1875 Q45.8344,1333.0781 44.6391,1333.5703 Q43.0687,1334.25 41.1469,1334.25 Q38.8969,1334.25 37.0922,1333.3594 Q35.6391,1332.6563 34.6078,1331.1328 Q33.6,1329.6094 33.6,1327.8047 L33.6,1326.1641 Q33.6,1324.2891 34.4906,1322.6484 Q35.4047,1321.0078 36.975,1320.1406 Q38.5687,1319.25 40.35,1319.25 Q41.4281,1319.25 42.3656,1319.625 Q43.3031,1320 44.1,1320.75 Z " fill="#000000"/><text fill="#000000" font-family="sans-serif" font-size="18" lengthAdjust="spacing" textLength="63" x="63.9" y="1333.3652">Seadist</text><line style="stroke:#A80036;stroke-width:2.25;" x1="12" x2="138" y1="1350" y2="1350"/><text fill="#000000" font-family="sans-serif" font-size="16.5" lengthAdjust="spacing" textLength="55.5" x="19.5" y="1373.1284">-portId1</text><text fill="#000000" font-family="sans-serif" font-size="16.5" lengthAdjust="spacing" textLength="55.5" x="19.5" y="1393.8823">-portId2</text><text fill="#000000" font-family="sans-serif" font-size="16.5" lengthAdjust="spacing" textLength="96" x="19.5" y="1414.6362">-seaDistance</text><text fill="#000000" font-family="sans-serif" font-size="16.5" lengthAdjust="spacing" textLength="84" x="19.5" y="1435.3901">-portName1</text><text fill="#000000" font-family="sans-serif" font-size="16.5" lengthAdjust="spacing" textLength="84" x="19.5" y="1456.144">-portName2</text><text fill="#000000" font-family="sans-serif" font-size="16.5" lengthAdjust="spacing" textLength="111" x="19.5" y="1476.8979">-countryName1</text><text fill="#000000" font-family="sans-serif" font-size="16.5" lengthAdjust="spacing" textLength="111" x="19.5" y="1497.6519">-countryName2</text><line style="stroke:#A80036;stroke-width:2.25;" x1="12" x2="138" y1="1507.2773" y2="1507.2773"/><!--MD5=[305bcb7b78fcb9f22634b78a6e830e55]
class AdjacencyMatrixGraph--><rect codeLine="66" fill="#FEFECE" filter="url(#fixnbaxrpvwuu)" height="113.5078" id="AdjacencyMatrixGraph" style="stroke:#A80036;stroke-width:2.25;" width="228" x="444" y="799.5"/><ellipse cx="466.5" cy="823.5" fill="#ADD1B2" rx="16.5" ry="16.5" style="stroke:#A80036;stroke-width:1.5;"/><path d="M469.5,818.25 Q469.8047,817.5 470.1563,817.125 Q470.5078,816.75 470.9063,816.75 Q471.6094,816.75 472.0547,817.1719 Q472.5,817.5938 472.5,818.5781 L472.5,820.9219 Q472.5,821.9063 472.0781,822.3281 Q471.6563,822.75 471,822.75 Q470.4141,822.75 470.0391,822.4922 Q469.6641,822.2344 469.5,821.5547 Q469.4297,821.0859 469.1719,820.8281 Q468.7031,820.3359 467.8594,820.0547 Q467.0156,819.75 466.1719,819.75 Q465.1172,819.75 464.2266,820.1719 Q463.3594,820.5938 462.6797,821.5313 Q462,822.4688 462,823.7578 L462,825.1406 Q462,826.6875 463.2656,827.7188 Q464.5313,828.75 466.7813,828.75 Q468.1172,828.75 469.0547,828.4453 Q469.5938,828.2813 470.2031,827.7422 Q470.6016,827.4375 470.8125,827.3438 Q471.0234,827.25 471.2813,827.25 Q471.7734,827.25 472.125,827.6484 Q472.5,828.0234 472.5,828.5625 Q472.5,829.0781 471.9844,829.6875 Q471.2344,830.5781 470.0391,831.0703 Q468.4688,831.75 466.5469,831.75 Q464.2969,831.75 462.4922,830.8594 Q461.0391,830.1563 460.0078,828.6328 Q459,827.1094 459,825.3047 L459,823.6641 Q459,821.7891 459.8906,820.1484 Q460.8047,818.5078 462.375,817.6406 Q463.9688,816.75 465.75,816.75 Q466.8281,816.75 467.7656,817.125 Q468.7031,817.5 469.5,818.25 Z " fill="#000000"/><text fill="#000000" font-family="sans-serif" font-size="18" lengthAdjust="spacing" textLength="180" x="487.5" y="830.8652">AdjacencyMatrixGraph</text><line style="stroke:#A80036;stroke-width:2.25;" x1="445.5" x2="670.5" y1="847.5" y2="847.5"/><line style="stroke:#A80036;stroke-width:2.25;" x1="445.5" x2="670.5" y1="859.5" y2="859.5"/><text fill="#000000" font-family="sans-serif" font-size="16.5" lengthAdjust="spacing" textLength="108" x="453" y="882.6284">-adjVertices(i);</text><text fill="#000000" font-family="sans-serif" font-size="16.5" lengthAdjust="spacing" textLength="189" x="453" y="903.3823">-edge(localAtual,location);</text><!--MD5=[2e2f8c8f62c4eb3bc59a59727cfd81a5]
class Edge--><rect codeLine="71" fill="#FEFECE" filter="url(#fixnbaxrpvwuu)" height="92.7539" id="Edge" style="stroke:#A80036;stroke-width:2.25;" width="112.5" x="561.75" y="1061.25"/><ellipse cx="593.7" cy="1085.25" fill="#ADD1B2" rx="16.5" ry="16.5" style="stroke:#A80036;stroke-width:1.5;"/><path d="M596.7,1080 Q597.0047,1079.25 597.3563,1078.875 Q597.7078,1078.5 598.1063,1078.5 Q598.8094,1078.5 599.2547,1078.9219 Q599.7,1079.3438 599.7,1080.3281 L599.7,1082.6719 Q599.7,1083.6563 599.2781,1084.0781 Q598.8563,1084.5 598.2,1084.5 Q597.6141,1084.5 597.2391,1084.2422 Q596.8641,1083.9844 596.7,1083.3047 Q596.6297,1082.8359 596.3719,1082.5781 Q595.9031,1082.0859 595.0594,1081.8047 Q594.2156,1081.5 593.3719,1081.5 Q592.3172,1081.5 591.4266,1081.9219 Q590.5594,1082.3438 589.8797,1083.2813 Q589.2,1084.2188 589.2,1085.5078 L589.2,1086.8906 Q589.2,1088.4375 590.4656,1089.4688 Q591.7313,1090.5 593.9813,1090.5 Q595.3172,1090.5 596.2547,1090.1953 Q596.7938,1090.0313 597.4031,1089.4922 Q597.8016,1089.1875 598.0125,1089.0938 Q598.2234,1089 598.4813,1089 Q598.9734,1089 599.325,1089.3984 Q599.7,1089.7734 599.7,1090.3125 Q599.7,1090.8281 599.1844,1091.4375 Q598.4344,1092.3281 597.2391,1092.8203 Q595.6688,1093.5 593.7469,1093.5 Q591.4969,1093.5 589.6922,1092.6094 Q588.2391,1091.9063 587.2078,1090.3828 Q586.2,1088.8594 586.2,1087.0547 L586.2,1085.4141 Q586.2,1083.5391 587.0906,1081.8984 Q588.0047,1080.2578 589.575,1079.3906 Q591.1688,1078.5 592.95,1078.5 Q594.0281,1078.5 594.9656,1078.875 Q595.9031,1079.25 596.7,1080 Z " fill="#000000"/><text fill="#000000" font-family="sans-serif" font-size="18" lengthAdjust="spacing" textLength="43.5" x="616.8" y="1092.6152">Edge</text><line style="stroke:#A80036;stroke-width:2.25;" x1="563.25" x2="672.75" y1="1109.25" y2="1109.25"/><line style="stroke:#A80036;stroke-width:2.25;" x1="563.25" x2="672.75" y1="1121.25" y2="1121.25"/><text fill="#000000" font-family="sans-serif" font-size="16.5" lengthAdjust="spacing" textLength="94.5" x="570.75" y="1144.3784">-getWeight();</text><!--MD5=[0d616f850eaea072f5c2c3955ba98eeb]
link GetTheMostEfficientCircuitUI to GetTheMostEfficientCircuitController--><path codeLine="76" d="M210,82.605 C210,106.515 210,138.765 210,165.9 " fill="none" id="GetTheMostEfficientCircuitUI-to-GetTheMostEfficientCircuitController" style="stroke:#A80036;stroke-width:1.5;stroke-dasharray:7.0,7.0;"/><polygon fill="#A80036" points="210,173.415,216,159.915,210,165.915,204,159.915,210,173.415" style="stroke:#A80036;stroke-width:1.5;"/><!--MD5=[43826736c4e581f4a1da4f0bf657ae65]
link GetTheMostEfficientCircuitController to Company--><path codeLine="78" d="M190.65,267.015 C179.85,292.155 166.23,323.85 154.41,351.375 " fill="none" id="GetTheMostEfficientCircuitController-to-Company" style="stroke:#A80036;stroke-width:1.5;stroke-dasharray:7.0,7.0;"/><polygon fill="#A80036" points="151.44,358.275,162.2841,348.2423,154.4022,351.3847,151.2597,343.5028,151.44,358.275" style="stroke:#A80036;stroke-width:1.5;"/><!--MD5=[e6d2fdd48439e24a5b6adc23a5ebbbfc]
link GetTheMostEfficientCircuitController to FreightNetwork--><path codeLine="79" d="M219.645,267.465 C225.24,294 232.365,328.125 238.5,358.5 C254.13,435.81 271.545,525.465 282.255,581.085 " fill="none" id="GetTheMostEfficientCircuitController-to-FreightNetwork" style="stroke:#A80036;stroke-width:1.5;stroke-dasharray:7.0,7.0;"/><polygon fill="#A80036" points="283.785,589.05,287.1338,574.6613,282.3718,581.6843,275.3488,576.9224,283.785,589.05" style="stroke:#A80036;stroke-width:1.5;"/><!--MD5=[e359b474b5bea3d5e0a05d5f38acf6c5]
link Company to FreightNetwork--><path codeLine="81" d="M150.3,472.98 C161.145,496.26 175.395,522.855 192,544.5 C204.255,560.475 219.63,575.88 234.63,589.29 " fill="none" id="Company-FreightNetwork" style="stroke:#A80036;stroke-width:1.5;"/><polygon fill="#000000" points="203.9024,537.3356,199.5074,523.7637,192.3694,528.939,203.9024,537.3356" style="stroke:#000000;stroke-width:1.5;"/><text fill="#000000" font-family="sans-serif" font-size="19.5" lengthAdjust="spacing" textLength="39" x="213" y="539.2427">have</text><text fill="#000000" font-family="sans-serif" font-size="19.5" lengthAdjust="spacing" textLength="10.5" x="142.597" y="504.3773">1</text><text fill="#000000" font-family="sans-serif" font-size="19.5" lengthAdjust="spacing" textLength="10.5" x="211.1115" y="573.5035">1</text><!--MD5=[c8e8e510b3d61337403bff1e4f9e7277]
link FreightNetwork to AdjacencyMatrixGraph--><path codeLine="82" d="M347.505,682.56 C386.895,714.825 440.355,758.625 483.555,794.01 " fill="none" id="FreightNetwork-to-AdjacencyMatrixGraph" style="stroke:#A80036;stroke-width:1.5;stroke-dasharray:7.0,7.0;"/><polygon fill="#A80036" points="489.84,799.17,483.199,785.9735,484.0382,794.4172,475.5945,795.2564,489.84,799.17" style="stroke:#A80036;stroke-width:1.5;"/><!--MD5=[5957790c5297b9f6d5589f6d219daa42]
link AdjacencyMatrixGraph to Edge--><path codeLine="83" d="M571.47,913.71 C581.58,955.56 595.35,1012.515 605.28,1053.6 " fill="none" id="AdjacencyMatrixGraph-to-Edge" style="stroke:#A80036;stroke-width:1.5;stroke-dasharray:7.0,7.0;"/><polygon fill="#A80036" points="607.08,1061.085,609.7476,1046.5546,605.3216,1053.794,598.0821,1049.368,607.08,1061.085" style="stroke:#A80036;stroke-width:1.5;"/><!--MD5=[3d97e7a8068d9b0a6bb8fcf7dc76451d]
link Company to Ports--><path codeLine="84" d="M123.255,472.815 C113.4,602.13 89.115,921.045 79.26,1050.39 " fill="none" id="Company-Ports" style="stroke:#A80036;stroke-width:1.5;"/><polygon fill="#000000" points="111.9304,748.742,117.3565,735.5484,108.5652,734.8787,111.9304,748.742" style="stroke:#000000;stroke-width:1.5;"/><text fill="#000000" font-family="sans-serif" font-size="19.5" lengthAdjust="spacing" textLength="39" x="126" y="749.2427">have</text><text fill="#000000" font-family="sans-serif" font-size="19.5" lengthAdjust="spacing" textLength="10.5" x="111.2417" y="504.186">1</text><text fill="#000000" font-family="sans-serif" font-size="19.5" lengthAdjust="spacing" textLength="30" x="47.3469" y="1034.3687">1..*</text><!--MD5=[6d3d45a2319404bb3e06b58881af6b0d]
link Ports to Seadist--><path codeLine="86" d="M75,1164.975 C75,1203.27 75,1255.35 75,1301.595 " fill="none" id="Ports-Seadist" style="stroke:#A80036;stroke-width:1.5;"/><text fill="#000000" font-family="sans-serif" font-size="19.5" lengthAdjust="spacing" textLength="48" x="76.5" y="1251.7427">has a</text><text fill="#000000" font-family="sans-serif" font-size="19.5" lengthAdjust="spacing" textLength="10.5" x="63.6633" y="1196.3317">2</text><text fill="#000000" font-family="sans-serif" font-size="19.5" lengthAdjust="spacing" textLength="7.5" x="67.1133" y="1285.3822">*</text><!--MD5=[fa4d65f953ae0f8f2ca1213e61726aa9]
link FreightNetwork to Place--><path codeLine="87" d="M289.08,682.56 C285.99,723.375 281.49,782.67 278.655,820.005 " fill="none" id="FreightNetwork-Place" style="stroke:#A80036;stroke-width:1.5;"/><text fill="#000000" font-family="sans-serif" font-size="19.5" lengthAdjust="spacing" textLength="99" x="288" y="749.2427">related with</text><text fill="#000000" font-family="sans-serif" font-size="19.5" lengthAdjust="spacing" textLength="10.5" x="276.8731" y="714.4078">1</text><text fill="#000000" font-family="sans-serif" font-size="19.5" lengthAdjust="spacing" textLength="30" x="245.6459" y="804.4913">1..*</text><!--MD5=[8019f7a40ce5be359cb5778b910e4989]
reverse link Place to Capital--><path codeLine="88" d="M347.13,909.99 C363.645,924.39 380.145,940.935 393,958.5 C408.735,979.98 421.5,1006.005 431.31,1030.185 " fill="none" id="Place-backto-Capital" style="stroke:#A80036;stroke-width:1.5;"/><polygon fill="none" points="339.915,917.67,323.325,890.565,353.205,901.395,339.915,917.67" style="stroke:#A80036;stroke-width:1.5;"/><!--MD5=[c549efd5903bd57ae8426884da365cce]
reverse link Place to Ports--><path codeLine="89" d="M228.72,916.395 C195.885,956.94 152.415,1010.625 120.09,1050.57 " fill="none" id="Place-backto-Ports" style="stroke:#A80036;stroke-width:1.5;"/><polygon fill="none" points="221.01,909.225,248.055,892.515,237.33,922.44,221.01,909.225" style="stroke:#A80036;stroke-width:1.5;"/><!--MD5=[553c71e238892de64676e9482c62727a]
link Country to Border--><path codeLine="90" d="M267,1468.185 C267,1516.98 267,1587.39 267,1636.155 " fill="none" id="Country-Border" style="stroke:#A80036;stroke-width:1.5;"/><text fill="#000000" font-family="sans-serif" font-size="19.5" lengthAdjust="spacing" textLength="48" x="268.5" y="1586.2427">has a</text><text fill="#000000" font-family="sans-serif" font-size="19.5" lengthAdjust="spacing" textLength="10.5" x="255.6633" y="1499.5751">2</text><text fill="#000000" font-family="sans-serif" font-size="19.5" lengthAdjust="spacing" textLength="7.5" x="258.832" y="1620.1364">*</text><!--MD5=[3d04185e7085eaaeba7ebd93b9963be0]
link PlaceLocation to Country--><path codeLine="91" d="M267,1164.975 C267,1218.69 267,1299.525 267,1353.315 " fill="none" id="PlaceLocation-Country" style="stroke:#A80036;stroke-width:1.5;"/><polygon fill="#000000" points="274.5,1251.2637,278.9084,1237.696,270.0916,1237.696,274.5,1251.2637" style="stroke:#000000;stroke-width:1.5;"/><text fill="#000000" font-family="sans-serif" font-size="19.5" lengthAdjust="spacing" textLength="78" x="288" y="1251.7427">placed in</text><text fill="#000000" font-family="sans-serif" font-size="19.5" lengthAdjust="spacing" textLength="7.5" x="258.9023" y="1196.3317">*</text><text fill="#000000" font-family="sans-serif" font-size="19.5" lengthAdjust="spacing" textLength="10.5" x="255.5648" y="1337.2804">1</text><!--MD5=[3f90a4e0e12e19ee6f3a457d358ba219]
link Place to PlaceLocation--><path codeLine="92" d="M274.755,892.515 C273.27,933.42 270.78,1002.12 269.025,1050.57 " fill="none" id="Place-PlaceLocation" style="stroke:#A80036;stroke-width:1.5;"/><polygon fill="#000000" points="280.2283,979.7587,285.1253,966.3597,276.3143,966.0403,280.2283,979.7587" style="stroke:#000000;stroke-width:1.5;"/><text fill="#000000" font-family="sans-serif" font-size="19.5" lengthAdjust="spacing" textLength="85.5" x="294" y="980.2427">located at</text><text fill="#000000" font-family="sans-serif" font-size="19.5" lengthAdjust="spacing" textLength="10.5" x="262.6718" y="924.5256">1</text><text fill="#000000" font-family="sans-serif" font-size="19.5" lengthAdjust="spacing" textLength="10.5" x="257.9505" y="1034.5808">1</text><!--MD5=[117e1237c0d28875d9dce612503853b8]
@startuml
'https://plantuml.com/class-diagram

skinparam classAttributeIconSize 0



class GetTheMostEfficientCircuitUI  {}

class GetTheMostEfficientCircuitController {
-getTheMostEfficientCircuit(origem);
}

class Company {
-designation
-getFreightNetwork()
}



class FreightNetwork {
-mostEfficientCircuit(locationName);
}

class Ports {
-identification
-name
}


class Country {
-name
-continent
}

class PlaceLocation {
-latitude
-longitude
}

class Capital{
-name
-country
-latitude
-longitude
}

class Place {

}

class Border {
-countryName1
-countryName2
}

class Seadist {
-portId1
-portId2
-seaDistance
-portName1
-portName2
-countryName1
-countryName2
}

class AdjacencyMatrixGraph {
-adjVertices(i);
-edge(localAtual,location);
}

class Edge {
-getWeight();
}


GetTheMostEfficientCircuitUI  ..> GetTheMostEfficientCircuitController

GetTheMostEfficientCircuitController ..> Company
GetTheMostEfficientCircuitController ..> FreightNetwork

Company "1"- -"1" FreightNetwork: have >
FreightNetwork ..> AdjacencyMatrixGraph
AdjacencyMatrixGraph ..> Edge
Company "1"- -"1..*" Ports: have >

Ports "2"- -"*" Seadist: has a
FreightNetwork "1" - - "1..*" Place : related with
Place <|- - Capital
Place <|- - Ports
Country "2" - - "*" Border : has a
PlaceLocation "*" - - "1" Country : placed in >
Place "1" - - "1" PlaceLocation : located at >


@enduml

@startuml

skinparam classAttributeIconSize 0



class GetTheMostEfficientCircuitUI  {}

class GetTheMostEfficientCircuitController {
-getTheMostEfficientCircuit(origem);
}

class Company {
-designation
-getFreightNetwork()
}



class FreightNetwork {
-mostEfficientCircuit(locationName);
}

class Ports {
-identification
-name
}


class Country {
-name
-continent
}

class PlaceLocation {
-latitude
-longitude
}

class Capital{
-name
-country
-latitude
-longitude
}

class Place {

}

class Border {
-countryName1
-countryName2
}

class Seadist {
-portId1
-portId2
-seaDistance
-portName1
-portName2
-countryName1
-countryName2
}

class AdjacencyMatrixGraph {
-adjVertices(i);
-edge(localAtual,location);
}

class Edge {
-getWeight();
}


GetTheMostEfficientCircuitUI  ..> GetTheMostEfficientCircuitController

GetTheMostEfficientCircuitController ..> Company
GetTheMostEfficientCircuitController ..> FreightNetwork

Company "1"- -"1" FreightNetwork: have >
FreightNetwork ..> AdjacencyMatrixGraph
AdjacencyMatrixGraph ..> Edge
Company "1"- -"1..*" Ports: have >

Ports "2"- -"*" Seadist: has a
FreightNetwork "1" - - "1..*" Place : related with
Place <|- - Capital
Place <|- - Ports
Country "2" - - "*" Border : has a
PlaceLocation "*" - - "1" Country : placed in >
Place "1" - - "1" PlaceLocation : located at >


@enduml

PlantUML version 1.2021.5(Sun Apr 25 12:20:28 BST 2021)
(GPL source distribution)
Java Runtime: OpenJDK Runtime Environment
JVM: Dynamic Code Evolution 64-Bit Server VM
Default Encoding: Cp1252
Language: pt
Country: PT
--></g></svg>