<?xml version="1.0" encoding="UTF-8" standalone="no"?><svg xmlns="http://www.w3.org/2000/svg" xmlns:xlink="http://www.w3.org/1999/xlink" contentScriptType="application/ecmascript" contentStyleType="text/css" height="840px" preserveAspectRatio="none" style="width:331px;height:840px;background:#FFFFFF;" version="1.1" viewBox="0 0 331 840" width="331px" zoomAndPan="magnify"><defs><filter height="300%" id="f3cbxec8lmvqw" width="300%" x="-1" y="-1"><feGaussianBlur result="blurOut" stdDeviation="2.0"/><feColorMatrix in="blurOut" result="blurOut2" type="matrix" values="0 0 0 0 0 0 0 0 0 0 0 0 0 0 0 0 0 0 .4 0"/><feOffset dx="4.0" dy="4.0" in="blurOut2" result="blurOut3"/><feBlend in="SourceGraphic" in2="blurOut3" mode="normal"/></filter></defs><g><!--MD5=[0dc7f2ddb409b58bcf52b12238c25399]
class Ship--><rect codeLine="3" fill="#FEFECE" filter="url(#f3cbxec8lmvqw)" height="200.1953" id="Ship" style="stroke:#A80036;stroke-width:1.5;" width="151" x="7" y="7"/><ellipse cx="65.75" cy="23" fill="#ADD1B2" rx="11" ry="11" style="stroke:#A80036;stroke-width:1.0;"/><path d="M67.75,19.5 Q67.9531,19 68.1875,18.75 Q68.4219,18.5 68.6875,18.5 Q69.1563,18.5 69.4531,18.7813 Q69.75,19.0625 69.75,19.7188 L69.75,21.2813 Q69.75,21.9375 69.4688,22.2188 Q69.1875,22.5 68.75,22.5 Q68.3594,22.5 68.1094,22.3281 Q67.8594,22.1563 67.75,21.7031 Q67.7031,21.3906 67.5313,21.2188 Q67.2188,20.8906 66.6563,20.7031 Q66.0938,20.5 65.5313,20.5 Q64.8281,20.5 64.2344,20.7813 Q63.6563,21.0625 63.2031,21.6875 Q62.75,22.3125 62.75,23.1719 L62.75,24.0938 Q62.75,25.125 63.5938,25.8125 Q64.4375,26.5 65.9375,26.5 Q66.8281,26.5 67.4531,26.2969 Q67.8125,26.1875 68.2188,25.8281 Q68.4844,25.625 68.625,25.5625 Q68.7656,25.5 68.9375,25.5 Q69.2656,25.5 69.5,25.7656 Q69.75,26.0156 69.75,26.375 Q69.75,26.7188 69.4063,27.125 Q68.9063,27.7188 68.1094,28.0469 Q67.0625,28.5 65.7813,28.5 Q64.2813,28.5 63.0781,27.9063 Q62.1094,27.4375 61.4219,26.4219 Q60.75,25.4063 60.75,24.2031 L60.75,23.1094 Q60.75,21.8594 61.3438,20.7656 Q61.9531,19.6719 63,19.0938 Q64.0625,18.5 65.25,18.5 Q65.9688,18.5 66.5938,18.75 Q67.2188,19 67.75,19.5 Z " fill="#000000"/><text fill="#000000" font-family="sans-serif" font-size="12" lengthAdjust="spacing" textLength="25" x="86.25" y="27.9102">Ship</text><line style="stroke:#A80036;stroke-width:1.5;" x1="8" x2="157" y1="39" y2="39"/><rect fill="none" height="6" style="stroke:#C82930;stroke-width:1.0;" width="6" x="15" y="47"/><text fill="#000000" font-family="sans-serif" font-size="11" lengthAdjust="spacing" textLength="49" x="27" y="54.4189">mmsiCode</text><rect fill="none" height="6" style="stroke:#C82930;stroke-width:1.0;" width="6" x="15" y="60.8359"/><text fill="#000000" font-family="sans-serif" font-size="11" lengthAdjust="spacing" textLength="41" x="27" y="68.2549">imoCode</text><rect fill="none" height="6" style="stroke:#C82930;stroke-width:1.0;" width="6" x="15" y="74.6719"/><text fill="#000000" font-family="sans-serif" font-size="11" lengthAdjust="spacing" textLength="125" x="27" y="82.0908">numberEnergyGenerators</text><rect fill="none" height="6" style="stroke:#C82930;stroke-width:1.0;" width="6" x="15" y="88.5078"/><text fill="#000000" font-family="sans-serif" font-size="11" lengthAdjust="spacing" textLength="79" x="27" y="95.9268">generatorPower</text><rect fill="none" height="6" style="stroke:#C82930;stroke-width:1.0;" width="6" x="15" y="102.3438"/><text fill="#000000" font-family="sans-serif" font-size="11" lengthAdjust="spacing" textLength="37" x="27" y="109.7627">callSign</text><rect fill="none" height="6" style="stroke:#C82930;stroke-width:1.0;" width="6" x="15" y="116.1797"/><text fill="#000000" font-family="sans-serif" font-size="11" lengthAdjust="spacing" textLength="23" x="27" y="123.5986">draft</text><rect fill="none" height="6" style="stroke:#C82930;stroke-width:1.0;" width="6" x="15" y="130.0156"/><text fill="#000000" font-family="sans-serif" font-size="11" lengthAdjust="spacing" textLength="26" x="27" y="137.4346">name</text><rect fill="none" height="6" style="stroke:#C82930;stroke-width:1.0;" width="6" x="15" y="143.8516"/><text fill="#000000" font-family="sans-serif" font-size="11" lengthAdjust="spacing" textLength="64" x="27" y="151.2705">vesselTypeId</text><rect fill="none" height="6" style="stroke:#C82930;stroke-width:1.0;" width="6" x="15" y="157.6875"/><text fill="#000000" font-family="sans-serif" font-size="11" lengthAdjust="spacing" textLength="29" x="27" y="165.1064">length</text><rect fill="none" height="6" style="stroke:#C82930;stroke-width:1.0;" width="6" x="15" y="171.5234"/><text fill="#000000" font-family="sans-serif" font-size="11" lengthAdjust="spacing" textLength="27" x="27" y="178.9424">width</text><rect fill="none" height="6" style="stroke:#C82930;stroke-width:1.0;" width="6" x="15" y="185.3594"/><text fill="#000000" font-family="sans-serif" font-size="11" lengthAdjust="spacing" textLength="41" x="27" y="192.7783">capacity</text><line style="stroke:#A80036;stroke-width:1.5;" x1="8" x2="157" y1="199.1953" y2="199.1953"/><!--MD5=[ea13aecf8df941b18fb8e3885c78c184]
class Ports--><rect codeLine="19" fill="#FEFECE" filter="url(#f3cbxec8lmvqw)" height="75.6719" id="Ports" style="stroke:#A80036;stroke-width:1.5;" width="86" x="83.5" y="751"/><ellipse cx="109.75" cy="767" fill="#ADD1B2" rx="11" ry="11" style="stroke:#A80036;stroke-width:1.0;"/><path d="M111.75,763.5 Q111.9531,763 112.1875,762.75 Q112.4219,762.5 112.6875,762.5 Q113.1563,762.5 113.4531,762.7813 Q113.75,763.0625 113.75,763.7188 L113.75,765.2813 Q113.75,765.9375 113.4688,766.2188 Q113.1875,766.5 112.75,766.5 Q112.3594,766.5 112.1094,766.3281 Q111.8594,766.1563 111.75,765.7031 Q111.7031,765.3906 111.5313,765.2188 Q111.2188,764.8906 110.6563,764.7031 Q110.0938,764.5 109.5313,764.5 Q108.8281,764.5 108.2344,764.7813 Q107.6563,765.0625 107.2031,765.6875 Q106.75,766.3125 106.75,767.1719 L106.75,768.0938 Q106.75,769.125 107.5938,769.8125 Q108.4375,770.5 109.9375,770.5 Q110.8281,770.5 111.4531,770.2969 Q111.8125,770.1875 112.2188,769.8281 Q112.4844,769.625 112.625,769.5625 Q112.7656,769.5 112.9375,769.5 Q113.2656,769.5 113.5,769.7656 Q113.75,770.0156 113.75,770.375 Q113.75,770.7188 113.4063,771.125 Q112.9063,771.7188 112.1094,772.0469 Q111.0625,772.5 109.7813,772.5 Q108.2813,772.5 107.0781,771.9063 Q106.1094,771.4375 105.4219,770.4219 Q104.75,769.4063 104.75,768.2031 L104.75,767.1094 Q104.75,765.8594 105.3438,764.7656 Q105.9531,763.6719 107,763.0938 Q108.0625,762.5 109.25,762.5 Q109.9688,762.5 110.5938,762.75 Q111.2188,763 111.75,763.5 Z " fill="#000000"/><text fill="#000000" font-family="sans-serif" font-size="12" lengthAdjust="spacing" textLength="29" x="126.25" y="771.9102">Ports</text><line style="stroke:#A80036;stroke-width:1.5;" x1="84.5" x2="168.5" y1="783" y2="783"/><rect fill="none" height="6" style="stroke:#C82930;stroke-width:1.0;" width="6" x="91.5" y="791"/><text fill="#000000" font-family="sans-serif" font-size="11" lengthAdjust="spacing" textLength="60" x="103.5" y="798.4189">identification</text><rect fill="none" height="6" style="stroke:#C82930;stroke-width:1.0;" width="6" x="91.5" y="804.8359"/><text fill="#000000" font-family="sans-serif" font-size="11" lengthAdjust="spacing" textLength="26" x="103.5" y="812.2549">name</text><line style="stroke:#A80036;stroke-width:1.5;" x1="84.5" x2="168.5" y1="818.6719" y2="818.6719"/><!--MD5=[a3093aa9f96b7df9aab31d8715601ff6]
class Containers--><rect codeLine="24" fill="#FEFECE" filter="url(#f3cbxec8lmvqw)" height="186.3594" id="Containers" style="stroke:#A80036;stroke-width:1.5;" width="108" x="116.5" y="347"/><ellipse cx="138.25" cy="363" fill="#ADD1B2" rx="11" ry="11" style="stroke:#A80036;stroke-width:1.0;"/><path d="M140.25,359.5 Q140.4531,359 140.6875,358.75 Q140.9219,358.5 141.1875,358.5 Q141.6563,358.5 141.9531,358.7813 Q142.25,359.0625 142.25,359.7188 L142.25,361.2813 Q142.25,361.9375 141.9688,362.2188 Q141.6875,362.5 141.25,362.5 Q140.8594,362.5 140.6094,362.3281 Q140.3594,362.1563 140.25,361.7031 Q140.2031,361.3906 140.0313,361.2188 Q139.7188,360.8906 139.1563,360.7031 Q138.5938,360.5 138.0313,360.5 Q137.3281,360.5 136.7344,360.7813 Q136.1563,361.0625 135.7031,361.6875 Q135.25,362.3125 135.25,363.1719 L135.25,364.0938 Q135.25,365.125 136.0938,365.8125 Q136.9375,366.5 138.4375,366.5 Q139.3281,366.5 139.9531,366.2969 Q140.3125,366.1875 140.7188,365.8281 Q140.9844,365.625 141.125,365.5625 Q141.2656,365.5 141.4375,365.5 Q141.7656,365.5 142,365.7656 Q142.25,366.0156 142.25,366.375 Q142.25,366.7188 141.9063,367.125 Q141.4063,367.7188 140.6094,368.0469 Q139.5625,368.5 138.2813,368.5 Q136.7813,368.5 135.5781,367.9063 Q134.6094,367.4375 133.9219,366.4219 Q133.25,365.4063 133.25,364.2031 L133.25,363.1094 Q133.25,361.8594 133.8438,360.7656 Q134.4531,359.6719 135.5,359.0938 Q136.5625,358.5 137.75,358.5 Q138.4688,358.5 139.0938,358.75 Q139.7188,359 140.25,359.5 Z " fill="#000000"/><text fill="#000000" font-family="sans-serif" font-size="12" lengthAdjust="spacing" textLength="61" x="153.75" y="367.9102">Containers</text><line style="stroke:#A80036;stroke-width:1.5;" x1="117.5" x2="223.5" y1="379" y2="379"/><text fill="#000000" font-family="sans-serif" font-size="11" lengthAdjust="spacing" textLength="10" x="136.5" y="394.4189">-x</text><text fill="#000000" font-family="sans-serif" font-size="11" lengthAdjust="spacing" textLength="10" x="136.5" y="408.2549">-y</text><text fill="#000000" font-family="sans-serif" font-size="11" lengthAdjust="spacing" textLength="10" x="136.5" y="422.0908">-z</text><rect fill="none" height="6" style="stroke:#C82930;stroke-width:1.0;" width="6" x="124.5" y="428.5078"/><text fill="#000000" font-family="sans-serif" font-size="11" lengthAdjust="spacing" textLength="82" x="136.5" y="435.9268">containerNumber</text><rect fill="none" height="6" style="stroke:#C82930;stroke-width:1.0;" width="6" x="124.5" y="442.3438"/><text fill="#000000" font-family="sans-serif" font-size="11" lengthAdjust="spacing" textLength="49" x="136.5" y="449.7627">checkDigit</text><rect fill="none" height="6" style="stroke:#C82930;stroke-width:1.0;" width="6" x="124.5" y="456.1797"/><text fill="#000000" font-family="sans-serif" font-size="11" lengthAdjust="spacing" textLength="39" x="136.5" y="463.5986">isoCode</text><rect fill="none" height="6" style="stroke:#C82930;stroke-width:1.0;" width="6" x="124.5" y="470.0156"/><text fill="#000000" font-family="sans-serif" font-size="11" lengthAdjust="spacing" textLength="42" x="136.5" y="477.4346">payLoad</text><rect fill="none" height="6" style="stroke:#C82930;stroke-width:1.0;" width="6" x="124.5" y="483.8516"/><text fill="#000000" font-family="sans-serif" font-size="11" lengthAdjust="spacing" textLength="19" x="136.5" y="491.2705">tare</text><rect fill="none" height="6" style="stroke:#C82930;stroke-width:1.0;" width="6" x="124.5" y="497.6875"/><text fill="#000000" font-family="sans-serif" font-size="11" lengthAdjust="spacing" textLength="28" x="136.5" y="505.1064">gross</text><rect fill="none" height="6" style="stroke:#C82930;stroke-width:1.0;" width="6" x="124.5" y="511.5234"/><text fill="#000000" font-family="sans-serif" font-size="11" lengthAdjust="spacing" textLength="33" x="136.5" y="518.9424">weight</text><line style="stroke:#A80036;stroke-width:1.5;" x1="117.5" x2="223.5" y1="525.3594" y2="525.3594"/><!--MD5=[76562047389981627aea27c31a97aff5]
class CargoManifest--><rect codeLine="37" fill="#FEFECE" filter="url(#f3cbxec8lmvqw)" height="61.8359" id="CargoManifest" style="stroke:#A80036;stroke-width:1.5;" width="112" x="205.5" y="611"/><ellipse cx="220.5" cy="627" fill="#ADD1B2" rx="11" ry="11" style="stroke:#A80036;stroke-width:1.0;"/><path d="M222.5,623.5 Q222.7031,623 222.9375,622.75 Q223.1719,622.5 223.4375,622.5 Q223.9063,622.5 224.2031,622.7813 Q224.5,623.0625 224.5,623.7188 L224.5,625.2813 Q224.5,625.9375 224.2188,626.2188 Q223.9375,626.5 223.5,626.5 Q223.1094,626.5 222.8594,626.3281 Q222.6094,626.1563 222.5,625.7031 Q222.4531,625.3906 222.2813,625.2188 Q221.9688,624.8906 221.4063,624.7031 Q220.8438,624.5 220.2813,624.5 Q219.5781,624.5 218.9844,624.7813 Q218.4063,625.0625 217.9531,625.6875 Q217.5,626.3125 217.5,627.1719 L217.5,628.0938 Q217.5,629.125 218.3438,629.8125 Q219.1875,630.5 220.6875,630.5 Q221.5781,630.5 222.2031,630.2969 Q222.5625,630.1875 222.9688,629.8281 Q223.2344,629.625 223.375,629.5625 Q223.5156,629.5 223.6875,629.5 Q224.0156,629.5 224.25,629.7656 Q224.5,630.0156 224.5,630.375 Q224.5,630.7188 224.1563,631.125 Q223.6563,631.7188 222.8594,632.0469 Q221.8125,632.5 220.5313,632.5 Q219.0313,632.5 217.8281,631.9063 Q216.8594,631.4375 216.1719,630.4219 Q215.5,629.4063 215.5,628.2031 L215.5,627.1094 Q215.5,625.8594 216.0938,624.7656 Q216.7031,623.6719 217.75,623.0938 Q218.8125,622.5 220,622.5 Q220.7188,622.5 221.3438,622.75 Q221.9688,623 222.5,623.5 Z " fill="#000000"/><text fill="#000000" font-family="sans-serif" font-size="12" lengthAdjust="spacing" textLength="80" x="234.5" y="631.9102">CargoManifest</text><line style="stroke:#A80036;stroke-width:1.5;" x1="206.5" x2="316.5" y1="643" y2="643"/><rect fill="none" height="6" style="stroke:#C82930;stroke-width:1.0;" width="6" x="213.5" y="651"/><text fill="#000000" font-family="sans-serif" font-size="11" lengthAdjust="spacing" textLength="82" x="225.5" y="658.4189">containerNumber</text><line style="stroke:#A80036;stroke-width:1.5;" x1="206.5" x2="316.5" y1="664.8359" y2="664.8359"/><!--MD5=[b5e7d3b323f2cd13b2215620f50e65f3]
link Ship to Ports--><path codeLine="41" d="M47.62,207.28 C42.28,229.6 38.5,253.39 38.5,276 C38.5,276 38.5,276 38.5,643 C38.5,684.08 64.63,723.44 88.41,750.77 " fill="none" id="Ship-Ports" style="stroke:#A80036;stroke-width:1.0;"/><polygon fill="#000000" points="43.8742,445.1618,46.1279,435.9221,40.2666,436.362,43.8742,445.1618" style="stroke:#000000;stroke-width:1.0;"/><text fill="#000000" font-family="sans-serif" font-size="13" lengthAdjust="spacing" textLength="28" x="52.5" y="445.4951">dock</text><text fill="#000000" font-family="sans-serif" font-size="13" lengthAdjust="spacing" textLength="20" x="24.3241" y="228.7327">0..*</text><text fill="#000000" font-family="sans-serif" font-size="13" lengthAdjust="spacing" textLength="7" x="74.0018" y="740.0909">1</text><!--MD5=[cff4e3c6ede03364cf99bd3378be6b6a]
link Ship to Containers--><path codeLine="42" d="M108.9,207.31 C120.67,251.58 134.46,303.43 146,346.83 " fill="none" id="Ship-Containers" style="stroke:#A80036;stroke-width:1.0;"/><polygon fill="#000000" points="135.7849,282.0079,136.3007,272.5113,130.6203,274.0218,135.7849,282.0079" style="stroke:#000000;stroke-width:1.0;"/><text fill="#000000" font-family="sans-serif" font-size="13" lengthAdjust="spacing" textLength="51" x="143.5" y="282.4951">transport</text><text fill="#000000" font-family="sans-serif" font-size="13" lengthAdjust="spacing" textLength="7" x="103.5817" y="228.7649">1</text><text fill="#000000" font-family="sans-serif" font-size="13" lengthAdjust="spacing" textLength="20" x="123.2508" y="336.2628">1..*</text><!--MD5=[d729e47c8b99010fceb84b610067730f]
link CargoManifest to Ports--><path codeLine="43" d="M233.53,673.04 C212.52,695.61 183.63,726.64 161.16,750.78 " fill="none" id="CargoManifest-Ports" style="stroke:#A80036;stroke-width:1.0;"/><polygon fill="#000000" points="203.0931,715.8355,211.4073,711.2176,207.1051,707.2125,203.0931,715.8355" style="stroke:#000000;stroke-width:1.0;"/><text fill="#000000" font-family="sans-serif" font-size="13" lengthAdjust="spacing" textLength="65" x="215.5" y="717.4951">delivered at</text><text fill="#000000" font-family="sans-serif" font-size="13" lengthAdjust="spacing" textLength="5" x="222.5312" y="694.2719">*</text><text fill="#000000" font-family="sans-serif" font-size="13" lengthAdjust="spacing" textLength="7" x="159.7104" y="740.1027">1</text><!--MD5=[c7fc6f07f2489647d2a3f83969f89660]
link Containers to Ports--><path codeLine="44" d="M155.55,533.08 C151.69,558.31 147.72,585.68 144.5,611 C138.36,659.26 132.96,715.13 129.72,750.99 " fill="none" id="Containers-Ports" style="stroke:#A80036;stroke-width:1.0;"/><polygon fill="#000000" points="148.9114,647.141,152.8946,638.5048,147.0577,637.8129,148.9114,647.141" style="stroke:#000000;stroke-width:1.0;"/><text fill="#000000" font-family="sans-serif" font-size="13" lengthAdjust="spacing" textLength="29" x="158.5" y="647.4951">store</text><text fill="#000000" font-family="sans-serif" font-size="13" lengthAdjust="spacing" textLength="20" x="133.4838" y="554.9455">0..*</text><text fill="#000000" font-family="sans-serif" font-size="13" lengthAdjust="spacing" textLength="7" x="122.6684" y="740.0647">1</text><!--MD5=[a27713cdd7694cea32c8be89a3131559]
link Containers to CargoManifest--><path codeLine="45" d="M212.4,533.1 C225.19,561.19 238.35,590.12 247.82,610.94 " fill="none" id="Containers-CargoManifest" style="stroke:#A80036;stroke-width:1.0;"/><polygon fill="#000000" points="238.5709,576.7268,237.4996,567.2767,232.1496,569.7112,238.5709,576.7268" style="stroke:#000000;stroke-width:1.0;"/><text fill="#000000" font-family="sans-serif" font-size="13" lengthAdjust="spacing" textLength="54" x="245.5" y="577.4951">related to</text><text fill="#000000" font-family="sans-serif" font-size="13" lengthAdjust="spacing" textLength="20" x="195.0417" y="554.9671">1..*</text><text fill="#000000" font-family="sans-serif" font-size="13" lengthAdjust="spacing" textLength="20" x="222.64" y="599.9471">1..*</text><!--MD5=[e698199309f38c7b1076d8988a21a97c]
@startuml
'https://plantuml.com/class-diagram

class Ship {
-mmsiCode
-imoCode
-numberEnergyGenerators
-generatorPower
-callSign
-draft
-name
-vesselTypeId
-length
-width
-capacity
}



class Ports {
-identification
-name
}

class Containers {
-x
-y
-z
-containerNumber
-checkDigit
-isoCode
-payLoad
-tare
-gross
-weight
}

class CargoManifest {
-containerNumber
}

Ship "0..*"- -"1" Ports: dock >
Ship "1"- - -"1..*" Containers : transport >
CargoManifest "*" - - "1" Ports : delivered at >
Containers "0..*"- -"1" Ports: store >
Containers "1..*"- -"1..*" CargoManifest: related to >


@enduml

@startuml

class Ship {
-mmsiCode
-imoCode
-numberEnergyGenerators
-generatorPower
-callSign
-draft
-name
-vesselTypeId
-length
-width
-capacity
}



class Ports {
-identification
-name
}

class Containers {
-x
-y
-z
-containerNumber
-checkDigit
-isoCode
-payLoad
-tare
-gross
-weight
}

class CargoManifest {
-containerNumber
}

Ship "0..*"- -"1" Ports: dock >
Ship "1"- - -"1..*" Containers : transport >
CargoManifest "*" - - "1" Ports : delivered at >
Containers "0..*"- -"1" Ports: store >
Containers "1..*"- -"1..*" CargoManifest: related to >


@enduml

PlantUML version 1.2021.11(Sat Oct 02 14:26:11 BST 2021)
(GPL source distribution)
Java Runtime: OpenJDK Runtime Environment
JVM: OpenJDK 64-Bit Server VM
Default Encoding: Cp1252
Language: pt
Country: PT
--></g></svg>