<?xml version="1.0" encoding="UTF-8" standalone="no"?><svg xmlns="http://www.w3.org/2000/svg" xmlns:xlink="http://www.w3.org/1999/xlink" contentScriptType="application/ecmascript" contentStyleType="text/css" height="332px" preserveAspectRatio="none" style="width:377px;height:332px;background:#FFFFFF;" version="1.1" viewBox="0 0 377 332" width="377px" zoomAndPan="magnify"><defs><filter height="300%" id="f1x06xatgl1q6c" width="300%" x="-1" y="-1"><feGaussianBlur result="blurOut" stdDeviation="2.0"/><feColorMatrix in="blurOut" result="blurOut2" type="matrix" values="0 0 0 0 0 0 0 0 0 0 0 0 0 0 0 0 0 0 .4 0"/><feOffset dx="4.0" dy="4.0" in="blurOut2" result="blurOut3"/><feBlend in="SourceGraphic" in2="blurOut3" mode="normal"/></filter></defs><g><rect fill="#FFFFFF" filter="url(#f1x06xatgl1q6c)" height="129.7578" style="stroke:#A80036;stroke-width:1.0;" width="10" x="43.5" y="99.6094"/><rect fill="#FFFFFF" filter="url(#f1x06xatgl1q6c)" height="30.3516" style="stroke:#A80036;stroke-width:1.0;" width="10" x="330.5" y="138.3125"/><rect fill="#FFFFFF" filter="url(#f1x06xatgl1q6c)" height="30.3516" style="stroke:#A80036;stroke-width:1.0;" width="10" x="330.5" y="199.0156"/><line style="stroke:#A80036;stroke-width:1.0;stroke-dasharray:5.0,5.0;" x1="48" x2="48" y1="89.6094" y2="247.3672"/><line style="stroke:#A80036;stroke-width:1.0;stroke-dasharray:5.0,5.0;" x1="335.5" x2="335.5" y1="89.6094" y2="247.3672"/><text fill="#000000" font-family="sans-serif" font-size="14" lengthAdjust="spacing" textLength="81" x="5" y="86.5332">Ship Captain</text><ellipse cx="48.5" cy="15" fill="#FEFECE" filter="url(#f1x06xatgl1q6c)" rx="8" ry="8" style="stroke:#A80036;stroke-width:2.0;"/><path d="M48.5,23 L48.5,50 M35.5,31 L61.5,31 M48.5,50 L35.5,65 M48.5,50 L61.5,65 " fill="none" filter="url(#f1x06xatgl1q6c)" style="stroke:#A80036;stroke-width:2.0;"/><text fill="#000000" font-family="sans-serif" font-size="14" lengthAdjust="spacing" textLength="81" x="5" y="260.9004">Ship Captain</text><ellipse cx="48.5" cy="273.9766" fill="#FEFECE" filter="url(#f1x06xatgl1q6c)" rx="8" ry="8" style="stroke:#A80036;stroke-width:2.0;"/><path d="M48.5,281.9766 L48.5,308.9766 M35.5,289.9766 L61.5,289.9766 M48.5,308.9766 L35.5,323.9766 M48.5,308.9766 L61.5,323.9766 " fill="none" filter="url(#f1x06xatgl1q6c)" style="stroke:#A80036;stroke-width:2.0;"/><rect fill="#FEFECE" filter="url(#f1x06xatgl1q6c)" height="31.6094" style="stroke:#A80036;stroke-width:1.5;" width="60" x="303.5" y="53"/><text fill="#000000" font-family="sans-serif" font-size="14" lengthAdjust="spacing" textLength="46" x="310.5" y="74.5332">System</text><rect fill="#FEFECE" filter="url(#f1x06xatgl1q6c)" height="31.6094" style="stroke:#A80036;stroke-width:1.5;" width="60" x="303.5" y="246.3672"/><text fill="#000000" font-family="sans-serif" font-size="14" lengthAdjust="spacing" textLength="46" x="310.5" y="267.9004">System</text><rect fill="#FFFFFF" filter="url(#f1x06xatgl1q6c)" height="129.7578" style="stroke:#A80036;stroke-width:1.0;" width="10" x="43.5" y="99.6094"/><rect fill="#FFFFFF" filter="url(#f1x06xatgl1q6c)" height="30.3516" style="stroke:#A80036;stroke-width:1.0;" width="10" x="330.5" y="138.3125"/><rect fill="#FFFFFF" filter="url(#f1x06xatgl1q6c)" height="30.3516" style="stroke:#A80036;stroke-width:1.0;" width="10" x="330.5" y="199.0156"/><polygon fill="#A80036" points="318.5,134.3125,328.5,138.3125,318.5,142.3125,322.5,138.3125" style="stroke:#A80036;stroke-width:1.0;"/><line style="stroke:#A80036;stroke-width:1.0;" x1="53.5" x2="324.5" y1="138.3125" y2="138.3125"/><text fill="#000000" font-family="sans-serif" font-size="13" lengthAdjust="spacing" textLength="175" x="60.5" y="117.1045">starts the requisition of the list</text><text fill="#000000" font-family="sans-serif" font-size="13" lengthAdjust="spacing" textLength="254" x="64.5" y="133.4561">of containers to be unloaded in the next port</text><polygon fill="#A80036" points="64.5,164.6641,54.5,168.6641,64.5,172.6641,60.5,168.6641" style="stroke:#A80036;stroke-width:1.0;"/><line style="stroke:#A80036;stroke-width:1.0;stroke-dasharray:2.0,2.0;" x1="58.5" x2="334.5" y1="168.6641" y2="168.6641"/><text fill="#000000" font-family="sans-serif" font-size="13" lengthAdjust="spacing" textLength="182" x="70.5" y="163.8076">asks the mmsi code of the ship</text><polygon fill="#A80036" points="318.5,195.0156,328.5,199.0156,318.5,203.0156,322.5,199.0156" style="stroke:#A80036;stroke-width:1.0;"/><line style="stroke:#A80036;stroke-width:1.0;" x1="53.5" x2="324.5" y1="199.0156" y2="199.0156"/><text fill="#000000" font-family="sans-serif" font-size="13" lengthAdjust="spacing" textLength="115" x="60.5" y="194.1592">type the mmsi code</text><polygon fill="#A80036" points="59.5,225.3672,49.5,229.3672,59.5,233.3672,55.5,229.3672" style="stroke:#A80036;stroke-width:1.0;"/><line style="stroke:#A80036;stroke-width:1.0;stroke-dasharray:2.0,2.0;" x1="53.5" x2="334.5" y1="229.3672" y2="229.3672"/><text fill="#000000" font-family="sans-serif" font-size="13" lengthAdjust="spacing" textLength="88" x="65.5" y="224.5107">show the result</text><!--MD5=[9b3bb6b2a78bd6e09b34b417ba078b88]
@startuml
'https://plantuml.com/class-diagram
actor "Ship Captain" as SC
participant "System" as SY

activate SC
SC -> SY : starts the requisition of the list \n of containers to be unloaded in the next port
activate SY
SY - -> SC : asks the mmsi code of the ship
deactivate SY
SC -> SY : type the mmsi code

activate SY
SY- ->SC : show the result
deactivate SY
deactivate SC
@enduml

@startuml
actor "Ship Captain" as SC
participant "System" as SY

activate SC
SC -> SY : starts the requisition of the list \n of containers to be unloaded in the next port
activate SY
SY - -> SC : asks the mmsi code of the ship
deactivate SY
SC -> SY : type the mmsi code

activate SY
SY- ->SC : show the result
deactivate SY
deactivate SC
@enduml

PlantUML version 1.2021.11(Sat Oct 02 14:26:11 BST 2021)
(GPL source distribution)
Java Runtime: OpenJDK Runtime Environment
JVM: OpenJDK 64-Bit Server VM
Default Encoding: Cp1252
Language: pt
Country: PT
--></g></svg>