<?xml version="1.0" encoding="UTF-8" standalone="no"?><svg xmlns="http://www.w3.org/2000/svg" xmlns:xlink="http://www.w3.org/1999/xlink" contentScriptType="application/ecmascript" contentStyleType="text/css" height="586px" preserveAspectRatio="none" style="width:958px;height:586px;background:#FFFFFF;" version="1.1" viewBox="0 0 958 586" width="958px" zoomAndPan="magnify"><defs><filter height="300%" id="f84ugova52iza" width="300%" x="-1" y="-1"><feGaussianBlur result="blurOut" stdDeviation="2.0"/><feColorMatrix in="blurOut" result="blurOut2" type="matrix" values="0 0 0 0 0 0 0 0 0 0 0 0 0 0 0 0 0 0 .4 0"/><feOffset dx="4.0" dy="4.0" in="blurOut2" result="blurOut3"/><feBlend in="SourceGraphic" in2="blurOut3" mode="normal"/></filter></defs><g><rect fill="#FFFFFF" filter="url(#f84ugova52iza)" height="383.7734" style="stroke:#A80036;stroke-width:1.0;" width="10" x="43.5" y="99.6094"/><rect fill="#FFFFFF" filter="url(#f84ugova52iza)" height="30.3516" style="stroke:#A80036;stroke-width:1.0;" width="10" x="330.5" y="138.3125"/><rect fill="#FFFFFF" filter="url(#f84ugova52iza)" height="284.3672" style="stroke:#A80036;stroke-width:1.0;" width="10" x="330.5" y="199.0156"/><rect fill="#FFFFFF" filter="url(#f84ugova52iza)" height="223.6641" style="stroke:#A80036;stroke-width:1.0;" width="10" x="504.5" y="229.3672"/><rect fill="#FFFFFF" filter="url(#f84ugova52iza)" height="138.7031" style="stroke:#A80036;stroke-width:1.0;" width="10" x="671.5" y="314.3281"/><rect fill="#FFFFFF" filter="url(#f84ugova52iza)" height="28" style="stroke:#A80036;stroke-width:1.0;" width="10" x="676.5" y="357.6797"/><rect fill="#FFFFFF" filter="url(#f84ugova52iza)" height="30" style="stroke:#A80036;stroke-width:1.0;" width="10" x="886.5" y="423.0313"/><line style="stroke:#A80036;stroke-width:1.0;stroke-dasharray:5.0,5.0;" x1="48" x2="48" y1="89.6094" y2="501.3828"/><line style="stroke:#A80036;stroke-width:1.0;stroke-dasharray:5.0,5.0;" x1="335.5" x2="335.5" y1="89.6094" y2="501.3828"/><line style="stroke:#A80036;stroke-width:1.0;stroke-dasharray:5.0,5.0;" x1="509.5" x2="509.5" y1="89.6094" y2="501.3828"/><line style="stroke:#A80036;stroke-width:1.0;stroke-dasharray:5.0,5.0;" x1="676.5" x2="676.5" y1="270.6719" y2="501.3828"/><line style="stroke:#A80036;stroke-width:1.0;stroke-dasharray:5.0,5.0;" x1="891" x2="891" y1="89.6094" y2="501.3828"/><text fill="#000000" font-family="sans-serif" font-size="14" lengthAdjust="spacing" textLength="81" x="5" y="86.5332">Ship Captain</text><ellipse cx="48.5" cy="15" fill="#FEFECE" filter="url(#f84ugova52iza)" rx="8" ry="8" style="stroke:#A80036;stroke-width:2.0;"/><path d="M48.5,23 L48.5,50 M35.5,31 L61.5,31 M48.5,50 L35.5,65 M48.5,50 L61.5,65 " fill="none" filter="url(#f84ugova52iza)" style="stroke:#A80036;stroke-width:2.0;"/><text fill="#000000" font-family="sans-serif" font-size="14" lengthAdjust="spacing" textLength="81" x="5" y="514.916">Ship Captain</text><ellipse cx="48.5" cy="527.9922" fill="#FEFECE" filter="url(#f84ugova52iza)" rx="8" ry="8" style="stroke:#A80036;stroke-width:2.0;"/><path d="M48.5,535.9922 L48.5,562.9922 M35.5,543.9922 L61.5,543.9922 M48.5,562.9922 L35.5,577.9922 M48.5,562.9922 L61.5,577.9922 " fill="none" filter="url(#f84ugova52iza)" style="stroke:#A80036;stroke-width:2.0;"/><rect fill="#FEFECE" filter="url(#f84ugova52iza)" height="31.6094" style="stroke:#A80036;stroke-width:1.5;" width="74" x="296.5" y="53"/><text fill="#000000" font-family="sans-serif" font-size="14" lengthAdjust="spacing" textLength="60" x="303.5" y="74.5332">:UnloadUI</text><rect fill="#FEFECE" filter="url(#f84ugova52iza)" height="31.6094" style="stroke:#A80036;stroke-width:1.5;" width="74" x="296.5" y="500.3828"/><text fill="#000000" font-family="sans-serif" font-size="14" lengthAdjust="spacing" textLength="60" x="303.5" y="521.916">:UnloadUI</text><rect fill="#FEFECE" filter="url(#f84ugova52iza)" height="31.6094" style="stroke:#A80036;stroke-width:1.5;" width="124" x="445.5" y="53"/><text fill="#000000" font-family="sans-serif" font-size="14" lengthAdjust="spacing" textLength="110" x="452.5" y="74.5332">:UnloadController</text><rect fill="#FEFECE" filter="url(#f84ugova52iza)" height="31.6094" style="stroke:#A80036;stroke-width:1.5;" width="124" x="445.5" y="500.3828"/><text fill="#000000" font-family="sans-serif" font-size="14" lengthAdjust="spacing" textLength="110" x="452.5" y="521.916">:UnloadController</text><rect fill="#FEFECE" filter="url(#f84ugova52iza)" height="31.6094" style="stroke:#A80036;stroke-width:1.5;" width="60" x="644.5" y="500.3828"/><text fill="#000000" font-family="sans-serif" font-size="14" lengthAdjust="spacing" textLength="46" x="651.5" y="521.916">:US205</text><rect fill="#FEFECE" filter="url(#f84ugova52iza)" height="31.6094" style="stroke:#A80036;stroke-width:1.5;" width="109" x="835" y="53"/><text fill="#000000" font-family="sans-serif" font-size="14" lengthAdjust="spacing" textLength="95" x="842" y="74.5332">: WriteForAFile</text><rect fill="#FEFECE" filter="url(#f84ugova52iza)" height="31.6094" style="stroke:#A80036;stroke-width:1.5;" width="109" x="835" y="500.3828"/><text fill="#000000" font-family="sans-serif" font-size="14" lengthAdjust="spacing" textLength="95" x="842" y="521.916">: WriteForAFile</text><rect fill="#FFFFFF" filter="url(#f84ugova52iza)" height="383.7734" style="stroke:#A80036;stroke-width:1.0;" width="10" x="43.5" y="99.6094"/><rect fill="#FFFFFF" filter="url(#f84ugova52iza)" height="30.3516" style="stroke:#A80036;stroke-width:1.0;" width="10" x="330.5" y="138.3125"/><rect fill="#FFFFFF" filter="url(#f84ugova52iza)" height="284.3672" style="stroke:#A80036;stroke-width:1.0;" width="10" x="330.5" y="199.0156"/><rect fill="#FFFFFF" filter="url(#f84ugova52iza)" height="223.6641" style="stroke:#A80036;stroke-width:1.0;" width="10" x="504.5" y="229.3672"/><rect fill="#FFFFFF" filter="url(#f84ugova52iza)" height="138.7031" style="stroke:#A80036;stroke-width:1.0;" width="10" x="671.5" y="314.3281"/><rect fill="#FFFFFF" filter="url(#f84ugova52iza)" height="28" style="stroke:#A80036;stroke-width:1.0;" width="10" x="676.5" y="357.6797"/><rect fill="#FFFFFF" filter="url(#f84ugova52iza)" height="30" style="stroke:#A80036;stroke-width:1.0;" width="10" x="886.5" y="423.0313"/><polygon fill="#A80036" points="318.5,134.3125,328.5,138.3125,318.5,142.3125,322.5,138.3125" style="stroke:#A80036;stroke-width:1.0;"/><line style="stroke:#A80036;stroke-width:1.0;" x1="53.5" x2="324.5" y1="138.3125" y2="138.3125"/><text fill="#000000" font-family="sans-serif" font-size="13" lengthAdjust="spacing" textLength="175" x="60.5" y="117.1045">starts the requisition of the list</text><text fill="#000000" font-family="sans-serif" font-size="13" lengthAdjust="spacing" textLength="254" x="64.5" y="133.4561">of containers to be unloaded in the next port</text><polygon fill="#A80036" points="64.5,164.6641,54.5,168.6641,64.5,172.6641,60.5,168.6641" style="stroke:#A80036;stroke-width:1.0;"/><line style="stroke:#A80036;stroke-width:1.0;stroke-dasharray:2.0,2.0;" x1="58.5" x2="334.5" y1="168.6641" y2="168.6641"/><text fill="#000000" font-family="sans-serif" font-size="13" lengthAdjust="spacing" textLength="182" x="70.5" y="163.8076">asks the mmsi code of the ship</text><polygon fill="#A80036" points="318.5,195.0156,328.5,199.0156,318.5,203.0156,322.5,199.0156" style="stroke:#A80036;stroke-width:1.0;"/><line style="stroke:#A80036;stroke-width:1.0;" x1="53.5" x2="324.5" y1="199.0156" y2="199.0156"/><text fill="#000000" font-family="sans-serif" font-size="13" lengthAdjust="spacing" textLength="115" x="60.5" y="194.1592">type the mmsi code</text><polygon fill="#A80036" points="492.5,225.3672,502.5,229.3672,492.5,233.3672,496.5,229.3672" style="stroke:#A80036;stroke-width:1.0;"/><line style="stroke:#A80036;stroke-width:1.0;" x1="340.5" x2="498.5" y1="229.3672" y2="229.3672"/><text fill="#000000" font-family="sans-serif" font-size="13" lengthAdjust="spacing" textLength="145" x="347.5" y="224.5107">createUS205(mmsiCode)</text><polygon fill="#A80036" points="632.5,255.7188,642.5,259.7188,632.5,263.7188,636.5,259.7188" style="stroke:#A80036;stroke-width:1.0;"/><line style="stroke:#A80036;stroke-width:1.0;" x1="514.5" x2="638.5" y1="259.7188" y2="259.7188"/><text fill="#000000" font-family="sans-serif" font-size="13" lengthAdjust="spacing" textLength="106" x="521.5" y="254.8623">create(mmsiCode)</text><rect fill="#FEFECE" filter="url(#f84ugova52iza)" height="31.6094" style="stroke:#A80036;stroke-width:1.5;" width="60" x="644.5" y="237.3672"/><text fill="#000000" font-family="sans-serif" font-size="14" lengthAdjust="spacing" textLength="46" x="651.5" y="258.9004">:US205</text><line style="stroke:#A80036;stroke-width:1.0;" x1="676.5" x2="723.5" y1="301.3281" y2="301.3281"/><line style="stroke:#A80036;stroke-width:1.0;" x1="723.5" x2="723.5" y1="301.3281" y2="314.3281"/><line style="stroke:#A80036;stroke-width:1.0;" x1="682.5" x2="723.5" y1="314.3281" y2="314.3281"/><polygon fill="#A80036" points="692.5,310.3281,682.5,314.3281,692.5,318.3281,688.5,314.3281" style="stroke:#A80036;stroke-width:1.0;"/><text fill="#000000" font-family="sans-serif" font-size="13" lengthAdjust="spacing" textLength="117" x="688.5" y="296.4717">initialize(mmsiCode)</text><line style="stroke:#A80036;stroke-width:1.0;" x1="686.5" x2="728.5" y1="349.6797" y2="349.6797"/><line style="stroke:#A80036;stroke-width:1.0;" x1="728.5" x2="728.5" y1="349.6797" y2="362.6797"/><line style="stroke:#A80036;stroke-width:1.0;" x1="687.5" x2="728.5" y1="362.6797" y2="362.6797"/><polygon fill="#A80036" points="697.5,358.6797,687.5,362.6797,697.5,366.6797,693.5,362.6797" style="stroke:#A80036;stroke-width:1.0;"/><text fill="#000000" font-family="sans-serif" font-size="13" lengthAdjust="spacing" textLength="171" x="693.5" y="344.8232">textualInformation = toString()</text><polygon fill="#A80036" points="874.5,419.0313,884.5,423.0313,874.5,427.0313,878.5,423.0313" style="stroke:#A80036;stroke-width:1.0;"/><line style="stroke:#A80036;stroke-width:1.0;" x1="681.5" x2="880.5" y1="423.0313" y2="423.0313"/><text fill="#000000" font-family="sans-serif" font-size="13" lengthAdjust="spacing" textLength="186" x="688.5" y="418.1748">writeForAFile(textualInformation)</text><polygon fill="#A80036" points="59.5,479.3828,49.5,483.3828,59.5,487.3828,55.5,483.3828" style="stroke:#A80036;stroke-width:1.0;"/><line style="stroke:#A80036;stroke-width:1.0;stroke-dasharray:2.0,2.0;" x1="53.5" x2="334.5" y1="483.3828" y2="483.3828"/><text fill="#000000" font-family="sans-serif" font-size="13" lengthAdjust="spacing" textLength="88" x="65.5" y="478.5264">show the result</text><!--MD5=[ba8d641c5ef7d368dd0a31222c15a26b]
@startuml
'https://plantuml.com/class-diagram

actor "Ship Captain" as SC
participant ":UnloadUI" as UI
participant ":UnloadController" as CT
participant ":US205" as US
participant ": WriteForAFile" as WF



activate SC
SC -> UI : starts the requisition of the list \n of containers to be unloaded in the next port
activate UI
UI - -> SC : asks the mmsi code of the ship
deactivate UI
SC -> UI : type the mmsi code


activate UI
UI->CT : createUS205(mmsiCode)
activate CT


CT -> US** : create(mmsiCode)

US -> US: initialize(mmsiCode)
activate US

US -> US : textualInformation = toString()
activate US
deactivate US
US -> WF : writeForAFile(textualInformation)

activate WF
deactivate WF

deactivate US

deactivate CT
UI- ->SC : show the result
deactivate UI
deactivate SC
@enduml

@startuml

actor "Ship Captain" as SC
participant ":UnloadUI" as UI
participant ":UnloadController" as CT
participant ":US205" as US
participant ": WriteForAFile" as WF



activate SC
SC -> UI : starts the requisition of the list \n of containers to be unloaded in the next port
activate UI
UI - -> SC : asks the mmsi code of the ship
deactivate UI
SC -> UI : type the mmsi code


activate UI
UI->CT : createUS205(mmsiCode)
activate CT


CT -> US** : create(mmsiCode)

US -> US: initialize(mmsiCode)
activate US

US -> US : textualInformation = toString()
activate US
deactivate US
US -> WF : writeForAFile(textualInformation)

activate WF
deactivate WF

deactivate US

deactivate CT
UI- ->SC : show the result
deactivate UI
deactivate SC
@enduml

PlantUML version 1.2021.11(Sat Oct 02 14:26:11 BST 2021)
(GPL source distribution)
Java Runtime: OpenJDK Runtime Environment
JVM: OpenJDK 64-Bit Server VM
Default Encoding: Cp1252
Language: pt
Country: PT
--></g></svg>