<?xml version="1.0" encoding="UTF-8" standalone="no"?><svg xmlns="http://www.w3.org/2000/svg" xmlns:xlink="http://www.w3.org/1999/xlink" contentScriptType="application/ecmascript" contentStyleType="text/css" height="345px" preserveAspectRatio="none" style="width:356px;height:345px;background:#FFFFFF;" version="1.1" viewBox="0 0 356 345" width="356px" zoomAndPan="magnify"><defs><filter height="300%" id="f1p94lct26ob6w" width="300%" x="-1" y="-1"><feGaussianBlur result="blurOut" stdDeviation="2.0"/><feColorMatrix in="blurOut" result="blurOut2" type="matrix" values="0 0 0 0 0 0 0 0 0 0 0 0 0 0 0 0 0 0 .4 0"/><feOffset dx="4.0" dy="4.0" in="blurOut2" result="blurOut3"/><feBlend in="SourceGraphic" in2="blurOut3" mode="normal"/></filter></defs><g><!--MD5=[e52ad44f5d5f9be916edf1fcbc2f4aaa]
class UnloadUI--><rect codeLine="3" fill="#FEFECE" filter="url(#f1p94lct26ob6w)" height="48" id="UnloadUI" style="stroke:#A80036;stroke-width:1.5;" width="84" x="38" y="7"/><ellipse cx="53" cy="23" fill="#ADD1B2" rx="11" ry="11" style="stroke:#A80036;stroke-width:1.0;"/><path d="M55,19.5 Q55.2031,19 55.4375,18.75 Q55.6719,18.5 55.9375,18.5 Q56.4063,18.5 56.7031,18.7813 Q57,19.0625 57,19.7188 L57,21.2813 Q57,21.9375 56.7188,22.2188 Q56.4375,22.5 56,22.5 Q55.6094,22.5 55.3594,22.3281 Q55.1094,22.1563 55,21.7031 Q54.9531,21.3906 54.7813,21.2188 Q54.4688,20.8906 53.9063,20.7031 Q53.3438,20.5 52.7813,20.5 Q52.0781,20.5 51.4844,20.7813 Q50.9063,21.0625 50.4531,21.6875 Q50,22.3125 50,23.1719 L50,24.0938 Q50,25.125 50.8438,25.8125 Q51.6875,26.5 53.1875,26.5 Q54.0781,26.5 54.7031,26.2969 Q55.0625,26.1875 55.4688,25.8281 Q55.7344,25.625 55.875,25.5625 Q56.0156,25.5 56.1875,25.5 Q56.5156,25.5 56.75,25.7656 Q57,26.0156 57,26.375 Q57,26.7188 56.6563,27.125 Q56.1563,27.7188 55.3594,28.0469 Q54.3125,28.5 53.0313,28.5 Q51.5313,28.5 50.3281,27.9063 Q49.3594,27.4375 48.6719,26.4219 Q48,25.4063 48,24.2031 L48,23.1094 Q48,21.8594 48.5938,20.7656 Q49.2031,19.6719 50.25,19.0938 Q51.3125,18.5 52.5,18.5 Q53.2188,18.5 53.8438,18.75 Q54.4688,19 55,19.5 Z " fill="#000000"/><text fill="#000000" font-family="sans-serif" font-size="12" lengthAdjust="spacing" textLength="52" x="67" y="27.9102">UnloadUI</text><line style="stroke:#A80036;stroke-width:1.5;" x1="39" x2="121" y1="39" y2="39"/><line style="stroke:#A80036;stroke-width:1.5;" x1="39" x2="121" y1="47" y2="47"/><!--MD5=[eef1cc6a8b01cfd006ca0a90f08048cf]
class UnloadController--><rect codeLine="7" fill="#FEFECE" filter="url(#f1p94lct26ob6w)" height="61.8359" id="UnloadController" style="stroke:#A80036;stroke-width:1.5;" width="146" x="7" y="123"/><ellipse cx="31" cy="139" fill="#ADD1B2" rx="11" ry="11" style="stroke:#A80036;stroke-width:1.0;"/><path d="M33,135.5 Q33.2031,135 33.4375,134.75 Q33.6719,134.5 33.9375,134.5 Q34.4063,134.5 34.7031,134.7813 Q35,135.0625 35,135.7188 L35,137.2813 Q35,137.9375 34.7188,138.2188 Q34.4375,138.5 34,138.5 Q33.6094,138.5 33.3594,138.3281 Q33.1094,138.1563 33,137.7031 Q32.9531,137.3906 32.7813,137.2188 Q32.4688,136.8906 31.9063,136.7031 Q31.3438,136.5 30.7813,136.5 Q30.0781,136.5 29.4844,136.7813 Q28.9063,137.0625 28.4531,137.6875 Q28,138.3125 28,139.1719 L28,140.0938 Q28,141.125 28.8438,141.8125 Q29.6875,142.5 31.1875,142.5 Q32.0781,142.5 32.7031,142.2969 Q33.0625,142.1875 33.4688,141.8281 Q33.7344,141.625 33.875,141.5625 Q34.0156,141.5 34.1875,141.5 Q34.5156,141.5 34.75,141.7656 Q35,142.0156 35,142.375 Q35,142.7188 34.6563,143.125 Q34.1563,143.7188 33.3594,144.0469 Q32.3125,144.5 31.0313,144.5 Q29.5313,144.5 28.3281,143.9063 Q27.3594,143.4375 26.6719,142.4219 Q26,141.4063 26,140.2031 L26,139.1094 Q26,137.8594 26.5938,136.7656 Q27.2031,135.6719 28.25,135.0938 Q29.3125,134.5 30.5,134.5 Q31.2188,134.5 31.8438,134.75 Q32.4688,135 33,135.5 Z " fill="#000000"/><text fill="#000000" font-family="sans-serif" font-size="12" lengthAdjust="spacing" textLength="94" x="47" y="143.9102">UnloadController</text><line style="stroke:#A80036;stroke-width:1.5;" x1="8" x2="152" y1="155" y2="155"/><line style="stroke:#A80036;stroke-width:1.5;" x1="8" x2="152" y1="163" y2="163"/><ellipse cx="18" cy="174" fill="#84BE84" rx="3" ry="3" style="stroke:#038048;stroke-width:1.0;"/><text fill="#000000" font-family="sans-serif" font-size="11" lengthAdjust="spacing" textLength="120" x="27" y="178.4189">createUS205(mmsiCode)</text><!--MD5=[90b796d63b6b3040cd4d0f38563823bb]
class US205--><rect codeLine="12" fill="#FEFECE" filter="url(#f1p94lct26ob6w)" height="75.6719" id="US205" style="stroke:#A80036;stroke-width:1.5;" width="120" x="188" y="116"/><ellipse cx="225.5" cy="132" fill="#ADD1B2" rx="11" ry="11" style="stroke:#A80036;stroke-width:1.0;"/><path d="M227.5,128.5 Q227.7031,128 227.9375,127.75 Q228.1719,127.5 228.4375,127.5 Q228.9063,127.5 229.2031,127.7813 Q229.5,128.0625 229.5,128.7188 L229.5,130.2813 Q229.5,130.9375 229.2188,131.2188 Q228.9375,131.5 228.5,131.5 Q228.1094,131.5 227.8594,131.3281 Q227.6094,131.1563 227.5,130.7031 Q227.4531,130.3906 227.2813,130.2188 Q226.9688,129.8906 226.4063,129.7031 Q225.8438,129.5 225.2813,129.5 Q224.5781,129.5 223.9844,129.7813 Q223.4063,130.0625 222.9531,130.6875 Q222.5,131.3125 222.5,132.1719 L222.5,133.0938 Q222.5,134.125 223.3438,134.8125 Q224.1875,135.5 225.6875,135.5 Q226.5781,135.5 227.2031,135.2969 Q227.5625,135.1875 227.9688,134.8281 Q228.2344,134.625 228.375,134.5625 Q228.5156,134.5 228.6875,134.5 Q229.0156,134.5 229.25,134.7656 Q229.5,135.0156 229.5,135.375 Q229.5,135.7188 229.1563,136.125 Q228.6563,136.7188 227.8594,137.0469 Q226.8125,137.5 225.5313,137.5 Q224.0313,137.5 222.8281,136.9063 Q221.8594,136.4375 221.1719,135.4219 Q220.5,134.4063 220.5,133.2031 L220.5,132.1094 Q220.5,130.8594 221.0938,129.7656 Q221.7031,128.6719 222.75,128.0938 Q223.8125,127.5 225,127.5 Q225.7188,127.5 226.3438,127.75 Q226.9688,128 227.5,128.5 Z " fill="#000000"/><text fill="#000000" font-family="sans-serif" font-size="12" lengthAdjust="spacing" textLength="38" x="244.5" y="136.9102">US205</text><line style="stroke:#A80036;stroke-width:1.5;" x1="189" x2="307" y1="148" y2="148"/><line style="stroke:#A80036;stroke-width:1.5;" x1="189" x2="307" y1="156" y2="156"/><rect fill="#F24D5C" height="6" style="stroke:#C82930;stroke-width:1.0;" width="6" x="196" y="164"/><text fill="#000000" font-family="sans-serif" font-size="11" lengthAdjust="spacing" textLength="94" x="208" y="171.4189">initialize(mmsiCode)</text><ellipse cx="199" cy="180.8359" fill="#84BE84" rx="3" ry="3" style="stroke:#038048;stroke-width:1.0;"/><text fill="#000000" font-family="sans-serif" font-size="11" lengthAdjust="spacing" textLength="45" x="208" y="185.2549">toString()</text><!--MD5=[c4c1f95cf25890b8d906953e22c853cc]
class WriteForAFile--><rect codeLine="18" fill="#FEFECE" filter="url(#f1p94lct26ob6w)" height="61.8359" id="WriteForAFile" style="stroke:#A80036;stroke-width:1.5;" width="188" x="154" y="270"/><ellipse cx="207.25" cy="286" fill="#ADD1B2" rx="11" ry="11" style="stroke:#A80036;stroke-width:1.0;"/><path d="M209.25,282.5 Q209.4531,282 209.6875,281.75 Q209.9219,281.5 210.1875,281.5 Q210.6563,281.5 210.9531,281.7813 Q211.25,282.0625 211.25,282.7188 L211.25,284.2813 Q211.25,284.9375 210.9688,285.2188 Q210.6875,285.5 210.25,285.5 Q209.8594,285.5 209.6094,285.3281 Q209.3594,285.1563 209.25,284.7031 Q209.2031,284.3906 209.0313,284.2188 Q208.7188,283.8906 208.1563,283.7031 Q207.5938,283.5 207.0313,283.5 Q206.3281,283.5 205.7344,283.7813 Q205.1563,284.0625 204.7031,284.6875 Q204.25,285.3125 204.25,286.1719 L204.25,287.0938 Q204.25,288.125 205.0938,288.8125 Q205.9375,289.5 207.4375,289.5 Q208.3281,289.5 208.9531,289.2969 Q209.3125,289.1875 209.7188,288.8281 Q209.9844,288.625 210.125,288.5625 Q210.2656,288.5 210.4375,288.5 Q210.7656,288.5 211,288.7656 Q211.25,289.0156 211.25,289.375 Q211.25,289.7188 210.9063,290.125 Q210.4063,290.7188 209.6094,291.0469 Q208.5625,291.5 207.2813,291.5 Q205.7813,291.5 204.5781,290.9063 Q203.6094,290.4375 202.9219,289.4219 Q202.25,288.4063 202.25,287.2031 L202.25,286.1094 Q202.25,284.8594 202.8438,283.7656 Q203.4531,282.6719 204.5,282.0938 Q205.5625,281.5 206.75,281.5 Q207.4688,281.5 208.0938,281.75 Q208.7188,282 209.25,282.5 Z " fill="#000000"/><text fill="#000000" font-family="sans-serif" font-size="12" lengthAdjust="spacing" textLength="73" x="227.75" y="290.9102">WriteForAFile</text><line style="stroke:#A80036;stroke-width:1.5;" x1="155" x2="341" y1="302" y2="302"/><line style="stroke:#A80036;stroke-width:1.5;" x1="155" x2="341" y1="310" y2="310"/><ellipse cx="165" cy="321" fill="#84BE84" rx="3" ry="3" style="stroke:#038048;stroke-width:1.0;"/><text fill="#000000" font-family="sans-serif" font-size="11" lengthAdjust="spacing" textLength="162" x="174" y="325.4189">writeForAFiLe(textualInformation)</text><!--MD5=[891785bfa09ef2d3173730cc00476803]
link UnloadUI to UnloadController--><path codeLine="24" d="M80,55.04 C80,72.74 80,97.49 80,117.69 " fill="none" id="UnloadUI-to-UnloadController" style="stroke:#A80036;stroke-width:1.0;stroke-dasharray:7.0,7.0;"/><polygon fill="#A80036" points="80,122.72,84,113.72,80,117.72,76,113.72,80,122.72" style="stroke:#A80036;stroke-width:1.0;"/><!--MD5=[fcc9a7fa5670c012cec7b40897a999c9]
link UnloadController to US205--><path codeLine="25" d="M153.17,154 C163.06,154 172.94,154 182.82,154 " fill="none" id="UnloadController-to-US205" style="stroke:#A80036;stroke-width:1.0;"/><polygon fill="#A80036" points="187.99,154,178.99,150,182.99,154,178.99,158,187.99,154" style="stroke:#A80036;stroke-width:1.0;"/><!--MD5=[13ef01235fc380b860129ce23b9fb49b]
link US205 to WriteForAFile--><path codeLine="26" d="M248,192.34 C248,214.56 248,242.59 248,264.48 " fill="none" id="US205-to-WriteForAFile" style="stroke:#A80036;stroke-width:1.0;"/><polygon fill="#A80036" points="248,269.62,252,260.62,248,264.62,244,260.62,248,269.62" style="stroke:#A80036;stroke-width:1.0;"/><text fill="#000000" font-family="sans-serif" font-size="13" lengthAdjust="spacing" textLength="28" x="249" y="236.4951">uses</text><!--MD5=[9261a492d6959392fced91c69bcede67]
@startuml
'https://plantuml.com/class-diagram

class UnloadUI{

}

class UnloadController{
+ createUS205(mmsiCode)
}


class US205 {
- initialize(mmsiCode)
+ toString()

}

class WriteForAFile{
+ writeForAFiLe(textualInformation)

}


UnloadUI ..> UnloadController
UnloadController -> US205
US205 - -> WriteForAFile : uses

@enduml

@startuml

class UnloadUI{

}

class UnloadController{
+ createUS205(mmsiCode)
}


class US205 {
- initialize(mmsiCode)
+ toString()

}

class WriteForAFile{
+ writeForAFiLe(textualInformation)

}


UnloadUI ..> UnloadController
UnloadController -> US205
US205 - -> WriteForAFile : uses

@enduml

PlantUML version 1.2021.11(Sat Oct 02 14:26:11 BST 2021)
(GPL source distribution)
Java Runtime: OpenJDK Runtime Environment
JVM: OpenJDK 64-Bit Server VM
Default Encoding: Cp1252
Language: pt
Country: PT
--></g></svg>