<?xml version="1.0" encoding="UTF-8" standalone="no"?><svg xmlns="http://www.w3.org/2000/svg" xmlns:xlink="http://www.w3.org/1999/xlink" contentScriptType="application/ecmascript" contentStyleType="text/css" height="526px" preserveAspectRatio="none" style="width:832px;height:526px;background:#FFFFFF;" version="1.1" viewBox="0 0 832 526" width="832px" zoomAndPan="magnify"><defs><filter height="300%" id="faq0hjaprb4ro" width="300%" x="-1" y="-1"><feGaussianBlur result="blurOut" stdDeviation="2.0"/><feColorMatrix in="blurOut" result="blurOut2" type="matrix" values="0 0 0 0 0 0 0 0 0 0 0 0 0 0 0 0 0 0 .4 0"/><feOffset dx="4.0" dy="4.0" in="blurOut2" result="blurOut3"/><feBlend in="SourceGraphic" in2="blurOut3" mode="normal"/></filter></defs><g><rect fill="#FFFFFF" filter="url(#faq0hjaprb4ro)" height="323.0703" style="stroke:#A80036;stroke-width:1.0;" width="10" x="49" y="99.6094"/><rect fill="#FFFFFF" filter="url(#faq0hjaprb4ro)" height="284.3672" style="stroke:#A80036;stroke-width:1.0;" width="10" x="340" y="138.3125"/><rect fill="#FFFFFF" filter="url(#faq0hjaprb4ro)" height="263.0156" style="stroke:#A80036;stroke-width:1.0;" width="10" x="452" y="168.6641"/><rect fill="#FFFFFF" filter="url(#faq0hjaprb4ro)" height="138.7031" style="stroke:#A80036;stroke-width:1.0;" width="10" x="548" y="253.625"/><rect fill="#FFFFFF" filter="url(#faq0hjaprb4ro)" height="28" style="stroke:#A80036;stroke-width:1.0;" width="10" x="553" y="296.9766"/><rect fill="#FFFFFF" filter="url(#faq0hjaprb4ro)" height="30" style="stroke:#A80036;stroke-width:1.0;" width="10" x="763" y="362.3281"/><line style="stroke:#A80036;stroke-width:1.0;stroke-dasharray:5.0,5.0;" x1="54" x2="54" y1="89.6094" y2="440.6797"/><line style="stroke:#A80036;stroke-width:1.0;stroke-dasharray:5.0,5.0;" x1="345" x2="345" y1="89.6094" y2="440.6797"/><line style="stroke:#A80036;stroke-width:1.0;stroke-dasharray:5.0,5.0;" x1="457" x2="457" y1="89.6094" y2="440.6797"/><line style="stroke:#A80036;stroke-width:1.0;stroke-dasharray:5.0,5.0;" x1="553" x2="553" y1="209.9688" y2="440.6797"/><line style="stroke:#A80036;stroke-width:1.0;stroke-dasharray:5.0,5.0;" x1="767.5" x2="767.5" y1="89.6094" y2="440.6797"/><text fill="#000000" font-family="sans-serif" font-size="14" lengthAdjust="spacing" textLength="92" x="5" y="86.5332">Fleet Manager</text><ellipse cx="54" cy="15" fill="#FEFECE" filter="url(#faq0hjaprb4ro)" rx="8" ry="8" style="stroke:#A80036;stroke-width:2.0;"/><path d="M54,23 L54,50 M41,31 L67,31 M54,50 L41,65 M54,50 L67,65 " fill="none" filter="url(#faq0hjaprb4ro)" style="stroke:#A80036;stroke-width:2.0;"/><text fill="#000000" font-family="sans-serif" font-size="14" lengthAdjust="spacing" textLength="92" x="5" y="454.2129">Fleet Manager</text><ellipse cx="54" cy="467.2891" fill="#FEFECE" filter="url(#faq0hjaprb4ro)" rx="8" ry="8" style="stroke:#A80036;stroke-width:2.0;"/><path d="M54,475.2891 L54,502.2891 M41,483.2891 L67,483.2891 M54,502.2891 L41,517.2891 M54,502.2891 L67,517.2891 " fill="none" filter="url(#faq0hjaprb4ro)" style="stroke:#A80036;stroke-width:2.0;"/><rect fill="#FEFECE" filter="url(#faq0hjaprb4ro)" height="31.6094" style="stroke:#A80036;stroke-width:1.5;" width="54" x="316" y="53"/><text fill="#000000" font-family="sans-serif" font-size="14" lengthAdjust="spacing" textLength="40" x="323" y="74.5332">:406UI</text><rect fill="#FEFECE" filter="url(#faq0hjaprb4ro)" height="31.6094" style="stroke:#A80036;stroke-width:1.5;" width="54" x="316" y="439.6797"/><text fill="#000000" font-family="sans-serif" font-size="14" lengthAdjust="spacing" textLength="40" x="323" y="461.2129">:406UI</text><rect fill="#FEFECE" filter="url(#faq0hjaprb4ro)" height="31.6094" style="stroke:#A80036;stroke-width:1.5;" width="104" x="403" y="53"/><text fill="#000000" font-family="sans-serif" font-size="14" lengthAdjust="spacing" textLength="90" x="410" y="74.5332">:406Controller</text><rect fill="#FEFECE" filter="url(#faq0hjaprb4ro)" height="31.6094" style="stroke:#A80036;stroke-width:1.5;" width="104" x="403" y="439.6797"/><text fill="#000000" font-family="sans-serif" font-size="14" lengthAdjust="spacing" textLength="90" x="410" y="461.2129">:406Controller</text><rect fill="#FEFECE" filter="url(#faq0hjaprb4ro)" height="31.6094" style="stroke:#A80036;stroke-width:1.5;" width="42" x="530" y="439.6797"/><text fill="#000000" font-family="sans-serif" font-size="14" lengthAdjust="spacing" textLength="28" x="537" y="461.2129">:406</text><rect fill="#FEFECE" filter="url(#faq0hjaprb4ro)" height="31.6094" style="stroke:#A80036;stroke-width:1.5;" width="105" x="713.5" y="53"/><text fill="#000000" font-family="sans-serif" font-size="14" lengthAdjust="spacing" textLength="91" x="720.5" y="74.5332">:WriteForAFile</text><rect fill="#FEFECE" filter="url(#faq0hjaprb4ro)" height="31.6094" style="stroke:#A80036;stroke-width:1.5;" width="105" x="713.5" y="439.6797"/><text fill="#000000" font-family="sans-serif" font-size="14" lengthAdjust="spacing" textLength="91" x="720.5" y="461.2129">:WriteForAFile</text><rect fill="#FFFFFF" filter="url(#faq0hjaprb4ro)" height="323.0703" style="stroke:#A80036;stroke-width:1.0;" width="10" x="49" y="99.6094"/><rect fill="#FFFFFF" filter="url(#faq0hjaprb4ro)" height="284.3672" style="stroke:#A80036;stroke-width:1.0;" width="10" x="340" y="138.3125"/><rect fill="#FFFFFF" filter="url(#faq0hjaprb4ro)" height="263.0156" style="stroke:#A80036;stroke-width:1.0;" width="10" x="452" y="168.6641"/><rect fill="#FFFFFF" filter="url(#faq0hjaprb4ro)" height="138.7031" style="stroke:#A80036;stroke-width:1.0;" width="10" x="548" y="253.625"/><rect fill="#FFFFFF" filter="url(#faq0hjaprb4ro)" height="28" style="stroke:#A80036;stroke-width:1.0;" width="10" x="553" y="296.9766"/><rect fill="#FFFFFF" filter="url(#faq0hjaprb4ro)" height="30" style="stroke:#A80036;stroke-width:1.0;" width="10" x="763" y="362.3281"/><polygon fill="#A80036" points="328,134.3125,338,138.3125,328,142.3125,332,138.3125" style="stroke:#A80036;stroke-width:1.0;"/><line style="stroke:#A80036;stroke-width:1.0;" x1="59" x2="334" y1="138.3125" y2="138.3125"/><text fill="#000000" font-family="sans-serif" font-size="13" lengthAdjust="spacing" textLength="258" x="66" y="117.1045">requests to know which ship voyages had an</text><text fill="#000000" font-family="sans-serif" font-size="13" lengthAdjust="spacing" textLength="237" x="66" y="133.4561">occupancy rate below a certain threshold</text><polygon fill="#A80036" points="440,164.6641,450,168.6641,440,172.6641,444,168.6641" style="stroke:#A80036;stroke-width:1.0;"/><line style="stroke:#A80036;stroke-width:1.0;" x1="350" x2="446" y1="168.6641" y2="168.6641"/><text fill="#000000" font-family="sans-serif" font-size="13" lengthAdjust="spacing" textLength="83" x="357" y="163.8076">createUS405()</text><polygon fill="#A80036" points="518,195.0156,528,199.0156,518,203.0156,522,199.0156" style="stroke:#A80036;stroke-width:1.0;"/><line style="stroke:#A80036;stroke-width:1.0;" x1="462" x2="524" y1="199.0156" y2="199.0156"/><text fill="#000000" font-family="sans-serif" font-size="13" lengthAdjust="spacing" textLength="44" x="469" y="194.1592">create()</text><rect fill="#FEFECE" filter="url(#faq0hjaprb4ro)" height="31.6094" style="stroke:#A80036;stroke-width:1.5;" width="42" x="530" y="176.6641"/><text fill="#000000" font-family="sans-serif" font-size="14" lengthAdjust="spacing" textLength="28" x="537" y="198.1973">:406</text><line style="stroke:#A80036;stroke-width:1.0;" x1="553" x2="600" y1="240.625" y2="240.625"/><line style="stroke:#A80036;stroke-width:1.0;" x1="600" x2="600" y1="240.625" y2="253.625"/><line style="stroke:#A80036;stroke-width:1.0;" x1="559" x2="600" y1="253.625" y2="253.625"/><polygon fill="#A80036" points="569,249.625,559,253.625,569,257.625,565,253.625" style="stroke:#A80036;stroke-width:1.0;"/><text fill="#000000" font-family="sans-serif" font-size="13" lengthAdjust="spacing" textLength="55" x="565" y="235.7686">initialize()</text><line style="stroke:#A80036;stroke-width:1.0;" x1="563" x2="605" y1="288.9766" y2="288.9766"/><line style="stroke:#A80036;stroke-width:1.0;" x1="605" x2="605" y1="288.9766" y2="301.9766"/><line style="stroke:#A80036;stroke-width:1.0;" x1="564" x2="605" y1="301.9766" y2="301.9766"/><polygon fill="#A80036" points="574,297.9766,564,301.9766,574,305.9766,570,301.9766" style="stroke:#A80036;stroke-width:1.0;"/><text fill="#000000" font-family="sans-serif" font-size="13" lengthAdjust="spacing" textLength="171" x="570" y="284.1201">textualInformation = toString()</text><polygon fill="#A80036" points="751,358.3281,761,362.3281,751,366.3281,755,362.3281" style="stroke:#A80036;stroke-width:1.0;"/><line style="stroke:#A80036;stroke-width:1.0;" x1="558" x2="757" y1="362.3281" y2="362.3281"/><text fill="#000000" font-family="sans-serif" font-size="13" lengthAdjust="spacing" textLength="186" x="565" y="357.4717">writeForAFile(textualInformation)</text><polygon fill="#A80036" points="65,418.6797,55,422.6797,65,426.6797,61,422.6797" style="stroke:#A80036;stroke-width:1.0;"/><line style="stroke:#A80036;stroke-width:1.0;stroke-dasharray:2.0,2.0;" x1="59" x2="344" y1="422.6797" y2="422.6797"/><text fill="#000000" font-family="sans-serif" font-size="13" lengthAdjust="spacing" textLength="98" x="71" y="417.8232">receive the result</text><!--MD5=[f0de440a922f50a75b5815e88a6f4b7a]
@startuml
'https://plantuml.com/sequence-diagram

actor "Fleet Manager" as FM
participant ":406UI" as UI
participant ":406Controller" as CT
participant ":406" as US
participant ":WriteForAFile" as WF

activate FM
FM -> UI : requests to know which ship voyages had an \noccupancy rate below a certain threshold

activate UI
UI->CT : createUS405()
activate CT
CT -> US** : create()
US -> US : initialize()
activate US
US->US : textualInformation = toString()
activate US
deactivate US
US -> WF : writeForAFile(textualInformation)
activate WF
deactivate WF
deactivate US
UI - -> FM : receive the result
deactivate UI
deactivate FM
@enduml

@startuml

actor "Fleet Manager" as FM
participant ":406UI" as UI
participant ":406Controller" as CT
participant ":406" as US
participant ":WriteForAFile" as WF

activate FM
FM -> UI : requests to know which ship voyages had an \noccupancy rate below a certain threshold

activate UI
UI->CT : createUS405()
activate CT
CT -> US** : create()
US -> US : initialize()
activate US
US->US : textualInformation = toString()
activate US
deactivate US
US -> WF : writeForAFile(textualInformation)
activate WF
deactivate WF
deactivate US
UI - -> FM : receive the result
deactivate UI
deactivate FM
@enduml

PlantUML version 1.2021.11(Sat Oct 02 14:26:11 BST 2021)
(GPL source distribution)
Java Runtime: OpenJDK Runtime Environment
JVM: OpenJDK 64-Bit Server VM
Default Encoding: Cp1252
Language: pt
Country: PT
--></g></svg>