<?xml version="1.0" encoding="UTF-8" standalone="no"?><svg xmlns="http://www.w3.org/2000/svg" xmlns:xlink="http://www.w3.org/1999/xlink" contentScriptType="application/ecmascript" contentStyleType="text/css" height="345px" preserveAspectRatio="none" style="width:311px;height:345px;background:#FFFFFF;" version="1.1" viewBox="0 0 311 345" width="311px" zoomAndPan="magnify"><defs><filter height="300%" id="fd4jt0ft3coke" width="300%" x="-1" y="-1"><feGaussianBlur result="blurOut" stdDeviation="2.0"/><feColorMatrix in="blurOut" result="blurOut2" type="matrix" values="0 0 0 0 0 0 0 0 0 0 0 0 0 0 0 0 0 0 .4 0"/><feOffset dx="4.0" dy="4.0" in="blurOut2" result="blurOut3"/><feBlend in="SourceGraphic" in2="blurOut3" mode="normal"/></filter></defs><g><!--MD5=[cd03b77ab21538e3a596db4b3d40308b]
class 406UI--><rect codeLine="3" fill="#FEFECE" filter="url(#fd4jt0ft3coke)" height="48" id="406UI" style="stroke:#A80036;stroke-width:1.5;" width="65" x="28" y="7"/><ellipse cx="43" cy="23" fill="#ADD1B2" rx="11" ry="11" style="stroke:#A80036;stroke-width:1.0;"/><path d="M45,19.5 Q45.2031,19 45.4375,18.75 Q45.6719,18.5 45.9375,18.5 Q46.4063,18.5 46.7031,18.7813 Q47,19.0625 47,19.7188 L47,21.2813 Q47,21.9375 46.7188,22.2188 Q46.4375,22.5 46,22.5 Q45.6094,22.5 45.3594,22.3281 Q45.1094,22.1563 45,21.7031 Q44.9531,21.3906 44.7813,21.2188 Q44.4688,20.8906 43.9063,20.7031 Q43.3438,20.5 42.7813,20.5 Q42.0781,20.5 41.4844,20.7813 Q40.9063,21.0625 40.4531,21.6875 Q40,22.3125 40,23.1719 L40,24.0938 Q40,25.125 40.8438,25.8125 Q41.6875,26.5 43.1875,26.5 Q44.0781,26.5 44.7031,26.2969 Q45.0625,26.1875 45.4688,25.8281 Q45.7344,25.625 45.875,25.5625 Q46.0156,25.5 46.1875,25.5 Q46.5156,25.5 46.75,25.7656 Q47,26.0156 47,26.375 Q47,26.7188 46.6563,27.125 Q46.1563,27.7188 45.3594,28.0469 Q44.3125,28.5 43.0313,28.5 Q41.5313,28.5 40.3281,27.9063 Q39.3594,27.4375 38.6719,26.4219 Q38,25.4063 38,24.2031 L38,23.1094 Q38,21.8594 38.5938,20.7656 Q39.2031,19.6719 40.25,19.0938 Q41.3125,18.5 42.5,18.5 Q43.2188,18.5 43.8438,18.75 Q44.4688,19 45,19.5 Z " fill="#000000"/><text fill="#000000" font-family="sans-serif" font-size="12" lengthAdjust="spacing" textLength="33" x="57" y="27.9102">406UI</text><line style="stroke:#A80036;stroke-width:1.5;" x1="29" x2="92" y1="39" y2="39"/><line style="stroke:#A80036;stroke-width:1.5;" x1="29" x2="92" y1="47" y2="47"/><!--MD5=[b77d86c5eca5e501651bbebe6c4ff3cb]
class 406Controller--><rect codeLine="6" fill="#FEFECE" filter="url(#fd4jt0ft3coke)" height="61.8359" id="406Controller" style="stroke:#A80036;stroke-width:1.5;" width="107" x="7" y="123"/><ellipse cx="22" cy="139" fill="#ADD1B2" rx="11" ry="11" style="stroke:#A80036;stroke-width:1.0;"/><path d="M24,135.5 Q24.2031,135 24.4375,134.75 Q24.6719,134.5 24.9375,134.5 Q25.4063,134.5 25.7031,134.7813 Q26,135.0625 26,135.7188 L26,137.2813 Q26,137.9375 25.7188,138.2188 Q25.4375,138.5 25,138.5 Q24.6094,138.5 24.3594,138.3281 Q24.1094,138.1563 24,137.7031 Q23.9531,137.3906 23.7813,137.2188 Q23.4688,136.8906 22.9063,136.7031 Q22.3438,136.5 21.7813,136.5 Q21.0781,136.5 20.4844,136.7813 Q19.9063,137.0625 19.4531,137.6875 Q19,138.3125 19,139.1719 L19,140.0938 Q19,141.125 19.8438,141.8125 Q20.6875,142.5 22.1875,142.5 Q23.0781,142.5 23.7031,142.2969 Q24.0625,142.1875 24.4688,141.8281 Q24.7344,141.625 24.875,141.5625 Q25.0156,141.5 25.1875,141.5 Q25.5156,141.5 25.75,141.7656 Q26,142.0156 26,142.375 Q26,142.7188 25.6563,143.125 Q25.1563,143.7188 24.3594,144.0469 Q23.3125,144.5 22.0313,144.5 Q20.5313,144.5 19.3281,143.9063 Q18.3594,143.4375 17.6719,142.4219 Q17,141.4063 17,140.2031 L17,139.1094 Q17,137.8594 17.5938,136.7656 Q18.2031,135.6719 19.25,135.0938 Q20.3125,134.5 21.5,134.5 Q22.2188,134.5 22.8438,134.75 Q23.4688,135 24,135.5 Z " fill="#000000"/><text fill="#000000" font-family="sans-serif" font-size="12" lengthAdjust="spacing" textLength="75" x="36" y="143.9102">406Controller</text><line style="stroke:#A80036;stroke-width:1.5;" x1="8" x2="113" y1="155" y2="155"/><line style="stroke:#A80036;stroke-width:1.5;" x1="8" x2="113" y1="163" y2="163"/><ellipse cx="18" cy="174" fill="#84BE84" rx="3" ry="3" style="stroke:#038048;stroke-width:1.0;"/><text fill="#000000" font-family="sans-serif" font-size="11" lengthAdjust="spacing" textLength="57" x="27" y="178.4189">create405()</text><!--MD5=[246658d57856b2f3f38c68b43ee5bf20]
class 406--><rect codeLine="11" fill="#FEFECE" filter="url(#fd4jt0ft3coke)" height="75.6719" id="406" style="stroke:#A80036;stroke-width:1.5;" width="71" x="149" y="116"/><ellipse cx="172.1" cy="132" fill="#ADD1B2" rx="11" ry="11" style="stroke:#A80036;stroke-width:1.0;"/><path d="M174.1,128.5 Q174.3031,128 174.5375,127.75 Q174.7719,127.5 175.0375,127.5 Q175.5063,127.5 175.8031,127.7813 Q176.1,128.0625 176.1,128.7188 L176.1,130.2813 Q176.1,130.9375 175.8188,131.2188 Q175.5375,131.5 175.1,131.5 Q174.7094,131.5 174.4594,131.3281 Q174.2094,131.1563 174.1,130.7031 Q174.0531,130.3906 173.8813,130.2188 Q173.5688,129.8906 173.0063,129.7031 Q172.4438,129.5 171.8813,129.5 Q171.1781,129.5 170.5844,129.7813 Q170.0063,130.0625 169.5531,130.6875 Q169.1,131.3125 169.1,132.1719 L169.1,133.0938 Q169.1,134.125 169.9438,134.8125 Q170.7875,135.5 172.2875,135.5 Q173.1781,135.5 173.8031,135.2969 Q174.1625,135.1875 174.5688,134.8281 Q174.8344,134.625 174.975,134.5625 Q175.1156,134.5 175.2875,134.5 Q175.6156,134.5 175.85,134.7656 Q176.1,135.0156 176.1,135.375 Q176.1,135.7188 175.7563,136.125 Q175.2563,136.7188 174.4594,137.0469 Q173.4125,137.5 172.1313,137.5 Q170.6313,137.5 169.4281,136.9063 Q168.4594,136.4375 167.7719,135.4219 Q167.1,134.4063 167.1,133.2031 L167.1,132.1094 Q167.1,130.8594 167.6938,129.7656 Q168.3031,128.6719 169.35,128.0938 Q170.4125,127.5 171.6,127.5 Q172.3188,127.5 172.9438,127.75 Q173.5688,128 174.1,128.5 Z " fill="#000000"/><text fill="#000000" font-family="sans-serif" font-size="12" lengthAdjust="spacing" textLength="21" x="187.9" y="136.9102">406</text><line style="stroke:#A80036;stroke-width:1.5;" x1="150" x2="219" y1="148" y2="148"/><line style="stroke:#A80036;stroke-width:1.5;" x1="150" x2="219" y1="156" y2="156"/><rect fill="#F24D5C" height="6" style="stroke:#C82930;stroke-width:1.0;" width="6" x="157" y="164"/><text fill="#000000" font-family="sans-serif" font-size="11" lengthAdjust="spacing" textLength="45" x="169" y="171.4189">initialize()</text><ellipse cx="160" cy="180.8359" fill="#84BE84" rx="3" ry="3" style="stroke:#038048;stroke-width:1.0;"/><text fill="#000000" font-family="sans-serif" font-size="11" lengthAdjust="spacing" textLength="45" x="169" y="185.2549">toString()</text><!--MD5=[c4c1f95cf25890b8d906953e22c853cc]
class WriteForAFile--><rect codeLine="16" fill="#FEFECE" filter="url(#fd4jt0ft3coke)" height="61.8359" id="WriteForAFile" style="stroke:#A80036;stroke-width:1.5;" width="225" x="72" y="270"/><ellipse cx="143.75" cy="286" fill="#ADD1B2" rx="11" ry="11" style="stroke:#A80036;stroke-width:1.0;"/><path d="M145.75,282.5 Q145.9531,282 146.1875,281.75 Q146.4219,281.5 146.6875,281.5 Q147.1563,281.5 147.4531,281.7813 Q147.75,282.0625 147.75,282.7188 L147.75,284.2813 Q147.75,284.9375 147.4688,285.2188 Q147.1875,285.5 146.75,285.5 Q146.3594,285.5 146.1094,285.3281 Q145.8594,285.1563 145.75,284.7031 Q145.7031,284.3906 145.5313,284.2188 Q145.2188,283.8906 144.6563,283.7031 Q144.0938,283.5 143.5313,283.5 Q142.8281,283.5 142.2344,283.7813 Q141.6563,284.0625 141.2031,284.6875 Q140.75,285.3125 140.75,286.1719 L140.75,287.0938 Q140.75,288.125 141.5938,288.8125 Q142.4375,289.5 143.9375,289.5 Q144.8281,289.5 145.4531,289.2969 Q145.8125,289.1875 146.2188,288.8281 Q146.4844,288.625 146.625,288.5625 Q146.7656,288.5 146.9375,288.5 Q147.2656,288.5 147.5,288.7656 Q147.75,289.0156 147.75,289.375 Q147.75,289.7188 147.4063,290.125 Q146.9063,290.7188 146.1094,291.0469 Q145.0625,291.5 143.7813,291.5 Q142.2813,291.5 141.0781,290.9063 Q140.1094,290.4375 139.4219,289.4219 Q138.75,288.4063 138.75,287.2031 L138.75,286.1094 Q138.75,284.8594 139.3438,283.7656 Q139.9531,282.6719 141,282.0938 Q142.0625,281.5 143.25,281.5 Q143.9688,281.5 144.5938,281.75 Q145.2188,282 145.75,282.5 Z " fill="#000000"/><text fill="#000000" font-family="sans-serif" font-size="12" lengthAdjust="spacing" textLength="73" x="164.25" y="290.9102">WriteForAFile</text><line style="stroke:#A80036;stroke-width:1.5;" x1="73" x2="296" y1="302" y2="302"/><line style="stroke:#A80036;stroke-width:1.5;" x1="73" x2="296" y1="310" y2="310"/><ellipse cx="83" cy="321" fill="#84BE84" rx="3" ry="3" style="stroke:#038048;stroke-width:1.0;"/><text fill="#000000" font-family="sans-serif" font-size="11" lengthAdjust="spacing" textLength="199" x="92" y="325.4189">writeForAFiLe(textualInformation : String)</text><!--MD5=[f494ac5a40af5f30ae5ba6093cff7d23]
link 406UI to 406Controller--><path codeLine="20" d="M60.5,55.04 C60.5,72.74 60.5,97.49 60.5,117.69 " fill="none" id="406UI-to-406Controller" style="stroke:#A80036;stroke-width:1.0;stroke-dasharray:7.0,7.0;"/><polygon fill="#A80036" points="60.5,122.72,64.5,113.72,60.5,117.72,56.5,113.72,60.5,122.72" style="stroke:#A80036;stroke-width:1.0;"/><!--MD5=[a8720afb07d2909b2ee1796a3db79e0a]
link 406Controller to 406--><path codeLine="21" d="M114.27,154 C124.08,154 133.89,154 143.7,154 " fill="none" id="406Controller-to-406" style="stroke:#A80036;stroke-width:1.0;"/><polygon fill="#A80036" points="148.83,154,139.83,150,143.83,154,139.83,158,148.83,154" style="stroke:#A80036;stroke-width:1.0;"/><!--MD5=[4c7ade0459fa25c00f0aed6e37d9e925]
link 406 to WriteForAFile--><path codeLine="22" d="M184.5,192.34 C184.5,214.56 184.5,242.59 184.5,264.48 " fill="none" id="406-to-WriteForAFile" style="stroke:#A80036;stroke-width:1.0;"/><polygon fill="#A80036" points="184.5,269.62,188.5,260.62,184.5,264.62,180.5,260.62,184.5,269.62" style="stroke:#A80036;stroke-width:1.0;"/><text fill="#000000" font-family="sans-serif" font-size="13" lengthAdjust="spacing" textLength="28" x="185.5" y="236.4951">uses</text><!--MD5=[c6a408b79d2a13f40c5de2d04d1ffc8c]
@startuml
'https://plantuml.com/sequence-diagram

class 406UI{
}

class 406Controller{
+ create405()
}


class 406 {
- initialize()
+ toString()
}

class WriteForAFile{
+ writeForAFiLe(textualInformation : String)
}

406UI ..> 406Controller
406Controller-> 406
406 - -> WriteForAFile : uses
@enduml

@startuml

class 406UI{
}

class 406Controller{
+ create405()
}


class 406 {
- initialize()
+ toString()
}

class WriteForAFile{
+ writeForAFiLe(textualInformation : String)
}

406UI ..> 406Controller
406Controller-> 406
406 - -> WriteForAFile : uses
@enduml

PlantUML version 1.2021.11(Sat Oct 02 14:26:11 BST 2021)
(GPL source distribution)
Java Runtime: OpenJDK Runtime Environment
JVM: OpenJDK 64-Bit Server VM
Default Encoding: Cp1252
Language: pt
Country: PT
--></g></svg>