<?xml version="1.0" encoding="UTF-8" standalone="no"?><svg xmlns="http://www.w3.org/2000/svg" xmlns:xlink="http://www.w3.org/1999/xlink" contentScriptType="application/ecmascript" contentStyleType="text/css" height="213px" preserveAspectRatio="none" style="width:532px;height:213px;background:#FFFFFF;" version="1.1" viewBox="0 0 532 213" width="532px" zoomAndPan="magnify"><defs><filter height="300%" id="fhot12ytzt34z" width="300%" x="-1" y="-1"><feGaussianBlur result="blurOut" stdDeviation="2.0"/><feColorMatrix in="blurOut" result="blurOut2" type="matrix" values="0 0 0 0 0 0 0 0 0 0 0 0 0 0 0 0 0 0 .4 0"/><feOffset dx="4.0" dy="4.0" in="blurOut2" result="blurOut3"/><feBlend in="SourceGraphic" in2="blurOut3" mode="normal"/></filter></defs><g><!--MD5=[02e4b9b7573f1156f41e60aa5b4e25a4]
class Company--><rect codeLine="6" fill="#FEFECE" filter="url(#fhot12ytzt34z)" height="53.8359" id="Company" style="stroke:#A80036;stroke-width:1.5;" width="85" x="7" y="76"/><ellipse cx="22" cy="92" fill="#ADD1B2" rx="11" ry="11" style="stroke:#A80036;stroke-width:1.0;"/><path d="M24,88.5 Q24.2031,88 24.4375,87.75 Q24.6719,87.5 24.9375,87.5 Q25.4063,87.5 25.7031,87.7813 Q26,88.0625 26,88.7188 L26,90.2813 Q26,90.9375 25.7188,91.2188 Q25.4375,91.5 25,91.5 Q24.6094,91.5 24.3594,91.3281 Q24.1094,91.1563 24,90.7031 Q23.9531,90.3906 23.7813,90.2188 Q23.4688,89.8906 22.9063,89.7031 Q22.3438,89.5 21.7813,89.5 Q21.0781,89.5 20.4844,89.7813 Q19.9063,90.0625 19.4531,90.6875 Q19,91.3125 19,92.1719 L19,93.0938 Q19,94.125 19.8438,94.8125 Q20.6875,95.5 22.1875,95.5 Q23.0781,95.5 23.7031,95.2969 Q24.0625,95.1875 24.4688,94.8281 Q24.7344,94.625 24.875,94.5625 Q25.0156,94.5 25.1875,94.5 Q25.5156,94.5 25.75,94.7656 Q26,95.0156 26,95.375 Q26,95.7188 25.6563,96.125 Q25.1563,96.7188 24.3594,97.0469 Q23.3125,97.5 22.0313,97.5 Q20.5313,97.5 19.3281,96.9063 Q18.3594,96.4375 17.6719,95.4219 Q17,94.4063 17,93.2031 L17,92.1094 Q17,90.8594 17.5938,89.7656 Q18.2031,88.6719 19.25,88.0938 Q20.3125,87.5 21.5,87.5 Q22.2188,87.5 22.8438,87.75 Q23.4688,88 24,88.5 Z " fill="#000000"/><text fill="#000000" font-family="sans-serif" font-size="12" lengthAdjust="spacing" textLength="53" x="36" y="96.9102">Company</text><line style="stroke:#A80036;stroke-width:1.5;" x1="8" x2="91" y1="108" y2="108"/><text fill="#000000" font-family="sans-serif" font-size="11" lengthAdjust="spacing" textLength="59" x="13" y="123.4189">-designation</text><!--MD5=[0dc7f2ddb409b58bcf52b12238c25399]
class Ship--><rect codeLine="9" fill="#FEFECE" filter="url(#fhot12ytzt34z)" height="192.1953" id="Ship" style="stroke:#A80036;stroke-width:1.5;" width="141" x="177" y="7"/><ellipse cx="230.75" cy="23" fill="#ADD1B2" rx="11" ry="11" style="stroke:#A80036;stroke-width:1.0;"/><path d="M232.75,19.5 Q232.9531,19 233.1875,18.75 Q233.4219,18.5 233.6875,18.5 Q234.1563,18.5 234.4531,18.7813 Q234.75,19.0625 234.75,19.7188 L234.75,21.2813 Q234.75,21.9375 234.4688,22.2188 Q234.1875,22.5 233.75,22.5 Q233.3594,22.5 233.1094,22.3281 Q232.8594,22.1563 232.75,21.7031 Q232.7031,21.3906 232.5313,21.2188 Q232.2188,20.8906 231.6563,20.7031 Q231.0938,20.5 230.5313,20.5 Q229.8281,20.5 229.2344,20.7813 Q228.6563,21.0625 228.2031,21.6875 Q227.75,22.3125 227.75,23.1719 L227.75,24.0938 Q227.75,25.125 228.5938,25.8125 Q229.4375,26.5 230.9375,26.5 Q231.8281,26.5 232.4531,26.2969 Q232.8125,26.1875 233.2188,25.8281 Q233.4844,25.625 233.625,25.5625 Q233.7656,25.5 233.9375,25.5 Q234.2656,25.5 234.5,25.7656 Q234.75,26.0156 234.75,26.375 Q234.75,26.7188 234.4063,27.125 Q233.9063,27.7188 233.1094,28.0469 Q232.0625,28.5 230.7813,28.5 Q229.2813,28.5 228.0781,27.9063 Q227.1094,27.4375 226.4219,26.4219 Q225.75,25.4063 225.75,24.2031 L225.75,23.1094 Q225.75,21.8594 226.3438,20.7656 Q226.9531,19.6719 228,19.0938 Q229.0625,18.5 230.25,18.5 Q230.9688,18.5 231.5938,18.75 Q232.2188,19 232.75,19.5 Z " fill="#000000"/><text fill="#000000" font-family="sans-serif" font-size="12" lengthAdjust="spacing" textLength="25" x="251.25" y="27.9102">Ship</text><line style="stroke:#A80036;stroke-width:1.5;" x1="178" x2="317" y1="39" y2="39"/><text fill="#000000" font-family="sans-serif" font-size="11" lengthAdjust="spacing" textLength="53" x="183" y="54.4189">-mmsiCode</text><text fill="#000000" font-family="sans-serif" font-size="11" lengthAdjust="spacing" textLength="30" x="183" y="68.2549">-name</text><text fill="#000000" font-family="sans-serif" font-size="11" lengthAdjust="spacing" textLength="45" x="183" y="82.0908">-imoCode</text><text fill="#000000" font-family="sans-serif" font-size="11" lengthAdjust="spacing" textLength="129" x="183" y="95.9268">-numberEnergyGenerators</text><text fill="#000000" font-family="sans-serif" font-size="11" lengthAdjust="spacing" textLength="83" x="183" y="109.7627">-generatorPower</text><text fill="#000000" font-family="sans-serif" font-size="11" lengthAdjust="spacing" textLength="41" x="183" y="123.5986">-callSign</text><text fill="#000000" font-family="sans-serif" font-size="11" lengthAdjust="spacing" textLength="60" x="183" y="137.4346">-vesselType</text><text fill="#000000" font-family="sans-serif" font-size="11" lengthAdjust="spacing" textLength="33" x="183" y="151.2705">-length</text><text fill="#000000" font-family="sans-serif" font-size="11" lengthAdjust="spacing" textLength="31" x="183" y="165.1064">-width</text><text fill="#000000" font-family="sans-serif" font-size="11" lengthAdjust="spacing" textLength="45" x="183" y="178.9424">-capacity</text><text fill="#000000" font-family="sans-serif" font-size="11" lengthAdjust="spacing" textLength="27" x="183" y="192.7783">-draft</text><!--MD5=[efa7c3600894dd6faaa8b816738c33b1]
class ShipLocation--><rect codeLine="23" fill="#FEFECE" filter="url(#fhot12ytzt34z)" height="150.6875" id="ShipLocation" style="stroke:#A80036;stroke-width:1.5;" width="104" x="414" y="27.5"/><ellipse cx="429" cy="43.5" fill="#ADD1B2" rx="11" ry="11" style="stroke:#A80036;stroke-width:1.0;"/><path d="M431,40 Q431.2031,39.5 431.4375,39.25 Q431.6719,39 431.9375,39 Q432.4063,39 432.7031,39.2813 Q433,39.5625 433,40.2188 L433,41.7813 Q433,42.4375 432.7188,42.7188 Q432.4375,43 432,43 Q431.6094,43 431.3594,42.8281 Q431.1094,42.6563 431,42.2031 Q430.9531,41.8906 430.7813,41.7188 Q430.4688,41.3906 429.9063,41.2031 Q429.3438,41 428.7813,41 Q428.0781,41 427.4844,41.2813 Q426.9063,41.5625 426.4531,42.1875 Q426,42.8125 426,43.6719 L426,44.5938 Q426,45.625 426.8438,46.3125 Q427.6875,47 429.1875,47 Q430.0781,47 430.7031,46.7969 Q431.0625,46.6875 431.4688,46.3281 Q431.7344,46.125 431.875,46.0625 Q432.0156,46 432.1875,46 Q432.5156,46 432.75,46.2656 Q433,46.5156 433,46.875 Q433,47.2188 432.6563,47.625 Q432.1563,48.2188 431.3594,48.5469 Q430.3125,49 429.0313,49 Q427.5313,49 426.3281,48.4063 Q425.3594,47.9375 424.6719,46.9219 Q424,45.9063 424,44.7031 L424,43.6094 Q424,42.3594 424.5938,41.2656 Q425.2031,40.1719 426.25,39.5938 Q427.3125,39 428.5,39 Q429.2188,39 429.8438,39.25 Q430.4688,39.5 431,40 Z " fill="#000000"/><text fill="#000000" font-family="sans-serif" font-size="12" lengthAdjust="spacing" textLength="72" x="443" y="48.4102">ShipLocation</text><line style="stroke:#A80036;stroke-width:1.5;" x1="415" x2="517" y1="59.5" y2="59.5"/><text fill="#000000" font-family="sans-serif" font-size="11" lengthAdjust="spacing" textLength="72" x="420" y="74.9189">-baseDateTime</text><text fill="#000000" font-family="sans-serif" font-size="11" lengthAdjust="spacing" textLength="38" x="420" y="88.7549">-latitude</text><text fill="#000000" font-family="sans-serif" font-size="11" lengthAdjust="spacing" textLength="47" x="420" y="102.5908">-longitude</text><text fill="#000000" font-family="sans-serif" font-size="11" lengthAdjust="spacing" textLength="22" x="420" y="116.4268">-sog</text><text fill="#000000" font-family="sans-serif" font-size="11" lengthAdjust="spacing" textLength="22" x="420" y="130.2627">-cog</text><text fill="#000000" font-family="sans-serif" font-size="11" lengthAdjust="spacing" textLength="42" x="420" y="144.0986">-heading</text><text fill="#000000" font-family="sans-serif" font-size="11" lengthAdjust="spacing" textLength="41" x="420" y="157.9346">-position</text><text fill="#000000" font-family="sans-serif" font-size="11" lengthAdjust="spacing" textLength="59" x="420" y="171.7705">-transceiver</text><!--MD5=[37a14a5de6d6fd738aee271300f4b5c8]
link Company to Ship--><path codeLine="34" d="M92.07,103 C116.68,103 148.49,103 176.84,103 " fill="none" id="Company-Ship" style="stroke:#A80036;stroke-width:1.0;"/><text fill="#000000" font-family="sans-serif" font-size="13" lengthAdjust="spacing" textLength="23" x="123" y="99.4951">own</text><text fill="#000000" font-family="sans-serif" font-size="13" lengthAdjust="spacing" textLength="7" x="99.9883" y="117.9144">1</text><text fill="#000000" font-family="sans-serif" font-size="13" lengthAdjust="spacing" textLength="20" x="148.9" y="117.2903">1..*</text><!--MD5=[5541ef512584d1243c10a7f3b3317e1c]
link Ship to ShipLocation--><path codeLine="35" d="M318.19,103 C349.34,103 385.39,103 413.98,103 " fill="none" id="Ship-ShipLocation" style="stroke:#A80036;stroke-width:1.0;"/><polygon fill="#000000" points="358,94.1758,348.9549,91.2369,348.9549,97.1147,358,94.1758" style="stroke:#000000;stroke-width:1.0;"/><text fill="#000000" font-family="sans-serif" font-size="13" lengthAdjust="spacing" textLength="21" x="362" y="99.4951">has</text><text fill="#000000" font-family="sans-serif" font-size="13" lengthAdjust="spacing" textLength="7" x="325.8408" y="117.3282">1</text><text fill="#000000" font-family="sans-serif" font-size="13" lengthAdjust="spacing" textLength="20" x="386.0337" y="117.5627">1..*</text><!--MD5=[b16629dd79db1aaf4d7265d6e44cd87e]
@startuml
'https://plantuml.com/class-diagram
hide methods
left to right direction
skinparam classAttributeIconSize 0

class Company {
-designation
}
class Ship{
-mmsiCode
-name
-imoCode
-numberEnergyGenerators
-generatorPower
-callSign
-vesselType
-length
-width
-capacity
-draft
}

class ShipLocation {
-baseDateTime
-latitude
-longitude
-sog
-cog
-heading
-position
-transceiver
}

Company "1"- -"1..*" Ship : own
Ship "1" - - "1..*" ShipLocation : has >
@enduml

@startuml
hide methods
left to right direction
skinparam classAttributeIconSize 0

class Company {
-designation
}
class Ship{
-mmsiCode
-name
-imoCode
-numberEnergyGenerators
-generatorPower
-callSign
-vesselType
-length
-width
-capacity
-draft
}

class ShipLocation {
-baseDateTime
-latitude
-longitude
-sog
-cog
-heading
-position
-transceiver
}

Company "1"- -"1..*" Ship : own
Ship "1" - - "1..*" ShipLocation : has >
@enduml

PlantUML version 1.2021.11(Sat Oct 02 14:26:11 BST 2021)
(GPL source distribution)
Java Runtime: OpenJDK Runtime Environment
JVM: OpenJDK 64-Bit Server VM
Default Encoding: Cp1252
Language: pt
Country: PT
--></g></svg>