<?xml version="1.0" encoding="UTF-8" standalone="no"?><svg xmlns="http://www.w3.org/2000/svg" xmlns:xlink="http://www.w3.org/1999/xlink" contentScriptType="application/ecmascript" contentStyleType="text/css" height="1743px" preserveAspectRatio="none" style="width:1678px;height:1743px;background:#FFFFFF;" version="1.1" viewBox="0 0 1678 1743" width="1678px" zoomAndPan="magnify"><defs><filter height="300%" id="fqqauklk0fwoe" width="300%" x="-1" y="-1"><feGaussianBlur result="blurOut" stdDeviation="2.0"/><feColorMatrix in="blurOut" result="blurOut2" type="matrix" values="0 0 0 0 0 0 0 0 0 0 0 0 0 0 0 0 0 0 .4 0"/><feOffset dx="4.0" dy="4.0" in="blurOut2" result="blurOut3"/><feBlend in="SourceGraphic" in2="blurOut3" mode="normal"/></filter></defs><g><rect fill="#FFFFFF" filter="url(#fqqauklk0fwoe)" height="1548.8828" style="stroke:#A80036;stroke-width:1.0;" width="10" x="68" y="99.6094"/><rect fill="#FFFFFF" filter="url(#fqqauklk0fwoe)" height="30.3516" style="stroke:#A80036;stroke-width:1.0;" width="10" x="563" y="121.9609"/><rect fill="#FFFFFF" filter="url(#fqqauklk0fwoe)" height="30.3516" style="stroke:#A80036;stroke-width:1.0;" width="10" x="563" y="182.6641"/><rect fill="#FFFFFF" filter="url(#fqqauklk0fwoe)" height="151.0547" style="stroke:#A80036;stroke-width:1.0;" width="10" x="563" y="268.7188"/><rect fill="#FFFFFF" filter="url(#fqqauklk0fwoe)" height="151.0547" style="stroke:#A80036;stroke-width:1.0;" width="10" x="563" y="465.9609"/><rect fill="#FFFFFF" filter="url(#fqqauklk0fwoe)" height="151.0547" style="stroke:#A80036;stroke-width:1.0;" width="10" x="568" y="663.2031"/><rect fill="#FFFFFF" filter="url(#fqqauklk0fwoe)" height="151.0547" style="stroke:#A80036;stroke-width:1.0;" width="10" x="568" y="663.2031"/><rect fill="#FFFFFF" filter="url(#fqqauklk0fwoe)" height="787.8828" style="stroke:#A80036;stroke-width:1.0;" width="10" x="563" y="851.6094"/><rect fill="#FFFFFF" filter="url(#fqqauklk0fwoe)" height="120.7031" style="stroke:#A80036;stroke-width:1.0;" width="10" x="792" y="299.0703"/><rect fill="#FFFFFF" filter="url(#fqqauklk0fwoe)" height="120.7031" style="stroke:#A80036;stroke-width:1.0;" width="10" x="792" y="299.0703"/><rect fill="#FFFFFF" filter="url(#fqqauklk0fwoe)" height="120.7031" style="stroke:#A80036;stroke-width:1.0;" width="10" x="792" y="496.3125"/><rect fill="#FFFFFF" filter="url(#fqqauklk0fwoe)" height="120.7031" style="stroke:#A80036;stroke-width:1.0;" width="10" x="792" y="496.3125"/><rect fill="#FFFFFF" filter="url(#fqqauklk0fwoe)" height="120.7031" style="stroke:#A80036;stroke-width:1.0;" width="10" x="792" y="693.5547"/><rect fill="#FFFFFF" filter="url(#fqqauklk0fwoe)" height="120.7031" style="stroke:#A80036;stroke-width:1.0;" width="10" x="792" y="693.5547"/><rect fill="#FFFFFF" filter="url(#fqqauklk0fwoe)" height="30.3516" style="stroke:#A80036;stroke-width:1.0;" width="10" x="787" y="881.9609"/><rect fill="#FFFFFF" filter="url(#fqqauklk0fwoe)" height="30" style="stroke:#A80036;stroke-width:1.0;" width="10" x="971" y="329.4219"/><rect fill="#FFFFFF" filter="url(#fqqauklk0fwoe)" height="30" style="stroke:#A80036;stroke-width:1.0;" width="10" x="971" y="526.6641"/><rect fill="#FFFFFF" filter="url(#fqqauklk0fwoe)" height="30" style="stroke:#A80036;stroke-width:1.0;" width="10" x="971" y="723.9063"/><rect fill="#FFFFFF" filter="url(#fqqauklk0fwoe)" height="30" style="stroke:#A80036;stroke-width:1.0;" width="10" x="1075" y="389.7734"/><rect fill="#FFFFFF" filter="url(#fqqauklk0fwoe)" height="30" style="stroke:#A80036;stroke-width:1.0;" width="10" x="1075" y="587.0156"/><rect fill="#FFFFFF" filter="url(#fqqauklk0fwoe)" height="30" style="stroke:#A80036;stroke-width:1.0;" width="10" x="1075" y="784.2578"/><rect fill="#FFFFFF" filter="url(#fqqauklk0fwoe)" height="686.8281" style="stroke:#A80036;stroke-width:1.0;" width="10" x="1166.5" y="922.3125"/><rect fill="#FFFFFF" filter="url(#fqqauklk0fwoe)" height="30" style="stroke:#A80036;stroke-width:1.0;" width="10" x="1521.5" y="958.9219"/><rect fill="#FFFFFF" filter="url(#fqqauklk0fwoe)" height="30" style="stroke:#A80036;stroke-width:1.0;" width="10" x="1521.5" y="1019.2734"/><rect fill="#FFFFFF" filter="url(#fqqauklk0fwoe)" height="30" style="stroke:#A80036;stroke-width:1.0;" width="10" x="1521.5" y="1079.625"/><rect fill="#FFFFFF" filter="url(#fqqauklk0fwoe)" height="30" style="stroke:#A80036;stroke-width:1.0;" width="10" x="1521.5" y="1139.9766"/><rect fill="#FFFFFF" filter="url(#fqqauklk0fwoe)" height="30" style="stroke:#A80036;stroke-width:1.0;" width="10" x="1521.5" y="1200.3281"/><rect fill="#FFFFFF" filter="url(#fqqauklk0fwoe)" height="30" style="stroke:#A80036;stroke-width:1.0;" width="10" x="1521.5" y="1260.6797"/><rect fill="#FFFFFF" filter="url(#fqqauklk0fwoe)" height="30" style="stroke:#A80036;stroke-width:1.0;" width="10" x="1521.5" y="1321.0313"/><rect fill="#FFFFFF" filter="url(#fqqauklk0fwoe)" height="30" style="stroke:#A80036;stroke-width:1.0;" width="10" x="1521.5" y="1381.3828"/><rect fill="#FFFFFF" filter="url(#fqqauklk0fwoe)" height="30" style="stroke:#A80036;stroke-width:1.0;" width="10" x="1521.5" y="1441.7344"/><rect fill="#FFFFFF" filter="url(#fqqauklk0fwoe)" height="30" style="stroke:#A80036;stroke-width:1.0;" width="10" x="1521.5" y="1502.0859"/><rect fill="#FFFFFF" filter="url(#fqqauklk0fwoe)" height="594.2422" style="stroke:#000000;stroke-width:2.0;" width="1114.5" x="10" y="228.0156"/><rect fill="#FFFFFF" height="197.2422" style="stroke:none;stroke-width:1.0;" width="1114.5" x="10" y="427.7734"/><rect fill="#FFFFFF" height="197.2422" style="stroke:none;stroke-width:1.0;" width="1114.5" x="10" y="625.0156"/><line style="stroke:#A80036;stroke-width:1.0;stroke-dasharray:5.0,5.0;" x1="73" x2="73" y1="89.6094" y2="1657.4922"/><line style="stroke:#A80036;stroke-width:1.0;stroke-dasharray:5.0,5.0;" x1="568" x2="568" y1="89.6094" y2="1657.4922"/><line style="stroke:#A80036;stroke-width:1.0;stroke-dasharray:5.0,5.0;" x1="792" x2="792" y1="89.6094" y2="1657.4922"/><line style="stroke:#A80036;stroke-width:1.0;stroke-dasharray:5.0,5.0;" x1="976" x2="976" y1="89.6094" y2="1657.4922"/><line style="stroke:#A80036;stroke-width:1.0;stroke-dasharray:5.0,5.0;" x1="1079.5" x2="1079.5" y1="89.6094" y2="1657.4922"/><line style="stroke:#A80036;stroke-width:1.0;stroke-dasharray:5.0,5.0;" x1="1171.5" x2="1171.5" y1="923.2656" y2="1657.4922"/><line style="stroke:#A80036;stroke-width:1.0;stroke-dasharray:5.0,5.0;" x1="1526.5" x2="1526.5" y1="89.6094" y2="1657.4922"/><line style="stroke:#A80036;stroke-width:1.0;stroke-dasharray:5.0,5.0;" x1="1613.5" x2="1613.5" y1="1573.4375" y2="1657.4922"/><text fill="#000000" font-family="sans-serif" font-size="14" lengthAdjust="spacing" textLength="100" x="20" y="86.5332">Traffic manager</text><ellipse cx="73" cy="15" fill="#FEFECE" filter="url(#fqqauklk0fwoe)" rx="8" ry="8" style="stroke:#A80036;stroke-width:2.0;"/><path d="M73,23 L73,50 M60,31 L86,31 M73,50 L60,65 M73,50 L86,65 " fill="none" filter="url(#fqqauklk0fwoe)" style="stroke:#A80036;stroke-width:2.0;"/><text fill="#000000" font-family="sans-serif" font-size="14" lengthAdjust="spacing" textLength="100" x="20" y="1671.0254">Traffic manager</text><ellipse cx="73" cy="1684.1016" fill="#FEFECE" filter="url(#fqqauklk0fwoe)" rx="8" ry="8" style="stroke:#A80036;stroke-width:2.0;"/><path d="M73,1692.1016 L73,1719.1016 M60,1700.1016 L86,1700.1016 M73,1719.1016 L60,1734.1016 M73,1719.1016 L86,1734.1016 " fill="none" filter="url(#fqqauklk0fwoe)" style="stroke:#A80036;stroke-width:2.0;"/><rect fill="#FEFECE" filter="url(#fqqauklk0fwoe)" height="31.6094" style="stroke:#A80036;stroke-width:1.5;" width="114" x="509" y="53"/><text fill="#000000" font-family="sans-serif" font-size="14" lengthAdjust="spacing" textLength="100" x="516" y="74.5332">SearchDetailsUI</text><rect fill="#FEFECE" filter="url(#fqqauklk0fwoe)" height="31.6094" style="stroke:#A80036;stroke-width:1.5;" width="114" x="509" y="1656.4922"/><text fill="#000000" font-family="sans-serif" font-size="14" lengthAdjust="spacing" textLength="100" x="516" y="1678.0254">SearchDetailsUI</text><rect fill="#FEFECE" filter="url(#fqqauklk0fwoe)" height="31.6094" style="stroke:#A80036;stroke-width:1.5;" width="164" x="708" y="53"/><text fill="#000000" font-family="sans-serif" font-size="14" lengthAdjust="spacing" textLength="150" x="715" y="74.5332">SearchDetailsController</text><rect fill="#FEFECE" filter="url(#fqqauklk0fwoe)" height="31.6094" style="stroke:#A80036;stroke-width:1.5;" width="164" x="708" y="1656.4922"/><text fill="#000000" font-family="sans-serif" font-size="14" lengthAdjust="spacing" textLength="150" x="715" y="1678.0254">SearchDetailsController</text><rect fill="#FEFECE" filter="url(#fqqauklk0fwoe)" height="31.6094" style="stroke:#A80036;stroke-width:1.5;" width="74" x="937" y="53"/><text fill="#000000" font-family="sans-serif" font-size="14" lengthAdjust="spacing" textLength="60" x="944" y="74.5332">Company</text><rect fill="#FEFECE" filter="url(#fqqauklk0fwoe)" height="31.6094" style="stroke:#A80036;stroke-width:1.5;" width="74" x="937" y="1656.4922"/><text fill="#000000" font-family="sans-serif" font-size="14" lengthAdjust="spacing" textLength="60" x="944" y="1678.0254">Company</text><rect fill="#FEFECE" filter="url(#fqqauklk0fwoe)" height="49.2188" style="stroke:#A80036;stroke-width:1.5;" width="65" x="1045.5" y="35.3906"/><text fill="#000000" font-family="sans-serif" font-size="14" lengthAdjust="spacing" textLength="51" x="1052.5" y="56.9238">bstShip:</text><text fill="#000000" font-family="sans-serif" font-size="14" lengthAdjust="spacing" textLength="48" x="1054" y="74.5332">BstShip</text><rect fill="#FEFECE" filter="url(#fqqauklk0fwoe)" height="49.2188" style="stroke:#A80036;stroke-width:1.5;" width="65" x="1045.5" y="1656.4922"/><text fill="#000000" font-family="sans-serif" font-size="14" lengthAdjust="spacing" textLength="51" x="1052.5" y="1678.0254">bstShip:</text><text fill="#000000" font-family="sans-serif" font-size="14" lengthAdjust="spacing" textLength="48" x="1054" y="1695.6348">BstShip</text><rect fill="#FEFECE" filter="url(#fqqauklk0fwoe)" height="31.6094" style="stroke:#A80036;stroke-width:1.5;" width="90" x="1124.5" y="1656.4922"/><text fill="#000000" font-family="sans-serif" font-size="14" lengthAdjust="spacing" textLength="76" x="1131.5" y="1678.0254">ShipMapper</text><rect fill="#FEFECE" filter="url(#fqqauklk0fwoe)" height="31.6094" style="stroke:#A80036;stroke-width:1.5;" width="42" x="1503.5" y="53"/><text fill="#000000" font-family="sans-serif" font-size="14" lengthAdjust="spacing" textLength="28" x="1510.5" y="74.5332">Ship</text><rect fill="#FEFECE" filter="url(#fqqauklk0fwoe)" height="31.6094" style="stroke:#A80036;stroke-width:1.5;" width="42" x="1503.5" y="1656.4922"/><text fill="#000000" font-family="sans-serif" font-size="14" lengthAdjust="spacing" textLength="28" x="1510.5" y="1678.0254">Ship</text><rect fill="#FEFECE" filter="url(#fqqauklk0fwoe)" height="31.6094" style="stroke:#A80036;stroke-width:1.5;" width="105" x="1559.5" y="1656.4922"/><text fill="#000000" font-family="sans-serif" font-size="14" lengthAdjust="spacing" textLength="91" x="1566.5" y="1678.0254">shipDetailsDto</text><rect fill="#FFFFFF" filter="url(#fqqauklk0fwoe)" height="1548.8828" style="stroke:#A80036;stroke-width:1.0;" width="10" x="68" y="99.6094"/><rect fill="#FFFFFF" filter="url(#fqqauklk0fwoe)" height="30.3516" style="stroke:#A80036;stroke-width:1.0;" width="10" x="563" y="121.9609"/><rect fill="#FFFFFF" filter="url(#fqqauklk0fwoe)" height="30.3516" style="stroke:#A80036;stroke-width:1.0;" width="10" x="563" y="182.6641"/><rect fill="#FFFFFF" filter="url(#fqqauklk0fwoe)" height="151.0547" style="stroke:#A80036;stroke-width:1.0;" width="10" x="563" y="268.7188"/><rect fill="#FFFFFF" filter="url(#fqqauklk0fwoe)" height="151.0547" style="stroke:#A80036;stroke-width:1.0;" width="10" x="563" y="465.9609"/><rect fill="#FFFFFF" filter="url(#fqqauklk0fwoe)" height="151.0547" style="stroke:#A80036;stroke-width:1.0;" width="10" x="568" y="663.2031"/><rect fill="#FFFFFF" filter="url(#fqqauklk0fwoe)" height="151.0547" style="stroke:#A80036;stroke-width:1.0;" width="10" x="568" y="663.2031"/><rect fill="#FFFFFF" filter="url(#fqqauklk0fwoe)" height="787.8828" style="stroke:#A80036;stroke-width:1.0;" width="10" x="563" y="851.6094"/><rect fill="#FFFFFF" filter="url(#fqqauklk0fwoe)" height="120.7031" style="stroke:#A80036;stroke-width:1.0;" width="10" x="792" y="299.0703"/><rect fill="#FFFFFF" filter="url(#fqqauklk0fwoe)" height="120.7031" style="stroke:#A80036;stroke-width:1.0;" width="10" x="792" y="299.0703"/><rect fill="#FFFFFF" filter="url(#fqqauklk0fwoe)" height="120.7031" style="stroke:#A80036;stroke-width:1.0;" width="10" x="792" y="496.3125"/><rect fill="#FFFFFF" filter="url(#fqqauklk0fwoe)" height="120.7031" style="stroke:#A80036;stroke-width:1.0;" width="10" x="792" y="496.3125"/><rect fill="#FFFFFF" filter="url(#fqqauklk0fwoe)" height="120.7031" style="stroke:#A80036;stroke-width:1.0;" width="10" x="792" y="693.5547"/><rect fill="#FFFFFF" filter="url(#fqqauklk0fwoe)" height="120.7031" style="stroke:#A80036;stroke-width:1.0;" width="10" x="792" y="693.5547"/><rect fill="#FFFFFF" filter="url(#fqqauklk0fwoe)" height="30.3516" style="stroke:#A80036;stroke-width:1.0;" width="10" x="787" y="881.9609"/><rect fill="#FFFFFF" filter="url(#fqqauklk0fwoe)" height="30" style="stroke:#A80036;stroke-width:1.0;" width="10" x="971" y="329.4219"/><rect fill="#FFFFFF" filter="url(#fqqauklk0fwoe)" height="30" style="stroke:#A80036;stroke-width:1.0;" width="10" x="971" y="526.6641"/><rect fill="#FFFFFF" filter="url(#fqqauklk0fwoe)" height="30" style="stroke:#A80036;stroke-width:1.0;" width="10" x="971" y="723.9063"/><rect fill="#FFFFFF" filter="url(#fqqauklk0fwoe)" height="30" style="stroke:#A80036;stroke-width:1.0;" width="10" x="1075" y="389.7734"/><rect fill="#FFFFFF" filter="url(#fqqauklk0fwoe)" height="30" style="stroke:#A80036;stroke-width:1.0;" width="10" x="1075" y="587.0156"/><rect fill="#FFFFFF" filter="url(#fqqauklk0fwoe)" height="30" style="stroke:#A80036;stroke-width:1.0;" width="10" x="1075" y="784.2578"/><rect fill="#FFFFFF" filter="url(#fqqauklk0fwoe)" height="686.8281" style="stroke:#A80036;stroke-width:1.0;" width="10" x="1166.5" y="922.3125"/><rect fill="#FFFFFF" filter="url(#fqqauklk0fwoe)" height="30" style="stroke:#A80036;stroke-width:1.0;" width="10" x="1521.5" y="958.9219"/><rect fill="#FFFFFF" filter="url(#fqqauklk0fwoe)" height="30" style="stroke:#A80036;stroke-width:1.0;" width="10" x="1521.5" y="1019.2734"/><rect fill="#FFFFFF" filter="url(#fqqauklk0fwoe)" height="30" style="stroke:#A80036;stroke-width:1.0;" width="10" x="1521.5" y="1079.625"/><rect fill="#FFFFFF" filter="url(#fqqauklk0fwoe)" height="30" style="stroke:#A80036;stroke-width:1.0;" width="10" x="1521.5" y="1139.9766"/><rect fill="#FFFFFF" filter="url(#fqqauklk0fwoe)" height="30" style="stroke:#A80036;stroke-width:1.0;" width="10" x="1521.5" y="1200.3281"/><rect fill="#FFFFFF" filter="url(#fqqauklk0fwoe)" height="30" style="stroke:#A80036;stroke-width:1.0;" width="10" x="1521.5" y="1260.6797"/><rect fill="#FFFFFF" filter="url(#fqqauklk0fwoe)" height="30" style="stroke:#A80036;stroke-width:1.0;" width="10" x="1521.5" y="1321.0313"/><rect fill="#FFFFFF" filter="url(#fqqauklk0fwoe)" height="30" style="stroke:#A80036;stroke-width:1.0;" width="10" x="1521.5" y="1381.3828"/><rect fill="#FFFFFF" filter="url(#fqqauklk0fwoe)" height="30" style="stroke:#A80036;stroke-width:1.0;" width="10" x="1521.5" y="1441.7344"/><rect fill="#FFFFFF" filter="url(#fqqauklk0fwoe)" height="30" style="stroke:#A80036;stroke-width:1.0;" width="10" x="1521.5" y="1502.0859"/><polygon fill="#A80036" points="551,117.9609,561,121.9609,551,125.9609,555,121.9609" style="stroke:#A80036;stroke-width:1.0;"/><line style="stroke:#A80036;stroke-width:1.0;" x1="78" x2="557" y1="121.9609" y2="121.9609"/><text fill="#000000" font-family="sans-serif" font-size="13" font-weight="bold" lengthAdjust="spacing" textLength="7" x="85" y="117.1045">1</text><text fill="#000000" font-family="sans-serif" font-size="13" lengthAdjust="spacing" textLength="205" x="96" y="117.1045">Asks to search the details of a ship</text><polygon fill="#A80036" points="89,148.3125,79,152.3125,89,156.3125,85,152.3125" style="stroke:#A80036;stroke-width:1.0;"/><line style="stroke:#A80036;stroke-width:1.0;stroke-dasharray:2.0,2.0;" x1="83" x2="567" y1="152.3125" y2="152.3125"/><text fill="#000000" font-family="sans-serif" font-size="13" font-weight="bold" lengthAdjust="spacing" textLength="7" x="95" y="147.4561">2</text><text fill="#000000" font-family="sans-serif" font-size="13" lengthAdjust="spacing" textLength="450" x="106" y="147.4561">Requests to choose the code to perform the search (MMSI, IMO or Call Sign).</text><polygon fill="#A80036" points="551,178.6641,561,182.6641,551,186.6641,555,182.6641" style="stroke:#A80036;stroke-width:1.0;"/><line style="stroke:#A80036;stroke-width:1.0;" x1="78" x2="557" y1="182.6641" y2="182.6641"/><text fill="#000000" font-family="sans-serif" font-size="13" font-weight="bold" lengthAdjust="spacing" textLength="7" x="85" y="177.8076">3</text><text fill="#000000" font-family="sans-serif" font-size="13" lengthAdjust="spacing" textLength="105" x="96" y="177.8076">Chooses the code</text><polygon fill="#A80036" points="89,209.0156,79,213.0156,89,217.0156,85,213.0156" style="stroke:#A80036;stroke-width:1.0;"/><line style="stroke:#A80036;stroke-width:1.0;stroke-dasharray:2.0,2.0;" x1="83" x2="567" y1="213.0156" y2="213.0156"/><text fill="#000000" font-family="sans-serif" font-size="13" font-weight="bold" lengthAdjust="spacing" textLength="7" x="95" y="208.1592">4</text><text fill="#000000" font-family="sans-serif" font-size="13" lengthAdjust="spacing" textLength="106" x="106" y="208.1592">Asks to type code</text><path d="M10,228.0156 L71,228.0156 L71,236.0156 L61,246.0156 L10,246.0156 L10,228.0156 " fill="#EEEEEE" style="stroke:#000000;stroke-width:1.0;"/><rect fill="none" height="594.2422" style="stroke:#000000;stroke-width:2.0;" width="1114.5" x="10" y="228.0156"/><text fill="#000000" font-family="sans-serif" font-size="13" font-weight="bold" lengthAdjust="spacing" textLength="16" x="25" y="242.5107">alt</text><text fill="#000000" font-family="sans-serif" font-size="11" font-weight="bold" lengthAdjust="spacing" textLength="102" x="86" y="241.4346">[ship code - MMSI]</text><polygon fill="#A80036" points="551,264.7188,561,268.7188,551,272.7188,555,268.7188" style="stroke:#A80036;stroke-width:1.0;"/><line style="stroke:#A80036;stroke-width:1.0;" x1="78" x2="557" y1="268.7188" y2="268.7188"/><text fill="#000000" font-family="sans-serif" font-size="13" font-weight="bold" lengthAdjust="spacing" textLength="7" x="85" y="263.8623">5</text><text fill="#000000" font-family="sans-serif" font-size="13" lengthAdjust="spacing" textLength="97" x="96" y="263.8623">Search by MMSI</text><polygon fill="#A80036" points="780,295.0703,790,299.0703,780,303.0703,784,299.0703" style="stroke:#A80036;stroke-width:1.0;"/><line style="stroke:#A80036;stroke-width:1.0;" x1="573" x2="786" y1="299.0703" y2="299.0703"/><text fill="#000000" font-family="sans-serif" font-size="13" font-weight="bold" lengthAdjust="spacing" textLength="7" x="580" y="294.2139">6</text><text fill="#000000" font-family="sans-serif" font-size="13" lengthAdjust="spacing" textLength="174" x="591" y="294.2139">shipExistByMMSI(mmsiCode)</text><polygon fill="#A80036" points="959,325.4219,969,329.4219,959,333.4219,963,329.4219" style="stroke:#A80036;stroke-width:1.0;"/><line style="stroke:#A80036;stroke-width:1.0;" x1="802" x2="965" y1="329.4219" y2="329.4219"/><text fill="#000000" font-family="sans-serif" font-size="13" font-weight="bold" lengthAdjust="spacing" textLength="7" x="809" y="324.5654">7</text><text fill="#000000" font-family="sans-serif" font-size="13" lengthAdjust="spacing" textLength="132" x="820" y="324.5654">bstShip = getBstShip()</text><polygon fill="#A80036" points="1063,385.7734,1073,389.7734,1063,393.7734,1067,389.7734" style="stroke:#A80036;stroke-width:1.0;"/><line style="stroke:#A80036;stroke-width:1.0;" x1="802" x2="1069" y1="389.7734" y2="389.7734"/><text fill="#000000" font-family="sans-serif" font-size="13" font-weight="bold" lengthAdjust="spacing" textLength="7" x="809" y="384.917">8</text><text fill="#000000" font-family="sans-serif" font-size="13" lengthAdjust="spacing" textLength="243" x="820" y="384.917">ship = getShipByMmsiCode(mmmsiCode)</text><line style="stroke:#000000;stroke-width:1.0;stroke-dasharray:2.0,2.0;" x1="10" x2="1124.5" y1="428.7734" y2="428.7734"/><text fill="#000000" font-family="sans-serif" font-size="11" font-weight="bold" lengthAdjust="spacing" textLength="93" x="15" y="440.1924">[ship code - IMO]</text><polygon fill="#A80036" points="551,461.9609,561,465.9609,551,469.9609,555,465.9609" style="stroke:#A80036;stroke-width:1.0;"/><line style="stroke:#A80036;stroke-width:1.0;" x1="78" x2="557" y1="465.9609" y2="465.9609"/><text fill="#000000" font-family="sans-serif" font-size="13" font-weight="bold" lengthAdjust="spacing" textLength="7" x="85" y="461.1045">9</text><text fill="#000000" font-family="sans-serif" font-size="13" lengthAdjust="spacing" textLength="87" x="96" y="461.1045">Search by IMO</text><polygon fill="#A80036" points="780,492.3125,790,496.3125,780,500.3125,784,496.3125" style="stroke:#A80036;stroke-width:1.0;"/><line style="stroke:#A80036;stroke-width:1.0;" x1="573" x2="786" y1="496.3125" y2="496.3125"/><text fill="#000000" font-family="sans-serif" font-size="13" font-weight="bold" lengthAdjust="spacing" textLength="14" x="580" y="491.4561">10</text><text fill="#000000" font-family="sans-serif" font-size="13" lengthAdjust="spacing" textLength="153" x="598" y="491.4561">shipExistByIMO(imoCode)</text><polygon fill="#A80036" points="959,522.6641,969,526.6641,959,530.6641,963,526.6641" style="stroke:#A80036;stroke-width:1.0;"/><line style="stroke:#A80036;stroke-width:1.0;" x1="802" x2="965" y1="526.6641" y2="526.6641"/><text fill="#000000" font-family="sans-serif" font-size="13" font-weight="bold" lengthAdjust="spacing" textLength="14" x="809" y="521.8076">11</text><text fill="#000000" font-family="sans-serif" font-size="13" lengthAdjust="spacing" textLength="132" x="827" y="521.8076">bstShip = getBstShip()</text><polygon fill="#A80036" points="1063,583.0156,1073,587.0156,1063,591.0156,1067,587.0156" style="stroke:#A80036;stroke-width:1.0;"/><line style="stroke:#A80036;stroke-width:1.0;" x1="802" x2="1069" y1="587.0156" y2="587.0156"/><text fill="#000000" font-family="sans-serif" font-size="13" font-weight="bold" lengthAdjust="spacing" textLength="14" x="809" y="582.1592">12</text><text fill="#000000" font-family="sans-serif" font-size="13" lengthAdjust="spacing" textLength="97" x="827" y="582.1592">ships = inOrder()</text><line style="stroke:#000000;stroke-width:1.0;stroke-dasharray:2.0,2.0;" x1="10" x2="1124.5" y1="626.0156" y2="626.0156"/><text fill="#000000" font-family="sans-serif" font-size="11" font-weight="bold" lengthAdjust="spacing" textLength="119" x="15" y="637.4346">[ship code - Call Sign]</text><polygon fill="#A80036" points="556,659.2031,566,663.2031,556,667.2031,560,663.2031" style="stroke:#A80036;stroke-width:1.0;"/><line style="stroke:#A80036;stroke-width:1.0;" x1="78" x2="562" y1="663.2031" y2="663.2031"/><text fill="#000000" font-family="sans-serif" font-size="13" font-weight="bold" lengthAdjust="spacing" textLength="14" x="85" y="658.3467">13</text><text fill="#000000" font-family="sans-serif" font-size="13" lengthAdjust="spacing" textLength="115" x="103" y="658.3467">Search by Call Sign</text><polygon fill="#A80036" points="780,689.5547,790,693.5547,780,697.5547,784,693.5547" style="stroke:#A80036;stroke-width:1.0;"/><line style="stroke:#A80036;stroke-width:1.0;" x1="578" x2="786" y1="693.5547" y2="693.5547"/><text fill="#000000" font-family="sans-serif" font-size="13" font-weight="bold" lengthAdjust="spacing" textLength="14" x="585" y="688.6982">14</text><text fill="#000000" font-family="sans-serif" font-size="13" lengthAdjust="spacing" textLength="172" x="603" y="688.6982">shipExistByCallSign(callSign)</text><polygon fill="#A80036" points="959,719.9063,969,723.9063,959,727.9063,963,723.9063" style="stroke:#A80036;stroke-width:1.0;"/><line style="stroke:#A80036;stroke-width:1.0;" x1="802" x2="965" y1="723.9063" y2="723.9063"/><text fill="#000000" font-family="sans-serif" font-size="13" font-weight="bold" lengthAdjust="spacing" textLength="14" x="809" y="719.0498">15</text><text fill="#000000" font-family="sans-serif" font-size="13" lengthAdjust="spacing" textLength="132" x="827" y="719.0498">bstShip = getBstShip()</text><polygon fill="#A80036" points="1063,780.2578,1073,784.2578,1063,788.2578,1067,784.2578" style="stroke:#A80036;stroke-width:1.0;"/><line style="stroke:#A80036;stroke-width:1.0;" x1="802" x2="1069" y1="784.2578" y2="784.2578"/><text fill="#000000" font-family="sans-serif" font-size="13" font-weight="bold" lengthAdjust="spacing" textLength="14" x="809" y="779.4014">16</text><text fill="#000000" font-family="sans-serif" font-size="13" lengthAdjust="spacing" textLength="97" x="827" y="779.4014">ships = inOrder()</text><polygon fill="#A80036" points="551,847.6094,561,851.6094,551,855.6094,555,851.6094" style="stroke:#A80036;stroke-width:1.0;"/><line style="stroke:#A80036;stroke-width:1.0;" x1="78" x2="557" y1="851.6094" y2="851.6094"/><text fill="#000000" font-family="sans-serif" font-size="13" font-weight="bold" lengthAdjust="spacing" textLength="14" x="85" y="846.7529">17</text><text fill="#000000" font-family="sans-serif" font-size="13" lengthAdjust="spacing" textLength="84" x="103" y="846.7529">Requests data</text><polygon fill="#A80036" points="775,877.9609,785,881.9609,775,885.9609,779,881.9609" style="stroke:#A80036;stroke-width:1.0;"/><line style="stroke:#A80036;stroke-width:1.0;" x1="573" x2="781" y1="881.9609" y2="881.9609"/><text fill="#000000" font-family="sans-serif" font-size="13" font-weight="bold" lengthAdjust="spacing" textLength="14" x="580" y="877.1045">18</text><text fill="#000000" font-family="sans-serif" font-size="13" lengthAdjust="spacing" textLength="92" x="598" y="877.1045">getShipDetails()</text><polygon fill="#A80036" points="1112.5,908.3125,1122.5,912.3125,1112.5,916.3125,1116.5,912.3125" style="stroke:#A80036;stroke-width:1.0;"/><line style="stroke:#A80036;stroke-width:1.0;" x1="792" x2="1118.5" y1="912.3125" y2="912.3125"/><text fill="#000000" font-family="sans-serif" font-size="13" font-weight="bold" lengthAdjust="spacing" textLength="14" x="799" y="907.4561">19</text><text fill="#000000" font-family="sans-serif" font-size="13" lengthAdjust="spacing" textLength="63" x="817" y="907.4561">toDto(ship)</text><rect fill="#FEFECE" filter="url(#fqqauklk0fwoe)" height="31.6094" style="stroke:#A80036;stroke-width:1.5;" width="90" x="1124.5" y="889.9609"/><text fill="#000000" font-family="sans-serif" font-size="14" lengthAdjust="spacing" textLength="76" x="1131.5" y="911.4941">ShipMapper</text><polygon fill="#A80036" points="1509.5,954.9219,1519.5,958.9219,1509.5,962.9219,1513.5,958.9219" style="stroke:#A80036;stroke-width:1.0;"/><line style="stroke:#A80036;stroke-width:1.0;" x1="1176.5" x2="1515.5" y1="958.9219" y2="958.9219"/><text fill="#000000" font-family="sans-serif" font-size="13" font-weight="bold" lengthAdjust="spacing" textLength="14" x="1183.5" y="954.0654">20</text><text fill="#000000" font-family="sans-serif" font-size="13" lengthAdjust="spacing" textLength="108" x="1201.5" y="954.0654">mmsi = getMMSI()</text><polygon fill="#A80036" points="1509.5,1015.2734,1519.5,1019.2734,1509.5,1023.2734,1513.5,1019.2734" style="stroke:#A80036;stroke-width:1.0;"/><line style="stroke:#A80036;stroke-width:1.0;" x1="1176.5" x2="1515.5" y1="1019.2734" y2="1019.2734"/><text fill="#000000" font-family="sans-serif" font-size="13" font-weight="bold" lengthAdjust="spacing" textLength="14" x="1183.5" y="1014.417">21</text><text fill="#000000" font-family="sans-serif" font-size="13" lengthAdjust="spacing" textLength="108" x="1201.5" y="1014.417">name = getName()</text><polygon fill="#A80036" points="1509.5,1075.625,1519.5,1079.625,1509.5,1083.625,1513.5,1079.625" style="stroke:#A80036;stroke-width:1.0;"/><line style="stroke:#A80036;stroke-width:1.0;" x1="1176.5" x2="1515.5" y1="1079.625" y2="1079.625"/><text fill="#000000" font-family="sans-serif" font-size="13" font-weight="bold" lengthAdjust="spacing" textLength="14" x="1183.5" y="1074.7686">22</text><text fill="#000000" font-family="sans-serif" font-size="13" lengthAdjust="spacing" textLength="99" x="1201.5" y="1074.7686">imo = getShipId()</text><polygon fill="#A80036" points="1509.5,1135.9766,1519.5,1139.9766,1509.5,1143.9766,1513.5,1139.9766" style="stroke:#A80036;stroke-width:1.0;"/><line style="stroke:#A80036;stroke-width:1.0;" x1="1176.5" x2="1515.5" y1="1139.9766" y2="1139.9766"/><text fill="#000000" font-family="sans-serif" font-size="13" font-weight="bold" lengthAdjust="spacing" textLength="14" x="1183.5" y="1135.1201">23</text><text fill="#000000" font-family="sans-serif" font-size="13" lengthAdjust="spacing" textLength="308" x="1201.5" y="1135.1201">numberOfEnergyGenerators = getEnergyGenerators()</text><polygon fill="#A80036" points="1509.5,1196.3281,1519.5,1200.3281,1509.5,1204.3281,1513.5,1200.3281" style="stroke:#A80036;stroke-width:1.0;"/><line style="stroke:#A80036;stroke-width:1.0;" x1="1176.5" x2="1515.5" y1="1200.3281" y2="1200.3281"/><text fill="#000000" font-family="sans-serif" font-size="13" font-weight="bold" lengthAdjust="spacing" textLength="14" x="1183.5" y="1195.4717">24</text><text fill="#000000" font-family="sans-serif" font-size="13" lengthAdjust="spacing" textLength="136" x="1201.5" y="1195.4717">callSign = getCallSign()</text><polygon fill="#A80036" points="1509.5,1256.6797,1519.5,1260.6797,1509.5,1264.6797,1513.5,1260.6797" style="stroke:#A80036;stroke-width:1.0;"/><line style="stroke:#A80036;stroke-width:1.0;" x1="1176.5" x2="1515.5" y1="1260.6797" y2="1260.6797"/><text fill="#000000" font-family="sans-serif" font-size="13" font-weight="bold" lengthAdjust="spacing" textLength="14" x="1183.5" y="1255.8232">25</text><text fill="#000000" font-family="sans-serif" font-size="13" lengthAdjust="spacing" textLength="174" x="1201.5" y="1255.8232">vesselType = getVesselType()</text><polygon fill="#A80036" points="1509.5,1317.0313,1519.5,1321.0313,1509.5,1325.0313,1513.5,1321.0313" style="stroke:#A80036;stroke-width:1.0;"/><line style="stroke:#A80036;stroke-width:1.0;" x1="1176.5" x2="1515.5" y1="1321.0313" y2="1321.0313"/><text fill="#000000" font-family="sans-serif" font-size="13" font-weight="bold" lengthAdjust="spacing" textLength="14" x="1183.5" y="1316.1748">26</text><text fill="#000000" font-family="sans-serif" font-size="13" lengthAdjust="spacing" textLength="116" x="1201.5" y="1316.1748">length = getLength()</text><polygon fill="#A80036" points="1509.5,1377.3828,1519.5,1381.3828,1509.5,1385.3828,1513.5,1381.3828" style="stroke:#A80036;stroke-width:1.0;"/><line style="stroke:#A80036;stroke-width:1.0;" x1="1176.5" x2="1515.5" y1="1381.3828" y2="1381.3828"/><text fill="#000000" font-family="sans-serif" font-size="13" font-weight="bold" lengthAdjust="spacing" textLength="14" x="1183.5" y="1376.5264">27</text><text fill="#000000" font-family="sans-serif" font-size="13" lengthAdjust="spacing" textLength="106" x="1201.5" y="1376.5264">width = getWidth()</text><polygon fill="#A80036" points="1509.5,1437.7344,1519.5,1441.7344,1509.5,1445.7344,1513.5,1441.7344" style="stroke:#A80036;stroke-width:1.0;"/><line style="stroke:#A80036;stroke-width:1.0;" x1="1176.5" x2="1515.5" y1="1441.7344" y2="1441.7344"/><text fill="#000000" font-family="sans-serif" font-size="13" font-weight="bold" lengthAdjust="spacing" textLength="14" x="1183.5" y="1436.8779">28</text><text fill="#000000" font-family="sans-serif" font-size="13" lengthAdjust="spacing" textLength="142" x="1201.5" y="1436.8779">capacity = getCapacity()</text><polygon fill="#A80036" points="1509.5,1498.0859,1519.5,1502.0859,1509.5,1506.0859,1513.5,1502.0859" style="stroke:#A80036;stroke-width:1.0;"/><line style="stroke:#A80036;stroke-width:1.0;" x1="1176.5" x2="1515.5" y1="1502.0859" y2="1502.0859"/><text fill="#000000" font-family="sans-serif" font-size="13" font-weight="bold" lengthAdjust="spacing" textLength="14" x="1183.5" y="1497.2295">29</text><text fill="#000000" font-family="sans-serif" font-size="13" lengthAdjust="spacing" textLength="94" x="1201.5" y="1497.2295">draft = getDraft()</text><polygon fill="#A80036" points="1547.5,1574.7891,1557.5,1578.7891,1547.5,1582.7891,1551.5,1578.7891" style="stroke:#A80036;stroke-width:1.0;"/><line style="stroke:#A80036;stroke-width:1.0;" x1="1176.5" x2="1553.5" y1="1578.7891" y2="1578.7891"/><text fill="#000000" font-family="sans-serif" font-size="13" font-weight="bold" lengthAdjust="spacing" textLength="14" x="1183.5" y="1565.7568">30</text><text fill="#000000" font-family="sans-serif" font-size="13" lengthAdjust="spacing" textLength="314" x="1201.5" y="1557.5811">create(mmsi, name, imo, numberOfEnergyGenerators,</text><text fill="#000000" font-family="sans-serif" font-size="13" lengthAdjust="spacing" textLength="293" x="1205.5" y="1573.9326">callSign, vesselType, length, width, capacity, draft)</text><rect fill="#FEFECE" filter="url(#fqqauklk0fwoe)" height="31.6094" style="stroke:#A80036;stroke-width:1.5;" width="105" x="1559.5" y="1540.1797"/><text fill="#000000" font-family="sans-serif" font-size="14" lengthAdjust="spacing" textLength="91" x="1566.5" y="1561.7129">shipDetailsDto</text><polygon fill="#A80036" points="584,1605.1406,574,1609.1406,584,1613.1406,580,1609.1406" style="stroke:#A80036;stroke-width:1.0;"/><line style="stroke:#A80036;stroke-width:1.0;stroke-dasharray:2.0,2.0;" x1="578" x2="1170.5" y1="1609.1406" y2="1609.1406"/><text fill="#000000" font-family="sans-serif" font-size="13" font-weight="bold" lengthAdjust="spacing" textLength="14" x="590" y="1604.2842">31</text><text fill="#000000" font-family="sans-serif" font-size="13" lengthAdjust="spacing" textLength="84" x="608" y="1604.2842">shipDetailsDto</text><polygon fill="#A80036" points="89,1635.4922,79,1639.4922,89,1643.4922,85,1639.4922" style="stroke:#A80036;stroke-width:1.0;"/><line style="stroke:#A80036;stroke-width:1.0;stroke-dasharray:2.0,2.0;" x1="83" x2="567" y1="1639.4922" y2="1639.4922"/><text fill="#000000" font-family="sans-serif" font-size="13" font-weight="bold" lengthAdjust="spacing" textLength="14" x="95" y="1634.6357">32</text><text fill="#000000" font-family="sans-serif" font-size="13" lengthAdjust="spacing" textLength="178" x="113" y="1634.6357">Displays the details of the ship</text><!--MD5=[03485e0b0b532066f213b7bf44870d16]
@startuml
autonumber

actor "Traffic manager" as manager
participant "SearchDetailsUI" as sdUI
participant "SearchDetailsController" as sdCTRL
participant "Company" as COMP
participant "bstShip:\nBstShip" as BstShip
participant "ShipMapper" as SMAPPER
participant "Ship" as SHIP
participant "Ship" as SHIP
participant "shipDetailsDto" as SHIPDTO


activate manager
manager -> sdUI : Asks to search the details of a ship
activate sdUI
sdUI - -> manager : Requests to choose the code to perform the search (MMSI, IMO or Call Sign).
deactivate sdUI


manager -> sdUI : Chooses the code
activate sdUI

sdUI - -> manager : Asks to type code
deactivate sdUI

alt ship code - MMSI
manager -> sdUI  : Search by MMSI
activate sdUI
sdUI-> sdCTRL: shipExistByMMSI(mmsiCode)
activate sdCTRL
activate sdCTRL
sdCTRL -> COMP : bstShip = getBstShip()
activate COMP
deactivate COMP
sdCTRL -> BstShip : ship = getShipByMmsiCode(mmmsiCode)
activate BstShip
deactivate BstShip
deactivate sdCTRL
deactivate sdCTRL
deactivate sdUI

else ship code - IMO
manager -> sdUI  : Search by IMO
activate sdUI
sdUI-> sdCTRL: shipExistByIMO(imoCode)
activate sdCTRL
activate sdCTRL
sdCTRL -> COMP : bstShip = getBstShip()
activate COMP
deactivate COMP
sdCTRL -> BstShip : ships = inOrder()
activate BstShip
deactivate BstShip
deactivate sdCTRL
deactivate sdCTRL
deactivate sdUI
deactivate sdUI

else ship code - Call Sign
manager -> sdUI : Search by Call Sign
activate sdUI
activate sdUI
sdUI-> sdCTRL: shipExistByCallSign(callSign)
activate sdCTRL
activate sdCTRL
sdCTRL -> COMP : bstShip = getBstShip()
activate COMP
deactivate COMP
sdCTRL -> BstShip : ships = inOrder()
activate BstShip
deactivate BstShip
deactivate sdCTRL
deactivate sdCTRL
deactivate sdUI
deactivate sdUI
end


manager -> sdUI : Requests data
activate sdUI
sdUI -> sdCTRL : getShipDetails()
activate sdCTRL
sdCTRL-> SMAPPER** : toDto(ship)
deactivate sdCTRL
activate SMAPPER
SMAPPER -> SHIP : mmsi = getMMSI()
activate SHIP
deactivate SHIP
SMAPPER -> SHIP : name = getName()
activate SHIP
deactivate SHIP
SMAPPER -> SHIP : imo = getShipId()
activate SHIP
deactivate SHIP
SMAPPER -> SHIP : numberOfEnergyGenerators = getEnergyGenerators()
activate SHIP
deactivate SHIP
SMAPPER -> SHIP : callSign = getCallSign()
activate SHIP
deactivate SHIP
SMAPPER -> SHIP : vesselType = getVesselType()
activate SHIP
deactivate SHIP
SMAPPER -> SHIP : length = getLength()
activate SHIP
deactivate SHIP
SMAPPER -> SHIP : width = getWidth()
activate SHIP
deactivate SHIP
SMAPPER -> SHIP : capacity = getCapacity()
activate SHIP
deactivate SHIP
SMAPPER -> SHIP : draft = getDraft()
activate SHIP
deactivate SHIP
SMAPPER -> SHIPDTO** : create(mmsi, name, imo, numberOfEnergyGenerators,\n callSign, vesselType, length, width, capacity, draft)
SMAPPER - -> sdUI : shipDetailsDto
deactivate SMAPPER
sdUI - -> manager : Displays the details of the ship
deactivate sdUI

@enduml

PlantUML version 1.2021.11(Sat Oct 02 14:26:11 BST 2021)
(GPL source distribution)
Java Runtime: OpenJDK Runtime Environment
JVM: OpenJDK 64-Bit Server VM
Default Encoding: Cp1252
Language: pt
Country: PT
--></g></svg>