<?xml version="1.0" encoding="UTF-8" standalone="no"?><svg xmlns="http://www.w3.org/2000/svg" xmlns:xlink="http://www.w3.org/1999/xlink" contentScriptType="application/ecmascript" contentStyleType="text/css" height="622px" preserveAspectRatio="none" style="width:651px;height:622px;background:#FFFFFF;" version="1.1" viewBox="0 0 651 622" width="651px" zoomAndPan="magnify"><defs><filter height="300%" id="f1xpvamv71vsvb" width="300%" x="-1" y="-1"><feGaussianBlur result="blurOut" stdDeviation="2.0"/><feColorMatrix in="blurOut" result="blurOut2" type="matrix" values="0 0 0 0 0 0 0 0 0 0 0 0 0 0 0 0 0 0 .4 0"/><feOffset dx="4.0" dy="4.0" in="blurOut2" result="blurOut3"/><feBlend in="SourceGraphic" in2="blurOut3" mode="normal"/></filter></defs><g><rect fill="#FFFFFF" filter="url(#f1xpvamv71vsvb)" height="428.1875" style="stroke:#A80036;stroke-width:1.0;" width="10" x="68" y="99.6094"/><rect fill="#FFFFFF" filter="url(#f1xpvamv71vsvb)" height="30.3516" style="stroke:#A80036;stroke-width:1.0;" width="10" x="563" y="121.9609"/><rect fill="#FFFFFF" filter="url(#f1xpvamv71vsvb)" height="30.3516" style="stroke:#A80036;stroke-width:1.0;" width="10" x="563" y="182.6641"/><rect fill="#FFFFFF" filter="url(#f1xpvamv71vsvb)" height="30" style="stroke:#A80036;stroke-width:1.0;" width="10" x="563" y="268.7188"/><rect fill="#FFFFFF" filter="url(#f1xpvamv71vsvb)" height="30" style="stroke:#A80036;stroke-width:1.0;" width="10" x="563" y="344.9063"/><rect fill="#FFFFFF" filter="url(#f1xpvamv71vsvb)" height="30" style="stroke:#A80036;stroke-width:1.0;" width="10" x="563" y="421.0938"/><rect fill="#FFFFFF" filter="url(#f1xpvamv71vsvb)" height="30.3516" style="stroke:#A80036;stroke-width:1.0;" width="10" x="563" y="488.4453"/><rect fill="#FFFFFF" filter="url(#f1xpvamv71vsvb)" height="231.0781" style="stroke:#000000;stroke-width:2.0;" width="627" x="10" y="228.0156"/><rect fill="#FFFFFF" height="76.1875" style="stroke:none;stroke-width:1.0;" width="627" x="10" y="306.7188"/><rect fill="#FFFFFF" height="76.1875" style="stroke:none;stroke-width:1.0;" width="627" x="10" y="382.9063"/><line style="stroke:#A80036;stroke-width:1.0;stroke-dasharray:5.0,5.0;" x1="73" x2="73" y1="89.6094" y2="536.7969"/><line style="stroke:#A80036;stroke-width:1.0;stroke-dasharray:5.0,5.0;" x1="568" x2="568" y1="89.6094" y2="536.7969"/><text fill="#000000" font-family="sans-serif" font-size="14" lengthAdjust="spacing" textLength="100" x="20" y="86.5332">Traffic manager</text><ellipse cx="73" cy="15" fill="#FEFECE" filter="url(#f1xpvamv71vsvb)" rx="8" ry="8" style="stroke:#A80036;stroke-width:2.0;"/><path d="M73,23 L73,50 M60,31 L86,31 M73,50 L60,65 M73,50 L86,65 " fill="none" filter="url(#f1xpvamv71vsvb)" style="stroke:#A80036;stroke-width:2.0;"/><text fill="#000000" font-family="sans-serif" font-size="14" lengthAdjust="spacing" textLength="100" x="20" y="550.3301">Traffic manager</text><ellipse cx="73" cy="563.4063" fill="#FEFECE" filter="url(#f1xpvamv71vsvb)" rx="8" ry="8" style="stroke:#A80036;stroke-width:2.0;"/><path d="M73,571.4063 L73,598.4063 M60,579.4063 L86,579.4063 M73,598.4063 L60,613.4063 M73,598.4063 L86,613.4063 " fill="none" filter="url(#f1xpvamv71vsvb)" style="stroke:#A80036;stroke-width:2.0;"/><rect fill="#FEFECE" filter="url(#f1xpvamv71vsvb)" height="31.6094" style="stroke:#A80036;stroke-width:1.5;" width="114" x="509" y="53"/><text fill="#000000" font-family="sans-serif" font-size="14" lengthAdjust="spacing" textLength="100" x="516" y="74.5332">SearchDetailsUI</text><rect fill="#FEFECE" filter="url(#f1xpvamv71vsvb)" height="31.6094" style="stroke:#A80036;stroke-width:1.5;" width="114" x="509" y="535.7969"/><text fill="#000000" font-family="sans-serif" font-size="14" lengthAdjust="spacing" textLength="100" x="516" y="557.3301">SearchDetailsUI</text><rect fill="#FFFFFF" filter="url(#f1xpvamv71vsvb)" height="428.1875" style="stroke:#A80036;stroke-width:1.0;" width="10" x="68" y="99.6094"/><rect fill="#FFFFFF" filter="url(#f1xpvamv71vsvb)" height="30.3516" style="stroke:#A80036;stroke-width:1.0;" width="10" x="563" y="121.9609"/><rect fill="#FFFFFF" filter="url(#f1xpvamv71vsvb)" height="30.3516" style="stroke:#A80036;stroke-width:1.0;" width="10" x="563" y="182.6641"/><rect fill="#FFFFFF" filter="url(#f1xpvamv71vsvb)" height="30" style="stroke:#A80036;stroke-width:1.0;" width="10" x="563" y="268.7188"/><rect fill="#FFFFFF" filter="url(#f1xpvamv71vsvb)" height="30" style="stroke:#A80036;stroke-width:1.0;" width="10" x="563" y="344.9063"/><rect fill="#FFFFFF" filter="url(#f1xpvamv71vsvb)" height="30" style="stroke:#A80036;stroke-width:1.0;" width="10" x="563" y="421.0938"/><rect fill="#FFFFFF" filter="url(#f1xpvamv71vsvb)" height="30.3516" style="stroke:#A80036;stroke-width:1.0;" width="10" x="563" y="488.4453"/><polygon fill="#A80036" points="551,117.9609,561,121.9609,551,125.9609,555,121.9609" style="stroke:#A80036;stroke-width:1.0;"/><line style="stroke:#A80036;stroke-width:1.0;" x1="78" x2="557" y1="121.9609" y2="121.9609"/><text fill="#000000" font-family="sans-serif" font-size="13" font-weight="bold" lengthAdjust="spacing" textLength="7" x="85" y="117.1045">1</text><text fill="#000000" font-family="sans-serif" font-size="13" lengthAdjust="spacing" textLength="205" x="96" y="117.1045">Asks to search the details of a ship</text><polygon fill="#A80036" points="89,148.3125,79,152.3125,89,156.3125,85,152.3125" style="stroke:#A80036;stroke-width:1.0;"/><line style="stroke:#A80036;stroke-width:1.0;stroke-dasharray:2.0,2.0;" x1="83" x2="567" y1="152.3125" y2="152.3125"/><text fill="#000000" font-family="sans-serif" font-size="13" font-weight="bold" lengthAdjust="spacing" textLength="7" x="95" y="147.4561">2</text><text fill="#000000" font-family="sans-serif" font-size="13" lengthAdjust="spacing" textLength="450" x="106" y="147.4561">Requests to choose the code to perform the search (MMSI, IMO or Call Sign).</text><polygon fill="#A80036" points="551,178.6641,561,182.6641,551,186.6641,555,182.6641" style="stroke:#A80036;stroke-width:1.0;"/><line style="stroke:#A80036;stroke-width:1.0;" x1="78" x2="557" y1="182.6641" y2="182.6641"/><text fill="#000000" font-family="sans-serif" font-size="13" font-weight="bold" lengthAdjust="spacing" textLength="7" x="85" y="177.8076">3</text><text fill="#000000" font-family="sans-serif" font-size="13" lengthAdjust="spacing" textLength="105" x="96" y="177.8076">Chooses the code</text><polygon fill="#A80036" points="89,209.0156,79,213.0156,89,217.0156,85,213.0156" style="stroke:#A80036;stroke-width:1.0;"/><line style="stroke:#A80036;stroke-width:1.0;stroke-dasharray:2.0,2.0;" x1="83" x2="567" y1="213.0156" y2="213.0156"/><text fill="#000000" font-family="sans-serif" font-size="13" font-weight="bold" lengthAdjust="spacing" textLength="7" x="95" y="208.1592">4</text><text fill="#000000" font-family="sans-serif" font-size="13" lengthAdjust="spacing" textLength="106" x="106" y="208.1592">Asks to type code</text><path d="M10,228.0156 L71,228.0156 L71,236.0156 L61,246.0156 L10,246.0156 L10,228.0156 " fill="#EEEEEE" style="stroke:#000000;stroke-width:1.0;"/><rect fill="none" height="231.0781" style="stroke:#000000;stroke-width:2.0;" width="627" x="10" y="228.0156"/><text fill="#000000" font-family="sans-serif" font-size="13" font-weight="bold" lengthAdjust="spacing" textLength="16" x="25" y="242.5107">alt</text><text fill="#000000" font-family="sans-serif" font-size="11" font-weight="bold" lengthAdjust="spacing" textLength="102" x="86" y="241.4346">[ship code - MMSI]</text><polygon fill="#A80036" points="551,264.7188,561,268.7188,551,272.7188,555,268.7188" style="stroke:#A80036;stroke-width:1.0;"/><line style="stroke:#A80036;stroke-width:1.0;" x1="78" x2="557" y1="268.7188" y2="268.7188"/><text fill="#000000" font-family="sans-serif" font-size="13" font-weight="bold" lengthAdjust="spacing" textLength="7" x="85" y="263.8623">5</text><text fill="#000000" font-family="sans-serif" font-size="13" lengthAdjust="spacing" textLength="97" x="96" y="263.8623">Search by MMSI</text><line style="stroke:#000000;stroke-width:1.0;stroke-dasharray:2.0,2.0;" x1="10" x2="637" y1="307.7188" y2="307.7188"/><text fill="#000000" font-family="sans-serif" font-size="11" font-weight="bold" lengthAdjust="spacing" textLength="93" x="15" y="319.1377">[ship code - IMO]</text><polygon fill="#A80036" points="551,340.9063,561,344.9063,551,348.9063,555,344.9063" style="stroke:#A80036;stroke-width:1.0;"/><line style="stroke:#A80036;stroke-width:1.0;" x1="78" x2="557" y1="344.9063" y2="344.9063"/><text fill="#000000" font-family="sans-serif" font-size="13" font-weight="bold" lengthAdjust="spacing" textLength="7" x="85" y="340.0498">6</text><text fill="#000000" font-family="sans-serif" font-size="13" lengthAdjust="spacing" textLength="87" x="96" y="340.0498">Search by IMO</text><line style="stroke:#000000;stroke-width:1.0;stroke-dasharray:2.0,2.0;" x1="10" x2="637" y1="383.9063" y2="383.9063"/><text fill="#000000" font-family="sans-serif" font-size="11" font-weight="bold" lengthAdjust="spacing" textLength="119" x="15" y="395.3252">[ship code - Call Sign]</text><polygon fill="#A80036" points="551,417.0938,561,421.0938,551,425.0938,555,421.0938" style="stroke:#A80036;stroke-width:1.0;"/><line style="stroke:#A80036;stroke-width:1.0;" x1="78" x2="557" y1="421.0938" y2="421.0938"/><text fill="#000000" font-family="sans-serif" font-size="13" font-weight="bold" lengthAdjust="spacing" textLength="7" x="85" y="416.2373">7</text><text fill="#000000" font-family="sans-serif" font-size="13" lengthAdjust="spacing" textLength="115" x="96" y="416.2373">Search by Call Sign</text><polygon fill="#A80036" points="551,484.4453,561,488.4453,551,492.4453,555,488.4453" style="stroke:#A80036;stroke-width:1.0;"/><line style="stroke:#A80036;stroke-width:1.0;" x1="78" x2="557" y1="488.4453" y2="488.4453"/><text fill="#000000" font-family="sans-serif" font-size="13" font-weight="bold" lengthAdjust="spacing" textLength="7" x="85" y="483.5889">8</text><text fill="#000000" font-family="sans-serif" font-size="13" lengthAdjust="spacing" textLength="84" x="96" y="483.5889">Requests data</text><polygon fill="#A80036" points="89,514.7969,79,518.7969,89,522.7969,85,518.7969" style="stroke:#A80036;stroke-width:1.0;"/><line style="stroke:#A80036;stroke-width:1.0;stroke-dasharray:2.0,2.0;" x1="83" x2="567" y1="518.7969" y2="518.7969"/><text fill="#000000" font-family="sans-serif" font-size="13" font-weight="bold" lengthAdjust="spacing" textLength="7" x="95" y="513.9404">9</text><text fill="#000000" font-family="sans-serif" font-size="13" lengthAdjust="spacing" textLength="178" x="106" y="513.9404">Displays the details of the ship</text><!--MD5=[22d551b35e20fcb73875ec7754bf61c5]
@startuml
autonumber

actor "Traffic manager" as manager
participant "SearchDetailsUI" as sdUI

activate manager
manager -> sdUI : Asks to search the details of a ship
activate sdUI
sdUI - -> manager : Requests to choose the code to perform the search (MMSI, IMO or Call Sign).
deactivate sdUI

manager -> sdUI : Chooses the code
activate sdUI
sdUI - -> manager : Asks to type code
deactivate sdUI

alt ship code - MMSI
manager -> sdUI  : Search by MMSI
activate sdUI
deactivate sdUI
else ship code - IMO
manager -> sdUI  : Search by IMO
activate sdUI
deactivate sdUI
else ship code - Call Sign
manager -> sdUI : Search by Call Sign
activate sdUI
deactivate sdUI
end


manager -> sdUI : Requests data
activate sdUI

sdUI - -> manager : Displays the details of the ship
deactivate sdUI

@enduml

PlantUML version 1.2021.11(Sat Oct 02 14:26:11 BST 2021)
(GPL source distribution)
Java Runtime: OpenJDK Runtime Environment
JVM: OpenJDK 64-Bit Server VM
Default Encoding: Cp1252
Language: pt
Country: PT
--></g></svg>