<?xml version="1.0" encoding="UTF-8" standalone="no"?><svg xmlns="http://www.w3.org/2000/svg" xmlns:xlink="http://www.w3.org/1999/xlink" contentScriptType="application/ecmascript" contentStyleType="text/css" height="1049px" preserveAspectRatio="none" style="width:655px;height:1049px;background:#FFFFFF;" version="1.1" viewBox="0 0 655 1049" width="655px" zoomAndPan="magnify"><defs><filter height="300%" id="f1exc0ehg3151f" width="300%" x="-1" y="-1"><feGaussianBlur result="blurOut" stdDeviation="2.0"/><feColorMatrix in="blurOut" result="blurOut2" type="matrix" values="0 0 0 0 0 0 0 0 0 0 0 0 0 0 0 0 0 0 .4 0"/><feOffset dx="4.0" dy="4.0" in="blurOut2" result="blurOut3"/><feBlend in="SourceGraphic" in2="blurOut3" mode="normal"/></filter></defs><g><!--MD5=[0dc7f2ddb409b58bcf52b12238c25399]
class Ship--><rect codeLine="5" fill="#FEFECE" filter="url(#f1exc0ehg3151f)" height="338.5547" id="Ship" style="stroke:#A80036;stroke-width:1.5;" width="161" x="7" y="697"/><ellipse cx="70.75" cy="713" fill="#ADD1B2" rx="11" ry="11" style="stroke:#A80036;stroke-width:1.0;"/><path d="M72.75,709.5 Q72.9531,709 73.1875,708.75 Q73.4219,708.5 73.6875,708.5 Q74.1563,708.5 74.4531,708.7813 Q74.75,709.0625 74.75,709.7188 L74.75,711.2813 Q74.75,711.9375 74.4688,712.2188 Q74.1875,712.5 73.75,712.5 Q73.3594,712.5 73.1094,712.3281 Q72.8594,712.1563 72.75,711.7031 Q72.7031,711.3906 72.5313,711.2188 Q72.2188,710.8906 71.6563,710.7031 Q71.0938,710.5 70.5313,710.5 Q69.8281,710.5 69.2344,710.7813 Q68.6563,711.0625 68.2031,711.6875 Q67.75,712.3125 67.75,713.1719 L67.75,714.0938 Q67.75,715.125 68.5938,715.8125 Q69.4375,716.5 70.9375,716.5 Q71.8281,716.5 72.4531,716.2969 Q72.8125,716.1875 73.2188,715.8281 Q73.4844,715.625 73.625,715.5625 Q73.7656,715.5 73.9375,715.5 Q74.2656,715.5 74.5,715.7656 Q74.75,716.0156 74.75,716.375 Q74.75,716.7188 74.4063,717.125 Q73.9063,717.7188 73.1094,718.0469 Q72.0625,718.5 70.7813,718.5 Q69.2813,718.5 68.0781,717.9063 Q67.1094,717.4375 66.4219,716.4219 Q65.75,715.4063 65.75,714.2031 L65.75,713.1094 Q65.75,711.8594 66.3438,710.7656 Q66.9531,709.6719 68,709.0938 Q69.0625,708.5 70.25,708.5 Q70.9688,708.5 71.5938,708.75 Q72.2188,709 72.75,709.5 Z " fill="#000000"/><text fill="#000000" font-family="sans-serif" font-size="12" lengthAdjust="spacing" textLength="25" x="91.25" y="717.9102">Ship</text><line style="stroke:#A80036;stroke-width:1.5;" x1="8" x2="167" y1="729" y2="729"/><text fill="#000000" font-family="sans-serif" font-size="11" lengthAdjust="spacing" textLength="90" x="13" y="744.4189">-mmsiCode : String</text><text fill="#000000" font-family="sans-serif" font-size="11" lengthAdjust="spacing" textLength="67" x="13" y="758.2549">-name : String</text><text fill="#000000" font-family="sans-serif" font-size="11" lengthAdjust="spacing" textLength="82" x="13" y="772.0908">-imoCode : String</text><text fill="#000000" font-family="sans-serif" font-size="11" lengthAdjust="spacing" textLength="149" x="13" y="785.9268">-numberEnergyGenerators : int</text><text fill="#000000" font-family="sans-serif" font-size="11" lengthAdjust="spacing" textLength="113" x="13" y="799.7627">-generatorPower : float</text><text fill="#000000" font-family="sans-serif" font-size="11" lengthAdjust="spacing" textLength="78" x="13" y="813.5986">-callSign : String</text><text fill="#000000" font-family="sans-serif" font-size="11" lengthAdjust="spacing" textLength="80" x="13" y="827.4346">-vesselType : int</text><text fill="#000000" font-family="sans-serif" font-size="11" lengthAdjust="spacing" textLength="63" x="13" y="841.2705">-length : float</text><text fill="#000000" font-family="sans-serif" font-size="11" lengthAdjust="spacing" textLength="61" x="13" y="855.1064">-width : float</text><text fill="#000000" font-family="sans-serif" font-size="11" lengthAdjust="spacing" textLength="75" x="13" y="868.9424">-capacity : float</text><text fill="#000000" font-family="sans-serif" font-size="11" lengthAdjust="spacing" textLength="57" x="13" y="882.7783">-draft : float</text><line style="stroke:#A80036;stroke-width:1.0;" x1="8" x2="167" y1="889.1953" y2="889.1953"/><text fill="#000000" font-family="sans-serif" font-size="11" lengthAdjust="spacing" textLength="52" x="13" y="904.6143">-getMMSI()</text><text fill="#000000" font-family="sans-serif" font-size="11" lengthAdjust="spacing" textLength="54" x="13" y="918.4502">-getName()</text><text fill="#000000" font-family="sans-serif" font-size="11" lengthAdjust="spacing" textLength="56" x="13" y="932.2861">-getShipId()</text><text fill="#000000" font-family="sans-serif" font-size="11" lengthAdjust="spacing" textLength="116" x="13" y="946.1221">-getEnergyGenerators()</text><text fill="#000000" font-family="sans-serif" font-size="11" lengthAdjust="spacing" textLength="65" x="13" y="959.958">-getCallSign()</text><text fill="#000000" font-family="sans-serif" font-size="11" lengthAdjust="spacing" textLength="85" x="13" y="973.7939">-getVesselType()</text><text fill="#000000" font-family="sans-serif" font-size="11" lengthAdjust="spacing" textLength="60" x="13" y="987.6299">-getLength()</text><text fill="#000000" font-family="sans-serif" font-size="11" lengthAdjust="spacing" textLength="54" x="13" y="1001.4658">-getWidth()</text><text fill="#000000" font-family="sans-serif" font-size="11" lengthAdjust="spacing" textLength="69" x="13" y="1015.3018">-getCapacity()</text><text fill="#000000" font-family="sans-serif" font-size="11" lengthAdjust="spacing" textLength="51" x="13" y="1029.1377">-getDraft()</text><!--MD5=[b5b6c86a063960d0027bc1719947b1c8]
class BstShip--><rect codeLine="31" fill="#FEFECE" filter="url(#f1exc0ehg3151f)" height="75.6719" id="BstShip" style="stroke:#A80036;stroke-width:1.5;" width="171" x="260" y="828.5"/><ellipse cx="319.75" cy="844.5" fill="#ADD1B2" rx="11" ry="11" style="stroke:#A80036;stroke-width:1.0;"/><path d="M321.75,841 Q321.9531,840.5 322.1875,840.25 Q322.4219,840 322.6875,840 Q323.1563,840 323.4531,840.2813 Q323.75,840.5625 323.75,841.2188 L323.75,842.7813 Q323.75,843.4375 323.4688,843.7188 Q323.1875,844 322.75,844 Q322.3594,844 322.1094,843.8281 Q321.8594,843.6563 321.75,843.2031 Q321.7031,842.8906 321.5313,842.7188 Q321.2188,842.3906 320.6563,842.2031 Q320.0938,842 319.5313,842 Q318.8281,842 318.2344,842.2813 Q317.6563,842.5625 317.2031,843.1875 Q316.75,843.8125 316.75,844.6719 L316.75,845.5938 Q316.75,846.625 317.5938,847.3125 Q318.4375,848 319.9375,848 Q320.8281,848 321.4531,847.7969 Q321.8125,847.6875 322.2188,847.3281 Q322.4844,847.125 322.625,847.0625 Q322.7656,847 322.9375,847 Q323.2656,847 323.5,847.2656 Q323.75,847.5156 323.75,847.875 Q323.75,848.2188 323.4063,848.625 Q322.9063,849.2188 322.1094,849.5469 Q321.0625,850 319.7813,850 Q318.2813,850 317.0781,849.4063 Q316.1094,848.9375 315.4219,847.9219 Q314.75,846.9063 314.75,845.7031 L314.75,844.6094 Q314.75,843.3594 315.3438,842.2656 Q315.9531,841.1719 317,840.5938 Q318.0625,840 319.25,840 Q319.9688,840 320.5938,840.25 Q321.2188,840.5 321.75,841 Z " fill="#000000"/><text fill="#000000" font-family="sans-serif" font-size="12" lengthAdjust="spacing" textLength="43" x="340.25" y="849.4102">BstShip</text><line style="stroke:#A80036;stroke-width:1.5;" x1="261" x2="430" y1="860.5" y2="860.5"/><line style="stroke:#A80036;stroke-width:1.5;" x1="261" x2="430" y1="868.5" y2="868.5"/><text fill="#000000" font-family="sans-serif" font-size="11" lengthAdjust="spacing" textLength="159" x="266" y="883.9189">-getShipByMmsiCode(mmsiCode)</text><text fill="#000000" font-family="sans-serif" font-size="11" lengthAdjust="spacing" textLength="48" x="266" y="897.7549">-inOrder()</text><!--MD5=[c36946ee622f79b2ba4ead59d4d8f428]
class SearchDetailsUI--><rect codeLine="38" fill="#FEFECE" filter="url(#f1exc0ehg3151f)" height="48" id="SearchDetailsUI" style="stroke:#A80036;stroke-width:1.5;" width="122" x="354.5" y="7"/><ellipse cx="369.5" cy="23" fill="#ADD1B2" rx="11" ry="11" style="stroke:#A80036;stroke-width:1.0;"/><path d="M371.5,19.5 Q371.7031,19 371.9375,18.75 Q372.1719,18.5 372.4375,18.5 Q372.9063,18.5 373.2031,18.7813 Q373.5,19.0625 373.5,19.7188 L373.5,21.2813 Q373.5,21.9375 373.2188,22.2188 Q372.9375,22.5 372.5,22.5 Q372.1094,22.5 371.8594,22.3281 Q371.6094,22.1563 371.5,21.7031 Q371.4531,21.3906 371.2813,21.2188 Q370.9688,20.8906 370.4063,20.7031 Q369.8438,20.5 369.2813,20.5 Q368.5781,20.5 367.9844,20.7813 Q367.4063,21.0625 366.9531,21.6875 Q366.5,22.3125 366.5,23.1719 L366.5,24.0938 Q366.5,25.125 367.3438,25.8125 Q368.1875,26.5 369.6875,26.5 Q370.5781,26.5 371.2031,26.2969 Q371.5625,26.1875 371.9688,25.8281 Q372.2344,25.625 372.375,25.5625 Q372.5156,25.5 372.6875,25.5 Q373.0156,25.5 373.25,25.7656 Q373.5,26.0156 373.5,26.375 Q373.5,26.7188 373.1563,27.125 Q372.6563,27.7188 371.8594,28.0469 Q370.8125,28.5 369.5313,28.5 Q368.0313,28.5 366.8281,27.9063 Q365.8594,27.4375 365.1719,26.4219 Q364.5,25.4063 364.5,24.2031 L364.5,23.1094 Q364.5,21.8594 365.0938,20.7656 Q365.7031,19.6719 366.75,19.0938 Q367.8125,18.5 369,18.5 Q369.7188,18.5 370.3438,18.75 Q370.9688,19 371.5,19.5 Z " fill="#000000"/><text fill="#000000" font-family="sans-serif" font-size="12" lengthAdjust="spacing" textLength="90" x="383.5" y="27.9102">SearchDetailsUI</text><line style="stroke:#A80036;stroke-width:1.5;" x1="355.5" x2="475.5" y1="39" y2="39"/><line style="stroke:#A80036;stroke-width:1.5;" x1="355.5" x2="475.5" y1="47" y2="47"/><!--MD5=[d2226d79f2e69102fa1ea67ea89c514e]
class SearchDetailsController--><rect codeLine="40" fill="#FEFECE" filter="url(#f1exc0ehg3151f)" height="103.3438" id="SearchDetailsController" style="stroke:#A80036;stroke-width:1.5;" width="185" x="238" y="116"/><ellipse cx="262.45" cy="132" fill="#ADD1B2" rx="11" ry="11" style="stroke:#A80036;stroke-width:1.0;"/><path d="M264.45,128.5 Q264.6531,128 264.8875,127.75 Q265.1219,127.5 265.3875,127.5 Q265.8563,127.5 266.1531,127.7813 Q266.45,128.0625 266.45,128.7188 L266.45,130.2813 Q266.45,130.9375 266.1688,131.2188 Q265.8875,131.5 265.45,131.5 Q265.0594,131.5 264.8094,131.3281 Q264.5594,131.1563 264.45,130.7031 Q264.4031,130.3906 264.2313,130.2188 Q263.9188,129.8906 263.3563,129.7031 Q262.7938,129.5 262.2313,129.5 Q261.5281,129.5 260.9344,129.7813 Q260.3563,130.0625 259.9031,130.6875 Q259.45,131.3125 259.45,132.1719 L259.45,133.0938 Q259.45,134.125 260.2938,134.8125 Q261.1375,135.5 262.6375,135.5 Q263.5281,135.5 264.1531,135.2969 Q264.5125,135.1875 264.9188,134.8281 Q265.1844,134.625 265.325,134.5625 Q265.4656,134.5 265.6375,134.5 Q265.9656,134.5 266.2,134.7656 Q266.45,135.0156 266.45,135.375 Q266.45,135.7188 266.1063,136.125 Q265.6063,136.7188 264.8094,137.0469 Q263.7625,137.5 262.4813,137.5 Q260.9813,137.5 259.7781,136.9063 Q258.8094,136.4375 258.1219,135.4219 Q257.45,134.4063 257.45,133.2031 L257.45,132.1094 Q257.45,130.8594 258.0438,129.7656 Q258.6531,128.6719 259.7,128.0938 Q260.7625,127.5 261.95,127.5 Q262.6688,127.5 263.2938,127.75 Q263.9188,128 264.45,128.5 Z " fill="#000000"/><text fill="#000000" font-family="sans-serif" font-size="12" lengthAdjust="spacing" textLength="132" x="278.55" y="136.9102">SearchDetailsController</text><line style="stroke:#A80036;stroke-width:1.5;" x1="239" x2="422" y1="148" y2="148"/><line style="stroke:#A80036;stroke-width:1.5;" x1="239" x2="422" y1="156" y2="156"/><text fill="#000000" font-family="sans-serif" font-size="11" lengthAdjust="spacing" textLength="173" x="244" y="171.4189">-shipExistByMMSI(String mmsiCode)</text><text fill="#000000" font-family="sans-serif" font-size="11" lengthAdjust="spacing" textLength="158" x="244" y="185.2549">-shipExistByIMO(String imoCode)</text><text fill="#000000" font-family="sans-serif" font-size="11" lengthAdjust="spacing" textLength="173" x="244" y="199.0908">-shipExistByCallSign(String callsign)</text><text fill="#000000" font-family="sans-serif" font-size="11" lengthAdjust="spacing" textLength="80" x="244" y="212.9268">-getShipDetails()</text><!--MD5=[02e4b9b7573f1156f41e60aa5b4e25a4]
class Company--><rect codeLine="47" fill="#FEFECE" filter="url(#f1exc0ehg3151f)" height="75.6719" id="Company" style="stroke:#A80036;stroke-width:1.5;" width="85" x="360" y="411.5"/><ellipse cx="375" cy="427.5" fill="#ADD1B2" rx="11" ry="11" style="stroke:#A80036;stroke-width:1.0;"/><path d="M377,424 Q377.2031,423.5 377.4375,423.25 Q377.6719,423 377.9375,423 Q378.4063,423 378.7031,423.2813 Q379,423.5625 379,424.2188 L379,425.7813 Q379,426.4375 378.7188,426.7188 Q378.4375,427 378,427 Q377.6094,427 377.3594,426.8281 Q377.1094,426.6563 377,426.2031 Q376.9531,425.8906 376.7813,425.7188 Q376.4688,425.3906 375.9063,425.2031 Q375.3438,425 374.7813,425 Q374.0781,425 373.4844,425.2813 Q372.9063,425.5625 372.4531,426.1875 Q372,426.8125 372,427.6719 L372,428.5938 Q372,429.625 372.8438,430.3125 Q373.6875,431 375.1875,431 Q376.0781,431 376.7031,430.7969 Q377.0625,430.6875 377.4688,430.3281 Q377.7344,430.125 377.875,430.0625 Q378.0156,430 378.1875,430 Q378.5156,430 378.75,430.2656 Q379,430.5156 379,430.875 Q379,431.2188 378.6563,431.625 Q378.1563,432.2188 377.3594,432.5469 Q376.3125,433 375.0313,433 Q373.5313,433 372.3281,432.4063 Q371.3594,431.9375 370.6719,430.9219 Q370,429.9063 370,428.7031 L370,427.6094 Q370,426.3594 370.5938,425.2656 Q371.2031,424.1719 372.25,423.5938 Q373.3125,423 374.5,423 Q375.2188,423 375.8438,423.25 Q376.4688,423.5 377,424 Z " fill="#000000"/><text fill="#000000" font-family="sans-serif" font-size="12" lengthAdjust="spacing" textLength="53" x="389" y="432.4102">Company</text><line style="stroke:#A80036;stroke-width:1.5;" x1="361" x2="444" y1="443.5" y2="443.5"/><text fill="#000000" font-family="sans-serif" font-size="11" lengthAdjust="spacing" textLength="59" x="366" y="458.9189">-designation</text><line style="stroke:#A80036;stroke-width:1.5;" x1="361" x2="444" y1="465.3359" y2="465.3359"/><text fill="#000000" font-family="sans-serif" font-size="11" lengthAdjust="spacing" textLength="64" x="366" y="480.7549">-getBstShip()</text><!--MD5=[2f2c3629943552ff32f793ea8d4c8682]
class SearchDetailsMapper--><rect codeLine="52" fill="#FEFECE" filter="url(#f1exc0ehg3151f)" height="61.8359" id="SearchDetailsMapper" style="stroke:#A80036;stroke-width:1.5;" width="151" x="102" y="418.5"/><ellipse cx="117" cy="434.5" fill="#ADD1B2" rx="11" ry="11" style="stroke:#A80036;stroke-width:1.0;"/><path d="M119,431 Q119.2031,430.5 119.4375,430.25 Q119.6719,430 119.9375,430 Q120.4063,430 120.7031,430.2813 Q121,430.5625 121,431.2188 L121,432.7813 Q121,433.4375 120.7188,433.7188 Q120.4375,434 120,434 Q119.6094,434 119.3594,433.8281 Q119.1094,433.6563 119,433.2031 Q118.9531,432.8906 118.7813,432.7188 Q118.4688,432.3906 117.9063,432.2031 Q117.3438,432 116.7813,432 Q116.0781,432 115.4844,432.2813 Q114.9063,432.5625 114.4531,433.1875 Q114,433.8125 114,434.6719 L114,435.5938 Q114,436.625 114.8438,437.3125 Q115.6875,438 117.1875,438 Q118.0781,438 118.7031,437.7969 Q119.0625,437.6875 119.4688,437.3281 Q119.7344,437.125 119.875,437.0625 Q120.0156,437 120.1875,437 Q120.5156,437 120.75,437.2656 Q121,437.5156 121,437.875 Q121,438.2188 120.6563,438.625 Q120.1563,439.2188 119.3594,439.5469 Q118.3125,440 117.0313,440 Q115.5313,440 114.3281,439.4063 Q113.3594,438.9375 112.6719,437.9219 Q112,436.9063 112,435.7031 L112,434.6094 Q112,433.3594 112.5938,432.2656 Q113.2031,431.1719 114.25,430.5938 Q115.3125,430 116.5,430 Q117.2188,430 117.8438,430.25 Q118.4688,430.5 119,431 Z " fill="#000000"/><text fill="#000000" font-family="sans-serif" font-size="12" lengthAdjust="spacing" textLength="119" x="131" y="439.4102">SearchDetailsMapper</text><line style="stroke:#A80036;stroke-width:1.5;" x1="103" x2="252" y1="450.5" y2="450.5"/><line style="stroke:#A80036;stroke-width:1.5;" x1="103" x2="252" y1="458.5" y2="458.5"/><text fill="#000000" font-family="sans-serif" font-size="11" lengthAdjust="spacing" textLength="92" x="108" y="473.9189">-shipDetailsToDto()</text><!--MD5=[35c5bcafb28fc1545b34d6d094fd134a]
class ShipDetailsDto--><rect codeLine="56" fill="#FEFECE" filter="url(#f1exc0ehg3151f)" height="338.5547" id="ShipDetailsDto" style="stroke:#A80036;stroke-width:1.5;" width="161" x="480" y="280"/><ellipse cx="515.7" cy="296" fill="#ADD1B2" rx="11" ry="11" style="stroke:#A80036;stroke-width:1.0;"/><path d="M517.7,292.5 Q517.9031,292 518.1375,291.75 Q518.3719,291.5 518.6375,291.5 Q519.1063,291.5 519.4031,291.7813 Q519.7,292.0625 519.7,292.7188 L519.7,294.2813 Q519.7,294.9375 519.4188,295.2188 Q519.1375,295.5 518.7,295.5 Q518.3094,295.5 518.0594,295.3281 Q517.8094,295.1563 517.7,294.7031 Q517.6531,294.3906 517.4813,294.2188 Q517.1688,293.8906 516.6063,293.7031 Q516.0438,293.5 515.4813,293.5 Q514.7781,293.5 514.1844,293.7813 Q513.6063,294.0625 513.1531,294.6875 Q512.7,295.3125 512.7,296.1719 L512.7,297.0938 Q512.7,298.125 513.5438,298.8125 Q514.3875,299.5 515.8875,299.5 Q516.7781,299.5 517.4031,299.2969 Q517.7625,299.1875 518.1688,298.8281 Q518.4344,298.625 518.575,298.5625 Q518.7156,298.5 518.8875,298.5 Q519.2156,298.5 519.45,298.7656 Q519.7,299.0156 519.7,299.375 Q519.7,299.7188 519.3563,300.125 Q518.8563,300.7188 518.0594,301.0469 Q517.0125,301.5 515.7313,301.5 Q514.2313,301.5 513.0281,300.9063 Q512.0594,300.4375 511.3719,299.4219 Q510.7,298.4063 510.7,297.2031 L510.7,296.1094 Q510.7,294.8594 511.2938,293.7656 Q511.9031,292.6719 512.95,292.0938 Q514.0125,291.5 515.2,291.5 Q515.9188,291.5 516.5438,291.75 Q517.1688,292 517.7,292.5 Z " fill="#000000"/><text fill="#000000" font-family="sans-serif" font-size="12" lengthAdjust="spacing" textLength="83" x="534.3" y="300.9102">ShipDetailsDto</text><line style="stroke:#A80036;stroke-width:1.5;" x1="481" x2="640" y1="312" y2="312"/><text fill="#000000" font-family="sans-serif" font-size="11" lengthAdjust="spacing" textLength="90" x="486" y="327.4189">-mmsiCode : String</text><text fill="#000000" font-family="sans-serif" font-size="11" lengthAdjust="spacing" textLength="67" x="486" y="341.2549">-name : String</text><text fill="#000000" font-family="sans-serif" font-size="11" lengthAdjust="spacing" textLength="82" x="486" y="355.0908">-imoCode : String</text><text fill="#000000" font-family="sans-serif" font-size="11" lengthAdjust="spacing" textLength="149" x="486" y="368.9268">-numberEnergyGenerators : int</text><text fill="#000000" font-family="sans-serif" font-size="11" lengthAdjust="spacing" textLength="113" x="486" y="382.7627">-generatorPower : float</text><text fill="#000000" font-family="sans-serif" font-size="11" lengthAdjust="spacing" textLength="78" x="486" y="396.5986">-callSign : String</text><text fill="#000000" font-family="sans-serif" font-size="11" lengthAdjust="spacing" textLength="80" x="486" y="410.4346">-vesselType : int</text><text fill="#000000" font-family="sans-serif" font-size="11" lengthAdjust="spacing" textLength="63" x="486" y="424.2705">-length : float</text><text fill="#000000" font-family="sans-serif" font-size="11" lengthAdjust="spacing" textLength="61" x="486" y="438.1064">-width : float</text><text fill="#000000" font-family="sans-serif" font-size="11" lengthAdjust="spacing" textLength="75" x="486" y="451.9424">-capacity : float</text><text fill="#000000" font-family="sans-serif" font-size="11" lengthAdjust="spacing" textLength="57" x="486" y="465.7783">-draft : float</text><line style="stroke:#A80036;stroke-width:1.0;" x1="481" x2="640" y1="472.1953" y2="472.1953"/><text fill="#000000" font-family="sans-serif" font-size="11" lengthAdjust="spacing" textLength="52" x="486" y="487.6143">-getMMSI()</text><text fill="#000000" font-family="sans-serif" font-size="11" lengthAdjust="spacing" textLength="54" x="486" y="501.4502">-getName()</text><text fill="#000000" font-family="sans-serif" font-size="11" lengthAdjust="spacing" textLength="56" x="486" y="515.2861">-getShipId()</text><text fill="#000000" font-family="sans-serif" font-size="11" lengthAdjust="spacing" textLength="116" x="486" y="529.1221">-getEnergyGenerators()</text><text fill="#000000" font-family="sans-serif" font-size="11" lengthAdjust="spacing" textLength="65" x="486" y="542.958">-getCallSign()</text><text fill="#000000" font-family="sans-serif" font-size="11" lengthAdjust="spacing" textLength="85" x="486" y="556.7939">-getVesselType()</text><text fill="#000000" font-family="sans-serif" font-size="11" lengthAdjust="spacing" textLength="60" x="486" y="570.6299">-getLength()</text><text fill="#000000" font-family="sans-serif" font-size="11" lengthAdjust="spacing" textLength="54" x="486" y="584.4658">-getWidth()</text><text fill="#000000" font-family="sans-serif" font-size="11" lengthAdjust="spacing" textLength="69" x="486" y="598.3018">-getCapacity()</text><text fill="#000000" font-family="sans-serif" font-size="11" lengthAdjust="spacing" textLength="51" x="486" y="612.1377">-getDraft()</text><!--MD5=[14fdb76946ac0c0eabf5d41702e30a18]
link Company to BstShip--><path codeLine="83" d="M397.39,487.69 C386.57,566.48 361.45,749.4 350.62,828.24 " fill="none" id="Company-BstShip" style="stroke:#A80036;stroke-width:1.0;"/><polygon fill="#000000" points="377.8197,663.1293,381.962,654.5682,376.1388,653.7684,377.8197,663.1293" style="stroke:#000000;stroke-width:1.0;"/><text fill="#000000" font-family="sans-serif" font-size="13" lengthAdjust="spacing" textLength="28" x="387.5" y="663.4951">uses</text><text fill="#000000" font-family="sans-serif" font-size="13" lengthAdjust="spacing" textLength="7" x="389.0178" y="508.6008">1</text><text fill="#000000" font-family="sans-serif" font-size="13" lengthAdjust="spacing" textLength="7" x="343.9086" y="817.5556">1</text><!--MD5=[73abdd4b204c69df1eb718b7bd4910f9]
link SearchDetailsUI to SearchDetailsController--><path codeLine="85" d="M400.89,55.12 C391.09,70.62 377.76,91.73 365.33,111.39 " fill="none" id="SearchDetailsUI-to-SearchDetailsController" style="stroke:#A80036;stroke-width:1.0;stroke-dasharray:7.0,7.0;"/><polygon fill="#A80036" points="362.52,115.83,370.7086,110.3576,365.1905,111.6029,363.9452,106.0848,362.52,115.83" style="stroke:#A80036;stroke-width:1.0;"/><!--MD5=[b7972b566d987215520927fbe69f1b85]
link SearchDetailsUI to ShipDetailsDto--><path codeLine="86" d="M423.61,55.29 C438.31,97.53 470.61,190.29 500.14,275.11 " fill="none" id="SearchDetailsUI-to-ShipDetailsDto" style="stroke:#A80036;stroke-width:1.0;stroke-dasharray:7.0,7.0;"/><polygon fill="#A80036" points="501.81,279.91,502.6083,270.0936,500.1563,275.1914,495.0585,272.7394,501.81,279.91" style="stroke:#A80036;stroke-width:1.0;"/><!--MD5=[ce52d72fff9a58d20b0c49c8557e5ba8]
link SearchDetailsController to Company--><path codeLine="88" d="M343.54,219.21 C357.29,272.68 378.71,356 391.6,406.11 " fill="none" id="SearchDetailsController-to-Company" style="stroke:#A80036;stroke-width:1.0;stroke-dasharray:7.0,7.0;"/><polygon fill="#A80036" points="392.9,411.15,394.5372,401.4382,391.6571,406.3069,386.7883,403.4268,392.9,411.15" style="stroke:#A80036;stroke-width:1.0;"/><!--MD5=[28304c458d9d919c54136e0161c12a25]
link SearchDetailsController to BstShip--><path codeLine="89" d="M331.59,219.19 C334.42,350.68 341.96,700.98 344.58,822.93 " fill="none" id="SearchDetailsController-to-BstShip" style="stroke:#A80036;stroke-width:1.0;stroke-dasharray:7.0,7.0;"/><polygon fill="#A80036" points="344.7,828.22,348.4933,819.1309,344.5857,823.2213,340.4954,819.3138,344.7,828.22" style="stroke:#A80036;stroke-width:1.0;"/><!--MD5=[4dc7c95cfc6c66367b42f92d3c92239d]
link SearchDetailsController to Ship--><path codeLine="90" d="M237.8,184.77 C183.13,199.64 118.23,227.68 84.5,280 C6.54,400.92 15.71,567.11 39.48,691.54 " fill="none" id="SearchDetailsController-to-Ship" style="stroke:#A80036;stroke-width:1.0;stroke-dasharray:7.0,7.0;"/><polygon fill="#A80036" points="40.48,696.69,42.6856,687.0913,39.5241,691.7822,34.8332,688.6207,40.48,696.69" style="stroke:#A80036;stroke-width:1.0;"/><!--MD5=[1e8bfab2ff58659f8a16d6ea29c3a1d3]
link SearchDetailsController to SearchDetailsMapper--><path codeLine="91" d="M298.14,219.24 C292.14,229.03 286.02,239.27 280.5,249 C248.33,305.68 214.25,373.43 194.47,413.6 " fill="none" id="SearchDetailsController-to-SearchDetailsMapper" style="stroke:#A80036;stroke-width:1.0;stroke-dasharray:7.0,7.0;"/><polygon fill="#A80036" points="192.13,418.36,199.6926,412.0507,194.3375,413.8737,192.5145,408.5187,192.13,418.36" style="stroke:#A80036;stroke-width:1.0;"/><!--MD5=[dec6963e739da55473e8a976e6a686c4]
link SearchDetailsController to ShipDetailsDto--><path codeLine="92" d="M399.38,219.15 C421.04,236.96 444.09,258.05 462.5,280 C467.36,285.79 472.12,291.86 476.76,298.1 " fill="none" id="SearchDetailsController-to-ShipDetailsDto" style="stroke:#A80036;stroke-width:1.0;stroke-dasharray:7.0,7.0;"/><polygon fill="#A80036" points="479.95,302.46,477.8489,292.8379,476.9913,298.4293,471.3999,297.5718,479.95,302.46" style="stroke:#A80036;stroke-width:1.0;"/><!--MD5=[19a1a0c4be1781288d008253888ea362]
link SearchDetailsMapper to Ship--><path codeLine="95" d="M170.95,480.68 C161.3,525.21 142.5,611.89 125.18,691.73 " fill="none" id="SearchDetailsMapper-to-Ship" style="stroke:#A80036;stroke-width:1.0;stroke-dasharray:7.0,7.0;"/><polygon fill="#A80036" points="124.05,696.98,129.8629,689.0295,125.1074,692.0931,122.0438,687.3376,124.05,696.98" style="stroke:#A80036;stroke-width:1.0;"/><!--MD5=[296de91d353db2f4d44b7553792d0628]
@startuml
'https://plantuml.com/class-diagram

skinparam classAttributeIconSize 0

class Ship {
-mmsiCode : String
-name : String
-imoCode : String
-numberEnergyGenerators : int
-generatorPower : float
-callSign : String
-vesselType : int
-length : float
-width : float
-capacity : float
-draft : float
- -
-getMMSI()
-getName()
-getShipId()
-getEnergyGenerators()
-getCallSign()
-getVesselType()
-getLength()
-getWidth()
-getCapacity()
-getDraft()
}


class BstShip {
-getShipByMmsiCode(mmsiCode)
-inOrder()

}


class SearchDetailsUI {}

class SearchDetailsController {
-shipExistByMMSI(String mmsiCode)
-shipExistByIMO(String imoCode)
-shipExistByCallSign(String callsign)
-getShipDetails()
}

class Company {
-designation
-getBstShip()
}

class SearchDetailsMapper{
-shipDetailsToDto()
}

class ShipDetailsDto{
-mmsiCode : String
-name : String
-imoCode : String
-numberEnergyGenerators : int
-generatorPower : float
-callSign : String
-vesselType : int
-length : float
-width : float
-capacity : float
-draft : float
- -
-getMMSI()
-getName()
-getShipId()
-getEnergyGenerators()
-getCallSign()
-getVesselType()
-getLength()
-getWidth()
-getCapacity()
-getDraft()
}



Company "1" - - "1" BstShip : uses >

SearchDetailsUI ..> SearchDetailsController
SearchDetailsUI ..> ShipDetailsDto

SearchDetailsController ..> Company
SearchDetailsController ..> BstShip
SearchDetailsController ..> Ship
SearchDetailsController ..> SearchDetailsMapper
SearchDetailsController ..> ShipDetailsDto


SearchDetailsMapper ..> Ship



@enduml

@startuml

skinparam classAttributeIconSize 0

class Ship {
-mmsiCode : String
-name : String
-imoCode : String
-numberEnergyGenerators : int
-generatorPower : float
-callSign : String
-vesselType : int
-length : float
-width : float
-capacity : float
-draft : float
- -
-getMMSI()
-getName()
-getShipId()
-getEnergyGenerators()
-getCallSign()
-getVesselType()
-getLength()
-getWidth()
-getCapacity()
-getDraft()
}


class BstShip {
-getShipByMmsiCode(mmsiCode)
-inOrder()

}


class SearchDetailsUI {}

class SearchDetailsController {
-shipExistByMMSI(String mmsiCode)
-shipExistByIMO(String imoCode)
-shipExistByCallSign(String callsign)
-getShipDetails()
}

class Company {
-designation
-getBstShip()
}

class SearchDetailsMapper{
-shipDetailsToDto()
}

class ShipDetailsDto{
-mmsiCode : String
-name : String
-imoCode : String
-numberEnergyGenerators : int
-generatorPower : float
-callSign : String
-vesselType : int
-length : float
-width : float
-capacity : float
-draft : float
- -
-getMMSI()
-getName()
-getShipId()
-getEnergyGenerators()
-getCallSign()
-getVesselType()
-getLength()
-getWidth()
-getCapacity()
-getDraft()
}



Company "1" - - "1" BstShip : uses >

SearchDetailsUI ..> SearchDetailsController
SearchDetailsUI ..> ShipDetailsDto

SearchDetailsController ..> Company
SearchDetailsController ..> BstShip
SearchDetailsController ..> Ship
SearchDetailsController ..> SearchDetailsMapper
SearchDetailsController ..> ShipDetailsDto


SearchDetailsMapper ..> Ship



@enduml

PlantUML version 1.2021.11(Sat Oct 02 14:26:11 BST 2021)
(GPL source distribution)
Java Runtime: OpenJDK Runtime Environment
JVM: OpenJDK 64-Bit Server VM
Default Encoding: Cp1252
Language: pt
Country: PT
--></g></svg>