<?xml version="1.0" encoding="UTF-8" standalone="no"?><svg xmlns="http://www.w3.org/2000/svg" xmlns:xlink="http://www.w3.org/1999/xlink" contentScriptType="application/ecmascript" contentStyleType="text/css" height="1687.5px" preserveAspectRatio="none" style="width:585px;height:1687px;" version="1.1" viewBox="0 0 585 1687" width="585px" zoomAndPan="magnify"><defs><filter height="300%" id="frqfeyhkx83fz" width="300%" x="-1" y="-1"><feGaussianBlur result="blurOut" stdDeviation="3.0"/><feColorMatrix in="blurOut" result="blurOut2" type="matrix" values="0 0 0 0 0 0 0 0 0 0 0 0 0 0 0 0 0 0 .4 0"/><feOffset dx="6.0" dy="6.0" in="blurOut2" result="blurOut3"/><feBlend in="SourceGraphic" in2="blurOut3" mode="normal"/></filter></defs><g><!--MD5=[6e26b70c2b81ccf5fdaff2a786dbcba8]
class ColorFreightNetworkUI--><rect codeLine="7" fill="#FEFECE" filter="url(#frqfeyhkx83fz)" height="72" id="ColorFreightNetworkUI" style="stroke:#A80036;stroke-width:2.25;" width="235.5" x="113.25" y="10.5"/><ellipse cx="135.75" cy="34.5" fill="#ADD1B2" rx="16.5" ry="16.5" style="stroke:#A80036;stroke-width:1.5;"/><path d="M138.75,29.25 Q139.0547,28.5 139.4063,28.125 Q139.7578,27.75 140.1563,27.75 Q140.8594,27.75 141.3047,28.1719 Q141.75,28.5938 141.75,29.5781 L141.75,31.9219 Q141.75,32.9063 141.3281,33.3281 Q140.9063,33.75 140.25,33.75 Q139.6641,33.75 139.2891,33.4922 Q138.9141,33.2344 138.75,32.5547 Q138.6797,32.0859 138.4219,31.8281 Q137.9531,31.3359 137.1094,31.0547 Q136.2656,30.75 135.4219,30.75 Q134.3672,30.75 133.4766,31.1719 Q132.6094,31.5938 131.9297,32.5313 Q131.25,33.4688 131.25,34.7578 L131.25,36.1406 Q131.25,37.6875 132.5156,38.7188 Q133.7813,39.75 136.0313,39.75 Q137.3672,39.75 138.3047,39.4453 Q138.8438,39.2813 139.4531,38.7422 Q139.8516,38.4375 140.0625,38.3438 Q140.2734,38.25 140.5313,38.25 Q141.0234,38.25 141.375,38.6484 Q141.75,39.0234 141.75,39.5625 Q141.75,40.0781 141.2344,40.6875 Q140.4844,41.5781 139.2891,42.0703 Q137.7188,42.75 135.7969,42.75 Q133.5469,42.75 131.7422,41.8594 Q130.2891,41.1563 129.2578,39.6328 Q128.25,38.1094 128.25,36.3047 L128.25,34.6641 Q128.25,32.7891 129.1406,31.1484 Q130.0547,29.5078 131.625,28.6406 Q133.2188,27.75 135,27.75 Q136.0781,27.75 137.0156,28.125 Q137.9531,28.5 138.75,29.25 Z " fill="#000000"/><text fill="#000000" font-family="sans-serif" font-size="18" lengthAdjust="spacing" textLength="187.5" x="156.75" y="41.8652">ColorFreightNetworkUI</text><line style="stroke:#A80036;stroke-width:2.25;" x1="114.75" x2="347.25" y1="58.5" y2="58.5"/><line style="stroke:#A80036;stroke-width:2.25;" x1="114.75" x2="347.25" y1="70.5" y2="70.5"/><!--MD5=[62c0b7d1e96bbb032c95f732c8693462]
class ColorFreightNetworkController--><rect codeLine="9" fill="#FEFECE" filter="url(#frqfeyhkx83fz)" height="92.7539" id="ColorFreightNetworkController" style="stroke:#A80036;stroke-width:2.25;" width="298.5" x="81.75" y="174"/><ellipse cx="104.25" cy="198" fill="#ADD1B2" rx="16.5" ry="16.5" style="stroke:#A80036;stroke-width:1.5;"/><path d="M107.25,192.75 Q107.5547,192 107.9063,191.625 Q108.2578,191.25 108.6563,191.25 Q109.3594,191.25 109.8047,191.6719 Q110.25,192.0938 110.25,193.0781 L110.25,195.4219 Q110.25,196.4063 109.8281,196.8281 Q109.4063,197.25 108.75,197.25 Q108.1641,197.25 107.7891,196.9922 Q107.4141,196.7344 107.25,196.0547 Q107.1797,195.5859 106.9219,195.3281 Q106.4531,194.8359 105.6094,194.5547 Q104.7656,194.25 103.9219,194.25 Q102.8672,194.25 101.9766,194.6719 Q101.1094,195.0938 100.4297,196.0313 Q99.75,196.9688 99.75,198.2578 L99.75,199.6406 Q99.75,201.1875 101.0156,202.2188 Q102.2813,203.25 104.5313,203.25 Q105.8672,203.25 106.8047,202.9453 Q107.3438,202.7813 107.9531,202.2422 Q108.3516,201.9375 108.5625,201.8438 Q108.7734,201.75 109.0313,201.75 Q109.5234,201.75 109.875,202.1484 Q110.25,202.5234 110.25,203.0625 Q110.25,203.5781 109.7344,204.1875 Q108.9844,205.0781 107.7891,205.5703 Q106.2188,206.25 104.2969,206.25 Q102.0469,206.25 100.2422,205.3594 Q98.7891,204.6563 97.7578,203.1328 Q96.75,201.6094 96.75,199.8047 L96.75,198.1641 Q96.75,196.2891 97.6406,194.6484 Q98.5547,193.0078 100.125,192.1406 Q101.7188,191.25 103.5,191.25 Q104.5781,191.25 105.5156,191.625 Q106.4531,192 107.25,192.75 Z " fill="#000000"/><text fill="#000000" font-family="sans-serif" font-size="18" lengthAdjust="spacing" textLength="250.5" x="125.25" y="205.3652">ColorFreightNetworkController</text><line style="stroke:#A80036;stroke-width:2.25;" x1="83.25" x2="378.75" y1="222" y2="222"/><line style="stroke:#A80036;stroke-width:2.25;" x1="83.25" x2="378.75" y1="234" y2="234"/><text fill="#000000" font-family="sans-serif" font-size="16.5" lengthAdjust="spacing" textLength="115.5" x="90.75" y="257.1284">-colorNetwork()</text><!--MD5=[02e4b9b7573f1156f41e60aa5b4e25a4]
class Company--><rect codeLine="13" fill="#FEFECE" filter="url(#frqfeyhkx83fz)" height="113.5078" id="Company" style="stroke:#A80036;stroke-width:2.25;" width="169.5" x="63.75" y="358.5"/><ellipse cx="105.15" cy="382.5" fill="#ADD1B2" rx="16.5" ry="16.5" style="stroke:#A80036;stroke-width:1.5;"/><path d="M108.15,377.25 Q108.4547,376.5 108.8062,376.125 Q109.1578,375.75 109.5562,375.75 Q110.2594,375.75 110.7047,376.1719 Q111.15,376.5938 111.15,377.5781 L111.15,379.9219 Q111.15,380.9063 110.7281,381.3281 Q110.3062,381.75 109.65,381.75 Q109.0641,381.75 108.6891,381.4922 Q108.3141,381.2344 108.15,380.5547 Q108.0797,380.0859 107.8219,379.8281 Q107.3531,379.3359 106.5094,379.0547 Q105.6656,378.75 104.8219,378.75 Q103.7672,378.75 102.8766,379.1719 Q102.0094,379.5938 101.3297,380.5313 Q100.65,381.4688 100.65,382.7578 L100.65,384.1406 Q100.65,385.6875 101.9156,386.7188 Q103.1812,387.75 105.4312,387.75 Q106.7672,387.75 107.7047,387.4453 Q108.2437,387.2813 108.8531,386.7422 Q109.2516,386.4375 109.4625,386.3438 Q109.6734,386.25 109.9312,386.25 Q110.4234,386.25 110.775,386.6484 Q111.15,387.0234 111.15,387.5625 Q111.15,388.0781 110.6344,388.6875 Q109.8844,389.5781 108.6891,390.0703 Q107.1187,390.75 105.1969,390.75 Q102.9469,390.75 101.1422,389.8594 Q99.6891,389.1563 98.6578,387.6328 Q97.65,386.1094 97.65,384.3047 L97.65,382.6641 Q97.65,380.7891 98.5406,379.1484 Q99.4547,377.5078 101.025,376.6406 Q102.6187,375.75 104.4,375.75 Q105.4781,375.75 106.4156,376.125 Q107.3531,376.5 108.15,377.25 Z " fill="#000000"/><text fill="#000000" font-family="sans-serif" font-size="18" lengthAdjust="spacing" textLength="79.5" x="130.35" y="389.8652">Company</text><line style="stroke:#A80036;stroke-width:2.25;" x1="65.25" x2="231.75" y1="406.5" y2="406.5"/><text fill="#000000" font-family="sans-serif" font-size="16.5" lengthAdjust="spacing" textLength="88.5" x="72.75" y="429.6284">-designation</text><line style="stroke:#A80036;stroke-width:2.25;" x1="65.25" x2="231.75" y1="439.2539" y2="439.2539"/><text fill="#000000" font-family="sans-serif" font-size="16.5" lengthAdjust="spacing" textLength="151.5" x="72.75" y="462.3823">-getFreightNetwork()</text><!--MD5=[074ba6ad47b234bd73d65012320c1634]
class FreightNetwork--><rect codeLine="18" fill="#FEFECE" filter="url(#frqfeyhkx83fz)" height="113.5078" id="FreightNetwork" style="stroke:#A80036;stroke-width:2.25;" width="172.5" x="144.75" y="589.5"/><ellipse cx="167.25" cy="613.5" fill="#ADD1B2" rx="16.5" ry="16.5" style="stroke:#A80036;stroke-width:1.5;"/><path d="M170.25,608.25 Q170.5547,607.5 170.9063,607.125 Q171.2578,606.75 171.6563,606.75 Q172.3594,606.75 172.8047,607.1719 Q173.25,607.5938 173.25,608.5781 L173.25,610.9219 Q173.25,611.9063 172.8281,612.3281 Q172.4063,612.75 171.75,612.75 Q171.1641,612.75 170.7891,612.4922 Q170.4141,612.2344 170.25,611.5547 Q170.1797,611.0859 169.9219,610.8281 Q169.4531,610.3359 168.6094,610.0547 Q167.7656,609.75 166.9219,609.75 Q165.8672,609.75 164.9766,610.1719 Q164.1094,610.5938 163.4297,611.5313 Q162.75,612.4688 162.75,613.7578 L162.75,615.1406 Q162.75,616.6875 164.0156,617.7188 Q165.2813,618.75 167.5313,618.75 Q168.8672,618.75 169.8047,618.4453 Q170.3438,618.2813 170.9531,617.7422 Q171.3516,617.4375 171.5625,617.3438 Q171.7734,617.25 172.0313,617.25 Q172.5234,617.25 172.875,617.6484 Q173.25,618.0234 173.25,618.5625 Q173.25,619.0781 172.7344,619.6875 Q171.9844,620.5781 170.7891,621.0703 Q169.2188,621.75 167.2969,621.75 Q165.0469,621.75 163.2422,620.8594 Q161.7891,620.1563 160.7578,618.6328 Q159.75,617.1094 159.75,615.3047 L159.75,613.6641 Q159.75,611.7891 160.6406,610.1484 Q161.5547,608.5078 163.125,607.6406 Q164.7188,606.75 166.5,606.75 Q167.5781,606.75 168.5156,607.125 Q169.4531,607.5 170.25,608.25 Z " fill="#000000"/><text fill="#000000" font-family="sans-serif" font-size="18" lengthAdjust="spacing" textLength="124.5" x="188.25" y="620.8652">FreightNetwork</text><line style="stroke:#A80036;stroke-width:2.25;" x1="146.25" x2="315.75" y1="637.5" y2="637.5"/><line style="stroke:#A80036;stroke-width:2.25;" x1="146.25" x2="315.75" y1="649.5" y2="649.5"/><text fill="#000000" font-family="sans-serif" font-size="16.5" lengthAdjust="spacing" textLength="115.5" x="153.75" y="672.6284">-colorNetwork()</text><text fill="#000000" font-family="sans-serif" font-size="16.5" lengthAdjust="spacing" textLength="118.5" x="153.75" y="693.3823">-isFullyColored()</text><!--MD5=[305bcb7b78fcb9f22634b78a6e830e55]
class AdjacencyMatrixGraph--><rect codeLine="23" fill="#FEFECE" filter="url(#frqfeyhkx83fz)" height="113.5078" id="AdjacencyMatrixGraph" style="stroke:#A80036;stroke-width:2.25;" width="228" x="10.5" y="820.5"/><ellipse cx="33" cy="844.5" fill="#ADD1B2" rx="16.5" ry="16.5" style="stroke:#A80036;stroke-width:1.5;"/><path d="M36,839.25 Q36.3047,838.5 36.6563,838.125 Q37.0078,837.75 37.4063,837.75 Q38.1094,837.75 38.5547,838.1719 Q39,838.5938 39,839.5781 L39,841.9219 Q39,842.9063 38.5781,843.3281 Q38.1563,843.75 37.5,843.75 Q36.9141,843.75 36.5391,843.4922 Q36.1641,843.2344 36,842.5547 Q35.9297,842.0859 35.6719,841.8281 Q35.2031,841.3359 34.3594,841.0547 Q33.5156,840.75 32.6719,840.75 Q31.6172,840.75 30.7266,841.1719 Q29.8594,841.5938 29.1797,842.5313 Q28.5,843.4688 28.5,844.7578 L28.5,846.1406 Q28.5,847.6875 29.7656,848.7188 Q31.0313,849.75 33.2813,849.75 Q34.6172,849.75 35.5547,849.4453 Q36.0938,849.2813 36.7031,848.7422 Q37.1016,848.4375 37.3125,848.3438 Q37.5234,848.25 37.7813,848.25 Q38.2734,848.25 38.625,848.6484 Q39,849.0234 39,849.5625 Q39,850.0781 38.4844,850.6875 Q37.7344,851.5781 36.5391,852.0703 Q34.9688,852.75 33.0469,852.75 Q30.7969,852.75 28.9922,851.8594 Q27.5391,851.1563 26.5078,849.6328 Q25.5,848.1094 25.5,846.3047 L25.5,844.6641 Q25.5,842.7891 26.3906,841.1484 Q27.3047,839.5078 28.875,838.6406 Q30.4688,837.75 32.25,837.75 Q33.3281,837.75 34.2656,838.125 Q35.2031,838.5 36,839.25 Z " fill="#000000"/><text fill="#000000" font-family="sans-serif" font-size="18" lengthAdjust="spacing" textLength="180" x="54" y="851.8652">AdjacencyMatrixGraph</text><line style="stroke:#A80036;stroke-width:2.25;" x1="12" x2="237" y1="868.5" y2="868.5"/><line style="stroke:#A80036;stroke-width:2.25;" x1="12" x2="237" y1="880.5" y2="880.5"/><text fill="#000000" font-family="sans-serif" font-size="16.5" lengthAdjust="spacing" textLength="76.5" x="19.5" y="903.6284">-vertices()</text><text fill="#000000" font-family="sans-serif" font-size="16.5" lengthAdjust="spacing" textLength="100.5" x="19.5" y="924.3823">-adjVertices()</text><!--MD5=[deb4e1f6eb1e3c1256fdb830f96abfbb]
class Country--><rect codeLine="32" fill="#FEFECE" filter="url(#frqfeyhkx83fz)" height="113.5078" id="Country" style="stroke:#A80036;stroke-width:2.25;" width="111" x="267" y="1323"/><ellipse cx="289.5" cy="1347" fill="#ADD1B2" rx="16.5" ry="16.5" style="stroke:#A80036;stroke-width:1.5;"/><path d="M292.5,1341.75 Q292.8047,1341 293.1563,1340.625 Q293.5078,1340.25 293.9063,1340.25 Q294.6094,1340.25 295.0547,1340.6719 Q295.5,1341.0938 295.5,1342.0781 L295.5,1344.4219 Q295.5,1345.4063 295.0781,1345.8281 Q294.6563,1346.25 294,1346.25 Q293.4141,1346.25 293.0391,1345.9922 Q292.6641,1345.7344 292.5,1345.0547 Q292.4297,1344.5859 292.1719,1344.3281 Q291.7031,1343.8359 290.8594,1343.5547 Q290.0156,1343.25 289.1719,1343.25 Q288.1172,1343.25 287.2266,1343.6719 Q286.3594,1344.0938 285.6797,1345.0313 Q285,1345.9688 285,1347.2578 L285,1348.6406 Q285,1350.1875 286.2656,1351.2188 Q287.5313,1352.25 289.7813,1352.25 Q291.1172,1352.25 292.0547,1351.9453 Q292.5938,1351.7813 293.2031,1351.2422 Q293.6016,1350.9375 293.8125,1350.8438 Q294.0234,1350.75 294.2813,1350.75 Q294.7734,1350.75 295.125,1351.1484 Q295.5,1351.5234 295.5,1352.0625 Q295.5,1352.5781 294.9844,1353.1875 Q294.2344,1354.0781 293.0391,1354.5703 Q291.4688,1355.25 289.5469,1355.25 Q287.2969,1355.25 285.4922,1354.3594 Q284.0391,1353.6563 283.0078,1352.1328 Q282,1350.6094 282,1348.8047 L282,1347.1641 Q282,1345.2891 282.8906,1343.6484 Q283.8047,1342.0078 285.375,1341.1406 Q286.9688,1340.25 288.75,1340.25 Q289.8281,1340.25 290.7656,1340.625 Q291.7031,1341 292.5,1341.75 Z " fill="#000000"/><text fill="#000000" font-family="sans-serif" font-size="18" lengthAdjust="spacing" textLength="63" x="310.5" y="1354.3652">Country</text><line style="stroke:#A80036;stroke-width:2.25;" x1="268.5" x2="376.5" y1="1371" y2="1371"/><text fill="#000000" font-family="sans-serif" font-size="16.5" lengthAdjust="spacing" textLength="45" x="276" y="1394.1284">-name</text><text fill="#000000" font-family="sans-serif" font-size="16.5" lengthAdjust="spacing" textLength="72" x="276" y="1414.8823">-continent</text><line style="stroke:#A80036;stroke-width:2.25;" x1="268.5" x2="376.5" y1="1424.5078" y2="1424.5078"/><!--MD5=[9febfb2ff9adfe183e01ff702b9c1c02]
class PlaceLocation--><rect codeLine="37" fill="#FEFECE" filter="url(#frqfeyhkx83fz)" height="113.5078" id="PlaceLocation" style="stroke:#A80036;stroke-width:2.25;" width="165" x="240" y="1071.75"/><ellipse cx="262.5" cy="1095.75" fill="#ADD1B2" rx="16.5" ry="16.5" style="stroke:#A80036;stroke-width:1.5;"/><path d="M265.5,1090.5 Q265.8047,1089.75 266.1563,1089.375 Q266.5078,1089 266.9063,1089 Q267.6094,1089 268.0547,1089.4219 Q268.5,1089.8438 268.5,1090.8281 L268.5,1093.1719 Q268.5,1094.1563 268.0781,1094.5781 Q267.6563,1095 267,1095 Q266.4141,1095 266.0391,1094.7422 Q265.6641,1094.4844 265.5,1093.8047 Q265.4297,1093.3359 265.1719,1093.0781 Q264.7031,1092.5859 263.8594,1092.3047 Q263.0156,1092 262.1719,1092 Q261.1172,1092 260.2266,1092.4219 Q259.3594,1092.8438 258.6797,1093.7813 Q258,1094.7188 258,1096.0078 L258,1097.3906 Q258,1098.9375 259.2656,1099.9688 Q260.5313,1101 262.7813,1101 Q264.1172,1101 265.0547,1100.6953 Q265.5938,1100.5313 266.2031,1099.9922 Q266.6016,1099.6875 266.8125,1099.5938 Q267.0234,1099.5 267.2813,1099.5 Q267.7734,1099.5 268.125,1099.8984 Q268.5,1100.2734 268.5,1100.8125 Q268.5,1101.3281 267.9844,1101.9375 Q267.2344,1102.8281 266.0391,1103.3203 Q264.4688,1104 262.5469,1104 Q260.2969,1104 258.4922,1103.1094 Q257.0391,1102.4063 256.0078,1100.8828 Q255,1099.3594 255,1097.5547 L255,1095.9141 Q255,1094.0391 255.8906,1092.3984 Q256.8047,1090.7578 258.375,1089.8906 Q259.9688,1089 261.75,1089 Q262.8281,1089 263.7656,1089.375 Q264.7031,1089.75 265.5,1090.5 Z " fill="#000000"/><text fill="#000000" font-family="sans-serif" font-size="18" lengthAdjust="spacing" textLength="117" x="283.5" y="1103.1152">PlaceLocation</text><line style="stroke:#A80036;stroke-width:2.25;" x1="241.5" x2="403.5" y1="1119.75" y2="1119.75"/><text fill="#000000" font-family="sans-serif" font-size="16.5" lengthAdjust="spacing" textLength="57" x="249" y="1142.8784">-latitude</text><text fill="#000000" font-family="sans-serif" font-size="16.5" lengthAdjust="spacing" textLength="70.5" x="249" y="1163.6323">-longitude</text><line style="stroke:#A80036;stroke-width:2.25;" x1="241.5" x2="403.5" y1="1173.2578" y2="1173.2578"/><!--MD5=[ea8f20dfdca176213da526d9b557babf]
class Capital--><rect codeLine="42" fill="#FEFECE" filter="url(#frqfeyhkx83fz)" height="155.0156" id="Capital" style="stroke:#A80036;stroke-width:2.25;" width="106.5" x="458.25" y="1051.5"/><ellipse cx="480.75" cy="1075.5" fill="#ADD1B2" rx="16.5" ry="16.5" style="stroke:#A80036;stroke-width:1.5;"/><path d="M483.75,1070.25 Q484.0547,1069.5 484.4063,1069.125 Q484.7578,1068.75 485.1563,1068.75 Q485.8594,1068.75 486.3047,1069.1719 Q486.75,1069.5938 486.75,1070.5781 L486.75,1072.9219 Q486.75,1073.9063 486.3281,1074.3281 Q485.9063,1074.75 485.25,1074.75 Q484.6641,1074.75 484.2891,1074.4922 Q483.9141,1074.2344 483.75,1073.5547 Q483.6797,1073.0859 483.4219,1072.8281 Q482.9531,1072.3359 482.1094,1072.0547 Q481.2656,1071.75 480.4219,1071.75 Q479.3672,1071.75 478.4766,1072.1719 Q477.6094,1072.5938 476.9297,1073.5313 Q476.25,1074.4688 476.25,1075.7578 L476.25,1077.1406 Q476.25,1078.6875 477.5156,1079.7188 Q478.7813,1080.75 481.0313,1080.75 Q482.3672,1080.75 483.3047,1080.4453 Q483.8438,1080.2813 484.4531,1079.7422 Q484.8516,1079.4375 485.0625,1079.3438 Q485.2734,1079.25 485.5313,1079.25 Q486.0234,1079.25 486.375,1079.6484 Q486.75,1080.0234 486.75,1080.5625 Q486.75,1081.0781 486.2344,1081.6875 Q485.4844,1082.5781 484.2891,1083.0703 Q482.7188,1083.75 480.7969,1083.75 Q478.5469,1083.75 476.7422,1082.8594 Q475.2891,1082.1563 474.2578,1080.6328 Q473.25,1079.1094 473.25,1077.3047 L473.25,1075.6641 Q473.25,1073.7891 474.1406,1072.1484 Q475.0547,1070.5078 476.625,1069.6406 Q478.2188,1068.75 480,1068.75 Q481.0781,1068.75 482.0156,1069.125 Q482.9531,1069.5 483.75,1070.25 Z " fill="#000000"/><text fill="#000000" font-family="sans-serif" font-size="18" lengthAdjust="spacing" textLength="58.5" x="501.75" y="1082.8652">Capital</text><line style="stroke:#A80036;stroke-width:2.25;" x1="459.75" x2="563.25" y1="1099.5" y2="1099.5"/><text fill="#000000" font-family="sans-serif" font-size="16.5" lengthAdjust="spacing" textLength="45" x="467.25" y="1122.6284">-name</text><text fill="#000000" font-family="sans-serif" font-size="16.5" lengthAdjust="spacing" textLength="61.5" x="467.25" y="1143.3823">-country</text><text fill="#000000" font-family="sans-serif" font-size="16.5" lengthAdjust="spacing" textLength="57" x="467.25" y="1164.1362">-latitude</text><text fill="#000000" font-family="sans-serif" font-size="16.5" lengthAdjust="spacing" textLength="70.5" x="467.25" y="1184.8901">-longitude</text><line style="stroke:#A80036;stroke-width:2.25;" x1="459.75" x2="563.25" y1="1194.5156" y2="1194.5156"/><!--MD5=[8515a37c80da559ff7ce07f8a9e75d30]
class Place--><rect codeLine="49" fill="#FEFECE" filter="url(#frqfeyhkx83fz)" height="72" id="Place" style="stroke:#A80036;stroke-width:2.25;" width="94.5" x="291.75" y="841.5"/><ellipse cx="314.25" cy="865.5" fill="#ADD1B2" rx="16.5" ry="16.5" style="stroke:#A80036;stroke-width:1.5;"/><path d="M317.25,860.25 Q317.5547,859.5 317.9063,859.125 Q318.2578,858.75 318.6563,858.75 Q319.3594,858.75 319.8047,859.1719 Q320.25,859.5938 320.25,860.5781 L320.25,862.9219 Q320.25,863.9063 319.8281,864.3281 Q319.4063,864.75 318.75,864.75 Q318.1641,864.75 317.7891,864.4922 Q317.4141,864.2344 317.25,863.5547 Q317.1797,863.0859 316.9219,862.8281 Q316.4531,862.3359 315.6094,862.0547 Q314.7656,861.75 313.9219,861.75 Q312.8672,861.75 311.9766,862.1719 Q311.1094,862.5938 310.4297,863.5313 Q309.75,864.4688 309.75,865.7578 L309.75,867.1406 Q309.75,868.6875 311.0156,869.7188 Q312.2813,870.75 314.5313,870.75 Q315.8672,870.75 316.8047,870.4453 Q317.3438,870.2813 317.9531,869.7422 Q318.3516,869.4375 318.5625,869.3438 Q318.7734,869.25 319.0313,869.25 Q319.5234,869.25 319.875,869.6484 Q320.25,870.0234 320.25,870.5625 Q320.25,871.0781 319.7344,871.6875 Q318.9844,872.5781 317.7891,873.0703 Q316.2188,873.75 314.2969,873.75 Q312.0469,873.75 310.2422,872.8594 Q308.7891,872.1563 307.7578,870.6328 Q306.75,869.1094 306.75,867.3047 L306.75,865.6641 Q306.75,863.7891 307.6406,862.1484 Q308.5547,860.5078 310.125,859.6406 Q311.7188,858.75 313.5,858.75 Q314.5781,858.75 315.5156,859.125 Q316.4531,859.5 317.25,860.25 Z " fill="#000000"/><text fill="#000000" font-family="sans-serif" font-size="18" lengthAdjust="spacing" textLength="46.5" x="335.25" y="872.8652">Place</text><line style="stroke:#A80036;stroke-width:2.25;" x1="293.25" x2="384.75" y1="889.5" y2="889.5"/><line style="stroke:#A80036;stroke-width:2.25;" x1="293.25" x2="384.75" y1="901.5" y2="901.5"/><!--MD5=[a0336aaa8110b78d9cacadb9d45e00a3]
class Border--><rect codeLine="53" fill="#FEFECE" filter="url(#frqfeyhkx83fz)" height="113.5078" id="Border" style="stroke:#A80036;stroke-width:2.25;" width="129" x="258" y="1554"/><ellipse cx="291.975" cy="1578" fill="#ADD1B2" rx="16.5" ry="16.5" style="stroke:#A80036;stroke-width:1.5;"/><path d="M294.975,1572.75 Q295.2797,1572 295.6313,1571.625 Q295.9828,1571.25 296.3813,1571.25 Q297.0844,1571.25 297.5297,1571.6719 Q297.975,1572.0938 297.975,1573.0781 L297.975,1575.4219 Q297.975,1576.4063 297.5531,1576.8281 Q297.1313,1577.25 296.475,1577.25 Q295.8891,1577.25 295.5141,1576.9922 Q295.1391,1576.7344 294.975,1576.0547 Q294.9047,1575.5859 294.6469,1575.3281 Q294.1781,1574.8359 293.3344,1574.5547 Q292.4906,1574.25 291.6469,1574.25 Q290.5922,1574.25 289.7016,1574.6719 Q288.8344,1575.0938 288.1547,1576.0313 Q287.475,1576.9688 287.475,1578.2578 L287.475,1579.6406 Q287.475,1581.1875 288.7406,1582.2188 Q290.0063,1583.25 292.2563,1583.25 Q293.5922,1583.25 294.5297,1582.9453 Q295.0688,1582.7813 295.6781,1582.2422 Q296.0766,1581.9375 296.2875,1581.8438 Q296.4984,1581.75 296.7563,1581.75 Q297.2484,1581.75 297.6,1582.1484 Q297.975,1582.5234 297.975,1583.0625 Q297.975,1583.5781 297.4594,1584.1875 Q296.7094,1585.0781 295.5141,1585.5703 Q293.9438,1586.25 292.0219,1586.25 Q289.7719,1586.25 287.9672,1585.3594 Q286.5141,1584.6563 285.4828,1583.1328 Q284.475,1581.6094 284.475,1579.8047 L284.475,1578.1641 Q284.475,1576.2891 285.3656,1574.6484 Q286.2797,1573.0078 287.85,1572.1406 Q289.4438,1571.25 291.225,1571.25 Q292.3031,1571.25 293.2406,1571.625 Q294.1781,1572 294.975,1572.75 Z " fill="#000000"/><text fill="#000000" font-family="sans-serif" font-size="18" lengthAdjust="spacing" textLength="55.5" x="315.525" y="1585.3652">Border</text><line style="stroke:#A80036;stroke-width:2.25;" x1="259.5" x2="385.5" y1="1602" y2="1602"/><text fill="#000000" font-family="sans-serif" font-size="16.5" lengthAdjust="spacing" textLength="111" x="267" y="1625.1284">-countryName1</text><text fill="#000000" font-family="sans-serif" font-size="16.5" lengthAdjust="spacing" textLength="111" x="267" y="1645.8823">-countryName2</text><line style="stroke:#A80036;stroke-width:2.25;" x1="259.5" x2="385.5" y1="1655.5078" y2="1655.5078"/><!--MD5=[2e2f8c8f62c4eb3bc59a59727cfd81a5]
class Edge--><rect codeLine="59" fill="#FEFECE" filter="url(#frqfeyhkx83fz)" height="72" id="Edge" style="stroke:#A80036;stroke-width:2.25;" width="91.5" x="78.75" y="1092.75"/><ellipse cx="101.25" cy="1116.75" fill="#ADD1B2" rx="16.5" ry="16.5" style="stroke:#A80036;stroke-width:1.5;"/><path d="M104.25,1111.5 Q104.5547,1110.75 104.9063,1110.375 Q105.2578,1110 105.6563,1110 Q106.3594,1110 106.8047,1110.4219 Q107.25,1110.8438 107.25,1111.8281 L107.25,1114.1719 Q107.25,1115.1563 106.8281,1115.5781 Q106.4063,1116 105.75,1116 Q105.1641,1116 104.7891,1115.7422 Q104.4141,1115.4844 104.25,1114.8047 Q104.1797,1114.3359 103.9219,1114.0781 Q103.4531,1113.5859 102.6094,1113.3047 Q101.7656,1113 100.9219,1113 Q99.8672,1113 98.9766,1113.4219 Q98.1094,1113.8438 97.4297,1114.7813 Q96.75,1115.7188 96.75,1117.0078 L96.75,1118.3906 Q96.75,1119.9375 98.0156,1120.9688 Q99.2813,1122 101.5313,1122 Q102.8672,1122 103.8047,1121.6953 Q104.3438,1121.5313 104.9531,1120.9922 Q105.3516,1120.6875 105.5625,1120.5938 Q105.7734,1120.5 106.0313,1120.5 Q106.5234,1120.5 106.875,1120.8984 Q107.25,1121.2734 107.25,1121.8125 Q107.25,1122.3281 106.7344,1122.9375 Q105.9844,1123.8281 104.7891,1124.3203 Q103.2188,1125 101.2969,1125 Q99.0469,1125 97.2422,1124.1094 Q95.7891,1123.4063 94.7578,1121.8828 Q93.75,1120.3594 93.75,1118.5547 L93.75,1116.9141 Q93.75,1115.0391 94.6406,1113.3984 Q95.5547,1111.7578 97.125,1110.8906 Q98.7188,1110 100.5,1110 Q101.5781,1110 102.5156,1110.375 Q103.4531,1110.75 104.25,1111.5 Z " fill="#000000"/><text fill="#000000" font-family="sans-serif" font-size="18" lengthAdjust="spacing" textLength="43.5" x="122.25" y="1124.1152">Edge</text><line style="stroke:#A80036;stroke-width:2.25;" x1="80.25" x2="168.75" y1="1140.75" y2="1140.75"/><line style="stroke:#A80036;stroke-width:2.25;" x1="80.25" x2="168.75" y1="1152.75" y2="1152.75"/><!--MD5=[2b9e7c9652a8f7238524057f83edb297]
link ColorFreightNetworkUI to ColorFreightNetworkController--><path codeLine="64" d="M231,82.605 C231,106.515 231,138.765 231,165.9 " fill="none" id="ColorFreightNetworkUI-to-ColorFreightNetworkController" style="stroke:#A80036;stroke-width:1.5;stroke-dasharray:7.0,7.0;"/><polygon fill="#A80036" points="231,173.415,237,159.915,231,165.915,225,159.915,231,173.415" style="stroke:#A80036;stroke-width:1.5;"/><!--MD5=[f0fcf5305f600baaa0ea9a0777863ed7]
link ColorFreightNetworkController to Company--><path codeLine="66" d="M211.65,267.015 C200.85,292.155 187.23,323.85 175.41,351.375 " fill="none" id="ColorFreightNetworkController-to-Company" style="stroke:#A80036;stroke-width:1.5;stroke-dasharray:7.0,7.0;"/><polygon fill="#A80036" points="172.44,358.275,183.2841,348.2423,175.4022,351.3847,172.2597,343.5028,172.44,358.275" style="stroke:#A80036;stroke-width:1.5;"/><!--MD5=[34f729e2eb1cf17566a84efc4a15c4ac]
link ColorFreightNetworkController to FreightNetwork--><path codeLine="67" d="M244.05,267.105 C260.325,329.7 284.07,446.25 267,544.5 C264.87,556.755 261.39,569.475 257.4,581.595 " fill="none" id="ColorFreightNetworkController-to-FreightNetwork" style="stroke:#A80036;stroke-width:1.5;stroke-dasharray:7.0,7.0;"/><polygon fill="#A80036" points="254.865,589.05,264.9048,578.2125,257.2881,581.9522,253.5484,574.3355,254.865,589.05" style="stroke:#A80036;stroke-width:1.5;"/><!--MD5=[e359b474b5bea3d5e0a05d5f38acf6c5]
link Company to FreightNetwork--><path codeLine="69" d="M168.675,472.77 C181.515,508.245 198.06,553.98 210.885,589.41 " fill="none" id="Company-FreightNetwork" style="stroke:#A80036;stroke-width:1.5;"/><polygon fill="#000000" points="203.5521,538.3161,203.0806,524.058,194.79,527.0583,203.5521,538.3161" style="stroke:#000000;stroke-width:1.5;"/><text fill="#000000" font-family="sans-serif" font-size="19.5" lengthAdjust="spacing" textLength="39" x="214.5" y="539.2427">have</text><text fill="#000000" font-family="sans-serif" font-size="19.5" lengthAdjust="spacing" textLength="10.5" x="160.5537" y="504.1338">1</text><text fill="#000000" font-family="sans-serif" font-size="19.5" lengthAdjust="spacing" textLength="10.5" x="195.7083" y="573.0082">1</text><!--MD5=[c8e8e510b3d61337403bff1e4f9e7277]
link FreightNetwork to AdjacencyMatrixGraph--><path codeLine="71" d="M204.945,703.77 C189.48,736.89 169.83,778.95 153.825,813.225 " fill="none" id="FreightNetwork-to-AdjacencyMatrixGraph" style="stroke:#A80036;stroke-width:1.5;stroke-dasharray:7.0,7.0;"/><polygon fill="#A80036" points="150.465,820.41,161.6127,810.7158,153.6378,813.6142,150.7394,805.6393,150.465,820.41" style="stroke:#A80036;stroke-width:1.5;"/><!--MD5=[fa4d65f953ae0f8f2ca1213e61726aa9]
link FreightNetwork to Place--><path codeLine="72" d="M257.415,703.77 C277.785,746.76 305.28,804.825 322.59,841.35 " fill="none" id="FreightNetwork-Place" style="stroke:#A80036;stroke-width:1.5;"/><text fill="#000000" font-family="sans-serif" font-size="19.5" lengthAdjust="spacing" textLength="99" x="291" y="770.2427">related with</text><text fill="#000000" font-family="sans-serif" font-size="19.5" lengthAdjust="spacing" textLength="10.5" x="250.2882" y="735.1338">1</text><text fill="#000000" font-family="sans-serif" font-size="19.5" lengthAdjust="spacing" textLength="30" x="284.5412" y="825.3218">1..*</text><!--MD5=[8019f7a40ce5be359cb5778b910e4989]
reverse link Place to Capital--><path codeLine="73" d="M409.935,932.22 C425.565,946.335 441.015,962.445 453,979.5 C468.15,1001.055 480.135,1027.095 489.21,1051.26 " fill="none" id="Place-backto-Capital" style="stroke:#A80036;stroke-width:1.5;"/><polygon fill="none" points="402.66,939.84,386.49,912.465,416.19,923.775,402.66,939.84" style="stroke:#A80036;stroke-width:1.5;"/><!--MD5=[3f90a4e0e12e19ee6f3a457d358ba219]
link Place to PlaceLocation--><path codeLine="74" d="M336.705,913.515 C333.99,954.42 329.415,1023.12 326.205,1071.57 " fill="none" id="Place-PlaceLocation" style="stroke:#A80036;stroke-width:1.5;"/><polygon fill="#000000" points="340.0029,1000.7472,345.3009,987.5016,336.5035,986.9172,340.0029,1000.7472" style="stroke:#000000;stroke-width:1.5;"/><text fill="#000000" font-family="sans-serif" font-size="19.5" lengthAdjust="spacing" textLength="85.5" x="354" y="1001.2427">located at</text><text fill="#000000" font-family="sans-serif" font-size="19.5" lengthAdjust="spacing" textLength="10.5" x="324.3659" y="945.5256">1</text><text fill="#000000" font-family="sans-serif" font-size="19.5" lengthAdjust="spacing" textLength="10.5" x="315.4298" y="1055.5808">1</text><!--MD5=[3d04185e7085eaaeba7ebd93b9963be0]
link PlaceLocation to Country--><path codeLine="75" d="M322.5,1185.96 C322.5,1226.85 322.5,1282.14 322.5,1322.97 " fill="none" id="PlaceLocation-Country" style="stroke:#A80036;stroke-width:1.5;"/><polygon fill="#000000" points="330,1272.2637,334.4084,1258.696,325.5916,1258.696,330,1272.2637" style="stroke:#000000;stroke-width:1.5;"/><text fill="#000000" font-family="sans-serif" font-size="19.5" lengthAdjust="spacing" textLength="78" x="343.5" y="1272.7427">placed in</text><text fill="#000000" font-family="sans-serif" font-size="19.5" lengthAdjust="spacing" textLength="7.5" x="314.4023" y="1217.3143">*</text><text fill="#000000" font-family="sans-serif" font-size="19.5" lengthAdjust="spacing" textLength="10.5" x="311.032" y="1306.5793">1</text><!--MD5=[553c71e238892de64676e9482c62727a]
link Country to Border--><path codeLine="76" d="M322.5,1437.27 C322.5,1472.745 322.5,1518.48 322.5,1553.91 " fill="none" id="Country-Border" style="stroke:#A80036;stroke-width:1.5;"/><text fill="#000000" font-family="sans-serif" font-size="19.5" lengthAdjust="spacing" textLength="48" x="324" y="1503.7427">has a</text><text fill="#000000" font-family="sans-serif" font-size="19.5" lengthAdjust="spacing" textLength="10.5" x="311.1633" y="1468.6338">2</text><text fill="#000000" font-family="sans-serif" font-size="19.5" lengthAdjust="spacing" textLength="7.5" x="314.3086" y="1537.5082">*</text><!--MD5=[5957790c5297b9f6d5589f6d219daa42]
link AdjacencyMatrixGraph to Edge--><path codeLine="77" d="M124.5,934.71 C124.5,980.01 124.5,1042.98 124.5,1084.41 " fill="none" id="AdjacencyMatrixGraph-to-Edge" style="stroke:#A80036;stroke-width:1.5;stroke-dasharray:7.0,7.0;"/><polygon fill="#A80036" points="124.5,1092.39,130.5,1078.89,124.5,1084.89,118.5,1078.89,124.5,1092.39" style="stroke:#A80036;stroke-width:1.5;"/><!--MD5=[e57dea3329e074ae2a14f9e9f81adae2]
@startuml
'https://plantuml.com/class-diagram

skinparam classAttributeIconSize 0



class ColorFreightNetworkUI {}

class ColorFreightNetworkController {
-colorNetwork()
}

class Company {
-designation
-getFreightNetwork()
}

class FreightNetwork {
-colorNetwork()
-isFullyColored()
}

class AdjacencyMatrixGraph {
-vertices()
-adjVertices()

}




class Country {
-name
-continent
}

class PlaceLocation {
-latitude
-longitude
}

class Capital{
-name
-country
-latitude
-longitude
}

class Place {

}

class Border {
-countryName1
-countryName2
}


class Edge {

}


ColorFreightNetworkUI ..> ColorFreightNetworkController

ColorFreightNetworkController ..> Company
ColorFreightNetworkController ..> FreightNetwork

Company "1"- -"1" FreightNetwork: have >

FreightNetwork ..> AdjacencyMatrixGraph
FreightNetwork "1" - - "1..*" Place : related with
Place <|- - Capital
Place "1" - - "1" PlaceLocation : located at >
PlaceLocation "*" - - "1" Country : placed in >
Country "2" - - "*" Border : has a
AdjacencyMatrixGraph ..> Edge

@enduml

@startuml

skinparam classAttributeIconSize 0



class ColorFreightNetworkUI {}

class ColorFreightNetworkController {
-colorNetwork()
}

class Company {
-designation
-getFreightNetwork()
}

class FreightNetwork {
-colorNetwork()
-isFullyColored()
}

class AdjacencyMatrixGraph {
-vertices()
-adjVertices()

}




class Country {
-name
-continent
}

class PlaceLocation {
-latitude
-longitude
}

class Capital{
-name
-country
-latitude
-longitude
}

class Place {

}

class Border {
-countryName1
-countryName2
}


class Edge {

}


ColorFreightNetworkUI ..> ColorFreightNetworkController

ColorFreightNetworkController ..> Company
ColorFreightNetworkController ..> FreightNetwork

Company "1"- -"1" FreightNetwork: have >

FreightNetwork ..> AdjacencyMatrixGraph
FreightNetwork "1" - - "1..*" Place : related with
Place <|- - Capital
Place "1" - - "1" PlaceLocation : located at >
PlaceLocation "*" - - "1" Country : placed in >
Country "2" - - "*" Border : has a
AdjacencyMatrixGraph ..> Edge

@enduml

PlantUML version 1.2021.5(Sun Apr 25 12:20:28 BST 2021)
(GPL source distribution)
Java Runtime: OpenJDK Runtime Environment
JVM: Dynamic Code Evolution 64-Bit Server VM
Default Encoding: Cp1252
Language: pt
Country: PT
--></g></svg>