<?xml version="1.0" encoding="UTF-8" standalone="no"?><svg xmlns="http://www.w3.org/2000/svg" xmlns:xlink="http://www.w3.org/1999/xlink" contentScriptType="application/ecmascript" contentStyleType="text/css" height="531px" preserveAspectRatio="none" style="width:172px;height:531px;background:#FFFFFF;" version="1.1" viewBox="0 0 172 531" width="172px" zoomAndPan="magnify"><defs><filter height="300%" id="fyd0cd4yv1idl" width="300%" x="-1" y="-1"><feGaussianBlur result="blurOut" stdDeviation="2.0"/><feColorMatrix in="blurOut" result="blurOut2" type="matrix" values="0 0 0 0 0 0 0 0 0 0 0 0 0 0 0 0 0 0 .4 0"/><feOffset dx="4.0" dy="4.0" in="blurOut2" result="blurOut3"/><feBlend in="SourceGraphic" in2="blurOut3" mode="normal"/></filter></defs><g><!--MD5=[a3093aa9f96b7df9aab31d8715601ff6]
class Containers--><rect codeLine="5" fill="#FEFECE" filter="url(#fyd0cd4yv1idl)" height="178.3594" id="Containers" style="stroke:#A80036;stroke-width:1.5;" width="108" x="28.5" y="339"/><ellipse cx="50.25" cy="355" fill="#ADD1B2" rx="11" ry="11" style="stroke:#A80036;stroke-width:1.0;"/><path d="M52.25,351.5 Q52.4531,351 52.6875,350.75 Q52.9219,350.5 53.1875,350.5 Q53.6563,350.5 53.9531,350.7813 Q54.25,351.0625 54.25,351.7188 L54.25,353.2813 Q54.25,353.9375 53.9688,354.2188 Q53.6875,354.5 53.25,354.5 Q52.8594,354.5 52.6094,354.3281 Q52.3594,354.1563 52.25,353.7031 Q52.2031,353.3906 52.0313,353.2188 Q51.7188,352.8906 51.1563,352.7031 Q50.5938,352.5 50.0313,352.5 Q49.3281,352.5 48.7344,352.7813 Q48.1563,353.0625 47.7031,353.6875 Q47.25,354.3125 47.25,355.1719 L47.25,356.0938 Q47.25,357.125 48.0938,357.8125 Q48.9375,358.5 50.4375,358.5 Q51.3281,358.5 51.9531,358.2969 Q52.3125,358.1875 52.7188,357.8281 Q52.9844,357.625 53.125,357.5625 Q53.2656,357.5 53.4375,357.5 Q53.7656,357.5 54,357.7656 Q54.25,358.0156 54.25,358.375 Q54.25,358.7188 53.9063,359.125 Q53.4063,359.7188 52.6094,360.0469 Q51.5625,360.5 50.2813,360.5 Q48.7813,360.5 47.5781,359.9063 Q46.6094,359.4375 45.9219,358.4219 Q45.25,357.4063 45.25,356.2031 L45.25,355.1094 Q45.25,353.8594 45.8438,352.7656 Q46.4531,351.6719 47.5,351.0938 Q48.5625,350.5 49.75,350.5 Q50.4688,350.5 51.0938,350.75 Q51.7188,351 52.25,351.5 Z " fill="#000000"/><text fill="#000000" font-family="sans-serif" font-size="12" lengthAdjust="spacing" textLength="61" x="65.75" y="359.9102">Containers</text><line style="stroke:#A80036;stroke-width:1.5;" x1="29.5" x2="135.5" y1="371" y2="371"/><text fill="#000000" font-family="sans-serif" font-size="11" lengthAdjust="spacing" textLength="10" x="48.5" y="386.4189">-x</text><text fill="#000000" font-family="sans-serif" font-size="11" lengthAdjust="spacing" textLength="10" x="48.5" y="400.2549">-y</text><text fill="#000000" font-family="sans-serif" font-size="11" lengthAdjust="spacing" textLength="10" x="48.5" y="414.0908">-z</text><rect fill="none" height="6" style="stroke:#C82930;stroke-width:1.0;" width="6" x="36.5" y="420.5078"/><text fill="#000000" font-family="sans-serif" font-size="11" lengthAdjust="spacing" textLength="82" x="48.5" y="427.9268">containerNumber</text><rect fill="none" height="6" style="stroke:#C82930;stroke-width:1.0;" width="6" x="36.5" y="434.3438"/><text fill="#000000" font-family="sans-serif" font-size="11" lengthAdjust="spacing" textLength="49" x="48.5" y="441.7627">checkDigit</text><rect fill="none" height="6" style="stroke:#C82930;stroke-width:1.0;" width="6" x="36.5" y="448.1797"/><text fill="#000000" font-family="sans-serif" font-size="11" lengthAdjust="spacing" textLength="39" x="48.5" y="455.5986">isoCode</text><rect fill="none" height="6" style="stroke:#C82930;stroke-width:1.0;" width="6" x="36.5" y="462.0156"/><text fill="#000000" font-family="sans-serif" font-size="11" lengthAdjust="spacing" textLength="42" x="48.5" y="469.4346">payLoad</text><rect fill="none" height="6" style="stroke:#C82930;stroke-width:1.0;" width="6" x="36.5" y="475.8516"/><text fill="#000000" font-family="sans-serif" font-size="11" lengthAdjust="spacing" textLength="19" x="48.5" y="483.2705">tare</text><rect fill="none" height="6" style="stroke:#C82930;stroke-width:1.0;" width="6" x="36.5" y="489.6875"/><text fill="#000000" font-family="sans-serif" font-size="11" lengthAdjust="spacing" textLength="28" x="48.5" y="497.1064">gross</text><rect fill="none" height="6" style="stroke:#C82930;stroke-width:1.0;" width="6" x="36.5" y="503.5234"/><text fill="#000000" font-family="sans-serif" font-size="11" lengthAdjust="spacing" textLength="33" x="48.5" y="510.9424">weight</text><!--MD5=[0dc7f2ddb409b58bcf52b12238c25399]
class Ship--><rect codeLine="19" fill="#FEFECE" filter="url(#fyd0cd4yv1idl)" height="192.1953" id="Ship" style="stroke:#A80036;stroke-width:1.5;" width="151" x="7" y="7"/><ellipse cx="65.75" cy="23" fill="#ADD1B2" rx="11" ry="11" style="stroke:#A80036;stroke-width:1.0;"/><path d="M67.75,19.5 Q67.9531,19 68.1875,18.75 Q68.4219,18.5 68.6875,18.5 Q69.1563,18.5 69.4531,18.7813 Q69.75,19.0625 69.75,19.7188 L69.75,21.2813 Q69.75,21.9375 69.4688,22.2188 Q69.1875,22.5 68.75,22.5 Q68.3594,22.5 68.1094,22.3281 Q67.8594,22.1563 67.75,21.7031 Q67.7031,21.3906 67.5313,21.2188 Q67.2188,20.8906 66.6563,20.7031 Q66.0938,20.5 65.5313,20.5 Q64.8281,20.5 64.2344,20.7813 Q63.6563,21.0625 63.2031,21.6875 Q62.75,22.3125 62.75,23.1719 L62.75,24.0938 Q62.75,25.125 63.5938,25.8125 Q64.4375,26.5 65.9375,26.5 Q66.8281,26.5 67.4531,26.2969 Q67.8125,26.1875 68.2188,25.8281 Q68.4844,25.625 68.625,25.5625 Q68.7656,25.5 68.9375,25.5 Q69.2656,25.5 69.5,25.7656 Q69.75,26.0156 69.75,26.375 Q69.75,26.7188 69.4063,27.125 Q68.9063,27.7188 68.1094,28.0469 Q67.0625,28.5 65.7813,28.5 Q64.2813,28.5 63.0781,27.9063 Q62.1094,27.4375 61.4219,26.4219 Q60.75,25.4063 60.75,24.2031 L60.75,23.1094 Q60.75,21.8594 61.3438,20.7656 Q61.9531,19.6719 63,19.0938 Q64.0625,18.5 65.25,18.5 Q65.9688,18.5 66.5938,18.75 Q67.2188,19 67.75,19.5 Z " fill="#000000"/><text fill="#000000" font-family="sans-serif" font-size="12" lengthAdjust="spacing" textLength="25" x="86.25" y="27.9102">Ship</text><line style="stroke:#A80036;stroke-width:1.5;" x1="8" x2="157" y1="39" y2="39"/><rect fill="none" height="6" style="stroke:#C82930;stroke-width:1.0;" width="6" x="15" y="47"/><text fill="#000000" font-family="sans-serif" font-size="11" lengthAdjust="spacing" textLength="49" x="27" y="54.4189">mmsiCode</text><rect fill="none" height="6" style="stroke:#C82930;stroke-width:1.0;" width="6" x="15" y="60.8359"/><text fill="#000000" font-family="sans-serif" font-size="11" lengthAdjust="spacing" textLength="41" x="27" y="68.2549">imoCode</text><rect fill="none" height="6" style="stroke:#C82930;stroke-width:1.0;" width="6" x="15" y="74.6719"/><text fill="#000000" font-family="sans-serif" font-size="11" lengthAdjust="spacing" textLength="125" x="27" y="82.0908">numberEnergyGenerators</text><rect fill="none" height="6" style="stroke:#C82930;stroke-width:1.0;" width="6" x="15" y="88.5078"/><text fill="#000000" font-family="sans-serif" font-size="11" lengthAdjust="spacing" textLength="79" x="27" y="95.9268">generatorPower</text><rect fill="none" height="6" style="stroke:#C82930;stroke-width:1.0;" width="6" x="15" y="102.3438"/><text fill="#000000" font-family="sans-serif" font-size="11" lengthAdjust="spacing" textLength="37" x="27" y="109.7627">callSign</text><rect fill="none" height="6" style="stroke:#C82930;stroke-width:1.0;" width="6" x="15" y="116.1797"/><text fill="#000000" font-family="sans-serif" font-size="11" lengthAdjust="spacing" textLength="23" x="27" y="123.5986">draft</text><rect fill="none" height="6" style="stroke:#C82930;stroke-width:1.0;" width="6" x="15" y="130.0156"/><text fill="#000000" font-family="sans-serif" font-size="11" lengthAdjust="spacing" textLength="26" x="27" y="137.4346">name</text><rect fill="none" height="6" style="stroke:#C82930;stroke-width:1.0;" width="6" x="15" y="143.8516"/><text fill="#000000" font-family="sans-serif" font-size="11" lengthAdjust="spacing" textLength="64" x="27" y="151.2705">vesselTypeId</text><rect fill="none" height="6" style="stroke:#C82930;stroke-width:1.0;" width="6" x="15" y="157.6875"/><text fill="#000000" font-family="sans-serif" font-size="11" lengthAdjust="spacing" textLength="29" x="27" y="165.1064">length</text><rect fill="none" height="6" style="stroke:#C82930;stroke-width:1.0;" width="6" x="15" y="171.5234"/><text fill="#000000" font-family="sans-serif" font-size="11" lengthAdjust="spacing" textLength="27" x="27" y="178.9424">width</text><rect fill="none" height="6" style="stroke:#C82930;stroke-width:1.0;" width="6" x="15" y="185.3594"/><text fill="#000000" font-family="sans-serif" font-size="11" lengthAdjust="spacing" textLength="41" x="27" y="192.7783">capacity</text><!--MD5=[cff4e3c6ede03364cf99bd3378be6b6a]
link Ship to Containers--><path codeLine="35" d="M82.5,199.16 C82.5,243.36 82.5,295.58 82.5,338.87 " fill="none" id="Ship-Containers" style="stroke:#A80036;stroke-width:1.0;"/><polygon fill="#000000" points="87.5,274.1758,90.4389,265.1307,84.5611,265.1307,87.5,274.1758" style="stroke:#000000;stroke-width:1.0;"/><text fill="#000000" font-family="sans-serif" font-size="13" lengthAdjust="spacing" textLength="51" x="96.5" y="274.4951">transport</text><text fill="#000000" font-family="sans-serif" font-size="13" lengthAdjust="spacing" textLength="7" x="75.232" y="220.6358">1</text><text fill="#000000" font-family="sans-serif" font-size="13" lengthAdjust="spacing" textLength="20" x="61.6406" y="328.0177">1..*</text><!--MD5=[beb5a2556fb32d6f35d7040579abd98d]
@startuml
'https://plantuml.com/class-diagram

hide methods

class Containers {
-x
-y
-z
-containerNumber
-checkDigit
-isoCode
-payLoad
-tare
-gross
-weight
}


class Ship {
-mmsiCode
-imoCode
-numberEnergyGenerators
-generatorPower
-callSign
-draft
-name
-vesselTypeId
-length
-width
-capacity
}



Ship "1"- - -"1..*" Containers : transport >


@enduml

@startuml

hide methods

class Containers {
-x
-y
-z
-containerNumber
-checkDigit
-isoCode
-payLoad
-tare
-gross
-weight
}


class Ship {
-mmsiCode
-imoCode
-numberEnergyGenerators
-generatorPower
-callSign
-draft
-name
-vesselTypeId
-length
-width
-capacity
}



Ship "1"- - -"1..*" Containers : transport >


@enduml

PlantUML version 1.2021.11(Sat Oct 02 14:26:11 BST 2021)
(GPL source distribution)
Java Runtime: OpenJDK Runtime Environment
JVM: OpenJDK 64-Bit Server VM
Default Encoding: Cp1252
Language: pt
Country: PT
--></g></svg>