<?xml version="1.0" encoding="UTF-8" standalone="no"?><svg xmlns="http://www.w3.org/2000/svg" xmlns:xlink="http://www.w3.org/1999/xlink" contentScriptType="application/ecmascript" contentStyleType="text/css" height="474px" preserveAspectRatio="none" style="width:675px;height:474px;" version="1.1" viewBox="0 0 675 474" width="675px" zoomAndPan="magnify"><defs><filter height="300%" id="ffo3xppd45v9g" width="300%" x="-1" y="-1"><feGaussianBlur result="blurOut" stdDeviation="3.0"/><feColorMatrix in="blurOut" result="blurOut2" type="matrix" values="0 0 0 0 0 0 0 0 0 0 0 0 0 0 0 0 0 0 .4 0"/><feOffset dx="6.0" dy="6.0" in="blurOut2" result="blurOut3"/><feBlend in="SourceGraphic" in2="blurOut3" mode="normal"/></filter></defs><g><rect fill="#FFFFFF" filter="url(#ffo3xppd45v9g)" height="183.6094" style="stroke:#A80036;stroke-width:1.5;" width="15" x="69" y="149.4141"/><rect fill="#FFFFFF" filter="url(#ffo3xppd45v9g)" height="45.5273" style="stroke:#A80036;stroke-width:1.5;" width="15" x="601.5" y="182.9414"/><rect fill="#FFFFFF" filter="url(#ffo3xppd45v9g)" height="45.5273" style="stroke:#A80036;stroke-width:1.5;" width="15" x="601.5" y="273.9961"/><line style="stroke:#A80036;stroke-width:1.5;stroke-dasharray:5.0,5.0;" x1="76.5" x2="76.5" y1="134.4141" y2="346.5234"/><line style="stroke:#A80036;stroke-width:1.5;stroke-dasharray:5.0,5.0;" x1="609" x2="609" y1="134.4141" y2="346.5234"/><text fill="#000000" font-family="sans-serif" font-size="21" lengthAdjust="spacing" textLength="129" x="7.5" y="129.7998">Port manager</text><ellipse cx="76.5" cy="22.5" fill="#FEFECE" filter="url(#ffo3xppd45v9g)" rx="12" ry="12" style="stroke:#A80036;stroke-width:3.0;"/><path d="M76.5,34.5 L76.5,75 M57,46.5 L96,46.5 M76.5,75 L57,97.5 M76.5,75 L96,97.5 " fill="none" filter="url(#ffo3xppd45v9g)" style="stroke:#A80036;stroke-width:3.0;"/><text fill="#000000" font-family="sans-serif" font-size="21" lengthAdjust="spacing" textLength="129" x="7.5" y="366.8232">Port manager</text><ellipse cx="76.5" cy="386.4375" fill="#FEFECE" filter="url(#ffo3xppd45v9g)" rx="12" ry="12" style="stroke:#A80036;stroke-width:3.0;"/><path d="M76.5,398.4375 L76.5,438.9375 M57,410.4375 L96,410.4375 M76.5,438.9375 L57,461.4375 M76.5,438.9375 L96,461.4375 " fill="none" filter="url(#ffo3xppd45v9g)" style="stroke:#A80036;stroke-width:3.0;"/><rect fill="#FEFECE" filter="url(#ffo3xppd45v9g)" height="47.4141" style="stroke:#A80036;stroke-width:2.25;" width="96" x="558" y="79.5"/><text fill="#000000" font-family="sans-serif" font-size="21" lengthAdjust="spacing" textLength="75" x="568.5" y="111.7998">:System</text><rect fill="#FEFECE" filter="url(#ffo3xppd45v9g)" height="47.4141" style="stroke:#A80036;stroke-width:2.25;" width="96" x="558" y="345.0234"/><text fill="#000000" font-family="sans-serif" font-size="21" lengthAdjust="spacing" textLength="75" x="568.5" y="377.3232">:System</text><rect fill="#FFFFFF" filter="url(#ffo3xppd45v9g)" height="183.6094" style="stroke:#A80036;stroke-width:1.5;" width="15" x="69" y="149.4141"/><rect fill="#FFFFFF" filter="url(#ffo3xppd45v9g)" height="45.5273" style="stroke:#A80036;stroke-width:1.5;" width="15" x="601.5" y="182.9414"/><rect fill="#FFFFFF" filter="url(#ffo3xppd45v9g)" height="45.5273" style="stroke:#A80036;stroke-width:1.5;" width="15" x="601.5" y="273.9961"/><polygon fill="#A80036" points="583.5,176.9414,598.5,182.9414,583.5,188.9414,589.5,182.9414" style="stroke:#A80036;stroke-width:1.5;"/><line style="stroke:#A80036;stroke-width:1.5;" x1="84" x2="592.5" y1="182.9414" y2="182.9414"/><text fill="#000000" font-family="sans-serif" font-size="19.5" font-weight="bold" lengthAdjust="spacing" textLength="10.5" x="94.5" y="175.6567">1</text><text fill="#000000" font-family="sans-serif" font-size="19.5" lengthAdjust="spacing" textLength="232.5" x="111" y="175.6567">Import ports from a text file</text><polygon fill="#A80036" points="100.5,222.4688,85.5,228.4688,100.5,234.4688,94.5,228.4688" style="stroke:#A80036;stroke-width:1.5;"/><line style="stroke:#A80036;stroke-width:1.5;stroke-dasharray:2.0,2.0;" x1="91.5" x2="607.5" y1="228.4688" y2="228.4688"/><text fill="#000000" font-family="sans-serif" font-size="19.5" font-weight="bold" lengthAdjust="spacing" textLength="10.5" x="109.5" y="221.1841">2</text><text fill="#000000" font-family="sans-serif" font-size="19.5" lengthAdjust="spacing" textLength="465" x="126" y="221.1841">Requests the name of the .csv file containing the data</text><polygon fill="#A80036" points="583.5,267.9961,598.5,273.9961,583.5,279.9961,589.5,273.9961" style="stroke:#A80036;stroke-width:1.5;"/><line style="stroke:#A80036;stroke-width:1.5;" x1="84" x2="592.5" y1="273.9961" y2="273.9961"/><text fill="#000000" font-family="sans-serif" font-size="19.5" font-weight="bold" lengthAdjust="spacing" textLength="10.5" x="94.5" y="266.7114">3</text><text fill="#000000" font-family="sans-serif" font-size="19.5" lengthAdjust="spacing" textLength="142.5" x="111" y="266.7114">Inserts file name</text><polygon fill="#A80036" points="100.5,313.5234,85.5,319.5234,100.5,325.5234,94.5,319.5234" style="stroke:#A80036;stroke-width:1.5;"/><line style="stroke:#A80036;stroke-width:1.5;stroke-dasharray:2.0,2.0;" x1="91.5" x2="607.5" y1="319.5234" y2="319.5234"/><text fill="#000000" font-family="sans-serif" font-size="19.5" font-weight="bold" lengthAdjust="spacing" textLength="10.5" x="109.5" y="312.2388">4</text><text fill="#000000" font-family="sans-serif" font-size="19.5" lengthAdjust="spacing" textLength="261" x="126" y="312.2388">Informs the operation success</text><!--MD5=[1dc44c9382c4a8eddf7acce2c7fd7051]
@startuml
autonumber

actor "Port manager" as M

activate M
M -> ":System": Import ports from a text file
activate ":System"
":System" - -> M - -: Requests the name of the .csv file containing the data
deactivate ":System"
M -> ":System": Inserts file name
activate ":System"
":System" - -> M - -: Informs the operation success
deactivate ":System"

@enduml

PlantUML version 1.2021.5(Sun Apr 25 12:20:28 BST 2021)
(GPL source distribution)
Java Runtime: OpenJDK Runtime Environment
JVM: Dynamic Code Evolution 64-Bit Server VM
Default Encoding: Cp1252
Language: pt
Country: PT
--></g></svg>