<?xml version="1.0" encoding="UTF-8" standalone="no"?><svg xmlns="http://www.w3.org/2000/svg" xmlns:xlink="http://www.w3.org/1999/xlink" contentScriptType="application/ecmascript" contentStyleType="text/css" height="1093.5px" preserveAspectRatio="none" style="width:1861px;height:1093px;" version="1.1" viewBox="0 0 1861 1093" width="1861.2px" zoomAndPan="magnify"><defs><filter height="300%" id="f1p1z1nt3ghb66" width="300%" x="-1" y="-1"><feGaussianBlur result="blurOut" stdDeviation="1.8"/><feColorMatrix in="blurOut" result="blurOut2" type="matrix" values="0 0 0 0 0 0 0 0 0 0 0 0 0 0 0 0 0 0 .4 0"/><feOffset dx="3.6" dy="3.6" in="blurOut2" result="blurOut3"/><feBlend in="SourceGraphic" in2="blurOut3" mode="normal"/></filter></defs><g><rect fill="#FFFFFF" filter="url(#f1p1z1nt3ghb66)" height="919.2094" style="stroke:#A80036;stroke-width:0.9;" width="9" x="41.4" y="89.6484"/><rect fill="#FFFFFF" filter="url(#f1p1z1nt3ghb66)" height="27.3164" style="stroke:#A80036;stroke-width:0.9;" width="9" x="356.4" y="109.7648"/><rect fill="#FFFFFF" filter="url(#f1p1z1nt3ghb66)" height="844.4602" style="stroke:#A80036;stroke-width:0.9;" width="9" x="356.4" y="164.3977"/><rect fill="#FFFFFF" filter="url(#f1p1z1nt3ghb66)" height="54.3164" style="stroke:#A80036;stroke-width:0.9;" width="9" x="559.8" y="191.7141"/><rect fill="#FFFFFF" filter="url(#f1p1z1nt3ghb66)" height="700.0945" style="stroke:#A80036;stroke-width:0.9;" width="9" x="559.8" y="273.3469"/><rect fill="#FFFFFF" filter="url(#f1p1z1nt3ghb66)" height="27" style="stroke:#A80036;stroke-width:0.9;" width="9" x="793.8" y="219.0305"/><rect fill="#FFFFFF" filter="url(#f1p1z1nt3ghb66)" height="645.4617" style="stroke:#A80036;stroke-width:0.9;" width="9" x="793.8" y="300.6633"/><rect fill="#FFFFFF" filter="url(#f1p1z1nt3ghb66)" height="27" style="stroke:#A80036;stroke-width:0.9;" width="9" x="909" y="350.7961"/><rect fill="#FFFFFF" filter="url(#f1p1z1nt3ghb66)" height="27" style="stroke:#A80036;stroke-width:0.9;" width="9" x="909" y="405.1125"/><rect fill="#FFFFFF" filter="url(#f1p1z1nt3ghb66)" height="27" style="stroke:#A80036;stroke-width:0.9;" width="9" x="1059.3" y="459.4289"/><rect fill="#FFFFFF" filter="url(#f1p1z1nt3ghb66)" height="27" style="stroke:#A80036;stroke-width:0.9;" width="9" x="1059.3" y="536.5617"/><rect fill="#FFFFFF" filter="url(#f1p1z1nt3ghb66)" height="27" style="stroke:#A80036;stroke-width:0.9;" width="9" x="1457.1" y="639.1266"/><rect fill="#FFFFFF" filter="url(#f1p1z1nt3ghb66)" height="27" style="stroke:#A80036;stroke-width:0.9;" width="9" x="1457.1" y="693.443"/><rect fill="#FFFFFF" filter="url(#f1p1z1nt3ghb66)" height="27" style="stroke:#A80036;stroke-width:0.9;" width="9" x="1630.35" y="770.5758"/><rect fill="#FFFFFF" filter="url(#f1p1z1nt3ghb66)" height="27" style="stroke:#A80036;stroke-width:0.9;" width="9" x="1630.35" y="891.8086"/><rect fill="#FFFFFF" filter="url(#f1p1z1nt3ghb66)" height="27" style="stroke:#A80036;stroke-width:0.9;" width="9" x="1755.9" y="824.8922"/><rect fill="#FFFFFF" filter="url(#f1p1z1nt3ghb66)" height="551.2289" style="stroke:#000000;stroke-width:1.8;" width="1107.45" x="741.15" y="314.1633"/><rect fill="#FFFFFF" filter="url(#f1p1z1nt3ghb66)" height="70.8328" style="stroke:#000000;stroke-width:1.8;" width="370.35" x="750.15" y="499.9289"/><rect fill="#FFFFFF" filter="url(#f1p1z1nt3ghb66)" height="125.1492" style="stroke:#000000;stroke-width:1.8;" width="1089.45" x="750.15" y="733.943"/><line style="stroke:#A80036;stroke-width:0.9;stroke-dasharray:5.0,5.0;" x1="45.9" x2="45.9" y1="80.6484" y2="1016.9578"/><line style="stroke:#A80036;stroke-width:0.9;stroke-dasharray:5.0,5.0;" x1="360.45" x2="360.45" y1="80.6484" y2="1016.9578"/><line style="stroke:#A80036;stroke-width:0.9;stroke-dasharray:5.0,5.0;" x1="563.85" x2="563.85" y1="80.6484" y2="1016.9578"/><line style="stroke:#A80036;stroke-width:0.9;stroke-dasharray:5.0,5.0;" x1="797.85" x2="797.85" y1="80.6484" y2="1016.9578"/><line style="stroke:#A80036;stroke-width:0.9;stroke-dasharray:5.0,5.0;" x1="913.5" x2="913.5" y1="80.6484" y2="1016.9578"/><line style="stroke:#A80036;stroke-width:0.9;stroke-dasharray:5.0,5.0;" x1="1063.8" x2="1063.8" y1="80.6484" y2="1016.9578"/><line style="stroke:#A80036;stroke-width:0.9;stroke-dasharray:5.0,5.0;" x1="1173.6" x2="1173.6" y1="80.6484" y2="1016.9578"/><line style="stroke:#A80036;stroke-width:0.9;stroke-dasharray:5.0,5.0;" x1="1325.7" x2="1325.7" y1="607.0359" y2="1016.9578"/><line style="stroke:#A80036;stroke-width:0.9;stroke-dasharray:5.0,5.0;" x1="1461.6" x2="1461.6" y1="80.6484" y2="1016.9578"/><line style="stroke:#A80036;stroke-width:0.9;stroke-dasharray:5.0,5.0;" x1="1543.5" x2="1543.5" y1="80.6484" y2="1016.9578"/><line style="stroke:#A80036;stroke-width:0.9;stroke-dasharray:5.0,5.0;" x1="1634.4" x2="1634.4" y1="80.6484" y2="1016.9578"/><line style="stroke:#A80036;stroke-width:0.9;stroke-dasharray:5.0,5.0;" x1="1760.4" x2="1760.4" y1="80.6484" y2="1016.9578"/><text fill="#000000" font-family="sans-serif" font-size="12.6" lengthAdjust="spacing" textLength="77.4" x="4.5" y="77.8799">Port Manager</text><ellipse cx="45.9" cy="13.5" fill="#FEFECE" filter="url(#f1p1z1nt3ghb66)" rx="7.2" ry="7.2" style="stroke:#A80036;stroke-width:1.8;"/><path d="M45.9,20.7 L45.9,45 M34.2,27.9 L57.6,27.9 M45.9,45 L34.2,58.5 M45.9,45 L57.6,58.5 " fill="none" filter="url(#f1p1z1nt3ghb66)" style="stroke:#A80036;stroke-width:1.8;"/><text fill="#000000" font-family="sans-serif" font-size="12.6" lengthAdjust="spacing" textLength="77.4" x="4.5" y="1029.1377">Port Manager</text><ellipse cx="45.9" cy="1040.9063" fill="#FEFECE" filter="url(#f1p1z1nt3ghb66)" rx="7.2" ry="7.2" style="stroke:#A80036;stroke-width:1.8;"/><path d="M45.9,1048.1063 L45.9,1072.4063 M34.2,1055.3063 L57.6,1055.3063 M45.9,1072.4063 L34.2,1085.9063 M45.9,1072.4063 L57.6,1085.9063 " fill="none" filter="url(#f1p1z1nt3ghb66)" style="stroke:#A80036;stroke-width:1.8;"/><rect fill="#FEFECE" filter="url(#f1p1z1nt3ghb66)" height="28.4484" style="stroke:#A80036;stroke-width:1.35;" width="85.5" x="316.35" y="47.7"/><text fill="#000000" font-family="sans-serif" font-size="12.6" lengthAdjust="spacing" textLength="72.9" x="322.65" y="67.0799">:ImportPortUI</text><rect fill="#FEFECE" filter="url(#f1p1z1nt3ghb66)" height="28.4484" style="stroke:#A80036;stroke-width:1.35;" width="85.5" x="316.35" y="1016.0578"/><text fill="#000000" font-family="sans-serif" font-size="12.6" lengthAdjust="spacing" textLength="72.9" x="322.65" y="1035.4377">:ImportPortUI</text><rect fill="#FEFECE" filter="url(#f1p1z1nt3ghb66)" height="28.4484" style="stroke:#A80036;stroke-width:1.35;" width="130.5" x="497.25" y="47.7"/><text fill="#000000" font-family="sans-serif" font-size="12.6" lengthAdjust="spacing" textLength="117.9" x="503.55" y="67.0799">:ImportPortController</text><rect fill="#FEFECE" filter="url(#f1p1z1nt3ghb66)" height="28.4484" style="stroke:#A80036;stroke-width:1.35;" width="130.5" x="497.25" y="1016.0578"/><text fill="#000000" font-family="sans-serif" font-size="12.6" lengthAdjust="spacing" textLength="117.9" x="503.55" y="1035.4377">:ImportPortController</text><rect fill="#FEFECE" filter="url(#f1p1z1nt3ghb66)" height="28.4484" style="stroke:#A80036;stroke-width:1.35;" width="74.7" x="759.15" y="47.7"/><text fill="#000000" font-family="sans-serif" font-size="12.6" lengthAdjust="spacing" textLength="62.1" x="765.45" y="67.0799">:ImportPort</text><rect fill="#FEFECE" filter="url(#f1p1z1nt3ghb66)" height="28.4484" style="stroke:#A80036;stroke-width:1.35;" width="74.7" x="759.15" y="1016.0578"/><text fill="#000000" font-family="sans-serif" font-size="12.6" lengthAdjust="spacing" textLength="62.1" x="765.45" y="1035.4377">:ImportPort</text><rect fill="#FEFECE" filter="url(#f1p1z1nt3ghb66)" height="28.4484" style="stroke:#A80036;stroke-width:1.35;" width="70.2" x="876.6" y="47.7"/><text fill="#000000" font-family="sans-serif" font-size="12.6" lengthAdjust="spacing" textLength="57.6" x="882.9" y="67.0799">:Company</text><rect fill="#FEFECE" filter="url(#f1p1z1nt3ghb66)" height="28.4484" style="stroke:#A80036;stroke-width:1.35;" width="70.2" x="876.6" y="1016.0578"/><text fill="#000000" font-family="sans-serif" font-size="12.6" lengthAdjust="spacing" textLength="57.6" x="882.9" y="1035.4377">:Company</text><rect fill="#FEFECE" filter="url(#f1p1z1nt3ghb66)" height="28.4484" style="stroke:#A80036;stroke-width:1.35;" width="91.8" x="1016.1" y="47.7"/><text fill="#000000" font-family="sans-serif" font-size="12.6" lengthAdjust="spacing" textLength="79.2" x="1022.4" y="67.0799">:CountryStore</text><rect fill="#FEFECE" filter="url(#f1p1z1nt3ghb66)" height="28.4484" style="stroke:#A80036;stroke-width:1.35;" width="91.8" x="1016.1" y="1016.0578"/><text fill="#000000" font-family="sans-serif" font-size="12.6" lengthAdjust="spacing" textLength="79.2" x="1022.4" y="1035.4377">:CountryStore</text><rect fill="#FEFECE" filter="url(#f1p1z1nt3ghb66)" height="28.4484" style="stroke:#A80036;stroke-width:1.35;" width="103.5" x="1120.5" y="47.7"/><text fill="#000000" font-family="sans-serif" font-size="12.6" lengthAdjust="spacing" textLength="90.9" x="1126.8" y="67.0799">country:Country</text><rect fill="#FEFECE" filter="url(#f1p1z1nt3ghb66)" height="28.4484" style="stroke:#A80036;stroke-width:1.35;" width="103.5" x="1120.5" y="1016.0578"/><text fill="#000000" font-family="sans-serif" font-size="12.6" lengthAdjust="spacing" textLength="90.9" x="1126.8" y="1035.4377">country:Country</text><rect fill="#FEFECE" filter="url(#f1p1z1nt3ghb66)" height="28.4484" style="stroke:#A80036;stroke-width:1.35;" width="175.5" x="1236.6" y="1016.0578"/><text fill="#000000" font-family="sans-serif" font-size="12.6" lengthAdjust="spacing" textLength="162.9" x="1242.9" y="1035.4377">placeLocation:PlaceLocation</text><rect fill="#FEFECE" filter="url(#f1p1z1nt3ghb66)" height="28.4484" style="stroke:#A80036;stroke-width:1.35;" width="70.2" x="1424.7" y="47.7"/><text fill="#000000" font-family="sans-serif" font-size="12.6" lengthAdjust="spacing" textLength="57.6" x="1431" y="67.0799">:PortStore</text><rect fill="#FEFECE" filter="url(#f1p1z1nt3ghb66)" height="28.4484" style="stroke:#A80036;stroke-width:1.35;" width="70.2" x="1424.7" y="1016.0578"/><text fill="#000000" font-family="sans-serif" font-size="12.6" lengthAdjust="spacing" textLength="57.6" x="1431" y="1035.4377">:PortStore</text><rect fill="#FEFECE" filter="url(#f1p1z1nt3ghb66)" height="28.4484" style="stroke:#A80036;stroke-width:1.35;" width="68.4" x="1507.5" y="47.7"/><text fill="#000000" font-family="sans-serif" font-size="12.6" lengthAdjust="spacing" textLength="55.8" x="1513.8" y="67.0799">port:Ports</text><rect fill="#FEFECE" filter="url(#f1p1z1nt3ghb66)" height="28.4484" style="stroke:#A80036;stroke-width:1.35;" width="68.4" x="1507.5" y="1016.0578"/><text fill="#000000" font-family="sans-serif" font-size="12.6" lengthAdjust="spacing" textLength="55.8" x="1513.8" y="1035.4377">port:Ports</text><rect fill="#FEFECE" filter="url(#f1p1z1nt3ghb66)" height="28.4484" style="stroke:#A80036;stroke-width:1.35;" width="89.1" x="1588.5" y="47.7"/><text fill="#000000" font-family="sans-serif" font-size="12.6" lengthAdjust="spacing" textLength="76.5" x="1594.8" y="67.0799">:Ports2DTree</text><rect fill="#FEFECE" filter="url(#f1p1z1nt3ghb66)" height="28.4484" style="stroke:#A80036;stroke-width:1.35;" width="89.1" x="1588.5" y="1016.0578"/><text fill="#000000" font-family="sans-serif" font-size="12.6" lengthAdjust="spacing" textLength="76.5" x="1594.8" y="1035.4377">:Ports2DTree</text><rect fill="#FEFECE" filter="url(#f1p1z1nt3ghb66)" height="28.4484" style="stroke:#A80036;stroke-width:1.35;" width="136.8" x="1690.2" y="47.7"/><text fill="#000000" font-family="sans-serif" font-size="12.6" lengthAdjust="spacing" textLength="124.2" x="1696.5" y="67.0799">lst:List&lt;Nodes&lt;Port&gt;&gt;</text><rect fill="#FEFECE" filter="url(#f1p1z1nt3ghb66)" height="28.4484" style="stroke:#A80036;stroke-width:1.35;" width="136.8" x="1690.2" y="1016.0578"/><text fill="#000000" font-family="sans-serif" font-size="12.6" lengthAdjust="spacing" textLength="124.2" x="1696.5" y="1035.4377">lst:List&lt;Nodes&lt;Port&gt;&gt;</text><rect fill="#FFFFFF" filter="url(#f1p1z1nt3ghb66)" height="919.2094" style="stroke:#A80036;stroke-width:0.9;" width="9" x="41.4" y="89.6484"/><rect fill="#FFFFFF" filter="url(#f1p1z1nt3ghb66)" height="27.3164" style="stroke:#A80036;stroke-width:0.9;" width="9" x="356.4" y="109.7648"/><rect fill="#FFFFFF" filter="url(#f1p1z1nt3ghb66)" height="844.4602" style="stroke:#A80036;stroke-width:0.9;" width="9" x="356.4" y="164.3977"/><rect fill="#FFFFFF" filter="url(#f1p1z1nt3ghb66)" height="54.3164" style="stroke:#A80036;stroke-width:0.9;" width="9" x="559.8" y="191.7141"/><rect fill="#FFFFFF" filter="url(#f1p1z1nt3ghb66)" height="700.0945" style="stroke:#A80036;stroke-width:0.9;" width="9" x="559.8" y="273.3469"/><rect fill="#FFFFFF" filter="url(#f1p1z1nt3ghb66)" height="27" style="stroke:#A80036;stroke-width:0.9;" width="9" x="793.8" y="219.0305"/><rect fill="#FFFFFF" filter="url(#f1p1z1nt3ghb66)" height="645.4617" style="stroke:#A80036;stroke-width:0.9;" width="9" x="793.8" y="300.6633"/><rect fill="#FFFFFF" filter="url(#f1p1z1nt3ghb66)" height="27" style="stroke:#A80036;stroke-width:0.9;" width="9" x="909" y="350.7961"/><rect fill="#FFFFFF" filter="url(#f1p1z1nt3ghb66)" height="27" style="stroke:#A80036;stroke-width:0.9;" width="9" x="909" y="405.1125"/><rect fill="#FFFFFF" filter="url(#f1p1z1nt3ghb66)" height="27" style="stroke:#A80036;stroke-width:0.9;" width="9" x="1059.3" y="459.4289"/><rect fill="#FFFFFF" filter="url(#f1p1z1nt3ghb66)" height="27" style="stroke:#A80036;stroke-width:0.9;" width="9" x="1059.3" y="536.5617"/><rect fill="#FFFFFF" filter="url(#f1p1z1nt3ghb66)" height="27" style="stroke:#A80036;stroke-width:0.9;" width="9" x="1457.1" y="639.1266"/><rect fill="#FFFFFF" filter="url(#f1p1z1nt3ghb66)" height="27" style="stroke:#A80036;stroke-width:0.9;" width="9" x="1457.1" y="693.443"/><rect fill="#FFFFFF" filter="url(#f1p1z1nt3ghb66)" height="27" style="stroke:#A80036;stroke-width:0.9;" width="9" x="1630.35" y="770.5758"/><rect fill="#FFFFFF" filter="url(#f1p1z1nt3ghb66)" height="27" style="stroke:#A80036;stroke-width:0.9;" width="9" x="1630.35" y="891.8086"/><rect fill="#FFFFFF" filter="url(#f1p1z1nt3ghb66)" height="27" style="stroke:#A80036;stroke-width:0.9;" width="9" x="1755.9" y="824.8922"/><polygon fill="#A80036" points="345.6,106.1648,354.6,109.7648,345.6,113.3648,349.2,109.7648" style="stroke:#A80036;stroke-width:0.9;"/><line style="stroke:#A80036;stroke-width:0.9;" x1="50.4" x2="351" y1="109.7648" y2="109.7648"/><text fill="#000000" font-family="sans-serif" font-size="11.7" font-weight="bold" lengthAdjust="spacing" textLength="6.3" x="56.7" y="105.394">1</text><text fill="#000000" font-family="sans-serif" font-size="11.7" lengthAdjust="spacing" textLength="139.5" x="66.6" y="105.394">import ports from a text file</text><polygon fill="#A80036" points="60.3,133.4813,51.3,137.0813,60.3,140.6813,56.7,137.0813" style="stroke:#A80036;stroke-width:0.9;"/><line style="stroke:#A80036;stroke-width:0.9;stroke-dasharray:2.0,2.0;" x1="54.9" x2="360" y1="137.0813" y2="137.0813"/><text fill="#000000" font-family="sans-serif" font-size="11.7" font-weight="bold" lengthAdjust="spacing" textLength="6.3" x="65.7" y="132.7104">2</text><text fill="#000000" font-family="sans-serif" font-size="11.7" lengthAdjust="spacing" textLength="274.5" x="75.6" y="132.7104">requests the name of the .csv file containing the data</text><polygon fill="#A80036" points="345.6,160.7977,354.6,164.3977,345.6,167.9977,349.2,164.3977" style="stroke:#A80036;stroke-width:0.9;"/><line style="stroke:#A80036;stroke-width:0.9;" x1="50.4" x2="351" y1="164.3977" y2="164.3977"/><text fill="#000000" font-family="sans-serif" font-size="11.7" font-weight="bold" lengthAdjust="spacing" textLength="6.3" x="56.7" y="160.0269">3</text><text fill="#000000" font-family="sans-serif" font-size="11.7" lengthAdjust="spacing" textLength="85.5" x="66.6" y="160.0269">inserts file name</text><polygon fill="#A80036" points="549,188.1141,558,191.7141,549,195.3141,552.6,191.7141" style="stroke:#A80036;stroke-width:0.9;"/><line style="stroke:#A80036;stroke-width:0.9;" x1="365.4" x2="554.4" y1="191.7141" y2="191.7141"/><text fill="#000000" font-family="sans-serif" font-size="11.7" font-weight="bold" lengthAdjust="spacing" textLength="6.3" x="371.7" y="187.3433">4</text><text fill="#000000" font-family="sans-serif" font-size="11.7" lengthAdjust="spacing" textLength="103.5" x="381.6" y="187.3433">importFile(fileName)</text><polygon fill="#A80036" points="783,215.4305,792,219.0305,783,222.6305,786.6,219.0305" style="stroke:#A80036;stroke-width:0.9;"/><line style="stroke:#A80036;stroke-width:0.9;" x1="568.8" x2="788.4" y1="219.0305" y2="219.0305"/><text fill="#000000" font-family="sans-serif" font-size="11.7" font-weight="bold" lengthAdjust="spacing" textLength="6.3" x="575.1" y="214.6597">5</text><text fill="#000000" font-family="sans-serif" font-size="11.7" lengthAdjust="spacing" textLength="198" x="585" y="214.6597">loadFile(nameOfTheFileToBeImported)</text><polygon fill="#A80036" points="549,269.7469,558,273.3469,549,276.9469,552.6,273.3469" style="stroke:#A80036;stroke-width:0.9;"/><line style="stroke:#A80036;stroke-width:0.9;" x1="365.4" x2="554.4" y1="273.3469" y2="273.3469"/><text fill="#000000" font-family="sans-serif" font-size="11.7" font-weight="bold" lengthAdjust="spacing" textLength="6.3" x="371.7" y="268.9761">6</text><text fill="#000000" font-family="sans-serif" font-size="11.7" lengthAdjust="spacing" textLength="67.5" x="381.6" y="268.9761">importPorts()</text><polygon fill="#A80036" points="783,297.0633,792,300.6633,783,304.2633,786.6,300.6633" style="stroke:#A80036;stroke-width:0.9;"/><line style="stroke:#A80036;stroke-width:0.9;" x1="568.8" x2="788.4" y1="300.6633" y2="300.6633"/><text fill="#000000" font-family="sans-serif" font-size="11.7" font-weight="bold" lengthAdjust="spacing" textLength="6.3" x="575.1" y="296.2925">7</text><text fill="#000000" font-family="sans-serif" font-size="11.7" lengthAdjust="spacing" textLength="72" x="585" y="296.2925">convertPorts()</text><path d="M741.15,314.1633 L806.85,314.1633 L806.85,321.3633 L797.85,330.3633 L741.15,330.3633 L741.15,314.1633 " fill="#EEEEEE" style="stroke:#000000;stroke-width:0.9;"/><rect fill="none" height="551.2289" style="stroke:#000000;stroke-width:1.8;" width="1107.45" x="741.15" y="314.1633"/><text fill="#000000" font-family="sans-serif" font-size="11.7" font-weight="bold" lengthAdjust="spacing" textLength="25.2" x="754.65" y="327.2089">loop</text><text fill="#000000" font-family="sans-serif" font-size="9.9" font-weight="bold" lengthAdjust="spacing" textLength="120.6" x="820.35" y="326.2403">[for each line on the file]</text><polygon fill="#A80036" points="898.2,347.1961,907.2,350.7961,898.2,354.3961,901.8,350.7961" style="stroke:#A80036;stroke-width:0.9;"/><line style="stroke:#A80036;stroke-width:0.9;" x1="802.8" x2="903.6" y1="350.7961" y2="350.7961"/><text fill="#000000" font-family="sans-serif" font-size="11.7" font-weight="bold" lengthAdjust="spacing" textLength="6.3" x="809.1" y="346.4253">8</text><text fill="#000000" font-family="sans-serif" font-size="11.7" lengthAdjust="spacing" textLength="79.2" x="819" y="346.4253">getCountryStr()</text><polygon fill="#A80036" points="898.2,401.5125,907.2,405.1125,898.2,408.7125,901.8,405.1125" style="stroke:#A80036;stroke-width:0.9;"/><line style="stroke:#A80036;stroke-width:0.9;" x1="802.8" x2="903.6" y1="405.1125" y2="405.1125"/><text fill="#000000" font-family="sans-serif" font-size="11.7" font-weight="bold" lengthAdjust="spacing" textLength="6.3" x="809.1" y="400.7417">9</text><text fill="#000000" font-family="sans-serif" font-size="11.7" lengthAdjust="spacing" textLength="60.3" x="819" y="400.7417">getPortStr()</text><polygon fill="#A80036" points="1048.5,455.8289,1057.5,459.4289,1048.5,463.0289,1052.1,459.4289" style="stroke:#A80036;stroke-width:0.9;"/><line style="stroke:#A80036;stroke-width:0.9;" x1="802.8" x2="1053.9" y1="459.4289" y2="459.4289"/><text fill="#000000" font-family="sans-serif" font-size="11.7" font-weight="bold" lengthAdjust="spacing" textLength="12.6" x="809.1" y="455.0581">10</text><text fill="#000000" font-family="sans-serif" font-size="11.7" lengthAdjust="spacing" textLength="223.2" x="825.3" y="455.0581">country = getCountryByName(portArray[1])</text><path d="M750.15,499.9289 L805.05,499.9289 L805.05,507.1289 L796.05,516.1289 L750.15,516.1289 L750.15,499.9289 " fill="#EEEEEE" style="stroke:#000000;stroke-width:0.9;"/><rect fill="none" height="70.8328" style="stroke:#000000;stroke-width:1.8;" width="370.35" x="750.15" y="499.9289"/><text fill="#000000" font-family="sans-serif" font-size="11.7" font-weight="bold" lengthAdjust="spacing" textLength="14.4" x="763.65" y="512.9745">alt</text><text fill="#000000" font-family="sans-serif" font-size="9.9" font-weight="bold" lengthAdjust="spacing" textLength="79.2" x="818.55" y="512.006">[country == null]</text><polygon fill="#A80036" points="1048.5,532.9617,1057.5,536.5617,1048.5,540.1617,1052.1,536.5617" style="stroke:#A80036;stroke-width:0.9;"/><line style="stroke:#A80036;stroke-width:0.9;" x1="802.8" x2="1053.9" y1="536.5617" y2="536.5617"/><text fill="#000000" font-family="sans-serif" font-size="11.7" font-weight="bold" lengthAdjust="spacing" textLength="12.6" x="809.1" y="532.1909">11</text><text fill="#000000" font-family="sans-serif" font-size="11.7" lengthAdjust="spacing" textLength="206.1" x="825.3" y="532.1909">createCountry(portArray[1],portArray[0])</text><polygon fill="#A80036" points="1225.8,593.5781,1234.8,597.1781,1225.8,600.7781,1229.4,597.1781" style="stroke:#A80036;stroke-width:0.9;"/><line style="stroke:#A80036;stroke-width:0.9;stroke-dasharray:2.0,2.0;" x1="802.8" x2="1231.2" y1="597.1781" y2="597.1781"/><text fill="#000000" font-family="sans-serif" font-size="11.7" font-weight="bold" lengthAdjust="spacing" textLength="12.6" x="809.1" y="592.8073">12</text><text fill="#000000" font-family="sans-serif" font-size="11.7" lengthAdjust="spacing" textLength="165.6" x="825.3" y="592.8073">create(portArray[4],portArray[5])</text><rect fill="#FEFECE" filter="url(#f1p1z1nt3ghb66)" height="28.4484" style="stroke:#A80036;stroke-width:1.35;" width="175.5" x="1236.6" y="577.0617"/><text fill="#000000" font-family="sans-serif" font-size="12.6" lengthAdjust="spacing" textLength="162.9" x="1242.9" y="596.4416">placeLocation:PlaceLocation</text><polygon fill="#A80036" points="1446.3,635.5266,1455.3,639.1266,1446.3,642.7266,1449.9,639.1266" style="stroke:#A80036;stroke-width:0.9;"/><line style="stroke:#A80036;stroke-width:0.9;stroke-dasharray:2.0,2.0;" x1="802.8" x2="1451.7" y1="639.1266" y2="639.1266"/><text fill="#000000" font-family="sans-serif" font-size="11.7" font-weight="bold" lengthAdjust="spacing" textLength="12.6" x="809.1" y="634.7558">13</text><text fill="#000000" font-family="sans-serif" font-size="11.7" lengthAdjust="spacing" textLength="283.5" x="825.3" y="634.7558">create(country,portArray[2],portArray[3],placeLocation)</text><polygon fill="#A80036" points="1446.3,689.843,1455.3,693.443,1446.3,697.043,1449.9,693.443" style="stroke:#A80036;stroke-width:0.9;"/><line style="stroke:#A80036;stroke-width:0.9;" x1="802.8" x2="1451.7" y1="693.443" y2="693.443"/><text fill="#000000" font-family="sans-serif" font-size="11.7" font-weight="bold" lengthAdjust="spacing" textLength="12.6" x="809.1" y="689.0722">14</text><text fill="#000000" font-family="sans-serif" font-size="11.7" lengthAdjust="spacing" textLength="107.1" x="825.3" y="689.0722">success =savePort()</text><path d="M750.15,733.943 L805.05,733.943 L805.05,741.143 L796.05,750.143 L750.15,750.143 L750.15,733.943 " fill="#EEEEEE" style="stroke:#000000;stroke-width:0.9;"/><rect fill="none" height="125.1492" style="stroke:#000000;stroke-width:1.8;" width="1089.45" x="750.15" y="733.943"/><text fill="#000000" font-family="sans-serif" font-size="11.7" font-weight="bold" lengthAdjust="spacing" textLength="14.4" x="763.65" y="746.9886">alt</text><text fill="#000000" font-family="sans-serif" font-size="9.9" font-weight="bold" lengthAdjust="spacing" textLength="86.4" x="818.55" y="746.02">[success == true]</text><polygon fill="#A80036" points="1619.55,766.9758,1628.55,770.5758,1619.55,774.1758,1623.15,770.5758" style="stroke:#A80036;stroke-width:0.9;"/><line style="stroke:#A80036;stroke-width:0.9;stroke-dasharray:2.0,2.0;" x1="802.8" x2="1624.95" y1="770.5758" y2="770.5758"/><text fill="#000000" font-family="sans-serif" font-size="11.7" font-weight="bold" lengthAdjust="spacing" textLength="12.6" x="809.1" y="766.205">15</text><text fill="#000000" font-family="sans-serif" font-size="11.7" lengthAdjust="spacing" textLength="138.6" x="825.3" y="766.205">node = create Node&lt;Port&gt;</text><polygon fill="#A80036" points="1745.1,821.2922,1754.1,824.8922,1745.1,828.4922,1748.7,824.8922" style="stroke:#A80036;stroke-width:0.9;"/><line style="stroke:#A80036;stroke-width:0.9;" x1="802.8" x2="1750.5" y1="824.8922" y2="824.8922"/><text fill="#000000" font-family="sans-serif" font-size="11.7" font-weight="bold" lengthAdjust="spacing" textLength="12.6" x="809.1" y="820.5214">16</text><text fill="#000000" font-family="sans-serif" font-size="11.7" lengthAdjust="spacing" textLength="51.3" x="825.3" y="820.5214">add(node)</text><polygon fill="#A80036" points="1619.55,888.2086,1628.55,891.8086,1619.55,895.4086,1623.15,891.8086" style="stroke:#A80036;stroke-width:0.9;"/><line style="stroke:#A80036;stroke-width:0.9;" x1="802.8" x2="1624.95" y1="891.8086" y2="891.8086"/><text fill="#000000" font-family="sans-serif" font-size="11.7" font-weight="bold" lengthAdjust="spacing" textLength="12.6" x="809.1" y="887.4378">17</text><text fill="#000000" font-family="sans-serif" font-size="11.7" lengthAdjust="spacing" textLength="82.8" x="825.3" y="887.4378">balanceTree(lst)</text><polygon fill="#A80036" points="578.7,942.525,569.7,946.125,578.7,949.725,575.1,946.125" style="stroke:#A80036;stroke-width:0.9;"/><line style="stroke:#A80036;stroke-width:0.9;stroke-dasharray:2.0,2.0;" x1="573.3" x2="797.4" y1="946.125" y2="946.125"/><text fill="#000000" font-family="sans-serif" font-size="11.7" font-weight="bold" lengthAdjust="spacing" textLength="12.6" x="584.1" y="941.7542">18</text><text fill="#000000" font-family="sans-serif" font-size="11.7" lengthAdjust="spacing" textLength="156.6" x="600.3" y="941.7542">Informs the operation success</text><polygon fill="#A80036" points="375.3,969.8414,366.3,973.4414,375.3,977.0414,371.7,973.4414" style="stroke:#A80036;stroke-width:0.9;"/><line style="stroke:#A80036;stroke-width:0.9;stroke-dasharray:2.0,2.0;" x1="369.9" x2="563.4" y1="973.4414" y2="973.4414"/><text fill="#000000" font-family="sans-serif" font-size="11.7" font-weight="bold" lengthAdjust="spacing" textLength="12.6" x="380.7" y="969.0706">19</text><text fill="#000000" font-family="sans-serif" font-size="11.7" lengthAdjust="spacing" textLength="156.6" x="396.9" y="969.0706">Informs the operation success</text><polygon fill="#A80036" points="60.3,997.1578,51.3,1000.7578,60.3,1004.3578,56.7,1000.7578" style="stroke:#A80036;stroke-width:0.9;"/><line style="stroke:#A80036;stroke-width:0.9;" x1="54.9" x2="355.5" y1="1000.7578" y2="1000.7578"/><text fill="#000000" font-family="sans-serif" font-size="11.7" font-weight="bold" lengthAdjust="spacing" textLength="12.6" x="65.7" y="996.387">20</text><text fill="#000000" font-family="sans-serif" font-size="11.7" lengthAdjust="spacing" textLength="156.6" x="81.9" y="996.387">Informs the operation success</text><!--MD5=[fd6a583639def09654539bf4bd5ff5ea]
@startuml

autonumber
actor "Port Manager" as PM

participant ":ImportPortUI" as ui
participant ":ImportPortController" as controller
participant ":ImportPort" as importPort
participant ":Company" as company
participant ":CountryStore" as str
participant "country:Country" as country
participant "placeLocation:PlaceLocation" as PL
participant ":PortStore" as pstore
participant "port:Ports" as Port
participant ":Ports2DTree" as tree
participant "lst:List<Nodes<Port>>" as lst

activate PM
PM -> ui : import ports from a text file
activate ui
ui - -> PM : requests the name of the .csv file containing the data
deactivate ui
PM -> ui : inserts file name
activate ui
ui -> controller : importFile(fileName)
activate controller
controller -> importPort : loadFile(nameOfTheFileToBeImported)
activate importPort
deactivate importPort
deactivate controller
ui -> controller : importPorts()
activate controller
controller -> importPort : convertPorts()
activate importPort
loop for each line on the file
importPort -> company: getCountryStr()
activate company
deactivate company
importPort -> company : getPortStr()
activate company
deactivate company
importPort -> str: country = getCountryByName(portArray[1])
activate str
deactivate str
alt country == null
importPort->str : createCountry(portArray[1],portArray[0])
activate str
deactivate str
end
importPort- -> PL** : create(portArray[4],portArray[5])
importPort - -> pstore : create(country,portArray[2],portArray[3],placeLocation)
activate pstore
deactivate pstore
importPort -> pstore : success =savePort()
activate pstore
deactivate pstore
alt success == true
importPort - -> tree : node = create Node<Port>
activate tree
deactivate tree
importPort -> lst : add(node)
activate lst
deactivate lst
end
end
importPort -> tree: balanceTree(lst)
activate tree
deactivate tree


importPort - -> controller : Informs the operation success
deactivate importPort
controller - -> ui : Informs the operation success
deactivate controller

ui -> PM : Informs the operation success


@enduml

PlantUML version 1.2021.5(Sun Apr 25 12:20:28 BST 2021)
(GPL source distribution)
Java Runtime: OpenJDK Runtime Environment
JVM: Dynamic Code Evolution 64-Bit Server VM
Default Encoding: Cp1252
Language: pt
Country: PT
--></g></svg>