<?xml version="1.0" encoding="UTF-8" standalone="no"?><svg xmlns="http://www.w3.org/2000/svg" xmlns:xlink="http://www.w3.org/1999/xlink" contentScriptType="application/ecmascript" contentStyleType="text/css" height="1519.5px" preserveAspectRatio="none" style="width:1111px;height:1519px;" version="1.1" viewBox="0 0 1111 1519" width="1111.5px" zoomAndPan="magnify"><defs><filter height="300%" id="fpby7n6f03x02" width="300%" x="-1" y="-1"><feGaussianBlur result="blurOut" stdDeviation="3.0"/><feColorMatrix in="blurOut" result="blurOut2" type="matrix" values="0 0 0 0 0 0 0 0 0 0 0 0 0 0 0 0 0 0 .4 0"/><feOffset dx="6.0" dy="6.0" in="blurOut2" result="blurOut3"/><feBlend in="SourceGraphic" in2="blurOut3" mode="normal"/></filter></defs><g><!--MD5=[66ec0a6823552082a6a71000bb1e12e0]
class ImportPortUI--><rect codeLine="3" fill="#FEFECE" filter="url(#fpby7n6f03x02)" height="72" id="ImportPortUI" style="stroke:#A80036;stroke-width:2.25;" width="151.5" x="81" y="10.5"/><ellipse cx="103.5" cy="34.5" fill="#ADD1B2" rx="16.5" ry="16.5" style="stroke:#A80036;stroke-width:1.5;"/><path d="M106.5,29.25 Q106.8047,28.5 107.1563,28.125 Q107.5078,27.75 107.9063,27.75 Q108.6094,27.75 109.0547,28.1719 Q109.5,28.5938 109.5,29.5781 L109.5,31.9219 Q109.5,32.9063 109.0781,33.3281 Q108.6563,33.75 108,33.75 Q107.4141,33.75 107.0391,33.4922 Q106.6641,33.2344 106.5,32.5547 Q106.4297,32.0859 106.1719,31.8281 Q105.7031,31.3359 104.8594,31.0547 Q104.0156,30.75 103.1719,30.75 Q102.1172,30.75 101.2266,31.1719 Q100.3594,31.5938 99.6797,32.5313 Q99,33.4688 99,34.7578 L99,36.1406 Q99,37.6875 100.2656,38.7188 Q101.5313,39.75 103.7813,39.75 Q105.1172,39.75 106.0547,39.4453 Q106.5938,39.2813 107.2031,38.7422 Q107.6016,38.4375 107.8125,38.3438 Q108.0234,38.25 108.2813,38.25 Q108.7734,38.25 109.125,38.6484 Q109.5,39.0234 109.5,39.5625 Q109.5,40.0781 108.9844,40.6875 Q108.2344,41.5781 107.0391,42.0703 Q105.4688,42.75 103.5469,42.75 Q101.2969,42.75 99.4922,41.8594 Q98.0391,41.1563 97.0078,39.6328 Q96,38.1094 96,36.3047 L96,34.6641 Q96,32.7891 96.8906,31.1484 Q97.8047,29.5078 99.375,28.6406 Q100.9688,27.75 102.75,27.75 Q103.8281,27.75 104.7656,28.125 Q105.7031,28.5 106.5,29.25 Z " fill="#000000"/><text fill="#000000" font-family="sans-serif" font-size="18" lengthAdjust="spacing" textLength="103.5" x="124.5" y="41.8652">ImportPortUI</text><line style="stroke:#A80036;stroke-width:2.25;" x1="82.5" x2="231" y1="58.5" y2="58.5"/><line style="stroke:#A80036;stroke-width:2.25;" x1="82.5" x2="231" y1="70.5" y2="70.5"/><!--MD5=[71aef85b917dd0577782a05356719b0f]
class ImportPortController--><rect codeLine="5" fill="#FEFECE" filter="url(#fpby7n6f03x02)" height="113.5078" id="ImportPortController" style="stroke:#A80036;stroke-width:2.25;" width="214.5" x="49.5" y="174"/><ellipse cx="72" cy="198" fill="#ADD1B2" rx="16.5" ry="16.5" style="stroke:#A80036;stroke-width:1.5;"/><path d="M75,192.75 Q75.3047,192 75.6563,191.625 Q76.0078,191.25 76.4063,191.25 Q77.1094,191.25 77.5547,191.6719 Q78,192.0938 78,193.0781 L78,195.4219 Q78,196.4063 77.5781,196.8281 Q77.1563,197.25 76.5,197.25 Q75.9141,197.25 75.5391,196.9922 Q75.1641,196.7344 75,196.0547 Q74.9297,195.5859 74.6719,195.3281 Q74.2031,194.8359 73.3594,194.5547 Q72.5156,194.25 71.6719,194.25 Q70.6172,194.25 69.7266,194.6719 Q68.8594,195.0938 68.1797,196.0313 Q67.5,196.9688 67.5,198.2578 L67.5,199.6406 Q67.5,201.1875 68.7656,202.2188 Q70.0313,203.25 72.2813,203.25 Q73.6172,203.25 74.5547,202.9453 Q75.0938,202.7813 75.7031,202.2422 Q76.1016,201.9375 76.3125,201.8438 Q76.5234,201.75 76.7813,201.75 Q77.2734,201.75 77.625,202.1484 Q78,202.5234 78,203.0625 Q78,203.5781 77.4844,204.1875 Q76.7344,205.0781 75.5391,205.5703 Q73.9688,206.25 72.0469,206.25 Q69.7969,206.25 67.9922,205.3594 Q66.5391,204.6563 65.5078,203.1328 Q64.5,201.6094 64.5,199.8047 L64.5,198.1641 Q64.5,196.2891 65.3906,194.6484 Q66.3047,193.0078 67.875,192.1406 Q69.4688,191.25 71.25,191.25 Q72.3281,191.25 73.2656,191.625 Q74.2031,192 75,192.75 Z " fill="#000000"/><text fill="#000000" font-family="sans-serif" font-size="18" lengthAdjust="spacing" textLength="166.5" x="93" y="205.3652">ImportPortController</text><line style="stroke:#A80036;stroke-width:2.25;" x1="51" x2="262.5" y1="222" y2="222"/><line style="stroke:#A80036;stroke-width:2.25;" x1="51" x2="262.5" y1="234" y2="234"/><ellipse cx="66" cy="250.5" fill="#84BE84" rx="4.5" ry="4.5" style="stroke:#038048;stroke-width:1.5;"/><text fill="#000000" font-family="sans-serif" font-size="16.5" lengthAdjust="spacing" textLength="141" x="79.5" y="257.1284">importFile(fileName)</text><ellipse cx="66" cy="271.2539" fill="#84BE84" rx="4.5" ry="4.5" style="stroke:#038048;stroke-width:1.5;"/><text fill="#000000" font-family="sans-serif" font-size="16.5" lengthAdjust="spacing" textLength="93" x="79.5" y="277.8823">importPorts()</text><!--MD5=[ea13aecf8df941b18fb8e3885c78c184]
class Ports--><rect codeLine="10" fill="#FEFECE" filter="url(#fpby7n6f03x02)" height="113.5078" id="Ports" style="stroke:#A80036;stroke-width:2.25;" width="129" x="336.75" y="924"/><ellipse cx="376.125" cy="948" fill="#ADD1B2" rx="16.5" ry="16.5" style="stroke:#A80036;stroke-width:1.5;"/><path d="M379.125,942.75 Q379.4297,942 379.7813,941.625 Q380.1328,941.25 380.5313,941.25 Q381.2344,941.25 381.6797,941.6719 Q382.125,942.0938 382.125,943.0781 L382.125,945.4219 Q382.125,946.4063 381.7031,946.8281 Q381.2813,947.25 380.625,947.25 Q380.0391,947.25 379.6641,946.9922 Q379.2891,946.7344 379.125,946.0547 Q379.0547,945.5859 378.7969,945.3281 Q378.3281,944.8359 377.4844,944.5547 Q376.6406,944.25 375.7969,944.25 Q374.7422,944.25 373.8516,944.6719 Q372.9844,945.0938 372.3047,946.0313 Q371.625,946.9688 371.625,948.2578 L371.625,949.6406 Q371.625,951.1875 372.8906,952.2188 Q374.1563,953.25 376.4063,953.25 Q377.7422,953.25 378.6797,952.9453 Q379.2188,952.7813 379.8281,952.2422 Q380.2266,951.9375 380.4375,951.8438 Q380.6484,951.75 380.9063,951.75 Q381.3984,951.75 381.75,952.1484 Q382.125,952.5234 382.125,953.0625 Q382.125,953.5781 381.6094,954.1875 Q380.8594,955.0781 379.6641,955.5703 Q378.0938,956.25 376.1719,956.25 Q373.9219,956.25 372.1172,955.3594 Q370.6641,954.6563 369.6328,953.1328 Q368.625,951.6094 368.625,949.8047 L368.625,948.1641 Q368.625,946.2891 369.5156,944.6484 Q370.4297,943.0078 372,942.1406 Q373.5938,941.25 375.375,941.25 Q376.4531,941.25 377.3906,941.625 Q378.3281,942 379.125,942.75 Z " fill="#000000"/><text fill="#000000" font-family="sans-serif" font-size="18" lengthAdjust="spacing" textLength="43.5" x="400.875" y="955.3652">Ports</text><line style="stroke:#A80036;stroke-width:2.25;" x1="338.25" x2="464.25" y1="972" y2="972"/><rect fill="none" height="9" style="stroke:#C82930;stroke-width:1.5;" width="9" x="348.75" y="984"/><text fill="#000000" font-family="sans-serif" font-size="16.5" lengthAdjust="spacing" textLength="90" x="366.75" y="995.1284">identification</text><rect fill="none" height="9" style="stroke:#C82930;stroke-width:1.5;" width="9" x="348.75" y="1004.7539"/><text fill="#000000" font-family="sans-serif" font-size="16.5" lengthAdjust="spacing" textLength="39" x="366.75" y="1015.8823">name</text><line style="stroke:#A80036;stroke-width:2.25;" x1="338.25" x2="464.25" y1="1025.5078" y2="1025.5078"/><!--MD5=[9febfb2ff9adfe183e01ff702b9c1c02]
class PlaceLocation--><rect codeLine="15" fill="#FEFECE" filter="url(#fpby7n6f03x02)" height="113.5078" id="PlaceLocation" style="stroke:#A80036;stroke-width:2.25;" width="165" x="381.75" y="1155"/><ellipse cx="404.25" cy="1179" fill="#ADD1B2" rx="16.5" ry="16.5" style="stroke:#A80036;stroke-width:1.5;"/><path d="M407.25,1173.75 Q407.5547,1173 407.9063,1172.625 Q408.2578,1172.25 408.6563,1172.25 Q409.3594,1172.25 409.8047,1172.6719 Q410.25,1173.0938 410.25,1174.0781 L410.25,1176.4219 Q410.25,1177.4063 409.8281,1177.8281 Q409.4063,1178.25 408.75,1178.25 Q408.1641,1178.25 407.7891,1177.9922 Q407.4141,1177.7344 407.25,1177.0547 Q407.1797,1176.5859 406.9219,1176.3281 Q406.4531,1175.8359 405.6094,1175.5547 Q404.7656,1175.25 403.9219,1175.25 Q402.8672,1175.25 401.9766,1175.6719 Q401.1094,1176.0938 400.4297,1177.0313 Q399.75,1177.9688 399.75,1179.2578 L399.75,1180.6406 Q399.75,1182.1875 401.0156,1183.2188 Q402.2813,1184.25 404.5313,1184.25 Q405.8672,1184.25 406.8047,1183.9453 Q407.3438,1183.7813 407.9531,1183.2422 Q408.3516,1182.9375 408.5625,1182.8438 Q408.7734,1182.75 409.0313,1182.75 Q409.5234,1182.75 409.875,1183.1484 Q410.25,1183.5234 410.25,1184.0625 Q410.25,1184.5781 409.7344,1185.1875 Q408.9844,1186.0781 407.7891,1186.5703 Q406.2188,1187.25 404.2969,1187.25 Q402.0469,1187.25 400.2422,1186.3594 Q398.7891,1185.6563 397.7578,1184.1328 Q396.75,1182.6094 396.75,1180.8047 L396.75,1179.1641 Q396.75,1177.2891 397.6406,1175.6484 Q398.5547,1174.0078 400.125,1173.1406 Q401.7188,1172.25 403.5,1172.25 Q404.5781,1172.25 405.5156,1172.625 Q406.4531,1173 407.25,1173.75 Z " fill="#000000"/><text fill="#000000" font-family="sans-serif" font-size="18" lengthAdjust="spacing" textLength="117" x="425.25" y="1186.3652">PlaceLocation</text><line style="stroke:#A80036;stroke-width:2.25;" x1="383.25" x2="545.25" y1="1203" y2="1203"/><rect fill="none" height="9" style="stroke:#C82930;stroke-width:1.5;" width="9" x="393.75" y="1215"/><text fill="#000000" font-family="sans-serif" font-size="16.5" lengthAdjust="spacing" textLength="51" x="411.75" y="1226.1284">latitude</text><rect fill="none" height="9" style="stroke:#C82930;stroke-width:1.5;" width="9" x="393.75" y="1235.7539"/><text fill="#000000" font-family="sans-serif" font-size="16.5" lengthAdjust="spacing" textLength="64.5" x="411.75" y="1246.8823">longitude</text><line style="stroke:#A80036;stroke-width:2.25;" x1="383.25" x2="545.25" y1="1256.5078" y2="1256.5078"/><!--MD5=[deb4e1f6eb1e3c1256fdb830f96abfbb]
class Country--><rect codeLine="20" fill="#FEFECE" filter="url(#fpby7n6f03x02)" height="113.5078" id="Country" style="stroke:#A80036;stroke-width:2.25;" width="111" x="492.75" y="1386"/><ellipse cx="515.25" cy="1410" fill="#ADD1B2" rx="16.5" ry="16.5" style="stroke:#A80036;stroke-width:1.5;"/><path d="M518.25,1404.75 Q518.5547,1404 518.9063,1403.625 Q519.2578,1403.25 519.6563,1403.25 Q520.3594,1403.25 520.8047,1403.6719 Q521.25,1404.0938 521.25,1405.0781 L521.25,1407.4219 Q521.25,1408.4063 520.8281,1408.8281 Q520.4063,1409.25 519.75,1409.25 Q519.1641,1409.25 518.7891,1408.9922 Q518.4141,1408.7344 518.25,1408.0547 Q518.1797,1407.5859 517.9219,1407.3281 Q517.4531,1406.8359 516.6094,1406.5547 Q515.7656,1406.25 514.9219,1406.25 Q513.8672,1406.25 512.9766,1406.6719 Q512.1094,1407.0938 511.4297,1408.0313 Q510.75,1408.9688 510.75,1410.2578 L510.75,1411.6406 Q510.75,1413.1875 512.0156,1414.2188 Q513.2813,1415.25 515.5313,1415.25 Q516.8672,1415.25 517.8047,1414.9453 Q518.3438,1414.7813 518.9531,1414.2422 Q519.3516,1413.9375 519.5625,1413.8438 Q519.7734,1413.75 520.0313,1413.75 Q520.5234,1413.75 520.875,1414.1484 Q521.25,1414.5234 521.25,1415.0625 Q521.25,1415.5781 520.7344,1416.1875 Q519.9844,1417.0781 518.7891,1417.5703 Q517.2188,1418.25 515.2969,1418.25 Q513.0469,1418.25 511.2422,1417.3594 Q509.7891,1416.6563 508.7578,1415.1328 Q507.75,1413.6094 507.75,1411.8047 L507.75,1410.1641 Q507.75,1408.2891 508.6406,1406.6484 Q509.5547,1405.0078 511.125,1404.1406 Q512.7188,1403.25 514.5,1403.25 Q515.5781,1403.25 516.5156,1403.625 Q517.4531,1404 518.25,1404.75 Z " fill="#000000"/><text fill="#000000" font-family="sans-serif" font-size="18" lengthAdjust="spacing" textLength="63" x="536.25" y="1417.3652">Country</text><line style="stroke:#A80036;stroke-width:2.25;" x1="494.25" x2="602.25" y1="1434" y2="1434"/><rect fill="none" height="9" style="stroke:#C82930;stroke-width:1.5;" width="9" x="504.75" y="1446"/><text fill="#000000" font-family="sans-serif" font-size="16.5" lengthAdjust="spacing" textLength="39" x="522.75" y="1457.1284">name</text><rect fill="none" height="9" style="stroke:#C82930;stroke-width:1.5;" width="9" x="504.75" y="1466.7539"/><text fill="#000000" font-family="sans-serif" font-size="16.5" lengthAdjust="spacing" textLength="66" x="522.75" y="1477.8823">continent</text><line style="stroke:#A80036;stroke-width:2.25;" x1="494.25" x2="602.25" y1="1487.5078" y2="1487.5078"/><!--MD5=[02e4b9b7573f1156f41e60aa5b4e25a4]
class Company--><rect codeLine="25" fill="#FEFECE" filter="url(#fpby7n6f03x02)" height="134.2617" id="Company" style="stroke:#A80036;stroke-width:2.25;" width="151.5" x="10.5" y="585"/><ellipse cx="43.8" cy="609" fill="#ADD1B2" rx="16.5" ry="16.5" style="stroke:#A80036;stroke-width:1.5;"/><path d="M46.8,603.75 Q47.1047,603 47.4563,602.625 Q47.8078,602.25 48.2063,602.25 Q48.9094,602.25 49.3547,602.6719 Q49.8,603.0938 49.8,604.0781 L49.8,606.4219 Q49.8,607.4063 49.3781,607.8281 Q48.9563,608.25 48.3,608.25 Q47.7141,608.25 47.3391,607.9922 Q46.9641,607.7344 46.8,607.0547 Q46.7297,606.5859 46.4719,606.3281 Q46.0031,605.8359 45.1594,605.5547 Q44.3156,605.25 43.4719,605.25 Q42.4172,605.25 41.5266,605.6719 Q40.6594,606.0938 39.9797,607.0313 Q39.3,607.9688 39.3,609.2578 L39.3,610.6406 Q39.3,612.1875 40.5656,613.2188 Q41.8313,614.25 44.0813,614.25 Q45.4172,614.25 46.3547,613.9453 Q46.8938,613.7813 47.5031,613.2422 Q47.9016,612.9375 48.1125,612.8438 Q48.3234,612.75 48.5813,612.75 Q49.0734,612.75 49.425,613.1484 Q49.8,613.5234 49.8,614.0625 Q49.8,614.5781 49.2844,615.1875 Q48.5344,616.0781 47.3391,616.5703 Q45.7688,617.25 43.8469,617.25 Q41.5969,617.25 39.7922,616.3594 Q38.3391,615.6563 37.3078,614.1328 Q36.3,612.6094 36.3,610.8047 L36.3,609.1641 Q36.3,607.2891 37.1906,605.6484 Q38.1047,604.0078 39.675,603.1406 Q41.2688,602.25 43.05,602.25 Q44.1281,602.25 45.0656,602.625 Q46.0031,603 46.8,603.75 Z " fill="#000000"/><text fill="#000000" font-family="sans-serif" font-size="18" lengthAdjust="spacing" textLength="79.5" x="67.2" y="616.3652">Company</text><line style="stroke:#A80036;stroke-width:2.25;" x1="12" x2="160.5" y1="633" y2="633"/><rect fill="none" height="9" style="stroke:#C82930;stroke-width:1.5;" width="9" x="22.5" y="645"/><text fill="#000000" font-family="sans-serif" font-size="16.5" lengthAdjust="spacing" textLength="82.5" x="40.5" y="656.1284">designation</text><line style="stroke:#A80036;stroke-width:2.25;" x1="12" x2="160.5" y1="665.7539" y2="665.7539"/><ellipse cx="27" cy="682.2539" fill="#84BE84" rx="4.5" ry="4.5" style="stroke:#038048;stroke-width:1.5;"/><text fill="#000000" font-family="sans-serif" font-size="16.5" lengthAdjust="spacing" textLength="112.5" x="40.5" y="688.8823">getCountryStr()</text><ellipse cx="27" cy="703.0078" fill="#84BE84" rx="4.5" ry="4.5" style="stroke:#038048;stroke-width:1.5;"/><text fill="#000000" font-family="sans-serif" font-size="16.5" lengthAdjust="spacing" textLength="84" x="40.5" y="709.6362">getPortStr()</text><!--MD5=[d71b38f00914172038ebe731750a8dc5]
class ImportPort--><rect codeLine="31" fill="#FEFECE" filter="url(#fpby7n6f03x02)" height="113.5078" id="ImportPort" style="stroke:#A80036;stroke-width:2.25;" width="312" x="245.25" y="379.5"/><ellipse cx="352.125" cy="403.5" fill="#ADD1B2" rx="16.5" ry="16.5" style="stroke:#A80036;stroke-width:1.5;"/><path d="M355.125,398.25 Q355.4297,397.5 355.7813,397.125 Q356.1328,396.75 356.5313,396.75 Q357.2344,396.75 357.6797,397.1719 Q358.125,397.5938 358.125,398.5781 L358.125,400.9219 Q358.125,401.9063 357.7031,402.3281 Q357.2813,402.75 356.625,402.75 Q356.0391,402.75 355.6641,402.4922 Q355.2891,402.2344 355.125,401.5547 Q355.0547,401.0859 354.7969,400.8281 Q354.3281,400.3359 353.4844,400.0547 Q352.6406,399.75 351.7969,399.75 Q350.7422,399.75 349.8516,400.1719 Q348.9844,400.5938 348.3047,401.5313 Q347.625,402.4688 347.625,403.7578 L347.625,405.1406 Q347.625,406.6875 348.8906,407.7188 Q350.1563,408.75 352.4063,408.75 Q353.7422,408.75 354.6797,408.4453 Q355.2188,408.2813 355.8281,407.7422 Q356.2266,407.4375 356.4375,407.3438 Q356.6484,407.25 356.9063,407.25 Q357.3984,407.25 357.75,407.6484 Q358.125,408.0234 358.125,408.5625 Q358.125,409.0781 357.6094,409.6875 Q356.8594,410.5781 355.6641,411.0703 Q354.0938,411.75 352.1719,411.75 Q349.9219,411.75 348.1172,410.8594 Q346.6641,410.1563 345.6328,408.6328 Q344.625,407.1094 344.625,405.3047 L344.625,403.6641 Q344.625,401.7891 345.5156,400.1484 Q346.4297,398.5078 348,397.6406 Q349.5938,396.75 351.375,396.75 Q352.4531,396.75 353.3906,397.125 Q354.3281,397.5 355.125,398.25 Z " fill="#000000"/><text fill="#000000" font-family="sans-serif" font-size="18" lengthAdjust="spacing" textLength="85.5" x="382.875" y="410.8652">ImportPort</text><line style="stroke:#A80036;stroke-width:2.25;" x1="246.75" x2="555.75" y1="427.5" y2="427.5"/><line style="stroke:#A80036;stroke-width:2.25;" x1="246.75" x2="555.75" y1="439.5" y2="439.5"/><ellipse cx="261.75" cy="456" fill="#84BE84" rx="4.5" ry="4.5" style="stroke:#038048;stroke-width:1.5;"/><text fill="#000000" font-family="sans-serif" font-size="16.5" lengthAdjust="spacing" textLength="273" x="275.25" y="462.6284">loadFile(nameOfTheFileToBeImported)</text><ellipse cx="261.75" cy="476.7539" fill="#84BE84" rx="4.5" ry="4.5" style="stroke:#038048;stroke-width:1.5;"/><text fill="#000000" font-family="sans-serif" font-size="16.5" lengthAdjust="spacing" textLength="105" x="275.25" y="483.3823">convertPorts()</text><!--MD5=[1fa23e875f7ea39406cc4f0fd95e1dab]
class CountryStore--><rect codeLine="36" fill="#FEFECE" filter="url(#fpby7n6f03x02)" height="113.5078" id="CountryStore" style="stroke:#A80036;stroke-width:2.25;" width="325.5" x="487.5" y="765"/><ellipse cx="590.625" cy="789" fill="#ADD1B2" rx="16.5" ry="16.5" style="stroke:#A80036;stroke-width:1.5;"/><path d="M593.625,783.75 Q593.9297,783 594.2813,782.625 Q594.6328,782.25 595.0313,782.25 Q595.7344,782.25 596.1797,782.6719 Q596.625,783.0938 596.625,784.0781 L596.625,786.4219 Q596.625,787.4063 596.2031,787.8281 Q595.7813,788.25 595.125,788.25 Q594.5391,788.25 594.1641,787.9922 Q593.7891,787.7344 593.625,787.0547 Q593.5547,786.5859 593.2969,786.3281 Q592.8281,785.8359 591.9844,785.5547 Q591.1406,785.25 590.2969,785.25 Q589.2422,785.25 588.3516,785.6719 Q587.4844,786.0938 586.8047,787.0313 Q586.125,787.9688 586.125,789.2578 L586.125,790.6406 Q586.125,792.1875 587.3906,793.2188 Q588.6563,794.25 590.9063,794.25 Q592.2422,794.25 593.1797,793.9453 Q593.7188,793.7813 594.3281,793.2422 Q594.7266,792.9375 594.9375,792.8438 Q595.1484,792.75 595.4063,792.75 Q595.8984,792.75 596.25,793.1484 Q596.625,793.5234 596.625,794.0625 Q596.625,794.5781 596.1094,795.1875 Q595.3594,796.0781 594.1641,796.5703 Q592.5938,797.25 590.6719,797.25 Q588.4219,797.25 586.6172,796.3594 Q585.1641,795.6563 584.1328,794.1328 Q583.125,792.6094 583.125,790.8047 L583.125,789.1641 Q583.125,787.2891 584.0156,785.6484 Q584.9297,784.0078 586.5,783.1406 Q588.0938,782.25 589.875,782.25 Q590.9531,782.25 591.8906,782.625 Q592.8281,783 593.625,783.75 Z " fill="#000000"/><text fill="#000000" font-family="sans-serif" font-size="18" lengthAdjust="spacing" textLength="106.5" x="621.375" y="796.3652">CountryStore</text><line style="stroke:#A80036;stroke-width:2.25;" x1="489" x2="811.5" y1="813" y2="813"/><line style="stroke:#A80036;stroke-width:2.25;" x1="489" x2="811.5" y1="825" y2="825"/><ellipse cx="504" cy="841.5" fill="#84BE84" rx="4.5" ry="4.5" style="stroke:#038048;stroke-width:1.5;"/><text fill="#000000" font-family="sans-serif" font-size="16.5" lengthAdjust="spacing" textLength="190.5" x="517.5" y="848.1284">getCountryByName(name)</text><ellipse cx="504" cy="862.2539" fill="#84BE84" rx="4.5" ry="4.5" style="stroke:#038048;stroke-width:1.5;"/><text fill="#000000" font-family="sans-serif" font-size="16.5" lengthAdjust="spacing" textLength="286.5" x="517.5" y="868.8823">createCountry( countryName,continent)</text><!--MD5=[f70d2b281f9eefc1b49373c49159755a]
class PortStore--><rect codeLine="41" fill="#FEFECE" filter="url(#fpby7n6f03x02)" height="113.5078" id="PortStore" style="stroke:#A80036;stroke-width:2.25;" width="372" x="215.25" y="595.5"/><ellipse cx="356.625" cy="619.5" fill="#ADD1B2" rx="16.5" ry="16.5" style="stroke:#A80036;stroke-width:1.5;"/><path d="M359.625,614.25 Q359.9297,613.5 360.2813,613.125 Q360.6328,612.75 361.0313,612.75 Q361.7344,612.75 362.1797,613.1719 Q362.625,613.5938 362.625,614.5781 L362.625,616.9219 Q362.625,617.9063 362.2031,618.3281 Q361.7813,618.75 361.125,618.75 Q360.5391,618.75 360.1641,618.4922 Q359.7891,618.2344 359.625,617.5547 Q359.5547,617.0859 359.2969,616.8281 Q358.8281,616.3359 357.9844,616.0547 Q357.1406,615.75 356.2969,615.75 Q355.2422,615.75 354.3516,616.1719 Q353.4844,616.5938 352.8047,617.5313 Q352.125,618.4688 352.125,619.7578 L352.125,621.1406 Q352.125,622.6875 353.3906,623.7188 Q354.6563,624.75 356.9063,624.75 Q358.2422,624.75 359.1797,624.4453 Q359.7188,624.2813 360.3281,623.7422 Q360.7266,623.4375 360.9375,623.3438 Q361.1484,623.25 361.4063,623.25 Q361.8984,623.25 362.25,623.6484 Q362.625,624.0234 362.625,624.5625 Q362.625,625.0781 362.1094,625.6875 Q361.3594,626.5781 360.1641,627.0703 Q358.5938,627.75 356.6719,627.75 Q354.4219,627.75 352.6172,626.8594 Q351.1641,626.1563 350.1328,624.6328 Q349.125,623.1094 349.125,621.3047 L349.125,619.6641 Q349.125,617.7891 350.0156,616.1484 Q350.9297,614.5078 352.5,613.6406 Q354.0938,612.75 355.875,612.75 Q356.9531,612.75 357.8906,613.125 Q358.8281,613.5 359.625,614.25 Z " fill="#000000"/><text fill="#000000" font-family="sans-serif" font-size="18" lengthAdjust="spacing" textLength="76.5" x="387.375" y="626.8652">PortStore</text><line style="stroke:#A80036;stroke-width:2.25;" x1="216.75" x2="585.75" y1="643.5" y2="643.5"/><line style="stroke:#A80036;stroke-width:2.25;" x1="216.75" x2="585.75" y1="655.5" y2="655.5"/><ellipse cx="231.75" cy="672" fill="#84BE84" rx="4.5" ry="4.5" style="stroke:#038048;stroke-width:1.5;"/><text fill="#000000" font-family="sans-serif" font-size="16.5" lengthAdjust="spacing" textLength="333" x="245.25" y="678.6284">create(country,code,portName,placeLocation)</text><ellipse cx="231.75" cy="692.7539" fill="#84BE84" rx="4.5" ry="4.5" style="stroke:#038048;stroke-width:1.5;"/><text fill="#000000" font-family="sans-serif" font-size="16.5" lengthAdjust="spacing" textLength="76.5" x="245.25" y="699.3823">savePort()</text><!--MD5=[591897fc66076d66d8e53c84834f2faa]
class Ports2DTree--><rect codeLine="46" fill="#FEFECE" filter="url(#fpby7n6f03x02)" height="113.5078" id="Ports2DTree" style="stroke:#A80036;stroke-width:2.25;" width="343.5" x="747" y="595.5"/><ellipse cx="859.875" cy="619.5" fill="#ADD1B2" rx="16.5" ry="16.5" style="stroke:#A80036;stroke-width:1.5;"/><path d="M862.875,614.25 Q863.1797,613.5 863.5313,613.125 Q863.8828,612.75 864.2813,612.75 Q864.9844,612.75 865.4297,613.1719 Q865.875,613.5938 865.875,614.5781 L865.875,616.9219 Q865.875,617.9063 865.4531,618.3281 Q865.0313,618.75 864.375,618.75 Q863.7891,618.75 863.4141,618.4922 Q863.0391,618.2344 862.875,617.5547 Q862.8047,617.0859 862.5469,616.8281 Q862.0781,616.3359 861.2344,616.0547 Q860.3906,615.75 859.5469,615.75 Q858.4922,615.75 857.6016,616.1719 Q856.7344,616.5938 856.0547,617.5313 Q855.375,618.4688 855.375,619.7578 L855.375,621.1406 Q855.375,622.6875 856.6406,623.7188 Q857.9063,624.75 860.1563,624.75 Q861.4922,624.75 862.4297,624.4453 Q862.9688,624.2813 863.5781,623.7422 Q863.9766,623.4375 864.1875,623.3438 Q864.3984,623.25 864.6563,623.25 Q865.1484,623.25 865.5,623.6484 Q865.875,624.0234 865.875,624.5625 Q865.875,625.0781 865.3594,625.6875 Q864.6094,626.5781 863.4141,627.0703 Q861.8438,627.75 859.9219,627.75 Q857.6719,627.75 855.8672,626.8594 Q854.4141,626.1563 853.3828,624.6328 Q852.375,623.1094 852.375,621.3047 L852.375,619.6641 Q852.375,617.7891 853.2656,616.1484 Q854.1797,614.5078 855.75,613.6406 Q857.3438,612.75 859.125,612.75 Q860.2031,612.75 861.1406,613.125 Q862.0781,613.5 862.875,614.25 Z " fill="#000000"/><text fill="#000000" font-family="sans-serif" font-size="18" lengthAdjust="spacing" textLength="105" x="890.625" y="626.8652">Ports2DTree</text><line style="stroke:#A80036;stroke-width:2.25;" x1="748.5" x2="1089" y1="643.5" y2="643.5"/><line style="stroke:#A80036;stroke-width:2.25;" x1="748.5" x2="1089" y1="655.5" y2="655.5"/><ellipse cx="763.5" cy="672" fill="#84BE84" rx="4.5" ry="4.5" style="stroke:#038048;stroke-width:1.5;"/><text fill="#000000" font-family="sans-serif" font-size="16.5" lengthAdjust="spacing" textLength="304.5" x="777" y="678.6284">create Node&lt;Port&gt; (Port,latitude,longitude)</text><ellipse cx="763.5" cy="692.7539" fill="#84BE84" rx="4.5" ry="4.5" style="stroke:#038048;stroke-width:1.5;"/><text fill="#000000" font-family="sans-serif" font-size="16.5" lengthAdjust="spacing" textLength="118.5" x="777" y="699.3823">balanceTree(lst)</text><!--MD5=[3d97e7a8068d9b0a6bb8fcf7dc76451d]
link Company to Ports--><path codeLine="51" d="M150.375,720.255 C208.305,780.12 292.59,867.225 347.175,923.625 " fill="none" id="Company-Ports" style="stroke:#A80036;stroke-width:1.5;"/><polygon fill="#000000" points="313.4655,827.6533,307.1985,814.8377,300.8626,820.969,313.4655,827.6533" style="stroke:#000000;stroke-width:1.5;"/><text fill="#000000" font-family="sans-serif" font-size="19.5" lengthAdjust="spacing" textLength="39" x="321.75" y="830.2427">have</text><text fill="#000000" font-family="sans-serif" font-size="19.5" lengthAdjust="spacing" textLength="10.5" x="147.7863" y="751.2998">1</text><text fill="#000000" font-family="sans-serif" font-size="19.5" lengthAdjust="spacing" textLength="30" x="304.871" y="907.6011">1..*</text><!--MD5=[aaa368e4b832683362a5bdda330bd90d]
link Ports to PlaceLocation--><path codeLine="54" d="M416.655,1038.27 C426.465,1073.745 439.095,1119.48 448.89,1154.91 " fill="none" id="Ports-PlaceLocation" style="stroke:#A80036;stroke-width:1.5;"/><polygon fill="#000000" points="445.2478,1103.9927,445.8828,1089.741,437.3846,1092.0896,445.2478,1103.9927" style="stroke:#000000;stroke-width:1.5;"/><text fill="#000000" font-family="sans-serif" font-size="19.5" lengthAdjust="spacing" textLength="85.5" x="456.75" y="1104.7427">located at</text><text fill="#000000" font-family="sans-serif" font-size="19.5" lengthAdjust="spacing" textLength="10.5" x="407.7735" y="1069.6338">1</text><text fill="#000000" font-family="sans-serif" font-size="19.5" lengthAdjust="spacing" textLength="10.5" x="434.59" y="1138.5082">1</text><!--MD5=[3d04185e7085eaaeba7ebd93b9963be0]
link PlaceLocation to Country--><path codeLine="55" d="M471.3,1269.21 C475.215,1291.95 481.11,1318.2 489.75,1341 C495.48,1356.105 503.34,1371.585 511.44,1385.73 " fill="none" id="PlaceLocation-Country" style="stroke:#A80036;stroke-width:1.5;"/><polygon fill="#000000" points="499.6928,1334.8547,499.4417,1320.5911,491.1057,1323.4627,499.6928,1334.8547" style="stroke:#000000;stroke-width:1.5;"/><text fill="#000000" font-family="sans-serif" font-size="19.5" lengthAdjust="spacing" textLength="78" x="510.75" y="1335.7427">placed in</text><text fill="#000000" font-family="sans-serif" font-size="19.5" lengthAdjust="spacing" textLength="7.5" x="464.3259" y="1300.5643">*</text><text fill="#000000" font-family="sans-serif" font-size="19.5" lengthAdjust="spacing" textLength="10.5" x="493.4481" y="1369.7248">1</text><!--MD5=[a274b9c561e77e6aa7af544d8fd7e5b9]
link ImportPortUI to ImportPortController--><path codeLine="57" d="M156.75,82.56 C156.75,106.065 156.75,137.865 156.75,165.87 " fill="none" id="ImportPortUI-to-ImportPortController" style="stroke:#A80036;stroke-width:1.5;stroke-dasharray:7.0,7.0;"/><polygon fill="#A80036" points="156.75,173.655,162.75,160.155,156.75,166.155,150.75,160.155,156.75,173.655" style="stroke:#A80036;stroke-width:1.5;"/><!--MD5=[fedae152fe2635eb3f764cf1e15468a0]
link ImportPortController to Company--><path codeLine="58" d="M147.39,288.075 C134.865,362.385 112.65,494.325 98.715,576.99 " fill="none" id="ImportPortController-to-Company" style="stroke:#A80036;stroke-width:1.5;stroke-dasharray:7.0,7.0;"/><polygon fill="#A80036" points="97.395,584.835,105.5501,572.5166,98.6384,577.4388,93.7162,570.5271,97.395,584.835" style="stroke:#A80036;stroke-width:1.5;"/><!--MD5=[e9f01aa090db8e8b299145db1b7bf4f4]
link ImportPortController to ImportPort--><path codeLine="59" d="M224.205,288.375 C256.41,315.045 295.005,347.01 327.93,374.28 " fill="none" id="ImportPortController-to-ImportPort" style="stroke:#A80036;stroke-width:1.5;stroke-dasharray:7.0,7.0;"/><polygon fill="#A80036" points="334.005,379.305,327.4411,366.07,328.231,374.5184,319.7826,375.3083,334.005,379.305" style="stroke:#A80036;stroke-width:1.5;"/><!--MD5=[05f669d9ec206e145b14cd0194782c50]
link ImportPort to Company--><path codeLine="60" d="M318.9,493.68 C272.685,524.94 215.19,563.805 168.93,595.095 " fill="none" id="ImportPort-to-Company" style="stroke:#A80036;stroke-width:1.5;stroke-dasharray:7.0,7.0;"/><polygon fill="#A80036" points="162.18,599.655,176.7248,597.0666,168.3939,595.4553,170.0052,587.1244,162.18,599.655" style="stroke:#A80036;stroke-width:1.5;"/><!--MD5=[67456812dbbd2417c383c655407c789c]
link ImportPort to CountryStore--><path codeLine="61" d="M516.705,493.5 C553.455,516.765 590.655,547.29 614.25,585 C646.53,636.585 653.595,706.665 653.775,756.945 " fill="none" id="ImportPort-to-CountryStore" style="stroke:#A80036;stroke-width:1.5;stroke-dasharray:7.0,7.0;"/><polygon fill="#A80036" points="653.745,764.835,659.7835,751.3522,653.7664,757.335,647.7836,751.3179,653.745,764.835" style="stroke:#A80036;stroke-width:1.5;"/><!--MD5=[f967797988c016cbdc52ea2558741842]
link CountryStore to Country--><path codeLine="62" d="M650.595,879.045 C649.845,975.075 642.33,1177.545 596.25,1341 C592.725,1353.48 587.76,1366.32 582.345,1378.485 " fill="none" id="CountryStore-to-Country" style="stroke:#A80036;stroke-width:1.5;"/><polygon fill="#A80036" points="578.91,1385.955,589.9956,1376.1898,582.0393,1379.139,579.09,1371.1828,578.91,1385.955" style="stroke:#A80036;stroke-width:1.5;"/><text fill="#000000" font-family="sans-serif" font-size="19.5" lengthAdjust="spacing" textLength="58.5" x="641.25" y="1104.7427">adopts</text><text fill="#000000" font-family="sans-serif" font-size="19.5" lengthAdjust="spacing" textLength="10.5" x="639.2826" y="910.8077">1</text><text fill="#000000" font-family="sans-serif" font-size="19.5" lengthAdjust="spacing" textLength="7.5" x="576.3715" y="1369.5615">*</text><!--MD5=[b43e45f1eb18965f7fa6d23f825472c0]
link ImportPort to PortStore--><path codeLine="63" d="M401.25,493.965 C401.25,522.705 401.25,557.835 401.25,587.58 " fill="none" id="ImportPort-to-PortStore" style="stroke:#A80036;stroke-width:1.5;stroke-dasharray:7.0,7.0;"/><polygon fill="#A80036" points="401.25,595.41,407.25,581.91,401.25,587.91,395.25,581.91,401.25,595.41" style="stroke:#A80036;stroke-width:1.5;"/><!--MD5=[af03eac9374996fab52622a2288382b0]
link PortStore to Ports--><path codeLine="64" d="M400.35,709.905 C400.095,727.53 399.87,747.075 399.75,765 C399.405,815.67 399.375,828.33 399.75,879 C399.84,891 399.99,903.795 400.155,916.095 " fill="none" id="PortStore-to-Ports" style="stroke:#A80036;stroke-width:1.5;"/><polygon fill="#A80036" points="400.275,923.685,406.0816,910.1007,400.1679,916.1858,394.0828,910.2721,400.275,923.685" style="stroke:#A80036;stroke-width:1.5;"/><text fill="#000000" font-family="sans-serif" font-size="19.5" lengthAdjust="spacing" textLength="58.5" x="401.25" y="830.2427">adopts</text><text fill="#000000" font-family="sans-serif" font-size="19.5" lengthAdjust="spacing" textLength="10.5" x="388.8698" y="741.2903">1</text><text fill="#000000" font-family="sans-serif" font-size="19.5" lengthAdjust="spacing" textLength="7.5" x="391.9334" y="907.6717">*</text><!--MD5=[4dc7a1dc717c594a3959c6240be45742]
link ImportPort to Ports2DTree--><path codeLine="65" d="M557.625,484.065 C605.76,499.725 658.5,518.385 705.75,538.5 C742.185,554.01 780.81,573.435 815.01,591.765 " fill="none" id="ImportPort-to-Ports2DTree" style="stroke:#A80036;stroke-width:1.5;stroke-dasharray:7.0,7.0;"/><polygon fill="#A80036" points="821.79,595.41,812.7528,583.7233,815.1878,591.8517,807.0595,594.2868,821.79,595.41" style="stroke:#A80036;stroke-width:1.5;"/><!--MD5=[4024a33c24949693dd9f56eaef1c4328]
@startuml
'https://plantuml.com/class-diagram

class ImportPortUI {}

class ImportPortController {
+importFile(fileName)
+importPorts()
}

class Ports {
-identification
-name
}

class PlaceLocation {
-latitude
-longitude
}

class Country {
-name
-continent
}

class Company {
-designation
+ getCountryStr()
+ getPortStr()
}

class ImportPort{
+ loadFile(nameOfTheFileToBeImported)
+ convertPorts()
}

class CountryStore {
+getCountryByName(name)
+createCountry( countryName,continent)
}

class PortStore {
+create(country,code,portName,placeLocation)
+savePort()
}

class Ports2DTree {
+create Node<Port> (Port,latitude,longitude)
+balanceTree(lst)
}

Company "1"- -"1..*" Ports: have >


Ports "1" - - "1" PlaceLocation : located at >
PlaceLocation "*" - - "1" Country : placed in >

ImportPortUI ..> ImportPortController
ImportPortController ..> Company
ImportPortController ..> ImportPort
ImportPort ..> Company
ImportPort ..> CountryStore
CountryStore "1"- -> "*" Country : adopts
ImportPort ..> PortStore
PortStore "1"- -> "*" Ports : adopts
ImportPort ..> Ports2DTree

@enduml

@startuml

class ImportPortUI {}

class ImportPortController {
+importFile(fileName)
+importPorts()
}

class Ports {
-identification
-name
}

class PlaceLocation {
-latitude
-longitude
}

class Country {
-name
-continent
}

class Company {
-designation
+ getCountryStr()
+ getPortStr()
}

class ImportPort{
+ loadFile(nameOfTheFileToBeImported)
+ convertPorts()
}

class CountryStore {
+getCountryByName(name)
+createCountry( countryName,continent)
}

class PortStore {
+create(country,code,portName,placeLocation)
+savePort()
}

class Ports2DTree {
+create Node<Port> (Port,latitude,longitude)
+balanceTree(lst)
}

Company "1"- -"1..*" Ports: have >


Ports "1" - - "1" PlaceLocation : located at >
PlaceLocation "*" - - "1" Country : placed in >

ImportPortUI ..> ImportPortController
ImportPortController ..> Company
ImportPortController ..> ImportPort
ImportPort ..> Company
ImportPort ..> CountryStore
CountryStore "1"- -> "*" Country : adopts
ImportPort ..> PortStore
PortStore "1"- -> "*" Ports : adopts
ImportPort ..> Ports2DTree

@enduml

PlantUML version 1.2021.5(Sun Apr 25 12:20:28 BST 2021)
(GPL source distribution)
Java Runtime: OpenJDK Runtime Environment
JVM: Dynamic Code Evolution 64-Bit Server VM
Default Encoding: Cp1252
Language: pt
Country: PT
--></g></svg>