<?xml version="1.0" encoding="UTF-8" standalone="no"?><svg xmlns="http://www.w3.org/2000/svg" xmlns:xlink="http://www.w3.org/1999/xlink" contentScriptType="application/ecmascript" contentStyleType="text/css" height="345px" preserveAspectRatio="none" style="width:471px;height:345px;background:#FFFFFF;" version="1.1" viewBox="0 0 471 345" width="471px" zoomAndPan="magnify"><defs><filter height="300%" id="fnijdssvpnott" width="300%" x="-1" y="-1"><feGaussianBlur result="blurOut" stdDeviation="2.0"/><feColorMatrix in="blurOut" result="blurOut2" type="matrix" values="0 0 0 0 0 0 0 0 0 0 0 0 0 0 0 0 0 0 .4 0"/><feOffset dx="4.0" dy="4.0" in="blurOut2" result="blurOut3"/><feBlend in="SourceGraphic" in2="blurOut3" mode="normal"/></filter></defs><g><!--MD5=[e9747e1058721c717a44ac46a5514e6f]
class RatioOfCargoManifestDateUI--><rect codeLine="2" fill="#FEFECE" filter="url(#fnijdssvpnott)" height="48" id="RatioOfCargoManifestDateUI" style="stroke:#A80036;stroke-width:1.5;" width="191" x="28" y="7"/><ellipse cx="43" cy="23" fill="#ADD1B2" rx="11" ry="11" style="stroke:#A80036;stroke-width:1.0;"/><path d="M45,19.5 Q45.2031,19 45.4375,18.75 Q45.6719,18.5 45.9375,18.5 Q46.4063,18.5 46.7031,18.7813 Q47,19.0625 47,19.7188 L47,21.2813 Q47,21.9375 46.7188,22.2188 Q46.4375,22.5 46,22.5 Q45.6094,22.5 45.3594,22.3281 Q45.1094,22.1563 45,21.7031 Q44.9531,21.3906 44.7813,21.2188 Q44.4688,20.8906 43.9063,20.7031 Q43.3438,20.5 42.7813,20.5 Q42.0781,20.5 41.4844,20.7813 Q40.9063,21.0625 40.4531,21.6875 Q40,22.3125 40,23.1719 L40,24.0938 Q40,25.125 40.8438,25.8125 Q41.6875,26.5 43.1875,26.5 Q44.0781,26.5 44.7031,26.2969 Q45.0625,26.1875 45.4688,25.8281 Q45.7344,25.625 45.875,25.5625 Q46.0156,25.5 46.1875,25.5 Q46.5156,25.5 46.75,25.7656 Q47,26.0156 47,26.375 Q47,26.7188 46.6563,27.125 Q46.1563,27.7188 45.3594,28.0469 Q44.3125,28.5 43.0313,28.5 Q41.5313,28.5 40.3281,27.9063 Q39.3594,27.4375 38.6719,26.4219 Q38,25.4063 38,24.2031 L38,23.1094 Q38,21.8594 38.5938,20.7656 Q39.2031,19.6719 40.25,19.0938 Q41.3125,18.5 42.5,18.5 Q43.2188,18.5 43.8438,18.75 Q44.4688,19 45,19.5 Z " fill="#000000"/><text fill="#000000" font-family="sans-serif" font-size="12" lengthAdjust="spacing" textLength="159" x="57" y="27.9102">RatioOfCargoManifestDateUI</text><line style="stroke:#A80036;stroke-width:1.5;" x1="29" x2="218" y1="39" y2="39"/><line style="stroke:#A80036;stroke-width:1.5;" x1="29" x2="218" y1="47" y2="47"/><!--MD5=[070341b94daddadd59076c9ddc525b66]
class RatioOfCargoManifestDateController--><rect codeLine="4" fill="#FEFECE" filter="url(#fnijdssvpnott)" height="61.8359" id="RatioOfCargoManifestDateController" style="stroke:#A80036;stroke-width:1.5;" width="233" x="7" y="123"/><ellipse cx="22" cy="139" fill="#ADD1B2" rx="11" ry="11" style="stroke:#A80036;stroke-width:1.0;"/><path d="M24,135.5 Q24.2031,135 24.4375,134.75 Q24.6719,134.5 24.9375,134.5 Q25.4063,134.5 25.7031,134.7813 Q26,135.0625 26,135.7188 L26,137.2813 Q26,137.9375 25.7188,138.2188 Q25.4375,138.5 25,138.5 Q24.6094,138.5 24.3594,138.3281 Q24.1094,138.1563 24,137.7031 Q23.9531,137.3906 23.7813,137.2188 Q23.4688,136.8906 22.9063,136.7031 Q22.3438,136.5 21.7813,136.5 Q21.0781,136.5 20.4844,136.7813 Q19.9063,137.0625 19.4531,137.6875 Q19,138.3125 19,139.1719 L19,140.0938 Q19,141.125 19.8438,141.8125 Q20.6875,142.5 22.1875,142.5 Q23.0781,142.5 23.7031,142.2969 Q24.0625,142.1875 24.4688,141.8281 Q24.7344,141.625 24.875,141.5625 Q25.0156,141.5 25.1875,141.5 Q25.5156,141.5 25.75,141.7656 Q26,142.0156 26,142.375 Q26,142.7188 25.6563,143.125 Q25.1563,143.7188 24.3594,144.0469 Q23.3125,144.5 22.0313,144.5 Q20.5313,144.5 19.3281,143.9063 Q18.3594,143.4375 17.6719,142.4219 Q17,141.4063 17,140.2031 L17,139.1094 Q17,137.8594 17.5938,136.7656 Q18.2031,135.6719 19.25,135.0938 Q20.3125,134.5 21.5,134.5 Q22.2188,134.5 22.8438,134.75 Q23.4688,135 24,135.5 Z " fill="#000000"/><text fill="#000000" font-family="sans-serif" font-size="12" lengthAdjust="spacing" textLength="201" x="36" y="143.9102">RatioOfCargoManifestDateController</text><line style="stroke:#A80036;stroke-width:1.5;" x1="8" x2="239" y1="155" y2="155"/><line style="stroke:#A80036;stroke-width:1.5;" x1="8" x2="239" y1="163" y2="163"/><ellipse cx="18" cy="174" fill="#84BE84" rx="3" ry="3" style="stroke:#038048;stroke-width:1.0;"/><text fill="#000000" font-family="sans-serif" font-size="11" lengthAdjust="spacing" textLength="177" x="27" y="178.4189">createUS207(mmsiCode, actualDate)</text><!--MD5=[1f4a97c67a7d651decb375f7d88e725f]
class US209--><rect codeLine="9" fill="#FEFECE" filter="url(#fnijdssvpnott)" height="75.6719" id="US209" style="stroke:#A80036;stroke-width:1.5;" width="177" x="275" y="116"/><ellipse cx="340.25" cy="132" fill="#ADD1B2" rx="11" ry="11" style="stroke:#A80036;stroke-width:1.0;"/><path d="M342.25,128.5 Q342.4531,128 342.6875,127.75 Q342.9219,127.5 343.1875,127.5 Q343.6563,127.5 343.9531,127.7813 Q344.25,128.0625 344.25,128.7188 L344.25,130.2813 Q344.25,130.9375 343.9688,131.2188 Q343.6875,131.5 343.25,131.5 Q342.8594,131.5 342.6094,131.3281 Q342.3594,131.1563 342.25,130.7031 Q342.2031,130.3906 342.0313,130.2188 Q341.7188,129.8906 341.1563,129.7031 Q340.5938,129.5 340.0313,129.5 Q339.3281,129.5 338.7344,129.7813 Q338.1563,130.0625 337.7031,130.6875 Q337.25,131.3125 337.25,132.1719 L337.25,133.0938 Q337.25,134.125 338.0938,134.8125 Q338.9375,135.5 340.4375,135.5 Q341.3281,135.5 341.9531,135.2969 Q342.3125,135.1875 342.7188,134.8281 Q342.9844,134.625 343.125,134.5625 Q343.2656,134.5 343.4375,134.5 Q343.7656,134.5 344,134.7656 Q344.25,135.0156 344.25,135.375 Q344.25,135.7188 343.9063,136.125 Q343.4063,136.7188 342.6094,137.0469 Q341.5625,137.5 340.2813,137.5 Q338.7813,137.5 337.5781,136.9063 Q336.6094,136.4375 335.9219,135.4219 Q335.25,134.4063 335.25,133.2031 L335.25,132.1094 Q335.25,130.8594 335.8438,129.7656 Q336.4531,128.6719 337.5,128.0938 Q338.5625,127.5 339.75,127.5 Q340.4688,127.5 341.0938,127.75 Q341.7188,128 342.25,128.5 Z " fill="#000000"/><text fill="#000000" font-family="sans-serif" font-size="12" lengthAdjust="spacing" textLength="38" x="360.75" y="136.9102">US209</text><line style="stroke:#A80036;stroke-width:1.5;" x1="276" x2="451" y1="148" y2="148"/><line style="stroke:#A80036;stroke-width:1.5;" x1="276" x2="451" y1="156" y2="156"/><rect fill="#F24D5C" height="6" style="stroke:#C82930;stroke-width:1.0;" width="6" x="283" y="164"/><text fill="#000000" font-family="sans-serif" font-size="11" lengthAdjust="spacing" textLength="151" x="295" y="171.4189">initialize(mmsiCode, actualDate)</text><ellipse cx="286" cy="180.8359" fill="#84BE84" rx="3" ry="3" style="stroke:#038048;stroke-width:1.0;"/><text fill="#000000" font-family="sans-serif" font-size="11" lengthAdjust="spacing" textLength="45" x="295" y="185.2549">toString()</text><!--MD5=[c4c1f95cf25890b8d906953e22c853cc]
class WriteForAFile--><rect codeLine="15" fill="#FEFECE" filter="url(#fnijdssvpnott)" height="61.8359" id="WriteForAFile" style="stroke:#A80036;stroke-width:1.5;" width="188" x="269.5" y="270"/><ellipse cx="322.75" cy="286" fill="#ADD1B2" rx="11" ry="11" style="stroke:#A80036;stroke-width:1.0;"/><path d="M324.75,282.5 Q324.9531,282 325.1875,281.75 Q325.4219,281.5 325.6875,281.5 Q326.1563,281.5 326.4531,281.7813 Q326.75,282.0625 326.75,282.7188 L326.75,284.2813 Q326.75,284.9375 326.4688,285.2188 Q326.1875,285.5 325.75,285.5 Q325.3594,285.5 325.1094,285.3281 Q324.8594,285.1563 324.75,284.7031 Q324.7031,284.3906 324.5313,284.2188 Q324.2188,283.8906 323.6563,283.7031 Q323.0938,283.5 322.5313,283.5 Q321.8281,283.5 321.2344,283.7813 Q320.6563,284.0625 320.2031,284.6875 Q319.75,285.3125 319.75,286.1719 L319.75,287.0938 Q319.75,288.125 320.5938,288.8125 Q321.4375,289.5 322.9375,289.5 Q323.8281,289.5 324.4531,289.2969 Q324.8125,289.1875 325.2188,288.8281 Q325.4844,288.625 325.625,288.5625 Q325.7656,288.5 325.9375,288.5 Q326.2656,288.5 326.5,288.7656 Q326.75,289.0156 326.75,289.375 Q326.75,289.7188 326.4063,290.125 Q325.9063,290.7188 325.1094,291.0469 Q324.0625,291.5 322.7813,291.5 Q321.2813,291.5 320.0781,290.9063 Q319.1094,290.4375 318.4219,289.4219 Q317.75,288.4063 317.75,287.2031 L317.75,286.1094 Q317.75,284.8594 318.3438,283.7656 Q318.9531,282.6719 320,282.0938 Q321.0625,281.5 322.25,281.5 Q322.9688,281.5 323.5938,281.75 Q324.2188,282 324.75,282.5 Z " fill="#000000"/><text fill="#000000" font-family="sans-serif" font-size="12" lengthAdjust="spacing" textLength="73" x="343.25" y="290.9102">WriteForAFile</text><line style="stroke:#A80036;stroke-width:1.5;" x1="270.5" x2="456.5" y1="302" y2="302"/><line style="stroke:#A80036;stroke-width:1.5;" x1="270.5" x2="456.5" y1="310" y2="310"/><ellipse cx="280.5" cy="321" fill="#84BE84" rx="3" ry="3" style="stroke:#038048;stroke-width:1.0;"/><text fill="#000000" font-family="sans-serif" font-size="11" lengthAdjust="spacing" textLength="162" x="289.5" y="325.4189">writeForAFiLe(textualInformation)</text><!--MD5=[f6a22fd932d30a5f02e80f1717dfeacd]
link RatioOfCargoManifestDateController to US209--><path codeLine="22" d="M240.22,154 C250.06,154 259.9,154 269.74,154 " fill="none" id="RatioOfCargoManifestDateController-to-US209" style="stroke:#A80036;stroke-width:1.0;"/><polygon fill="#A80036" points="274.89,154,265.89,150,269.89,154,265.89,158,274.89,154" style="stroke:#A80036;stroke-width:1.0;"/><!--MD5=[ec9797bd812d97fdd55a3091d6980385]
link US209 to WriteForAFile--><path codeLine="23" d="M363.5,192.34 C363.5,214.56 363.5,242.59 363.5,264.48 " fill="none" id="US209-to-WriteForAFile" style="stroke:#A80036;stroke-width:1.0;"/><polygon fill="#A80036" points="363.5,269.62,367.5,260.62,363.5,264.62,359.5,260.62,363.5,269.62" style="stroke:#A80036;stroke-width:1.0;"/><text fill="#000000" font-family="sans-serif" font-size="13" lengthAdjust="spacing" textLength="28" x="364.5" y="236.4951">uses</text><!--MD5=[e28524b2ff94125c9d50ce46cd4629e7]
link RatioOfCargoManifestDateUI to RatioOfCargoManifestDateController--><path codeLine="27" d="M123.5,55.04 C123.5,72.74 123.5,97.49 123.5,117.69 " fill="none" id="RatioOfCargoManifestDateUI-to-RatioOfCargoManifestDateController" style="stroke:#A80036;stroke-width:1.0;stroke-dasharray:7.0,7.0;"/><polygon fill="#A80036" points="123.5,122.72,127.5,113.72,123.5,117.72,119.5,113.72,123.5,122.72" style="stroke:#A80036;stroke-width:1.0;"/><!--MD5=[d50a54cfb45041cf526e49054f0ec943]
@startuml
'https://plantuml.com/sequence-diagram
class RatioOfCargoManifestDateUI {}

class RatioOfCargoManifestDateController{
+ createUS207(mmsiCode, actualDate)
}


class US209 {
- initialize(mmsiCode, actualDate)
+ toString()

}

class WriteForAFile{
+ writeForAFiLe(textualInformation)

}



RatioOfCargoManifestDateController -> US209
US209 - -> WriteForAFile : uses



RatioOfCargoManifestDateUI ..> RatioOfCargoManifestDateController















@enduml

@startuml
class RatioOfCargoManifestDateUI {}

class RatioOfCargoManifestDateController{
+ createUS207(mmsiCode, actualDate)
}


class US209 {
- initialize(mmsiCode, actualDate)
+ toString()

}

class WriteForAFile{
+ writeForAFiLe(textualInformation)

}



RatioOfCargoManifestDateController -> US209
US209 - -> WriteForAFile : uses



RatioOfCargoManifestDateUI ..> RatioOfCargoManifestDateController















@enduml

PlantUML version 1.2021.11(Sat Oct 02 14:26:11 BST 2021)
(GPL source distribution)
Java Runtime: OpenJDK Runtime Environment
JVM: OpenJDK 64-Bit Server VM
Default Encoding: Cp1252
Language: pt
Country: PT
--></g></svg>