<?xml version="1.0" encoding="UTF-8" standalone="no"?><svg xmlns="http://www.w3.org/2000/svg" xmlns:xlink="http://www.w3.org/1999/xlink" contentScriptType="application/ecmascript" contentStyleType="text/css" height="677px" preserveAspectRatio="none" style="width:1103px;height:677px;background:#FFFFFF;" version="1.1" viewBox="0 0 1103 677" width="1103px" zoomAndPan="magnify"><defs><filter height="300%" id="funsld6o0gm8p" width="300%" x="-1" y="-1"><feGaussianBlur result="blurOut" stdDeviation="2.0"/><feColorMatrix in="blurOut" result="blurOut2" type="matrix" values="0 0 0 0 0 0 0 0 0 0 0 0 0 0 0 0 0 0 .4 0"/><feOffset dx="4.0" dy="4.0" in="blurOut2" result="blurOut3"/><feBlend in="SourceGraphic" in2="blurOut3" mode="normal"/></filter></defs><g><rect fill="#FFFFFF" filter="url(#funsld6o0gm8p)" height="474.4766" style="stroke:#A80036;stroke-width:1.0;" width="10" x="43.5" y="99.6094"/><rect fill="#FFFFFF" filter="url(#funsld6o0gm8p)" height="30.3516" style="stroke:#A80036;stroke-width:1.0;" width="10" x="343.5" y="138.3125"/><rect fill="#FFFFFF" filter="url(#funsld6o0gm8p)" height="60.3516" style="stroke:#A80036;stroke-width:1.0;" width="10" x="343.5" y="199.0156"/><rect fill="#FFFFFF" filter="url(#funsld6o0gm8p)" height="284.3672" style="stroke:#A80036;stroke-width:1.0;" width="10" x="343.5" y="289.7188"/><rect fill="#FFFFFF" filter="url(#funsld6o0gm8p)" height="223.6641" style="stroke:#A80036;stroke-width:1.0;" width="10" x="587.5" y="320.0703"/><rect fill="#FFFFFF" filter="url(#funsld6o0gm8p)" height="138.7031" style="stroke:#A80036;stroke-width:1.0;" width="10" x="826.5" y="405.0313"/><rect fill="#FFFFFF" filter="url(#funsld6o0gm8p)" height="28" style="stroke:#A80036;stroke-width:1.0;" width="10" x="831.5" y="448.3828"/><rect fill="#FFFFFF" filter="url(#funsld6o0gm8p)" height="30" style="stroke:#A80036;stroke-width:1.0;" width="10" x="1031.5" y="513.7344"/><line style="stroke:#A80036;stroke-width:1.0;stroke-dasharray:5.0,5.0;" x1="48" x2="48" y1="89.6094" y2="592.0859"/><line style="stroke:#A80036;stroke-width:1.0;stroke-dasharray:5.0,5.0;" x1="348.5" x2="348.5" y1="89.6094" y2="592.0859"/><line style="stroke:#A80036;stroke-width:1.0;stroke-dasharray:5.0,5.0;" x1="592.5" x2="592.5" y1="89.6094" y2="592.0859"/><line style="stroke:#A80036;stroke-width:1.0;stroke-dasharray:5.0,5.0;" x1="831.5" x2="831.5" y1="361.375" y2="592.0859"/><line style="stroke:#A80036;stroke-width:1.0;stroke-dasharray:5.0,5.0;" x1="1036" x2="1036" y1="89.6094" y2="592.0859"/><text fill="#000000" font-family="sans-serif" font-size="14" lengthAdjust="spacing" textLength="81" x="5" y="86.5332">Ship Captain</text><ellipse cx="48.5" cy="15" fill="#FEFECE" filter="url(#funsld6o0gm8p)" rx="8" ry="8" style="stroke:#A80036;stroke-width:2.0;"/><path d="M48.5,23 L48.5,50 M35.5,31 L61.5,31 M48.5,50 L35.5,65 M48.5,50 L61.5,65 " fill="none" filter="url(#funsld6o0gm8p)" style="stroke:#A80036;stroke-width:2.0;"/><text fill="#000000" font-family="sans-serif" font-size="14" lengthAdjust="spacing" textLength="81" x="5" y="605.6191">Ship Captain</text><ellipse cx="48.5" cy="618.6953" fill="#FEFECE" filter="url(#funsld6o0gm8p)" rx="8" ry="8" style="stroke:#A80036;stroke-width:2.0;"/><path d="M48.5,626.6953 L48.5,653.6953 M35.5,634.6953 L61.5,634.6953 M48.5,653.6953 L35.5,668.6953 M48.5,653.6953 L61.5,668.6953 " fill="none" filter="url(#funsld6o0gm8p)" style="stroke:#A80036;stroke-width:2.0;"/><rect fill="#FEFECE" filter="url(#funsld6o0gm8p)" height="31.6094" style="stroke:#A80036;stroke-width:1.5;" width="204" x="244.5" y="53"/><text fill="#000000" font-family="sans-serif" font-size="14" lengthAdjust="spacing" textLength="190" x="251.5" y="74.5332">: RatioOfCargoManifestDateUI</text><rect fill="#FEFECE" filter="url(#funsld6o0gm8p)" height="31.6094" style="stroke:#A80036;stroke-width:1.5;" width="204" x="244.5" y="591.0859"/><text fill="#000000" font-family="sans-serif" font-size="14" lengthAdjust="spacing" textLength="190" x="251.5" y="612.6191">: RatioOfCargoManifestDateUI</text><rect fill="#FEFECE" filter="url(#funsld6o0gm8p)" height="31.6094" style="stroke:#A80036;stroke-width:1.5;" width="254" x="463.5" y="53"/><text fill="#000000" font-family="sans-serif" font-size="14" lengthAdjust="spacing" textLength="240" x="470.5" y="74.5332">: RatioOfCargoManifestDateController</text><rect fill="#FEFECE" filter="url(#funsld6o0gm8p)" height="31.6094" style="stroke:#A80036;stroke-width:1.5;" width="254" x="463.5" y="591.0859"/><text fill="#000000" font-family="sans-serif" font-size="14" lengthAdjust="spacing" textLength="240" x="470.5" y="612.6191">: RatioOfCargoManifestDateController</text><rect fill="#FEFECE" filter="url(#funsld6o0gm8p)" height="31.6094" style="stroke:#A80036;stroke-width:1.5;" width="64" x="797.5" y="591.0859"/><text fill="#000000" font-family="sans-serif" font-size="14" lengthAdjust="spacing" textLength="50" x="804.5" y="612.6191">: US209</text><rect fill="#FEFECE" filter="url(#funsld6o0gm8p)" height="31.6094" style="stroke:#A80036;stroke-width:1.5;" width="109" x="980" y="53"/><text fill="#000000" font-family="sans-serif" font-size="14" lengthAdjust="spacing" textLength="95" x="987" y="74.5332">: WriteForAFile</text><rect fill="#FEFECE" filter="url(#funsld6o0gm8p)" height="31.6094" style="stroke:#A80036;stroke-width:1.5;" width="109" x="980" y="591.0859"/><text fill="#000000" font-family="sans-serif" font-size="14" lengthAdjust="spacing" textLength="95" x="987" y="612.6191">: WriteForAFile</text><rect fill="#FFFFFF" filter="url(#funsld6o0gm8p)" height="474.4766" style="stroke:#A80036;stroke-width:1.0;" width="10" x="43.5" y="99.6094"/><rect fill="#FFFFFF" filter="url(#funsld6o0gm8p)" height="30.3516" style="stroke:#A80036;stroke-width:1.0;" width="10" x="343.5" y="138.3125"/><rect fill="#FFFFFF" filter="url(#funsld6o0gm8p)" height="60.3516" style="stroke:#A80036;stroke-width:1.0;" width="10" x="343.5" y="199.0156"/><rect fill="#FFFFFF" filter="url(#funsld6o0gm8p)" height="284.3672" style="stroke:#A80036;stroke-width:1.0;" width="10" x="343.5" y="289.7188"/><rect fill="#FFFFFF" filter="url(#funsld6o0gm8p)" height="223.6641" style="stroke:#A80036;stroke-width:1.0;" width="10" x="587.5" y="320.0703"/><rect fill="#FFFFFF" filter="url(#funsld6o0gm8p)" height="138.7031" style="stroke:#A80036;stroke-width:1.0;" width="10" x="826.5" y="405.0313"/><rect fill="#FFFFFF" filter="url(#funsld6o0gm8p)" height="28" style="stroke:#A80036;stroke-width:1.0;" width="10" x="831.5" y="448.3828"/><rect fill="#FFFFFF" filter="url(#funsld6o0gm8p)" height="30" style="stroke:#A80036;stroke-width:1.0;" width="10" x="1031.5" y="513.7344"/><polygon fill="#A80036" points="331.5,134.3125,341.5,138.3125,331.5,142.3125,335.5,138.3125" style="stroke:#A80036;stroke-width:1.0;"/><line style="stroke:#A80036;stroke-width:1.0;" x1="53.5" x2="337.5" y1="138.3125" y2="138.3125"/><text fill="#000000" font-family="sans-serif" font-size="13" lengthAdjust="spacing" textLength="235" x="60.5" y="117.1045">starts the requisition of the ratio between</text><text fill="#000000" font-family="sans-serif" font-size="13" lengthAdjust="spacing" textLength="267" x="64.5" y="133.4561">number of container and the capacity of a ship</text><polygon fill="#A80036" points="64.5,164.6641,54.5,168.6641,64.5,172.6641,60.5,168.6641" style="stroke:#A80036;stroke-width:1.0;"/><line style="stroke:#A80036;stroke-width:1.0;stroke-dasharray:2.0,2.0;" x1="58.5" x2="347.5" y1="168.6641" y2="168.6641"/><text fill="#000000" font-family="sans-serif" font-size="13" lengthAdjust="spacing" textLength="182" x="70.5" y="163.8076">asks the mmsi code of the ship</text><polygon fill="#A80036" points="331.5,195.0156,341.5,199.0156,331.5,203.0156,335.5,199.0156" style="stroke:#A80036;stroke-width:1.0;"/><line style="stroke:#A80036;stroke-width:1.0;" x1="53.5" x2="337.5" y1="199.0156" y2="199.0156"/><text fill="#000000" font-family="sans-serif" font-size="13" lengthAdjust="spacing" textLength="179" x="60.5" y="194.1592">type the mmsi code of the ship</text><polygon fill="#A80036" points="64.5,255.3672,54.5,259.3672,64.5,263.3672,60.5,259.3672" style="stroke:#A80036;stroke-width:1.0;"/><line style="stroke:#A80036;stroke-width:1.0;stroke-dasharray:2.0,2.0;" x1="58.5" x2="347.5" y1="259.3672" y2="259.3672"/><text fill="#000000" font-family="sans-serif" font-size="13" lengthAdjust="spacing" textLength="72" x="70.5" y="254.5107">ask the date</text><polygon fill="#A80036" points="331.5,285.7188,341.5,289.7188,331.5,293.7188,335.5,289.7188" style="stroke:#A80036;stroke-width:1.0;"/><line style="stroke:#A80036;stroke-width:1.0;" x1="53.5" x2="337.5" y1="289.7188" y2="289.7188"/><text fill="#000000" font-family="sans-serif" font-size="13" lengthAdjust="spacing" textLength="76" x="60.5" y="284.8623">type the date</text><polygon fill="#A80036" points="575.5,316.0703,585.5,320.0703,575.5,324.0703,579.5,320.0703" style="stroke:#A80036;stroke-width:1.0;"/><line style="stroke:#A80036;stroke-width:1.0;" x1="353.5" x2="581.5" y1="320.0703" y2="320.0703"/><text fill="#000000" font-family="sans-serif" font-size="13" lengthAdjust="spacing" textLength="215" x="360.5" y="315.2139">createUS209(actualDate, mmsiCode)</text><polygon fill="#A80036" points="785.5,346.4219,795.5,350.4219,785.5,354.4219,789.5,350.4219" style="stroke:#A80036;stroke-width:1.0;"/><line style="stroke:#A80036;stroke-width:1.0;" x1="597.5" x2="791.5" y1="350.4219" y2="350.4219"/><text fill="#000000" font-family="sans-serif" font-size="13" lengthAdjust="spacing" textLength="176" x="604.5" y="345.5654">create(actualDate, mmsiCode)</text><rect fill="#FEFECE" filter="url(#funsld6o0gm8p)" height="31.6094" style="stroke:#A80036;stroke-width:1.5;" width="64" x="797.5" y="328.0703"/><text fill="#000000" font-family="sans-serif" font-size="14" lengthAdjust="spacing" textLength="50" x="804.5" y="349.6035">: US209</text><line style="stroke:#A80036;stroke-width:1.0;" x1="831.5" x2="878.5" y1="392.0313" y2="392.0313"/><line style="stroke:#A80036;stroke-width:1.0;" x1="878.5" x2="878.5" y1="392.0313" y2="405.0313"/><line style="stroke:#A80036;stroke-width:1.0;" x1="837.5" x2="878.5" y1="405.0313" y2="405.0313"/><polygon fill="#A80036" points="847.5,401.0313,837.5,405.0313,847.5,409.0313,843.5,405.0313" style="stroke:#A80036;stroke-width:1.0;"/><text fill="#000000" font-family="sans-serif" font-size="13" lengthAdjust="spacing" textLength="191" x="843.5" y="387.1748">initialize (actualDate, mmsiCode)</text><line style="stroke:#A80036;stroke-width:1.0;" x1="841.5" x2="883.5" y1="440.3828" y2="440.3828"/><line style="stroke:#A80036;stroke-width:1.0;" x1="883.5" x2="883.5" y1="440.3828" y2="453.3828"/><line style="stroke:#A80036;stroke-width:1.0;" x1="842.5" x2="883.5" y1="453.3828" y2="453.3828"/><polygon fill="#A80036" points="852.5,449.3828,842.5,453.3828,852.5,457.3828,848.5,453.3828" style="stroke:#A80036;stroke-width:1.0;"/><text fill="#000000" font-family="sans-serif" font-size="13" lengthAdjust="spacing" textLength="132" x="848.5" y="435.5264">information = toString()</text><polygon fill="#A80036" points="1019.5,509.7344,1029.5,513.7344,1019.5,517.7344,1023.5,513.7344" style="stroke:#A80036;stroke-width:1.0;"/><line style="stroke:#A80036;stroke-width:1.0;" x1="836.5" x2="1025.5" y1="513.7344" y2="513.7344"/><text fill="#000000" font-family="sans-serif" font-size="13" lengthAdjust="spacing" textLength="151" x="843.5" y="508.8779">WriteForAFile(information)</text><polygon fill="#A80036" points="59.5,570.0859,49.5,574.0859,59.5,578.0859,55.5,574.0859" style="stroke:#A80036;stroke-width:1.0;"/><line style="stroke:#A80036;stroke-width:1.0;stroke-dasharray:2.0,2.0;" x1="53.5" x2="347.5" y1="574.0859" y2="574.0859"/><text fill="#000000" font-family="sans-serif" font-size="13" lengthAdjust="spacing" textLength="182" x="65.5" y="569.2295">show the ratio in the date typed</text><!--MD5=[0aaeb9863d204226ae1775ca74ef2e86]
@startuml
'https://plantuml.com/sequence-diagram

actor "Ship Captain" as SC
participant ": RatioOfCargoManifestDateUI" as UI
participant ": RatioOfCargoManifestDateController" as CT
participant ": US209" as US
participant ": WriteForAFile" as WF



activate SC
SC->UI : starts the requisition of the ratio between\n number of container and the capacity of a ship
activate UI

UI - -> SC : asks the mmsi code of the ship
deactivate UI
SC -> UI : type the mmsi code of the ship
activate UI


deactivate CT
UI- ->SC : ask the date
deactivate UI

SC -> UI : type the date
activate UI
UI-> CT : createUS209(actualDate, mmsiCode)

activate CT
CT -> US** : create(actualDate, mmsiCode)
US -> US : initialize (actualDate, mmsiCode)
activate US
US -> US : information = toString()
activate US
deactivate US
US -> WF : WriteForAFile(information)
activate WF
deactivate WF


deactivate US
deactivate CT
UI - ->SC : show the ratio in the date typed
deactivate UI

deactivate SC
@enduml

@startuml

actor "Ship Captain" as SC
participant ": RatioOfCargoManifestDateUI" as UI
participant ": RatioOfCargoManifestDateController" as CT
participant ": US209" as US
participant ": WriteForAFile" as WF



activate SC
SC->UI : starts the requisition of the ratio between\n number of container and the capacity of a ship
activate UI

UI - -> SC : asks the mmsi code of the ship
deactivate UI
SC -> UI : type the mmsi code of the ship
activate UI


deactivate CT
UI- ->SC : ask the date
deactivate UI

SC -> UI : type the date
activate UI
UI-> CT : createUS209(actualDate, mmsiCode)

activate CT
CT -> US** : create(actualDate, mmsiCode)
US -> US : initialize (actualDate, mmsiCode)
activate US
US -> US : information = toString()
activate US
deactivate US
US -> WF : WriteForAFile(information)
activate WF
deactivate WF


deactivate US
deactivate CT
UI - ->SC : show the ratio in the date typed
deactivate UI

deactivate SC
@enduml

PlantUML version 1.2021.11(Sat Oct 02 14:26:11 BST 2021)
(GPL source distribution)
Java Runtime: OpenJDK Runtime Environment
JVM: OpenJDK 64-Bit Server VM
Default Encoding: Cp1252
Language: pt
Country: PT
--></g></svg>