<?xml version="1.0" encoding="UTF-8" standalone="no"?><svg xmlns="http://www.w3.org/2000/svg" xmlns:xlink="http://www.w3.org/1999/xlink" contentScriptType="application/ecmascript" contentStyleType="text/css" height="526px" preserveAspectRatio="none" style="width:932px;height:526px;background:#FFFFFF;" version="1.1" viewBox="0 0 932 526" width="932px" zoomAndPan="magnify"><defs><filter height="300%" id="f1tz7h8qqpvcy8" width="300%" x="-1" y="-1"><feGaussianBlur result="blurOut" stdDeviation="2.0"/><feColorMatrix in="blurOut" result="blurOut2" type="matrix" values="0 0 0 0 0 0 0 0 0 0 0 0 0 0 0 0 0 0 .4 0"/><feOffset dx="4.0" dy="4.0" in="blurOut2" result="blurOut3"/><feBlend in="SourceGraphic" in2="blurOut3" mode="normal"/></filter></defs><g><rect fill="#FFFFFF" filter="url(#f1tz7h8qqpvcy8)" height="323.0703" style="stroke:#A80036;stroke-width:1.0;" width="10" x="49" y="99.6094"/><rect fill="#FFFFFF" filter="url(#f1tz7h8qqpvcy8)" height="284.3672" style="stroke:#A80036;stroke-width:1.0;" width="10" x="377" y="138.3125"/><rect fill="#FFFFFF" filter="url(#f1tz7h8qqpvcy8)" height="263.0156" style="stroke:#A80036;stroke-width:1.0;" width="10" x="503" y="168.6641"/><rect fill="#FFFFFF" filter="url(#f1tz7h8qqpvcy8)" height="138.7031" style="stroke:#A80036;stroke-width:1.0;" width="10" x="647.5" y="253.625"/><rect fill="#FFFFFF" filter="url(#f1tz7h8qqpvcy8)" height="28" style="stroke:#A80036;stroke-width:1.0;" width="10" x="652.5" y="296.9766"/><rect fill="#FFFFFF" filter="url(#f1tz7h8qqpvcy8)" height="30" style="stroke:#A80036;stroke-width:1.0;" width="10" x="862.5" y="362.3281"/><line style="stroke:#A80036;stroke-width:1.0;stroke-dasharray:5.0,5.0;" x1="54" x2="54" y1="89.6094" y2="440.6797"/><line style="stroke:#A80036;stroke-width:1.0;stroke-dasharray:5.0,5.0;" x1="381.5" x2="381.5" y1="89.6094" y2="440.6797"/><line style="stroke:#A80036;stroke-width:1.0;stroke-dasharray:5.0,5.0;" x1="507.5" x2="507.5" y1="89.6094" y2="440.6797"/><line style="stroke:#A80036;stroke-width:1.0;stroke-dasharray:5.0,5.0;" x1="652.5" x2="652.5" y1="209.9688" y2="440.6797"/><line style="stroke:#A80036;stroke-width:1.0;stroke-dasharray:5.0,5.0;" x1="867" x2="867" y1="89.6094" y2="440.6797"/><text fill="#000000" font-family="sans-serif" font-size="14" lengthAdjust="spacing" textLength="92" x="5" y="86.5332">Fleet Manager</text><ellipse cx="54" cy="15" fill="#FEFECE" filter="url(#f1tz7h8qqpvcy8)" rx="8" ry="8" style="stroke:#A80036;stroke-width:2.0;"/><path d="M54,23 L54,50 M41,31 L67,31 M54,50 L41,65 M54,50 L67,65 " fill="none" filter="url(#f1tz7h8qqpvcy8)" style="stroke:#A80036;stroke-width:2.0;"/><text fill="#000000" font-family="sans-serif" font-size="14" lengthAdjust="spacing" textLength="92" x="5" y="454.2129">Fleet Manager</text><ellipse cx="54" cy="467.2891" fill="#FEFECE" filter="url(#f1tz7h8qqpvcy8)" rx="8" ry="8" style="stroke:#A80036;stroke-width:2.0;"/><path d="M54,475.2891 L54,502.2891 M41,483.2891 L67,483.2891 M54,502.2891 L41,517.2891 M54,502.2891 L67,517.2891 " fill="none" filter="url(#f1tz7h8qqpvcy8)" style="stroke:#A80036;stroke-width:2.0;"/><rect fill="#FEFECE" filter="url(#f1tz7h8qqpvcy8)" height="31.6094" style="stroke:#A80036;stroke-width:1.5;" width="87" x="336.5" y="53"/><text fill="#000000" font-family="sans-serif" font-size="14" lengthAdjust="spacing" textLength="73" x="343.5" y="74.5332">:ShipsIdleUI</text><rect fill="#FEFECE" filter="url(#f1tz7h8qqpvcy8)" height="31.6094" style="stroke:#A80036;stroke-width:1.5;" width="87" x="336.5" y="439.6797"/><text fill="#000000" font-family="sans-serif" font-size="14" lengthAdjust="spacing" textLength="73" x="343.5" y="461.2129">:ShipsIdleUI</text><rect fill="#FEFECE" filter="url(#f1tz7h8qqpvcy8)" height="31.6094" style="stroke:#A80036;stroke-width:1.5;" width="137" x="437.5" y="53"/><text fill="#000000" font-family="sans-serif" font-size="14" lengthAdjust="spacing" textLength="123" x="444.5" y="74.5332">:ShipsIdleController</text><rect fill="#FEFECE" filter="url(#f1tz7h8qqpvcy8)" height="31.6094" style="stroke:#A80036;stroke-width:1.5;" width="137" x="437.5" y="439.6797"/><text fill="#000000" font-family="sans-serif" font-size="14" lengthAdjust="spacing" textLength="123" x="444.5" y="461.2129">:ShipsIdleController</text><rect fill="#FEFECE" filter="url(#f1tz7h8qqpvcy8)" height="31.6094" style="stroke:#A80036;stroke-width:1.5;" width="124" x="588.5" y="439.6797"/><text fill="#000000" font-family="sans-serif" font-size="14" lengthAdjust="spacing" textLength="110" x="595.5" y="461.2129">:ShipsIdleHandler</text><rect fill="#FEFECE" filter="url(#f1tz7h8qqpvcy8)" height="31.6094" style="stroke:#A80036;stroke-width:1.5;" width="105" x="813" y="53"/><text fill="#000000" font-family="sans-serif" font-size="14" lengthAdjust="spacing" textLength="91" x="820" y="74.5332">:WriteForAFile</text><rect fill="#FEFECE" filter="url(#f1tz7h8qqpvcy8)" height="31.6094" style="stroke:#A80036;stroke-width:1.5;" width="105" x="813" y="439.6797"/><text fill="#000000" font-family="sans-serif" font-size="14" lengthAdjust="spacing" textLength="91" x="820" y="461.2129">:WriteForAFile</text><rect fill="#FFFFFF" filter="url(#f1tz7h8qqpvcy8)" height="323.0703" style="stroke:#A80036;stroke-width:1.0;" width="10" x="49" y="99.6094"/><rect fill="#FFFFFF" filter="url(#f1tz7h8qqpvcy8)" height="284.3672" style="stroke:#A80036;stroke-width:1.0;" width="10" x="377" y="138.3125"/><rect fill="#FFFFFF" filter="url(#f1tz7h8qqpvcy8)" height="263.0156" style="stroke:#A80036;stroke-width:1.0;" width="10" x="503" y="168.6641"/><rect fill="#FFFFFF" filter="url(#f1tz7h8qqpvcy8)" height="138.7031" style="stroke:#A80036;stroke-width:1.0;" width="10" x="647.5" y="253.625"/><rect fill="#FFFFFF" filter="url(#f1tz7h8qqpvcy8)" height="28" style="stroke:#A80036;stroke-width:1.0;" width="10" x="652.5" y="296.9766"/><rect fill="#FFFFFF" filter="url(#f1tz7h8qqpvcy8)" height="30" style="stroke:#A80036;stroke-width:1.0;" width="10" x="862.5" y="362.3281"/><polygon fill="#A80036" points="365,134.3125,375,138.3125,365,142.3125,369,138.3125" style="stroke:#A80036;stroke-width:1.0;"/><line style="stroke:#A80036;stroke-width:1.0;" x1="59" x2="371" y1="138.3125" y2="138.3125"/><text fill="#000000" font-family="sans-serif" font-size="13" lengthAdjust="spacing" textLength="299" x="66" y="117.1045">requests to know the number of days each ship has</text><text fill="#000000" font-family="sans-serif" font-size="13" lengthAdjust="spacing" textLength="277" x="66" y="133.4561">been idle since the beginning of the current year</text><polygon fill="#A80036" points="491,164.6641,501,168.6641,491,172.6641,495,168.6641" style="stroke:#A80036;stroke-width:1.0;"/><line style="stroke:#A80036;stroke-width:1.0;" x1="387" x2="497" y1="168.6641" y2="168.6641"/><text fill="#000000" font-family="sans-serif" font-size="13" lengthAdjust="spacing" textLength="83" x="394" y="163.8076">createUS404()</text><polygon fill="#A80036" points="576.5,195.0156,586.5,199.0156,576.5,203.0156,580.5,199.0156" style="stroke:#A80036;stroke-width:1.0;"/><line style="stroke:#A80036;stroke-width:1.0;" x1="513" x2="582.5" y1="199.0156" y2="199.0156"/><text fill="#000000" font-family="sans-serif" font-size="13" lengthAdjust="spacing" textLength="44" x="520" y="194.1592">create()</text><rect fill="#FEFECE" filter="url(#f1tz7h8qqpvcy8)" height="31.6094" style="stroke:#A80036;stroke-width:1.5;" width="124" x="588.5" y="176.6641"/><text fill="#000000" font-family="sans-serif" font-size="14" lengthAdjust="spacing" textLength="110" x="595.5" y="198.1973">:ShipsIdleHandler</text><line style="stroke:#A80036;stroke-width:1.0;" x1="652.5" x2="699.5" y1="240.625" y2="240.625"/><line style="stroke:#A80036;stroke-width:1.0;" x1="699.5" x2="699.5" y1="240.625" y2="253.625"/><line style="stroke:#A80036;stroke-width:1.0;" x1="658.5" x2="699.5" y1="253.625" y2="253.625"/><polygon fill="#A80036" points="668.5,249.625,658.5,253.625,668.5,257.625,664.5,253.625" style="stroke:#A80036;stroke-width:1.0;"/><text fill="#000000" font-family="sans-serif" font-size="13" lengthAdjust="spacing" textLength="55" x="664.5" y="235.7686">initialize()</text><line style="stroke:#A80036;stroke-width:1.0;" x1="662.5" x2="704.5" y1="288.9766" y2="288.9766"/><line style="stroke:#A80036;stroke-width:1.0;" x1="704.5" x2="704.5" y1="288.9766" y2="301.9766"/><line style="stroke:#A80036;stroke-width:1.0;" x1="663.5" x2="704.5" y1="301.9766" y2="301.9766"/><polygon fill="#A80036" points="673.5,297.9766,663.5,301.9766,673.5,305.9766,669.5,301.9766" style="stroke:#A80036;stroke-width:1.0;"/><text fill="#000000" font-family="sans-serif" font-size="13" lengthAdjust="spacing" textLength="171" x="669.5" y="284.1201">textualInformation = toString()</text><polygon fill="#A80036" points="850.5,358.3281,860.5,362.3281,850.5,366.3281,854.5,362.3281" style="stroke:#A80036;stroke-width:1.0;"/><line style="stroke:#A80036;stroke-width:1.0;" x1="657.5" x2="856.5" y1="362.3281" y2="362.3281"/><text fill="#000000" font-family="sans-serif" font-size="13" lengthAdjust="spacing" textLength="186" x="664.5" y="357.4717">writeForAFile(textualInformation)</text><polygon fill="#A80036" points="65,418.6797,55,422.6797,65,426.6797,61,422.6797" style="stroke:#A80036;stroke-width:1.0;"/><line style="stroke:#A80036;stroke-width:1.0;stroke-dasharray:2.0,2.0;" x1="59" x2="381" y1="422.6797" y2="422.6797"/><text fill="#000000" font-family="sans-serif" font-size="13" lengthAdjust="spacing" textLength="98" x="71" y="417.8232">receive the result</text><!--MD5=[4fe2bf36930ea83011530ac05183053d]
@startuml
'https://plantuml.com/sequence-diagram

actor "Fleet Manager" as FM
participant ":ShipsIdleUI" as UI
participant ":ShipsIdleController" as CT
participant ":ShipsIdleHandler" as US
participant ":WriteForAFile" as WF

activate FM
FM -> UI : requests to know the number of days each ship has\nbeen idle since the beginning of the current year
activate UI
UI->CT : createUS404()
activate CT
CT -> US** : create()
US -> US : initialize()
activate US
US->US : textualInformation = toString()
activate US
deactivate US
US -> WF : writeForAFile(textualInformation)
activate WF
deactivate WF
deactivate US

UI - -> FM : receive the result
deactivate UI
deactivate FM
@enduml

@startuml

actor "Fleet Manager" as FM
participant ":ShipsIdleUI" as UI
participant ":ShipsIdleController" as CT
participant ":ShipsIdleHandler" as US
participant ":WriteForAFile" as WF

activate FM
FM -> UI : requests to know the number of days each ship has\nbeen idle since the beginning of the current year
activate UI
UI->CT : createUS404()
activate CT
CT -> US** : create()
US -> US : initialize()
activate US
US->US : textualInformation = toString()
activate US
deactivate US
US -> WF : writeForAFile(textualInformation)
activate WF
deactivate WF
deactivate US

UI - -> FM : receive the result
deactivate UI
deactivate FM
@enduml

PlantUML version 1.2021.16(Wed Dec 08 17:25:22 GMT 2021)
(GPL source distribution)
Java Runtime: OpenJDK Runtime Environment
JVM: OpenJDK 64-Bit Server VM
Default Encoding: Cp1252
Language: pt
Country: BR
--></g></svg>