<?xml version="1.0" encoding="UTF-8" standalone="no"?><svg xmlns="http://www.w3.org/2000/svg" xmlns:xlink="http://www.w3.org/1999/xlink" contentScriptType="application/ecmascript" contentStyleType="text/css" height="385px" preserveAspectRatio="none" style="width:406px;height:385px;background:#FFFFFF;" version="1.1" viewBox="0 0 406 385" width="406px" zoomAndPan="magnify"><defs><filter height="300%" id="f1i8uezhyayhtn" width="300%" x="-1" y="-1"><feGaussianBlur result="blurOut" stdDeviation="2.0"/><feColorMatrix in="blurOut" result="blurOut2" type="matrix" values="0 0 0 0 0 0 0 0 0 0 0 0 0 0 0 0 0 0 .4 0"/><feOffset dx="4.0" dy="4.0" in="blurOut2" result="blurOut3"/><feBlend in="SourceGraphic" in2="blurOut3" mode="normal"/></filter></defs><g><!--MD5=[0dc7f2ddb409b58bcf52b12238c25399]
class Ship--><rect codeLine="6" fill="#FEFECE" filter="url(#f1i8uezhyayhtn)" height="192.1953" id="Ship" style="stroke:#A80036;stroke-width:1.5;" width="141" x="7" y="7"/><ellipse cx="60.75" cy="23" fill="#ADD1B2" rx="11" ry="11" style="stroke:#A80036;stroke-width:1.0;"/><path d="M62.75,19.5 Q62.9531,19 63.1875,18.75 Q63.4219,18.5 63.6875,18.5 Q64.1563,18.5 64.4531,18.7813 Q64.75,19.0625 64.75,19.7188 L64.75,21.2813 Q64.75,21.9375 64.4688,22.2188 Q64.1875,22.5 63.75,22.5 Q63.3594,22.5 63.1094,22.3281 Q62.8594,22.1563 62.75,21.7031 Q62.7031,21.3906 62.5313,21.2188 Q62.2188,20.8906 61.6563,20.7031 Q61.0938,20.5 60.5313,20.5 Q59.8281,20.5 59.2344,20.7813 Q58.6563,21.0625 58.2031,21.6875 Q57.75,22.3125 57.75,23.1719 L57.75,24.0938 Q57.75,25.125 58.5938,25.8125 Q59.4375,26.5 60.9375,26.5 Q61.8281,26.5 62.4531,26.2969 Q62.8125,26.1875 63.2188,25.8281 Q63.4844,25.625 63.625,25.5625 Q63.7656,25.5 63.9375,25.5 Q64.2656,25.5 64.5,25.7656 Q64.75,26.0156 64.75,26.375 Q64.75,26.7188 64.4063,27.125 Q63.9063,27.7188 63.1094,28.0469 Q62.0625,28.5 60.7813,28.5 Q59.2813,28.5 58.0781,27.9063 Q57.1094,27.4375 56.4219,26.4219 Q55.75,25.4063 55.75,24.2031 L55.75,23.1094 Q55.75,21.8594 56.3438,20.7656 Q56.9531,19.6719 58,19.0938 Q59.0625,18.5 60.25,18.5 Q60.9688,18.5 61.5938,18.75 Q62.2188,19 62.75,19.5 Z " fill="#000000"/><text fill="#000000" font-family="sans-serif" font-size="12" lengthAdjust="spacing" textLength="25" x="81.25" y="27.9102">Ship</text><line style="stroke:#A80036;stroke-width:1.5;" x1="8" x2="147" y1="39" y2="39"/><text fill="#000000" font-family="sans-serif" font-size="11" lengthAdjust="spacing" textLength="53" x="13" y="54.4189">-mmsiCode</text><text fill="#000000" font-family="sans-serif" font-size="11" lengthAdjust="spacing" textLength="45" x="13" y="68.2549">-imoCode</text><text fill="#000000" font-family="sans-serif" font-size="11" lengthAdjust="spacing" textLength="129" x="13" y="82.0908">-numberEnergyGenerators</text><text fill="#000000" font-family="sans-serif" font-size="11" lengthAdjust="spacing" textLength="83" x="13" y="95.9268">-generatorPower</text><text fill="#000000" font-family="sans-serif" font-size="11" lengthAdjust="spacing" textLength="41" x="13" y="109.7627">-callSign</text><text fill="#000000" font-family="sans-serif" font-size="11" lengthAdjust="spacing" textLength="27" x="13" y="123.5986">-draft</text><text fill="#000000" font-family="sans-serif" font-size="11" lengthAdjust="spacing" textLength="30" x="13" y="137.4346">-name</text><text fill="#000000" font-family="sans-serif" font-size="11" lengthAdjust="spacing" textLength="68" x="13" y="151.2705">-vesselTypeId</text><text fill="#000000" font-family="sans-serif" font-size="11" lengthAdjust="spacing" textLength="33" x="13" y="165.1064">-length</text><text fill="#000000" font-family="sans-serif" font-size="11" lengthAdjust="spacing" textLength="31" x="13" y="178.9424">-width</text><text fill="#000000" font-family="sans-serif" font-size="11" lengthAdjust="spacing" textLength="45" x="13" y="192.7783">-capacity</text><!--MD5=[efa7c3600894dd6faaa8b816738c33b1]
class ShipLocation--><rect codeLine="20" fill="#FEFECE" filter="url(#f1i8uezhyayhtn)" height="150.6875" id="ShipLocation" style="stroke:#A80036;stroke-width:1.5;" width="104" x="288" y="27.5"/><ellipse cx="303" cy="43.5" fill="#ADD1B2" rx="11" ry="11" style="stroke:#A80036;stroke-width:1.0;"/><path d="M305,40 Q305.2031,39.5 305.4375,39.25 Q305.6719,39 305.9375,39 Q306.4063,39 306.7031,39.2813 Q307,39.5625 307,40.2188 L307,41.7813 Q307,42.4375 306.7188,42.7188 Q306.4375,43 306,43 Q305.6094,43 305.3594,42.8281 Q305.1094,42.6563 305,42.2031 Q304.9531,41.8906 304.7813,41.7188 Q304.4688,41.3906 303.9063,41.2031 Q303.3438,41 302.7813,41 Q302.0781,41 301.4844,41.2813 Q300.9063,41.5625 300.4531,42.1875 Q300,42.8125 300,43.6719 L300,44.5938 Q300,45.625 300.8438,46.3125 Q301.6875,47 303.1875,47 Q304.0781,47 304.7031,46.7969 Q305.0625,46.6875 305.4688,46.3281 Q305.7344,46.125 305.875,46.0625 Q306.0156,46 306.1875,46 Q306.5156,46 306.75,46.2656 Q307,46.5156 307,46.875 Q307,47.2188 306.6563,47.625 Q306.1563,48.2188 305.3594,48.5469 Q304.3125,49 303.0313,49 Q301.5313,49 300.3281,48.4063 Q299.3594,47.9375 298.6719,46.9219 Q298,45.9063 298,44.7031 L298,43.6094 Q298,42.3594 298.5938,41.2656 Q299.2031,40.1719 300.25,39.5938 Q301.3125,39 302.5,39 Q303.2188,39 303.8438,39.25 Q304.4688,39.5 305,40 Z " fill="#000000"/><text fill="#000000" font-family="sans-serif" font-size="12" lengthAdjust="spacing" textLength="72" x="317" y="48.4102">ShipLocation</text><line style="stroke:#A80036;stroke-width:1.5;" x1="289" x2="391" y1="59.5" y2="59.5"/><text fill="#000000" font-family="sans-serif" font-size="11" lengthAdjust="spacing" textLength="72" x="294" y="74.9189">-baseDateTime</text><text fill="#000000" font-family="sans-serif" font-size="11" lengthAdjust="spacing" textLength="38" x="294" y="88.7549">-latitude</text><text fill="#000000" font-family="sans-serif" font-size="11" lengthAdjust="spacing" textLength="47" x="294" y="102.5908">-longitude</text><text fill="#000000" font-family="sans-serif" font-size="11" lengthAdjust="spacing" textLength="22" x="294" y="116.4268">-sog</text><text fill="#000000" font-family="sans-serif" font-size="11" lengthAdjust="spacing" textLength="22" x="294" y="130.2627">-cog</text><text fill="#000000" font-family="sans-serif" font-size="11" lengthAdjust="spacing" textLength="42" x="294" y="144.0986">-heading</text><text fill="#000000" font-family="sans-serif" font-size="11" lengthAdjust="spacing" textLength="41" x="294" y="157.9346">-position</text><text fill="#000000" font-family="sans-serif" font-size="11" lengthAdjust="spacing" textLength="59" x="294" y="171.7705">-transceiver</text><!--MD5=[ea13aecf8df941b18fb8e3885c78c184]
class Ports--><rect codeLine="31" fill="#FEFECE" filter="url(#f1i8uezhyayhtn)" height="67.6719" id="Ports" style="stroke:#A80036;stroke-width:1.5;" width="76" x="302" y="241"/><ellipse cx="323.75" cy="257" fill="#ADD1B2" rx="11" ry="11" style="stroke:#A80036;stroke-width:1.0;"/><path d="M325.75,253.5 Q325.9531,253 326.1875,252.75 Q326.4219,252.5 326.6875,252.5 Q327.1563,252.5 327.4531,252.7813 Q327.75,253.0625 327.75,253.7188 L327.75,255.2813 Q327.75,255.9375 327.4688,256.2188 Q327.1875,256.5 326.75,256.5 Q326.3594,256.5 326.1094,256.3281 Q325.8594,256.1563 325.75,255.7031 Q325.7031,255.3906 325.5313,255.2188 Q325.2188,254.8906 324.6563,254.7031 Q324.0938,254.5 323.5313,254.5 Q322.8281,254.5 322.2344,254.7813 Q321.6563,255.0625 321.2031,255.6875 Q320.75,256.3125 320.75,257.1719 L320.75,258.0938 Q320.75,259.125 321.5938,259.8125 Q322.4375,260.5 323.9375,260.5 Q324.8281,260.5 325.4531,260.2969 Q325.8125,260.1875 326.2188,259.8281 Q326.4844,259.625 326.625,259.5625 Q326.7656,259.5 326.9375,259.5 Q327.2656,259.5 327.5,259.7656 Q327.75,260.0156 327.75,260.375 Q327.75,260.7188 327.4063,261.125 Q326.9063,261.7188 326.1094,262.0469 Q325.0625,262.5 323.7813,262.5 Q322.2813,262.5 321.0781,261.9063 Q320.1094,261.4375 319.4219,260.4219 Q318.75,259.4063 318.75,258.2031 L318.75,257.1094 Q318.75,255.8594 319.3438,254.7656 Q319.9531,253.6719 321,253.0938 Q322.0625,252.5 323.25,252.5 Q323.9688,252.5 324.5938,252.75 Q325.2188,253 325.75,253.5 Z " fill="#000000"/><text fill="#000000" font-family="sans-serif" font-size="12" lengthAdjust="spacing" textLength="29" x="339.25" y="261.9102">Ports</text><line style="stroke:#A80036;stroke-width:1.5;" x1="303" x2="377" y1="273" y2="273"/><text fill="#000000" font-family="sans-serif" font-size="11" lengthAdjust="spacing" textLength="64" x="308" y="288.4189">-identification</text><text fill="#000000" font-family="sans-serif" font-size="11" lengthAdjust="spacing" textLength="30" x="308" y="302.2549">-name</text><!--MD5=[76562047389981627aea27c31a97aff5]
class CargoManifest--><rect codeLine="36" fill="#FEFECE" filter="url(#f1i8uezhyayhtn)" height="136.8516" id="CargoManifest" style="stroke:#A80036;stroke-width:1.5;" width="116" x="19.5" y="234.5"/><ellipse cx="36.3" cy="250.5" fill="#ADD1B2" rx="11" ry="11" style="stroke:#A80036;stroke-width:1.0;"/><path d="M38.3,247 Q38.5031,246.5 38.7375,246.25 Q38.9719,246 39.2375,246 Q39.7063,246 40.0031,246.2813 Q40.3,246.5625 40.3,247.2188 L40.3,248.7813 Q40.3,249.4375 40.0188,249.7188 Q39.7375,250 39.3,250 Q38.9094,250 38.6594,249.8281 Q38.4094,249.6563 38.3,249.2031 Q38.2531,248.8906 38.0813,248.7188 Q37.7688,248.3906 37.2063,248.2031 Q36.6438,248 36.0813,248 Q35.3781,248 34.7844,248.2813 Q34.2063,248.5625 33.7531,249.1875 Q33.3,249.8125 33.3,250.6719 L33.3,251.5938 Q33.3,252.625 34.1438,253.3125 Q34.9875,254 36.4875,254 Q37.3781,254 38.0031,253.7969 Q38.3625,253.6875 38.7688,253.3281 Q39.0344,253.125 39.175,253.0625 Q39.3156,253 39.4875,253 Q39.8156,253 40.05,253.2656 Q40.3,253.5156 40.3,253.875 Q40.3,254.2188 39.9563,254.625 Q39.4563,255.2188 38.6594,255.5469 Q37.6125,256 36.3313,256 Q34.8313,256 33.6281,255.4063 Q32.6594,254.9375 31.9719,253.9219 Q31.3,252.9063 31.3,251.7031 L31.3,250.6094 Q31.3,249.3594 31.8937,248.2656 Q32.5031,247.1719 33.55,246.5938 Q34.6125,246 35.8,246 Q36.5188,246 37.1438,246.25 Q37.7688,246.5 38.3,247 Z " fill="#000000"/><text fill="#000000" font-family="sans-serif" font-size="12" lengthAdjust="spacing" textLength="80" x="50.7" y="255.4102">CargoManifest</text><line style="stroke:#A80036;stroke-width:1.5;" x1="20.5" x2="134.5" y1="266.5" y2="266.5"/><text fill="#000000" font-family="sans-serif" font-size="11" lengthAdjust="spacing" textLength="81" x="25.5" y="281.9189">-listOfContainers</text><text fill="#000000" font-family="sans-serif" font-size="11" lengthAdjust="spacing" textLength="25" x="25.5" y="295.7549">-ratio</text><text fill="#000000" font-family="sans-serif" font-size="11" lengthAdjust="spacing" textLength="25" x="25.5" y="309.5908">-date</text><text fill="#000000" font-family="sans-serif" font-size="11" lengthAdjust="spacing" textLength="53" x="25.5" y="323.4268">-mmsiCode</text><text fill="#000000" font-family="sans-serif" font-size="11" lengthAdjust="spacing" textLength="12" x="25.5" y="337.2627">-id</text><text fill="#000000" font-family="sans-serif" font-size="11" lengthAdjust="spacing" textLength="104" x="25.5" y="351.0986">-numberOfContainers</text><text fill="#000000" font-family="sans-serif" font-size="11" lengthAdjust="spacing" textLength="56" x="25.5" y="364.9346">-destination</text><!--MD5=[d729e47c8b99010fceb84b610067730f]
link CargoManifest to Ports--><path codeLine="46" d="M135.67,296.86 C186.14,291.43 258.26,283.68 301.66,279.01 " fill="none" id="CargoManifest-Ports" style="stroke:#A80036;stroke-width:1.0;"/><polygon fill="#000000" points="187.9713,274.6412,178.6639,272.6862,179.2923,278.5304,187.9713,274.6412" style="stroke:#000000;stroke-width:1.0;"/><text fill="#000000" font-family="sans-serif" font-size="13" lengthAdjust="spacing" textLength="65" x="192" y="280.4951">delivered at</text><text fill="#000000" font-family="sans-serif" font-size="13" lengthAdjust="spacing" textLength="5" x="143.4433" y="310.6255">*</text><text fill="#000000" font-family="sans-serif" font-size="13" lengthAdjust="spacing" textLength="7" x="286.9458" y="294.7821">1</text><!--MD5=[5541ef512584d1243c10a7f3b3317e1c]
link Ship to ShipLocation--><path codeLine="47" d="M148.31,103 C192.17,103 247.77,103 287.6,103 " fill="none" id="Ship-ShipLocation" style="stroke:#A80036;stroke-width:1.0;"/><polygon fill="#000000" points="210,94.1758,200.9549,91.2369,200.9549,97.1147,210,94.1758" style="stroke:#000000;stroke-width:1.0;"/><text fill="#000000" font-family="sans-serif" font-size="13" lengthAdjust="spacing" textLength="21" x="214" y="99.4951">has</text><text fill="#000000" font-family="sans-serif" font-size="13" lengthAdjust="spacing" textLength="7" x="155.9732" y="117.3282">1</text><text fill="#000000" font-family="sans-serif" font-size="13" lengthAdjust="spacing" textLength="20" x="259.995" y="117.5106">1..*</text><!--MD5=[b5e7d3b323f2cd13b2215620f50e65f3]
link Ship to Ports--><path codeLine="48" d="M148.31,149.09 C197.74,181.73 262.1,224.22 301.97,250.55 " fill="none" id="Ship-Ports" style="stroke:#A80036;stroke-width:1.0;"/><polygon fill="#000000" points="205.6725,167.9308,199.7438,160.4944,196.505,165.3994,205.6725,167.9308" style="stroke:#000000;stroke-width:1.0;"/><text fill="#000000" font-family="sans-serif" font-size="13" lengthAdjust="spacing" textLength="28" x="210.5" y="170.4951">dock</text><text fill="#000000" font-family="sans-serif" font-size="13" lengthAdjust="spacing" textLength="20" x="156.0122" y="167.748">0..*</text><text fill="#000000" font-family="sans-serif" font-size="13" lengthAdjust="spacing" textLength="7" x="287.0533" y="260.9741">1</text><!--MD5=[f6119c442ccc0d605fb519345779dfe2]
@startuml
'https://plantuml.com/sequence-diagram
hide methods
left to right direction
skinparam classAttributeIconSize 0

class Ship {
-mmsiCode
-imoCode
-numberEnergyGenerators
-generatorPower
-callSign
-draft
-name
-vesselTypeId
-length
-width
-capacity
}

class ShipLocation {
-baseDateTime
-latitude
-longitude
-sog
-cog
-heading
-position
-transceiver
}

class Ports {
-identification
-name
}

class CargoManifest {
-listOfContainers
-ratio
-date
-mmsiCode
-id
-numberOfContainers
-destination
}

CargoManifest "*" - - "1" Ports : delivered at >
Ship "1" - - "1..*" ShipLocation : has >
Ship "0..*"- -"1" Ports: dock >


@enduml

@startuml
hide methods
left to right direction
skinparam classAttributeIconSize 0

class Ship {
-mmsiCode
-imoCode
-numberEnergyGenerators
-generatorPower
-callSign
-draft
-name
-vesselTypeId
-length
-width
-capacity
}

class ShipLocation {
-baseDateTime
-latitude
-longitude
-sog
-cog
-heading
-position
-transceiver
}

class Ports {
-identification
-name
}

class CargoManifest {
-listOfContainers
-ratio
-date
-mmsiCode
-id
-numberOfContainers
-destination
}

CargoManifest "*" - - "1" Ports : delivered at >
Ship "1" - - "1..*" ShipLocation : has >
Ship "0..*"- -"1" Ports: dock >


@enduml

PlantUML version 1.2021.16(Wed Dec 08 17:25:22 GMT 2021)
(GPL source distribution)
Java Runtime: OpenJDK Runtime Environment
JVM: OpenJDK 64-Bit Server VM
Default Encoding: Cp1252
Language: pt
Country: BR
--></g></svg>