<?xml version="1.0" encoding="UTF-8" standalone="no"?><svg xmlns="http://www.w3.org/2000/svg" xmlns:xlink="http://www.w3.org/1999/xlink" contentScriptType="application/ecmascript" contentStyleType="text/css" height="561px" preserveAspectRatio="none" style="width:1317px;height:561px;background:#FFFFFF;" version="1.1" viewBox="0 0 1317 561" width="1317px" zoomAndPan="magnify"><defs><filter height="300%" id="fexg7fnqv5ifj" width="300%" x="-1" y="-1"><feGaussianBlur result="blurOut" stdDeviation="2.0"/><feColorMatrix in="blurOut" result="blurOut2" type="matrix" values="0 0 0 0 0 0 0 0 0 0 0 0 0 0 0 0 0 0 .4 0"/><feOffset dx="4.0" dy="4.0" in="blurOut2" result="blurOut3"/><feBlend in="SourceGraphic" in2="blurOut3" mode="normal"/></filter></defs><g><rect fill="#FFFFFF" filter="url(#fexg7fnqv5ifj)" height="358.4766" style="stroke:#A80036;stroke-width:1.0;" width="10" x="21" y="99.6094"/><rect fill="#FFFFFF" filter="url(#fexg7fnqv5ifj)" height="30.3516" style="stroke:#A80036;stroke-width:1.0;" width="10" x="281" y="138.3125"/><rect fill="#FFFFFF" filter="url(#fexg7fnqv5ifj)" height="259.0703" style="stroke:#A80036;stroke-width:1.0;" width="10" x="281" y="199.0156"/><rect fill="#FFFFFF" filter="url(#fexg7fnqv5ifj)" height="198.3672" style="stroke:#A80036;stroke-width:1.0;" width="10" x="598" y="229.3672"/><rect fill="#FFFFFF" filter="url(#fexg7fnqv5ifj)" height="91.0547" style="stroke:#A80036;stroke-width:1.0;" width="10" x="915" y="306.3281"/><rect fill="#FFFFFF" filter="url(#fexg7fnqv5ifj)" height="30.3516" style="stroke:#A80036;stroke-width:1.0;" width="10" x="1250" y="336.6797"/><line style="stroke:#A80036;stroke-width:1.0;stroke-dasharray:5.0,5.0;" x1="26" x2="26" y1="89.6094" y2="476.0859"/><line style="stroke:#A80036;stroke-width:1.0;stroke-dasharray:5.0,5.0;" x1="285.5" x2="285.5" y1="89.6094" y2="476.0859"/><line style="stroke:#A80036;stroke-width:1.0;stroke-dasharray:5.0,5.0;" x1="602.5" x2="602.5" y1="89.6094" y2="476.0859"/><line style="stroke:#A80036;stroke-width:1.0;stroke-dasharray:5.0,5.0;" x1="919.5" x2="919.5" y1="270.6719" y2="476.0859"/><line style="stroke:#A80036;stroke-width:1.0;stroke-dasharray:5.0,5.0;" x1="1254.5" x2="1254.5" y1="89.6094" y2="476.0859"/><text fill="#000000" font-family="sans-serif" font-size="14" lengthAdjust="spacing" textLength="36" x="5" y="86.5332">Client</text><ellipse cx="26" cy="15" fill="#FEFECE" filter="url(#fexg7fnqv5ifj)" rx="8" ry="8" style="stroke:#A80036;stroke-width:2.0;"/><path d="M26,23 L26,50 M13,31 L39,31 M26,50 L13,65 M26,50 L39,65 " fill="none" filter="url(#fexg7fnqv5ifj)" style="stroke:#A80036;stroke-width:2.0;"/><text fill="#000000" font-family="sans-serif" font-size="14" lengthAdjust="spacing" textLength="36" x="5" y="489.6191">Client</text><ellipse cx="26" cy="502.6953" fill="#FEFECE" filter="url(#fexg7fnqv5ifj)" rx="8" ry="8" style="stroke:#A80036;stroke-width:2.0;"/><path d="M26,510.6953 L26,537.6953 M13,518.6953 L39,518.6953 M26,537.6953 L13,552.6953 M26,537.6953 L39,552.6953 " fill="none" filter="url(#fexg7fnqv5ifj)" style="stroke:#A80036;stroke-width:2.0;"/><rect fill="#FEFECE" filter="url(#fexg7fnqv5ifj)" height="31.6094" style="stroke:#A80036;stroke-width:1.5;" width="199" x="184.5" y="53"/><text fill="#000000" font-family="sans-serif" font-size="14" lengthAdjust="spacing" textLength="185" x="191.5" y="74.5332">:FindContainerSituation312Ui</text><rect fill="#FEFECE" filter="url(#fexg7fnqv5ifj)" height="31.6094" style="stroke:#A80036;stroke-width:1.5;" width="199" x="184.5" y="475.0859"/><text fill="#000000" font-family="sans-serif" font-size="14" lengthAdjust="spacing" textLength="185" x="191.5" y="496.6191">:FindContainerSituation312Ui</text><rect fill="#FEFECE" filter="url(#fexg7fnqv5ifj)" height="31.6094" style="stroke:#A80036;stroke-width:1.5;" width="249" x="476.5" y="53"/><text fill="#000000" font-family="sans-serif" font-size="14" lengthAdjust="spacing" textLength="235" x="483.5" y="74.5332">:FindContainerSituation312Controller</text><rect fill="#FEFECE" filter="url(#fexg7fnqv5ifj)" height="31.6094" style="stroke:#A80036;stroke-width:1.5;" width="249" x="476.5" y="475.0859"/><text fill="#000000" font-family="sans-serif" font-size="14" lengthAdjust="spacing" textLength="235" x="483.5" y="496.6191">:FindContainerSituation312Controller</text><rect fill="#FEFECE" filter="url(#fexg7fnqv5ifj)" height="31.6094" style="stroke:#A80036;stroke-width:1.5;" width="105" x="865.5" y="475.0859"/><text fill="#000000" font-family="sans-serif" font-size="14" lengthAdjust="spacing" textLength="91" x="872.5" y="496.6191">US312Handler</text><rect fill="#FEFECE" filter="url(#fexg7fnqv5ifj)" height="31.6094" style="stroke:#A80036;stroke-width:1.5;" width="101" x="1202.5" y="53"/><text fill="#000000" font-family="sans-serif" font-size="14" lengthAdjust="spacing" textLength="87" x="1209.5" y="74.5332">WriteForAFile</text><rect fill="#FEFECE" filter="url(#fexg7fnqv5ifj)" height="31.6094" style="stroke:#A80036;stroke-width:1.5;" width="101" x="1202.5" y="475.0859"/><text fill="#000000" font-family="sans-serif" font-size="14" lengthAdjust="spacing" textLength="87" x="1209.5" y="496.6191">WriteForAFile</text><rect fill="#FFFFFF" filter="url(#fexg7fnqv5ifj)" height="358.4766" style="stroke:#A80036;stroke-width:1.0;" width="10" x="21" y="99.6094"/><rect fill="#FFFFFF" filter="url(#fexg7fnqv5ifj)" height="30.3516" style="stroke:#A80036;stroke-width:1.0;" width="10" x="281" y="138.3125"/><rect fill="#FFFFFF" filter="url(#fexg7fnqv5ifj)" height="259.0703" style="stroke:#A80036;stroke-width:1.0;" width="10" x="281" y="199.0156"/><rect fill="#FFFFFF" filter="url(#fexg7fnqv5ifj)" height="198.3672" style="stroke:#A80036;stroke-width:1.0;" width="10" x="598" y="229.3672"/><rect fill="#FFFFFF" filter="url(#fexg7fnqv5ifj)" height="91.0547" style="stroke:#A80036;stroke-width:1.0;" width="10" x="915" y="306.3281"/><rect fill="#FFFFFF" filter="url(#fexg7fnqv5ifj)" height="30.3516" style="stroke:#A80036;stroke-width:1.0;" width="10" x="1250" y="336.6797"/><polygon fill="#A80036" points="269,134.3125,279,138.3125,269,142.3125,273,138.3125" style="stroke:#A80036;stroke-width:1.0;"/><line style="stroke:#A80036;stroke-width:1.0;" x1="31" x2="275" y1="138.3125" y2="138.3125"/><text fill="#000000" font-family="sans-serif" font-size="13" font-weight="bold" lengthAdjust="spacing" textLength="7" x="38" y="125.2803">1</text><text fill="#000000" font-family="sans-serif" font-size="13" lengthAdjust="spacing" textLength="220" x="49" y="117.1045">Initiates the process to get the current</text><text fill="#000000" font-family="sans-serif" font-size="13" lengthAdjust="spacing" textLength="179" x="53" y="133.4561">situation of a specific container</text><polygon fill="#A80036" points="42,164.6641,32,168.6641,42,172.6641,38,168.6641" style="stroke:#A80036;stroke-width:1.0;"/><line style="stroke:#A80036;stroke-width:1.0;stroke-dasharray:2.0,2.0;" x1="36" x2="285" y1="168.6641" y2="168.6641"/><text fill="#000000" font-family="sans-serif" font-size="13" font-weight="bold" lengthAdjust="spacing" textLength="7" x="48" y="163.8076">2</text><text fill="#000000" font-family="sans-serif" font-size="13" lengthAdjust="spacing" textLength="190" x="59" y="163.8076">Request the e container identifier</text><polygon fill="#A80036" points="269,195.0156,279,199.0156,269,203.0156,273,199.0156" style="stroke:#A80036;stroke-width:1.0;"/><line style="stroke:#A80036;stroke-width:1.0;" x1="31" x2="275" y1="199.0156" y2="199.0156"/><text fill="#000000" font-family="sans-serif" font-size="13" font-weight="bold" lengthAdjust="spacing" textLength="7" x="38" y="194.1592">3</text><text fill="#000000" font-family="sans-serif" font-size="13" lengthAdjust="spacing" textLength="165" x="49" y="194.1592">Introduce the requested data</text><polygon fill="#A80036" points="586,225.3672,596,229.3672,586,233.3672,590,229.3672" style="stroke:#A80036;stroke-width:1.0;"/><line style="stroke:#A80036;stroke-width:1.0;" x1="291" x2="592" y1="229.3672" y2="229.3672"/><text fill="#000000" font-family="sans-serif" font-size="13" font-weight="bold" lengthAdjust="spacing" textLength="7" x="298" y="224.5107">4</text><text fill="#000000" font-family="sans-serif" font-size="13" lengthAdjust="spacing" textLength="277" x="309" y="224.5107">getContainerLocation(containerNumber, clientId)</text><polygon fill="#A80036" points="853.5,255.7188,863.5,259.7188,853.5,263.7188,857.5,259.7188" style="stroke:#A80036;stroke-width:1.0;"/><line style="stroke:#A80036;stroke-width:1.0;stroke-dasharray:2.0,2.0;" x1="608" x2="859.5" y1="259.7188" y2="259.7188"/><text fill="#000000" font-family="sans-serif" font-size="13" font-weight="bold" lengthAdjust="spacing" textLength="7" x="615" y="254.8623">5</text><text fill="#000000" font-family="sans-serif" font-size="13" lengthAdjust="spacing" textLength="44" x="626" y="254.8623">create()</text><rect fill="#FEFECE" filter="url(#fexg7fnqv5ifj)" height="31.6094" style="stroke:#A80036;stroke-width:1.5;" width="105" x="865.5" y="237.3672"/><text fill="#000000" font-family="sans-serif" font-size="14" lengthAdjust="spacing" textLength="91" x="872.5" y="258.9004">US312Handler</text><polygon fill="#A80036" points="903,302.3281,913,306.3281,903,310.3281,907,306.3281" style="stroke:#A80036;stroke-width:1.0;"/><line style="stroke:#A80036;stroke-width:1.0;" x1="608" x2="909" y1="306.3281" y2="306.3281"/><text fill="#000000" font-family="sans-serif" font-size="13" font-weight="bold" lengthAdjust="spacing" textLength="7" x="615" y="301.4717">6</text><text fill="#000000" font-family="sans-serif" font-size="13" lengthAdjust="spacing" textLength="277" x="626" y="301.4717">getContainerLocation(containerNumber, clientId)</text><polygon fill="#A80036" points="1238,332.6797,1248,336.6797,1238,340.6797,1242,336.6797" style="stroke:#A80036;stroke-width:1.0;"/><line style="stroke:#A80036;stroke-width:1.0;" x1="925" x2="1244" y1="336.6797" y2="336.6797"/><text fill="#000000" font-family="sans-serif" font-size="13" font-weight="bold" lengthAdjust="spacing" textLength="7" x="932" y="331.8232">7</text><text fill="#000000" font-family="sans-serif" font-size="13" lengthAdjust="spacing" textLength="295" x="943" y="331.8232">writeForAFile(containerLocation, fileName, filePath)</text><polygon fill="#A80036" points="936,363.0313,926,367.0313,936,371.0313,932,367.0313" style="stroke:#A80036;stroke-width:1.0;"/><line style="stroke:#A80036;stroke-width:1.0;stroke-dasharray:2.0,2.0;" x1="930" x2="1254" y1="367.0313" y2="367.0313"/><text fill="#000000" font-family="sans-serif" font-size="13" font-weight="bold" lengthAdjust="spacing" textLength="7" x="942" y="362.1748">8</text><text fill="#000000" font-family="sans-serif" font-size="13" lengthAdjust="spacing" textLength="32" x="953" y="362.1748">result</text><polygon fill="#A80036" points="619,393.3828,609,397.3828,619,401.3828,615,397.3828" style="stroke:#A80036;stroke-width:1.0;"/><line style="stroke:#A80036;stroke-width:1.0;stroke-dasharray:2.0,2.0;" x1="613" x2="919" y1="397.3828" y2="397.3828"/><text fill="#000000" font-family="sans-serif" font-size="13" font-weight="bold" lengthAdjust="spacing" textLength="7" x="625" y="392.5264">9</text><text fill="#000000" font-family="sans-serif" font-size="13" lengthAdjust="spacing" textLength="32" x="636" y="392.5264">result</text><polygon fill="#A80036" points="302,423.7344,292,427.7344,302,431.7344,298,427.7344" style="stroke:#A80036;stroke-width:1.0;"/><line style="stroke:#A80036;stroke-width:1.0;stroke-dasharray:2.0,2.0;" x1="296" x2="602" y1="427.7344" y2="427.7344"/><text fill="#000000" font-family="sans-serif" font-size="13" font-weight="bold" lengthAdjust="spacing" textLength="14" x="308" y="422.8779">10</text><text fill="#000000" font-family="sans-serif" font-size="13" lengthAdjust="spacing" textLength="32" x="326" y="422.8779">result</text><polygon fill="#A80036" points="37,454.0859,27,458.0859,37,462.0859,33,458.0859" style="stroke:#A80036;stroke-width:1.0;"/><line style="stroke:#A80036;stroke-width:1.0;stroke-dasharray:2.0,2.0;" x1="31" x2="285" y1="458.0859" y2="458.0859"/><text fill="#000000" font-family="sans-serif" font-size="13" font-weight="bold" lengthAdjust="spacing" textLength="14" x="43" y="453.2295">11</text><text fill="#000000" font-family="sans-serif" font-size="13" lengthAdjust="spacing" textLength="174" x="61" y="453.2295">Informs the operation success</text><!--MD5=[2551fcbaac8ae0ec1ecfaa1fa511b160]
@startuml
autonumber

actor "Client" as C
participant ":FindContainerSituation312Ui" as UI
participant ":FindContainerSituation312Controller" as CTRL
participant "US312Handler" as handler
participant "WriteForAFile" as writer

activate C
C -> UI:  Initiates the process to get the current\n situation of a specific container
activate UI
UI - -> C : Request the e container identifier
deactivate UI
C -> UI : Introduce the requested data
activate UI
UI -> CTRL: getContainerLocation(containerNumber, clientId)
activate CTRL
CTRL - -> handler** : create()
CTRL -> handler: getContainerLocation(containerNumber, clientId)
activate handler
handler->writer:writeForAFile(containerLocation, fileName, filePath)
activate writer
writer - -> handler: result
deactivate writer
handler - -> CTRL: result
deactivate handler
CTRL- ->UI: result
deactivate CTRL
UI- ->C :Informs the operation success
deactivate UI
deactivate C
@enduml

PlantUML version 1.2021.16(Wed Dec 08 17:25:22 GMT 2021)
(GPL source distribution)
Java Runtime: OpenJDK Runtime Environment
JVM: OpenJDK 64-Bit Server VM
Default Encoding: Cp1252
Language: pt
Country: BR
--></g></svg>