<?xml version="1.0" encoding="UTF-8" standalone="no"?><svg xmlns="http://www.w3.org/2000/svg" xmlns:xlink="http://www.w3.org/1999/xlink" contentScriptType="application/ecmascript" contentStyleType="text/css" height="363px" preserveAspectRatio="none" style="width:1575px;height:363px;background:#FFFFFF;" version="1.1" viewBox="0 0 1575 363" width="1575px" zoomAndPan="magnify"><defs><filter height="300%" id="f1qlrbvp33nzr7" width="300%" x="-1" y="-1"><feGaussianBlur result="blurOut" stdDeviation="2.0"/><feColorMatrix in="blurOut" result="blurOut2" type="matrix" values="0 0 0 0 0 0 0 0 0 0 0 0 0 0 0 0 0 0 .4 0"/><feOffset dx="4.0" dy="4.0" in="blurOut2" result="blurOut3"/><feBlend in="SourceGraphic" in2="blurOut3" mode="normal"/></filter></defs><g><!--MD5=[a3093aa9f96b7df9aab31d8715601ff6]
class Containers--><rect codeLine="7" fill="#FEFECE" filter="url(#f1qlrbvp33nzr7)" height="178.3594" id="Containers" style="stroke:#A80036;stroke-width:1.5;" width="98" x="559" y="105.3564"/><ellipse cx="576.25" cy="121.3564" fill="#ADD1B2" rx="11" ry="11" style="stroke:#A80036;stroke-width:1.0;"/><path d="M578.25,117.8564 Q578.4531,117.3564 578.6875,117.1064 Q578.9219,116.8564 579.1875,116.8564 Q579.6563,116.8564 579.9531,117.1377 Q580.25,117.4189 580.25,118.0752 L580.25,119.6377 Q580.25,120.2939 579.9688,120.5752 Q579.6875,120.8564 579.25,120.8564 Q578.8594,120.8564 578.6094,120.6846 Q578.3594,120.5127 578.25,120.0596 Q578.2031,119.7471 578.0313,119.5752 Q577.7188,119.2471 577.1563,119.0596 Q576.5938,118.8564 576.0313,118.8564 Q575.3281,118.8564 574.7344,119.1377 Q574.1563,119.4189 573.7031,120.0439 Q573.25,120.6689 573.25,121.5283 L573.25,122.4502 Q573.25,123.4814 574.0938,124.1689 Q574.9375,124.8564 576.4375,124.8564 Q577.3281,124.8564 577.9531,124.6533 Q578.3125,124.5439 578.7188,124.1846 Q578.9844,123.9814 579.125,123.9189 Q579.2656,123.8564 579.4375,123.8564 Q579.7656,123.8564 580,124.1221 Q580.25,124.3721 580.25,124.7314 Q580.25,125.0752 579.9063,125.4814 Q579.4063,126.0752 578.6094,126.4033 Q577.5625,126.8564 576.2813,126.8564 Q574.7813,126.8564 573.5781,126.2627 Q572.6094,125.7939 571.9219,124.7783 Q571.25,123.7627 571.25,122.5596 L571.25,121.4658 Q571.25,120.2158 571.8438,119.1221 Q572.4531,118.0283 573.5,117.4502 Q574.5625,116.8564 575.75,116.8564 Q576.4688,116.8564 577.0938,117.1064 Q577.7188,117.3564 578.25,117.8564 Z " fill="#000000"/><text fill="#000000" font-family="sans-serif" font-size="12" lengthAdjust="spacing" textLength="61" x="590.75" y="126.2666">Containers</text><line style="stroke:#A80036;stroke-width:1.5;" x1="560" x2="656" y1="137.3564" y2="137.3564"/><text fill="#000000" font-family="sans-serif" font-size="11" lengthAdjust="spacing" textLength="10" x="565" y="152.7754">-x</text><text fill="#000000" font-family="sans-serif" font-size="11" lengthAdjust="spacing" textLength="10" x="565" y="166.6113">-y</text><text fill="#000000" font-family="sans-serif" font-size="11" lengthAdjust="spacing" textLength="10" x="565" y="180.4473">-z</text><text fill="#000000" font-family="sans-serif" font-size="11" lengthAdjust="spacing" textLength="86" x="565" y="194.2832">-containerNumber</text><text fill="#000000" font-family="sans-serif" font-size="11" lengthAdjust="spacing" textLength="53" x="565" y="208.1191">-checkDigit</text><text fill="#000000" font-family="sans-serif" font-size="11" lengthAdjust="spacing" textLength="43" x="565" y="221.9551">-isoCode</text><text fill="#000000" font-family="sans-serif" font-size="11" lengthAdjust="spacing" textLength="46" x="565" y="235.791">-payLoad</text><text fill="#000000" font-family="sans-serif" font-size="11" lengthAdjust="spacing" textLength="23" x="565" y="249.627">-tare</text><text fill="#000000" font-family="sans-serif" font-size="11" lengthAdjust="spacing" textLength="32" x="565" y="263.4629">-gross</text><text fill="#000000" font-family="sans-serif" font-size="11" lengthAdjust="spacing" textLength="37" x="565" y="277.2988">-weight</text><!--MD5=[76562047389981627aea27c31a97aff5]
class CargoManifest--><rect codeLine="20" fill="#FEFECE" filter="url(#f1qlrbvp33nzr7)" height="136.8516" id="CargoManifest" style="stroke:#A80036;stroke-width:1.5;" width="116" x="786" y="77.8564"/><ellipse cx="802.8" cy="93.8564" fill="#ADD1B2" rx="11" ry="11" style="stroke:#A80036;stroke-width:1.0;"/><path d="M804.8,90.3564 Q805.0031,89.8564 805.2375,89.6064 Q805.4719,89.3564 805.7375,89.3564 Q806.2063,89.3564 806.5031,89.6377 Q806.8,89.9189 806.8,90.5752 L806.8,92.1377 Q806.8,92.7939 806.5188,93.0752 Q806.2375,93.3564 805.8,93.3564 Q805.4094,93.3564 805.1594,93.1846 Q804.9094,93.0127 804.8,92.5596 Q804.7531,92.2471 804.5813,92.0752 Q804.2688,91.7471 803.7063,91.5596 Q803.1438,91.3564 802.5813,91.3564 Q801.8781,91.3564 801.2844,91.6377 Q800.7063,91.9189 800.2531,92.5439 Q799.8,93.1689 799.8,94.0283 L799.8,94.9502 Q799.8,95.9814 800.6438,96.6689 Q801.4875,97.3564 802.9875,97.3564 Q803.8781,97.3564 804.5031,97.1533 Q804.8625,97.0439 805.2688,96.6846 Q805.5344,96.4814 805.675,96.4189 Q805.8156,96.3564 805.9875,96.3564 Q806.3156,96.3564 806.55,96.6221 Q806.8,96.8721 806.8,97.2314 Q806.8,97.5752 806.4563,97.9814 Q805.9563,98.5752 805.1594,98.9033 Q804.1125,99.3564 802.8313,99.3564 Q801.3313,99.3564 800.1281,98.7627 Q799.1594,98.2939 798.4719,97.2783 Q797.8,96.2627 797.8,95.0596 L797.8,93.9658 Q797.8,92.7158 798.3938,91.6221 Q799.0031,90.5283 800.05,89.9502 Q801.1125,89.3564 802.3,89.3564 Q803.0188,89.3564 803.6438,89.6064 Q804.2688,89.8564 804.8,90.3564 Z " fill="#000000"/><text fill="#000000" font-family="sans-serif" font-size="12" lengthAdjust="spacing" textLength="80" x="817.2" y="98.7666">CargoManifest</text><line style="stroke:#A80036;stroke-width:1.5;" x1="787" x2="901" y1="109.8564" y2="109.8564"/><text fill="#000000" font-family="sans-serif" font-size="11" lengthAdjust="spacing" textLength="81" x="792" y="125.2754">-listOfContainers</text><text fill="#000000" font-family="sans-serif" font-size="11" lengthAdjust="spacing" textLength="25" x="792" y="139.1113">-ratio</text><text fill="#000000" font-family="sans-serif" font-size="11" lengthAdjust="spacing" textLength="25" x="792" y="152.9473">-date</text><text fill="#000000" font-family="sans-serif" font-size="11" lengthAdjust="spacing" textLength="53" x="792" y="166.7832">-mmsiCode</text><text fill="#000000" font-family="sans-serif" font-size="11" lengthAdjust="spacing" textLength="12" x="792" y="180.6191">-id</text><text fill="#000000" font-family="sans-serif" font-size="11" lengthAdjust="spacing" textLength="104" x="792" y="194.4551">-numberOfContainers</text><text fill="#000000" font-family="sans-serif" font-size="11" lengthAdjust="spacing" textLength="56" x="792" y="208.291">-destination</text><!--MD5=[ea13aecf8df941b18fb8e3885c78c184]
class Ports--><rect codeLine="30" fill="#FEFECE" filter="url(#f1qlrbvp33nzr7)" height="67.6719" id="Ports" style="stroke:#A80036;stroke-width:1.5;" width="76" x="1042" y="173.3564"/><ellipse cx="1063.75" cy="189.3564" fill="#ADD1B2" rx="11" ry="11" style="stroke:#A80036;stroke-width:1.0;"/><path d="M1065.75,185.8564 Q1065.9531,185.3564 1066.1875,185.1064 Q1066.4219,184.8564 1066.6875,184.8564 Q1067.1563,184.8564 1067.4531,185.1377 Q1067.75,185.4189 1067.75,186.0752 L1067.75,187.6377 Q1067.75,188.2939 1067.4688,188.5752 Q1067.1875,188.8564 1066.75,188.8564 Q1066.3594,188.8564 1066.1094,188.6846 Q1065.8594,188.5127 1065.75,188.0596 Q1065.7031,187.7471 1065.5313,187.5752 Q1065.2188,187.2471 1064.6563,187.0596 Q1064.0938,186.8564 1063.5313,186.8564 Q1062.8281,186.8564 1062.2344,187.1377 Q1061.6563,187.4189 1061.2031,188.0439 Q1060.75,188.6689 1060.75,189.5283 L1060.75,190.4502 Q1060.75,191.4814 1061.5938,192.1689 Q1062.4375,192.8564 1063.9375,192.8564 Q1064.8281,192.8564 1065.4531,192.6533 Q1065.8125,192.5439 1066.2188,192.1846 Q1066.4844,191.9814 1066.625,191.9189 Q1066.7656,191.8564 1066.9375,191.8564 Q1067.2656,191.8564 1067.5,192.1221 Q1067.75,192.3721 1067.75,192.7314 Q1067.75,193.0752 1067.4063,193.4814 Q1066.9063,194.0752 1066.1094,194.4033 Q1065.0625,194.8564 1063.7813,194.8564 Q1062.2813,194.8564 1061.0781,194.2627 Q1060.1094,193.7939 1059.4219,192.7783 Q1058.75,191.7627 1058.75,190.5596 L1058.75,189.4658 Q1058.75,188.2158 1059.3438,187.1221 Q1059.9531,186.0283 1061,185.4502 Q1062.0625,184.8564 1063.25,184.8564 Q1063.9688,184.8564 1064.5938,185.1064 Q1065.2188,185.3564 1065.75,185.8564 Z " fill="#000000"/><text fill="#000000" font-family="sans-serif" font-size="12" lengthAdjust="spacing" textLength="29" x="1079.25" y="194.2666">Ports</text><line style="stroke:#A80036;stroke-width:1.5;" x1="1043" x2="1117" y1="205.3564" y2="205.3564"/><text fill="#000000" font-family="sans-serif" font-size="11" lengthAdjust="spacing" textLength="64" x="1048" y="220.7754">-identification</text><text fill="#000000" font-family="sans-serif" font-size="11" lengthAdjust="spacing" textLength="30" x="1048" y="234.6113">-name</text><!--MD5=[deb4e1f6eb1e3c1256fdb830f96abfbb]
class Country--><rect codeLine="35" fill="#FEFECE" filter="url(#f1qlrbvp33nzr7)" height="67.6719" id="Country" style="stroke:#A80036;stroke-width:1.5;" width="74" x="1487" y="173.3564"/><ellipse cx="1502" cy="189.3564" fill="#ADD1B2" rx="11" ry="11" style="stroke:#A80036;stroke-width:1.0;"/><path d="M1504,185.8564 Q1504.2031,185.3564 1504.4375,185.1064 Q1504.6719,184.8564 1504.9375,184.8564 Q1505.4063,184.8564 1505.7031,185.1377 Q1506,185.4189 1506,186.0752 L1506,187.6377 Q1506,188.2939 1505.7188,188.5752 Q1505.4375,188.8564 1505,188.8564 Q1504.6094,188.8564 1504.3594,188.6846 Q1504.1094,188.5127 1504,188.0596 Q1503.9531,187.7471 1503.7813,187.5752 Q1503.4688,187.2471 1502.9063,187.0596 Q1502.3438,186.8564 1501.7813,186.8564 Q1501.0781,186.8564 1500.4844,187.1377 Q1499.9063,187.4189 1499.4531,188.0439 Q1499,188.6689 1499,189.5283 L1499,190.4502 Q1499,191.4814 1499.8438,192.1689 Q1500.6875,192.8564 1502.1875,192.8564 Q1503.0781,192.8564 1503.7031,192.6533 Q1504.0625,192.5439 1504.4688,192.1846 Q1504.7344,191.9814 1504.875,191.9189 Q1505.0156,191.8564 1505.1875,191.8564 Q1505.5156,191.8564 1505.75,192.1221 Q1506,192.3721 1506,192.7314 Q1506,193.0752 1505.6563,193.4814 Q1505.1563,194.0752 1504.3594,194.4033 Q1503.3125,194.8564 1502.0313,194.8564 Q1500.5313,194.8564 1499.3281,194.2627 Q1498.3594,193.7939 1497.6719,192.7783 Q1497,191.7627 1497,190.5596 L1497,189.4658 Q1497,188.2158 1497.5938,187.1221 Q1498.2031,186.0283 1499.25,185.4502 Q1500.3125,184.8564 1501.5,184.8564 Q1502.2188,184.8564 1502.8438,185.1064 Q1503.4688,185.3564 1504,185.8564 Z " fill="#000000"/><text fill="#000000" font-family="sans-serif" font-size="12" lengthAdjust="spacing" textLength="42" x="1516" y="194.2666">Country</text><line style="stroke:#A80036;stroke-width:1.5;" x1="1488" x2="1560" y1="205.3564" y2="205.3564"/><text fill="#000000" font-family="sans-serif" font-size="11" lengthAdjust="spacing" textLength="30" x="1493" y="220.7754">-name</text><text fill="#000000" font-family="sans-serif" font-size="11" lengthAdjust="spacing" textLength="48" x="1493" y="234.6113">-continent</text><!--MD5=[9febfb2ff9adfe183e01ff702b9c1c02]
class PlaceLocation--><rect codeLine="40" fill="#FEFECE" filter="url(#f1qlrbvp33nzr7)" height="67.6719" id="PlaceLocation" style="stroke:#A80036;stroke-width:1.5;" width="110" x="1250" y="173.3564"/><ellipse cx="1265" cy="189.3564" fill="#ADD1B2" rx="11" ry="11" style="stroke:#A80036;stroke-width:1.0;"/><path d="M1267,185.8564 Q1267.2031,185.3564 1267.4375,185.1064 Q1267.6719,184.8564 1267.9375,184.8564 Q1268.4063,184.8564 1268.7031,185.1377 Q1269,185.4189 1269,186.0752 L1269,187.6377 Q1269,188.2939 1268.7188,188.5752 Q1268.4375,188.8564 1268,188.8564 Q1267.6094,188.8564 1267.3594,188.6846 Q1267.1094,188.5127 1267,188.0596 Q1266.9531,187.7471 1266.7813,187.5752 Q1266.4688,187.2471 1265.9063,187.0596 Q1265.3438,186.8564 1264.7813,186.8564 Q1264.0781,186.8564 1263.4844,187.1377 Q1262.9063,187.4189 1262.4531,188.0439 Q1262,188.6689 1262,189.5283 L1262,190.4502 Q1262,191.4814 1262.8438,192.1689 Q1263.6875,192.8564 1265.1875,192.8564 Q1266.0781,192.8564 1266.7031,192.6533 Q1267.0625,192.5439 1267.4688,192.1846 Q1267.7344,191.9814 1267.875,191.9189 Q1268.0156,191.8564 1268.1875,191.8564 Q1268.5156,191.8564 1268.75,192.1221 Q1269,192.3721 1269,192.7314 Q1269,193.0752 1268.6563,193.4814 Q1268.1563,194.0752 1267.3594,194.4033 Q1266.3125,194.8564 1265.0313,194.8564 Q1263.5313,194.8564 1262.3281,194.2627 Q1261.3594,193.7939 1260.6719,192.7783 Q1260,191.7627 1260,190.5596 L1260,189.4658 Q1260,188.2158 1260.5938,187.1221 Q1261.2031,186.0283 1262.25,185.4502 Q1263.3125,184.8564 1264.5,184.8564 Q1265.2188,184.8564 1265.8438,185.1064 Q1266.4688,185.3564 1267,185.8564 Z " fill="#000000"/><text fill="#000000" font-family="sans-serif" font-size="12" lengthAdjust="spacing" textLength="78" x="1279" y="194.2666">PlaceLocation</text><line style="stroke:#A80036;stroke-width:1.5;" x1="1251" x2="1359" y1="205.3564" y2="205.3564"/><text fill="#000000" font-family="sans-serif" font-size="11" lengthAdjust="spacing" textLength="38" x="1256" y="220.7754">-latitude</text><text fill="#000000" font-family="sans-serif" font-size="11" lengthAdjust="spacing" textLength="47" x="1256" y="234.6113">-longitude</text><!--MD5=[0dc7f2ddb409b58bcf52b12238c25399]
class Ship--><rect codeLine="45" fill="#FEFECE" filter="url(#f1qlrbvp33nzr7)" height="192.1953" id="Ship" style="stroke:#A80036;stroke-width:1.5;" width="141" x="190" y="98.3564"/><ellipse cx="243.75" cy="114.3564" fill="#ADD1B2" rx="11" ry="11" style="stroke:#A80036;stroke-width:1.0;"/><path d="M245.75,110.8564 Q245.9531,110.3564 246.1875,110.1064 Q246.4219,109.8564 246.6875,109.8564 Q247.1563,109.8564 247.4531,110.1377 Q247.75,110.4189 247.75,111.0752 L247.75,112.6377 Q247.75,113.2939 247.4688,113.5752 Q247.1875,113.8564 246.75,113.8564 Q246.3594,113.8564 246.1094,113.6846 Q245.8594,113.5127 245.75,113.0596 Q245.7031,112.7471 245.5313,112.5752 Q245.2188,112.2471 244.6563,112.0596 Q244.0938,111.8564 243.5313,111.8564 Q242.8281,111.8564 242.2344,112.1377 Q241.6563,112.4189 241.2031,113.0439 Q240.75,113.6689 240.75,114.5283 L240.75,115.4502 Q240.75,116.4814 241.5938,117.1689 Q242.4375,117.8564 243.9375,117.8564 Q244.8281,117.8564 245.4531,117.6533 Q245.8125,117.5439 246.2188,117.1846 Q246.4844,116.9814 246.625,116.9189 Q246.7656,116.8564 246.9375,116.8564 Q247.2656,116.8564 247.5,117.1221 Q247.75,117.3721 247.75,117.7314 Q247.75,118.0752 247.4063,118.4814 Q246.9063,119.0752 246.1094,119.4033 Q245.0625,119.8564 243.7813,119.8564 Q242.2813,119.8564 241.0781,119.2627 Q240.1094,118.7939 239.4219,117.7783 Q238.75,116.7627 238.75,115.5596 L238.75,114.4658 Q238.75,113.2158 239.3438,112.1221 Q239.9531,111.0283 241,110.4502 Q242.0625,109.8564 243.25,109.8564 Q243.9688,109.8564 244.5938,110.1064 Q245.2188,110.3564 245.75,110.8564 Z " fill="#000000"/><text fill="#000000" font-family="sans-serif" font-size="12" lengthAdjust="spacing" textLength="25" x="264.25" y="119.2666">Ship</text><line style="stroke:#A80036;stroke-width:1.5;" x1="191" x2="330" y1="130.3564" y2="130.3564"/><text fill="#000000" font-family="sans-serif" font-size="11" lengthAdjust="spacing" textLength="53" x="196" y="145.7754">-mmsiCode</text><text fill="#000000" font-family="sans-serif" font-size="11" lengthAdjust="spacing" textLength="45" x="196" y="159.6113">-imoCode</text><text fill="#000000" font-family="sans-serif" font-size="11" lengthAdjust="spacing" textLength="129" x="196" y="173.4473">-numberEnergyGenerators</text><text fill="#000000" font-family="sans-serif" font-size="11" lengthAdjust="spacing" textLength="83" x="196" y="187.2832">-generatorPower</text><text fill="#000000" font-family="sans-serif" font-size="11" lengthAdjust="spacing" textLength="41" x="196" y="201.1191">-callSign</text><text fill="#000000" font-family="sans-serif" font-size="11" lengthAdjust="spacing" textLength="27" x="196" y="214.9551">-draft</text><text fill="#000000" font-family="sans-serif" font-size="11" lengthAdjust="spacing" textLength="30" x="196" y="228.791">-name</text><text fill="#000000" font-family="sans-serif" font-size="11" lengthAdjust="spacing" textLength="68" x="196" y="242.627">-vesselTypeId</text><text fill="#000000" font-family="sans-serif" font-size="11" lengthAdjust="spacing" textLength="33" x="196" y="256.4629">-length</text><text fill="#000000" font-family="sans-serif" font-size="11" lengthAdjust="spacing" textLength="31" x="196" y="270.2988">-width</text><text fill="#000000" font-family="sans-serif" font-size="11" lengthAdjust="spacing" textLength="45" x="196" y="284.1348">-capacity</text><!--MD5=[02e4b9b7573f1156f41e60aa5b4e25a4]
class Company--><rect codeLine="59" fill="#FEFECE" filter="url(#f1qlrbvp33nzr7)" height="53.8359" id="Company" style="stroke:#A80036;stroke-width:1.5;" width="85" x="7" y="92.3564"/><ellipse cx="22" cy="108.3564" fill="#ADD1B2" rx="11" ry="11" style="stroke:#A80036;stroke-width:1.0;"/><path d="M24,104.8564 Q24.2031,104.3564 24.4375,104.1064 Q24.6719,103.8564 24.9375,103.8564 Q25.4063,103.8564 25.7031,104.1377 Q26,104.4189 26,105.0752 L26,106.6377 Q26,107.2939 25.7188,107.5752 Q25.4375,107.8564 25,107.8564 Q24.6094,107.8564 24.3594,107.6846 Q24.1094,107.5127 24,107.0596 Q23.9531,106.7471 23.7813,106.5752 Q23.4688,106.2471 22.9063,106.0596 Q22.3438,105.8564 21.7813,105.8564 Q21.0781,105.8564 20.4844,106.1377 Q19.9063,106.4189 19.4531,107.0439 Q19,107.6689 19,108.5283 L19,109.4502 Q19,110.4814 19.8438,111.1689 Q20.6875,111.8564 22.1875,111.8564 Q23.0781,111.8564 23.7031,111.6533 Q24.0625,111.5439 24.4688,111.1846 Q24.7344,110.9814 24.875,110.9189 Q25.0156,110.8564 25.1875,110.8564 Q25.5156,110.8564 25.75,111.1221 Q26,111.3721 26,111.7314 Q26,112.0752 25.6563,112.4814 Q25.1563,113.0752 24.3594,113.4033 Q23.3125,113.8564 22.0313,113.8564 Q20.5313,113.8564 19.3281,113.2627 Q18.3594,112.7939 17.6719,111.7783 Q17,110.7627 17,109.5596 L17,108.4658 Q17,107.2158 17.5938,106.1221 Q18.2031,105.0283 19.25,104.4502 Q20.3125,103.8564 21.5,103.8564 Q22.2188,103.8564 22.8438,104.1064 Q23.4688,104.3564 24,104.8564 Z " fill="#000000"/><text fill="#000000" font-family="sans-serif" font-size="12" lengthAdjust="spacing" textLength="53" x="36" y="113.2666">Company</text><line style="stroke:#A80036;stroke-width:1.5;" x1="8" x2="91" y1="124.3564" y2="124.3564"/><text fill="#000000" font-family="sans-serif" font-size="11" lengthAdjust="spacing" textLength="59" x="13" y="139.7754">-designation</text><!--MD5=[37a14a5de6d6fd738aee271300f4b5c8]
link Company to Ship--><path codeLine="63" d="M92.04,134.2664 C119.9,144.2564 157.27,157.6664 189.64,169.2864 " fill="none" id="Company-Ship" style="stroke:#A80036;stroke-width:1.0;"/><polygon fill="#000000" points="131.7062,138.2209,124.1852,132.3998,122.2,137.9323,131.7062,138.2209" style="stroke:#000000;stroke-width:1.0;"/><text fill="#000000" font-family="sans-serif" font-size="13" lengthAdjust="spacing" textLength="23" x="136" y="141.8516">own</text><text fill="#000000" font-family="sans-serif" font-size="13" lengthAdjust="spacing" textLength="7" x="99.9531" y="151.7435">1</text><text fill="#000000" font-family="sans-serif" font-size="13" lengthAdjust="spacing" textLength="20" x="161.933" y="181.162">1..*</text><!--MD5=[d729e47c8b99010fceb84b610067730f]
link CargoManifest to Ports--><path codeLine="64" d="M902.24,161.2764 C945.68,172.5964 1004.13,187.8364 1041.69,197.6264 " fill="none" id="CargoManifest-Ports" style="stroke:#A80036;stroke-width:1.0;"/><polygon fill="#000000" points="941.8383,161.7934,933.827,156.668,932.3444,162.3558,941.8383,161.7934" style="stroke:#000000;stroke-width:1.0;"/><text fill="#000000" font-family="sans-serif" font-size="13" lengthAdjust="spacing" textLength="65" x="946" y="165.8516">delivered at</text><text fill="#000000" font-family="sans-serif" font-size="13" lengthAdjust="spacing" textLength="5" x="910.0223" y="177.7402">*</text><text fill="#000000" font-family="sans-serif" font-size="13" lengthAdjust="spacing" textLength="7" x="1026.9813" y="210.8653">1</text><!--MD5=[3d97e7a8068d9b0a6bb8fcf7dc76451d]
link Company to Ports--><path codeLine="65" d="M85.66,92.1364 C125.51,64.0564 193.54,24.3564 259.5,24.3564 C259.5,24.3564 259.5,24.3564 845,24.3564 C940.41,24.3564 1020.13,119.9264 1057,172.9364 " fill="none" id="Company-Ports" style="stroke:#A80036;stroke-width:1.0;"/><polygon fill="#000000" points="497.9828,15.9467,489.2125,12.2681,488.7252,18.1257,497.9828,15.9467" style="stroke:#000000;stroke-width:1.0;"/><text fill="#000000" font-family="sans-serif" font-size="13" lengthAdjust="spacing" textLength="26" x="502" y="20.8516">have</text><text fill="#000000" font-family="sans-serif" font-size="13" lengthAdjust="spacing" textLength="7" x="86.2126" y="81.5466">1</text><text fill="#000000" font-family="sans-serif" font-size="13" lengthAdjust="spacing" textLength="20" x="1030.7094" y="162.41">1..*</text><!--MD5=[a27713cdd7694cea32c8be89a3131559]
link Containers to CargoManifest--><path codeLine="66" d="M657.2,184.4664 C694.53,176.8164 746.35,166.1864 785.78,158.0964 " fill="none" id="Containers-CargoManifest" style="stroke:#A80036;stroke-width:1.0;"/><polygon fill="#000000" points="696.8981,154.5277,687.4469,153.4659,688.6278,159.2239,696.8981,154.5277" style="stroke:#000000;stroke-width:1.0;"/><text fill="#000000" font-family="sans-serif" font-size="13" lengthAdjust="spacing" textLength="54" x="701" y="160.8516">related to</text><text fill="#000000" font-family="sans-serif" font-size="13" lengthAdjust="spacing" textLength="20" x="665.155" y="197.7071">1..*</text><text fill="#000000" font-family="sans-serif" font-size="13" lengthAdjust="spacing" textLength="20" x="757.8921" y="173.9029">1..*</text><!--MD5=[c7fc6f07f2489647d2a3f83969f89660]
link Containers to Ports--><path codeLine="67" d="M657.25,214.0464 C692.3,227.2564 741.25,243.4464 786,250.3564 C877.97,264.5564 986.36,237.1864 1041.97,219.9264 " fill="none" id="Containers-Ports" style="stroke:#A80036;stroke-width:1.0;"/><polygon fill="#000000" points="831.9994,241.6086,823.0003,238.5318,822.9105,244.409,831.9994,241.6086" style="stroke:#000000;stroke-width:1.0;"/><text fill="#000000" font-family="sans-serif" font-size="13" lengthAdjust="spacing" textLength="29" x="836" y="246.8516">store</text><text fill="#000000" font-family="sans-serif" font-size="13" lengthAdjust="spacing" textLength="20" x="664.8414" y="231.0888">0..*</text><text fill="#000000" font-family="sans-serif" font-size="13" lengthAdjust="spacing" textLength="7" x="1027.0533" y="237.4075">1</text><!--MD5=[3d04185e7085eaaeba7ebd93b9963be0]
link PlaceLocation to Country--><path codeLine="68" d="M1360.2,207.3564 C1399.74,207.3564 1452.25,207.3564 1486.8,207.3564 " fill="none" id="PlaceLocation-Country" style="stroke:#A80036;stroke-width:1.0;"/><polygon fill="#000000" points="1400,198.5322,1390.9549,195.5933,1390.9549,201.4712,1400,198.5322" style="stroke:#000000;stroke-width:1.0;"/><text fill="#000000" font-family="sans-serif" font-size="13" lengthAdjust="spacing" textLength="52" x="1404" y="203.8516">placed in</text><text fill="#000000" font-family="sans-serif" font-size="13" lengthAdjust="spacing" textLength="5" x="1367.9534" y="221.9722">*</text><text fill="#000000" font-family="sans-serif" font-size="13" lengthAdjust="spacing" textLength="7" x="1472.0416" y="222.4413">1</text><!--MD5=[aaa368e4b832683362a5bdda330bd90d]
link Ports to PlaceLocation--><path codeLine="69" d="M1118.07,207.3564 C1153.99,207.3564 1208.87,207.3564 1249.71,207.3564 " fill="none" id="Ports-PlaceLocation" style="stroke:#A80036;stroke-width:1.0;"/><polygon fill="#000000" points="1158,198.5322,1148.9549,195.5933,1148.9549,201.4712,1158,198.5322" style="stroke:#000000;stroke-width:1.0;"/><text fill="#000000" font-family="sans-serif" font-size="13" lengthAdjust="spacing" textLength="57" x="1162" y="203.8516">located at</text><text fill="#000000" font-family="sans-serif" font-size="13" lengthAdjust="spacing" textLength="7" x="1125.9943" y="222.4413">1</text><text fill="#000000" font-family="sans-serif" font-size="13" lengthAdjust="spacing" textLength="7" x="1235.1775" y="221.9201">1</text><!--MD5=[cff4e3c6ede03364cf99bd3378be6b6a]
link Ship to Containers--><path codeLine="70" d="M331,194.3564 C398.69,194.3564 499.78,194.3564 558.99,194.3564 " fill="none" id="Ship-Containers" style="stroke:#A80036;stroke-width:1.0;"/><polygon fill="#000000" points="402,185.5322,392.9549,182.5933,392.9549,188.4712,402,185.5322" style="stroke:#000000;stroke-width:1.0;"/><text fill="#000000" font-family="sans-serif" font-size="13" lengthAdjust="spacing" textLength="51" x="406" y="190.8516">transport</text><text fill="#000000" font-family="sans-serif" font-size="13" lengthAdjust="spacing" textLength="7" x="339.0938" y="208.7351">1</text><text fill="#000000" font-family="sans-serif" font-size="13" lengthAdjust="spacing" textLength="20" x="531.0605" y="208.926">1..*</text><!--MD5=[b5e7d3b323f2cd13b2215620f50e65f3]
link Ship to Ports--><path codeLine="71" d="M315.55,290.4664 C342.7,325.3464 379.38,356.3564 424,356.3564 C424,356.3564 424,356.3564 845,356.3564 C930.01,356.3564 1009.03,285.5264 1049.91,241.5364 " fill="none" id="Ship-Ports" style="stroke:#A80036;stroke-width:1.0;"/><polygon fill="#000000" points="596.4889,347.1998,587.2685,344.8687,587.6593,350.7336,596.4889,347.1998" style="stroke:#000000;stroke-width:1.0;"/><text fill="#000000" font-family="sans-serif" font-size="13" lengthAdjust="spacing" textLength="28" x="600.5" y="352.8516">dock</text><text fill="#000000" font-family="sans-serif" font-size="13" lengthAdjust="spacing" textLength="20" x="298.9991" y="311.9385">0..*</text><text fill="#000000" font-family="sans-serif" font-size="13" lengthAdjust="spacing" textLength="7" x="1036.9268" y="262.6054">1</text><!--MD5=[aac48a503c8ceb77539ec689103284ad]
@startuml
'https://plantuml.com/class-diagram

hide methods
left to right direction
skinparam classAttributeIconSize 0

class Containers {
-x
-y
-z
-containerNumber
-checkDigit
-isoCode
-payLoad
-tare
-gross
-weight
}

class CargoManifest {
-listOfContainers
-ratio
-date
-mmsiCode
-id
-numberOfContainers
-destination
}

class Ports {
-identification
-name
}

class Country {
-name
-continent
}

class PlaceLocation {
-latitude
-longitude
}

class Ship {
-mmsiCode
-imoCode
-numberEnergyGenerators
-generatorPower
-callSign
-draft
-name
-vesselTypeId
-length
-width
-capacity
}

class Company {
-designation
}

Company "1"- -"1..*" Ship: own >
CargoManifest "*" - - "1" Ports : delivered at >
Company "1"- -"1..*" Ports: have >
Containers "1..*"- -"1..*" CargoManifest: related to >
Containers "0..*"- -"1" Ports: store >
PlaceLocation "*" - - "1" Country : placed in >
Ports "1" - - "1" PlaceLocation : located at >
Ship "1"- - -"1..*" Containers : transport >
Ship "0..*"- -"1" Ports: dock >

@enduml

@startuml

hide methods
left to right direction
skinparam classAttributeIconSize 0

class Containers {
-x
-y
-z
-containerNumber
-checkDigit
-isoCode
-payLoad
-tare
-gross
-weight
}

class CargoManifest {
-listOfContainers
-ratio
-date
-mmsiCode
-id
-numberOfContainers
-destination
}

class Ports {
-identification
-name
}

class Country {
-name
-continent
}

class PlaceLocation {
-latitude
-longitude
}

class Ship {
-mmsiCode
-imoCode
-numberEnergyGenerators
-generatorPower
-callSign
-draft
-name
-vesselTypeId
-length
-width
-capacity
}

class Company {
-designation
}

Company "1"- -"1..*" Ship: own >
CargoManifest "*" - - "1" Ports : delivered at >
Company "1"- -"1..*" Ports: have >
Containers "1..*"- -"1..*" CargoManifest: related to >
Containers "0..*"- -"1" Ports: store >
PlaceLocation "*" - - "1" Country : placed in >
Ports "1" - - "1" PlaceLocation : located at >
Ship "1"- - -"1..*" Containers : transport >
Ship "0..*"- -"1" Ports: dock >

@enduml

PlantUML version 1.2021.16(Wed Dec 08 17:25:22 GMT 2021)
(GPL source distribution)
Java Runtime: OpenJDK Runtime Environment
JVM: OpenJDK 64-Bit Server VM
Default Encoding: Cp1252
Language: pt
Country: BR
--></g></svg>