<?xml version="1.0" encoding="UTF-8" standalone="no"?><svg xmlns="http://www.w3.org/2000/svg" xmlns:xlink="http://www.w3.org/1999/xlink" contentScriptType="application/ecmascript" contentStyleType="text/css" height="434px" preserveAspectRatio="none" style="width:294px;height:434px;background:#FFFFFF;" version="1.1" viewBox="0 0 294 434" width="294px" zoomAndPan="magnify"><defs><filter height="300%" id="f1x1zhtcdmc9xv" width="300%" x="-1" y="-1"><feGaussianBlur result="blurOut" stdDeviation="2.0"/><feColorMatrix in="blurOut" result="blurOut2" type="matrix" values="0 0 0 0 0 0 0 0 0 0 0 0 0 0 0 0 0 0 .4 0"/><feOffset dx="4.0" dy="4.0" in="blurOut2" result="blurOut3"/><feBlend in="SourceGraphic" in2="blurOut3" mode="normal"/></filter></defs><g><!--MD5=[9f36e9ce0c058a7f1010bfd616ba55fd]
class FindContainerSituation312Ui--><rect codeLine="3" fill="#FEFECE" filter="url(#f1x1zhtcdmc9xv)" height="48" id="FindContainerSituation312Ui" style="stroke:#A80036;stroke-width:1.5;" width="191" x="48" y="7"/><ellipse cx="63" cy="23" fill="#ADD1B2" rx="11" ry="11" style="stroke:#A80036;stroke-width:1.0;"/><path d="M65,19.5 Q65.2031,19 65.4375,18.75 Q65.6719,18.5 65.9375,18.5 Q66.4063,18.5 66.7031,18.7813 Q67,19.0625 67,19.7188 L67,21.2813 Q67,21.9375 66.7188,22.2188 Q66.4375,22.5 66,22.5 Q65.6094,22.5 65.3594,22.3281 Q65.1094,22.1563 65,21.7031 Q64.9531,21.3906 64.7813,21.2188 Q64.4688,20.8906 63.9063,20.7031 Q63.3438,20.5 62.7813,20.5 Q62.0781,20.5 61.4844,20.7813 Q60.9063,21.0625 60.4531,21.6875 Q60,22.3125 60,23.1719 L60,24.0938 Q60,25.125 60.8438,25.8125 Q61.6875,26.5 63.1875,26.5 Q64.0781,26.5 64.7031,26.2969 Q65.0625,26.1875 65.4688,25.8281 Q65.7344,25.625 65.875,25.5625 Q66.0156,25.5 66.1875,25.5 Q66.5156,25.5 66.75,25.7656 Q67,26.0156 67,26.375 Q67,26.7188 66.6563,27.125 Q66.1563,27.7188 65.3594,28.0469 Q64.3125,28.5 63.0313,28.5 Q61.5313,28.5 60.3281,27.9063 Q59.3594,27.4375 58.6719,26.4219 Q58,25.4063 58,24.2031 L58,23.1094 Q58,21.8594 58.5938,20.7656 Q59.2031,19.6719 60.25,19.0938 Q61.3125,18.5 62.5,18.5 Q63.2188,18.5 63.8438,18.75 Q64.4688,19 65,19.5 Z " fill="#000000"/><text fill="#000000" font-family="sans-serif" font-size="12" lengthAdjust="spacing" textLength="159" x="77" y="27.9102">FindContainerSituation312Ui</text><line style="stroke:#A80036;stroke-width:1.5;" x1="49" x2="238" y1="39" y2="39"/><line style="stroke:#A80036;stroke-width:1.5;" x1="49" x2="238" y1="47" y2="47"/><!--MD5=[7fb64a3691b0200fb324759a866569b7]
class FindContainerSituation312Controller--><rect codeLine="5" fill="#FEFECE" filter="url(#f1x1zhtcdmc9xv)" height="61.8359" id="FindContainerSituation312Controller" style="stroke:#A80036;stroke-width:1.5;" width="257" x="15" y="115"/><ellipse cx="40.8" cy="131" fill="#ADD1B2" rx="11" ry="11" style="stroke:#A80036;stroke-width:1.0;"/><path d="M42.8,127.5 Q43.0031,127 43.2375,126.75 Q43.4719,126.5 43.7375,126.5 Q44.2063,126.5 44.5031,126.7813 Q44.8,127.0625 44.8,127.7188 L44.8,129.2813 Q44.8,129.9375 44.5188,130.2188 Q44.2375,130.5 43.8,130.5 Q43.4094,130.5 43.1594,130.3281 Q42.9094,130.1563 42.8,129.7031 Q42.7531,129.3906 42.5813,129.2188 Q42.2688,128.8906 41.7063,128.7031 Q41.1438,128.5 40.5813,128.5 Q39.8781,128.5 39.2844,128.7813 Q38.7063,129.0625 38.2531,129.6875 Q37.8,130.3125 37.8,131.1719 L37.8,132.0938 Q37.8,133.125 38.6438,133.8125 Q39.4875,134.5 40.9875,134.5 Q41.8781,134.5 42.5031,134.2969 Q42.8625,134.1875 43.2688,133.8281 Q43.5344,133.625 43.675,133.5625 Q43.8156,133.5 43.9875,133.5 Q44.3156,133.5 44.55,133.7656 Q44.8,134.0156 44.8,134.375 Q44.8,134.7188 44.4563,135.125 Q43.9563,135.7188 43.1594,136.0469 Q42.1125,136.5 40.8313,136.5 Q39.3313,136.5 38.1281,135.9063 Q37.1594,135.4375 36.4719,134.4219 Q35.8,133.4063 35.8,132.2031 L35.8,131.1094 Q35.8,129.8594 36.3938,128.7656 Q37.0031,127.6719 38.05,127.0938 Q39.1125,126.5 40.3,126.5 Q41.0188,126.5 41.6438,126.75 Q42.2688,127 42.8,127.5 Z " fill="#000000"/><text fill="#000000" font-family="sans-serif" font-size="12" lengthAdjust="spacing" textLength="201" x="57.2" y="135.9102">FindContainerSituation312Controller</text><line style="stroke:#A80036;stroke-width:1.5;" x1="16" x2="271" y1="147" y2="147"/><line style="stroke:#A80036;stroke-width:1.5;" x1="16" x2="271" y1="155" y2="155"/><rect fill="#F24D5C" height="6" style="stroke:#C82930;stroke-width:1.0;" width="6" x="23" y="163"/><text fill="#000000" font-family="sans-serif" font-size="11" lengthAdjust="spacing" textLength="231" x="35" y="170.4189">getContainerLocation(containerNumber, clientId)</text><!--MD5=[6d2b33ae6ec5da2f25c30ef9bd61f399]
class US312Handler--><rect codeLine="10" fill="#FEFECE" filter="url(#f1x1zhtcdmc9xv)" height="61.8359" id="US312Handler" style="stroke:#A80036;stroke-width:1.5;" width="257" x="15" y="237"/><ellipse cx="98.25" cy="253" fill="#ADD1B2" rx="11" ry="11" style="stroke:#A80036;stroke-width:1.0;"/><path d="M100.25,249.5 Q100.4531,249 100.6875,248.75 Q100.9219,248.5 101.1875,248.5 Q101.6563,248.5 101.9531,248.7813 Q102.25,249.0625 102.25,249.7188 L102.25,251.2813 Q102.25,251.9375 101.9688,252.2188 Q101.6875,252.5 101.25,252.5 Q100.8594,252.5 100.6094,252.3281 Q100.3594,252.1563 100.25,251.7031 Q100.2031,251.3906 100.0313,251.2188 Q99.7188,250.8906 99.1563,250.7031 Q98.5938,250.5 98.0313,250.5 Q97.3281,250.5 96.7344,250.7813 Q96.1563,251.0625 95.7031,251.6875 Q95.25,252.3125 95.25,253.1719 L95.25,254.0938 Q95.25,255.125 96.0938,255.8125 Q96.9375,256.5 98.4375,256.5 Q99.3281,256.5 99.9531,256.2969 Q100.3125,256.1875 100.7188,255.8281 Q100.9844,255.625 101.125,255.5625 Q101.2656,255.5 101.4375,255.5 Q101.7656,255.5 102,255.7656 Q102.25,256.0156 102.25,256.375 Q102.25,256.7188 101.9063,257.125 Q101.4063,257.7188 100.6094,258.0469 Q99.5625,258.5 98.2813,258.5 Q96.7813,258.5 95.5781,257.9063 Q94.6094,257.4375 93.9219,256.4219 Q93.25,255.4063 93.25,254.2031 L93.25,253.1094 Q93.25,251.8594 93.8438,250.7656 Q94.4531,249.6719 95.5,249.0938 Q96.5625,248.5 97.75,248.5 Q98.4688,248.5 99.0938,248.75 Q99.7188,249 100.25,249.5 Z " fill="#000000"/><text fill="#000000" font-family="sans-serif" font-size="12" lengthAdjust="spacing" textLength="82" x="118.75" y="257.9102">US312Handler</text><line style="stroke:#A80036;stroke-width:1.5;" x1="16" x2="271" y1="269" y2="269"/><line style="stroke:#A80036;stroke-width:1.5;" x1="16" x2="271" y1="277" y2="277"/><rect fill="#F24D5C" height="6" style="stroke:#C82930;stroke-width:1.0;" width="6" x="23" y="285"/><text fill="#000000" font-family="sans-serif" font-size="11" lengthAdjust="spacing" textLength="231" x="35" y="292.4189">getContainerLocation(containerNumber, clientId)</text><!--MD5=[c4c1f95cf25890b8d906953e22c853cc]
class WriteForAFile--><rect codeLine="14" fill="#FEFECE" filter="url(#f1x1zhtcdmc9xv)" height="61.8359" id="WriteForAFile" style="stroke:#A80036;stroke-width:1.5;" width="273" x="7" y="359"/><ellipse cx="102.75" cy="375" fill="#ADD1B2" rx="11" ry="11" style="stroke:#A80036;stroke-width:1.0;"/><path d="M104.75,371.5 Q104.9531,371 105.1875,370.75 Q105.4219,370.5 105.6875,370.5 Q106.1563,370.5 106.4531,370.7813 Q106.75,371.0625 106.75,371.7188 L106.75,373.2813 Q106.75,373.9375 106.4688,374.2188 Q106.1875,374.5 105.75,374.5 Q105.3594,374.5 105.1094,374.3281 Q104.8594,374.1563 104.75,373.7031 Q104.7031,373.3906 104.5313,373.2188 Q104.2188,372.8906 103.6563,372.7031 Q103.0938,372.5 102.5313,372.5 Q101.8281,372.5 101.2344,372.7813 Q100.6563,373.0625 100.2031,373.6875 Q99.75,374.3125 99.75,375.1719 L99.75,376.0938 Q99.75,377.125 100.5938,377.8125 Q101.4375,378.5 102.9375,378.5 Q103.8281,378.5 104.4531,378.2969 Q104.8125,378.1875 105.2188,377.8281 Q105.4844,377.625 105.625,377.5625 Q105.7656,377.5 105.9375,377.5 Q106.2656,377.5 106.5,377.7656 Q106.75,378.0156 106.75,378.375 Q106.75,378.7188 106.4063,379.125 Q105.9063,379.7188 105.1094,380.0469 Q104.0625,380.5 102.7813,380.5 Q101.2813,380.5 100.0781,379.9063 Q99.1094,379.4375 98.4219,378.4219 Q97.75,377.4063 97.75,376.2031 L97.75,375.1094 Q97.75,373.8594 98.3438,372.7656 Q98.9531,371.6719 100,371.0938 Q101.0625,370.5 102.25,370.5 Q102.9688,370.5 103.5938,370.75 Q104.2188,371 104.75,371.5 Z " fill="#000000"/><text fill="#000000" font-family="sans-serif" font-size="12" lengthAdjust="spacing" textLength="73" x="123.25" y="379.9102">WriteForAFile</text><line style="stroke:#A80036;stroke-width:1.5;" x1="8" x2="279" y1="391" y2="391"/><line style="stroke:#A80036;stroke-width:1.5;" x1="8" x2="279" y1="399" y2="399"/><rect fill="#F24D5C" height="6" style="stroke:#C82930;stroke-width:1.0;" width="6" x="15" y="407"/><text fill="#000000" font-family="sans-serif" font-size="11" lengthAdjust="spacing" textLength="247" x="27" y="414.4189">writeForAFile(containerLocation, fileName, filePath)</text><!--MD5=[a6f7edf6b9cf802727f8961e26af0962]
link FindContainerSituation312Ui to FindContainerSituation312Controller--><path codeLine="19" d="M143.5,55.14 C143.5,70.71 143.5,91.53 143.5,109.22 " fill="none" id="FindContainerSituation312Ui-to-FindContainerSituation312Controller" style="stroke:#A80036;stroke-width:1.0;stroke-dasharray:7.0,7.0;"/><polygon fill="#A80036" points="143.5,114.6,147.5,105.6,143.5,109.6,139.5,105.6,143.5,114.6" style="stroke:#A80036;stroke-width:1.0;"/><!--MD5=[41b9ed3be3e8323d99d4a1eb349df9ed]
link FindContainerSituation312Controller to US312Handler--><path codeLine="20" d="M143.5,177.28 C143.5,193.77 143.5,214.26 143.5,231.49 " fill="none" id="FindContainerSituation312Controller-to-US312Handler" style="stroke:#A80036;stroke-width:1.0;stroke-dasharray:7.0,7.0;"/><polygon fill="#A80036" points="143.5,236.73,147.5,227.73,143.5,231.73,139.5,227.73,143.5,236.73" style="stroke:#A80036;stroke-width:1.0;"/><!--MD5=[aab9dac137e2805b3100098a4727ef3a]
link US312Handler to WriteForAFile--><path codeLine="21" d="M143.5,299.28 C143.5,315.77 143.5,336.26 143.5,353.49 " fill="none" id="US312Handler-to-WriteForAFile" style="stroke:#A80036;stroke-width:1.0;stroke-dasharray:7.0,7.0;"/><polygon fill="#A80036" points="143.5,358.73,147.5,349.73,143.5,353.73,139.5,349.73,143.5,358.73" style="stroke:#A80036;stroke-width:1.0;"/><!--MD5=[e2adc178af1093bd89a28e6a5a1cd1da]
@startuml
'https://plantuml.com/class-diagram

class FindContainerSituation312Ui {}

class FindContainerSituation312Controller {
-getContainerLocation(containerNumber, clientId)

}

class US312Handler {
-getContainerLocation(containerNumber, clientId)
}

class WriteForAFile{
-writeForAFile(containerLocation, fileName, filePath)
}


FindContainerSituation312Ui ..> FindContainerSituation312Controller
FindContainerSituation312Controller ..> US312Handler
US312Handler ..> WriteForAFile
@enduml

@startuml

class FindContainerSituation312Ui {}

class FindContainerSituation312Controller {
-getContainerLocation(containerNumber, clientId)

}

class US312Handler {
-getContainerLocation(containerNumber, clientId)
}

class WriteForAFile{
-writeForAFile(containerLocation, fileName, filePath)
}


FindContainerSituation312Ui ..> FindContainerSituation312Controller
FindContainerSituation312Controller ..> US312Handler
US312Handler ..> WriteForAFile
@enduml

PlantUML version 1.2021.16(Wed Dec 08 17:25:22 GMT 2021)
(GPL source distribution)
Java Runtime: OpenJDK Runtime Environment
JVM: OpenJDK 64-Bit Server VM
Default Encoding: Cp1252
Language: pt
Country: BR
--></g></svg>