<?xml version="1.0" encoding="UTF-8" standalone="no"?><svg xmlns="http://www.w3.org/2000/svg" xmlns:xlink="http://www.w3.org/1999/xlink" contentScriptType="application/ecmascript" contentStyleType="text/css" height="398.4px" preserveAspectRatio="none" style="width:606px;height:398px;background:#FFFFFF;" version="1.1" viewBox="0 0 606 398" width="606px" zoomAndPan="magnify"><defs><filter height="300%" id="fdpqotkhs8cwy" width="300%" x="-1" y="-1"><feGaussianBlur result="blurOut" stdDeviation="1.2"/><feColorMatrix in="blurOut" result="blurOut2" type="matrix" values="0 0 0 0 0 0 0 0 0 0 0 0 0 0 0 0 0 0 .4 0"/><feOffset dx="2.4" dy="2.4" in="blurOut2" result="blurOut3"/><feBlend in="SourceGraphic" in2="blurOut3" mode="normal"/></filter></defs><g><rect fill="#FFFFFF" filter="url(#fdpqotkhs8cwy)" height="276.4969" style="stroke:#A80036;stroke-width:0.6;" width="6" x="26.1" y="59.7656"/><rect fill="#FFFFFF" filter="url(#fdpqotkhs8cwy)" height="18.2109" style="stroke:#A80036;stroke-width:0.6;" width="6" x="186.3" y="92.7984"/><rect fill="#FFFFFF" filter="url(#fdpqotkhs8cwy)" height="18.2109" style="stroke:#A80036;stroke-width:0.6;" width="6" x="186.3" y="129.2203"/><rect fill="#FFFFFF" filter="url(#fdpqotkhs8cwy)" height="170.6203" style="stroke:#A80036;stroke-width:0.6;" width="6" x="186.3" y="165.6422"/><rect fill="#FFFFFF" filter="url(#fdpqotkhs8cwy)" height="134.1984" style="stroke:#A80036;stroke-width:0.6;" width="6" x="314.1" y="183.8531"/><rect fill="#FFFFFF" filter="url(#fdpqotkhs8cwy)" height="83.2219" style="stroke:#A80036;stroke-width:0.6;" width="6" x="434.1" y="234.8297"/><rect fill="#FFFFFF" filter="url(#fdpqotkhs8cwy)" height="16.8" style="stroke:#A80036;stroke-width:0.6;" width="6" x="437.1" y="260.8406"/><rect fill="#FFFFFF" filter="url(#fdpqotkhs8cwy)" height="18" style="stroke:#A80036;stroke-width:0.6;" width="6" x="563.1" y="300.0516"/><line style="stroke:#A80036;stroke-width:0.6;stroke-dasharray:5.0,5.0;" x1="28.8" x2="28.8" y1="53.7656" y2="347.0625"/><line style="stroke:#A80036;stroke-width:0.6;stroke-dasharray:5.0,5.0;" x1="189.3" x2="189.3" y1="53.7656" y2="347.0625"/><line style="stroke:#A80036;stroke-width:0.6;stroke-dasharray:5.0,5.0;" x1="317.1" x2="317.1" y1="53.7656" y2="347.0625"/><line style="stroke:#A80036;stroke-width:0.6;stroke-dasharray:5.0,5.0;" x1="437.1" x2="437.1" y1="208.6359" y2="347.0625"/><line style="stroke:#A80036;stroke-width:0.6;stroke-dasharray:5.0,5.0;" x1="565.8" x2="565.8" y1="53.7656" y2="347.0625"/><text fill="#000000" font-family="sans-serif" font-size="8.4" lengthAdjust="spacing" textLength="48.6" x="3" y="51.9199">Ship Captain</text><ellipse cx="29.1" cy="9" fill="#FEFECE" filter="url(#fdpqotkhs8cwy)" rx="4.8" ry="4.8" style="stroke:#A80036;stroke-width:1.2;"/><path d="M29.1,13.8 L29.1,30 M21.3,18.6 L36.9,18.6 M29.1,30 L21.3,39 M29.1,30 L36.9,39 " fill="none" filter="url(#fdpqotkhs8cwy)" style="stroke:#A80036;stroke-width:1.2;"/><text fill="#000000" font-family="sans-serif" font-size="8.4" lengthAdjust="spacing" textLength="48.6" x="3" y="355.1824">Ship Captain</text><ellipse cx="29.1" cy="363.0281" fill="#FEFECE" filter="url(#fdpqotkhs8cwy)" rx="4.8" ry="4.8" style="stroke:#A80036;stroke-width:1.2;"/><path d="M29.1,367.8281 L29.1,384.0281 M21.3,372.6281 L36.9,372.6281 M29.1,384.0281 L21.3,393.0281 M29.1,384.0281 L36.9,393.0281 " fill="none" filter="url(#fdpqotkhs8cwy)" style="stroke:#A80036;stroke-width:1.2;"/><rect fill="#FEFECE" filter="url(#fdpqotkhs8cwy)" height="18.9656" style="stroke:#A80036;stroke-width:0.8999999999999999;" width="104.4" x="135.9" y="31.8"/><text fill="#000000" font-family="sans-serif" font-size="8.4" lengthAdjust="spacing" textLength="96" x="140.1" y="44.7199">:CargoManifestPerYearUI</text><rect fill="#FEFECE" filter="url(#fdpqotkhs8cwy)" height="18.9656" style="stroke:#A80036;stroke-width:0.8999999999999999;" width="104.4" x="135.9" y="346.4625"/><text fill="#000000" font-family="sans-serif" font-size="8.4" lengthAdjust="spacing" textLength="96" x="140.1" y="359.3824">:CargoManifestPerYearUI</text><rect fill="#FEFECE" filter="url(#fdpqotkhs8cwy)" height="18.9656" style="stroke:#A80036;stroke-width:0.8999999999999999;" width="134.4" x="248.7" y="31.8"/><text fill="#000000" font-family="sans-serif" font-size="8.4" lengthAdjust="spacing" textLength="126" x="252.9" y="44.7199">:CargoManifestPerYearController</text><rect fill="#FEFECE" filter="url(#fdpqotkhs8cwy)" height="18.9656" style="stroke:#A80036;stroke-width:0.8999999999999999;" width="134.4" x="248.7" y="346.4625"/><text fill="#000000" font-family="sans-serif" font-size="8.4" lengthAdjust="spacing" textLength="126" x="252.9" y="359.3824">:CargoManifestPerYearController</text><rect fill="#FEFECE" filter="url(#fdpqotkhs8cwy)" height="18.9656" style="stroke:#A80036;stroke-width:0.8999999999999999;" width="36" x="417.9" y="346.4625"/><text fill="#000000" font-family="sans-serif" font-size="8.4" lengthAdjust="spacing" textLength="27.6" x="422.1" y="359.3824">:US207</text><rect fill="#FEFECE" filter="url(#fdpqotkhs8cwy)" height="18.9656" style="stroke:#A80036;stroke-width:0.8999999999999999;" width="65.4" x="532.2" y="31.8"/><text fill="#000000" font-family="sans-serif" font-size="8.4" lengthAdjust="spacing" textLength="57" x="536.4" y="44.7199">: WriteForAFile</text><rect fill="#FEFECE" filter="url(#fdpqotkhs8cwy)" height="18.9656" style="stroke:#A80036;stroke-width:0.8999999999999999;" width="65.4" x="532.2" y="346.4625"/><text fill="#000000" font-family="sans-serif" font-size="8.4" lengthAdjust="spacing" textLength="57" x="536.4" y="359.3824">: WriteForAFile</text><rect fill="#FFFFFF" filter="url(#fdpqotkhs8cwy)" height="276.4969" style="stroke:#A80036;stroke-width:0.6;" width="6" x="26.1" y="59.7656"/><rect fill="#FFFFFF" filter="url(#fdpqotkhs8cwy)" height="18.2109" style="stroke:#A80036;stroke-width:0.6;" width="6" x="186.3" y="92.7984"/><rect fill="#FFFFFF" filter="url(#fdpqotkhs8cwy)" height="18.2109" style="stroke:#A80036;stroke-width:0.6;" width="6" x="186.3" y="129.2203"/><rect fill="#FFFFFF" filter="url(#fdpqotkhs8cwy)" height="170.6203" style="stroke:#A80036;stroke-width:0.6;" width="6" x="186.3" y="165.6422"/><rect fill="#FFFFFF" filter="url(#fdpqotkhs8cwy)" height="134.1984" style="stroke:#A80036;stroke-width:0.6;" width="6" x="314.1" y="183.8531"/><rect fill="#FFFFFF" filter="url(#fdpqotkhs8cwy)" height="83.2219" style="stroke:#A80036;stroke-width:0.6;" width="6" x="434.1" y="234.8297"/><rect fill="#FFFFFF" filter="url(#fdpqotkhs8cwy)" height="16.8" style="stroke:#A80036;stroke-width:0.6;" width="6" x="437.1" y="260.8406"/><rect fill="#FFFFFF" filter="url(#fdpqotkhs8cwy)" height="18" style="stroke:#A80036;stroke-width:0.6;" width="6" x="563.1" y="300.0516"/><polygon fill="#A80036" points="179.1,90.3984,185.1,92.7984,179.1,95.1984,181.5,92.7984" style="stroke:#A80036;stroke-width:0.6;"/><line style="stroke:#A80036;stroke-width:0.6;" x1="32.1" x2="182.7" y1="92.7984" y2="92.7984"/><text fill="#000000" font-family="sans-serif" font-size="7.8" lengthAdjust="spacing" textLength="135" x="36.3" y="70.2627">starts the requisition of mean container</text><text fill="#000000" font-family="sans-serif" font-size="7.8" lengthAdjust="spacing" textLength="138" x="38.7" y="80.0736">per cargo manifest and the total number</text><text fill="#000000" font-family="sans-serif" font-size="7.8" lengthAdjust="spacing" textLength="90" x="36.3" y="89.8846">of cargo manifest per year</text><polygon fill="#A80036" points="38.7,108.6094,32.7,111.0094,38.7,113.4094,36.3,111.0094" style="stroke:#A80036;stroke-width:0.6;"/><line style="stroke:#A80036;stroke-width:0.6;stroke-dasharray:2.0,2.0;" x1="35.1" x2="188.7" y1="111.0094" y2="111.0094"/><text fill="#000000" font-family="sans-serif" font-size="7.8" lengthAdjust="spacing" textLength="109.2" x="42.3" y="108.0955">asks the mmsi code of the ship</text><polygon fill="#A80036" points="179.1,126.8203,185.1,129.2203,179.1,131.6203,181.5,129.2203" style="stroke:#A80036;stroke-width:0.6;"/><line style="stroke:#A80036;stroke-width:0.6;" x1="32.1" x2="182.7" y1="129.2203" y2="129.2203"/><text fill="#000000" font-family="sans-serif" font-size="7.8" lengthAdjust="spacing" textLength="69" x="36.3" y="126.3064">type the mmsi code</text><polygon fill="#A80036" points="38.7,145.0313,32.7,147.4313,38.7,149.8312,36.3,147.4313" style="stroke:#A80036;stroke-width:0.6;"/><line style="stroke:#A80036;stroke-width:0.6;stroke-dasharray:2.0,2.0;" x1="35.1" x2="188.7" y1="147.4313" y2="147.4313"/><text fill="#000000" font-family="sans-serif" font-size="7.8" lengthAdjust="spacing" textLength="118.2" x="42.3" y="144.5174">ask the year of the cargo manifest</text><polygon fill="#A80036" points="179.1,163.2422,185.1,165.6422,179.1,168.0422,181.5,165.6422" style="stroke:#A80036;stroke-width:0.6;"/><line style="stroke:#A80036;stroke-width:0.6;" x1="32.1" x2="182.7" y1="165.6422" y2="165.6422"/><text fill="#000000" font-family="sans-serif" font-size="7.8" lengthAdjust="spacing" textLength="45.6" x="36.3" y="162.7283">type the year</text><polygon fill="#A80036" points="306.9,181.4531,312.9,183.8531,306.9,186.2531,309.3,183.8531" style="stroke:#A80036;stroke-width:0.6;"/><line style="stroke:#A80036;stroke-width:0.6;" x1="192.3" x2="310.5" y1="183.8531" y2="183.8531"/><text fill="#000000" font-family="sans-serif" font-size="7.8" lengthAdjust="spacing" textLength="106.8" x="196.5" y="180.9393">createUS207(year, mmsiCode)</text><polygon fill="#A80036" points="410.7,199.6641,416.7,202.0641,410.7,204.4641,413.1,202.0641" style="stroke:#A80036;stroke-width:0.6;"/><line style="stroke:#A80036;stroke-width:0.6;" x1="320.1" x2="414.3" y1="202.0641" y2="202.0641"/><text fill="#000000" font-family="sans-serif" font-size="7.8" lengthAdjust="spacing" textLength="83.4" x="324.3" y="199.1502">create(year, mmsiCode)</text><rect fill="#FEFECE" filter="url(#fdpqotkhs8cwy)" height="18.9656" style="stroke:#A80036;stroke-width:0.8999999999999999;" width="36" x="417.9" y="188.6531"/><text fill="#000000" font-family="sans-serif" font-size="8.4" lengthAdjust="spacing" textLength="27.6" x="422.1" y="201.573">:US207</text><line style="stroke:#A80036;stroke-width:0.6;" x1="437.1" x2="465.3" y1="227.0297" y2="227.0297"/><line style="stroke:#A80036;stroke-width:0.6;" x1="465.3" x2="465.3" y1="227.0297" y2="234.8297"/><line style="stroke:#A80036;stroke-width:0.6;" x1="440.7" x2="465.3" y1="234.8297" y2="234.8297"/><polygon fill="#A80036" points="446.7,232.4297,440.7,234.8297,446.7,237.2297,444.3,234.8297" style="stroke:#A80036;stroke-width:0.6;"/><text fill="#000000" font-family="sans-serif" font-size="7.8" lengthAdjust="spacing" textLength="90" x="444.3" y="224.1158">initialize(year, mmsiCode)</text><line style="stroke:#A80036;stroke-width:0.6;" x1="443.1" x2="468.3" y1="256.0406" y2="256.0406"/><line style="stroke:#A80036;stroke-width:0.6;" x1="468.3" x2="468.3" y1="256.0406" y2="263.8406"/><line style="stroke:#A80036;stroke-width:0.6;" x1="443.7" x2="468.3" y1="263.8406" y2="263.8406"/><polygon fill="#A80036" points="449.7,261.4406,443.7,263.8406,449.7,266.2406,447.3,263.8406" style="stroke:#A80036;stroke-width:0.6;"/><text fill="#000000" font-family="sans-serif" font-size="7.8" lengthAdjust="spacing" textLength="102.6" x="447.3" y="253.1268">textualInformation = toString()</text><polygon fill="#A80036" points="555.9,297.6516,561.9,300.0516,555.9,302.4516,558.3,300.0516" style="stroke:#A80036;stroke-width:0.6;"/><line style="stroke:#A80036;stroke-width:0.6;" x1="440.1" x2="559.5" y1="300.0516" y2="300.0516"/><text fill="#000000" font-family="sans-serif" font-size="7.8" lengthAdjust="spacing" textLength="111.6" x="444.3" y="297.1377">writeForAFile(textualInformation)</text><polygon fill="#A80036" points="35.7,333.8625,29.7,336.2625,35.7,338.6625,33.3,336.2625" style="stroke:#A80036;stroke-width:0.6;"/><line style="stroke:#A80036;stroke-width:0.6;stroke-dasharray:2.0,2.0;" x1="32.1" x2="188.7" y1="336.2625" y2="336.2625"/><text fill="#000000" font-family="sans-serif" font-size="7.8" lengthAdjust="spacing" textLength="52.8" x="39.3" y="333.3486">show the result</text><!--MD5=[021e56de62e345f517969cc6777fcc78]
@startuml
'https://plantuml.com/class-diagram

actor "Ship Captain" as SC
participant ":CargoManifestPerYearUI" as UI
participant ":CargoManifestPerYearController" as CT
participant ":US207" as US
participant ": WriteForAFile" as WF



activate SC
SC -> UI : starts the requisition of mean container \n per cargo manifest and the total number \nof cargo manifest per year
activate UI
UI - -> SC : asks the mmsi code of the ship
deactivate UI
SC -> UI : type the mmsi code
activate UI
UI - -> SC : ask the year of the cargo manifest

deactivate UI
SC->UI : type the year

activate UI
UI->CT : createUS207(year, mmsiCode)
activate CT


CT -> US** : create(year, mmsiCode)

US -> US: initialize(year, mmsiCode)
activate US

US -> US : textualInformation = toString()
activate US 
deactivate US
US -> WF : writeForAFile(textualInformation)

activate WF
deactivate WF

deactivate US

deactivate CT
UI- ->SC : show the result
deactivate UI
deactivate SC
@enduml

@startuml

actor "Ship Captain" as SC
participant ":CargoManifestPerYearUI" as UI
participant ":CargoManifestPerYearController" as CT
participant ":US207" as US
participant ": WriteForAFile" as WF



activate SC
SC -> UI : starts the requisition of mean container \n per cargo manifest and the total number \nof cargo manifest per year
activate UI
UI - -> SC : asks the mmsi code of the ship
deactivate UI
SC -> UI : type the mmsi code
activate UI
UI - -> SC : ask the year of the cargo manifest

deactivate UI
SC->UI : type the year

activate UI
UI->CT : createUS207(year, mmsiCode)
activate CT


CT -> US** : create(year, mmsiCode)

US -> US: initialize(year, mmsiCode)
activate US

US -> US : textualInformation = toString()
activate US 
deactivate US
US -> WF : writeForAFile(textualInformation)

activate WF
deactivate WF

deactivate US

deactivate CT
UI- ->SC : show the result
deactivate UI
deactivate SC
@enduml

PlantUML version 1.2021.11(Sat Oct 02 14:26:11 BST 2021)
(GPL source distribution)
Java Runtime: OpenJDK Runtime Environment
JVM: OpenJDK 64-Bit Server VM
Default Encoding: Cp1252
Language: pt
Country: PT
--></g></svg>