<?xml version="1.0" encoding="UTF-8" standalone="no"?><svg xmlns="http://www.w3.org/2000/svg" xmlns:xlink="http://www.w3.org/1999/xlink" contentScriptType="application/ecmascript" contentStyleType="text/css" height="345px" preserveAspectRatio="none" style="width:434px;height:345px;background:#FFFFFF;" version="1.1" viewBox="0 0 434 345" width="434px" zoomAndPan="magnify"><defs><filter height="300%" id="f1oyd79ofesmsy" width="300%" x="-1" y="-1"><feGaussianBlur result="blurOut" stdDeviation="2.0"/><feColorMatrix in="blurOut" result="blurOut2" type="matrix" values="0 0 0 0 0 0 0 0 0 0 0 0 0 0 0 0 0 0 .4 0"/><feOffset dx="4.0" dy="4.0" in="blurOut2" result="blurOut3"/><feBlend in="SourceGraphic" in2="blurOut3" mode="normal"/></filter></defs><g><!--MD5=[87e3da244db8eade259da682573a171a]
class CargoManifestPerYearUI--><rect codeLine="3" fill="#FEFECE" filter="url(#f1oyd79ofesmsy)" height="48" id="CargoManifestPerYearUI" style="stroke:#A80036;stroke-width:1.5;" width="168" x="28" y="7"/><ellipse cx="43" cy="23" fill="#ADD1B2" rx="11" ry="11" style="stroke:#A80036;stroke-width:1.0;"/><path d="M45,19.5 Q45.2031,19 45.4375,18.75 Q45.6719,18.5 45.9375,18.5 Q46.4063,18.5 46.7031,18.7813 Q47,19.0625 47,19.7188 L47,21.2813 Q47,21.9375 46.7188,22.2188 Q46.4375,22.5 46,22.5 Q45.6094,22.5 45.3594,22.3281 Q45.1094,22.1563 45,21.7031 Q44.9531,21.3906 44.7813,21.2188 Q44.4688,20.8906 43.9063,20.7031 Q43.3438,20.5 42.7813,20.5 Q42.0781,20.5 41.4844,20.7813 Q40.9063,21.0625 40.4531,21.6875 Q40,22.3125 40,23.1719 L40,24.0938 Q40,25.125 40.8438,25.8125 Q41.6875,26.5 43.1875,26.5 Q44.0781,26.5 44.7031,26.2969 Q45.0625,26.1875 45.4688,25.8281 Q45.7344,25.625 45.875,25.5625 Q46.0156,25.5 46.1875,25.5 Q46.5156,25.5 46.75,25.7656 Q47,26.0156 47,26.375 Q47,26.7188 46.6563,27.125 Q46.1563,27.7188 45.3594,28.0469 Q44.3125,28.5 43.0313,28.5 Q41.5313,28.5 40.3281,27.9063 Q39.3594,27.4375 38.6719,26.4219 Q38,25.4063 38,24.2031 L38,23.1094 Q38,21.8594 38.5938,20.7656 Q39.2031,19.6719 40.25,19.0938 Q41.3125,18.5 42.5,18.5 Q43.2188,18.5 43.8438,18.75 Q44.4688,19 45,19.5 Z " fill="#000000"/><text fill="#000000" font-family="sans-serif" font-size="12" lengthAdjust="spacing" textLength="136" x="57" y="27.9102">CargoManifestPerYearUI</text><line style="stroke:#A80036;stroke-width:1.5;" x1="29" x2="195" y1="39" y2="39"/><line style="stroke:#A80036;stroke-width:1.5;" x1="29" x2="195" y1="47" y2="47"/><!--MD5=[e4700ca012c676064232e4f97ac67d5f]
class CargoManifestPerYearController--><rect codeLine="7" fill="#FEFECE" filter="url(#f1oyd79ofesmsy)" height="61.8359" id="CargoManifestPerYearController" style="stroke:#A80036;stroke-width:1.5;" width="210" x="7" y="123"/><ellipse cx="22" cy="139" fill="#ADD1B2" rx="11" ry="11" style="stroke:#A80036;stroke-width:1.0;"/><path d="M24,135.5 Q24.2031,135 24.4375,134.75 Q24.6719,134.5 24.9375,134.5 Q25.4063,134.5 25.7031,134.7813 Q26,135.0625 26,135.7188 L26,137.2813 Q26,137.9375 25.7188,138.2188 Q25.4375,138.5 25,138.5 Q24.6094,138.5 24.3594,138.3281 Q24.1094,138.1563 24,137.7031 Q23.9531,137.3906 23.7813,137.2188 Q23.4688,136.8906 22.9063,136.7031 Q22.3438,136.5 21.7813,136.5 Q21.0781,136.5 20.4844,136.7813 Q19.9063,137.0625 19.4531,137.6875 Q19,138.3125 19,139.1719 L19,140.0938 Q19,141.125 19.8438,141.8125 Q20.6875,142.5 22.1875,142.5 Q23.0781,142.5 23.7031,142.2969 Q24.0625,142.1875 24.4688,141.8281 Q24.7344,141.625 24.875,141.5625 Q25.0156,141.5 25.1875,141.5 Q25.5156,141.5 25.75,141.7656 Q26,142.0156 26,142.375 Q26,142.7188 25.6563,143.125 Q25.1563,143.7188 24.3594,144.0469 Q23.3125,144.5 22.0313,144.5 Q20.5313,144.5 19.3281,143.9063 Q18.3594,143.4375 17.6719,142.4219 Q17,141.4063 17,140.2031 L17,139.1094 Q17,137.8594 17.5938,136.7656 Q18.2031,135.6719 19.25,135.0938 Q20.3125,134.5 21.5,134.5 Q22.2188,134.5 22.8438,134.75 Q23.4688,135 24,135.5 Z " fill="#000000"/><text fill="#000000" font-family="sans-serif" font-size="12" lengthAdjust="spacing" textLength="178" x="36" y="143.9102">CargoManifestPerYearController</text><line style="stroke:#A80036;stroke-width:1.5;" x1="8" x2="216" y1="155" y2="155"/><line style="stroke:#A80036;stroke-width:1.5;" x1="8" x2="216" y1="163" y2="163"/><ellipse cx="18" cy="174" fill="#84BE84" rx="3" ry="3" style="stroke:#038048;stroke-width:1.0;"/><text fill="#000000" font-family="sans-serif" font-size="11" lengthAdjust="spacing" textLength="148" x="27" y="178.4189">createUS207(year, mmsiCode)</text><!--MD5=[9195c4ef4471d071d96680d51050e473]
class US207--><rect codeLine="12" fill="#FEFECE" filter="url(#f1oyd79ofesmsy)" height="75.6719" id="US207" style="stroke:#A80036;stroke-width:1.5;" width="148" x="252" y="116"/><ellipse cx="302.75" cy="132" fill="#ADD1B2" rx="11" ry="11" style="stroke:#A80036;stroke-width:1.0;"/><path d="M304.75,128.5 Q304.9531,128 305.1875,127.75 Q305.4219,127.5 305.6875,127.5 Q306.1563,127.5 306.4531,127.7813 Q306.75,128.0625 306.75,128.7188 L306.75,130.2813 Q306.75,130.9375 306.4688,131.2188 Q306.1875,131.5 305.75,131.5 Q305.3594,131.5 305.1094,131.3281 Q304.8594,131.1563 304.75,130.7031 Q304.7031,130.3906 304.5313,130.2188 Q304.2188,129.8906 303.6563,129.7031 Q303.0938,129.5 302.5313,129.5 Q301.8281,129.5 301.2344,129.7813 Q300.6563,130.0625 300.2031,130.6875 Q299.75,131.3125 299.75,132.1719 L299.75,133.0938 Q299.75,134.125 300.5938,134.8125 Q301.4375,135.5 302.9375,135.5 Q303.8281,135.5 304.4531,135.2969 Q304.8125,135.1875 305.2188,134.8281 Q305.4844,134.625 305.625,134.5625 Q305.7656,134.5 305.9375,134.5 Q306.2656,134.5 306.5,134.7656 Q306.75,135.0156 306.75,135.375 Q306.75,135.7188 306.4063,136.125 Q305.9063,136.7188 305.1094,137.0469 Q304.0625,137.5 302.7813,137.5 Q301.2813,137.5 300.0781,136.9063 Q299.1094,136.4375 298.4219,135.4219 Q297.75,134.4063 297.75,133.2031 L297.75,132.1094 Q297.75,130.8594 298.3438,129.7656 Q298.9531,128.6719 300,128.0938 Q301.0625,127.5 302.25,127.5 Q302.9688,127.5 303.5938,127.75 Q304.2188,128 304.75,128.5 Z " fill="#000000"/><text fill="#000000" font-family="sans-serif" font-size="12" lengthAdjust="spacing" textLength="38" x="323.25" y="136.9102">US207</text><line style="stroke:#A80036;stroke-width:1.5;" x1="253" x2="399" y1="148" y2="148"/><line style="stroke:#A80036;stroke-width:1.5;" x1="253" x2="399" y1="156" y2="156"/><rect fill="#F24D5C" height="6" style="stroke:#C82930;stroke-width:1.0;" width="6" x="260" y="164"/><text fill="#000000" font-family="sans-serif" font-size="11" lengthAdjust="spacing" textLength="122" x="272" y="171.4189">initialize(year, mmsiCode)</text><ellipse cx="263" cy="180.8359" fill="#84BE84" rx="3" ry="3" style="stroke:#038048;stroke-width:1.0;"/><text fill="#000000" font-family="sans-serif" font-size="11" lengthAdjust="spacing" textLength="45" x="272" y="185.2549">toString()</text><!--MD5=[c4c1f95cf25890b8d906953e22c853cc]
class WriteForAFile--><rect codeLine="18" fill="#FEFECE" filter="url(#f1oyd79ofesmsy)" height="61.8359" id="WriteForAFile" style="stroke:#A80036;stroke-width:1.5;" width="188" x="232" y="270"/><ellipse cx="285.25" cy="286" fill="#ADD1B2" rx="11" ry="11" style="stroke:#A80036;stroke-width:1.0;"/><path d="M287.25,282.5 Q287.4531,282 287.6875,281.75 Q287.9219,281.5 288.1875,281.5 Q288.6563,281.5 288.9531,281.7813 Q289.25,282.0625 289.25,282.7188 L289.25,284.2813 Q289.25,284.9375 288.9688,285.2188 Q288.6875,285.5 288.25,285.5 Q287.8594,285.5 287.6094,285.3281 Q287.3594,285.1563 287.25,284.7031 Q287.2031,284.3906 287.0313,284.2188 Q286.7188,283.8906 286.1563,283.7031 Q285.5938,283.5 285.0313,283.5 Q284.3281,283.5 283.7344,283.7813 Q283.1563,284.0625 282.7031,284.6875 Q282.25,285.3125 282.25,286.1719 L282.25,287.0938 Q282.25,288.125 283.0938,288.8125 Q283.9375,289.5 285.4375,289.5 Q286.3281,289.5 286.9531,289.2969 Q287.3125,289.1875 287.7188,288.8281 Q287.9844,288.625 288.125,288.5625 Q288.2656,288.5 288.4375,288.5 Q288.7656,288.5 289,288.7656 Q289.25,289.0156 289.25,289.375 Q289.25,289.7188 288.9063,290.125 Q288.4063,290.7188 287.6094,291.0469 Q286.5625,291.5 285.2813,291.5 Q283.7813,291.5 282.5781,290.9063 Q281.6094,290.4375 280.9219,289.4219 Q280.25,288.4063 280.25,287.2031 L280.25,286.1094 Q280.25,284.8594 280.8438,283.7656 Q281.4531,282.6719 282.5,282.0938 Q283.5625,281.5 284.75,281.5 Q285.4688,281.5 286.0938,281.75 Q286.7188,282 287.25,282.5 Z " fill="#000000"/><text fill="#000000" font-family="sans-serif" font-size="12" lengthAdjust="spacing" textLength="73" x="305.75" y="290.9102">WriteForAFile</text><line style="stroke:#A80036;stroke-width:1.5;" x1="233" x2="419" y1="302" y2="302"/><line style="stroke:#A80036;stroke-width:1.5;" x1="233" x2="419" y1="310" y2="310"/><ellipse cx="243" cy="321" fill="#84BE84" rx="3" ry="3" style="stroke:#038048;stroke-width:1.0;"/><text fill="#000000" font-family="sans-serif" font-size="11" lengthAdjust="spacing" textLength="162" x="252" y="325.4189">writeForAFiLe(textualInformation)</text><!--MD5=[b2004ed1fc7d0974be5b538f0aa6b0c6]
link CargoManifestPerYearUI to CargoManifestPerYearController--><path codeLine="24" d="M112,55.04 C112,72.74 112,97.49 112,117.69 " fill="none" id="CargoManifestPerYearUI-to-CargoManifestPerYearController" style="stroke:#A80036;stroke-width:1.0;stroke-dasharray:7.0,7.0;"/><polygon fill="#A80036" points="112,122.72,116,113.72,112,117.72,108,113.72,112,122.72" style="stroke:#A80036;stroke-width:1.0;"/><!--MD5=[c18c401830d7d3982b6e17fa0d18b9b1]
link CargoManifestPerYearController to US207--><path codeLine="25" d="M217.33,154 C227.09,154 236.85,154 246.61,154 " fill="none" id="CargoManifestPerYearController-to-US207" style="stroke:#A80036;stroke-width:1.0;"/><polygon fill="#A80036" points="251.71,154,242.71,150,246.71,154,242.71,158,251.71,154" style="stroke:#A80036;stroke-width:1.0;"/><!--MD5=[9810c75e358931525021d9b9a7281aea]
link US207 to WriteForAFile--><path codeLine="26" d="M326,192.34 C326,214.56 326,242.59 326,264.48 " fill="none" id="US207-to-WriteForAFile" style="stroke:#A80036;stroke-width:1.0;"/><polygon fill="#A80036" points="326,269.62,330,260.62,326,264.62,322,260.62,326,269.62" style="stroke:#A80036;stroke-width:1.0;"/><text fill="#000000" font-family="sans-serif" font-size="13" lengthAdjust="spacing" textLength="28" x="327" y="236.4951">uses</text><!--MD5=[dcef8f82af6138b6c0a4b54414340cb2]
@startuml
'https://plantuml.com/class-diagram

class CargoManifestPerYearUI{

}

class CargoManifestPerYearController{
+ createUS207(year, mmsiCode)
}


class US207 {
- initialize(year, mmsiCode)
+ toString()

}

class WriteForAFile{
+ writeForAFiLe(textualInformation)

}


CargoManifestPerYearUI ..> CargoManifestPerYearController
CargoManifestPerYearController -> US207
US207 - -> WriteForAFile : uses 

@enduml

@startuml

class CargoManifestPerYearUI{

}

class CargoManifestPerYearController{
+ createUS207(year, mmsiCode)
}


class US207 {
- initialize(year, mmsiCode)
+ toString()

}

class WriteForAFile{
+ writeForAFiLe(textualInformation)

}


CargoManifestPerYearUI ..> CargoManifestPerYearController
CargoManifestPerYearController -> US207
US207 - -> WriteForAFile : uses 

@enduml

PlantUML version 1.2021.11(Sat Oct 02 14:26:11 BST 2021)
(GPL source distribution)
Java Runtime: OpenJDK Runtime Environment
JVM: OpenJDK 64-Bit Server VM
Default Encoding: Cp1252
Language: pt
Country: PT
--></g></svg>