<?xml version="1.0" encoding="UTF-8" standalone="no"?><svg xmlns="http://www.w3.org/2000/svg" xmlns:xlink="http://www.w3.org/1999/xlink" contentScriptType="application/ecmascript" contentStyleType="text/css" height="410px" preserveAspectRatio="none" style="width:357px;height:410px;background:#FFFFFF;" version="1.1" viewBox="0 0 357 410" width="357px" zoomAndPan="magnify"><defs><filter height="300%" id="fdtnzekatp1ow" width="300%" x="-1" y="-1"><feGaussianBlur result="blurOut" stdDeviation="2.0"/><feColorMatrix in="blurOut" result="blurOut2" type="matrix" values="0 0 0 0 0 0 0 0 0 0 0 0 0 0 0 0 0 0 .4 0"/><feOffset dx="4.0" dy="4.0" in="blurOut2" result="blurOut3"/><feBlend in="SourceGraphic" in2="blurOut3" mode="normal"/></filter></defs><g><rect fill="#FFFFFF" filter="url(#fdtnzekatp1ow)" height="206.8125" style="stroke:#A80036;stroke-width:1.0;" width="10" x="43.5" y="99.6094"/><rect fill="#FFFFFF" filter="url(#fdtnzekatp1ow)" height="30.3516" style="stroke:#A80036;stroke-width:1.0;" width="10" x="310.5" y="154.6641"/><rect fill="#FFFFFF" filter="url(#fdtnzekatp1ow)" height="30.3516" style="stroke:#A80036;stroke-width:1.0;" width="10" x="310.5" y="215.3672"/><rect fill="#FFFFFF" filter="url(#fdtnzekatp1ow)" height="30.3516" style="stroke:#A80036;stroke-width:1.0;" width="10" x="310.5" y="276.0703"/><line style="stroke:#A80036;stroke-width:1.0;stroke-dasharray:5.0,5.0;" x1="48" x2="48" y1="89.6094" y2="324.4219"/><line style="stroke:#A80036;stroke-width:1.0;stroke-dasharray:5.0,5.0;" x1="315.5" x2="315.5" y1="89.6094" y2="324.4219"/><text fill="#000000" font-family="sans-serif" font-size="14" lengthAdjust="spacing" textLength="81" x="5" y="86.5332">Ship Captain</text><ellipse cx="48.5" cy="15" fill="#FEFECE" filter="url(#fdtnzekatp1ow)" rx="8" ry="8" style="stroke:#A80036;stroke-width:2.0;"/><path d="M48.5,23 L48.5,50 M35.5,31 L61.5,31 M48.5,50 L35.5,65 M48.5,50 L61.5,65 " fill="none" filter="url(#fdtnzekatp1ow)" style="stroke:#A80036;stroke-width:2.0;"/><text fill="#000000" font-family="sans-serif" font-size="14" lengthAdjust="spacing" textLength="81" x="5" y="337.9551">Ship Captain</text><ellipse cx="48.5" cy="351.0313" fill="#FEFECE" filter="url(#fdtnzekatp1ow)" rx="8" ry="8" style="stroke:#A80036;stroke-width:2.0;"/><path d="M48.5,359.0313 L48.5,386.0313 M35.5,367.0313 L61.5,367.0313 M48.5,386.0313 L35.5,401.0313 M48.5,386.0313 L61.5,401.0313 " fill="none" filter="url(#fdtnzekatp1ow)" style="stroke:#A80036;stroke-width:2.0;"/><rect fill="#FEFECE" filter="url(#fdtnzekatp1ow)" height="31.6094" style="stroke:#A80036;stroke-width:1.5;" width="60" x="283.5" y="53"/><text fill="#000000" font-family="sans-serif" font-size="14" lengthAdjust="spacing" textLength="46" x="290.5" y="74.5332">System</text><rect fill="#FEFECE" filter="url(#fdtnzekatp1ow)" height="31.6094" style="stroke:#A80036;stroke-width:1.5;" width="60" x="283.5" y="323.4219"/><text fill="#000000" font-family="sans-serif" font-size="14" lengthAdjust="spacing" textLength="46" x="290.5" y="344.9551">System</text><rect fill="#FFFFFF" filter="url(#fdtnzekatp1ow)" height="206.8125" style="stroke:#A80036;stroke-width:1.0;" width="10" x="43.5" y="99.6094"/><rect fill="#FFFFFF" filter="url(#fdtnzekatp1ow)" height="30.3516" style="stroke:#A80036;stroke-width:1.0;" width="10" x="310.5" y="154.6641"/><rect fill="#FFFFFF" filter="url(#fdtnzekatp1ow)" height="30.3516" style="stroke:#A80036;stroke-width:1.0;" width="10" x="310.5" y="215.3672"/><rect fill="#FFFFFF" filter="url(#fdtnzekatp1ow)" height="30.3516" style="stroke:#A80036;stroke-width:1.0;" width="10" x="310.5" y="276.0703"/><polygon fill="#A80036" points="298.5,150.6641,308.5,154.6641,298.5,158.6641,302.5,154.6641" style="stroke:#A80036;stroke-width:1.0;"/><line style="stroke:#A80036;stroke-width:1.0;" x1="53.5" x2="304.5" y1="154.6641" y2="154.6641"/><text fill="#000000" font-family="sans-serif" font-size="13" lengthAdjust="spacing" textLength="225" x="60.5" y="117.1045">starts the requisition of mean container</text><text fill="#000000" font-family="sans-serif" font-size="13" lengthAdjust="spacing" textLength="230" x="64.5" y="133.4561">per cargo manifest and the total number</text><text fill="#000000" font-family="sans-serif" font-size="13" lengthAdjust="spacing" textLength="150" x="60.5" y="149.8076">of cargo manifest per year</text><polygon fill="#A80036" points="64.5,181.0156,54.5,185.0156,64.5,189.0156,60.5,185.0156" style="stroke:#A80036;stroke-width:1.0;"/><line style="stroke:#A80036;stroke-width:1.0;stroke-dasharray:2.0,2.0;" x1="58.5" x2="314.5" y1="185.0156" y2="185.0156"/><text fill="#000000" font-family="sans-serif" font-size="13" lengthAdjust="spacing" textLength="182" x="70.5" y="180.1592">asks the mmsi code of the ship</text><polygon fill="#A80036" points="298.5,211.3672,308.5,215.3672,298.5,219.3672,302.5,215.3672" style="stroke:#A80036;stroke-width:1.0;"/><line style="stroke:#A80036;stroke-width:1.0;" x1="53.5" x2="304.5" y1="215.3672" y2="215.3672"/><text fill="#000000" font-family="sans-serif" font-size="13" lengthAdjust="spacing" textLength="115" x="60.5" y="210.5107">type the mmsi code</text><polygon fill="#A80036" points="64.5,241.7188,54.5,245.7188,64.5,249.7188,60.5,245.7188" style="stroke:#A80036;stroke-width:1.0;"/><line style="stroke:#A80036;stroke-width:1.0;stroke-dasharray:2.0,2.0;" x1="58.5" x2="314.5" y1="245.7188" y2="245.7188"/><text fill="#000000" font-family="sans-serif" font-size="13" lengthAdjust="spacing" textLength="197" x="70.5" y="240.8623">ask the year of the cargo manifest</text><polygon fill="#A80036" points="298.5,272.0703,308.5,276.0703,298.5,280.0703,302.5,276.0703" style="stroke:#A80036;stroke-width:1.0;"/><line style="stroke:#A80036;stroke-width:1.0;" x1="53.5" x2="304.5" y1="276.0703" y2="276.0703"/><text fill="#000000" font-family="sans-serif" font-size="13" lengthAdjust="spacing" textLength="76" x="60.5" y="271.2139">type the year</text><polygon fill="#A80036" points="59.5,302.4219,49.5,306.4219,59.5,310.4219,55.5,306.4219" style="stroke:#A80036;stroke-width:1.0;"/><line style="stroke:#A80036;stroke-width:1.0;stroke-dasharray:2.0,2.0;" x1="53.5" x2="314.5" y1="306.4219" y2="306.4219"/><text fill="#000000" font-family="sans-serif" font-size="13" lengthAdjust="spacing" textLength="88" x="65.5" y="301.5654">show the result</text><!--MD5=[245eed58a114ff41ee2b762c75380ec7]
@startuml
'https://plantuml.com/class-diagram
actor "Ship Captain" as SC
participant "System" as SY

activate SC
SC -> SY : starts the requisition of mean container \n per cargo manifest and the total number \nof cargo manifest per year
activate SY
SY - -> SC : asks the mmsi code of the ship
deactivate SY
SC -> SY : type the mmsi code
activate SY
SY - -> SC : ask the year of the cargo manifest
deactivate SY
SC->SY : type the year
activate SY
SY- ->SC : show the result
deactivate SY
deactivate SC
@enduml

@startuml
actor "Ship Captain" as SC
participant "System" as SY

activate SC
SC -> SY : starts the requisition of mean container \n per cargo manifest and the total number \nof cargo manifest per year
activate SY
SY - -> SC : asks the mmsi code of the ship
deactivate SY
SC -> SY : type the mmsi code
activate SY
SY - -> SC : ask the year of the cargo manifest
deactivate SY
SC->SY : type the year
activate SY
SY- ->SC : show the result
deactivate SY
deactivate SC
@enduml

PlantUML version 1.2021.11(Sat Oct 02 14:26:11 BST 2021)
(GPL source distribution)
Java Runtime: OpenJDK Runtime Environment
JVM: OpenJDK 64-Bit Server VM
Default Encoding: Cp1252
Language: pt
Country: PT
--></g></svg>