<?xml version="1.0" encoding="UTF-8" standalone="no"?><svg xmlns="http://www.w3.org/2000/svg" xmlns:xlink="http://www.w3.org/1999/xlink" contentScriptType="application/ecmascript" contentStyleType="text/css" height="311px" preserveAspectRatio="none" style="width:1005px;height:311px;background:#FFFFFF;" version="1.1" viewBox="0 0 1005 311" width="1005px" zoomAndPan="magnify"><defs><filter height="300%" id="f13wekixpj9n75" width="300%" x="-1" y="-1"><feGaussianBlur result="blurOut" stdDeviation="2.0"/><feColorMatrix in="blurOut" result="blurOut2" type="matrix" values="0 0 0 0 0 0 0 0 0 0 0 0 0 0 0 0 0 0 .4 0"/><feOffset dx="4.0" dy="4.0" in="blurOut2" result="blurOut3"/><feBlend in="SourceGraphic" in2="blurOut3" mode="normal"/></filter></defs><g><!--MD5=[0dc7f2ddb409b58bcf52b12238c25399]
class Ship--><rect codeLine="4" fill="#FEFECE" filter="url(#f13wekixpj9n75)" height="200.1953" id="Ship" style="stroke:#A80036;stroke-width:1.5;" width="151" x="190" y="7"/><ellipse cx="248.75" cy="23" fill="#ADD1B2" rx="11" ry="11" style="stroke:#A80036;stroke-width:1.0;"/><path d="M250.75,19.5 Q250.9531,19 251.1875,18.75 Q251.4219,18.5 251.6875,18.5 Q252.1563,18.5 252.4531,18.7813 Q252.75,19.0625 252.75,19.7188 L252.75,21.2813 Q252.75,21.9375 252.4688,22.2188 Q252.1875,22.5 251.75,22.5 Q251.3594,22.5 251.1094,22.3281 Q250.8594,22.1563 250.75,21.7031 Q250.7031,21.3906 250.5313,21.2188 Q250.2188,20.8906 249.6563,20.7031 Q249.0938,20.5 248.5313,20.5 Q247.8281,20.5 247.2344,20.7813 Q246.6563,21.0625 246.2031,21.6875 Q245.75,22.3125 245.75,23.1719 L245.75,24.0938 Q245.75,25.125 246.5938,25.8125 Q247.4375,26.5 248.9375,26.5 Q249.8281,26.5 250.4531,26.2969 Q250.8125,26.1875 251.2188,25.8281 Q251.4844,25.625 251.625,25.5625 Q251.7656,25.5 251.9375,25.5 Q252.2656,25.5 252.5,25.7656 Q252.75,26.0156 252.75,26.375 Q252.75,26.7188 252.4063,27.125 Q251.9063,27.7188 251.1094,28.0469 Q250.0625,28.5 248.7813,28.5 Q247.2813,28.5 246.0781,27.9063 Q245.1094,27.4375 244.4219,26.4219 Q243.75,25.4063 243.75,24.2031 L243.75,23.1094 Q243.75,21.8594 244.3438,20.7656 Q244.9531,19.6719 246,19.0938 Q247.0625,18.5 248.25,18.5 Q248.9688,18.5 249.5938,18.75 Q250.2188,19 250.75,19.5 Z " fill="#000000"/><text fill="#000000" font-family="sans-serif" font-size="12" lengthAdjust="spacing" textLength="25" x="269.25" y="27.9102">Ship</text><line style="stroke:#A80036;stroke-width:1.5;" x1="191" x2="340" y1="39" y2="39"/><rect fill="none" height="6" style="stroke:#C82930;stroke-width:1.0;" width="6" x="198" y="47"/><text fill="#000000" font-family="sans-serif" font-size="11" lengthAdjust="spacing" textLength="49" x="210" y="54.4189">mmsiCode</text><rect fill="none" height="6" style="stroke:#C82930;stroke-width:1.0;" width="6" x="198" y="60.8359"/><text fill="#000000" font-family="sans-serif" font-size="11" lengthAdjust="spacing" textLength="41" x="210" y="68.2549">imoCode</text><rect fill="none" height="6" style="stroke:#C82930;stroke-width:1.0;" width="6" x="198" y="74.6719"/><text fill="#000000" font-family="sans-serif" font-size="11" lengthAdjust="spacing" textLength="125" x="210" y="82.0908">numberEnergyGenerators</text><rect fill="none" height="6" style="stroke:#C82930;stroke-width:1.0;" width="6" x="198" y="88.5078"/><text fill="#000000" font-family="sans-serif" font-size="11" lengthAdjust="spacing" textLength="79" x="210" y="95.9268">generatorPower</text><rect fill="none" height="6" style="stroke:#C82930;stroke-width:1.0;" width="6" x="198" y="102.3438"/><text fill="#000000" font-family="sans-serif" font-size="11" lengthAdjust="spacing" textLength="37" x="210" y="109.7627">callSign</text><rect fill="none" height="6" style="stroke:#C82930;stroke-width:1.0;" width="6" x="198" y="116.1797"/><text fill="#000000" font-family="sans-serif" font-size="11" lengthAdjust="spacing" textLength="23" x="210" y="123.5986">draft</text><rect fill="none" height="6" style="stroke:#C82930;stroke-width:1.0;" width="6" x="198" y="130.0156"/><text fill="#000000" font-family="sans-serif" font-size="11" lengthAdjust="spacing" textLength="26" x="210" y="137.4346">name</text><rect fill="none" height="6" style="stroke:#C82930;stroke-width:1.0;" width="6" x="198" y="143.8516"/><text fill="#000000" font-family="sans-serif" font-size="11" lengthAdjust="spacing" textLength="64" x="210" y="151.2705">vesselTypeId</text><rect fill="none" height="6" style="stroke:#C82930;stroke-width:1.0;" width="6" x="198" y="157.6875"/><text fill="#000000" font-family="sans-serif" font-size="11" lengthAdjust="spacing" textLength="29" x="210" y="165.1064">length</text><rect fill="none" height="6" style="stroke:#C82930;stroke-width:1.0;" width="6" x="198" y="171.5234"/><text fill="#000000" font-family="sans-serif" font-size="11" lengthAdjust="spacing" textLength="27" x="210" y="178.9424">width</text><rect fill="none" height="6" style="stroke:#C82930;stroke-width:1.0;" width="6" x="198" y="185.3594"/><text fill="#000000" font-family="sans-serif" font-size="11" lengthAdjust="spacing" textLength="41" x="210" y="192.7783">capacity</text><line style="stroke:#A80036;stroke-width:1.5;" x1="191" x2="340" y1="199.1953" y2="199.1953"/><!--MD5=[deb4e1f6eb1e3c1256fdb830f96abfbb]
class Country--><rect codeLine="18" fill="#FEFECE" filter="url(#f13wekixpj9n75)" height="75.6719" id="Country" style="stroke:#A80036;stroke-width:1.5;" width="74" x="917" y="222"/><ellipse cx="932" cy="238" fill="#ADD1B2" rx="11" ry="11" style="stroke:#A80036;stroke-width:1.0;"/><path d="M934,234.5 Q934.2031,234 934.4375,233.75 Q934.6719,233.5 934.9375,233.5 Q935.4063,233.5 935.7031,233.7813 Q936,234.0625 936,234.7188 L936,236.2813 Q936,236.9375 935.7188,237.2188 Q935.4375,237.5 935,237.5 Q934.6094,237.5 934.3594,237.3281 Q934.1094,237.1563 934,236.7031 Q933.9531,236.3906 933.7813,236.2188 Q933.4688,235.8906 932.9063,235.7031 Q932.3438,235.5 931.7813,235.5 Q931.0781,235.5 930.4844,235.7813 Q929.9063,236.0625 929.4531,236.6875 Q929,237.3125 929,238.1719 L929,239.0938 Q929,240.125 929.8438,240.8125 Q930.6875,241.5 932.1875,241.5 Q933.0781,241.5 933.7031,241.2969 Q934.0625,241.1875 934.4688,240.8281 Q934.7344,240.625 934.875,240.5625 Q935.0156,240.5 935.1875,240.5 Q935.5156,240.5 935.75,240.7656 Q936,241.0156 936,241.375 Q936,241.7188 935.6563,242.125 Q935.1563,242.7188 934.3594,243.0469 Q933.3125,243.5 932.0313,243.5 Q930.5313,243.5 929.3281,242.9063 Q928.3594,242.4375 927.6719,241.4219 Q927,240.4063 927,239.2031 L927,238.1094 Q927,236.8594 927.5938,235.7656 Q928.2031,234.6719 929.25,234.0938 Q930.3125,233.5 931.5,233.5 Q932.2188,233.5 932.8438,233.75 Q933.4688,234 934,234.5 Z " fill="#000000"/><text fill="#000000" font-family="sans-serif" font-size="12" lengthAdjust="spacing" textLength="42" x="946" y="242.9102">Country</text><line style="stroke:#A80036;stroke-width:1.5;" x1="918" x2="990" y1="254" y2="254"/><rect fill="none" height="6" style="stroke:#C82930;stroke-width:1.0;" width="6" x="925" y="262"/><text fill="#000000" font-family="sans-serif" font-size="11" lengthAdjust="spacing" textLength="26" x="937" y="269.4189">name</text><rect fill="none" height="6" style="stroke:#C82930;stroke-width:1.0;" width="6" x="925" y="275.8359"/><text fill="#000000" font-family="sans-serif" font-size="11" lengthAdjust="spacing" textLength="44" x="937" y="283.2549">continent</text><line style="stroke:#A80036;stroke-width:1.5;" x1="918" x2="990" y1="289.6719" y2="289.6719"/><!--MD5=[9febfb2ff9adfe183e01ff702b9c1c02]
class PlaceLocation--><rect codeLine="23" fill="#FEFECE" filter="url(#f13wekixpj9n75)" height="75.6719" id="PlaceLocation" style="stroke:#A80036;stroke-width:1.5;" width="110" x="680" y="222"/><ellipse cx="695" cy="238" fill="#ADD1B2" rx="11" ry="11" style="stroke:#A80036;stroke-width:1.0;"/><path d="M697,234.5 Q697.2031,234 697.4375,233.75 Q697.6719,233.5 697.9375,233.5 Q698.4063,233.5 698.7031,233.7813 Q699,234.0625 699,234.7188 L699,236.2813 Q699,236.9375 698.7188,237.2188 Q698.4375,237.5 698,237.5 Q697.6094,237.5 697.3594,237.3281 Q697.1094,237.1563 697,236.7031 Q696.9531,236.3906 696.7813,236.2188 Q696.4688,235.8906 695.9063,235.7031 Q695.3438,235.5 694.7813,235.5 Q694.0781,235.5 693.4844,235.7813 Q692.9063,236.0625 692.4531,236.6875 Q692,237.3125 692,238.1719 L692,239.0938 Q692,240.125 692.8438,240.8125 Q693.6875,241.5 695.1875,241.5 Q696.0781,241.5 696.7031,241.2969 Q697.0625,241.1875 697.4688,240.8281 Q697.7344,240.625 697.875,240.5625 Q698.0156,240.5 698.1875,240.5 Q698.5156,240.5 698.75,240.7656 Q699,241.0156 699,241.375 Q699,241.7188 698.6563,242.125 Q698.1563,242.7188 697.3594,243.0469 Q696.3125,243.5 695.0313,243.5 Q693.5313,243.5 692.3281,242.9063 Q691.3594,242.4375 690.6719,241.4219 Q690,240.4063 690,239.2031 L690,238.1094 Q690,236.8594 690.5938,235.7656 Q691.2031,234.6719 692.25,234.0938 Q693.3125,233.5 694.5,233.5 Q695.2188,233.5 695.8438,233.75 Q696.4688,234 697,234.5 Z " fill="#000000"/><text fill="#000000" font-family="sans-serif" font-size="12" lengthAdjust="spacing" textLength="78" x="709" y="242.9102">PlaceLocation</text><line style="stroke:#A80036;stroke-width:1.5;" x1="681" x2="789" y1="254" y2="254"/><rect fill="none" height="6" style="stroke:#C82930;stroke-width:1.0;" width="6" x="688" y="262"/><text fill="#000000" font-family="sans-serif" font-size="11" lengthAdjust="spacing" textLength="34" x="700" y="269.4189">latitude</text><rect fill="none" height="6" style="stroke:#C82930;stroke-width:1.0;" width="6" x="688" y="275.8359"/><text fill="#000000" font-family="sans-serif" font-size="11" lengthAdjust="spacing" textLength="43" x="700" y="283.2549">longitude</text><line style="stroke:#A80036;stroke-width:1.5;" x1="681" x2="789" y1="289.6719" y2="289.6719"/><!--MD5=[efa7c3600894dd6faaa8b816738c33b1]
class ShipLocation--><rect codeLine="28" fill="#FEFECE" filter="url(#f13wekixpj9n75)" height="158.6875" id="ShipLocation" style="stroke:#A80036;stroke-width:1.5;" width="104" x="444" y="27.5"/><ellipse cx="459" cy="43.5" fill="#ADD1B2" rx="11" ry="11" style="stroke:#A80036;stroke-width:1.0;"/><path d="M461,40 Q461.2031,39.5 461.4375,39.25 Q461.6719,39 461.9375,39 Q462.4063,39 462.7031,39.2813 Q463,39.5625 463,40.2188 L463,41.7813 Q463,42.4375 462.7188,42.7188 Q462.4375,43 462,43 Q461.6094,43 461.3594,42.8281 Q461.1094,42.6563 461,42.2031 Q460.9531,41.8906 460.7813,41.7188 Q460.4688,41.3906 459.9063,41.2031 Q459.3438,41 458.7813,41 Q458.0781,41 457.4844,41.2813 Q456.9063,41.5625 456.4531,42.1875 Q456,42.8125 456,43.6719 L456,44.5938 Q456,45.625 456.8438,46.3125 Q457.6875,47 459.1875,47 Q460.0781,47 460.7031,46.7969 Q461.0625,46.6875 461.4688,46.3281 Q461.7344,46.125 461.875,46.0625 Q462.0156,46 462.1875,46 Q462.5156,46 462.75,46.2656 Q463,46.5156 463,46.875 Q463,47.2188 462.6563,47.625 Q462.1563,48.2188 461.3594,48.5469 Q460.3125,49 459.0313,49 Q457.5313,49 456.3281,48.4063 Q455.3594,47.9375 454.6719,46.9219 Q454,45.9063 454,44.7031 L454,43.6094 Q454,42.3594 454.5938,41.2656 Q455.2031,40.1719 456.25,39.5938 Q457.3125,39 458.5,39 Q459.2188,39 459.8438,39.25 Q460.4688,39.5 461,40 Z " fill="#000000"/><text fill="#000000" font-family="sans-serif" font-size="12" lengthAdjust="spacing" textLength="72" x="473" y="48.4102">ShipLocation</text><line style="stroke:#A80036;stroke-width:1.5;" x1="445" x2="547" y1="59.5" y2="59.5"/><rect fill="none" height="6" style="stroke:#C82930;stroke-width:1.0;" width="6" x="452" y="67.5"/><text fill="#000000" font-family="sans-serif" font-size="11" lengthAdjust="spacing" textLength="68" x="464" y="74.9189">baseDateTime</text><rect fill="none" height="6" style="stroke:#C82930;stroke-width:1.0;" width="6" x="452" y="81.3359"/><text fill="#000000" font-family="sans-serif" font-size="11" lengthAdjust="spacing" textLength="34" x="464" y="88.7549">latitude</text><rect fill="none" height="6" style="stroke:#C82930;stroke-width:1.0;" width="6" x="452" y="95.1719"/><text fill="#000000" font-family="sans-serif" font-size="11" lengthAdjust="spacing" textLength="43" x="464" y="102.5908">longitude</text><rect fill="none" height="6" style="stroke:#C82930;stroke-width:1.0;" width="6" x="452" y="109.0078"/><text fill="#000000" font-family="sans-serif" font-size="11" lengthAdjust="spacing" textLength="18" x="464" y="116.4268">sog</text><rect fill="none" height="6" style="stroke:#C82930;stroke-width:1.0;" width="6" x="452" y="122.8438"/><text fill="#000000" font-family="sans-serif" font-size="11" lengthAdjust="spacing" textLength="18" x="464" y="130.2627">cog</text><rect fill="none" height="6" style="stroke:#C82930;stroke-width:1.0;" width="6" x="452" y="136.6797"/><text fill="#000000" font-family="sans-serif" font-size="11" lengthAdjust="spacing" textLength="38" x="464" y="144.0986">heading</text><rect fill="none" height="6" style="stroke:#C82930;stroke-width:1.0;" width="6" x="452" y="150.5156"/><text fill="#000000" font-family="sans-serif" font-size="11" lengthAdjust="spacing" textLength="37" x="464" y="157.9346">position</text><rect fill="none" height="6" style="stroke:#C82930;stroke-width:1.0;" width="6" x="452" y="164.3516"/><text fill="#000000" font-family="sans-serif" font-size="11" lengthAdjust="spacing" textLength="55" x="464" y="171.7705">transceiver</text><line style="stroke:#A80036;stroke-width:1.5;" x1="445" x2="547" y1="178.1875" y2="178.1875"/><!--MD5=[ea13aecf8df941b18fb8e3885c78c184]
class Ports--><rect codeLine="39" fill="#FEFECE" filter="url(#f13wekixpj9n75)" height="75.6719" id="Ports" style="stroke:#A80036;stroke-width:1.5;" width="86" x="453" y="222"/><ellipse cx="479.25" cy="238" fill="#ADD1B2" rx="11" ry="11" style="stroke:#A80036;stroke-width:1.0;"/><path d="M481.25,234.5 Q481.4531,234 481.6875,233.75 Q481.9219,233.5 482.1875,233.5 Q482.6563,233.5 482.9531,233.7813 Q483.25,234.0625 483.25,234.7188 L483.25,236.2813 Q483.25,236.9375 482.9688,237.2188 Q482.6875,237.5 482.25,237.5 Q481.8594,237.5 481.6094,237.3281 Q481.3594,237.1563 481.25,236.7031 Q481.2031,236.3906 481.0313,236.2188 Q480.7188,235.8906 480.1563,235.7031 Q479.5938,235.5 479.0313,235.5 Q478.3281,235.5 477.7344,235.7813 Q477.1563,236.0625 476.7031,236.6875 Q476.25,237.3125 476.25,238.1719 L476.25,239.0938 Q476.25,240.125 477.0938,240.8125 Q477.9375,241.5 479.4375,241.5 Q480.3281,241.5 480.9531,241.2969 Q481.3125,241.1875 481.7188,240.8281 Q481.9844,240.625 482.125,240.5625 Q482.2656,240.5 482.4375,240.5 Q482.7656,240.5 483,240.7656 Q483.25,241.0156 483.25,241.375 Q483.25,241.7188 482.9063,242.125 Q482.4063,242.7188 481.6094,243.0469 Q480.5625,243.5 479.2813,243.5 Q477.7813,243.5 476.5781,242.9063 Q475.6094,242.4375 474.9219,241.4219 Q474.25,240.4063 474.25,239.2031 L474.25,238.1094 Q474.25,236.8594 474.8438,235.7656 Q475.4531,234.6719 476.5,234.0938 Q477.5625,233.5 478.75,233.5 Q479.4688,233.5 480.0938,233.75 Q480.7188,234 481.25,234.5 Z " fill="#000000"/><text fill="#000000" font-family="sans-serif" font-size="12" lengthAdjust="spacing" textLength="29" x="495.75" y="242.9102">Ports</text><line style="stroke:#A80036;stroke-width:1.5;" x1="454" x2="538" y1="254" y2="254"/><rect fill="none" height="6" style="stroke:#C82930;stroke-width:1.0;" width="6" x="461" y="262"/><text fill="#000000" font-family="sans-serif" font-size="11" lengthAdjust="spacing" textLength="60" x="473" y="269.4189">identification</text><rect fill="none" height="6" style="stroke:#C82930;stroke-width:1.0;" width="6" x="461" y="275.8359"/><text fill="#000000" font-family="sans-serif" font-size="11" lengthAdjust="spacing" textLength="26" x="473" y="283.2549">name</text><line style="stroke:#A80036;stroke-width:1.5;" x1="454" x2="538" y1="289.6719" y2="289.6719"/><!--MD5=[02e4b9b7573f1156f41e60aa5b4e25a4]
class Company--><rect codeLine="44" fill="#FEFECE" filter="url(#f13wekixpj9n75)" height="61.8359" id="Company" style="stroke:#A80036;stroke-width:1.5;" width="85" x="7" y="200"/><ellipse cx="22" cy="216" fill="#ADD1B2" rx="11" ry="11" style="stroke:#A80036;stroke-width:1.0;"/><path d="M24,212.5 Q24.2031,212 24.4375,211.75 Q24.6719,211.5 24.9375,211.5 Q25.4063,211.5 25.7031,211.7813 Q26,212.0625 26,212.7188 L26,214.2813 Q26,214.9375 25.7188,215.2188 Q25.4375,215.5 25,215.5 Q24.6094,215.5 24.3594,215.3281 Q24.1094,215.1563 24,214.7031 Q23.9531,214.3906 23.7813,214.2188 Q23.4688,213.8906 22.9063,213.7031 Q22.3438,213.5 21.7813,213.5 Q21.0781,213.5 20.4844,213.7813 Q19.9063,214.0625 19.4531,214.6875 Q19,215.3125 19,216.1719 L19,217.0938 Q19,218.125 19.8438,218.8125 Q20.6875,219.5 22.1875,219.5 Q23.0781,219.5 23.7031,219.2969 Q24.0625,219.1875 24.4688,218.8281 Q24.7344,218.625 24.875,218.5625 Q25.0156,218.5 25.1875,218.5 Q25.5156,218.5 25.75,218.7656 Q26,219.0156 26,219.375 Q26,219.7188 25.6563,220.125 Q25.1563,220.7188 24.3594,221.0469 Q23.3125,221.5 22.0313,221.5 Q20.5313,221.5 19.3281,220.9063 Q18.3594,220.4375 17.6719,219.4219 Q17,218.4063 17,217.2031 L17,216.1094 Q17,214.8594 17.5938,213.7656 Q18.2031,212.6719 19.25,212.0938 Q20.3125,211.5 21.5,211.5 Q22.2188,211.5 22.8438,211.75 Q23.4688,212 24,212.5 Z " fill="#000000"/><text fill="#000000" font-family="sans-serif" font-size="12" lengthAdjust="spacing" textLength="53" x="36" y="220.9102">Company</text><line style="stroke:#A80036;stroke-width:1.5;" x1="8" x2="91" y1="232" y2="232"/><rect fill="none" height="6" style="stroke:#C82930;stroke-width:1.0;" width="6" x="15" y="240"/><text fill="#000000" font-family="sans-serif" font-size="11" lengthAdjust="spacing" textLength="55" x="27" y="247.4189">designation</text><line style="stroke:#A80036;stroke-width:1.5;" x1="8" x2="91" y1="253.8359" y2="253.8359"/><!--MD5=[37a14a5de6d6fd738aee271300f4b5c8]
link Company to Ship--><path codeLine="48" d="M92.02,206.94 C119.73,190.89 156.96,169.31 189.74,150.32 " fill="none" id="Company-Ship" style="stroke:#A80036;stroke-width:1.0;"/><polygon fill="#000000" points="131.3263,157.6691,122.0266,159.6608,124.9734,164.7466,131.3263,157.6691" style="stroke:#000000;stroke-width:1.0;"/><text fill="#000000" font-family="sans-serif" font-size="13" lengthAdjust="spacing" textLength="23" x="136" y="165.4951">own</text><text fill="#000000" font-family="sans-serif" font-size="13" lengthAdjust="spacing" textLength="7" x="99.9297" y="217.7191">1</text><text fill="#000000" font-family="sans-serif" font-size="13" lengthAdjust="spacing" textLength="20" x="162.102" y="168.3928">1..*</text><!--MD5=[3d97e7a8068d9b0a6bb8fcf7dc76451d]
link Company to Ports--><path codeLine="50" d="M92.29,234.93 C119.99,237.45 157.14,240.67 190,243 C283.63,249.64 393.59,255.22 452.54,258.04 " fill="none" id="Company-Ports" style="stroke:#A80036;stroke-width:1.0;"/><polygon fill="#000000" points="254.9897,234.4959,246.1514,230.9839,245.7751,236.8497,254.9897,234.4959" style="stroke:#000000;stroke-width:1.0;"/><text fill="#000000" font-family="sans-serif" font-size="13" lengthAdjust="spacing" textLength="26" x="259" y="239.4951">have</text><text fill="#000000" font-family="sans-serif" font-size="13" lengthAdjust="spacing" textLength="7" x="99.9568" y="250.4437">1</text><text fill="#000000" font-family="sans-serif" font-size="13" lengthAdjust="spacing" textLength="20" x="425.0222" y="272.4323">1..*</text><!--MD5=[3d04185e7085eaaeba7ebd93b9963be0]
link PlaceLocation to Country--><path codeLine="52" d="M790.2,260 C829.74,260 882.25,260 916.8,260 " fill="none" id="PlaceLocation-Country" style="stroke:#A80036;stroke-width:1.0;"/><polygon fill="#000000" points="830,251.1758,820.9549,248.2369,820.9549,254.1147,830,251.1758" style="stroke:#000000;stroke-width:1.0;"/><text fill="#000000" font-family="sans-serif" font-size="13" lengthAdjust="spacing" textLength="52" x="834" y="256.4951">placed in</text><text fill="#000000" font-family="sans-serif" font-size="13" lengthAdjust="spacing" textLength="5" x="797.9534" y="274.6158">*</text><text fill="#000000" font-family="sans-serif" font-size="13" lengthAdjust="spacing" textLength="7" x="902.0416" y="275.0849">1</text><!--MD5=[aaa368e4b832683362a5bdda330bd90d]
link Ports to PlaceLocation--><path codeLine="54" d="M539.1,260 C578.34,260 637.06,260 679.79,260 " fill="none" id="Ports-PlaceLocation" style="stroke:#A80036;stroke-width:1.0;"/><polygon fill="#000000" points="588,251.1758,578.9549,248.2369,578.9549,254.1147,588,251.1758" style="stroke:#000000;stroke-width:1.0;"/><text fill="#000000" font-family="sans-serif" font-size="13" lengthAdjust="spacing" textLength="57" x="592" y="256.4951">located at</text><text fill="#000000" font-family="sans-serif" font-size="13" lengthAdjust="spacing" textLength="7" x="547.1094" y="274.9285">1</text><text fill="#000000" font-family="sans-serif" font-size="13" lengthAdjust="spacing" textLength="7" x="664.9008" y="274.6158">1</text><!--MD5=[b5e7d3b323f2cd13b2215620f50e65f3]
link Ship to Ports--><path codeLine="56" d="M341,156.89 C378.12,181.74 421.63,210.87 452.92,231.82 " fill="none" id="Ship-Ports" style="stroke:#A80036;stroke-width:1.0;"/><polygon fill="#000000" points="380.1548,172.9574,374.2737,165.4833,371.0037,170.3675,380.1548,172.9574" style="stroke:#000000;stroke-width:1.0;"/><text fill="#000000" font-family="sans-serif" font-size="13" lengthAdjust="spacing" textLength="28" x="385" y="175.4951">dock</text><text fill="#000000" font-family="sans-serif" font-size="13" lengthAdjust="spacing" textLength="20" x="348.882" y="175.7291">0..*</text><text fill="#000000" font-family="sans-serif" font-size="13" lengthAdjust="spacing" textLength="7" x="437.9141" y="241.9051">1</text><!--MD5=[5541ef512584d1243c10a7f3b3317e1c]
link Ship to ShipLocation--><path codeLine="58" d="M341,107 C374.6,107 413.44,107 443.71,107 " fill="none" id="Ship-ShipLocation" style="stroke:#A80036;stroke-width:1.0;"/><polygon fill="#000000" points="384.5,98.1758,375.4549,95.2369,375.4549,101.1147,384.5,98.1758" style="stroke:#000000;stroke-width:1.0;"/><text fill="#000000" font-family="sans-serif" font-size="13" lengthAdjust="spacing" textLength="21" x="388.5" y="103.4951">has</text><text fill="#000000" font-family="sans-serif" font-size="13" lengthAdjust="spacing" textLength="7" x="349.1469" y="121.3282">1</text><text fill="#000000" font-family="sans-serif" font-size="13" lengthAdjust="spacing" textLength="20" x="416.1184" y="121.5106">1..*</text><!--MD5=[42687a2d2660d07e3456e6185de8fa41]
@startuml

left to right direction

class Ship {
-mmsiCode
-imoCode
-numberEnergyGenerators
-generatorPower
-callSign
-draft
-name
-vesselTypeId
-length
-width
-capacity
}

class Country {
-name
-continent
}

class PlaceLocation {
-latitude
-longitude
}

class ShipLocation {
-baseDateTime
-latitude
-longitude
-sog
-cog
-heading
-position
-transceiver
}

class Ports {
-identification
-name
}

class Company {
-designation
}

Company "1"- -"1..*" Ship: own >

Company "1"- -"1..*" Ports: have >

PlaceLocation "*" - - "1" Country : placed in >

Ports "1" - - "1" PlaceLocation : located at >

Ship "0..*"- -"1" Ports: dock >

Ship "1" - - "1..*" ShipLocation : has >

@enduml

PlantUML version 1.2021.11(Sat Oct 02 14:26:11 BST 2021)
(GPL source distribution)
Java Runtime: OpenJDK Runtime Environment
JVM: OpenJDK 64-Bit Server VM
Default Encoding: Cp1252
Language: pt
Country: PT
--></g></svg>