<?xml version="1.0" encoding="UTF-8" standalone="no"?><svg xmlns="http://www.w3.org/2000/svg" xmlns:xlink="http://www.w3.org/1999/xlink" contentScriptType="application/ecmascript" contentStyleType="text/css" height="724px" preserveAspectRatio="none" style="width:1370px;height:724px;background:#FFFFFF;" version="1.1" viewBox="0 0 1370 724" width="1370px" zoomAndPan="magnify"><defs><filter height="300%" id="f1d428vr4loajr" width="300%" x="-1" y="-1"><feGaussianBlur result="blurOut" stdDeviation="2.0"/><feColorMatrix in="blurOut" result="blurOut2" type="matrix" values="0 0 0 0 0 0 0 0 0 0 0 0 0 0 0 0 0 0 .4 0"/><feOffset dx="4.0" dy="4.0" in="blurOut2" result="blurOut3"/><feBlend in="SourceGraphic" in2="blurOut3" mode="normal"/></filter></defs><g><rect fill="#FFFFFF" filter="url(#f1d428vr4loajr)" height="530.7578" style="stroke:#A80036;stroke-width:1.0;" width="10" x="55" y="99.6094"/><rect fill="#FFFFFF" filter="url(#f1d428vr4loajr)" height="30.3516" style="stroke:#A80036;stroke-width:1.0;" width="10" x="416" y="121.9609"/><rect fill="#FFFFFF" filter="url(#f1d428vr4loajr)" height="434.5273" style="stroke:#A80036;stroke-width:1.0;" width="10" x="416" y="195.8398"/><rect fill="#FFFFFF" filter="url(#f1d428vr4loajr)" height="391" style="stroke:#A80036;stroke-width:1.0;" width="10" x="596" y="239.3672"/><rect fill="#FFFFFF" filter="url(#f1d428vr4loajr)" height="360.6484" style="stroke:#A80036;stroke-width:1.0;" width="10" x="853" y="269.7188"/><rect fill="#FFFFFF" filter="url(#f1d428vr4loajr)" height="322.2969" style="stroke:#A80036;stroke-width:1.0;" width="10" x="858" y="308.0703"/><rect fill="#FFFFFF" filter="url(#f1d428vr4loajr)" height="41.3516" style="stroke:#A80036;stroke-width:1.0;" width="10" x="863" y="351.4219"/><rect fill="#FFFFFF" filter="url(#f1d428vr4loajr)" height="41.3516" style="stroke:#A80036;stroke-width:1.0;" width="10" x="863" y="463.4766"/><rect fill="#FFFFFF" filter="url(#f1d428vr4loajr)" height="41.3516" style="stroke:#A80036;stroke-width:1.0;" width="10" x="863" y="566.0156"/><rect fill="#FFFFFF" filter="url(#f1d428vr4loajr)" height="207.5938" style="stroke:#000000;stroke-width:2.0;" width="573.5" x="782.5" y="414.7734"/><rect fill="#FFFFFF" height="102.5391" style="stroke:none;stroke-width:1.0;" width="573.5" x="782.5" y="519.8281"/><line style="stroke:#A80036;stroke-width:1.0;stroke-dasharray:5.0,5.0;" x1="60" x2="60" y1="89.6094" y2="639.3672"/><line style="stroke:#A80036;stroke-width:1.0;stroke-dasharray:5.0,5.0;" x1="420.5" x2="420.5" y1="89.6094" y2="639.3672"/><line style="stroke:#A80036;stroke-width:1.0;stroke-dasharray:5.0,5.0;" x1="600.5" x2="600.5" y1="89.6094" y2="639.3672"/><line style="stroke:#A80036;stroke-width:1.0;stroke-dasharray:5.0,5.0;" x1="857.5" x2="857.5" y1="89.6094" y2="639.3672"/><text fill="#000000" font-family="sans-serif" font-size="14" lengthAdjust="spacing" textLength="104" x="5" y="86.5332">Project Manager</text><ellipse cx="60" cy="15" fill="#FEFECE" filter="url(#f1d428vr4loajr)" rx="8" ry="8" style="stroke:#A80036;stroke-width:2.0;"/><path d="M60,23 L60,50 M47,31 L73,31 M60,50 L47,65 M60,50 L73,65 " fill="none" filter="url(#f1d428vr4loajr)" style="stroke:#A80036;stroke-width:2.0;"/><text fill="#000000" font-family="sans-serif" font-size="14" lengthAdjust="spacing" textLength="104" x="5" y="652.9004">Project Manager</text><ellipse cx="60" cy="665.9766" fill="#FEFECE" filter="url(#f1d428vr4loajr)" rx="8" ry="8" style="stroke:#A80036;stroke-width:2.0;"/><path d="M60,673.9766 L60,700.9766 M47,681.9766 L73,681.9766 M60,700.9766 L47,715.9766 M60,700.9766 L73,715.9766 " fill="none" filter="url(#f1d428vr4loajr)" style="stroke:#A80036;stroke-width:2.0;"/><rect fill="#FEFECE" filter="url(#f1d428vr4loajr)" height="31.6094" style="stroke:#A80036;stroke-width:1.5;" width="141" x="348.5" y="53"/><text fill="#000000" font-family="sans-serif" font-size="14" lengthAdjust="spacing" textLength="127" x="355.5" y="74.5332">:SendToDatabaseUI</text><rect fill="#FEFECE" filter="url(#f1d428vr4loajr)" height="31.6094" style="stroke:#A80036;stroke-width:1.5;" width="141" x="348.5" y="638.3672"/><text fill="#000000" font-family="sans-serif" font-size="14" lengthAdjust="spacing" textLength="127" x="355.5" y="659.9004">:SendToDatabaseUI</text><rect fill="#FEFECE" filter="url(#f1d428vr4loajr)" height="31.6094" style="stroke:#A80036;stroke-width:1.5;" width="191" x="503.5" y="53"/><text fill="#000000" font-family="sans-serif" font-size="14" lengthAdjust="spacing" textLength="177" x="510.5" y="74.5332">:SendToDatabaseController</text><rect fill="#FEFECE" filter="url(#f1d428vr4loajr)" height="31.6094" style="stroke:#A80036;stroke-width:1.5;" width="191" x="503.5" y="638.3672"/><text fill="#000000" font-family="sans-serif" font-size="14" lengthAdjust="spacing" textLength="177" x="510.5" y="659.9004">:SendToDatabaseController</text><rect fill="#FEFECE" filter="url(#f1d428vr4loajr)" height="31.6094" style="stroke:#A80036;stroke-width:1.5;" width="127" x="792.5" y="53"/><text fill="#000000" font-family="sans-serif" font-size="14" lengthAdjust="spacing" textLength="113" x="799.5" y="74.5332">:sendToDatabase</text><rect fill="#FEFECE" filter="url(#f1d428vr4loajr)" height="31.6094" style="stroke:#A80036;stroke-width:1.5;" width="127" x="792.5" y="638.3672"/><text fill="#000000" font-family="sans-serif" font-size="14" lengthAdjust="spacing" textLength="113" x="799.5" y="659.9004">:sendToDatabase</text><rect fill="#FFFFFF" filter="url(#f1d428vr4loajr)" height="530.7578" style="stroke:#A80036;stroke-width:1.0;" width="10" x="55" y="99.6094"/><rect fill="#FFFFFF" filter="url(#f1d428vr4loajr)" height="30.3516" style="stroke:#A80036;stroke-width:1.0;" width="10" x="416" y="121.9609"/><rect fill="#FFFFFF" filter="url(#f1d428vr4loajr)" height="434.5273" style="stroke:#A80036;stroke-width:1.0;" width="10" x="416" y="195.8398"/><rect fill="#FFFFFF" filter="url(#f1d428vr4loajr)" height="391" style="stroke:#A80036;stroke-width:1.0;" width="10" x="596" y="239.3672"/><rect fill="#FFFFFF" filter="url(#f1d428vr4loajr)" height="360.6484" style="stroke:#A80036;stroke-width:1.0;" width="10" x="853" y="269.7188"/><rect fill="#FFFFFF" filter="url(#f1d428vr4loajr)" height="322.2969" style="stroke:#A80036;stroke-width:1.0;" width="10" x="858" y="308.0703"/><rect fill="#FFFFFF" filter="url(#f1d428vr4loajr)" height="41.3516" style="stroke:#A80036;stroke-width:1.0;" width="10" x="863" y="351.4219"/><rect fill="#FFFFFF" filter="url(#f1d428vr4loajr)" height="41.3516" style="stroke:#A80036;stroke-width:1.0;" width="10" x="863" y="463.4766"/><rect fill="#FFFFFF" filter="url(#f1d428vr4loajr)" height="41.3516" style="stroke:#A80036;stroke-width:1.0;" width="10" x="863" y="566.0156"/><polygon fill="#A80036" points="404,117.9609,414,121.9609,404,125.9609,408,121.9609" style="stroke:#A80036;stroke-width:1.0;"/><line style="stroke:#A80036;stroke-width:1.0;" x1="65" x2="410" y1="121.9609" y2="121.9609"/><text fill="#000000" font-family="sans-serif" font-size="13" font-weight="bold" lengthAdjust="spacing" textLength="7" x="72" y="117.1045">1</text><text fill="#000000" font-family="sans-serif" font-size="13" lengthAdjust="spacing" textLength="321" x="83" y="117.1045">starts the script loading of objects' data to the database</text><polygon fill="#A80036" points="76,148.3125,66,152.3125,76,156.3125,72,152.3125" style="stroke:#A80036;stroke-width:1.0;"/><line style="stroke:#A80036;stroke-width:1.0;stroke-dasharray:2.0,2.0;" x1="70" x2="420" y1="152.3125" y2="152.3125"/><text fill="#000000" font-family="sans-serif" font-size="13" font-weight="bold" lengthAdjust="spacing" textLength="7" x="82" y="147.4561">2</text><text fill="#000000" font-family="sans-serif" font-size="13" lengthAdjust="spacing" textLength="195" x="93" y="147.4561">displays a list of objects to import</text><polygon fill="#A80036" points="404,191.8398,414,195.8398,404,199.8398,408,195.8398" style="stroke:#A80036;stroke-width:1.0;"/><line style="stroke:#A80036;stroke-width:1.0;" x1="65" x2="410" y1="195.8398" y2="195.8398"/><text fill="#000000" font-family="sans-serif" font-size="13" font-weight="bold" lengthAdjust="spacing" textLength="7" x="72" y="190.9834">3</text><text fill="#000000" font-family="sans-serif" font-size="13" lengthAdjust="spacing" textLength="208" x="83" y="190.9834">selects the type of objects to import</text><path d="M431,165.3125 L431,207.3125 L783,207.3125 L783,175.3125 L773,165.3125 L431,165.3125 " fill="#FBFB77" filter="url(#f1d428vr4loajr)" style="stroke:#A80036;stroke-width:1.0;"/><path d="M773,165.3125 L773,175.3125 L783,175.3125 L773,165.3125 " fill="#FBFB77" style="stroke:#A80036;stroke-width:1.0;"/><text fill="#000000" font-family="sans-serif" font-size="13" lengthAdjust="spacing" textLength="327" x="437" y="183.8076">Since the objects' importing requires an equal sequence,</text><text fill="#000000" font-family="sans-serif" font-size="13" lengthAdjust="spacing" textLength="244" x="437" y="200.1592">it was used ship importing as an example.</text><polygon fill="#A80036" points="584,235.3672,594,239.3672,584,243.3672,588,239.3672" style="stroke:#A80036;stroke-width:1.0;"/><line style="stroke:#A80036;stroke-width:1.0;" x1="426" x2="590" y1="239.3672" y2="239.3672"/><text fill="#000000" font-family="sans-serif" font-size="13" font-weight="bold" lengthAdjust="spacing" textLength="7" x="433" y="234.5107">4</text><text fill="#000000" font-family="sans-serif" font-size="13" lengthAdjust="spacing" textLength="77" x="444" y="234.5107">importShips()</text><polygon fill="#A80036" points="841,265.7188,851,269.7188,841,273.7188,845,269.7188" style="stroke:#A80036;stroke-width:1.0;"/><line style="stroke:#A80036;stroke-width:1.0;" x1="606" x2="847" y1="269.7188" y2="269.7188"/><text fill="#000000" font-family="sans-serif" font-size="13" font-weight="bold" lengthAdjust="spacing" textLength="7" x="613" y="264.8623">5</text><text fill="#000000" font-family="sans-serif" font-size="13" lengthAdjust="spacing" textLength="217" x="624" y="264.8623">sendShipsAndLocationsToDatabase()</text><line style="stroke:#A80036;stroke-width:1.0;" x1="863" x2="910" y1="295.0703" y2="295.0703"/><line style="stroke:#A80036;stroke-width:1.0;" x1="910" x2="910" y1="295.0703" y2="308.0703"/><line style="stroke:#A80036;stroke-width:1.0;" x1="869" x2="910" y1="308.0703" y2="308.0703"/><polygon fill="#A80036" points="879,304.0703,869,308.0703,879,312.0703,875,308.0703" style="stroke:#A80036;stroke-width:1.0;"/><text fill="#000000" font-family="sans-serif" font-size="13" font-weight="bold" lengthAdjust="spacing" textLength="7" x="875" y="290.2139">6</text><text fill="#000000" font-family="sans-serif" font-size="13" lengthAdjust="spacing" textLength="221" x="886" y="290.2139">saveShip(databaseConnection, object)</text><line style="stroke:#A80036;stroke-width:1.0;" x1="868" x2="915" y1="338.4219" y2="338.4219"/><line style="stroke:#A80036;stroke-width:1.0;" x1="915" x2="915" y1="338.4219" y2="351.4219"/><line style="stroke:#A80036;stroke-width:1.0;" x1="874" x2="915" y1="351.4219" y2="351.4219"/><polygon fill="#A80036" points="884,347.4219,874,351.4219,884,355.4219,880,351.4219" style="stroke:#A80036;stroke-width:1.0;"/><text fill="#000000" font-family="sans-serif" font-size="13" font-weight="bold" lengthAdjust="spacing" textLength="7" x="880" y="333.5654">7</text><text fill="#000000" font-family="sans-serif" font-size="13" lengthAdjust="spacing" textLength="279" x="891" y="333.5654">saveShipToDatabase(databaseConnection, ship)</text><line style="stroke:#A80036;stroke-width:1.0;" x1="873" x2="915" y1="391.7734" y2="391.7734"/><line style="stroke:#A80036;stroke-width:1.0;" x1="915" x2="915" y1="391.7734" y2="404.7734"/><line style="stroke:#A80036;stroke-width:1.0;" x1="868" x2="915" y1="404.7734" y2="404.7734"/><polygon fill="#A80036" points="878,400.7734,868,404.7734,878,408.7734,874,404.7734" style="stroke:#A80036;stroke-width:1.0;"/><text fill="#000000" font-family="sans-serif" font-size="13" font-weight="bold" lengthAdjust="spacing" textLength="7" x="880" y="386.917">8</text><text fill="#000000" font-family="sans-serif" font-size="13" lengthAdjust="spacing" textLength="364" x="891" y="386.917">isOnDatabase = isShipOnDatabase(databaseConnection, ship)</text><path d="M782.5,414.7734 L843.5,414.7734 L843.5,422.7734 L833.5,432.7734 L782.5,432.7734 L782.5,414.7734 " fill="#EEEEEE" style="stroke:#000000;stroke-width:1.0;"/><rect fill="none" height="207.5938" style="stroke:#000000;stroke-width:2.0;" width="573.5" x="782.5" y="414.7734"/><text fill="#000000" font-family="sans-serif" font-size="13" font-weight="bold" lengthAdjust="spacing" textLength="16" x="797.5" y="429.2686">alt</text><text fill="#000000" font-family="sans-serif" font-size="11" font-weight="bold" lengthAdjust="spacing" textLength="191" x="858.5" y="428.1924">[if the ship exists on the database]</text><line style="stroke:#A80036;stroke-width:1.0;" x1="868" x2="915" y1="450.4766" y2="450.4766"/><line style="stroke:#A80036;stroke-width:1.0;" x1="915" x2="915" y1="450.4766" y2="463.4766"/><line style="stroke:#A80036;stroke-width:1.0;" x1="874" x2="915" y1="463.4766" y2="463.4766"/><polygon fill="#A80036" points="884,459.4766,874,463.4766,884,467.4766,880,463.4766" style="stroke:#A80036;stroke-width:1.0;"/><text fill="#000000" font-family="sans-serif" font-size="13" font-weight="bold" lengthAdjust="spacing" textLength="7" x="880" y="445.6201">9</text><text fill="#000000" font-family="sans-serif" font-size="13" lengthAdjust="spacing" textLength="316" x="891" y="445.6201">updatePositionOnDatabase(databaseConnection, ship)</text><line style="stroke:#A80036;stroke-width:1.0;" x1="873" x2="915" y1="503.8281" y2="503.8281"/><line style="stroke:#A80036;stroke-width:1.0;" x1="915" x2="915" y1="503.8281" y2="516.8281"/><line style="stroke:#A80036;stroke-width:1.0;" x1="868" x2="915" y1="516.8281" y2="516.8281"/><polygon fill="#A80036" points="878,512.8281,868,516.8281,878,520.8281,874,516.8281" style="stroke:#A80036;stroke-width:1.0;"/><text fill="#000000" font-family="sans-serif" font-size="13" font-weight="bold" lengthAdjust="spacing" textLength="14" x="880" y="498.9717">10</text><text fill="#000000" font-family="sans-serif" font-size="13" lengthAdjust="spacing" textLength="446" x="898" y="498.9717">executeShipStatementOnDatabase(databaseConnection, ship, sqlCommand)</text><line style="stroke:#000000;stroke-width:1.0;stroke-dasharray:2.0,2.0;" x1="782.5" x2="1356" y1="520.8281" y2="520.8281"/><text fill="#000000" font-family="sans-serif" font-size="11" font-weight="bold" lengthAdjust="spacing" textLength="236" x="787.5" y="532.2471">[if the ship does not exist on the database]</text><line style="stroke:#A80036;stroke-width:1.0;" x1="868" x2="915" y1="553.0156" y2="553.0156"/><line style="stroke:#A80036;stroke-width:1.0;" x1="915" x2="915" y1="553.0156" y2="566.0156"/><line style="stroke:#A80036;stroke-width:1.0;" x1="874" x2="915" y1="566.0156" y2="566.0156"/><polygon fill="#A80036" points="884,562.0156,874,566.0156,884,570.0156,880,566.0156" style="stroke:#A80036;stroke-width:1.0;"/><text fill="#000000" font-family="sans-serif" font-size="13" font-weight="bold" lengthAdjust="spacing" textLength="14" x="880" y="548.1592">11</text><text fill="#000000" font-family="sans-serif" font-size="13" lengthAdjust="spacing" textLength="288" x="898" y="548.1592">insertPositionOnDatabase(sendToDatabase, ship)</text><line style="stroke:#A80036;stroke-width:1.0;" x1="873" x2="915" y1="606.3672" y2="606.3672"/><line style="stroke:#A80036;stroke-width:1.0;" x1="915" x2="915" y1="606.3672" y2="619.3672"/><line style="stroke:#A80036;stroke-width:1.0;" x1="868" x2="915" y1="619.3672" y2="619.3672"/><polygon fill="#A80036" points="878,615.3672,868,619.3672,878,623.3672,874,619.3672" style="stroke:#A80036;stroke-width:1.0;"/><text fill="#000000" font-family="sans-serif" font-size="13" font-weight="bold" lengthAdjust="spacing" textLength="14" x="880" y="601.5107">12</text><text fill="#000000" font-family="sans-serif" font-size="13" lengthAdjust="spacing" textLength="446" x="898" y="601.5107">executeShipStatementOnDatabase(databaseConnection, ship, sqlCommand)</text><!--MD5=[51d430ba6cd1f25bde38295a054a1f6d]
@startuml
autonumber

actor "Project Manager" as PM
participant ":SendToDatabaseUI" as UI
participant ":SendToDatabaseController" as controller
participant ":sendToDatabase" as sendToDatabase




activate PM
PM -> UI : starts the script loading of objects' data to the database
activate UI
UI - -> PM : displays a list of objects to import
deactivate UI
PM -> UI : selects the type of objects to import
note right: Since the objects' importing requires an equal sequence, \nit was used ship importing as an example.


activate UI
UI->controller : importShips()
activate controller

controller -> sendToDatabase: sendShipsAndLocationsToDatabase()
activate sendToDatabase

sendToDatabase -> sendToDatabase: saveShip(databaseConnection, object)
activate sendToDatabase

sendToDatabase -> sendToDatabase: saveShipToDatabase(databaseConnection, ship)
activate sendToDatabase

sendToDatabase -> sendToDatabase: isOnDatabase = isShipOnDatabase(databaseConnection, ship)
deactivate sendToDatabase

alt if the ship exists on the database

sendToDatabase -> sendToDatabase: updatePositionOnDatabase(databaseConnection, ship)
activate sendToDatabase
sendToDatabase -> sendToDatabase: executeShipStatementOnDatabase(databaseConnection, ship, sqlCommand)
deactivate sendToDatabase

else if the ship does not exist on the database

sendToDatabase -> sendToDatabase: insertPositionOnDatabase(sendToDatabase, ship)
activate sendToDatabase
sendToDatabase -> sendToDatabase: executeShipStatementOnDatabase(databaseConnection, ship, sqlCommand)
deactivate sendToDatabase

end

@enduml

PlantUML version 1.2021.11(Sat Oct 02 14:26:11 BST 2021)
(GPL source distribution)
Java Runtime: OpenJDK Runtime Environment
JVM: OpenJDK 64-Bit Server VM
Default Encoding: Cp1252
Language: pt
Country: PT
--></g></svg>