<?xml version="1.0" encoding="UTF-8" standalone="no"?><svg xmlns="http://www.w3.org/2000/svg" xmlns:xlink="http://www.w3.org/1999/xlink" contentScriptType="application/ecmascript" contentStyleType="text/css" height="358px" preserveAspectRatio="none" style="width:725px;height:358px;background:#FFFFFF;" version="1.1" viewBox="0 0 725 358" width="725px" zoomAndPan="magnify"><defs><filter height="300%" id="f65oucr18ea3m" width="300%" x="-1" y="-1"><feGaussianBlur result="blurOut" stdDeviation="2.0"/><feColorMatrix in="blurOut" result="blurOut2" type="matrix" values="0 0 0 0 0 0 0 0 0 0 0 0 0 0 0 0 0 0 .4 0"/><feOffset dx="4.0" dy="4.0" in="blurOut2" result="blurOut3"/><feBlend in="SourceGraphic" in2="blurOut3" mode="normal"/></filter></defs><g><rect fill="#FFFFFF" filter="url(#f65oucr18ea3m)" height="155.7578" style="stroke:#A80036;stroke-width:1.0;" width="10" x="55" y="99.6094"/><rect fill="#FFFFFF" filter="url(#f65oucr18ea3m)" height="51.7031" style="stroke:#A80036;stroke-width:1.0;" width="10" x="416" y="121.9609"/><rect fill="#FFFFFF" filter="url(#f65oucr18ea3m)" height="30" style="stroke:#A80036;stroke-width:1.0;" width="10" x="416" y="225.3672"/><line style="stroke:#A80036;stroke-width:1.0;stroke-dasharray:5.0,5.0;" x1="60" x2="60" y1="89.6094" y2="273.3672"/><line style="stroke:#A80036;stroke-width:1.0;stroke-dasharray:5.0,5.0;" x1="421" x2="421" y1="89.6094" y2="273.3672"/><text fill="#000000" font-family="sans-serif" font-size="14" lengthAdjust="spacing" textLength="104" x="5" y="86.5332">Project Manager</text><ellipse cx="60" cy="15" fill="#FEFECE" filter="url(#f65oucr18ea3m)" rx="8" ry="8" style="stroke:#A80036;stroke-width:2.0;"/><path d="M60,23 L60,50 M47,31 L73,31 M60,50 L47,65 M60,50 L73,65 " fill="none" filter="url(#f65oucr18ea3m)" style="stroke:#A80036;stroke-width:2.0;"/><text fill="#000000" font-family="sans-serif" font-size="14" lengthAdjust="spacing" textLength="104" x="5" y="286.9004">Project Manager</text><ellipse cx="60" cy="299.9766" fill="#FEFECE" filter="url(#f65oucr18ea3m)" rx="8" ry="8" style="stroke:#A80036;stroke-width:2.0;"/><path d="M60,307.9766 L60,334.9766 M47,315.9766 L73,315.9766 M60,334.9766 L47,349.9766 M60,334.9766 L73,349.9766 " fill="none" filter="url(#f65oucr18ea3m)" style="stroke:#A80036;stroke-width:2.0;"/><rect fill="#FEFECE" filter="url(#f65oucr18ea3m)" height="31.6094" style="stroke:#A80036;stroke-width:1.5;" width="60" x="389" y="53"/><text fill="#000000" font-family="sans-serif" font-size="14" lengthAdjust="spacing" textLength="46" x="396" y="74.5332">System</text><rect fill="#FEFECE" filter="url(#f65oucr18ea3m)" height="31.6094" style="stroke:#A80036;stroke-width:1.5;" width="60" x="389" y="272.3672"/><text fill="#000000" font-family="sans-serif" font-size="14" lengthAdjust="spacing" textLength="46" x="396" y="293.9004">System</text><rect fill="#FFFFFF" filter="url(#f65oucr18ea3m)" height="155.7578" style="stroke:#A80036;stroke-width:1.0;" width="10" x="55" y="99.6094"/><rect fill="#FFFFFF" filter="url(#f65oucr18ea3m)" height="51.7031" style="stroke:#A80036;stroke-width:1.0;" width="10" x="416" y="121.9609"/><rect fill="#FFFFFF" filter="url(#f65oucr18ea3m)" height="30" style="stroke:#A80036;stroke-width:1.0;" width="10" x="416" y="225.3672"/><polygon fill="#A80036" points="404,117.9609,414,121.9609,404,125.9609,408,121.9609" style="stroke:#A80036;stroke-width:1.0;"/><line style="stroke:#A80036;stroke-width:1.0;" x1="65" x2="410" y1="121.9609" y2="121.9609"/><text fill="#000000" font-family="sans-serif" font-size="13" font-weight="bold" lengthAdjust="spacing" textLength="7" x="72" y="117.1045">1</text><text fill="#000000" font-family="sans-serif" font-size="13" lengthAdjust="spacing" textLength="321" x="83" y="117.1045">starts the script loading of objects' data to the database</text><polygon fill="#A80036" points="76,169.6641,66,173.6641,76,177.6641,72,173.6641" style="stroke:#A80036;stroke-width:1.0;"/><line style="stroke:#A80036;stroke-width:1.0;stroke-dasharray:2.0,2.0;" x1="70" x2="420" y1="173.6641" y2="173.6641"/><text fill="#000000" font-family="sans-serif" font-size="13" font-weight="bold" lengthAdjust="spacing" textLength="7" x="82" y="168.8076">2</text><text fill="#000000" font-family="sans-serif" font-size="13" lengthAdjust="spacing" textLength="245" x="93" y="168.8076">displays a list of types of objects to import</text><path d="M431,134.9609 L431,193.9609 L716,193.9609 L716,144.9609 L706,134.9609 L431,134.9609 " fill="#FBFB77" filter="url(#f65oucr18ea3m)" style="stroke:#A80036;stroke-width:1.0;"/><path d="M706,134.9609 L706,144.9609 L716,144.9609 L706,134.9609 " fill="#FBFB77" style="stroke:#A80036;stroke-width:1.0;"/><text fill="#000000" font-family="sans-serif" font-size="13" lengthAdjust="spacing" textLength="190" x="437" y="153.4561">Ships, ShipLocations, Countries,</text><text fill="#000000" font-family="sans-serif" font-size="13" lengthAdjust="spacing" textLength="149" x="437" y="169.8076">PlaceLocations and Ports</text><text fill="#000000" font-family="sans-serif" font-size="13" lengthAdjust="spacing" textLength="264" x="437" y="186.1592">are the types of objects available for importing</text><polygon fill="#A80036" points="404,221.3672,414,225.3672,404,229.3672,408,225.3672" style="stroke:#A80036;stroke-width:1.0;"/><line style="stroke:#A80036;stroke-width:1.0;" x1="65" x2="410" y1="225.3672" y2="225.3672"/><text fill="#000000" font-family="sans-serif" font-size="13" font-weight="bold" lengthAdjust="spacing" textLength="7" x="72" y="220.5107">3</text><text fill="#000000" font-family="sans-serif" font-size="13" lengthAdjust="spacing" textLength="201" x="83" y="220.5107">selects the type of object to import</text><!--MD5=[e75610bb4a7a7619aaee1dfa83126149]
@startuml
autonumber
actor "Project Manager" as PJ
participant "System" as system


activate PJ
PJ -> system : starts the script loading of objects' data to the database
activate system

system - -> PJ : displays a list of types of objects to import
deactivate system
note right: Ships, ShipLocations, Countries, \nPlaceLocations and Ports \nare the types of objects available for importing

PJ -> system : selects the type of object to import
activate system
deactivate system

deactivate PJ
@enduml

PlantUML version 1.2021.11(Sat Oct 02 14:26:11 BST 2021)
(GPL source distribution)
Java Runtime: OpenJDK Runtime Environment
JVM: OpenJDK 64-Bit Server VM
Default Encoding: Cp1252
Language: pt
Country: PT
--></g></svg>