<?xml version="1.0" encoding="UTF-8" standalone="no"?><svg xmlns="http://www.w3.org/2000/svg" xmlns:xlink="http://www.w3.org/1999/xlink" contentScriptType="application/ecmascript" contentStyleType="text/css" height="1812px" preserveAspectRatio="none" style="width:831px;height:1812px;" version="1.1" viewBox="0 0 831 1812" width="831px" zoomAndPan="magnify"><defs><filter height="300%" id="f1gp4hnd267a29" width="300%" x="-1" y="-1"><feGaussianBlur result="blurOut" stdDeviation="3.0"/><feColorMatrix in="blurOut" result="blurOut2" type="matrix" values="0 0 0 0 0 0 0 0 0 0 0 0 0 0 0 0 0 0 .4 0"/><feOffset dx="6.0" dy="6.0" in="blurOut2" result="blurOut3"/><feBlend in="SourceGraphic" in2="blurOut3" mode="normal"/></filter></defs><g><!--MD5=[8a180c720bdcaca249d12af2455579af]
class ClosenessLocalsUI--><rect codeLine="7" fill="#FEFECE" filter="url(#f1gp4hnd267a29)" height="72" id="ClosenessLocalsUI" style="stroke:#A80036;stroke-width:2.25;" width="213" x="150.75" y="10.5"/><ellipse cx="173.25" cy="34.5" fill="#ADD1B2" rx="16.5" ry="16.5" style="stroke:#A80036;stroke-width:1.5;"/><path d="M176.25,29.25 Q176.5547,28.5 176.9063,28.125 Q177.2578,27.75 177.6563,27.75 Q178.3594,27.75 178.8047,28.1719 Q179.25,28.5938 179.25,29.5781 L179.25,31.9219 Q179.25,32.9063 178.8281,33.3281 Q178.4063,33.75 177.75,33.75 Q177.1641,33.75 176.7891,33.4922 Q176.4141,33.2344 176.25,32.5547 Q176.1797,32.0859 175.9219,31.8281 Q175.4531,31.3359 174.6094,31.0547 Q173.7656,30.75 172.9219,30.75 Q171.8672,30.75 170.9766,31.1719 Q170.1094,31.5938 169.4297,32.5313 Q168.75,33.4688 168.75,34.7578 L168.75,36.1406 Q168.75,37.6875 170.0156,38.7188 Q171.2813,39.75 173.5313,39.75 Q174.8672,39.75 175.8047,39.4453 Q176.3438,39.2813 176.9531,38.7422 Q177.3516,38.4375 177.5625,38.3438 Q177.7734,38.25 178.0313,38.25 Q178.5234,38.25 178.875,38.6484 Q179.25,39.0234 179.25,39.5625 Q179.25,40.0781 178.7344,40.6875 Q177.9844,41.5781 176.7891,42.0703 Q175.2188,42.75 173.2969,42.75 Q171.0469,42.75 169.2422,41.8594 Q167.7891,41.1563 166.7578,39.6328 Q165.75,38.1094 165.75,36.3047 L165.75,34.6641 Q165.75,32.7891 166.6406,31.1484 Q167.5547,29.5078 169.125,28.6406 Q170.7188,27.75 172.5,27.75 Q173.5781,27.75 174.5156,28.125 Q175.4531,28.5 176.25,29.25 Z " fill="#000000"/><text fill="#000000" font-family="sans-serif" font-size="18" lengthAdjust="spacing" textLength="165" x="194.25" y="41.8652">ClosenessLocalsUI</text><line style="stroke:#A80036;stroke-width:2.25;" x1="152.25" x2="362.25" y1="58.5" y2="58.5"/><line style="stroke:#A80036;stroke-width:2.25;" x1="152.25" x2="362.25" y1="70.5" y2="70.5"/><!--MD5=[22a78233309a5450205136e28968c438]
class ClosenessLocalsController--><rect codeLine="9" fill="#FEFECE" filter="url(#f1gp4hnd267a29)" height="92.7539" id="ClosenessLocalsController" style="stroke:#A80036;stroke-width:2.25;" width="276" x="119.25" y="174"/><ellipse cx="141.75" cy="198" fill="#ADD1B2" rx="16.5" ry="16.5" style="stroke:#A80036;stroke-width:1.5;"/><path d="M144.75,192.75 Q145.0547,192 145.4063,191.625 Q145.7578,191.25 146.1563,191.25 Q146.8594,191.25 147.3047,191.6719 Q147.75,192.0938 147.75,193.0781 L147.75,195.4219 Q147.75,196.4063 147.3281,196.8281 Q146.9063,197.25 146.25,197.25 Q145.6641,197.25 145.2891,196.9922 Q144.9141,196.7344 144.75,196.0547 Q144.6797,195.5859 144.4219,195.3281 Q143.9531,194.8359 143.1094,194.5547 Q142.2656,194.25 141.4219,194.25 Q140.3672,194.25 139.4766,194.6719 Q138.6094,195.0938 137.9297,196.0313 Q137.25,196.9688 137.25,198.2578 L137.25,199.6406 Q137.25,201.1875 138.5156,202.2188 Q139.7813,203.25 142.0313,203.25 Q143.3672,203.25 144.3047,202.9453 Q144.8438,202.7813 145.4531,202.2422 Q145.8516,201.9375 146.0625,201.8438 Q146.2734,201.75 146.5313,201.75 Q147.0234,201.75 147.375,202.1484 Q147.75,202.5234 147.75,203.0625 Q147.75,203.5781 147.2344,204.1875 Q146.4844,205.0781 145.2891,205.5703 Q143.7188,206.25 141.7969,206.25 Q139.5469,206.25 137.7422,205.3594 Q136.2891,204.6563 135.2578,203.1328 Q134.25,201.6094 134.25,199.8047 L134.25,198.1641 Q134.25,196.2891 135.1406,194.6484 Q136.0547,193.0078 137.625,192.1406 Q139.2188,191.25 141,191.25 Q142.0781,191.25 143.0156,191.625 Q143.9531,192 144.75,192.75 Z " fill="#000000"/><text fill="#000000" font-family="sans-serif" font-size="18" lengthAdjust="spacing" textLength="228" x="162.75" y="205.3652">ClosenessLocalsController</text><line style="stroke:#A80036;stroke-width:2.25;" x1="120.75" x2="393.75" y1="222" y2="222"/><line style="stroke:#A80036;stroke-width:2.25;" x1="120.75" x2="393.75" y1="234" y2="234"/><text fill="#000000" font-family="sans-serif" font-size="16.5" lengthAdjust="spacing" textLength="150" x="128.25" y="257.1284">-closenessLocals(n)</text><!--MD5=[1fa23e875f7ea39406cc4f0fd95e1dab]
class CountryStore--><rect codeLine="13" fill="#FEFECE" filter="url(#f1gp4hnd267a29)" height="72" id="CountryStore" style="stroke:#A80036;stroke-width:2.25;" width="154.5" x="10.5" y="642"/><ellipse cx="33" cy="666" fill="#ADD1B2" rx="16.5" ry="16.5" style="stroke:#A80036;stroke-width:1.5;"/><path d="M36,660.75 Q36.3047,660 36.6563,659.625 Q37.0078,659.25 37.4063,659.25 Q38.1094,659.25 38.5547,659.6719 Q39,660.0938 39,661.0781 L39,663.4219 Q39,664.4063 38.5781,664.8281 Q38.1563,665.25 37.5,665.25 Q36.9141,665.25 36.5391,664.9922 Q36.1641,664.7344 36,664.0547 Q35.9297,663.5859 35.6719,663.3281 Q35.2031,662.8359 34.3594,662.5547 Q33.5156,662.25 32.6719,662.25 Q31.6172,662.25 30.7266,662.6719 Q29.8594,663.0938 29.1797,664.0313 Q28.5,664.9688 28.5,666.2578 L28.5,667.6406 Q28.5,669.1875 29.7656,670.2188 Q31.0313,671.25 33.2813,671.25 Q34.6172,671.25 35.5547,670.9453 Q36.0938,670.7813 36.7031,670.2422 Q37.1016,669.9375 37.3125,669.8438 Q37.5234,669.75 37.7813,669.75 Q38.2734,669.75 38.625,670.1484 Q39,670.5234 39,671.0625 Q39,671.5781 38.4844,672.1875 Q37.7344,673.0781 36.5391,673.5703 Q34.9688,674.25 33.0469,674.25 Q30.7969,674.25 28.9922,673.3594 Q27.5391,672.6563 26.5078,671.1328 Q25.5,669.6094 25.5,667.8047 L25.5,666.1641 Q25.5,664.2891 26.3906,662.6484 Q27.3047,661.0078 28.875,660.1406 Q30.4688,659.25 32.25,659.25 Q33.3281,659.25 34.2656,659.625 Q35.2031,660 36,660.75 Z " fill="#000000"/><text fill="#000000" font-family="sans-serif" font-size="18" lengthAdjust="spacing" textLength="106.5" x="54" y="673.3652">CountryStore</text><line style="stroke:#A80036;stroke-width:2.25;" x1="12" x2="163.5" y1="690" y2="690"/><line style="stroke:#A80036;stroke-width:2.25;" x1="12" x2="163.5" y1="702" y2="702"/><!--MD5=[02e4b9b7573f1156f41e60aa5b4e25a4]
class Company--><rect codeLine="16" fill="#FEFECE" filter="url(#f1gp4hnd267a29)" height="134.2617" id="Company" style="stroke:#A80036;stroke-width:2.25;" width="169.5" x="172.5" y="358.5"/><ellipse cx="213.9" cy="382.5" fill="#ADD1B2" rx="16.5" ry="16.5" style="stroke:#A80036;stroke-width:1.5;"/><path d="M216.9,377.25 Q217.2047,376.5 217.5562,376.125 Q217.9078,375.75 218.3062,375.75 Q219.0094,375.75 219.4547,376.1719 Q219.9,376.5938 219.9,377.5781 L219.9,379.9219 Q219.9,380.9063 219.4781,381.3281 Q219.0562,381.75 218.4,381.75 Q217.8141,381.75 217.4391,381.4922 Q217.0641,381.2344 216.9,380.5547 Q216.8297,380.0859 216.5719,379.8281 Q216.1031,379.3359 215.2594,379.0547 Q214.4156,378.75 213.5719,378.75 Q212.5172,378.75 211.6266,379.1719 Q210.7594,379.5938 210.0797,380.5313 Q209.4,381.4688 209.4,382.7578 L209.4,384.1406 Q209.4,385.6875 210.6656,386.7188 Q211.9312,387.75 214.1812,387.75 Q215.5172,387.75 216.4547,387.4453 Q216.9937,387.2813 217.6031,386.7422 Q218.0016,386.4375 218.2125,386.3438 Q218.4234,386.25 218.6812,386.25 Q219.1734,386.25 219.525,386.6484 Q219.9,387.0234 219.9,387.5625 Q219.9,388.0781 219.3844,388.6875 Q218.6344,389.5781 217.4391,390.0703 Q215.8687,390.75 213.9469,390.75 Q211.6969,390.75 209.8922,389.8594 Q208.4391,389.1563 207.4078,387.6328 Q206.4,386.1094 206.4,384.3047 L206.4,382.6641 Q206.4,380.7891 207.2906,379.1484 Q208.2047,377.5078 209.775,376.6406 Q211.3687,375.75 213.15,375.75 Q214.2281,375.75 215.1656,376.125 Q216.1031,376.5 216.9,377.25 Z " fill="#000000"/><text fill="#000000" font-family="sans-serif" font-size="18" lengthAdjust="spacing" textLength="79.5" x="239.1" y="389.8652">Company</text><line style="stroke:#A80036;stroke-width:2.25;" x1="174" x2="340.5" y1="406.5" y2="406.5"/><text fill="#000000" font-family="sans-serif" font-size="16.5" lengthAdjust="spacing" textLength="88.5" x="181.5" y="429.6284">-designation</text><line style="stroke:#A80036;stroke-width:2.25;" x1="174" x2="340.5" y1="439.2539" y2="439.2539"/><text fill="#000000" font-family="sans-serif" font-size="16.5" lengthAdjust="spacing" textLength="151.5" x="181.5" y="462.3823">-getFreightNetwork()</text><text fill="#000000" font-family="sans-serif" font-size="16.5" lengthAdjust="spacing" textLength="136.5" x="181.5" y="483.1362">-getCountryStore()</text><!--MD5=[074ba6ad47b234bd73d65012320c1634]
class FreightNetwork--><rect codeLine="22" fill="#FEFECE" filter="url(#f1gp4hnd267a29)" height="134.2617" id="FreightNetwork" style="stroke:#A80036;stroke-width:2.25;" width="411" x="218.25" y="610.5"/><ellipse cx="355.125" cy="634.5" fill="#ADD1B2" rx="16.5" ry="16.5" style="stroke:#A80036;stroke-width:1.5;"/><path d="M358.125,629.25 Q358.4297,628.5 358.7813,628.125 Q359.1328,627.75 359.5313,627.75 Q360.2344,627.75 360.6797,628.1719 Q361.125,628.5938 361.125,629.5781 L361.125,631.9219 Q361.125,632.9063 360.7031,633.3281 Q360.2813,633.75 359.625,633.75 Q359.0391,633.75 358.6641,633.4922 Q358.2891,633.2344 358.125,632.5547 Q358.0547,632.0859 357.7969,631.8281 Q357.3281,631.3359 356.4844,631.0547 Q355.6406,630.75 354.7969,630.75 Q353.7422,630.75 352.8516,631.1719 Q351.9844,631.5938 351.3047,632.5313 Q350.625,633.4688 350.625,634.7578 L350.625,636.1406 Q350.625,637.6875 351.8906,638.7188 Q353.1563,639.75 355.4063,639.75 Q356.7422,639.75 357.6797,639.4453 Q358.2188,639.2813 358.8281,638.7422 Q359.2266,638.4375 359.4375,638.3438 Q359.6484,638.25 359.9063,638.25 Q360.3984,638.25 360.75,638.6484 Q361.125,639.0234 361.125,639.5625 Q361.125,640.0781 360.6094,640.6875 Q359.8594,641.5781 358.6641,642.0703 Q357.0938,642.75 355.1719,642.75 Q352.9219,642.75 351.1172,641.8594 Q349.6641,641.1563 348.6328,639.6328 Q347.625,638.1094 347.625,636.3047 L347.625,634.6641 Q347.625,632.7891 348.5156,631.1484 Q349.4297,629.5078 351,628.6406 Q352.5938,627.75 354.375,627.75 Q355.4531,627.75 356.3906,628.125 Q357.3281,628.5 358.125,629.25 Z " fill="#000000"/><text fill="#000000" font-family="sans-serif" font-size="18" lengthAdjust="spacing" textLength="124.5" x="385.875" y="641.8652">FreightNetwork</text><line style="stroke:#A80036;stroke-width:2.25;" x1="219.75" x2="627.75" y1="658.5" y2="658.5"/><line style="stroke:#A80036;stroke-width:2.25;" x1="219.75" x2="627.75" y1="670.5" y2="670.5"/><text fill="#000000" font-family="sans-serif" font-size="16.5" lengthAdjust="spacing" textLength="265.5" x="227.25" y="693.6284">-mostCenteredCities(n,countryStore)</text><text fill="#000000" font-family="sans-serif" font-size="16.5" lengthAdjust="spacing" textLength="393" x="227.25" y="714.3823">-mostCenteredCitiesOnTheContinent(n,continentName)</text><text fill="#000000" font-family="sans-serif" font-size="16.5" lengthAdjust="spacing" textLength="223.5" x="227.25" y="735.1362">-mediaDist(place, matrixGraph)</text><!--MD5=[ea13aecf8df941b18fb8e3885c78c184]
class Ports--><rect codeLine="29" fill="#FEFECE" filter="url(#f1gp4hnd267a29)" height="113.5078" id="Ports" style="stroke:#A80036;stroke-width:2.25;" width="114" x="689.25" y="1092.75"/><ellipse cx="721.875" cy="1116.75" fill="#ADD1B2" rx="16.5" ry="16.5" style="stroke:#A80036;stroke-width:1.5;"/><path d="M724.875,1111.5 Q725.1797,1110.75 725.5313,1110.375 Q725.8828,1110 726.2813,1110 Q726.9844,1110 727.4297,1110.4219 Q727.875,1110.8438 727.875,1111.8281 L727.875,1114.1719 Q727.875,1115.1563 727.4531,1115.5781 Q727.0313,1116 726.375,1116 Q725.7891,1116 725.4141,1115.7422 Q725.0391,1115.4844 724.875,1114.8047 Q724.8047,1114.3359 724.5469,1114.0781 Q724.0781,1113.5859 723.2344,1113.3047 Q722.3906,1113 721.5469,1113 Q720.4922,1113 719.6016,1113.4219 Q718.7344,1113.8438 718.0547,1114.7813 Q717.375,1115.7188 717.375,1117.0078 L717.375,1118.3906 Q717.375,1119.9375 718.6406,1120.9688 Q719.9063,1122 722.1563,1122 Q723.4922,1122 724.4297,1121.6953 Q724.9688,1121.5313 725.5781,1120.9922 Q725.9766,1120.6875 726.1875,1120.5938 Q726.3984,1120.5 726.6563,1120.5 Q727.1484,1120.5 727.5,1120.8984 Q727.875,1121.2734 727.875,1121.8125 Q727.875,1122.3281 727.3594,1122.9375 Q726.6094,1123.8281 725.4141,1124.3203 Q723.8438,1125 721.9219,1125 Q719.6719,1125 717.8672,1124.1094 Q716.4141,1123.4063 715.3828,1121.8828 Q714.375,1120.3594 714.375,1118.5547 L714.375,1116.9141 Q714.375,1115.0391 715.2656,1113.3984 Q716.1797,1111.7578 717.75,1110.8906 Q719.3438,1110 721.125,1110 Q722.2031,1110 723.1406,1110.375 Q724.0781,1110.75 724.875,1111.5 Z " fill="#000000"/><text fill="#000000" font-family="sans-serif" font-size="18" lengthAdjust="spacing" textLength="43.5" x="745.125" y="1124.1152">Ports</text><line style="stroke:#A80036;stroke-width:2.25;" x1="690.75" x2="801.75" y1="1140.75" y2="1140.75"/><text fill="#000000" font-family="sans-serif" font-size="16.5" lengthAdjust="spacing" textLength="96" x="698.25" y="1163.8784">-identification</text><text fill="#000000" font-family="sans-serif" font-size="16.5" lengthAdjust="spacing" textLength="45" x="698.25" y="1184.6323">-name</text><line style="stroke:#A80036;stroke-width:2.25;" x1="690.75" x2="801.75" y1="1194.2578" y2="1194.2578"/><!--MD5=[deb4e1f6eb1e3c1256fdb830f96abfbb]
class Country--><rect codeLine="35" fill="#FEFECE" filter="url(#f1gp4hnd267a29)" height="113.5078" id="Country" style="stroke:#A80036;stroke-width:2.25;" width="111" x="171.75" y="1395.75"/><ellipse cx="194.25" cy="1419.75" fill="#ADD1B2" rx="16.5" ry="16.5" style="stroke:#A80036;stroke-width:1.5;"/><path d="M197.25,1414.5 Q197.5547,1413.75 197.9063,1413.375 Q198.2578,1413 198.6563,1413 Q199.3594,1413 199.8047,1413.4219 Q200.25,1413.8438 200.25,1414.8281 L200.25,1417.1719 Q200.25,1418.1563 199.8281,1418.5781 Q199.4063,1419 198.75,1419 Q198.1641,1419 197.7891,1418.7422 Q197.4141,1418.4844 197.25,1417.8047 Q197.1797,1417.3359 196.9219,1417.0781 Q196.4531,1416.5859 195.6094,1416.3047 Q194.7656,1416 193.9219,1416 Q192.8672,1416 191.9766,1416.4219 Q191.1094,1416.8438 190.4297,1417.7813 Q189.75,1418.7188 189.75,1420.0078 L189.75,1421.3906 Q189.75,1422.9375 191.0156,1423.9688 Q192.2813,1425 194.5313,1425 Q195.8672,1425 196.8047,1424.6953 Q197.3438,1424.5313 197.9531,1423.9922 Q198.3516,1423.6875 198.5625,1423.5938 Q198.7734,1423.5 199.0313,1423.5 Q199.5234,1423.5 199.875,1423.8984 Q200.25,1424.2734 200.25,1424.8125 Q200.25,1425.3281 199.7344,1425.9375 Q198.9844,1426.8281 197.7891,1427.3203 Q196.2188,1428 194.2969,1428 Q192.0469,1428 190.2422,1427.1094 Q188.7891,1426.4063 187.7578,1424.8828 Q186.75,1423.3594 186.75,1421.5547 L186.75,1419.9141 Q186.75,1418.0391 187.6406,1416.3984 Q188.5547,1414.7578 190.125,1413.8906 Q191.7188,1413 193.5,1413 Q194.5781,1413 195.5156,1413.375 Q196.4531,1413.75 197.25,1414.5 Z " fill="#000000"/><text fill="#000000" font-family="sans-serif" font-size="18" lengthAdjust="spacing" textLength="63" x="215.25" y="1427.1152">Country</text><line style="stroke:#A80036;stroke-width:2.25;" x1="173.25" x2="281.25" y1="1443.75" y2="1443.75"/><text fill="#000000" font-family="sans-serif" font-size="16.5" lengthAdjust="spacing" textLength="45" x="180.75" y="1466.8784">-name</text><text fill="#000000" font-family="sans-serif" font-size="16.5" lengthAdjust="spacing" textLength="72" x="180.75" y="1487.6323">-continent</text><line style="stroke:#A80036;stroke-width:2.25;" x1="173.25" x2="281.25" y1="1497.2578" y2="1497.2578"/><!--MD5=[9febfb2ff9adfe183e01ff702b9c1c02]
class PlaceLocation--><rect codeLine="40" fill="#FEFECE" filter="url(#f1gp4hnd267a29)" height="113.5078" id="PlaceLocation" style="stroke:#A80036;stroke-width:2.25;" width="165" x="471.75" y="1092.75"/><ellipse cx="494.25" cy="1116.75" fill="#ADD1B2" rx="16.5" ry="16.5" style="stroke:#A80036;stroke-width:1.5;"/><path d="M497.25,1111.5 Q497.5547,1110.75 497.9063,1110.375 Q498.2578,1110 498.6563,1110 Q499.3594,1110 499.8047,1110.4219 Q500.25,1110.8438 500.25,1111.8281 L500.25,1114.1719 Q500.25,1115.1563 499.8281,1115.5781 Q499.4063,1116 498.75,1116 Q498.1641,1116 497.7891,1115.7422 Q497.4141,1115.4844 497.25,1114.8047 Q497.1797,1114.3359 496.9219,1114.0781 Q496.4531,1113.5859 495.6094,1113.3047 Q494.7656,1113 493.9219,1113 Q492.8672,1113 491.9766,1113.4219 Q491.1094,1113.8438 490.4297,1114.7813 Q489.75,1115.7188 489.75,1117.0078 L489.75,1118.3906 Q489.75,1119.9375 491.0156,1120.9688 Q492.2813,1122 494.5313,1122 Q495.8672,1122 496.8047,1121.6953 Q497.3438,1121.5313 497.9531,1120.9922 Q498.3516,1120.6875 498.5625,1120.5938 Q498.7734,1120.5 499.0313,1120.5 Q499.5234,1120.5 499.875,1120.8984 Q500.25,1121.2734 500.25,1121.8125 Q500.25,1122.3281 499.7344,1122.9375 Q498.9844,1123.8281 497.7891,1124.3203 Q496.2188,1125 494.2969,1125 Q492.0469,1125 490.2422,1124.1094 Q488.7891,1123.4063 487.7578,1121.8828 Q486.75,1120.3594 486.75,1118.5547 L486.75,1116.9141 Q486.75,1115.0391 487.6406,1113.3984 Q488.5547,1111.7578 490.125,1110.8906 Q491.7188,1110 493.5,1110 Q494.5781,1110 495.5156,1110.375 Q496.4531,1110.75 497.25,1111.5 Z " fill="#000000"/><text fill="#000000" font-family="sans-serif" font-size="18" lengthAdjust="spacing" textLength="117" x="515.25" y="1124.1152">PlaceLocation</text><line style="stroke:#A80036;stroke-width:2.25;" x1="473.25" x2="635.25" y1="1140.75" y2="1140.75"/><text fill="#000000" font-family="sans-serif" font-size="16.5" lengthAdjust="spacing" textLength="57" x="480.75" y="1163.8784">-latitude</text><text fill="#000000" font-family="sans-serif" font-size="16.5" lengthAdjust="spacing" textLength="70.5" x="480.75" y="1184.6323">-longitude</text><line style="stroke:#A80036;stroke-width:2.25;" x1="473.25" x2="635.25" y1="1194.2578" y2="1194.2578"/><!--MD5=[ea8f20dfdca176213da526d9b557babf]
class Capital--><rect codeLine="45" fill="#FEFECE" filter="url(#f1gp4hnd267a29)" height="155.0156" id="Capital" style="stroke:#A80036;stroke-width:2.25;" width="106.5" x="312" y="1072.5"/><ellipse cx="334.5" cy="1096.5" fill="#ADD1B2" rx="16.5" ry="16.5" style="stroke:#A80036;stroke-width:1.5;"/><path d="M337.5,1091.25 Q337.8047,1090.5 338.1563,1090.125 Q338.5078,1089.75 338.9063,1089.75 Q339.6094,1089.75 340.0547,1090.1719 Q340.5,1090.5938 340.5,1091.5781 L340.5,1093.9219 Q340.5,1094.9063 340.0781,1095.3281 Q339.6563,1095.75 339,1095.75 Q338.4141,1095.75 338.0391,1095.4922 Q337.6641,1095.2344 337.5,1094.5547 Q337.4297,1094.0859 337.1719,1093.8281 Q336.7031,1093.3359 335.8594,1093.0547 Q335.0156,1092.75 334.1719,1092.75 Q333.1172,1092.75 332.2266,1093.1719 Q331.3594,1093.5938 330.6797,1094.5313 Q330,1095.4688 330,1096.7578 L330,1098.1406 Q330,1099.6875 331.2656,1100.7188 Q332.5313,1101.75 334.7813,1101.75 Q336.1172,1101.75 337.0547,1101.4453 Q337.5938,1101.2813 338.2031,1100.7422 Q338.6016,1100.4375 338.8125,1100.3438 Q339.0234,1100.25 339.2813,1100.25 Q339.7734,1100.25 340.125,1100.6484 Q340.5,1101.0234 340.5,1101.5625 Q340.5,1102.0781 339.9844,1102.6875 Q339.2344,1103.5781 338.0391,1104.0703 Q336.4688,1104.75 334.5469,1104.75 Q332.2969,1104.75 330.4922,1103.8594 Q329.0391,1103.1563 328.0078,1101.6328 Q327,1100.1094 327,1098.3047 L327,1096.6641 Q327,1094.7891 327.8906,1093.1484 Q328.8047,1091.5078 330.375,1090.6406 Q331.9688,1089.75 333.75,1089.75 Q334.8281,1089.75 335.7656,1090.125 Q336.7031,1090.5 337.5,1091.25 Z " fill="#000000"/><text fill="#000000" font-family="sans-serif" font-size="18" lengthAdjust="spacing" textLength="58.5" x="355.5" y="1103.8652">Capital</text><line style="stroke:#A80036;stroke-width:2.25;" x1="313.5" x2="417" y1="1120.5" y2="1120.5"/><text fill="#000000" font-family="sans-serif" font-size="16.5" lengthAdjust="spacing" textLength="45" x="321" y="1143.6284">-name</text><text fill="#000000" font-family="sans-serif" font-size="16.5" lengthAdjust="spacing" textLength="61.5" x="321" y="1164.3823">-country</text><text fill="#000000" font-family="sans-serif" font-size="16.5" lengthAdjust="spacing" textLength="57" x="321" y="1185.1362">-latitude</text><text fill="#000000" font-family="sans-serif" font-size="16.5" lengthAdjust="spacing" textLength="70.5" x="321" y="1205.8901">-longitude</text><line style="stroke:#A80036;stroke-width:2.25;" x1="313.5" x2="417" y1="1215.5156" y2="1215.5156"/><!--MD5=[8515a37c80da559ff7ce07f8a9e75d30]
class Place--><rect codeLine="52" fill="#FEFECE" filter="url(#f1gp4hnd267a29)" height="72" id="Place" style="stroke:#A80036;stroke-width:2.25;" width="94.5" x="468" y="873"/><ellipse cx="490.5" cy="897" fill="#ADD1B2" rx="16.5" ry="16.5" style="stroke:#A80036;stroke-width:1.5;"/><path d="M493.5,891.75 Q493.8047,891 494.1563,890.625 Q494.5078,890.25 494.9063,890.25 Q495.6094,890.25 496.0547,890.6719 Q496.5,891.0938 496.5,892.0781 L496.5,894.4219 Q496.5,895.4063 496.0781,895.8281 Q495.6563,896.25 495,896.25 Q494.4141,896.25 494.0391,895.9922 Q493.6641,895.7344 493.5,895.0547 Q493.4297,894.5859 493.1719,894.3281 Q492.7031,893.8359 491.8594,893.5547 Q491.0156,893.25 490.1719,893.25 Q489.1172,893.25 488.2266,893.6719 Q487.3594,894.0938 486.6797,895.0313 Q486,895.9688 486,897.2578 L486,898.6406 Q486,900.1875 487.2656,901.2188 Q488.5313,902.25 490.7813,902.25 Q492.1172,902.25 493.0547,901.9453 Q493.5938,901.7813 494.2031,901.2422 Q494.6016,900.9375 494.8125,900.8438 Q495.0234,900.75 495.2813,900.75 Q495.7734,900.75 496.125,901.1484 Q496.5,901.5234 496.5,902.0625 Q496.5,902.5781 495.9844,903.1875 Q495.2344,904.0781 494.0391,904.5703 Q492.4688,905.25 490.5469,905.25 Q488.2969,905.25 486.4922,904.3594 Q485.0391,903.6563 484.0078,902.1328 Q483,900.6094 483,898.8047 L483,897.1641 Q483,895.2891 483.8906,893.6484 Q484.8047,892.0078 486.375,891.1406 Q487.9688,890.25 489.75,890.25 Q490.8281,890.25 491.7656,890.625 Q492.7031,891 493.5,891.75 Z " fill="#000000"/><text fill="#000000" font-family="sans-serif" font-size="18" lengthAdjust="spacing" textLength="46.5" x="511.5" y="904.3652">Place</text><line style="stroke:#A80036;stroke-width:2.25;" x1="469.5" x2="561" y1="921" y2="921"/><line style="stroke:#A80036;stroke-width:2.25;" x1="469.5" x2="561" y1="933" y2="933"/><!--MD5=[a0336aaa8110b78d9cacadb9d45e00a3]
class Border--><rect codeLine="56" fill="#FEFECE" filter="url(#f1gp4hnd267a29)" height="113.5078" id="Border" style="stroke:#A80036;stroke-width:2.25;" width="129" x="162.75" y="1678.5"/><ellipse cx="196.725" cy="1702.5" fill="#ADD1B2" rx="16.5" ry="16.5" style="stroke:#A80036;stroke-width:1.5;"/><path d="M199.725,1697.25 Q200.0297,1696.5 200.3813,1696.125 Q200.7328,1695.75 201.1313,1695.75 Q201.8344,1695.75 202.2797,1696.1719 Q202.725,1696.5938 202.725,1697.5781 L202.725,1699.9219 Q202.725,1700.9063 202.3031,1701.3281 Q201.8813,1701.75 201.225,1701.75 Q200.6391,1701.75 200.2641,1701.4922 Q199.8891,1701.2344 199.725,1700.5547 Q199.6547,1700.0859 199.3969,1699.8281 Q198.9281,1699.3359 198.0844,1699.0547 Q197.2406,1698.75 196.3969,1698.75 Q195.3422,1698.75 194.4516,1699.1719 Q193.5844,1699.5938 192.9047,1700.5313 Q192.225,1701.4688 192.225,1702.7578 L192.225,1704.1406 Q192.225,1705.6875 193.4906,1706.7188 Q194.7563,1707.75 197.0063,1707.75 Q198.3422,1707.75 199.2797,1707.4453 Q199.8188,1707.2813 200.4281,1706.7422 Q200.8266,1706.4375 201.0375,1706.3438 Q201.2484,1706.25 201.5063,1706.25 Q201.9984,1706.25 202.35,1706.6484 Q202.725,1707.0234 202.725,1707.5625 Q202.725,1708.0781 202.2094,1708.6875 Q201.4594,1709.5781 200.2641,1710.0703 Q198.6938,1710.75 196.7719,1710.75 Q194.5219,1710.75 192.7172,1709.8594 Q191.2641,1709.1563 190.2328,1707.6328 Q189.225,1706.1094 189.225,1704.3047 L189.225,1702.6641 Q189.225,1700.7891 190.1156,1699.1484 Q191.0297,1697.5078 192.6,1696.6406 Q194.1938,1695.75 195.975,1695.75 Q197.0531,1695.75 197.9906,1696.125 Q198.9281,1696.5 199.725,1697.25 Z " fill="#000000"/><text fill="#000000" font-family="sans-serif" font-size="18" lengthAdjust="spacing" textLength="55.5" x="220.275" y="1709.8652">Border</text><line style="stroke:#A80036;stroke-width:2.25;" x1="164.25" x2="290.25" y1="1726.5" y2="1726.5"/><text fill="#000000" font-family="sans-serif" font-size="16.5" lengthAdjust="spacing" textLength="111" x="171.75" y="1749.6284">-countryName1</text><text fill="#000000" font-family="sans-serif" font-size="16.5" lengthAdjust="spacing" textLength="111" x="171.75" y="1770.3823">-countryName2</text><line style="stroke:#A80036;stroke-width:2.25;" x1="164.25" x2="290.25" y1="1780.0078" y2="1780.0078"/><!--MD5=[e24af10a0367b93d82d6bdd24a6ec764]
class Seadist--><rect codeLine="61" fill="#FEFECE" filter="url(#f1gp4hnd267a29)" height="217.2773" id="Seadist" style="stroke:#A80036;stroke-width:2.25;" width="129" x="681.75" y="1344"/><ellipse cx="712.35" cy="1368" fill="#ADD1B2" rx="16.5" ry="16.5" style="stroke:#A80036;stroke-width:1.5;"/><path d="M715.35,1362.75 Q715.6547,1362 716.0062,1361.625 Q716.3578,1361.25 716.7562,1361.25 Q717.4594,1361.25 717.9047,1361.6719 Q718.35,1362.0938 718.35,1363.0781 L718.35,1365.4219 Q718.35,1366.4063 717.9281,1366.8281 Q717.5062,1367.25 716.85,1367.25 Q716.2641,1367.25 715.8891,1366.9922 Q715.5141,1366.7344 715.35,1366.0547 Q715.2797,1365.5859 715.0219,1365.3281 Q714.5531,1364.8359 713.7094,1364.5547 Q712.8656,1364.25 712.0219,1364.25 Q710.9672,1364.25 710.0766,1364.6719 Q709.2094,1365.0938 708.5297,1366.0313 Q707.85,1366.9688 707.85,1368.2578 L707.85,1369.6406 Q707.85,1371.1875 709.1156,1372.2188 Q710.3812,1373.25 712.6312,1373.25 Q713.9672,1373.25 714.9047,1372.9453 Q715.4437,1372.7813 716.0531,1372.2422 Q716.4516,1371.9375 716.6625,1371.8438 Q716.8734,1371.75 717.1312,1371.75 Q717.6234,1371.75 717.975,1372.1484 Q718.35,1372.5234 718.35,1373.0625 Q718.35,1373.5781 717.8344,1374.1875 Q717.0844,1375.0781 715.8891,1375.5703 Q714.3187,1376.25 712.3969,1376.25 Q710.1469,1376.25 708.3422,1375.3594 Q706.8891,1374.6563 705.8578,1373.1328 Q704.85,1371.6094 704.85,1369.8047 L704.85,1368.1641 Q704.85,1366.2891 705.7406,1364.6484 Q706.6547,1363.0078 708.225,1362.1406 Q709.8187,1361.25 711.6,1361.25 Q712.6781,1361.25 713.6156,1361.625 Q714.5531,1362 715.35,1362.75 Z " fill="#000000"/><text fill="#000000" font-family="sans-serif" font-size="18" lengthAdjust="spacing" textLength="63" x="735.15" y="1375.3652">Seadist</text><line style="stroke:#A80036;stroke-width:2.25;" x1="683.25" x2="809.25" y1="1392" y2="1392"/><text fill="#000000" font-family="sans-serif" font-size="16.5" lengthAdjust="spacing" textLength="55.5" x="690.75" y="1415.1284">-portId1</text><text fill="#000000" font-family="sans-serif" font-size="16.5" lengthAdjust="spacing" textLength="55.5" x="690.75" y="1435.8823">-portId2</text><text fill="#000000" font-family="sans-serif" font-size="16.5" lengthAdjust="spacing" textLength="96" x="690.75" y="1456.6362">-seaDistance</text><text fill="#000000" font-family="sans-serif" font-size="16.5" lengthAdjust="spacing" textLength="84" x="690.75" y="1477.3901">-portName1</text><text fill="#000000" font-family="sans-serif" font-size="16.5" lengthAdjust="spacing" textLength="84" x="690.75" y="1498.144">-portName2</text><text fill="#000000" font-family="sans-serif" font-size="16.5" lengthAdjust="spacing" textLength="111" x="690.75" y="1518.8979">-countryName1</text><text fill="#000000" font-family="sans-serif" font-size="16.5" lengthAdjust="spacing" textLength="111" x="690.75" y="1539.6519">-countryName2</text><line style="stroke:#A80036;stroke-width:2.25;" x1="683.25" x2="809.25" y1="1549.2773" y2="1549.2773"/><!--MD5=[305bcb7b78fcb9f22634b78a6e830e55]
class AdjacencyMatrixGraph--><rect codeLine="71" fill="#FEFECE" filter="url(#f1gp4hnd267a29)" height="92.7539" id="AdjacencyMatrixGraph" style="stroke:#A80036;stroke-width:2.25;" width="228" x="185.25" y="862.5"/><ellipse cx="207.75" cy="886.5" fill="#ADD1B2" rx="16.5" ry="16.5" style="stroke:#A80036;stroke-width:1.5;"/><path d="M210.75,881.25 Q211.0547,880.5 211.4063,880.125 Q211.7578,879.75 212.1563,879.75 Q212.8594,879.75 213.3047,880.1719 Q213.75,880.5938 213.75,881.5781 L213.75,883.9219 Q213.75,884.9063 213.3281,885.3281 Q212.9063,885.75 212.25,885.75 Q211.6641,885.75 211.2891,885.4922 Q210.9141,885.2344 210.75,884.5547 Q210.6797,884.0859 210.4219,883.8281 Q209.9531,883.3359 209.1094,883.0547 Q208.2656,882.75 207.4219,882.75 Q206.3672,882.75 205.4766,883.1719 Q204.6094,883.5938 203.9297,884.5313 Q203.25,885.4688 203.25,886.7578 L203.25,888.1406 Q203.25,889.6875 204.5156,890.7188 Q205.7813,891.75 208.0313,891.75 Q209.3672,891.75 210.3047,891.4453 Q210.8438,891.2813 211.4531,890.7422 Q211.8516,890.4375 212.0625,890.3438 Q212.2734,890.25 212.5313,890.25 Q213.0234,890.25 213.375,890.6484 Q213.75,891.0234 213.75,891.5625 Q213.75,892.0781 213.2344,892.6875 Q212.4844,893.5781 211.2891,894.0703 Q209.7188,894.75 207.7969,894.75 Q205.5469,894.75 203.7422,893.8594 Q202.2891,893.1563 201.2578,891.6328 Q200.25,890.1094 200.25,888.3047 L200.25,886.6641 Q200.25,884.7891 201.1406,883.1484 Q202.0547,881.5078 203.625,880.6406 Q205.2188,879.75 207,879.75 Q208.0781,879.75 209.0156,880.125 Q209.9531,880.5 210.75,881.25 Z " fill="#000000"/><text fill="#000000" font-family="sans-serif" font-size="18" lengthAdjust="spacing" textLength="180" x="228.75" y="893.8652">AdjacencyMatrixGraph</text><line style="stroke:#A80036;stroke-width:2.25;" x1="186.75" x2="411.75" y1="910.5" y2="910.5"/><line style="stroke:#A80036;stroke-width:2.25;" x1="186.75" x2="411.75" y1="922.5" y2="922.5"/><text fill="#000000" font-family="sans-serif" font-size="16.5" lengthAdjust="spacing" textLength="54" x="194.25" y="945.6284">-edge()</text><!--MD5=[2e2f8c8f62c4eb3bc59a59727cfd81a5]
class Edge--><rect codeLine="76" fill="#FEFECE" filter="url(#f1gp4hnd267a29)" height="72" id="Edge" style="stroke:#A80036;stroke-width:2.25;" width="91.5" x="168" y="1113.75"/><ellipse cx="190.5" cy="1137.75" fill="#ADD1B2" rx="16.5" ry="16.5" style="stroke:#A80036;stroke-width:1.5;"/><path d="M193.5,1132.5 Q193.8047,1131.75 194.1563,1131.375 Q194.5078,1131 194.9063,1131 Q195.6094,1131 196.0547,1131.4219 Q196.5,1131.8438 196.5,1132.8281 L196.5,1135.1719 Q196.5,1136.1563 196.0781,1136.5781 Q195.6563,1137 195,1137 Q194.4141,1137 194.0391,1136.7422 Q193.6641,1136.4844 193.5,1135.8047 Q193.4297,1135.3359 193.1719,1135.0781 Q192.7031,1134.5859 191.8594,1134.3047 Q191.0156,1134 190.1719,1134 Q189.1172,1134 188.2266,1134.4219 Q187.3594,1134.8438 186.6797,1135.7813 Q186,1136.7188 186,1138.0078 L186,1139.3906 Q186,1140.9375 187.2656,1141.9688 Q188.5313,1143 190.7813,1143 Q192.1172,1143 193.0547,1142.6953 Q193.5938,1142.5313 194.2031,1141.9922 Q194.6016,1141.6875 194.8125,1141.5938 Q195.0234,1141.5 195.2813,1141.5 Q195.7734,1141.5 196.125,1141.8984 Q196.5,1142.2734 196.5,1142.8125 Q196.5,1143.3281 195.9844,1143.9375 Q195.2344,1144.8281 194.0391,1145.3203 Q192.4688,1146 190.5469,1146 Q188.2969,1146 186.4922,1145.1094 Q185.0391,1144.4063 184.0078,1142.8828 Q183,1141.3594 183,1139.5547 L183,1137.9141 Q183,1136.0391 183.8906,1134.3984 Q184.8047,1132.7578 186.375,1131.8906 Q187.9688,1131 189.75,1131 Q190.8281,1131 191.7656,1131.375 Q192.7031,1131.75 193.5,1132.5 Z " fill="#000000"/><text fill="#000000" font-family="sans-serif" font-size="18" lengthAdjust="spacing" textLength="43.5" x="211.5" y="1145.1152">Edge</text><line style="stroke:#A80036;stroke-width:2.25;" x1="169.5" x2="258" y1="1161.75" y2="1161.75"/><line style="stroke:#A80036;stroke-width:2.25;" x1="169.5" x2="258" y1="1173.75" y2="1173.75"/><!--MD5=[d48b8808f8edaa9fa6bd2125360397d7]
link ClosenessLocalsUI to ClosenessLocalsController--><path codeLine="80" d="M257.25,82.605 C257.25,106.515 257.25,138.765 257.25,165.9 " fill="none" id="ClosenessLocalsUI-to-ClosenessLocalsController" style="stroke:#A80036;stroke-width:1.5;stroke-dasharray:7.0,7.0;"/><polygon fill="#A80036" points="257.25,173.415,263.25,159.915,257.25,165.915,251.25,159.915,257.25,173.415" style="stroke:#A80036;stroke-width:1.5;"/><!--MD5=[8f0926b26f2ed8030e9af986a8bc4ce7]
link ClosenessLocalsController to Company--><path codeLine="82" d="M257.25,267.45 C257.25,291.96 257.25,322.83 257.25,350.685 " fill="none" id="ClosenessLocalsController-to-Company" style="stroke:#A80036;stroke-width:1.5;stroke-dasharray:7.0,7.0;"/><polygon fill="#A80036" points="257.25,358.455,263.25,344.955,257.25,350.955,251.25,344.955,257.25,358.455" style="stroke:#A80036;stroke-width:1.5;"/><!--MD5=[75f54beb738ccf17ff58a3473a0212cd]
link ClosenessLocalsController to FreightNetwork--><path codeLine="83" d="M303.945,267.18 C326.865,292.005 352.785,324.6 368.25,358.5 C404.07,437.055 416.88,536.235 421.395,602.76 " fill="none" id="ClosenessLocalsController-to-FreightNetwork" style="stroke:#A80036;stroke-width:1.5;stroke-dasharray:7.0,7.0;"/><polygon fill="#A80036" points="421.875,610.305,427.0138,596.4543,421.4032,602.8199,415.0376,597.2092,421.875,610.305" style="stroke:#A80036;stroke-width:1.5;"/><!--MD5=[e359b474b5bea3d5e0a05d5f38acf6c5]
link Company to FreightNetwork--><path codeLine="85" d="M283.2,493.605 C293.715,517.14 306.885,543.315 321.75,565.5 C331.95,580.725 344.19,595.92 356.61,609.96 " fill="none" id="Company-FreightNetwork" style="stroke:#A80036;stroke-width:1.5;"/><polygon fill="#000000" points="333.2519,558.6067,329.7407,544.7797,322.284,549.4843,333.2519,558.6067" style="stroke:#000000;stroke-width:1.5;"/><text fill="#000000" font-family="sans-serif" font-size="19.5" lengthAdjust="spacing" textLength="39" x="342.75" y="560.2427">have</text><text fill="#000000" font-family="sans-serif" font-size="19.5" lengthAdjust="spacing" textLength="10.5" x="275.6109" y="525.1311">1</text><text fill="#000000" font-family="sans-serif" font-size="19.5" lengthAdjust="spacing" textLength="10.5" x="335.0253" y="594.0435">1</text><!--MD5=[3e62267ed92cd658fcc6f008fe587857]
link Company to CountryStore--><path codeLine="87" d="M212.265,493.575 C181.68,538.515 142.14,596.61 115.905,635.13 " fill="none" id="Company-to-CountryStore" style="stroke:#A80036;stroke-width:1.5;stroke-dasharray:7.0,7.0;"/><polygon fill="#A80036" points="111.495,641.61,124.0566,633.8346,115.7194,635.4128,114.1411,627.0756,111.495,641.61" style="stroke:#A80036;stroke-width:1.5;"/><!--MD5=[6d71dc68ee27425ab140024e2541cf9f]
link ClosenessLocalsController to CountryStore--><path codeLine="88" d="M210.69,267.24 C187.8,292.08 161.865,324.66 146.25,358.5 C103.74,450.645 92.085,571.215 88.92,634.125 " fill="none" id="ClosenessLocalsController-to-CountryStore" style="stroke:#A80036;stroke-width:1.5;stroke-dasharray:7.0,7.0;"/><polygon fill="#A80036" points="88.56,641.88,95.172,628.6689,88.9035,634.3879,83.1846,628.1194,88.56,641.88" style="stroke:#A80036;stroke-width:1.5;"/><!--MD5=[c8e8e510b3d61337403bff1e4f9e7277]
link FreightNetwork to AdjacencyMatrixGraph--><path codeLine="90" d="M387.405,746.055 C368.37,780.915 345.42,822.96 327.69,855.405 " fill="none" id="FreightNetwork-to-AdjacencyMatrixGraph" style="stroke:#A80036;stroke-width:1.5;stroke-dasharray:7.0,7.0;"/><polygon fill="#A80036" points="324,862.185,335.7442,853.2226,327.6004,855.6057,325.2173,847.4619,324,862.185" style="stroke:#A80036;stroke-width:1.5;"/><!--MD5=[fa4d65f953ae0f8f2ca1213e61726aa9]
link FreightNetwork to Place--><path codeLine="91" d="M450.465,746.055 C467.13,787.59 487.905,839.355 501.36,872.895 " fill="none" id="FreightNetwork-Place" style="stroke:#A80036;stroke-width:1.5;"/><text fill="#000000" font-family="sans-serif" font-size="19.5" lengthAdjust="spacing" textLength="99" x="477.75" y="812.2427">related with</text><text fill="#000000" font-family="sans-serif" font-size="19.5" lengthAdjust="spacing" textLength="10.5" x="442.8494" y="777.1401">1</text><text fill="#000000" font-family="sans-serif" font-size="19.5" lengthAdjust="spacing" textLength="30" x="463.9569" y="856.8783">1..*</text><!--MD5=[3f90a4e0e12e19ee6f3a457d358ba219]
link Place to PlaceLocation--><path codeLine="92" d="M520.92,945.075 C527.265,983.7 537.615,1046.82 545.1,1092.465 " fill="none" id="Place-PlaceLocation" style="stroke:#A80036;stroke-width:1.5;"/><polygon fill="#000000" points="541.9642,1021.6647,544.1179,1007.5624,535.4175,1008.9898,541.9642,1021.6647" style="stroke:#000000;stroke-width:1.5;"/><text fill="#000000" font-family="sans-serif" font-size="19.5" lengthAdjust="spacing" textLength="85.5" x="554.25" y="1022.2427">located at</text><text fill="#000000" font-family="sans-serif" font-size="19.5" lengthAdjust="spacing" textLength="10.5" x="510.5224" y="977.1002">1</text><text fill="#000000" font-family="sans-serif" font-size="19.5" lengthAdjust="spacing" textLength="10.5" x="532.035" y="1076.4571">1</text><!--MD5=[8019f7a40ce5be359cb5778b910e4989]
reverse link Place to Capital--><path codeLine="93" d="M477.33,970.605 C457.83,1001.505 433.875,1039.485 413.115,1072.38 " fill="none" id="Place-backto-Capital" style="stroke:#A80036;stroke-width:1.5;"/><polygon fill="none" points="468.555,964.845,493.44,945.075,486.315,976.05,468.555,964.845" style="stroke:#A80036;stroke-width:1.5;"/><!--MD5=[c549efd5903bd57ae8426884da365cce]
reverse link Place to Ports--><path codeLine="94" d="M589.065,950.37 C611.205,964.425 634.56,981.51 653.25,1000.5 C679.605,1027.29 702.255,1062.795 718.59,1092.285 " fill="none" id="Place-backto-Ports" style="stroke:#A80036;stroke-width:1.5;"/><polygon fill="none" points="583.395,959.22,563.025,934.815,594.165,941.19,583.395,959.22" style="stroke:#A80036;stroke-width:1.5;"/><!--MD5=[3d04185e7085eaaeba7ebd93b9963be0]
link PlaceLocation to Country--><path codeLine="95" d="M493.515,1206.975 C433.11,1262.385 341.25,1346.655 282.765,1400.325 " fill="none" id="PlaceLocation-Country" style="stroke:#A80036;stroke-width:1.5;"/><polygon fill="#000000" points="421.2235,1290.8339,434.2013,1284.9102,428.2408,1278.4133,421.2235,1290.8339" style="stroke:#000000;stroke-width:1.5;"/><text fill="#000000" font-family="sans-serif" font-size="19.5" lengthAdjust="spacing" textLength="78" x="440.25" y="1293.7427">placed in</text><text fill="#000000" font-family="sans-serif" font-size="19.5" lengthAdjust="spacing" textLength="7.5" x="475.7377" y="1238.3317">*</text><text fill="#000000" font-family="sans-serif" font-size="19.5" lengthAdjust="spacing" textLength="10.5" x="294.7281" y="1383.9844">1</text><!--MD5=[553c71e238892de64676e9482c62727a]
link Country to Border--><path codeLine="96" d="M227.25,1510.185 C227.25,1558.98 227.25,1629.39 227.25,1678.155 " fill="none" id="Country-Border" style="stroke:#A80036;stroke-width:1.5;"/><text fill="#000000" font-family="sans-serif" font-size="19.5" lengthAdjust="spacing" textLength="48" x="228.75" y="1628.2427">has a</text><text fill="#000000" font-family="sans-serif" font-size="19.5" lengthAdjust="spacing" textLength="10.5" x="215.9133" y="1541.5751">2</text><text fill="#000000" font-family="sans-serif" font-size="19.5" lengthAdjust="spacing" textLength="7.5" x="219.082" y="1662.1364">*</text><!--MD5=[5957790c5297b9f6d5589f6d219daa42]
link AdjacencyMatrixGraph to Edge--><path codeLine="97" d="M282.96,955.785 C267.39,999.075 244.095,1063.86 228.915,1106.1 " fill="none" id="AdjacencyMatrixGraph-to-Edge" style="stroke:#A80036;stroke-width:1.5;stroke-dasharray:7.0,7.0;"/><polygon fill="#A80036" points="226.365,1113.195,236.5704,1102.5132,228.897,1106.1353,225.2749,1098.462,226.365,1113.195" style="stroke:#A80036;stroke-width:1.5;"/><!--MD5=[f967797988c016cbdc52ea2558741842]
link CountryStore to Country--><path codeLine="99" d="M88.005,714.615 C89.31,802.29 97.08,1037.34 141.75,1227 C154.98,1283.205 178.95,1344.27 198.15,1388.475 " fill="none" id="CountryStore-to-Country" style="stroke:#A80036;stroke-width:1.5;"/><polygon fill="#A80036" points="201.18,1395.42,201.2828,1380.6471,198.1817,1388.5454,190.2834,1385.4443,201.18,1395.42" style="stroke:#A80036;stroke-width:1.5;"/><text fill="#000000" font-family="sans-serif" font-size="19.5" lengthAdjust="spacing" textLength="58.5" x="110.25" y="1022.2427">adopts</text><text fill="#000000" font-family="sans-serif" font-size="19.5" lengthAdjust="spacing" textLength="10.5" x="76.3499" y="746.1609">1</text><text fill="#000000" font-family="sans-serif" font-size="19.5" lengthAdjust="spacing" textLength="7.5" x="188.3683" y="1379.4041">*</text><!--MD5=[6d3d45a2319404bb3e06b58881af6b0d]
link Ports to Seadist--><path codeLine="100" d="M746.25,1206.975 C746.25,1245.27 746.25,1297.35 746.25,1343.595 " fill="none" id="Ports-Seadist" style="stroke:#A80036;stroke-width:1.5;"/><text fill="#000000" font-family="sans-serif" font-size="19.5" lengthAdjust="spacing" textLength="48" x="747.75" y="1293.7427">has a</text><text fill="#000000" font-family="sans-serif" font-size="19.5" lengthAdjust="spacing" textLength="10.5" x="734.9133" y="1238.3317">2</text><text fill="#000000" font-family="sans-serif" font-size="19.5" lengthAdjust="spacing" textLength="7.5" x="738.3633" y="1327.3822">*</text><!--MD5=[46ed7f1b7317ff33227bbadd92f84161]
@startuml
'https://plantuml.com/class-diagram

skinparam classAttributeIconSize 0



class ClosenessLocalsUI {}

class ClosenessLocalsController {
-closenessLocals(n)
}

class CountryStore {
}

class Company {
-designation
-getFreightNetwork()
-getCountryStore()
}

class FreightNetwork {
-mostCenteredCities(n,countryStore)
-mostCenteredCitiesOnTheContinent(n,continentName)
-mediaDist(place, matrixGraph)
}


class Ports {
-identification
-name
}


class Country {
-name
-continent
}

class PlaceLocation {
-latitude
-longitude
}

class Capital{
-name
-country
-latitude
-longitude
}

class Place {

}

class Border {
-countryName1
-countryName2
}

class Seadist {
-portId1
-portId2
-seaDistance
-portName1
-portName2
-countryName1
-countryName2
}

class AdjacencyMatrixGraph {
-edge()

}

class Edge {

}

ClosenessLocalsUI ..> ClosenessLocalsController

ClosenessLocalsController ..> Company
ClosenessLocalsController ..> FreightNetwork

Company "1"- -"1" FreightNetwork: have >

Company..> CountryStore
ClosenessLocalsController..> CountryStore

FreightNetwork ..> AdjacencyMatrixGraph
FreightNetwork "1" - - "1..*" Place : related with
Place "1" - - "1" PlaceLocation : located at >
Place <|- - Capital
Place <|- - Ports
PlaceLocation "*" - - "1" Country : placed in >
Country "2" - - "*" Border : has a
AdjacencyMatrixGraph ..> Edge

CountryStore "1"- -> "*" Country : adopts
Ports "2"- -"*" Seadist: has a

@enduml

@startuml

skinparam classAttributeIconSize 0



class ClosenessLocalsUI {}

class ClosenessLocalsController {
-closenessLocals(n)
}

class CountryStore {
}

class Company {
-designation
-getFreightNetwork()
-getCountryStore()
}

class FreightNetwork {
-mostCenteredCities(n,countryStore)
-mostCenteredCitiesOnTheContinent(n,continentName)
-mediaDist(place, matrixGraph)
}


class Ports {
-identification
-name
}


class Country {
-name
-continent
}

class PlaceLocation {
-latitude
-longitude
}

class Capital{
-name
-country
-latitude
-longitude
}

class Place {

}

class Border {
-countryName1
-countryName2
}

class Seadist {
-portId1
-portId2
-seaDistance
-portName1
-portName2
-countryName1
-countryName2
}

class AdjacencyMatrixGraph {
-edge()

}

class Edge {

}

ClosenessLocalsUI ..> ClosenessLocalsController

ClosenessLocalsController ..> Company
ClosenessLocalsController ..> FreightNetwork

Company "1"- -"1" FreightNetwork: have >

Company..> CountryStore
ClosenessLocalsController..> CountryStore

FreightNetwork ..> AdjacencyMatrixGraph
FreightNetwork "1" - - "1..*" Place : related with
Place "1" - - "1" PlaceLocation : located at >
Place <|- - Capital
Place <|- - Ports
PlaceLocation "*" - - "1" Country : placed in >
Country "2" - - "*" Border : has a
AdjacencyMatrixGraph ..> Edge

CountryStore "1"- -> "*" Country : adopts
Ports "2"- -"*" Seadist: has a

@enduml

PlantUML version 1.2021.5(Sun Apr 25 12:20:28 BST 2021)
(GPL source distribution)
Java Runtime: OpenJDK Runtime Environment
JVM: Dynamic Code Evolution 64-Bit Server VM
Default Encoding: Cp1252
Language: pt
Country: PT
--></g></svg>