<?xml version="1.0" encoding="UTF-8" standalone="no"?><svg xmlns="http://www.w3.org/2000/svg" xmlns:xlink="http://www.w3.org/1999/xlink" contentScriptType="application/ecmascript" contentStyleType="text/css" height="1017px" preserveAspectRatio="none" style="width:2158px;height:1017px;background:#FFFFFF;" version="1.1" viewBox="0 0 2158 1017" width="2158px" zoomAndPan="magnify"><defs><filter height="300%" id="f1fzhkz04v3d1n" width="300%" x="-1" y="-1"><feGaussianBlur result="blurOut" stdDeviation="2.0"/><feColorMatrix in="blurOut" result="blurOut2" type="matrix" values="0 0 0 0 0 0 0 0 0 0 0 0 0 0 0 0 0 0 .4 0"/><feOffset dx="4.0" dy="4.0" in="blurOut2" result="blurOut3"/><feBlend in="SourceGraphic" in2="blurOut3" mode="normal"/></filter></defs><g><!--MD5=[02e4b9b7573f1156f41e60aa5b4e25a4]
class Company--><rect codeLine="7" fill="#FEFECE" filter="url(#f1fzhkz04v3d1n)" height="53.8359" id="Company" style="stroke:#A80036;stroke-width:1.5;" width="85" x="7" y="534.3564"/><ellipse cx="22" cy="550.3564" fill="#ADD1B2" rx="11" ry="11" style="stroke:#A80036;stroke-width:1.0;"/><path d="M24,546.8564 Q24.2031,546.3564 24.4375,546.1064 Q24.6719,545.8564 24.9375,545.8564 Q25.4063,545.8564 25.7031,546.1377 Q26,546.4189 26,547.0752 L26,548.6377 Q26,549.2939 25.7188,549.5752 Q25.4375,549.8564 25,549.8564 Q24.6094,549.8564 24.3594,549.6846 Q24.1094,549.5127 24,549.0596 Q23.9531,548.7471 23.7813,548.5752 Q23.4688,548.2471 22.9063,548.0596 Q22.3438,547.8564 21.7813,547.8564 Q21.0781,547.8564 20.4844,548.1377 Q19.9063,548.4189 19.4531,549.0439 Q19,549.6689 19,550.5283 L19,551.4502 Q19,552.4814 19.8438,553.1689 Q20.6875,553.8564 22.1875,553.8564 Q23.0781,553.8564 23.7031,553.6533 Q24.0625,553.5439 24.4688,553.1846 Q24.7344,552.9814 24.875,552.9189 Q25.0156,552.8564 25.1875,552.8564 Q25.5156,552.8564 25.75,553.1221 Q26,553.3721 26,553.7314 Q26,554.0752 25.6563,554.4814 Q25.1563,555.0752 24.3594,555.4033 Q23.3125,555.8564 22.0313,555.8564 Q20.5313,555.8564 19.3281,555.2627 Q18.3594,554.7939 17.6719,553.7783 Q17,552.7627 17,551.5596 L17,550.4658 Q17,549.2158 17.5938,548.1221 Q18.2031,547.0283 19.25,546.4502 Q20.3125,545.8564 21.5,545.8564 Q22.2188,545.8564 22.8438,546.1064 Q23.4688,546.3564 24,546.8564 Z " fill="#000000"/><text fill="#000000" font-family="sans-serif" font-size="12" lengthAdjust="spacing" textLength="53" x="36" y="555.2666">Company</text><line style="stroke:#A80036;stroke-width:1.5;" x1="8" x2="91" y1="566.3564" y2="566.3564"/><text fill="#000000" font-family="sans-serif" font-size="11" lengthAdjust="spacing" textLength="59" x="13" y="581.7754">-designation</text><!--MD5=[7421f545a0d8420c5bec41e74b387d9c]
class Employee--><rect codeLine="11" fill="#FEFECE" filter="url(#f1fzhkz04v3d1n)" height="53.8359" id="Employee" style="stroke:#A80036;stroke-width:1.5;" width="87" x="193" y="398.3564"/><ellipse cx="208" cy="414.3564" fill="#ADD1B2" rx="11" ry="11" style="stroke:#A80036;stroke-width:1.0;"/><path d="M210,410.8564 Q210.2031,410.3564 210.4375,410.1064 Q210.6719,409.8564 210.9375,409.8564 Q211.4063,409.8564 211.7031,410.1377 Q212,410.4189 212,411.0752 L212,412.6377 Q212,413.2939 211.7188,413.5752 Q211.4375,413.8564 211,413.8564 Q210.6094,413.8564 210.3594,413.6846 Q210.1094,413.5127 210,413.0596 Q209.9531,412.7471 209.7813,412.5752 Q209.4688,412.2471 208.9063,412.0596 Q208.3438,411.8564 207.7813,411.8564 Q207.0781,411.8564 206.4844,412.1377 Q205.9063,412.4189 205.4531,413.0439 Q205,413.6689 205,414.5283 L205,415.4502 Q205,416.4814 205.8438,417.1689 Q206.6875,417.8564 208.1875,417.8564 Q209.0781,417.8564 209.7031,417.6533 Q210.0625,417.5439 210.4688,417.1846 Q210.7344,416.9814 210.875,416.9189 Q211.0156,416.8564 211.1875,416.8564 Q211.5156,416.8564 211.75,417.1221 Q212,417.3721 212,417.7314 Q212,418.0752 211.6563,418.4814 Q211.1563,419.0752 210.3594,419.4033 Q209.3125,419.8564 208.0313,419.8564 Q206.5313,419.8564 205.3281,419.2627 Q204.3594,418.7939 203.6719,417.7783 Q203,416.7627 203,415.5596 L203,414.4658 Q203,413.2158 203.5938,412.1221 Q204.2031,411.0283 205.25,410.4502 Q206.3125,409.8564 207.5,409.8564 Q208.2188,409.8564 208.8438,410.1064 Q209.4688,410.3564 210,410.8564 Z " fill="#000000"/><text fill="#000000" font-family="sans-serif" font-size="12" lengthAdjust="spacing" textLength="55" x="222" y="419.2666">Employee</text><line style="stroke:#A80036;stroke-width:1.5;" x1="194" x2="279" y1="430.3564" y2="430.3564"/><text fill="#000000" font-family="sans-serif" font-size="11" lengthAdjust="spacing" textLength="30" x="199" y="445.7754">-name</text><!--MD5=[a3093aa9f96b7df9aab31d8715601ff6]
class Containers--><rect codeLine="15" fill="#FEFECE" filter="url(#f1fzhkz04v3d1n)" height="178.3594" id="Containers" style="stroke:#A80036;stroke-width:1.5;" width="98" x="929" y="516.3564"/><ellipse cx="946.25" cy="532.3564" fill="#ADD1B2" rx="11" ry="11" style="stroke:#A80036;stroke-width:1.0;"/><path d="M948.25,528.8564 Q948.4531,528.3564 948.6875,528.1064 Q948.9219,527.8564 949.1875,527.8564 Q949.6563,527.8564 949.9531,528.1377 Q950.25,528.4189 950.25,529.0752 L950.25,530.6377 Q950.25,531.2939 949.9688,531.5752 Q949.6875,531.8564 949.25,531.8564 Q948.8594,531.8564 948.6094,531.6846 Q948.3594,531.5127 948.25,531.0596 Q948.2031,530.7471 948.0313,530.5752 Q947.7188,530.2471 947.1563,530.0596 Q946.5938,529.8564 946.0313,529.8564 Q945.3281,529.8564 944.7344,530.1377 Q944.1563,530.4189 943.7031,531.0439 Q943.25,531.6689 943.25,532.5283 L943.25,533.4502 Q943.25,534.4814 944.0938,535.1689 Q944.9375,535.8564 946.4375,535.8564 Q947.3281,535.8564 947.9531,535.6533 Q948.3125,535.5439 948.7188,535.1846 Q948.9844,534.9814 949.125,534.9189 Q949.2656,534.8564 949.4375,534.8564 Q949.7656,534.8564 950,535.1221 Q950.25,535.3721 950.25,535.7314 Q950.25,536.0752 949.9063,536.4814 Q949.4063,537.0752 948.6094,537.4033 Q947.5625,537.8564 946.2813,537.8564 Q944.7813,537.8564 943.5781,537.2627 Q942.6094,536.7939 941.9219,535.7783 Q941.25,534.7627 941.25,533.5596 L941.25,532.4658 Q941.25,531.2158 941.8438,530.1221 Q942.4531,529.0283 943.5,528.4502 Q944.5625,527.8564 945.75,527.8564 Q946.4688,527.8564 947.0938,528.1064 Q947.7188,528.3564 948.25,528.8564 Z " fill="#000000"/><text fill="#000000" font-family="sans-serif" font-size="12" lengthAdjust="spacing" textLength="61" x="960.75" y="537.2666">Containers</text><line style="stroke:#A80036;stroke-width:1.5;" x1="930" x2="1026" y1="548.3564" y2="548.3564"/><text fill="#000000" font-family="sans-serif" font-size="11" lengthAdjust="spacing" textLength="10" x="935" y="563.7754">-x</text><text fill="#000000" font-family="sans-serif" font-size="11" lengthAdjust="spacing" textLength="10" x="935" y="577.6113">-y</text><text fill="#000000" font-family="sans-serif" font-size="11" lengthAdjust="spacing" textLength="10" x="935" y="591.4473">-z</text><text fill="#000000" font-family="sans-serif" font-size="11" lengthAdjust="spacing" textLength="86" x="935" y="605.2832">-containerNumber</text><text fill="#000000" font-family="sans-serif" font-size="11" lengthAdjust="spacing" textLength="53" x="935" y="619.1191">-checkDigit</text><text fill="#000000" font-family="sans-serif" font-size="11" lengthAdjust="spacing" textLength="43" x="935" y="632.9551">-isoCode</text><text fill="#000000" font-family="sans-serif" font-size="11" lengthAdjust="spacing" textLength="46" x="935" y="646.791">-payLoad</text><text fill="#000000" font-family="sans-serif" font-size="11" lengthAdjust="spacing" textLength="23" x="935" y="660.627">-tare</text><text fill="#000000" font-family="sans-serif" font-size="11" lengthAdjust="spacing" textLength="32" x="935" y="674.4629">-gross</text><text fill="#000000" font-family="sans-serif" font-size="11" lengthAdjust="spacing" textLength="37" x="935" y="688.2988">-weight</text><!--MD5=[76562047389981627aea27c31a97aff5]
class CargoManifest--><rect codeLine="28" fill="#FEFECE" filter="url(#f1fzhkz04v3d1n)" height="136.8516" id="CargoManifest" style="stroke:#A80036;stroke-width:1.5;" width="116" x="1156" y="488.8564"/><ellipse cx="1172.8" cy="504.8564" fill="#ADD1B2" rx="11" ry="11" style="stroke:#A80036;stroke-width:1.0;"/><path d="M1174.8,501.3564 Q1175.0031,500.8564 1175.2375,500.6064 Q1175.4719,500.3564 1175.7375,500.3564 Q1176.2063,500.3564 1176.5031,500.6377 Q1176.8,500.9189 1176.8,501.5752 L1176.8,503.1377 Q1176.8,503.7939 1176.5188,504.0752 Q1176.2375,504.3564 1175.8,504.3564 Q1175.4094,504.3564 1175.1594,504.1846 Q1174.9094,504.0127 1174.8,503.5596 Q1174.7531,503.2471 1174.5813,503.0752 Q1174.2688,502.7471 1173.7063,502.5596 Q1173.1438,502.3564 1172.5813,502.3564 Q1171.8781,502.3564 1171.2844,502.6377 Q1170.7063,502.9189 1170.2531,503.5439 Q1169.8,504.1689 1169.8,505.0283 L1169.8,505.9502 Q1169.8,506.9814 1170.6438,507.6689 Q1171.4875,508.3564 1172.9875,508.3564 Q1173.8781,508.3564 1174.5031,508.1533 Q1174.8625,508.0439 1175.2688,507.6846 Q1175.5344,507.4814 1175.675,507.4189 Q1175.8156,507.3564 1175.9875,507.3564 Q1176.3156,507.3564 1176.55,507.6221 Q1176.8,507.8721 1176.8,508.2314 Q1176.8,508.5752 1176.4563,508.9814 Q1175.9563,509.5752 1175.1594,509.9033 Q1174.1125,510.3564 1172.8313,510.3564 Q1171.3313,510.3564 1170.1281,509.7627 Q1169.1594,509.2939 1168.4719,508.2783 Q1167.8,507.2627 1167.8,506.0596 L1167.8,504.9658 Q1167.8,503.7158 1168.3938,502.6221 Q1169.0031,501.5283 1170.05,500.9502 Q1171.1125,500.3564 1172.3,500.3564 Q1173.0188,500.3564 1173.6438,500.6064 Q1174.2688,500.8564 1174.8,501.3564 Z " fill="#000000"/><text fill="#000000" font-family="sans-serif" font-size="12" lengthAdjust="spacing" textLength="80" x="1187.2" y="509.7666">CargoManifest</text><line style="stroke:#A80036;stroke-width:1.5;" x1="1157" x2="1271" y1="520.8564" y2="520.8564"/><text fill="#000000" font-family="sans-serif" font-size="11" lengthAdjust="spacing" textLength="81" x="1162" y="536.2754">-listOfContainers</text><text fill="#000000" font-family="sans-serif" font-size="11" lengthAdjust="spacing" textLength="25" x="1162" y="550.1113">-ratio</text><text fill="#000000" font-family="sans-serif" font-size="11" lengthAdjust="spacing" textLength="25" x="1162" y="563.9473">-date</text><text fill="#000000" font-family="sans-serif" font-size="11" lengthAdjust="spacing" textLength="53" x="1162" y="577.7832">-mmsiCode</text><text fill="#000000" font-family="sans-serif" font-size="11" lengthAdjust="spacing" textLength="12" x="1162" y="591.6191">-id</text><text fill="#000000" font-family="sans-serif" font-size="11" lengthAdjust="spacing" textLength="104" x="1162" y="605.4551">-numberOfContainers</text><text fill="#000000" font-family="sans-serif" font-size="11" lengthAdjust="spacing" textLength="56" x="1162" y="619.291">-destination</text><!--MD5=[0dc7f2ddb409b58bcf52b12238c25399]
class Ship--><rect codeLine="38" fill="#FEFECE" filter="url(#f1fzhkz04v3d1n)" height="192.1953" id="Ship" style="stroke:#A80036;stroke-width:1.5;" width="141" x="455" y="475.3564"/><ellipse cx="508.75" cy="491.3564" fill="#ADD1B2" rx="11" ry="11" style="stroke:#A80036;stroke-width:1.0;"/><path d="M510.75,487.8564 Q510.9531,487.3564 511.1875,487.1064 Q511.4219,486.8564 511.6875,486.8564 Q512.1563,486.8564 512.4531,487.1377 Q512.75,487.4189 512.75,488.0752 L512.75,489.6377 Q512.75,490.2939 512.4688,490.5752 Q512.1875,490.8564 511.75,490.8564 Q511.3594,490.8564 511.1094,490.6846 Q510.8594,490.5127 510.75,490.0596 Q510.7031,489.7471 510.5313,489.5752 Q510.2188,489.2471 509.6563,489.0596 Q509.0938,488.8564 508.5313,488.8564 Q507.8281,488.8564 507.2344,489.1377 Q506.6563,489.4189 506.2031,490.0439 Q505.75,490.6689 505.75,491.5283 L505.75,492.4502 Q505.75,493.4814 506.5938,494.1689 Q507.4375,494.8564 508.9375,494.8564 Q509.8281,494.8564 510.4531,494.6533 Q510.8125,494.5439 511.2188,494.1846 Q511.4844,493.9814 511.625,493.9189 Q511.7656,493.8564 511.9375,493.8564 Q512.2656,493.8564 512.5,494.1221 Q512.75,494.3721 512.75,494.7314 Q512.75,495.0752 512.4063,495.4814 Q511.9063,496.0752 511.1094,496.4033 Q510.0625,496.8564 508.7813,496.8564 Q507.2813,496.8564 506.0781,496.2627 Q505.1094,495.7939 504.4219,494.7783 Q503.75,493.7627 503.75,492.5596 L503.75,491.4658 Q503.75,490.2158 504.3438,489.1221 Q504.9531,488.0283 506,487.4502 Q507.0625,486.8564 508.25,486.8564 Q508.9688,486.8564 509.5938,487.1064 Q510.2188,487.3564 510.75,487.8564 Z " fill="#000000"/><text fill="#000000" font-family="sans-serif" font-size="12" lengthAdjust="spacing" textLength="25" x="529.25" y="496.2666">Ship</text><line style="stroke:#A80036;stroke-width:1.5;" x1="456" x2="595" y1="507.3564" y2="507.3564"/><text fill="#000000" font-family="sans-serif" font-size="11" lengthAdjust="spacing" textLength="53" x="461" y="522.7754">-mmsiCode</text><text fill="#000000" font-family="sans-serif" font-size="11" lengthAdjust="spacing" textLength="45" x="461" y="536.6113">-imoCode</text><text fill="#000000" font-family="sans-serif" font-size="11" lengthAdjust="spacing" textLength="129" x="461" y="550.4473">-numberEnergyGenerators</text><text fill="#000000" font-family="sans-serif" font-size="11" lengthAdjust="spacing" textLength="83" x="461" y="564.2832">-generatorPower</text><text fill="#000000" font-family="sans-serif" font-size="11" lengthAdjust="spacing" textLength="41" x="461" y="578.1191">-callSign</text><text fill="#000000" font-family="sans-serif" font-size="11" lengthAdjust="spacing" textLength="27" x="461" y="591.9551">-draft</text><text fill="#000000" font-family="sans-serif" font-size="11" lengthAdjust="spacing" textLength="30" x="461" y="605.791">-name</text><text fill="#000000" font-family="sans-serif" font-size="11" lengthAdjust="spacing" textLength="68" x="461" y="619.627">-vesselTypeId</text><text fill="#000000" font-family="sans-serif" font-size="11" lengthAdjust="spacing" textLength="33" x="461" y="633.4629">-length</text><text fill="#000000" font-family="sans-serif" font-size="11" lengthAdjust="spacing" textLength="31" x="461" y="647.2988">-width</text><text fill="#000000" font-family="sans-serif" font-size="11" lengthAdjust="spacing" textLength="45" x="461" y="661.1348">-capacity</text><!--MD5=[ea13aecf8df941b18fb8e3885c78c184]
class Ports--><rect codeLine="54" fill="#FEFECE" filter="url(#f1fzhkz04v3d1n)" height="67.6719" id="Ports" style="stroke:#A80036;stroke-width:1.5;" width="76" x="1422" y="349.3564"/><ellipse cx="1443.75" cy="365.3564" fill="#ADD1B2" rx="11" ry="11" style="stroke:#A80036;stroke-width:1.0;"/><path d="M1445.75,361.8564 Q1445.9531,361.3564 1446.1875,361.1064 Q1446.4219,360.8564 1446.6875,360.8564 Q1447.1563,360.8564 1447.4531,361.1377 Q1447.75,361.4189 1447.75,362.0752 L1447.75,363.6377 Q1447.75,364.2939 1447.4688,364.5752 Q1447.1875,364.8564 1446.75,364.8564 Q1446.3594,364.8564 1446.1094,364.6846 Q1445.8594,364.5127 1445.75,364.0596 Q1445.7031,363.7471 1445.5313,363.5752 Q1445.2188,363.2471 1444.6563,363.0596 Q1444.0938,362.8564 1443.5313,362.8564 Q1442.8281,362.8564 1442.2344,363.1377 Q1441.6563,363.4189 1441.2031,364.0439 Q1440.75,364.6689 1440.75,365.5283 L1440.75,366.4502 Q1440.75,367.4814 1441.5938,368.1689 Q1442.4375,368.8564 1443.9375,368.8564 Q1444.8281,368.8564 1445.4531,368.6533 Q1445.8125,368.5439 1446.2188,368.1846 Q1446.4844,367.9814 1446.625,367.9189 Q1446.7656,367.8564 1446.9375,367.8564 Q1447.2656,367.8564 1447.5,368.1221 Q1447.75,368.3721 1447.75,368.7314 Q1447.75,369.0752 1447.4063,369.4814 Q1446.9063,370.0752 1446.1094,370.4033 Q1445.0625,370.8564 1443.7813,370.8564 Q1442.2813,370.8564 1441.0781,370.2627 Q1440.1094,369.7939 1439.4219,368.7783 Q1438.75,367.7627 1438.75,366.5596 L1438.75,365.4658 Q1438.75,364.2158 1439.3438,363.1221 Q1439.9531,362.0283 1441,361.4502 Q1442.0625,360.8564 1443.25,360.8564 Q1443.9688,360.8564 1444.5938,361.1064 Q1445.2188,361.3564 1445.75,361.8564 Z " fill="#000000"/><text fill="#000000" font-family="sans-serif" font-size="12" lengthAdjust="spacing" textLength="29" x="1459.25" y="370.2666">Ports</text><line style="stroke:#A80036;stroke-width:1.5;" x1="1423" x2="1497" y1="381.3564" y2="381.3564"/><text fill="#000000" font-family="sans-serif" font-size="11" lengthAdjust="spacing" textLength="64" x="1428" y="396.7754">-identification</text><text fill="#000000" font-family="sans-serif" font-size="11" lengthAdjust="spacing" textLength="30" x="1428" y="410.6113">-name</text><!--MD5=[f2ba7f6ab60af8dd0d3e354f91729b14]
class Truck--><rect codeLine="59" fill="#FEFECE" filter="url(#f1fzhkz04v3d1n)" height="40" id="Truck" style="stroke:#A80036;stroke-width:1.5;" width="62" x="720" y="779.3564"/><ellipse cx="735" cy="795.3564" fill="#ADD1B2" rx="11" ry="11" style="stroke:#A80036;stroke-width:1.0;"/><path d="M737,791.8564 Q737.2031,791.3564 737.4375,791.1064 Q737.6719,790.8564 737.9375,790.8564 Q738.4063,790.8564 738.7031,791.1377 Q739,791.4189 739,792.0752 L739,793.6377 Q739,794.2939 738.7188,794.5752 Q738.4375,794.8564 738,794.8564 Q737.6094,794.8564 737.3594,794.6846 Q737.1094,794.5127 737,794.0596 Q736.9531,793.7471 736.7813,793.5752 Q736.4688,793.2471 735.9063,793.0596 Q735.3438,792.8564 734.7813,792.8564 Q734.0781,792.8564 733.4844,793.1377 Q732.9063,793.4189 732.4531,794.0439 Q732,794.6689 732,795.5283 L732,796.4502 Q732,797.4814 732.8438,798.1689 Q733.6875,798.8564 735.1875,798.8564 Q736.0781,798.8564 736.7031,798.6533 Q737.0625,798.5439 737.4688,798.1846 Q737.7344,797.9814 737.875,797.9189 Q738.0156,797.8564 738.1875,797.8564 Q738.5156,797.8564 738.75,798.1221 Q739,798.3721 739,798.7314 Q739,799.0752 738.6563,799.4814 Q738.1563,800.0752 737.3594,800.4033 Q736.3125,800.8564 735.0313,800.8564 Q733.5313,800.8564 732.3281,800.2627 Q731.3594,799.7939 730.6719,798.7783 Q730,797.7627 730,796.5596 L730,795.4658 Q730,794.2158 730.5938,793.1221 Q731.2031,792.0283 732.25,791.4502 Q733.3125,790.8564 734.5,790.8564 Q735.2188,790.8564 735.8438,791.1064 Q736.4688,791.3564 737,791.8564 Z " fill="#000000"/><text fill="#000000" font-family="sans-serif" font-size="12" lengthAdjust="spacing" textLength="30" x="749" y="800.2666">Truck</text><line style="stroke:#A80036;stroke-width:1.5;" x1="721" x2="781" y1="811.3564" y2="811.3564"/><!--MD5=[c5149b4909ffd2688ff51a939867f774]
class Warehouse--><rect codeLine="63" fill="#FEFECE" filter="url(#f1fzhkz04v3d1n)" height="95.3438" id="Warehouse" style="stroke:#A80036;stroke-width:1.5;" width="96" x="1412" y="719.8564"/><ellipse cx="1427" cy="735.8564" fill="#ADD1B2" rx="11" ry="11" style="stroke:#A80036;stroke-width:1.0;"/><path d="M1429,732.3564 Q1429.2031,731.8564 1429.4375,731.6064 Q1429.6719,731.3564 1429.9375,731.3564 Q1430.4063,731.3564 1430.7031,731.6377 Q1431,731.9189 1431,732.5752 L1431,734.1377 Q1431,734.7939 1430.7188,735.0752 Q1430.4375,735.3564 1430,735.3564 Q1429.6094,735.3564 1429.3594,735.1846 Q1429.1094,735.0127 1429,734.5596 Q1428.9531,734.2471 1428.7813,734.0752 Q1428.4688,733.7471 1427.9063,733.5596 Q1427.3438,733.3564 1426.7813,733.3564 Q1426.0781,733.3564 1425.4844,733.6377 Q1424.9063,733.9189 1424.4531,734.5439 Q1424,735.1689 1424,736.0283 L1424,736.9502 Q1424,737.9814 1424.8438,738.6689 Q1425.6875,739.3564 1427.1875,739.3564 Q1428.0781,739.3564 1428.7031,739.1533 Q1429.0625,739.0439 1429.4688,738.6846 Q1429.7344,738.4814 1429.875,738.4189 Q1430.0156,738.3564 1430.1875,738.3564 Q1430.5156,738.3564 1430.75,738.6221 Q1431,738.8721 1431,739.2314 Q1431,739.5752 1430.6563,739.9814 Q1430.1563,740.5752 1429.3594,740.9033 Q1428.3125,741.3564 1427.0313,741.3564 Q1425.5313,741.3564 1424.3281,740.7627 Q1423.3594,740.2939 1422.6719,739.2783 Q1422,738.2627 1422,737.0596 L1422,735.9658 Q1422,734.7158 1422.5938,733.6221 Q1423.2031,732.5283 1424.25,731.9502 Q1425.3125,731.3564 1426.5,731.3564 Q1427.2188,731.3564 1427.8438,731.6064 Q1428.4688,731.8564 1429,732.3564 Z " fill="#000000"/><text fill="#000000" font-family="sans-serif" font-size="12" lengthAdjust="spacing" textLength="64" x="1441" y="740.7666">Warehouse</text><line style="stroke:#A80036;stroke-width:1.5;" x1="1413" x2="1507" y1="751.8564" y2="751.8564"/><text fill="#000000" font-family="sans-serif" font-size="11" lengthAdjust="spacing" textLength="64" x="1418" y="767.2754">-identification</text><text fill="#000000" font-family="sans-serif" font-size="11" lengthAdjust="spacing" textLength="30" x="1418" y="781.1113">-name</text><text fill="#000000" font-family="sans-serif" font-size="11" lengthAdjust="spacing" textLength="45" x="1418" y="794.9473">-capacity</text><text fill="#000000" font-family="sans-serif" font-size="11" lengthAdjust="spacing" textLength="58" x="1418" y="808.7832">-occupancy</text><!--MD5=[deb4e1f6eb1e3c1256fdb830f96abfbb]
class Country--><rect codeLine="70" fill="#FEFECE" filter="url(#f1fzhkz04v3d1n)" height="67.6719" id="Country" style="stroke:#A80036;stroke-width:1.5;" width="74" x="1877" y="802.3564"/><ellipse cx="1892" cy="818.3564" fill="#ADD1B2" rx="11" ry="11" style="stroke:#A80036;stroke-width:1.0;"/><path d="M1894,814.8564 Q1894.2031,814.3564 1894.4375,814.1064 Q1894.6719,813.8564 1894.9375,813.8564 Q1895.4063,813.8564 1895.7031,814.1377 Q1896,814.4189 1896,815.0752 L1896,816.6377 Q1896,817.2939 1895.7188,817.5752 Q1895.4375,817.8564 1895,817.8564 Q1894.6094,817.8564 1894.3594,817.6846 Q1894.1094,817.5127 1894,817.0596 Q1893.9531,816.7471 1893.7813,816.5752 Q1893.4688,816.2471 1892.9063,816.0596 Q1892.3438,815.8564 1891.7813,815.8564 Q1891.0781,815.8564 1890.4844,816.1377 Q1889.9063,816.4189 1889.4531,817.0439 Q1889,817.6689 1889,818.5283 L1889,819.4502 Q1889,820.4814 1889.8438,821.1689 Q1890.6875,821.8564 1892.1875,821.8564 Q1893.0781,821.8564 1893.7031,821.6533 Q1894.0625,821.5439 1894.4688,821.1846 Q1894.7344,820.9814 1894.875,820.9189 Q1895.0156,820.8564 1895.1875,820.8564 Q1895.5156,820.8564 1895.75,821.1221 Q1896,821.3721 1896,821.7314 Q1896,822.0752 1895.6563,822.4814 Q1895.1563,823.0752 1894.3594,823.4033 Q1893.3125,823.8564 1892.0313,823.8564 Q1890.5313,823.8564 1889.3281,823.2627 Q1888.3594,822.7939 1887.6719,821.7783 Q1887,820.7627 1887,819.5596 L1887,818.4658 Q1887,817.2158 1887.5938,816.1221 Q1888.2031,815.0283 1889.25,814.4502 Q1890.3125,813.8564 1891.5,813.8564 Q1892.2188,813.8564 1892.8438,814.1064 Q1893.4688,814.3564 1894,814.8564 Z " fill="#000000"/><text fill="#000000" font-family="sans-serif" font-size="12" lengthAdjust="spacing" textLength="42" x="1906" y="823.2666">Country</text><line style="stroke:#A80036;stroke-width:1.5;" x1="1878" x2="1950" y1="834.3564" y2="834.3564"/><text fill="#000000" font-family="sans-serif" font-size="11" lengthAdjust="spacing" textLength="30" x="1883" y="849.7754">-name</text><text fill="#000000" font-family="sans-serif" font-size="11" lengthAdjust="spacing" textLength="48" x="1883" y="863.6113">-continent</text><!--MD5=[9febfb2ff9adfe183e01ff702b9c1c02]
class PlaceLocation--><rect codeLine="75" fill="#FEFECE" filter="url(#f1fzhkz04v3d1n)" height="67.6719" id="PlaceLocation" style="stroke:#A80036;stroke-width:1.5;" width="110" x="1640" y="802.3564"/><ellipse cx="1655" cy="818.3564" fill="#ADD1B2" rx="11" ry="11" style="stroke:#A80036;stroke-width:1.0;"/><path d="M1657,814.8564 Q1657.2031,814.3564 1657.4375,814.1064 Q1657.6719,813.8564 1657.9375,813.8564 Q1658.4063,813.8564 1658.7031,814.1377 Q1659,814.4189 1659,815.0752 L1659,816.6377 Q1659,817.2939 1658.7188,817.5752 Q1658.4375,817.8564 1658,817.8564 Q1657.6094,817.8564 1657.3594,817.6846 Q1657.1094,817.5127 1657,817.0596 Q1656.9531,816.7471 1656.7813,816.5752 Q1656.4688,816.2471 1655.9063,816.0596 Q1655.3438,815.8564 1654.7813,815.8564 Q1654.0781,815.8564 1653.4844,816.1377 Q1652.9063,816.4189 1652.4531,817.0439 Q1652,817.6689 1652,818.5283 L1652,819.4502 Q1652,820.4814 1652.8438,821.1689 Q1653.6875,821.8564 1655.1875,821.8564 Q1656.0781,821.8564 1656.7031,821.6533 Q1657.0625,821.5439 1657.4688,821.1846 Q1657.7344,820.9814 1657.875,820.9189 Q1658.0156,820.8564 1658.1875,820.8564 Q1658.5156,820.8564 1658.75,821.1221 Q1659,821.3721 1659,821.7314 Q1659,822.0752 1658.6563,822.4814 Q1658.1563,823.0752 1657.3594,823.4033 Q1656.3125,823.8564 1655.0313,823.8564 Q1653.5313,823.8564 1652.3281,823.2627 Q1651.3594,822.7939 1650.6719,821.7783 Q1650,820.7627 1650,819.5596 L1650,818.4658 Q1650,817.2158 1650.5938,816.1221 Q1651.2031,815.0283 1652.25,814.4502 Q1653.3125,813.8564 1654.5,813.8564 Q1655.2188,813.8564 1655.8438,814.1064 Q1656.4688,814.3564 1657,814.8564 Z " fill="#000000"/><text fill="#000000" font-family="sans-serif" font-size="12" lengthAdjust="spacing" textLength="78" x="1669" y="823.2666">PlaceLocation</text><line style="stroke:#A80036;stroke-width:1.5;" x1="1641" x2="1749" y1="834.3564" y2="834.3564"/><text fill="#000000" font-family="sans-serif" font-size="11" lengthAdjust="spacing" textLength="38" x="1646" y="849.7754">-latitude</text><text fill="#000000" font-family="sans-serif" font-size="11" lengthAdjust="spacing" textLength="47" x="1646" y="863.6113">-longitude</text><!--MD5=[efa7c3600894dd6faaa8b816738c33b1]
class ShipLocation--><rect codeLine="80" fill="#FEFECE" filter="url(#f1fzhkz04v3d1n)" height="150.6875" id="ShipLocation" style="stroke:#A80036;stroke-width:1.5;" width="104" x="699" y="329.8564"/><ellipse cx="714" cy="345.8564" fill="#ADD1B2" rx="11" ry="11" style="stroke:#A80036;stroke-width:1.0;"/><path d="M716,342.3564 Q716.2031,341.8564 716.4375,341.6064 Q716.6719,341.3564 716.9375,341.3564 Q717.4063,341.3564 717.7031,341.6377 Q718,341.9189 718,342.5752 L718,344.1377 Q718,344.7939 717.7188,345.0752 Q717.4375,345.3564 717,345.3564 Q716.6094,345.3564 716.3594,345.1846 Q716.1094,345.0127 716,344.5596 Q715.9531,344.2471 715.7813,344.0752 Q715.4688,343.7471 714.9063,343.5596 Q714.3438,343.3564 713.7813,343.3564 Q713.0781,343.3564 712.4844,343.6377 Q711.9063,343.9189 711.4531,344.5439 Q711,345.1689 711,346.0283 L711,346.9502 Q711,347.9814 711.8438,348.6689 Q712.6875,349.3564 714.1875,349.3564 Q715.0781,349.3564 715.7031,349.1533 Q716.0625,349.0439 716.4688,348.6846 Q716.7344,348.4814 716.875,348.4189 Q717.0156,348.3564 717.1875,348.3564 Q717.5156,348.3564 717.75,348.6221 Q718,348.8721 718,349.2314 Q718,349.5752 717.6563,349.9814 Q717.1563,350.5752 716.3594,350.9033 Q715.3125,351.3564 714.0313,351.3564 Q712.5313,351.3564 711.3281,350.7627 Q710.3594,350.2939 709.6719,349.2783 Q709,348.2627 709,347.0596 L709,345.9658 Q709,344.7158 709.5938,343.6221 Q710.2031,342.5283 711.25,341.9502 Q712.3125,341.3564 713.5,341.3564 Q714.2188,341.3564 714.8438,341.6064 Q715.4688,341.8564 716,342.3564 Z " fill="#000000"/><text fill="#000000" font-family="sans-serif" font-size="12" lengthAdjust="spacing" textLength="72" x="728" y="350.7666">ShipLocation</text><line style="stroke:#A80036;stroke-width:1.5;" x1="700" x2="802" y1="361.8564" y2="361.8564"/><text fill="#000000" font-family="sans-serif" font-size="11" lengthAdjust="spacing" textLength="72" x="705" y="377.2754">-baseDateTime</text><text fill="#000000" font-family="sans-serif" font-size="11" lengthAdjust="spacing" textLength="38" x="705" y="391.1113">-latitude</text><text fill="#000000" font-family="sans-serif" font-size="11" lengthAdjust="spacing" textLength="47" x="705" y="404.9473">-longitude</text><text fill="#000000" font-family="sans-serif" font-size="11" lengthAdjust="spacing" textLength="22" x="705" y="418.7832">-sog</text><text fill="#000000" font-family="sans-serif" font-size="11" lengthAdjust="spacing" textLength="22" x="705" y="432.6191">-cog</text><text fill="#000000" font-family="sans-serif" font-size="11" lengthAdjust="spacing" textLength="42" x="705" y="446.4551">-heading</text><text fill="#000000" font-family="sans-serif" font-size="11" lengthAdjust="spacing" textLength="41" x="705" y="460.291">-position</text><text fill="#000000" font-family="sans-serif" font-size="11" lengthAdjust="spacing" textLength="59" x="705" y="474.127">-transceiver</text><!--MD5=[3fd616f346a44cd59a91eb10b19e157c]
class User--><rect codeLine="91" fill="#FEFECE" filter="url(#f1fzhkz04v3d1n)" height="67.6719" id="User" style="stroke:#A80036;stroke-width:1.5;" width="66" x="492.5" y="155.3564"/><ellipse cx="510.65" cy="171.3564" fill="#ADD1B2" rx="11" ry="11" style="stroke:#A80036;stroke-width:1.0;"/><path d="M512.65,167.8564 Q512.8531,167.3564 513.0875,167.1064 Q513.3219,166.8564 513.5875,166.8564 Q514.0563,166.8564 514.3531,167.1377 Q514.65,167.4189 514.65,168.0752 L514.65,169.6377 Q514.65,170.2939 514.3688,170.5752 Q514.0875,170.8564 513.65,170.8564 Q513.2594,170.8564 513.0094,170.6846 Q512.7594,170.5127 512.65,170.0596 Q512.6031,169.7471 512.4313,169.5752 Q512.1188,169.2471 511.5563,169.0596 Q510.9938,168.8564 510.4313,168.8564 Q509.7281,168.8564 509.1344,169.1377 Q508.5563,169.4189 508.1031,170.0439 Q507.65,170.6689 507.65,171.5283 L507.65,172.4502 Q507.65,173.4814 508.4938,174.1689 Q509.3375,174.8564 510.8375,174.8564 Q511.7281,174.8564 512.3531,174.6533 Q512.7125,174.5439 513.1188,174.1846 Q513.3844,173.9814 513.525,173.9189 Q513.6656,173.8564 513.8375,173.8564 Q514.1656,173.8564 514.4,174.1221 Q514.65,174.3721 514.65,174.7314 Q514.65,175.0752 514.3063,175.4814 Q513.8063,176.0752 513.0094,176.4033 Q511.9625,176.8564 510.6813,176.8564 Q509.1813,176.8564 507.9781,176.2627 Q507.0094,175.7939 506.3219,174.7783 Q505.65,173.7627 505.65,172.5596 L505.65,171.4658 Q505.65,170.2158 506.2438,169.1221 Q506.8531,168.0283 507.9,167.4502 Q508.9625,166.8564 510.15,166.8564 Q510.8688,166.8564 511.4938,167.1064 Q512.1188,167.3564 512.65,167.8564 Z " fill="#000000"/><text fill="#000000" font-family="sans-serif" font-size="12" lengthAdjust="spacing" textLength="27" x="525.35" y="176.2666">User</text><line style="stroke:#A80036;stroke-width:1.5;" x1="493.5" x2="557.5" y1="187.3564" y2="187.3564"/><text fill="#000000" font-family="sans-serif" font-size="11" lengthAdjust="spacing" textLength="52" x="498.5" y="202.7754">-username</text><text fill="#000000" font-family="sans-serif" font-size="11" lengthAdjust="spacing" textLength="54" x="498.5" y="216.6113">-password</text><!--MD5=[a3638c1e5b65d287ecad7f06f5c0f212]
class Role--><rect codeLine="96" fill="#FEFECE" filter="url(#f1fzhkz04v3d1n)" height="53.8359" id="Role" style="stroke:#A80036;stroke-width:1.5;" width="71" x="715.5" y="169.3564"/><ellipse cx="736.35" cy="185.3564" fill="#ADD1B2" rx="11" ry="11" style="stroke:#A80036;stroke-width:1.0;"/><path d="M738.35,181.8564 Q738.5531,181.3564 738.7875,181.1064 Q739.0219,180.8564 739.2875,180.8564 Q739.7563,180.8564 740.0531,181.1377 Q740.35,181.4189 740.35,182.0752 L740.35,183.6377 Q740.35,184.2939 740.0688,184.5752 Q739.7875,184.8564 739.35,184.8564 Q738.9594,184.8564 738.7094,184.6846 Q738.4594,184.5127 738.35,184.0596 Q738.3031,183.7471 738.1313,183.5752 Q737.8188,183.2471 737.2563,183.0596 Q736.6938,182.8564 736.1313,182.8564 Q735.4281,182.8564 734.8344,183.1377 Q734.2563,183.4189 733.8031,184.0439 Q733.35,184.6689 733.35,185.5283 L733.35,186.4502 Q733.35,187.4814 734.1938,188.1689 Q735.0375,188.8564 736.5375,188.8564 Q737.4281,188.8564 738.0531,188.6533 Q738.4125,188.5439 738.8188,188.1846 Q739.0844,187.9814 739.225,187.9189 Q739.3656,187.8564 739.5375,187.8564 Q739.8656,187.8564 740.1,188.1221 Q740.35,188.3721 740.35,188.7314 Q740.35,189.0752 740.0063,189.4814 Q739.5063,190.0752 738.7094,190.4033 Q737.6625,190.8564 736.3813,190.8564 Q734.8813,190.8564 733.6781,190.2627 Q732.7094,189.7939 732.0219,188.7783 Q731.35,187.7627 731.35,186.5596 L731.35,185.4658 Q731.35,184.2158 731.9438,183.1221 Q732.5531,182.0283 733.6,181.4502 Q734.6625,180.8564 735.85,180.8564 Q736.5688,180.8564 737.1938,181.1064 Q737.8188,181.3564 738.35,181.8564 Z " fill="#000000"/><text fill="#000000" font-family="sans-serif" font-size="12" lengthAdjust="spacing" textLength="26" x="751.65" y="190.2666">Role</text><line style="stroke:#A80036;stroke-width:1.5;" x1="716.5" x2="785.5" y1="201.3564" y2="201.3564"/><text fill="#000000" font-family="sans-serif" font-size="11" lengthAdjust="spacing" textLength="59" x="721.5" y="216.7754">-designation</text><!--MD5=[ea8f20dfdca176213da526d9b557babf]
class Capital--><rect codeLine="100" fill="#FEFECE" filter="url(#f1fzhkz04v3d1n)" height="53.8359" id="Capital" style="stroke:#A80036;stroke-width:1.5;" width="71" x="1424.5" y="949.3564"/><ellipse cx="1439.5" cy="965.3564" fill="#ADD1B2" rx="11" ry="11" style="stroke:#A80036;stroke-width:1.0;"/><path d="M1441.5,961.8564 Q1441.7031,961.3564 1441.9375,961.1064 Q1442.1719,960.8564 1442.4375,960.8564 Q1442.9063,960.8564 1443.2031,961.1377 Q1443.5,961.4189 1443.5,962.0752 L1443.5,963.6377 Q1443.5,964.2939 1443.2188,964.5752 Q1442.9375,964.8564 1442.5,964.8564 Q1442.1094,964.8564 1441.8594,964.6846 Q1441.6094,964.5127 1441.5,964.0596 Q1441.4531,963.7471 1441.2813,963.5752 Q1440.9688,963.2471 1440.4063,963.0596 Q1439.8438,962.8564 1439.2813,962.8564 Q1438.5781,962.8564 1437.9844,963.1377 Q1437.4063,963.4189 1436.9531,964.0439 Q1436.5,964.6689 1436.5,965.5283 L1436.5,966.4502 Q1436.5,967.4814 1437.3438,968.1689 Q1438.1875,968.8564 1439.6875,968.8564 Q1440.5781,968.8564 1441.2031,968.6533 Q1441.5625,968.5439 1441.9688,968.1846 Q1442.2344,967.9814 1442.375,967.9189 Q1442.5156,967.8564 1442.6875,967.8564 Q1443.0156,967.8564 1443.25,968.1221 Q1443.5,968.3721 1443.5,968.7314 Q1443.5,969.0752 1443.1563,969.4814 Q1442.6563,970.0752 1441.8594,970.4033 Q1440.8125,970.8564 1439.5313,970.8564 Q1438.0313,970.8564 1436.8281,970.2627 Q1435.8594,969.7939 1435.1719,968.7783 Q1434.5,967.7627 1434.5,966.5596 L1434.5,965.4658 Q1434.5,964.2158 1435.0938,963.1221 Q1435.7031,962.0283 1436.75,961.4502 Q1437.8125,960.8564 1439,960.8564 Q1439.7188,960.8564 1440.3438,961.1064 Q1440.9688,961.3564 1441.5,961.8564 Z " fill="#000000"/><text fill="#000000" font-family="sans-serif" font-size="12" lengthAdjust="spacing" textLength="39" x="1453.5" y="970.2666">Capital</text><line style="stroke:#A80036;stroke-width:1.5;" x1="1425.5" x2="1494.5" y1="981.3564" y2="981.3564"/><text fill="#000000" font-family="sans-serif" font-size="11" lengthAdjust="spacing" textLength="30" x="1430.5" y="996.7754">-name</text><!--MD5=[8515a37c80da559ff7ce07f8a9e75d30]
class Place--><rect codeLine="104" fill="#FEFECE" filter="url(#f1fzhkz04v3d1n)" height="40" id="Place" style="stroke:#A80036;stroke-width:1.5;" width="63" x="1182.5" y="891.3564"/><ellipse cx="1197.5" cy="907.3564" fill="#ADD1B2" rx="11" ry="11" style="stroke:#A80036;stroke-width:1.0;"/><path d="M1199.5,903.8564 Q1199.7031,903.3564 1199.9375,903.1064 Q1200.1719,902.8564 1200.4375,902.8564 Q1200.9063,902.8564 1201.2031,903.1377 Q1201.5,903.4189 1201.5,904.0752 L1201.5,905.6377 Q1201.5,906.2939 1201.2188,906.5752 Q1200.9375,906.8564 1200.5,906.8564 Q1200.1094,906.8564 1199.8594,906.6846 Q1199.6094,906.5127 1199.5,906.0596 Q1199.4531,905.7471 1199.2813,905.5752 Q1198.9688,905.2471 1198.4063,905.0596 Q1197.8438,904.8564 1197.2813,904.8564 Q1196.5781,904.8564 1195.9844,905.1377 Q1195.4063,905.4189 1194.9531,906.0439 Q1194.5,906.6689 1194.5,907.5283 L1194.5,908.4502 Q1194.5,909.4814 1195.3438,910.1689 Q1196.1875,910.8564 1197.6875,910.8564 Q1198.5781,910.8564 1199.2031,910.6533 Q1199.5625,910.5439 1199.9688,910.1846 Q1200.2344,909.9814 1200.375,909.9189 Q1200.5156,909.8564 1200.6875,909.8564 Q1201.0156,909.8564 1201.25,910.1221 Q1201.5,910.3721 1201.5,910.7314 Q1201.5,911.0752 1201.1563,911.4814 Q1200.6563,912.0752 1199.8594,912.4033 Q1198.8125,912.8564 1197.5313,912.8564 Q1196.0313,912.8564 1194.8281,912.2627 Q1193.8594,911.7939 1193.1719,910.7783 Q1192.5,909.7627 1192.5,908.5596 L1192.5,907.4658 Q1192.5,906.2158 1193.0938,905.1221 Q1193.7031,904.0283 1194.75,903.4502 Q1195.8125,902.8564 1197,902.8564 Q1197.7188,902.8564 1198.3438,903.1064 Q1198.9688,903.3564 1199.5,903.8564 Z " fill="#000000"/><text fill="#000000" font-family="sans-serif" font-size="12" lengthAdjust="spacing" textLength="31" x="1211.5" y="912.2666">Place</text><line style="stroke:#A80036;stroke-width:1.5;" x1="1183.5" x2="1244.5" y1="923.3564" y2="923.3564"/><!--MD5=[a0336aaa8110b78d9cacadb9d45e00a3]
class Border--><rect codeLine="108" fill="#FEFECE" filter="url(#f1fzhkz04v3d1n)" height="67.6719" id="Border" style="stroke:#A80036;stroke-width:1.5;" width="86" x="2058" y="802.3564"/><ellipse cx="2080.65" cy="818.3564" fill="#ADD1B2" rx="11" ry="11" style="stroke:#A80036;stroke-width:1.0;"/><path d="M2082.65,814.8564 Q2082.8531,814.3564 2083.0875,814.1064 Q2083.3219,813.8564 2083.5875,813.8564 Q2084.0563,813.8564 2084.3531,814.1377 Q2084.65,814.4189 2084.65,815.0752 L2084.65,816.6377 Q2084.65,817.2939 2084.3688,817.5752 Q2084.0875,817.8564 2083.65,817.8564 Q2083.2594,817.8564 2083.0094,817.6846 Q2082.7594,817.5127 2082.65,817.0596 Q2082.6031,816.7471 2082.4313,816.5752 Q2082.1188,816.2471 2081.5563,816.0596 Q2080.9938,815.8564 2080.4313,815.8564 Q2079.7281,815.8564 2079.1344,816.1377 Q2078.5563,816.4189 2078.1031,817.0439 Q2077.65,817.6689 2077.65,818.5283 L2077.65,819.4502 Q2077.65,820.4814 2078.4938,821.1689 Q2079.3375,821.8564 2080.8375,821.8564 Q2081.7281,821.8564 2082.3531,821.6533 Q2082.7125,821.5439 2083.1188,821.1846 Q2083.3844,820.9814 2083.525,820.9189 Q2083.6656,820.8564 2083.8375,820.8564 Q2084.1656,820.8564 2084.4,821.1221 Q2084.65,821.3721 2084.65,821.7314 Q2084.65,822.0752 2084.3063,822.4814 Q2083.8063,823.0752 2083.0094,823.4033 Q2081.9625,823.8564 2080.6813,823.8564 Q2079.1813,823.8564 2077.9781,823.2627 Q2077.0094,822.7939 2076.3219,821.7783 Q2075.65,820.7627 2075.65,819.5596 L2075.65,818.4658 Q2075.65,817.2158 2076.2438,816.1221 Q2076.8531,815.0283 2077.9,814.4502 Q2078.9625,813.8564 2080.15,813.8564 Q2080.8688,813.8564 2081.4938,814.1064 Q2082.1188,814.3564 2082.65,814.8564 Z " fill="#000000"/><text fill="#000000" font-family="sans-serif" font-size="12" lengthAdjust="spacing" textLength="37" x="2096.35" y="823.2666">Border</text><line style="stroke:#A80036;stroke-width:1.5;" x1="2059" x2="2143" y1="834.3564" y2="834.3564"/><text fill="#000000" font-family="sans-serif" font-size="11" lengthAdjust="spacing" textLength="74" x="2064" y="849.7754">-countryName1</text><text fill="#000000" font-family="sans-serif" font-size="11" lengthAdjust="spacing" textLength="74" x="2064" y="863.6113">-countryName2</text><!--MD5=[074ba6ad47b234bd73d65012320c1634]
class FreightNetwork--><rect codeLine="113" fill="#FEFECE" filter="url(#f1fzhkz04v3d1n)" height="40" id="FreightNetwork" style="stroke:#A80036;stroke-width:1.5;" width="115" x="310" y="884.3564"/><ellipse cx="325" cy="900.3564" fill="#ADD1B2" rx="11" ry="11" style="stroke:#A80036;stroke-width:1.0;"/><path d="M327,896.8564 Q327.2031,896.3564 327.4375,896.1064 Q327.6719,895.8564 327.9375,895.8564 Q328.4063,895.8564 328.7031,896.1377 Q329,896.4189 329,897.0752 L329,898.6377 Q329,899.2939 328.7188,899.5752 Q328.4375,899.8564 328,899.8564 Q327.6094,899.8564 327.3594,899.6846 Q327.1094,899.5127 327,899.0596 Q326.9531,898.7471 326.7813,898.5752 Q326.4688,898.2471 325.9063,898.0596 Q325.3438,897.8564 324.7813,897.8564 Q324.0781,897.8564 323.4844,898.1377 Q322.9063,898.4189 322.4531,899.0439 Q322,899.6689 322,900.5283 L322,901.4502 Q322,902.4814 322.8438,903.1689 Q323.6875,903.8564 325.1875,903.8564 Q326.0781,903.8564 326.7031,903.6533 Q327.0625,903.5439 327.4688,903.1846 Q327.7344,902.9814 327.875,902.9189 Q328.0156,902.8564 328.1875,902.8564 Q328.5156,902.8564 328.75,903.1221 Q329,903.3721 329,903.7314 Q329,904.0752 328.6563,904.4814 Q328.1563,905.0752 327.3594,905.4033 Q326.3125,905.8564 325.0313,905.8564 Q323.5313,905.8564 322.3281,905.2627 Q321.3594,904.7939 320.6719,903.7783 Q320,902.7627 320,901.5596 L320,900.4658 Q320,899.2158 320.5938,898.1221 Q321.2031,897.0283 322.25,896.4502 Q323.3125,895.8564 324.5,895.8564 Q325.2188,895.8564 325.8438,896.1064 Q326.4688,896.3564 327,896.8564 Z " fill="#000000"/><text fill="#000000" font-family="sans-serif" font-size="12" lengthAdjust="spacing" textLength="83" x="339" y="905.2666">FreightNetwork</text><line style="stroke:#A80036;stroke-width:1.5;" x1="311" x2="424" y1="916.3564" y2="916.3564"/><!--MD5=[e24af10a0367b93d82d6bdd24a6ec764]
class Seadist--><rect codeLine="116" fill="#FEFECE" filter="url(#f1fzhkz04v3d1n)" height="136.8516" id="Seadist" style="stroke:#A80036;stroke-width:1.5;" width="86" x="1652" y="314.8564"/><ellipse cx="1672.4" cy="330.8564" fill="#ADD1B2" rx="11" ry="11" style="stroke:#A80036;stroke-width:1.0;"/><path d="M1674.4,327.3564 Q1674.6031,326.8564 1674.8375,326.6064 Q1675.0719,326.3564 1675.3375,326.3564 Q1675.8063,326.3564 1676.1031,326.6377 Q1676.4,326.9189 1676.4,327.5752 L1676.4,329.1377 Q1676.4,329.7939 1676.1188,330.0752 Q1675.8375,330.3564 1675.4,330.3564 Q1675.0094,330.3564 1674.7594,330.1846 Q1674.5094,330.0127 1674.4,329.5596 Q1674.3531,329.2471 1674.1813,329.0752 Q1673.8688,328.7471 1673.3063,328.5596 Q1672.7438,328.3564 1672.1813,328.3564 Q1671.4781,328.3564 1670.8844,328.6377 Q1670.3063,328.9189 1669.8531,329.5439 Q1669.4,330.1689 1669.4,331.0283 L1669.4,331.9502 Q1669.4,332.9814 1670.2438,333.6689 Q1671.0875,334.3564 1672.5875,334.3564 Q1673.4781,334.3564 1674.1031,334.1533 Q1674.4625,334.0439 1674.8688,333.6846 Q1675.1344,333.4814 1675.275,333.4189 Q1675.4156,333.3564 1675.5875,333.3564 Q1675.9156,333.3564 1676.15,333.6221 Q1676.4,333.8721 1676.4,334.2314 Q1676.4,334.5752 1676.0563,334.9814 Q1675.5563,335.5752 1674.7594,335.9033 Q1673.7125,336.3564 1672.4313,336.3564 Q1670.9313,336.3564 1669.7281,335.7627 Q1668.7594,335.2939 1668.0719,334.2783 Q1667.4,333.2627 1667.4,332.0596 L1667.4,330.9658 Q1667.4,329.7158 1667.9938,328.6221 Q1668.6031,327.5283 1669.65,326.9502 Q1670.7125,326.3564 1671.9,326.3564 Q1672.6188,326.3564 1673.2438,326.6064 Q1673.8688,326.8564 1674.4,327.3564 Z " fill="#000000"/><text fill="#000000" font-family="sans-serif" font-size="12" lengthAdjust="spacing" textLength="42" x="1687.6" y="335.7666">Seadist</text><line style="stroke:#A80036;stroke-width:1.5;" x1="1653" x2="1737" y1="346.8564" y2="346.8564"/><text fill="#000000" font-family="sans-serif" font-size="11" lengthAdjust="spacing" textLength="37" x="1658" y="362.2754">-portId1</text><text fill="#000000" font-family="sans-serif" font-size="11" lengthAdjust="spacing" textLength="37" x="1658" y="376.1113">-portId2</text><text fill="#000000" font-family="sans-serif" font-size="11" lengthAdjust="spacing" textLength="64" x="1658" y="389.9473">-seaDistance</text><text fill="#000000" font-family="sans-serif" font-size="11" lengthAdjust="spacing" textLength="56" x="1658" y="403.7832">-portName1</text><text fill="#000000" font-family="sans-serif" font-size="11" lengthAdjust="spacing" textLength="56" x="1658" y="417.6191">-portName2</text><text fill="#000000" font-family="sans-serif" font-size="11" lengthAdjust="spacing" textLength="74" x="1658" y="431.4551">-countryName1</text><text fill="#000000" font-family="sans-serif" font-size="11" lengthAdjust="spacing" textLength="74" x="1658" y="445.291">-countryName2</text><!--MD5=[f8e092794d52bf9a252466252ae7bd1c]
class System--><rect fill="#FEFECE" filter="url(#f1fzhkz04v3d1n)" height="40" id="System" style="stroke:#A80036;stroke-width:1.5;" width="73" x="714.5" y="94.3564"/><ellipse cx="729.5" cy="110.3564" fill="#ADD1B2" rx="11" ry="11" style="stroke:#A80036;stroke-width:1.0;"/><path d="M731.5,106.8564 Q731.7031,106.3564 731.9375,106.1064 Q732.1719,105.8564 732.4375,105.8564 Q732.9063,105.8564 733.2031,106.1377 Q733.5,106.4189 733.5,107.0752 L733.5,108.6377 Q733.5,109.2939 733.2188,109.5752 Q732.9375,109.8564 732.5,109.8564 Q732.1094,109.8564 731.8594,109.6846 Q731.6094,109.5127 731.5,109.0596 Q731.4531,108.7471 731.2813,108.5752 Q730.9688,108.2471 730.4063,108.0596 Q729.8438,107.8564 729.2813,107.8564 Q728.5781,107.8564 727.9844,108.1377 Q727.4063,108.4189 726.9531,109.0439 Q726.5,109.6689 726.5,110.5283 L726.5,111.4502 Q726.5,112.4814 727.3438,113.1689 Q728.1875,113.8564 729.6875,113.8564 Q730.5781,113.8564 731.2031,113.6533 Q731.5625,113.5439 731.9688,113.1846 Q732.2344,112.9814 732.375,112.9189 Q732.5156,112.8564 732.6875,112.8564 Q733.0156,112.8564 733.25,113.1221 Q733.5,113.3721 733.5,113.7314 Q733.5,114.0752 733.1563,114.4814 Q732.6563,115.0752 731.8594,115.4033 Q730.8125,115.8564 729.5313,115.8564 Q728.0313,115.8564 726.8281,115.2627 Q725.8594,114.7939 725.1719,113.7783 Q724.5,112.7627 724.5,111.5596 L724.5,110.4658 Q724.5,109.2158 725.0938,108.1221 Q725.7031,107.0283 726.75,106.4502 Q727.8125,105.8564 729,105.8564 Q729.7188,105.8564 730.3438,106.1064 Q730.9688,106.3564 731.5,106.8564 Z " fill="#000000"/><text fill="#000000" font-family="sans-serif" font-size="12" lengthAdjust="spacing" textLength="41" x="743.5" y="115.2666">System</text><line style="stroke:#A80036;stroke-width:1.5;" x1="715.5" x2="786.5" y1="126.3564" y2="126.3564"/><!--MD5=[d729e47c8b99010fceb84b610067730f]
link CargoManifest to Ports--><path codeLine="126" d="M1272.38,529.8364 C1305.81,512.5764 1347.95,488.6564 1382,462.3564 C1399.13,449.1264 1416.14,432.1864 1429.8,417.3864 " fill="none" id="CargoManifest-Ports" style="stroke:#A80036;stroke-width:1.0;"/><polygon fill="#000000" points="1311.0686,450.6259,1302.0002,453.492,1305.4167,458.2749,1311.0686,450.6259" style="stroke:#000000;stroke-width:1.0;"/><text fill="#000000" font-family="sans-serif" font-size="13" lengthAdjust="spacing" textLength="65" x="1316" y="458.8516">delivered at</text><text fill="#000000" font-family="sans-serif" font-size="13" lengthAdjust="spacing" textLength="5" x="1280.1803" y="540.8626">*</text><text fill="#000000" font-family="sans-serif" font-size="13" lengthAdjust="spacing" textLength="7" x="1416.7972" y="438.4287">1</text><!--MD5=[1007fce2994c0804f23855fbfd3e6bbd]
link CargoManifest to Warehouse--><path codeLine="127" d="M1272.23,582.1364 C1306.62,598.8964 1349.8,623.4064 1382,653.3564 C1402.37,672.3064 1420.15,697.6164 1433.47,719.5764 " fill="none" id="CargoManifest-Warehouse" style="stroke:#A80036;stroke-width:1.0;"/><polygon fill="#000000" points="1310.8052,592.7758,1305.828,584.6715,1302.015,589.1448,1310.8052,592.7758" style="stroke:#000000;stroke-width:1.0;"/><text fill="#000000" font-family="sans-serif" font-size="13" lengthAdjust="spacing" textLength="65" x="1316" y="594.8516">delivered at</text><text fill="#000000" font-family="sans-serif" font-size="13" lengthAdjust="spacing" textLength="5" x="1280.011" y="599.8635">*</text><text fill="#000000" font-family="sans-serif" font-size="13" lengthAdjust="spacing" textLength="7" x="1422.0593" y="708.8794">1</text><!--MD5=[37a14a5de6d6fd738aee271300f4b5c8]
link Company to Ship--><path codeLine="129" d="M92.15,562.2364 C173.59,563.9564 354.69,567.7764 454.73,569.8864 " fill="none" id="Company-Ship" style="stroke:#A80036;stroke-width:1.0;"/><polygon fill="#000000" points="227.4989,555.6377,218.5178,552.5086,218.3938,558.3852,227.4989,555.6377" style="stroke:#000000;stroke-width:1.0;"/><text fill="#000000" font-family="sans-serif" font-size="13" lengthAdjust="spacing" textLength="23" x="231.5" y="560.8516">own</text><text fill="#000000" font-family="sans-serif" font-size="13" lengthAdjust="spacing" textLength="7" x="100.082" y="577.3021">1</text><text fill="#000000" font-family="sans-serif" font-size="13" lengthAdjust="spacing" textLength="20" x="427.0316" y="584.0114">1..*</text><!--MD5=[a2a194d3aa0c5b34ec916a16bebf9a1a]
link Company to System--><path codeLine="130" d="M60.49,534.2364 C88.19,463.0164 173.06,269.5464 310,173.3564 C436.3,84.6464 634.23,98.6164 714.46,108.9064 " fill="none" id="Company-System" style="stroke:#A80036;stroke-width:1.0;"/><polygon fill="#000000" points="358.6915,111.8062,349.5067,114.274,352.7114,119.2014,358.6915,111.8062" style="stroke:#000000;stroke-width:1.0;"/><text fill="#000000" font-family="sans-serif" font-size="13" lengthAdjust="spacing" textLength="21" x="363.5" y="119.8516">has</text><text fill="#000000" font-family="sans-serif" font-size="13" lengthAdjust="spacing" textLength="7" x="63.8408" y="523.6697">1</text><text fill="#000000" font-family="sans-serif" font-size="13" lengthAdjust="spacing" textLength="20" x="686.4609" y="122.8701">1..*</text><!--MD5=[09366576ee87d48d594df10cacc83f45]
link Company to Employee--><path codeLine="131" d="M87.49,534.1664 C119.76,510.4464 166.32,476.2064 198.57,452.5064 " fill="none" id="Company-Employee" style="stroke:#A80036;stroke-width:1.0;"/><polygon fill="#000000" points="131.0285,469.5707,122.0001,472.5603,125.4816,477.2961,131.0285,469.5707" style="stroke:#000000;stroke-width:1.0;"/><text fill="#000000" font-family="sans-serif" font-size="13" lengthAdjust="spacing" textLength="26" x="136" y="477.8516">have</text><text fill="#000000" font-family="sans-serif" font-size="13" lengthAdjust="spacing" textLength="7" x="88.4658" y="523.5835">1</text><text fill="#000000" font-family="sans-serif" font-size="13" lengthAdjust="spacing" textLength="20" x="168.0853" y="473.747">1..*</text><!--MD5=[710b10ea314ec23c5eb602bd01bfa9d5]
link Company to Truck--><path codeLine="132" d="M92.21,584.7164 C164.06,623.9664 316.82,703.1064 455,746.3564 C549.1,775.8164 665.53,790.6964 719.67,796.4464 " fill="none" id="Company-Truck" style="stroke:#A80036;stroke-width:1.0;"/><polygon fill="#000000" points="358.2375,684.1309,350.6069,678.4542,348.7276,684.0236,358.2375,684.1309" style="stroke:#000000;stroke-width:1.0;"/><text fill="#000000" font-family="sans-serif" font-size="13" lengthAdjust="spacing" textLength="23" x="362.5" y="687.8516">own</text><text fill="#000000" font-family="sans-serif" font-size="13" lengthAdjust="spacing" textLength="7" x="99.8635" y="603.4483">1</text><text fill="#000000" font-family="sans-serif" font-size="13" lengthAdjust="spacing" textLength="20" x="692.0498" y="810.9124">1..*</text><!--MD5=[3d97e7a8068d9b0a6bb8fcf7dc76451d]
link Company to Ports--><path codeLine="133" d="M53.82,533.9864 C67.83,424.5564 126.54,24.3564 235.5,24.3564 C235.5,24.3564 235.5,24.3564 1215,24.3564 C1371.18,24.3564 1434.4,259.6464 1452.82,349.2564 " fill="none" id="Company-Ports" style="stroke:#A80036;stroke-width:1.0;"/><polygon fill="#000000" points="740.457,14.8777,731.105,13.1481,731.8745,18.9754,740.457,14.8777" style="stroke:#000000;stroke-width:1.0;"/><text fill="#000000" font-family="sans-serif" font-size="13" lengthAdjust="spacing" textLength="26" x="744.5" y="20.8516">have</text><text fill="#000000" font-family="sans-serif" font-size="13" lengthAdjust="spacing" textLength="7" x="47.0096" y="523.3619">1</text><text fill="#000000" font-family="sans-serif" font-size="13" lengthAdjust="spacing" textLength="20" x="1429.4377" y="338.53">1..*</text><!--MD5=[e359b474b5bea3d5e0a05d5f38acf6c5]
link Company to FreightNetwork--><path codeLine="134" d="M53.82,588.4264 C62.12,651.8264 85.77,807.2664 122,843.3564 C171.51,892.6764 254.44,904.1964 309.8,905.8864 " fill="none" id="Company-FreightNetwork" style="stroke:#A80036;stroke-width:1.0;"/><polygon fill="#000000" points="130.1385,838.4245,126.7487,829.5385,122.1731,833.2281,130.1385,838.4245" style="stroke:#000000;stroke-width:1.0;"/><text fill="#000000" font-family="sans-serif" font-size="13" lengthAdjust="spacing" textLength="26" x="136" y="839.8516">have</text><text fill="#000000" font-family="sans-serif" font-size="13" lengthAdjust="spacing" textLength="7" x="46.9994" y="609.6495">1</text><text fill="#000000" font-family="sans-serif" font-size="13" lengthAdjust="spacing" textLength="7" x="294.9588" y="920.6251">1</text><!--MD5=[a27713cdd7694cea32c8be89a3131559]
link Containers to CargoManifest--><path codeLine="136" d="M1027.2,595.4664 C1064.53,587.8164 1116.35,577.1864 1155.78,569.0964 " fill="none" id="Containers-CargoManifest" style="stroke:#A80036;stroke-width:1.0;"/><polygon fill="#000000" points="1066.8981,565.5277,1057.4469,564.4659,1058.6278,570.2239,1066.8981,565.5277" style="stroke:#000000;stroke-width:1.0;"/><text fill="#000000" font-family="sans-serif" font-size="13" lengthAdjust="spacing" textLength="54" x="1071" y="571.8516">related to</text><text fill="#000000" font-family="sans-serif" font-size="13" lengthAdjust="spacing" textLength="20" x="1035.155" y="608.7071">1..*</text><text fill="#000000" font-family="sans-serif" font-size="13" lengthAdjust="spacing" textLength="20" x="1127.8921" y="584.9029">1..*</text><!--MD5=[c7fc6f07f2489647d2a3f83969f89660]
link Containers to Ports--><path codeLine="137" d="M1027.22,561.0864 C1061.09,532.0264 1108.64,495.1364 1156,471.3564 C1246.07,426.1264 1363.2,400.4564 1421.95,389.5864 " fill="none" id="Containers-Ports" style="stroke:#A80036;stroke-width:1.0;"/><polygon fill="#000000" points="1201.5859,417.5398,1192.1188,418.4486,1194.4611,423.8397,1201.5859,417.5398" style="stroke:#000000;stroke-width:1.0;"/><text fill="#000000" font-family="sans-serif" font-size="13" lengthAdjust="spacing" textLength="29" x="1206" y="424.8516">store</text><text fill="#000000" font-family="sans-serif" font-size="13" lengthAdjust="spacing" textLength="20" x="1035.1777" y="569.7073">0..*</text><text fill="#000000" font-family="sans-serif" font-size="13" lengthAdjust="spacing" textLength="7" x="1407.0295" y="405.8589">1</text><!--MD5=[40d84d2acc82335a7c6decf41782281a]
link Containers to Warehouse--><path codeLine="138" d="M1027.08,621.5764 C1102.64,647.0764 1253.79,698.0764 1382,741.3564 C1391.63,744.6064 1401.93,748.0864 1411.76,751.4064 " fill="none" id="Containers-Warehouse" style="stroke:#A80036;stroke-width:1.0;"/><polygon fill="#000000" points="1201.7375,658.1311,1194.1071,652.4541,1192.2275,658.0233,1201.7375,658.1311" style="stroke:#000000;stroke-width:1.0;"/><text fill="#000000" font-family="sans-serif" font-size="13" lengthAdjust="spacing" textLength="29" x="1206" y="661.8516">store</text><text fill="#000000" font-family="sans-serif" font-size="13" lengthAdjust="spacing" textLength="20" x="1035.0189" y="638.3256">0..*</text><text fill="#000000" font-family="sans-serif" font-size="13" lengthAdjust="spacing" textLength="7" x="1397.1607" y="763.7345">1</text><!--MD5=[553c71e238892de64676e9482c62727a]
link Country to Border--><path codeLine="140" d="M1951.11,836.3564 C1981.71,836.3564 2025.62,836.3564 2057.83,836.3564 " fill="none" id="Country-Border" style="stroke:#A80036;stroke-width:1.0;"/><polygon fill="#000000" points="1991,827.5322,1981.9549,824.5933,1981.9549,830.4712,1991,827.5322" style="stroke:#000000;stroke-width:1.0;"/><text fill="#000000" font-family="sans-serif" font-size="13" lengthAdjust="spacing" textLength="32" x="1995" y="832.8516">has a</text><text fill="#000000" font-family="sans-serif" font-size="13" lengthAdjust="spacing" textLength="7" x="1959.1051" y="851.4935">2</text><text fill="#000000" font-family="sans-serif" font-size="13" lengthAdjust="spacing" textLength="5" x="2044.9805" y="851.285">*</text><!--MD5=[c549efd5903bd57ae8426884da365cce]
reverse link Place to Ports--><path codeLine="142" d="M1238.53,874.1264 C1273.12,818.3464 1338.3,709.0664 1382,610.3564 C1411.4,543.9564 1436.49,462.6064 1449.5,417.5364 " fill="none" id="Place-backto-Ports" style="stroke:#A80036;stroke-width:1.0;"/><polygon fill="none" points="1244.39,877.9564,1227.86,891.2064,1232.52,870.5364,1244.39,877.9564" style="stroke:#A80036;stroke-width:1.0;"/><!--MD5=[8019f7a40ce5be359cb5778b910e4989]
reverse link Place to Capital--><path codeLine="143" d="M1265.36,924.7764 C1312.89,937.4364 1382.89,956.0864 1424.42,967.1464 " fill="none" id="Place-backto-Capital" style="stroke:#A80036;stroke-width:1.0;"/><polygon fill="none" points="1263.43,931.4964,1245.9,919.5864,1267.03,917.9764,1263.43,931.4964" style="stroke:#A80036;stroke-width:1.0;"/><!--MD5=[3d04185e7085eaaeba7ebd93b9963be0]
link PlaceLocation to Country--><path codeLine="145" d="M1750.2,836.3564 C1789.74,836.3564 1842.25,836.3564 1876.8,836.3564 " fill="none" id="PlaceLocation-Country" style="stroke:#A80036;stroke-width:1.0;"/><polygon fill="#000000" points="1790,827.5322,1780.9549,824.5933,1780.9549,830.4712,1790,827.5322" style="stroke:#000000;stroke-width:1.0;"/><text fill="#000000" font-family="sans-serif" font-size="13" lengthAdjust="spacing" textLength="52" x="1794" y="832.8516">placed in</text><text fill="#000000" font-family="sans-serif" font-size="13" lengthAdjust="spacing" textLength="5" x="1757.9534" y="850.9722">*</text><text fill="#000000" font-family="sans-serif" font-size="13" lengthAdjust="spacing" textLength="7" x="1862.0416" y="851.4413">1</text><!--MD5=[3f90a4e0e12e19ee6f3a457d358ba219]
link Place to PlaceLocation--><path codeLine="147" d="M1245.69,906.5464 C1325.19,894.1064 1538.62,860.6864 1639.61,844.8764 " fill="none" id="Place-PlaceLocation" style="stroke:#A80036;stroke-width:1.0;"/><polygon fill="#000000" points="1433.9398,856.7589,1424.549,855.2543,1425.4582,861.0614,1433.9398,856.7589" style="stroke:#000000;stroke-width:1.0;"/><text fill="#000000" font-family="sans-serif" font-size="13" lengthAdjust="spacing" textLength="57" x="1438" y="862.8516">located at</text><text fill="#000000" font-family="sans-serif" font-size="13" lengthAdjust="spacing" textLength="7" x="1253.3878" y="920.7778">1</text><text fill="#000000" font-family="sans-serif" font-size="13" lengthAdjust="spacing" textLength="7" x="1625.0647" y="860.5317">1</text><!--MD5=[cff4e3c6ede03364cf99bd3378be6b6a]
link Ship to Containers--><path codeLine="149" d="M596.4,576.6364 C688.7,583.5964 848.88,595.6864 928.78,601.7164 " fill="none" id="Ship-Containers" style="stroke:#A80036;stroke-width:1.0;"/><polygon fill="#000000" points="727.9858,575.9084,719.1875,572.2973,718.7453,578.1585,727.9858,575.9084" style="stroke:#000000;stroke-width:1.0;"/><text fill="#000000" font-family="sans-serif" font-size="13" lengthAdjust="spacing" textLength="51" x="732" y="580.8516">transport</text><text fill="#000000" font-family="sans-serif" font-size="13" lengthAdjust="spacing" textLength="7" x="604.0725" y="591.5091">1</text><text fill="#000000" font-family="sans-serif" font-size="13" lengthAdjust="spacing" textLength="20" x="900.8223" y="615.7969">1..*</text><!--MD5=[b5e7d3b323f2cd13b2215620f50e65f3]
link Ship to Ports--><path codeLine="150" d="M596.14,553.1264 C652.07,538.4464 732.62,517.2164 803,498.3564 C1023.03,439.3964 1074.79,397.6164 1302,381.3564 C1342.92,378.4264 1389.99,379.6364 1421.83,381.1264 " fill="none" id="Ship-Ports" style="stroke:#A80036;stroke-width:1.0;"/><polygon fill="#000000" points="966.3949,421.5126,956.9406,420.48,958.1393,426.2343,966.3949,421.5126" style="stroke:#000000;stroke-width:1.0;"/><text fill="#000000" font-family="sans-serif" font-size="13" lengthAdjust="spacing" textLength="28" x="970.5" y="427.8516">dock</text><text fill="#000000" font-family="sans-serif" font-size="13" lengthAdjust="spacing" textLength="20" x="604.078" y="565.6222">0..*</text><text fill="#000000" font-family="sans-serif" font-size="13" lengthAdjust="spacing" textLength="7" x="1406.8867" y="395.7863">1</text><!--MD5=[5541ef512584d1243c10a7f3b3317e1c]
link Ship to ShipLocation--><path codeLine="151" d="M596.3,519.5164 C629.47,494.8764 668.41,465.9564 698.8,443.3864 " fill="none" id="Ship-ShipLocation" style="stroke:#A80036;stroke-width:1.0;"/><polygon fill="#000000" points="638.514,457.5509,629.5003,460.5848,633.005,465.3035,638.514,457.5509" style="stroke:#000000;stroke-width:1.0;"/><text fill="#000000" font-family="sans-serif" font-size="13" lengthAdjust="spacing" textLength="21" x="643.5" y="465.8516">has</text><text fill="#000000" font-family="sans-serif" font-size="13" lengthAdjust="spacing" textLength="7" x="603.9622" y="528.4986">1</text><text fill="#000000" font-family="sans-serif" font-size="13" lengthAdjust="spacing" textLength="20" x="670.8306" y="462.8217">1..*</text><!--MD5=[9c226fb16923f449f2aeb2d55d4b05b5]
link Employee to ShipLocation--><path codeLine="153" d="M280.31,423.6864 C374.14,420.0264 597.55,411.3064 698.69,407.3564 " fill="none" id="Employee-ShipLocation" style="stroke:#A80036;stroke-width:1.0;"/><polygon fill="#000000" points="504.9962,403.3372,495.8434,400.7533,496.0726,406.6267,504.9962,403.3372" style="stroke:#000000;stroke-width:1.0;"/><text fill="#000000" font-family="sans-serif" font-size="13" lengthAdjust="spacing" textLength="46" x="509" y="408.8516">controls</text><text fill="#000000" font-family="sans-serif" font-size="13" lengthAdjust="spacing" textLength="7" x="288.1457" y="438.2727">1</text><text fill="#000000" font-family="sans-serif" font-size="13" lengthAdjust="spacing" textLength="20" x="671.096" y="422.1108">1..*</text><!--MD5=[22fb9506fac029fc1d2ae00f0eb8d606]
link Employee to User--><path codeLine="154" d="M241.24,398.3364 C248.01,359.8564 265.92,289.6164 310,250.3564 C361.9,204.1364 446.48,192.7464 492.39,190.0564 " fill="none" id="Employee-User" style="stroke:#A80036;stroke-width:1.0;"/><polygon fill="#000000" points="341.8487,187.3405,333.0102,190.8522,336.7624,195.3766,341.8487,187.3405" style="stroke:#000000;stroke-width:1.0;"/><text fill="#000000" font-family="sans-serif" font-size="13" lengthAdjust="spacing" textLength="54" x="347" y="195.8516">relates to</text><text fill="#000000" font-family="sans-serif" font-size="13" lengthAdjust="spacing" textLength="7" x="234.5423" y="387.3583">1</text><text fill="#000000" font-family="sans-serif" font-size="13" lengthAdjust="spacing" textLength="7" x="477.3816" y="205.529">1</text><!--MD5=[bfae458883a557d51202afbf4dc319fa]
link Employee to Ports--><path codeLine="155" d="M266.72,398.0264 C315.89,355.0164 420.08,276.3564 524.5,276.3564 C524.5,276.3564 524.5,276.3564 1215,276.3564 C1293.87,276.3564 1375.91,323.8164 1421.92,355.5264 " fill="none" id="Employee-Ports" style="stroke:#A80036;stroke-width:1.0;"/><polygon fill="#000000" points="845.4966,267.3484,836.3496,264.744,836.5657,270.6179,845.4966,267.3484" style="stroke:#000000;stroke-width:1.0;"/><text fill="#000000" font-family="sans-serif" font-size="13" lengthAdjust="spacing" textLength="46" x="849.5" y="272.8516">controls</text><text fill="#000000" font-family="sans-serif" font-size="13" lengthAdjust="spacing" textLength="7" x="265.899" y="387.4111">1</text><text fill="#000000" font-family="sans-serif" font-size="13" lengthAdjust="spacing" textLength="20" x="1393.9568" y="365.7935">1..*</text><!--MD5=[f893450ec36e3790ff3f550ad9baa38e]
link Employee to Warehouse--><path codeLine="156" d="M250.44,452.7564 C278.53,508.6264 351.04,634.7164 455,685.3564 C626.77,769.0264 1236.73,769.6064 1411.74,767.9764 " fill="none" id="Employee-Warehouse" style="stroke:#A80036;stroke-width:1.0;"/><polygon fill="#000000" points="851.3254,744.842,843.366,739.6363,841.8263,745.3089,851.3254,744.842" style="stroke:#000000;stroke-width:1.0;"/><text fill="#000000" font-family="sans-serif" font-size="13" lengthAdjust="spacing" textLength="34" x="855.5" y="748.8516">works</text><text fill="#000000" font-family="sans-serif" font-size="13" lengthAdjust="spacing" textLength="20" x="231.2526" y="473.606">1..*</text><text fill="#000000" font-family="sans-serif" font-size="13" lengthAdjust="spacing" textLength="7" x="1397.1378" y="782.7382">1</text><!--MD5=[50e93d7fbffe2de7672121ca65f656ee]
link Employee to Ship--><path codeLine="157" d="M280.16,447.0564 C326.22,470.4864 400.32,508.1864 454.85,535.9264 " fill="none" id="Employee-Ship" style="stroke:#A80036;stroke-width:1.0;"/><polygon fill="#000000" points="352.4565,458.7994,345.7272,452.0786,343.0621,457.3175,352.4565,458.7994" style="stroke:#000000;stroke-width:1.0;"/><text fill="#000000" font-family="sans-serif" font-size="13" lengthAdjust="spacing" textLength="34" x="357" y="461.8516">works</text><text fill="#000000" font-family="sans-serif" font-size="13" lengthAdjust="spacing" textLength="20" x="288.0413" y="464.9516">1..*</text><text fill="#000000" font-family="sans-serif" font-size="13" lengthAdjust="spacing" textLength="7" x="440.2033" y="546.6009">1</text><!--MD5=[8cef3b8bb432fdc493768abc58cade76]
link Truck to Containers--><path codeLine="159" d="M782.18,803.7764 C814.32,806.7864 865.12,806.4664 899,781.3564 C927.33,760.3664 945.56,726.7864 957.2,694.5564 " fill="none" id="Truck-Containers" style="stroke:#A80036;stroke-width:1.0;"/><polygon fill="#000000" points="842.2418,769.8852,833.0124,772.1805,836.1242,777.167,842.2418,769.8852" style="stroke:#000000;stroke-width:1.0;"/><text fill="#000000" font-family="sans-serif" font-size="13" lengthAdjust="spacing" textLength="51" x="847" y="777.8516">transport</text><text fill="#000000" font-family="sans-serif" font-size="13" lengthAdjust="spacing" textLength="7" x="790.1998" y="800.4843">1</text><text fill="#000000" font-family="sans-serif" font-size="13" lengthAdjust="spacing" textLength="20" x="934.6494" y="716.1006">1..*</text><!--MD5=[668bfb6c3cf503ab645d5414a0ff2b4e]
link Truck to Warehouse--><path codeLine="160" d="M782.27,804.9164 C797.44,807.4364 816.13,810.1164 833,811.3564 C1076.47,829.2964 1142.63,841.3564 1382,793.3564 C1391.82,791.3864 1402.12,788.5064 1411.87,785.3764 " fill="none" id="Truck-Warehouse" style="stroke:#A80036;stroke-width:1.0;"/><polygon fill="#000000" points="1081.4976,817.3771,1072.3657,814.7202,1072.548,820.5952,1081.4976,817.3771" style="stroke:#000000;stroke-width:1.0;"/><text fill="#000000" font-family="sans-serif" font-size="13" lengthAdjust="spacing" textLength="25" x="1085.5" y="822.8516">park</text><text fill="#000000" font-family="sans-serif" font-size="13" lengthAdjust="spacing" textLength="20" x="789.8792" y="820.9441">0..*</text><text fill="#000000" font-family="sans-serif" font-size="13" lengthAdjust="spacing" textLength="7" x="1396.9642" y="802.8565">1</text><!--MD5=[4a0bbcdd6df460060db454e8e2c30a96]
link User to System--><path codeLine="162" d="M558.52,178.6064 C599.8,164.7564 671.37,140.7464 714.34,126.3264 " fill="none" id="User-System" style="stroke:#A80036;stroke-width:1.0;"/><polygon fill="#000000" points="635.7403,132.9418,626.2302,133.0326,628.0999,138.6052,635.7403,132.9418" style="stroke:#000000;stroke-width:1.0;"/><text fill="#000000" font-family="sans-serif" font-size="13" lengthAdjust="spacing" textLength="28" x="640" y="139.8516">uses</text><text fill="#000000" font-family="sans-serif" font-size="13" lengthAdjust="spacing" textLength="20" x="566.4518" y="172.7072">1..*</text><text fill="#000000" font-family="sans-serif" font-size="13" lengthAdjust="spacing" textLength="7" x="699.4335" y="143.7878">1</text><!--MD5=[70c37dc9bfbc8656942103c36f1181e4]
link User to Role--><path codeLine="163" d="M558.7,193.4164 C578.15,195.6664 603.46,198.2264 626,199.3564 C645.09,200.3164 649.89,199.7064 669,199.3564 C684.2,199.0764 700.99,198.4964 715.32,197.9264 " fill="none" id="User-Role" style="stroke:#A80036;stroke-width:1.0;"/><polygon fill="#000000" points="639.4979,190.6761,630.5412,187.4781,630.372,193.3535,639.4979,190.6761" style="stroke:#000000;stroke-width:1.0;"/><text fill="#000000" font-family="sans-serif" font-size="13" lengthAdjust="spacing" textLength="21" x="643.5" y="195.8516">has</text><text fill="#000000" font-family="sans-serif" font-size="13" lengthAdjust="spacing" textLength="7" x="566.7281" y="209.624">1</text><text fill="#000000" font-family="sans-serif" font-size="13" lengthAdjust="spacing" textLength="20" x="687.4688" y="213.1107">1..*</text><!--MD5=[591625470abc4a5f324d9b49d40e13b3]
link Warehouse to PlaceLocation--><path codeLine="165" d="M1508.15,781.3164 C1546.31,792.6164 1600.09,808.5464 1639.98,820.3564 " fill="none" id="Warehouse-PlaceLocation" style="stroke:#A80036;stroke-width:1.0;"/><polygon fill="#000000" points="1547.7942,783.952,1539.9559,778.5657,1538.2869,784.2016,1547.7942,783.952" style="stroke:#000000;stroke-width:1.0;"/><text fill="#000000" font-family="sans-serif" font-size="13" lengthAdjust="spacing" textLength="57" x="1552" y="787.8516">located at</text><text fill="#000000" font-family="sans-serif" font-size="13" lengthAdjust="spacing" textLength="7" x="1516.0589" y="798.1748">1</text><text fill="#000000" font-family="sans-serif" font-size="13" lengthAdjust="spacing" textLength="7" x="1625.1164" y="832.8222">1</text><!--MD5=[fa4d65f953ae0f8f2ca1213e61726aa9]
link FreightNetwork to Place--><path codeLine="166" d="M425.2,906.2964 C481.37,908.0464 569.86,910.3564 646.5,910.3564 C646.5,910.3564 646.5,910.3564 979,910.3564 C1051.92,910.3564 1137.63,910.8464 1182.34,911.1464 " fill="none" id="FreightNetwork-Place" style="stroke:#A80036;stroke-width:1.0;"/><text fill="#000000" font-family="sans-serif" font-size="13" lengthAdjust="spacing" textLength="66" x="718" y="906.8516">related with</text><text fill="#000000" font-family="sans-serif" font-size="13" lengthAdjust="spacing" textLength="7" x="433.0413" y="921.0876">1</text><text fill="#000000" font-family="sans-serif" font-size="13" lengthAdjust="spacing" textLength="20" x="1154.3986" y="926.16">1..*</text><!--MD5=[6d3d45a2319404bb3e06b58881af6b0d]
link Ports to Seadist--><path codeLine="168" d="M1498.18,383.3564 C1540.06,383.3564 1608,383.3564 1651.83,383.3564 " fill="none" id="Ports-Seadist" style="stroke:#A80036;stroke-width:1.0;"/><text fill="#000000" font-family="sans-serif" font-size="13" lengthAdjust="spacing" textLength="32" x="1558" y="379.8516">has a</text><text fill="#000000" font-family="sans-serif" font-size="13" lengthAdjust="spacing" textLength="7" x="1506.1253" y="398.4413">2</text><text fill="#000000" font-family="sans-serif" font-size="13" lengthAdjust="spacing" textLength="5" x="1638.9805" y="398.2695">*</text><!--MD5=[27317585a22a78671debbd6a98ac2d71]
@startuml
'https://plantuml.com/class-diagram

hide methods
left to right direction
skinparam classAttributeIconSize 0

class Company {
-designation
}

class Employee {
-name
}

class Containers {
-x
-y
-z
-containerNumber
-checkDigit
-isoCode
-payLoad
-tare
-gross
-weight
}

class CargoManifest {
-listOfContainers
-ratio
-date
-mmsiCode
-id
-numberOfContainers
-destination
}

class Ship {
-mmsiCode
-imoCode
-numberEnergyGenerators
-generatorPower
-callSign
-draft
-name
-vesselTypeId
-length
-width
-capacity
}



class Ports {
-identification
-name
}

class Truck {

}

class Warehouse {
-identification
-name
-capacity
-occupancy
}

class Country {
-name
-continent
}

class PlaceLocation {
-latitude
-longitude
}

class ShipLocation {
-baseDateTime
-latitude
-longitude
-sog
-cog
-heading
-position
-transceiver
}

class User{
-username
-password
}

class Role{
-designation
}

class Capital{
-name
}

class Place {

}

class Border {
-countryName1
-countryName2
}

class FreightNetwork {
}

class Seadist {
-portId1
-portId2
-seaDistance
-portName1
-portName2
-countryName1
-countryName2
}

CargoManifest "*" - - "1" Ports : delivered at >
CargoManifest "*" - - "1" Warehouse : delivered at >

Company "1"- -"1..*" Ship: own >
Company "1" - "1..*" System : has >
Company "1"- -"1..*" Employee: have >
Company "1"- -"1..*" Truck: own >
Company "1"- -"1..*" Ports: have >
Company "1"- -"1" FreightNetwork: have >

Containers "1..*"- -"1..*" CargoManifest: related to >
Containers "0..*"- -"1" Ports: store >
Containers "0..*"- -"1" Warehouse: store >

Country "2" - - "*" Border : has a >

Place <|- - Ports
Place <|- - Capital

PlaceLocation "*" - - "1" Country : placed in >

Place "1" - - "1" PlaceLocation : located at >

Ship "1"- - -"1..*" Containers : transport >
Ship "0..*"- -"1" Ports: dock >
Ship "1" - - "1..*" ShipLocation : has >

Employee "1" - - - "1..*" ShipLocation : controls >
Employee "1" - - "1" User : relates to >
Employee "1" - - - "1..*" Ports : controls >
Employee "1..*" - - - - - - "1" Warehouse : works >
Employee "1..*" - - "1" Ship : works > 

Truck "1"- -"1..*" Containers : transport >
Truck "0..*"- -"1" Warehouse: park >

User "1..*" - - "1" System : uses >
User "1" - - "1..*" Role : has >

Warehouse "1" - - "1" PlaceLocation : located at >
FreightNetwork "1" - - "1..*" Place : related with

Ports "2"- -"*" Seadist: has a


@enduml

@startuml

hide methods
left to right direction
skinparam classAttributeIconSize 0

class Company {
-designation
}

class Employee {
-name
}

class Containers {
-x
-y
-z
-containerNumber
-checkDigit
-isoCode
-payLoad
-tare
-gross
-weight
}

class CargoManifest {
-listOfContainers
-ratio
-date
-mmsiCode
-id
-numberOfContainers
-destination
}

class Ship {
-mmsiCode
-imoCode
-numberEnergyGenerators
-generatorPower
-callSign
-draft
-name
-vesselTypeId
-length
-width
-capacity
}



class Ports {
-identification
-name
}

class Truck {

}

class Warehouse {
-identification
-name
-capacity
-occupancy
}

class Country {
-name
-continent
}

class PlaceLocation {
-latitude
-longitude
}

class ShipLocation {
-baseDateTime
-latitude
-longitude
-sog
-cog
-heading
-position
-transceiver
}

class User{
-username
-password
}

class Role{
-designation
}

class Capital{
-name
}

class Place {

}

class Border {
-countryName1
-countryName2
}

class FreightNetwork {
}

class Seadist {
-portId1
-portId2
-seaDistance
-portName1
-portName2
-countryName1
-countryName2
}

CargoManifest "*" - - "1" Ports : delivered at >
CargoManifest "*" - - "1" Warehouse : delivered at >

Company "1"- -"1..*" Ship: own >
Company "1" - "1..*" System : has >
Company "1"- -"1..*" Employee: have >
Company "1"- -"1..*" Truck: own >
Company "1"- -"1..*" Ports: have >
Company "1"- -"1" FreightNetwork: have >

Containers "1..*"- -"1..*" CargoManifest: related to >
Containers "0..*"- -"1" Ports: store >
Containers "0..*"- -"1" Warehouse: store >

Country "2" - - "*" Border : has a >

Place <|- - Ports
Place <|- - Capital

PlaceLocation "*" - - "1" Country : placed in >

Place "1" - - "1" PlaceLocation : located at >

Ship "1"- - -"1..*" Containers : transport >
Ship "0..*"- -"1" Ports: dock >
Ship "1" - - "1..*" ShipLocation : has >

Employee "1" - - - "1..*" ShipLocation : controls >
Employee "1" - - "1" User : relates to >
Employee "1" - - - "1..*" Ports : controls >
Employee "1..*" - - - - - - "1" Warehouse : works >
Employee "1..*" - - "1" Ship : works > 

Truck "1"- -"1..*" Containers : transport >
Truck "0..*"- -"1" Warehouse: park >

User "1..*" - - "1" System : uses >
User "1" - - "1..*" Role : has >

Warehouse "1" - - "1" PlaceLocation : located at >
FreightNetwork "1" - - "1..*" Place : related with

Ports "2"- -"*" Seadist: has a


@enduml

PlantUML version 1.2021.16(Wed Dec 08 17:25:22 GMT 2021)
(GPL source distribution)
Java Runtime: OpenJDK Runtime Environment
JVM: OpenJDK 64-Bit Server VM
Default Encoding: Cp1252
Language: pt
Country: BR
--></g></svg>