<?xml version="1.0" encoding="UTF-8" standalone="no"?><svg xmlns="http://www.w3.org/2000/svg" xmlns:xlink="http://www.w3.org/1999/xlink" contentScriptType="application/ecmascript" contentStyleType="text/css" height="638px" preserveAspectRatio="none" style="width:447px;height:638px;background:#FFFFFF;" version="1.1" viewBox="0 0 447 638" width="447px" zoomAndPan="magnify"><defs><filter height="300%" id="f6zcsvo4dq3xx" width="300%" x="-1" y="-1"><feGaussianBlur result="blurOut" stdDeviation="2.0"/><feColorMatrix in="blurOut" result="blurOut2" type="matrix" values="0 0 0 0 0 0 0 0 0 0 0 0 0 0 0 0 0 0 .4 0"/><feOffset dx="4.0" dy="4.0" in="blurOut2" result="blurOut3"/><feBlend in="SourceGraphic" in2="blurOut3" mode="normal"/></filter></defs><g><!--MD5=[a3093aa9f96b7df9aab31d8715601ff6]
class Containers--><rect codeLine="3" fill="#FEFECE" filter="url(#f6zcsvo4dq3xx)" height="186.3594" id="Containers" style="stroke:#A80036;stroke-width:1.5;" width="108" x="83" y="7"/><ellipse cx="104.75" cy="23" fill="#ADD1B2" rx="11" ry="11" style="stroke:#A80036;stroke-width:1.0;"/><path d="M106.75,19.5 Q106.9531,19 107.1875,18.75 Q107.4219,18.5 107.6875,18.5 Q108.1563,18.5 108.4531,18.7813 Q108.75,19.0625 108.75,19.7188 L108.75,21.2813 Q108.75,21.9375 108.4688,22.2188 Q108.1875,22.5 107.75,22.5 Q107.3594,22.5 107.1094,22.3281 Q106.8594,22.1563 106.75,21.7031 Q106.7031,21.3906 106.5313,21.2188 Q106.2188,20.8906 105.6563,20.7031 Q105.0938,20.5 104.5313,20.5 Q103.8281,20.5 103.2344,20.7813 Q102.6563,21.0625 102.2031,21.6875 Q101.75,22.3125 101.75,23.1719 L101.75,24.0938 Q101.75,25.125 102.5938,25.8125 Q103.4375,26.5 104.9375,26.5 Q105.8281,26.5 106.4531,26.2969 Q106.8125,26.1875 107.2188,25.8281 Q107.4844,25.625 107.625,25.5625 Q107.7656,25.5 107.9375,25.5 Q108.2656,25.5 108.5,25.7656 Q108.75,26.0156 108.75,26.375 Q108.75,26.7188 108.4063,27.125 Q107.9063,27.7188 107.1094,28.0469 Q106.0625,28.5 104.7813,28.5 Q103.2813,28.5 102.0781,27.9063 Q101.1094,27.4375 100.4219,26.4219 Q99.75,25.4063 99.75,24.2031 L99.75,23.1094 Q99.75,21.8594 100.3438,20.7656 Q100.9531,19.6719 102,19.0938 Q103.0625,18.5 104.25,18.5 Q104.9688,18.5 105.5938,18.75 Q106.2188,19 106.75,19.5 Z " fill="#000000"/><text fill="#000000" font-family="sans-serif" font-size="12" lengthAdjust="spacing" textLength="61" x="120.25" y="27.9102">Containers</text><line style="stroke:#A80036;stroke-width:1.5;" x1="84" x2="190" y1="39" y2="39"/><text fill="#000000" font-family="sans-serif" font-size="11" lengthAdjust="spacing" textLength="10" x="103" y="54.4189">-x</text><text fill="#000000" font-family="sans-serif" font-size="11" lengthAdjust="spacing" textLength="10" x="103" y="68.2549">-y</text><text fill="#000000" font-family="sans-serif" font-size="11" lengthAdjust="spacing" textLength="10" x="103" y="82.0908">-z</text><rect fill="none" height="6" style="stroke:#C82930;stroke-width:1.0;" width="6" x="91" y="88.5078"/><text fill="#000000" font-family="sans-serif" font-size="11" lengthAdjust="spacing" textLength="82" x="103" y="95.9268">containerNumber</text><rect fill="none" height="6" style="stroke:#C82930;stroke-width:1.0;" width="6" x="91" y="102.3438"/><text fill="#000000" font-family="sans-serif" font-size="11" lengthAdjust="spacing" textLength="49" x="103" y="109.7627">checkDigit</text><rect fill="none" height="6" style="stroke:#C82930;stroke-width:1.0;" width="6" x="91" y="116.1797"/><text fill="#000000" font-family="sans-serif" font-size="11" lengthAdjust="spacing" textLength="39" x="103" y="123.5986">isoCode</text><rect fill="none" height="6" style="stroke:#C82930;stroke-width:1.0;" width="6" x="91" y="130.0156"/><text fill="#000000" font-family="sans-serif" font-size="11" lengthAdjust="spacing" textLength="42" x="103" y="137.4346">payLoad</text><rect fill="none" height="6" style="stroke:#C82930;stroke-width:1.0;" width="6" x="91" y="143.8516"/><text fill="#000000" font-family="sans-serif" font-size="11" lengthAdjust="spacing" textLength="19" x="103" y="151.2705">tare</text><rect fill="none" height="6" style="stroke:#C82930;stroke-width:1.0;" width="6" x="91" y="157.6875"/><text fill="#000000" font-family="sans-serif" font-size="11" lengthAdjust="spacing" textLength="28" x="103" y="165.1064">gross</text><rect fill="none" height="6" style="stroke:#C82930;stroke-width:1.0;" width="6" x="91" y="171.5234"/><text fill="#000000" font-family="sans-serif" font-size="11" lengthAdjust="spacing" textLength="33" x="103" y="178.9424">weight</text><line style="stroke:#A80036;stroke-width:1.5;" x1="84" x2="190" y1="185.3594" y2="185.3594"/><!--MD5=[76562047389981627aea27c31a97aff5]
class CargoManifest--><rect codeLine="16" fill="#FEFECE" filter="url(#f6zcsvo4dq3xx)" height="144.8516" id="CargoManifest" style="stroke:#A80036;stroke-width:1.5;" width="126" x="7" y="298.5"/><ellipse cx="28.3" cy="314.5" fill="#ADD1B2" rx="11" ry="11" style="stroke:#A80036;stroke-width:1.0;"/><path d="M30.3,311 Q30.5031,310.5 30.7375,310.25 Q30.9719,310 31.2375,310 Q31.7063,310 32.0031,310.2813 Q32.3,310.5625 32.3,311.2188 L32.3,312.7813 Q32.3,313.4375 32.0188,313.7188 Q31.7375,314 31.3,314 Q30.9094,314 30.6594,313.8281 Q30.4094,313.6563 30.3,313.2031 Q30.2531,312.8906 30.0813,312.7188 Q29.7688,312.3906 29.2063,312.2031 Q28.6438,312 28.0813,312 Q27.3781,312 26.7844,312.2813 Q26.2063,312.5625 25.7531,313.1875 Q25.3,313.8125 25.3,314.6719 L25.3,315.5938 Q25.3,316.625 26.1438,317.3125 Q26.9875,318 28.4875,318 Q29.3781,318 30.0031,317.7969 Q30.3625,317.6875 30.7688,317.3281 Q31.0344,317.125 31.175,317.0625 Q31.3156,317 31.4875,317 Q31.8156,317 32.05,317.2656 Q32.3,317.5156 32.3,317.875 Q32.3,318.2188 31.9563,318.625 Q31.4563,319.2188 30.6594,319.5469 Q29.6125,320 28.3313,320 Q26.8313,320 25.6281,319.4063 Q24.6594,318.9375 23.9719,317.9219 Q23.3,316.9063 23.3,315.7031 L23.3,314.6094 Q23.3,313.3594 23.8938,312.2656 Q24.5031,311.1719 25.55,310.5938 Q26.6125,310 27.8,310 Q28.5188,310 29.1438,310.25 Q29.7688,310.5 30.3,311 Z " fill="#000000"/><text fill="#000000" font-family="sans-serif" font-size="12" lengthAdjust="spacing" textLength="80" x="43.7" y="319.4102">CargoManifest</text><line style="stroke:#A80036;stroke-width:1.5;" x1="8" x2="132" y1="330.5" y2="330.5"/><rect fill="none" height="6" style="stroke:#C82930;stroke-width:1.0;" width="6" x="15" y="338.5"/><text fill="#000000" font-family="sans-serif" font-size="11" lengthAdjust="spacing" textLength="77" x="27" y="345.9189">listOfContainers</text><rect fill="none" height="6" style="stroke:#C82930;stroke-width:1.0;" width="6" x="15" y="352.3359"/><text fill="#000000" font-family="sans-serif" font-size="11" lengthAdjust="spacing" textLength="21" x="27" y="359.7549">ratio</text><rect fill="none" height="6" style="stroke:#C82930;stroke-width:1.0;" width="6" x="15" y="366.1719"/><text fill="#000000" font-family="sans-serif" font-size="11" lengthAdjust="spacing" textLength="21" x="27" y="373.5908">date</text><rect fill="none" height="6" style="stroke:#C82930;stroke-width:1.0;" width="6" x="15" y="380.0078"/><text fill="#000000" font-family="sans-serif" font-size="11" lengthAdjust="spacing" textLength="49" x="27" y="387.4268">mmsiCode</text><rect fill="none" height="6" style="stroke:#C82930;stroke-width:1.0;" width="6" x="15" y="393.8438"/><text fill="#000000" font-family="sans-serif" font-size="11" lengthAdjust="spacing" textLength="8" x="27" y="401.2627">id</text><rect fill="none" height="6" style="stroke:#C82930;stroke-width:1.0;" width="6" x="15" y="407.6797"/><text fill="#000000" font-family="sans-serif" font-size="11" lengthAdjust="spacing" textLength="100" x="27" y="415.0986">numberOfContainers</text><rect fill="none" height="6" style="stroke:#C82930;stroke-width:1.0;" width="6" x="15" y="421.5156"/><text fill="#000000" font-family="sans-serif" font-size="11" lengthAdjust="spacing" textLength="52" x="27" y="428.9346">destination</text><line style="stroke:#A80036;stroke-width:1.5;" x1="8" x2="132" y1="435.3516" y2="435.3516"/><!--MD5=[ea13aecf8df941b18fb8e3885c78c184]
class Ports--><rect codeLine="27" fill="#FEFECE" filter="url(#f6zcsvo4dq3xx)" height="75.6719" id="Ports" style="stroke:#A80036;stroke-width:1.5;" width="86" x="160" y="549"/><ellipse cx="186.25" cy="565" fill="#ADD1B2" rx="11" ry="11" style="stroke:#A80036;stroke-width:1.0;"/><path d="M188.25,561.5 Q188.4531,561 188.6875,560.75 Q188.9219,560.5 189.1875,560.5 Q189.6563,560.5 189.9531,560.7813 Q190.25,561.0625 190.25,561.7188 L190.25,563.2813 Q190.25,563.9375 189.9688,564.2188 Q189.6875,564.5 189.25,564.5 Q188.8594,564.5 188.6094,564.3281 Q188.3594,564.1563 188.25,563.7031 Q188.2031,563.3906 188.0313,563.2188 Q187.7188,562.8906 187.1563,562.7031 Q186.5938,562.5 186.0313,562.5 Q185.3281,562.5 184.7344,562.7813 Q184.1563,563.0625 183.7031,563.6875 Q183.25,564.3125 183.25,565.1719 L183.25,566.0938 Q183.25,567.125 184.0938,567.8125 Q184.9375,568.5 186.4375,568.5 Q187.3281,568.5 187.9531,568.2969 Q188.3125,568.1875 188.7188,567.8281 Q188.9844,567.625 189.125,567.5625 Q189.2656,567.5 189.4375,567.5 Q189.7656,567.5 190,567.7656 Q190.25,568.0156 190.25,568.375 Q190.25,568.7188 189.9063,569.125 Q189.4063,569.7188 188.6094,570.0469 Q187.5625,570.5 186.2813,570.5 Q184.7813,570.5 183.5781,569.9063 Q182.6094,569.4375 181.9219,568.4219 Q181.25,567.4063 181.25,566.2031 L181.25,565.1094 Q181.25,563.8594 181.8438,562.7656 Q182.4531,561.6719 183.5,561.0938 Q184.5625,560.5 185.75,560.5 Q186.4688,560.5 187.0938,560.75 Q187.7188,561 188.25,561.5 Z " fill="#000000"/><text fill="#000000" font-family="sans-serif" font-size="12" lengthAdjust="spacing" textLength="29" x="202.75" y="569.9102">Ports</text><line style="stroke:#A80036;stroke-width:1.5;" x1="161" x2="245" y1="581" y2="581"/><rect fill="none" height="6" style="stroke:#C82930;stroke-width:1.0;" width="6" x="168" y="589"/><text fill="#000000" font-family="sans-serif" font-size="11" lengthAdjust="spacing" textLength="60" x="180" y="596.4189">identification</text><rect fill="none" height="6" style="stroke:#C82930;stroke-width:1.0;" width="6" x="168" y="602.8359"/><text fill="#000000" font-family="sans-serif" font-size="11" lengthAdjust="spacing" textLength="26" x="180" y="610.2549">name</text><line style="stroke:#A80036;stroke-width:1.5;" x1="161" x2="245" y1="616.6719" y2="616.6719"/><!--MD5=[0dc7f2ddb409b58bcf52b12238c25399]
class Ship--><rect codeLine="32" fill="#FEFECE" filter="url(#f6zcsvo4dq3xx)" height="200.1953" id="Ship" style="stroke:#A80036;stroke-width:1.5;" width="151" x="282.5" y="271"/><ellipse cx="341.25" cy="287" fill="#ADD1B2" rx="11" ry="11" style="stroke:#A80036;stroke-width:1.0;"/><path d="M343.25,283.5 Q343.4531,283 343.6875,282.75 Q343.9219,282.5 344.1875,282.5 Q344.6563,282.5 344.9531,282.7813 Q345.25,283.0625 345.25,283.7188 L345.25,285.2813 Q345.25,285.9375 344.9688,286.2188 Q344.6875,286.5 344.25,286.5 Q343.8594,286.5 343.6094,286.3281 Q343.3594,286.1563 343.25,285.7031 Q343.2031,285.3906 343.0313,285.2188 Q342.7188,284.8906 342.1563,284.7031 Q341.5938,284.5 341.0313,284.5 Q340.3281,284.5 339.7344,284.7813 Q339.1563,285.0625 338.7031,285.6875 Q338.25,286.3125 338.25,287.1719 L338.25,288.0938 Q338.25,289.125 339.0938,289.8125 Q339.9375,290.5 341.4375,290.5 Q342.3281,290.5 342.9531,290.2969 Q343.3125,290.1875 343.7188,289.8281 Q343.9844,289.625 344.125,289.5625 Q344.2656,289.5 344.4375,289.5 Q344.7656,289.5 345,289.7656 Q345.25,290.0156 345.25,290.375 Q345.25,290.7188 344.9063,291.125 Q344.4063,291.7188 343.6094,292.0469 Q342.5625,292.5 341.2813,292.5 Q339.7813,292.5 338.5781,291.9063 Q337.6094,291.4375 336.9219,290.4219 Q336.25,289.4063 336.25,288.2031 L336.25,287.1094 Q336.25,285.8594 336.8438,284.7656 Q337.4531,283.6719 338.5,283.0938 Q339.5625,282.5 340.75,282.5 Q341.4688,282.5 342.0938,282.75 Q342.7188,283 343.25,283.5 Z " fill="#000000"/><text fill="#000000" font-family="sans-serif" font-size="12" lengthAdjust="spacing" textLength="25" x="361.75" y="291.9102">Ship</text><line style="stroke:#A80036;stroke-width:1.5;" x1="283.5" x2="432.5" y1="303" y2="303"/><rect fill="none" height="6" style="stroke:#C82930;stroke-width:1.0;" width="6" x="290.5" y="311"/><text fill="#000000" font-family="sans-serif" font-size="11" lengthAdjust="spacing" textLength="49" x="302.5" y="318.4189">mmsiCode</text><rect fill="none" height="6" style="stroke:#C82930;stroke-width:1.0;" width="6" x="290.5" y="324.8359"/><text fill="#000000" font-family="sans-serif" font-size="11" lengthAdjust="spacing" textLength="41" x="302.5" y="332.2549">imoCode</text><rect fill="none" height="6" style="stroke:#C82930;stroke-width:1.0;" width="6" x="290.5" y="338.6719"/><text fill="#000000" font-family="sans-serif" font-size="11" lengthAdjust="spacing" textLength="125" x="302.5" y="346.0908">numberEnergyGenerators</text><rect fill="none" height="6" style="stroke:#C82930;stroke-width:1.0;" width="6" x="290.5" y="352.5078"/><text fill="#000000" font-family="sans-serif" font-size="11" lengthAdjust="spacing" textLength="79" x="302.5" y="359.9268">generatorPower</text><rect fill="none" height="6" style="stroke:#C82930;stroke-width:1.0;" width="6" x="290.5" y="366.3438"/><text fill="#000000" font-family="sans-serif" font-size="11" lengthAdjust="spacing" textLength="37" x="302.5" y="373.7627">callSign</text><rect fill="none" height="6" style="stroke:#C82930;stroke-width:1.0;" width="6" x="290.5" y="380.1797"/><text fill="#000000" font-family="sans-serif" font-size="11" lengthAdjust="spacing" textLength="23" x="302.5" y="387.5986">draft</text><rect fill="none" height="6" style="stroke:#C82930;stroke-width:1.0;" width="6" x="290.5" y="394.0156"/><text fill="#000000" font-family="sans-serif" font-size="11" lengthAdjust="spacing" textLength="26" x="302.5" y="401.4346">name</text><rect fill="none" height="6" style="stroke:#C82930;stroke-width:1.0;" width="6" x="290.5" y="407.8516"/><text fill="#000000" font-family="sans-serif" font-size="11" lengthAdjust="spacing" textLength="64" x="302.5" y="415.2705">vesselTypeId</text><rect fill="none" height="6" style="stroke:#C82930;stroke-width:1.0;" width="6" x="290.5" y="421.6875"/><text fill="#000000" font-family="sans-serif" font-size="11" lengthAdjust="spacing" textLength="29" x="302.5" y="429.1064">length</text><rect fill="none" height="6" style="stroke:#C82930;stroke-width:1.0;" width="6" x="290.5" y="435.5234"/><text fill="#000000" font-family="sans-serif" font-size="11" lengthAdjust="spacing" textLength="27" x="302.5" y="442.9424">width</text><rect fill="none" height="6" style="stroke:#C82930;stroke-width:1.0;" width="6" x="290.5" y="449.3594"/><text fill="#000000" font-family="sans-serif" font-size="11" lengthAdjust="spacing" textLength="41" x="302.5" y="456.7783">capacity</text><line style="stroke:#A80036;stroke-width:1.5;" x1="283.5" x2="432.5" y1="463.1953" y2="463.1953"/><!--MD5=[d729e47c8b99010fceb84b610067730f]
link CargoManifest to Ports--><path codeLine="46" d="M71.47,443.78 C74.88,469.28 82.18,497.07 97,519 C112.18,541.46 137.66,557.92 159.84,568.9 " fill="none" id="CargoManifest-Ports" style="stroke:#A80036;stroke-width:1.0;"/><polygon fill="#000000" points="104.8845,514.2599,102.0669,505.1762,97.2658,508.5672,104.8845,514.2599" style="stroke:#000000;stroke-width:1.0;"/><text fill="#000000" font-family="sans-serif" font-size="13" lengthAdjust="spacing" textLength="65" x="111" y="515.4951">delivered at</text><text fill="#000000" font-family="sans-serif" font-size="13" lengthAdjust="spacing" textLength="5" x="66.375" y="464.7451">*</text><text fill="#000000" font-family="sans-serif" font-size="13" lengthAdjust="spacing" textLength="7" x="145.1119" y="562.1286">1</text><!--MD5=[a27713cdd7694cea32c8be89a3131559]
link Containers to CargoManifest--><path codeLine="47" d="M114.04,193.2 C105.47,227.57 95.89,266.05 87.86,298.31 " fill="none" id="Containers-CargoManifest" style="stroke:#A80036;stroke-width:1.0;"/><polygon fill="#000000" points="109.7916,237.0276,114.8294,228.9609,109.1259,227.5403,109.7916,237.0276" style="stroke:#000000;stroke-width:1.0;"/><text fill="#000000" font-family="sans-serif" font-size="13" lengthAdjust="spacing" textLength="54" x="120" y="237.4951">related to</text><text fill="#000000" font-family="sans-serif" font-size="13" lengthAdjust="spacing" textLength="20" x="91.4135" y="214.7592">1..*</text><text fill="#000000" font-family="sans-serif" font-size="13" lengthAdjust="spacing" textLength="20" x="68.6706" y="287.5097">1..*</text><!--MD5=[c7fc6f07f2489647d2a3f83969f89660]
link Containers to Ports--><path codeLine="48" d="M173.33,193.13 C176.33,203.1 178.98,213.19 181,223 C205.16,340.18 205.61,482.78 204.21,548.96 " fill="none" id="Containers-Ports" style="stroke:#A80036;stroke-width:1.0;"/><polygon fill="#000000" points="209.4323,376.1571,211.5782,366.8917,205.7223,367.3999,209.4323,376.1571" style="stroke:#000000;stroke-width:1.0;"/><text fill="#000000" font-family="sans-serif" font-size="13" lengthAdjust="spacing" textLength="29" x="218" y="376.4951">store</text><text fill="#000000" font-family="sans-serif" font-size="13" lengthAdjust="spacing" textLength="20" x="155.5105" y="214.9996">0..*</text><text fill="#000000" font-family="sans-serif" font-size="13" lengthAdjust="spacing" textLength="7" x="196.7878" y="538.0292">1</text><!--MD5=[b5e7d3b323f2cd13b2215620f50e65f3]
link Ship to Ports--><path codeLine="49" d="M286.17,471.17 C266.14,498.83 245.59,527.19 229.94,548.81 " fill="none" id="Ship-Ports" style="stroke:#A80036;stroke-width:1.0;"/><polygon fill="#000000" points="264.0672,514.2253,271.7529,508.6235,266.9925,505.1758,264.0672,514.2253" style="stroke:#000000;stroke-width:1.0;"/><text fill="#000000" font-family="sans-serif" font-size="13" lengthAdjust="spacing" textLength="28" x="276" y="515.4951">dock</text><text fill="#000000" font-family="sans-serif" font-size="13" lengthAdjust="spacing" textLength="20" x="260.1606" y="492.6146">0..*</text><text fill="#000000" font-family="sans-serif" font-size="13" lengthAdjust="spacing" textLength="7" x="227.1153" y="538.1381">1</text><!--MD5=[0cb4f18e769722d2faf4dbc306571aa2]
@startuml
'https://plantuml.com/sequence-diagram

class Containers {
-x
-y
-z
-containerNumber
-checkDigit
-isoCode
-payLoad
-tare
-gross
-weight
}

class CargoManifest {
-listOfContainers
-ratio
-date
-mmsiCode
-id
-numberOfContainers
-destination
}


class Ports {
-identification
-name
}

class Ship {
-mmsiCode
-imoCode
-numberEnergyGenerators
-generatorPower
-callSign
-draft
-name
-vesselTypeId
-length
-width
-capacity
}

CargoManifest "*" - - "1" Ports : delivered at >
Containers "1..*"- -"1..*" CargoManifest: related to >
Containers "0..*"- -"1" Ports: store >
Ship "0..*"- -"1" Ports: dock >

@enduml

@startuml

class Containers {
-x
-y
-z
-containerNumber
-checkDigit
-isoCode
-payLoad
-tare
-gross
-weight
}

class CargoManifest {
-listOfContainers
-ratio
-date
-mmsiCode
-id
-numberOfContainers
-destination
}


class Ports {
-identification
-name
}

class Ship {
-mmsiCode
-imoCode
-numberEnergyGenerators
-generatorPower
-callSign
-draft
-name
-vesselTypeId
-length
-width
-capacity
}

CargoManifest "*" - - "1" Ports : delivered at >
Containers "1..*"- -"1..*" CargoManifest: related to >
Containers "0..*"- -"1" Ports: store >
Ship "0..*"- -"1" Ports: dock >

@enduml

PlantUML version 1.2021.16(Wed Dec 08 17:25:22 GMT 2021)
(GPL source distribution)
Java Runtime: OpenJDK Runtime Environment
JVM: OpenJDK 64-Bit Server VM
Default Encoding: Cp1252
Language: pt
Country: BR
--></g></svg>