<?xml version="1.0" encoding="UTF-8" standalone="no"?><svg xmlns="http://www.w3.org/2000/svg" xmlns:xlink="http://www.w3.org/1999/xlink" contentScriptType="application/ecmascript" contentStyleType="text/css" height="345px" preserveAspectRatio="none" style="width:426px;height:345px;background:#FFFFFF;" version="1.1" viewBox="0 0 426 345" width="426px" zoomAndPan="magnify"><defs><filter height="300%" id="fiehn9fotcr6c" width="300%" x="-1" y="-1"><feGaussianBlur result="blurOut" stdDeviation="2.0"/><feColorMatrix in="blurOut" result="blurOut2" type="matrix" values="0 0 0 0 0 0 0 0 0 0 0 0 0 0 0 0 0 0 .4 0"/><feOffset dx="4.0" dy="4.0" in="blurOut2" result="blurOut3"/><feBlend in="SourceGraphic" in2="blurOut3" mode="normal"/></filter></defs><g><!--MD5=[a40de29aaed3940b35cb1f6558baa15e]
class MapOfOccupancyMonthlyUi--><rect codeLine="3" fill="#FEFECE" filter="url(#fiehn9fotcr6c)" height="48" id="MapOfOccupancyMonthlyUi" style="stroke:#A80036;stroke-width:1.5;" width="180" x="28" y="7"/><ellipse cx="43" cy="23" fill="#ADD1B2" rx="11" ry="11" style="stroke:#A80036;stroke-width:1.0;"/><path d="M45,19.5 Q45.2031,19 45.4375,18.75 Q45.6719,18.5 45.9375,18.5 Q46.4063,18.5 46.7031,18.7813 Q47,19.0625 47,19.7188 L47,21.2813 Q47,21.9375 46.7188,22.2188 Q46.4375,22.5 46,22.5 Q45.6094,22.5 45.3594,22.3281 Q45.1094,22.1563 45,21.7031 Q44.9531,21.3906 44.7813,21.2188 Q44.4688,20.8906 43.9063,20.7031 Q43.3438,20.5 42.7813,20.5 Q42.0781,20.5 41.4844,20.7813 Q40.9063,21.0625 40.4531,21.6875 Q40,22.3125 40,23.1719 L40,24.0938 Q40,25.125 40.8438,25.8125 Q41.6875,26.5 43.1875,26.5 Q44.0781,26.5 44.7031,26.2969 Q45.0625,26.1875 45.4688,25.8281 Q45.7344,25.625 45.875,25.5625 Q46.0156,25.5 46.1875,25.5 Q46.5156,25.5 46.75,25.7656 Q47,26.0156 47,26.375 Q47,26.7188 46.6563,27.125 Q46.1563,27.7188 45.3594,28.0469 Q44.3125,28.5 43.0313,28.5 Q41.5313,28.5 40.3281,27.9063 Q39.3594,27.4375 38.6719,26.4219 Q38,25.4063 38,24.2031 L38,23.1094 Q38,21.8594 38.5938,20.7656 Q39.2031,19.6719 40.25,19.0938 Q41.3125,18.5 42.5,18.5 Q43.2188,18.5 43.8438,18.75 Q44.4688,19 45,19.5 Z " fill="#000000"/><text fill="#000000" font-family="sans-serif" font-size="12" lengthAdjust="spacing" textLength="148" x="57" y="27.9102">MapOfOccupancyMonthlyUi</text><line style="stroke:#A80036;stroke-width:1.5;" x1="29" x2="207" y1="39" y2="39"/><line style="stroke:#A80036;stroke-width:1.5;" x1="29" x2="207" y1="47" y2="47"/><!--MD5=[8ad3d8b3f876a0d812f3cc2e92b1fbe3]
class MapOfOccupancyMonthlyController--><rect codeLine="7" fill="#FEFECE" filter="url(#fiehn9fotcr6c)" height="61.8359" id="MapOfOccupancyMonthlyController" style="stroke:#A80036;stroke-width:1.5;" width="222" x="7" y="123"/><ellipse cx="22" cy="139" fill="#ADD1B2" rx="11" ry="11" style="stroke:#A80036;stroke-width:1.0;"/><path d="M24,135.5 Q24.2031,135 24.4375,134.75 Q24.6719,134.5 24.9375,134.5 Q25.4063,134.5 25.7031,134.7813 Q26,135.0625 26,135.7188 L26,137.2813 Q26,137.9375 25.7188,138.2188 Q25.4375,138.5 25,138.5 Q24.6094,138.5 24.3594,138.3281 Q24.1094,138.1563 24,137.7031 Q23.9531,137.3906 23.7813,137.2188 Q23.4688,136.8906 22.9063,136.7031 Q22.3438,136.5 21.7813,136.5 Q21.0781,136.5 20.4844,136.7813 Q19.9063,137.0625 19.4531,137.6875 Q19,138.3125 19,139.1719 L19,140.0938 Q19,141.125 19.8438,141.8125 Q20.6875,142.5 22.1875,142.5 Q23.0781,142.5 23.7031,142.2969 Q24.0625,142.1875 24.4688,141.8281 Q24.7344,141.625 24.875,141.5625 Q25.0156,141.5 25.1875,141.5 Q25.5156,141.5 25.75,141.7656 Q26,142.0156 26,142.375 Q26,142.7188 25.6563,143.125 Q25.1563,143.7188 24.3594,144.0469 Q23.3125,144.5 22.0313,144.5 Q20.5313,144.5 19.3281,143.9063 Q18.3594,143.4375 17.6719,142.4219 Q17,141.4063 17,140.2031 L17,139.1094 Q17,137.8594 17.5938,136.7656 Q18.2031,135.6719 19.25,135.0938 Q20.3125,134.5 21.5,134.5 Q22.2188,134.5 22.8438,134.75 Q23.4688,135 24,135.5 Z " fill="#000000"/><text fill="#000000" font-family="sans-serif" font-size="12" lengthAdjust="spacing" textLength="190" x="36" y="143.9102">MapOfOccupancyMonthlyController</text><line style="stroke:#A80036;stroke-width:1.5;" x1="8" x2="228" y1="155" y2="155"/><line style="stroke:#A80036;stroke-width:1.5;" x1="8" x2="228" y1="163" y2="163"/><ellipse cx="18" cy="174" fill="#84BE84" rx="3" ry="3" style="stroke:#038048;stroke-width:1.0;"/><text fill="#000000" font-family="sans-serif" font-size="11" lengthAdjust="spacing" textLength="71" x="27" y="178.4189">createUS310()</text><!--MD5=[7ac44eb4ae8358365d7be5a38e2af634]
class US310--><rect codeLine="12" fill="#FEFECE" filter="url(#fiehn9fotcr6c)" height="75.6719" id="US310" style="stroke:#A80036;stroke-width:1.5;" width="71" x="264.5" y="116"/><ellipse cx="279.95" cy="132" fill="#ADD1B2" rx="11" ry="11" style="stroke:#A80036;stroke-width:1.0;"/><path d="M281.95,128.5 Q282.1531,128 282.3875,127.75 Q282.6219,127.5 282.8875,127.5 Q283.3563,127.5 283.6531,127.7813 Q283.95,128.0625 283.95,128.7188 L283.95,130.2813 Q283.95,130.9375 283.6688,131.2188 Q283.3875,131.5 282.95,131.5 Q282.5594,131.5 282.3094,131.3281 Q282.0594,131.1563 281.95,130.7031 Q281.9031,130.3906 281.7313,130.2188 Q281.4188,129.8906 280.8563,129.7031 Q280.2938,129.5 279.7313,129.5 Q279.0281,129.5 278.4344,129.7813 Q277.8563,130.0625 277.4031,130.6875 Q276.95,131.3125 276.95,132.1719 L276.95,133.0938 Q276.95,134.125 277.7938,134.8125 Q278.6375,135.5 280.1375,135.5 Q281.0281,135.5 281.6531,135.2969 Q282.0125,135.1875 282.4188,134.8281 Q282.6844,134.625 282.825,134.5625 Q282.9656,134.5 283.1375,134.5 Q283.4656,134.5 283.7,134.7656 Q283.95,135.0156 283.95,135.375 Q283.95,135.7188 283.6063,136.125 Q283.1063,136.7188 282.3094,137.0469 Q281.2625,137.5 279.9813,137.5 Q278.4813,137.5 277.2781,136.9063 Q276.3094,136.4375 275.6219,135.4219 Q274.95,134.4063 274.95,133.2031 L274.95,132.1094 Q274.95,130.8594 275.5438,129.7656 Q276.1531,128.6719 277.2,128.0938 Q278.2625,127.5 279.45,127.5 Q280.1688,127.5 280.7938,127.75 Q281.4188,128 281.95,128.5 Z " fill="#000000"/><text fill="#000000" font-family="sans-serif" font-size="12" lengthAdjust="spacing" textLength="38" x="294.05" y="136.9102">US310</text><line style="stroke:#A80036;stroke-width:1.5;" x1="265.5" x2="334.5" y1="148" y2="148"/><line style="stroke:#A80036;stroke-width:1.5;" x1="265.5" x2="334.5" y1="156" y2="156"/><rect fill="#F24D5C" height="6" style="stroke:#C82930;stroke-width:1.0;" width="6" x="272.5" y="164"/><text fill="#000000" font-family="sans-serif" font-size="11" lengthAdjust="spacing" textLength="45" x="284.5" y="171.4189">initialize()</text><ellipse cx="275.5" cy="180.8359" fill="#84BE84" rx="3" ry="3" style="stroke:#038048;stroke-width:1.0;"/><text fill="#000000" font-family="sans-serif" font-size="11" lengthAdjust="spacing" textLength="45" x="284.5" y="185.2549">toString()</text><!--MD5=[c4c1f95cf25890b8d906953e22c853cc]
class WriteForAFile--><rect codeLine="18" fill="#FEFECE" filter="url(#fiehn9fotcr6c)" height="61.8359" id="WriteForAFile" style="stroke:#A80036;stroke-width:1.5;" width="225" x="187.5" y="270"/><ellipse cx="259.25" cy="286" fill="#ADD1B2" rx="11" ry="11" style="stroke:#A80036;stroke-width:1.0;"/><path d="M261.25,282.5 Q261.4531,282 261.6875,281.75 Q261.9219,281.5 262.1875,281.5 Q262.6563,281.5 262.9531,281.7813 Q263.25,282.0625 263.25,282.7188 L263.25,284.2813 Q263.25,284.9375 262.9688,285.2188 Q262.6875,285.5 262.25,285.5 Q261.8594,285.5 261.6094,285.3281 Q261.3594,285.1563 261.25,284.7031 Q261.2031,284.3906 261.0313,284.2188 Q260.7188,283.8906 260.1563,283.7031 Q259.5938,283.5 259.0313,283.5 Q258.3281,283.5 257.7344,283.7813 Q257.1563,284.0625 256.7031,284.6875 Q256.25,285.3125 256.25,286.1719 L256.25,287.0938 Q256.25,288.125 257.0938,288.8125 Q257.9375,289.5 259.4375,289.5 Q260.3281,289.5 260.9531,289.2969 Q261.3125,289.1875 261.7188,288.8281 Q261.9844,288.625 262.125,288.5625 Q262.2656,288.5 262.4375,288.5 Q262.7656,288.5 263,288.7656 Q263.25,289.0156 263.25,289.375 Q263.25,289.7188 262.9063,290.125 Q262.4063,290.7188 261.6094,291.0469 Q260.5625,291.5 259.2813,291.5 Q257.7813,291.5 256.5781,290.9063 Q255.6094,290.4375 254.9219,289.4219 Q254.25,288.4063 254.25,287.2031 L254.25,286.1094 Q254.25,284.8594 254.8438,283.7656 Q255.4531,282.6719 256.5,282.0938 Q257.5625,281.5 258.75,281.5 Q259.4688,281.5 260.0938,281.75 Q260.7188,282 261.25,282.5 Z " fill="#000000"/><text fill="#000000" font-family="sans-serif" font-size="12" lengthAdjust="spacing" textLength="73" x="279.75" y="290.9102">WriteForAFile</text><line style="stroke:#A80036;stroke-width:1.5;" x1="188.5" x2="411.5" y1="302" y2="302"/><line style="stroke:#A80036;stroke-width:1.5;" x1="188.5" x2="411.5" y1="310" y2="310"/><ellipse cx="198.5" cy="321" fill="#84BE84" rx="3" ry="3" style="stroke:#038048;stroke-width:1.0;"/><text fill="#000000" font-family="sans-serif" font-size="11" lengthAdjust="spacing" textLength="199" x="207.5" y="325.4189">writeForAFiLe(textualInformation : String)</text><!--MD5=[3c2ececcc6ff58e813df243980a83ae3]
link MapOfOccupancyMonthlyUi to MapOfOccupancyMonthlyController--><path codeLine="24" d="M118,55.04 C118,72.74 118,97.49 118,117.69 " fill="none" id="MapOfOccupancyMonthlyUi-to-MapOfOccupancyMonthlyController" style="stroke:#A80036;stroke-width:1.0;stroke-dasharray:7.0,7.0;"/><polygon fill="#A80036" points="118,122.72,122,113.72,118,117.72,114,113.72,118,122.72" style="stroke:#A80036;stroke-width:1.0;"/><!--MD5=[feb45fd3b850ce1ef64209c924d5e35e]
link MapOfOccupancyMonthlyController to US310--><path codeLine="25" d="M229.26,154 C239.22,154 249.18,154 259.15,154 " fill="none" id="MapOfOccupancyMonthlyController-to-US310" style="stroke:#A80036;stroke-width:1.0;"/><polygon fill="#A80036" points="264.35,154,255.35,150,259.35,154,255.35,158,264.35,154" style="stroke:#A80036;stroke-width:1.0;"/><!--MD5=[afaefd08f5b2f0bde5c8aea43105036f]
link US310 to WriteForAFile--><path codeLine="26" d="M300,192.34 C300,214.56 300,242.59 300,264.48 " fill="none" id="US310-to-WriteForAFile" style="stroke:#A80036;stroke-width:1.0;"/><polygon fill="#A80036" points="300,269.62,304,260.62,300,264.62,296,260.62,300,269.62" style="stroke:#A80036;stroke-width:1.0;"/><text fill="#000000" font-family="sans-serif" font-size="13" lengthAdjust="spacing" textLength="28" x="301" y="236.4951">uses</text><!--MD5=[9fe10065889b2c0f1e607385e91f3c15]
@startuml
'https://plantuml.com/sequence-diagram

class MapOfOccupancyMonthlyUi{

}

class MapOfOccupancyMonthlyController{
+ createUS310()
}


class US310 {
- initialize()
+ toString()

}

class WriteForAFile{
+ writeForAFiLe(textualInformation : String)

}


MapOfOccupancyMonthlyUi ..> MapOfOccupancyMonthlyController
MapOfOccupancyMonthlyController -> US310
US310 - -> WriteForAFile : uses
@enduml

@startuml

class MapOfOccupancyMonthlyUi{

}

class MapOfOccupancyMonthlyController{
+ createUS310()
}


class US310 {
- initialize()
+ toString()

}

class WriteForAFile{
+ writeForAFiLe(textualInformation : String)

}


MapOfOccupancyMonthlyUi ..> MapOfOccupancyMonthlyController
MapOfOccupancyMonthlyController -> US310
US310 - -> WriteForAFile : uses
@enduml

PlantUML version 1.2021.16(Wed Dec 08 17:25:22 GMT 2021)
(GPL source distribution)
Java Runtime: OpenJDK Runtime Environment
JVM: OpenJDK 64-Bit Server VM
Default Encoding: Cp1252
Language: pt
Country: BR
--></g></svg>