<?xml version="1.0" encoding="UTF-8" standalone="no"?><svg xmlns="http://www.w3.org/2000/svg" xmlns:xlink="http://www.w3.org/1999/xlink" contentScriptType="application/ecmascript" contentStyleType="text/css" height="345px" preserveAspectRatio="none" style="width:356px;height:345px;background:#FFFFFF;" version="1.1" viewBox="0 0 356 345" width="356px" zoomAndPan="magnify"><defs><filter height="300%" id="f10ax715cxwz1t" width="300%" x="-1" y="-1"><feGaussianBlur result="blurOut" stdDeviation="2.0"/><feColorMatrix in="blurOut" result="blurOut2" type="matrix" values="0 0 0 0 0 0 0 0 0 0 0 0 0 0 0 0 0 0 .4 0"/><feOffset dx="4.0" dy="4.0" in="blurOut2" result="blurOut3"/><feBlend in="SourceGraphic" in2="blurOut3" mode="normal"/></filter></defs><g><!--MD5=[0befc353b60946c86aec35758305f8b9]
class LoadUI--><rect codeLine="3" fill="#FEFECE" filter="url(#f10ax715cxwz1t)" height="48" id="LoadUI" style="stroke:#A80036;stroke-width:1.5;" width="72" x="44" y="7"/><ellipse cx="59" cy="23" fill="#ADD1B2" rx="11" ry="11" style="stroke:#A80036;stroke-width:1.0;"/><path d="M61,19.5 Q61.2031,19 61.4375,18.75 Q61.6719,18.5 61.9375,18.5 Q62.4063,18.5 62.7031,18.7813 Q63,19.0625 63,19.7188 L63,21.2813 Q63,21.9375 62.7188,22.2188 Q62.4375,22.5 62,22.5 Q61.6094,22.5 61.3594,22.3281 Q61.1094,22.1563 61,21.7031 Q60.9531,21.3906 60.7813,21.2188 Q60.4688,20.8906 59.9063,20.7031 Q59.3438,20.5 58.7813,20.5 Q58.0781,20.5 57.4844,20.7813 Q56.9063,21.0625 56.4531,21.6875 Q56,22.3125 56,23.1719 L56,24.0938 Q56,25.125 56.8438,25.8125 Q57.6875,26.5 59.1875,26.5 Q60.0781,26.5 60.7031,26.2969 Q61.0625,26.1875 61.4688,25.8281 Q61.7344,25.625 61.875,25.5625 Q62.0156,25.5 62.1875,25.5 Q62.5156,25.5 62.75,25.7656 Q63,26.0156 63,26.375 Q63,26.7188 62.6563,27.125 Q62.1563,27.7188 61.3594,28.0469 Q60.3125,28.5 59.0313,28.5 Q57.5313,28.5 56.3281,27.9063 Q55.3594,27.4375 54.6719,26.4219 Q54,25.4063 54,24.2031 L54,23.1094 Q54,21.8594 54.5938,20.7656 Q55.2031,19.6719 56.25,19.0938 Q57.3125,18.5 58.5,18.5 Q59.2188,18.5 59.8438,18.75 Q60.4688,19 61,19.5 Z " fill="#000000"/><text fill="#000000" font-family="sans-serif" font-size="12" lengthAdjust="spacing" textLength="40" x="73" y="27.9102">LoadUI</text><line style="stroke:#A80036;stroke-width:1.5;" x1="45" x2="115" y1="39" y2="39"/><line style="stroke:#A80036;stroke-width:1.5;" x1="45" x2="115" y1="47" y2="47"/><!--MD5=[11b4356b7ee02e046d239819b9189c63]
class LoadController--><rect codeLine="7" fill="#FEFECE" filter="url(#f10ax715cxwz1t)" height="61.8359" id="LoadController" style="stroke:#A80036;stroke-width:1.5;" width="146" x="7" y="123"/><ellipse cx="36.4" cy="139" fill="#ADD1B2" rx="11" ry="11" style="stroke:#A80036;stroke-width:1.0;"/><path d="M38.4,135.5 Q38.6031,135 38.8375,134.75 Q39.0719,134.5 39.3375,134.5 Q39.8063,134.5 40.1031,134.7813 Q40.4,135.0625 40.4,135.7188 L40.4,137.2813 Q40.4,137.9375 40.1188,138.2188 Q39.8375,138.5 39.4,138.5 Q39.0094,138.5 38.7594,138.3281 Q38.5094,138.1563 38.4,137.7031 Q38.3531,137.3906 38.1813,137.2188 Q37.8688,136.8906 37.3063,136.7031 Q36.7438,136.5 36.1813,136.5 Q35.4781,136.5 34.8844,136.7813 Q34.3063,137.0625 33.8531,137.6875 Q33.4,138.3125 33.4,139.1719 L33.4,140.0938 Q33.4,141.125 34.2438,141.8125 Q35.0875,142.5 36.5875,142.5 Q37.4781,142.5 38.1031,142.2969 Q38.4625,142.1875 38.8688,141.8281 Q39.1344,141.625 39.275,141.5625 Q39.4156,141.5 39.5875,141.5 Q39.9156,141.5 40.15,141.7656 Q40.4,142.0156 40.4,142.375 Q40.4,142.7188 40.0563,143.125 Q39.5563,143.7188 38.7594,144.0469 Q37.7125,144.5 36.4313,144.5 Q34.9313,144.5 33.7281,143.9063 Q32.7594,143.4375 32.0719,142.4219 Q31.4,141.4063 31.4,140.2031 L31.4,139.1094 Q31.4,137.8594 31.9938,136.7656 Q32.6031,135.6719 33.65,135.0938 Q34.7125,134.5 35.9,134.5 Q36.6188,134.5 37.2438,134.75 Q37.8688,135 38.4,135.5 Z " fill="#000000"/><text fill="#000000" font-family="sans-serif" font-size="12" lengthAdjust="spacing" textLength="82" x="53.6" y="143.9102">LoadController</text><line style="stroke:#A80036;stroke-width:1.5;" x1="8" x2="152" y1="155" y2="155"/><line style="stroke:#A80036;stroke-width:1.5;" x1="8" x2="152" y1="163" y2="163"/><ellipse cx="18" cy="174" fill="#84BE84" rx="3" ry="3" style="stroke:#038048;stroke-width:1.0;"/><text fill="#000000" font-family="sans-serif" font-size="11" lengthAdjust="spacing" textLength="120" x="27" y="178.4189">createUS206(mmsiCode)</text><!--MD5=[e46214081c5ed9d737875d22e6f697a7]
class US206--><rect codeLine="12" fill="#FEFECE" filter="url(#f10ax715cxwz1t)" height="75.6719" id="US206" style="stroke:#A80036;stroke-width:1.5;" width="120" x="188" y="116"/><ellipse cx="225.5" cy="132" fill="#ADD1B2" rx="11" ry="11" style="stroke:#A80036;stroke-width:1.0;"/><path d="M227.5,128.5 Q227.7031,128 227.9375,127.75 Q228.1719,127.5 228.4375,127.5 Q228.9063,127.5 229.2031,127.7813 Q229.5,128.0625 229.5,128.7188 L229.5,130.2813 Q229.5,130.9375 229.2188,131.2188 Q228.9375,131.5 228.5,131.5 Q228.1094,131.5 227.8594,131.3281 Q227.6094,131.1563 227.5,130.7031 Q227.4531,130.3906 227.2813,130.2188 Q226.9688,129.8906 226.4063,129.7031 Q225.8438,129.5 225.2813,129.5 Q224.5781,129.5 223.9844,129.7813 Q223.4063,130.0625 222.9531,130.6875 Q222.5,131.3125 222.5,132.1719 L222.5,133.0938 Q222.5,134.125 223.3438,134.8125 Q224.1875,135.5 225.6875,135.5 Q226.5781,135.5 227.2031,135.2969 Q227.5625,135.1875 227.9688,134.8281 Q228.2344,134.625 228.375,134.5625 Q228.5156,134.5 228.6875,134.5 Q229.0156,134.5 229.25,134.7656 Q229.5,135.0156 229.5,135.375 Q229.5,135.7188 229.1563,136.125 Q228.6563,136.7188 227.8594,137.0469 Q226.8125,137.5 225.5313,137.5 Q224.0313,137.5 222.8281,136.9063 Q221.8594,136.4375 221.1719,135.4219 Q220.5,134.4063 220.5,133.2031 L220.5,132.1094 Q220.5,130.8594 221.0938,129.7656 Q221.7031,128.6719 222.75,128.0938 Q223.8125,127.5 225,127.5 Q225.7188,127.5 226.3438,127.75 Q226.9688,128 227.5,128.5 Z " fill="#000000"/><text fill="#000000" font-family="sans-serif" font-size="12" lengthAdjust="spacing" textLength="38" x="244.5" y="136.9102">US206</text><line style="stroke:#A80036;stroke-width:1.5;" x1="189" x2="307" y1="148" y2="148"/><line style="stroke:#A80036;stroke-width:1.5;" x1="189" x2="307" y1="156" y2="156"/><rect fill="#F24D5C" height="6" style="stroke:#C82930;stroke-width:1.0;" width="6" x="196" y="164"/><text fill="#000000" font-family="sans-serif" font-size="11" lengthAdjust="spacing" textLength="94" x="208" y="171.4189">initialize(mmsiCode)</text><ellipse cx="199" cy="180.8359" fill="#84BE84" rx="3" ry="3" style="stroke:#038048;stroke-width:1.0;"/><text fill="#000000" font-family="sans-serif" font-size="11" lengthAdjust="spacing" textLength="45" x="208" y="185.2549">toString()</text><!--MD5=[c4c1f95cf25890b8d906953e22c853cc]
class WriteForAFile--><rect codeLine="18" fill="#FEFECE" filter="url(#f10ax715cxwz1t)" height="61.8359" id="WriteForAFile" style="stroke:#A80036;stroke-width:1.5;" width="188" x="154" y="270"/><ellipse cx="207.25" cy="286" fill="#ADD1B2" rx="11" ry="11" style="stroke:#A80036;stroke-width:1.0;"/><path d="M209.25,282.5 Q209.4531,282 209.6875,281.75 Q209.9219,281.5 210.1875,281.5 Q210.6563,281.5 210.9531,281.7813 Q211.25,282.0625 211.25,282.7188 L211.25,284.2813 Q211.25,284.9375 210.9688,285.2188 Q210.6875,285.5 210.25,285.5 Q209.8594,285.5 209.6094,285.3281 Q209.3594,285.1563 209.25,284.7031 Q209.2031,284.3906 209.0313,284.2188 Q208.7188,283.8906 208.1563,283.7031 Q207.5938,283.5 207.0313,283.5 Q206.3281,283.5 205.7344,283.7813 Q205.1563,284.0625 204.7031,284.6875 Q204.25,285.3125 204.25,286.1719 L204.25,287.0938 Q204.25,288.125 205.0938,288.8125 Q205.9375,289.5 207.4375,289.5 Q208.3281,289.5 208.9531,289.2969 Q209.3125,289.1875 209.7188,288.8281 Q209.9844,288.625 210.125,288.5625 Q210.2656,288.5 210.4375,288.5 Q210.7656,288.5 211,288.7656 Q211.25,289.0156 211.25,289.375 Q211.25,289.7188 210.9063,290.125 Q210.4063,290.7188 209.6094,291.0469 Q208.5625,291.5 207.2813,291.5 Q205.7813,291.5 204.5781,290.9063 Q203.6094,290.4375 202.9219,289.4219 Q202.25,288.4063 202.25,287.2031 L202.25,286.1094 Q202.25,284.8594 202.8438,283.7656 Q203.4531,282.6719 204.5,282.0938 Q205.5625,281.5 206.75,281.5 Q207.4688,281.5 208.0938,281.75 Q208.7188,282 209.25,282.5 Z " fill="#000000"/><text fill="#000000" font-family="sans-serif" font-size="12" lengthAdjust="spacing" textLength="73" x="227.75" y="290.9102">WriteForAFile</text><line style="stroke:#A80036;stroke-width:1.5;" x1="155" x2="341" y1="302" y2="302"/><line style="stroke:#A80036;stroke-width:1.5;" x1="155" x2="341" y1="310" y2="310"/><ellipse cx="165" cy="321" fill="#84BE84" rx="3" ry="3" style="stroke:#038048;stroke-width:1.0;"/><text fill="#000000" font-family="sans-serif" font-size="11" lengthAdjust="spacing" textLength="162" x="174" y="325.4189">writeForAFiLe(textualInformation)</text><!--MD5=[0406a485fac0fcbff5988ec883af751c]
link LoadUI to LoadController--><path codeLine="24" d="M80,55.04 C80,72.74 80,97.49 80,117.69 " fill="none" id="LoadUI-to-LoadController" style="stroke:#A80036;stroke-width:1.0;stroke-dasharray:7.0,7.0;"/><polygon fill="#A80036" points="80,122.72,84,113.72,80,117.72,76,113.72,80,122.72" style="stroke:#A80036;stroke-width:1.0;"/><!--MD5=[00883a57d06090ea078fbd4fb3798c69]
link LoadController to US206--><path codeLine="25" d="M153.17,154 C163.06,154 172.94,154 182.82,154 " fill="none" id="LoadController-to-US206" style="stroke:#A80036;stroke-width:1.0;"/><polygon fill="#A80036" points="187.99,154,178.99,150,182.99,154,178.99,158,187.99,154" style="stroke:#A80036;stroke-width:1.0;"/><!--MD5=[efde919f2ddd922570091bad64bce3e3]
link US206 to WriteForAFile--><path codeLine="26" d="M248,192.34 C248,214.56 248,242.59 248,264.48 " fill="none" id="US206-to-WriteForAFile" style="stroke:#A80036;stroke-width:1.0;"/><polygon fill="#A80036" points="248,269.62,252,260.62,248,264.62,244,260.62,248,269.62" style="stroke:#A80036;stroke-width:1.0;"/><text fill="#000000" font-family="sans-serif" font-size="13" lengthAdjust="spacing" textLength="28" x="249" y="236.4951">uses</text><!--MD5=[c3879a6e76ed71fc31a8a5c913a94e4b]
@startuml
'https://plantuml.com/class-diagram

class LoadUI{

}

class LoadController{
+ createUS206(mmsiCode)
}


class US206 {
- initialize(mmsiCode)
+ toString()

}

class WriteForAFile{
+ writeForAFiLe(textualInformation)

}


LoadUI ..> LoadController
LoadController -> US206
US206 - -> WriteForAFile : uses

@enduml

@startuml

class LoadUI{

}

class LoadController{
+ createUS206(mmsiCode)
}


class US206 {
- initialize(mmsiCode)
+ toString()

}

class WriteForAFile{
+ writeForAFiLe(textualInformation)

}


LoadUI ..> LoadController
LoadController -> US206
US206 - -> WriteForAFile : uses

@enduml

PlantUML version 1.2021.11(Sat Oct 02 14:26:11 BST 2021)
(GPL source distribution)
Java Runtime: OpenJDK Runtime Environment
JVM: OpenJDK 64-Bit Server VM
Default Encoding: Cp1252
Language: pt
Country: PT
--></g></svg>