<?xml version="1.0" encoding="UTF-8" standalone="no"?><svg xmlns="http://www.w3.org/2000/svg" xmlns:xlink="http://www.w3.org/1999/xlink" contentScriptType="application/ecmascript" contentStyleType="text/css" height="332px" preserveAspectRatio="none" style="width:363px;height:332px;background:#FFFFFF;" version="1.1" viewBox="0 0 363 332" width="363px" zoomAndPan="magnify"><defs><filter height="300%" id="ffw0dtmir3guu" width="300%" x="-1" y="-1"><feGaussianBlur result="blurOut" stdDeviation="2.0"/><feColorMatrix in="blurOut" result="blurOut2" type="matrix" values="0 0 0 0 0 0 0 0 0 0 0 0 0 0 0 0 0 0 .4 0"/><feOffset dx="4.0" dy="4.0" in="blurOut2" result="blurOut3"/><feBlend in="SourceGraphic" in2="blurOut3" mode="normal"/></filter></defs><g><rect fill="#FFFFFF" filter="url(#ffw0dtmir3guu)" height="129.7578" style="stroke:#A80036;stroke-width:1.0;" width="10" x="43.5" y="99.6094"/><rect fill="#FFFFFF" filter="url(#ffw0dtmir3guu)" height="30.3516" style="stroke:#A80036;stroke-width:1.0;" width="10" x="316.5" y="138.3125"/><rect fill="#FFFFFF" filter="url(#ffw0dtmir3guu)" height="30.3516" style="stroke:#A80036;stroke-width:1.0;" width="10" x="316.5" y="199.0156"/><line style="stroke:#A80036;stroke-width:1.0;stroke-dasharray:5.0,5.0;" x1="48" x2="48" y1="89.6094" y2="247.3672"/><line style="stroke:#A80036;stroke-width:1.0;stroke-dasharray:5.0,5.0;" x1="321.5" x2="321.5" y1="89.6094" y2="247.3672"/><text fill="#000000" font-family="sans-serif" font-size="14" lengthAdjust="spacing" textLength="81" x="5" y="86.5332">Ship Captain</text><ellipse cx="48.5" cy="15" fill="#FEFECE" filter="url(#ffw0dtmir3guu)" rx="8" ry="8" style="stroke:#A80036;stroke-width:2.0;"/><path d="M48.5,23 L48.5,50 M35.5,31 L61.5,31 M48.5,50 L35.5,65 M48.5,50 L61.5,65 " fill="none" filter="url(#ffw0dtmir3guu)" style="stroke:#A80036;stroke-width:2.0;"/><text fill="#000000" font-family="sans-serif" font-size="14" lengthAdjust="spacing" textLength="81" x="5" y="260.9004">Ship Captain</text><ellipse cx="48.5" cy="273.9766" fill="#FEFECE" filter="url(#ffw0dtmir3guu)" rx="8" ry="8" style="stroke:#A80036;stroke-width:2.0;"/><path d="M48.5,281.9766 L48.5,308.9766 M35.5,289.9766 L61.5,289.9766 M48.5,308.9766 L35.5,323.9766 M48.5,308.9766 L61.5,323.9766 " fill="none" filter="url(#ffw0dtmir3guu)" style="stroke:#A80036;stroke-width:2.0;"/><rect fill="#FEFECE" filter="url(#ffw0dtmir3guu)" height="31.6094" style="stroke:#A80036;stroke-width:1.5;" width="60" x="289.5" y="53"/><text fill="#000000" font-family="sans-serif" font-size="14" lengthAdjust="spacing" textLength="46" x="296.5" y="74.5332">System</text><rect fill="#FEFECE" filter="url(#ffw0dtmir3guu)" height="31.6094" style="stroke:#A80036;stroke-width:1.5;" width="60" x="289.5" y="246.3672"/><text fill="#000000" font-family="sans-serif" font-size="14" lengthAdjust="spacing" textLength="46" x="296.5" y="267.9004">System</text><rect fill="#FFFFFF" filter="url(#ffw0dtmir3guu)" height="129.7578" style="stroke:#A80036;stroke-width:1.0;" width="10" x="43.5" y="99.6094"/><rect fill="#FFFFFF" filter="url(#ffw0dtmir3guu)" height="30.3516" style="stroke:#A80036;stroke-width:1.0;" width="10" x="316.5" y="138.3125"/><rect fill="#FFFFFF" filter="url(#ffw0dtmir3guu)" height="30.3516" style="stroke:#A80036;stroke-width:1.0;" width="10" x="316.5" y="199.0156"/><polygon fill="#A80036" points="304.5,134.3125,314.5,138.3125,304.5,142.3125,308.5,138.3125" style="stroke:#A80036;stroke-width:1.0;"/><line style="stroke:#A80036;stroke-width:1.0;" x1="53.5" x2="310.5" y1="138.3125" y2="138.3125"/><text fill="#000000" font-family="sans-serif" font-size="13" lengthAdjust="spacing" textLength="175" x="60.5" y="117.1045">starts the requisition of the list</text><text fill="#000000" font-family="sans-serif" font-size="13" lengthAdjust="spacing" textLength="240" x="64.5" y="133.4561">of containers to be loaded in the next port</text><polygon fill="#A80036" points="64.5,164.6641,54.5,168.6641,64.5,172.6641,60.5,168.6641" style="stroke:#A80036;stroke-width:1.0;"/><line style="stroke:#A80036;stroke-width:1.0;stroke-dasharray:2.0,2.0;" x1="58.5" x2="320.5" y1="168.6641" y2="168.6641"/><text fill="#000000" font-family="sans-serif" font-size="13" lengthAdjust="spacing" textLength="78" x="70.5" y="163.8076">asks the ship</text><polygon fill="#A80036" points="304.5,195.0156,314.5,199.0156,304.5,203.0156,308.5,199.0156" style="stroke:#A80036;stroke-width:1.0;"/><line style="stroke:#A80036;stroke-width:1.0;" x1="53.5" x2="310.5" y1="199.0156" y2="199.0156"/><text fill="#000000" font-family="sans-serif" font-size="13" lengthAdjust="spacing" textLength="75" x="60.5" y="194.1592">type the ship</text><polygon fill="#A80036" points="59.5,225.3672,49.5,229.3672,59.5,233.3672,55.5,229.3672" style="stroke:#A80036;stroke-width:1.0;"/><line style="stroke:#A80036;stroke-width:1.0;stroke-dasharray:2.0,2.0;" x1="53.5" x2="320.5" y1="229.3672" y2="229.3672"/><text fill="#000000" font-family="sans-serif" font-size="13" lengthAdjust="spacing" textLength="158" x="65.5" y="224.5107">shows the list of containers</text><!--MD5=[21683c4bc8e01648277b469c29b1e72e]
@startuml
'https://plantuml.com/class-diagram
actor "Ship Captain" as SC
participant "System" as SY

activate SC
SC -> SY : starts the requisition of the list \n of containers to be loaded in the next port
activate SY
SY - -> SC : asks the ship
deactivate SY
SC -> SY : type the ship

activate SY
SY- ->SC : shows the list of containers
deactivate SY
deactivate SC
@enduml

@startuml
actor "Ship Captain" as SC
participant "System" as SY

activate SC
SC -> SY : starts the requisition of the list \n of containers to be loaded in the next port
activate SY
SY - -> SC : asks the ship
deactivate SY
SC -> SY : type the ship

activate SY
SY- ->SC : shows the list of containers
deactivate SY
deactivate SC
@enduml

PlantUML version 1.2021.11(Sat Oct 02 14:26:11 BST 2021)
(GPL source distribution)
Java Runtime: OpenJDK Runtime Environment
JVM: OpenJDK 64-Bit Server VM
Default Encoding: Cp1252
Language: pt
Country: PT
--></g></svg>